<?xml version="1.0" encoding="UTF-8" standalone="no"?><svg xmlns="http://www.w3.org/2000/svg" xmlns:xlink="http://www.w3.org/1999/xlink" contentStyleType="text/css" height="675px" preserveAspectRatio="none" style="width:666px;height:675px;background:#FFFFFF;" version="1.1" viewBox="0 0 666 675" width="666px" zoomAndPan="magnify"><defs/><g><text fill="#000000" font-family="sans-serif" font-size="14" font-weight="bold" lengthAdjust="spacing" textLength="565" x="49.5" y="28.5352">0x801443fb37b2b6a6acb7a3c1a7d0d0744c237f2bb69defe06319d1ac286d6fe2</text><text fill="#000000" font-family="sans-serif" font-size="14" lengthAdjust="spacing" textLength="347" x="158.5" y="663.1055">mainnet, block 4, Sun, 20 Aug 2023 10:50:11 GMT</text><rect fill="#FFFFFF" height="403.7949" style="stroke:#181818;stroke-width:1.0;" width="10" x="200" y="150.2871"/><rect fill="#FFFFFF" height="317.1738" style="stroke:#181818;stroke-width:1.0;" width="10" x="205" y="208.9082"/><rect fill="#FFFFFF" height="360.4844" style="stroke:#181818;stroke-width:1.0;" width="10" x="363" y="179.5977"/><rect fill="#FFFFFF" height="14" style="stroke:#181818;stroke-width:1.0;" width="10" x="368" y="238.2188"/><rect fill="#FFFFFF" height="57.3105" style="stroke:#181818;stroke-width:1.0;" width="10" x="368" y="324.8398"/><rect fill="#FFFFFF" height="57.3105" style="stroke:#181818;stroke-width:1.0;" width="10" x="368" y="454.7715"/><rect fill="#FFFFFF" height="14" style="stroke:#181818;stroke-width:1.0;" width="10" x="485" y="281.5293"/><rect fill="#FFFFFF" height="14" style="stroke:#181818;stroke-width:1.0;" width="10" x="485" y="354.1504"/><rect fill="#FFFFFF" height="14" style="stroke:#181818;stroke-width:1.0;" width="10" x="601.5" y="411.4609"/><rect fill="#FFFFFF" height="14" style="stroke:#181818;stroke-width:1.0;" width="10" x="601.5" y="484.082"/><line style="stroke:#181818;stroke-width:0.5;stroke-dasharray:5.0,5.0;" x1="53" x2="53" y1="118.9766" y2="572.082"/><line style="stroke:#181818;stroke-width:0.5;stroke-dasharray:5.0,5.0;" x1="205" x2="205" y1="118.9766" y2="572.082"/><line style="stroke:#181818;stroke-width:0.5;stroke-dasharray:5.0,5.0;" x1="368" x2="368" y1="118.9766" y2="572.082"/><line style="stroke:#181818;stroke-width:0.5;stroke-dasharray:5.0,5.0;" x1="490" x2="490" y1="118.9766" y2="572.082"/><line style="stroke:#181818;stroke-width:0.5;stroke-dasharray:5.0,5.0;" x1="606" x2="606" y1="118.9766" y2="572.082"/><text fill="#000000" font-family="sans-serif" font-size="14" lengthAdjust="spacing" textLength="90" x="5" y="116.0234">0xf39f..2266</text><ellipse cx="53" cy="50.9883" fill="#E2E2F0" rx="8" ry="8" style="stroke:#181818;stroke-width:0.5;"/><path d="M53,58.9883 L53,85.9883 M40,66.9883 L66,66.9883 M53,85.9883 L40,100.9883 M53,85.9883 L66,100.9883 " fill="none" style="stroke:#181818;stroke-width:0.5;"/><text fill="#000000" font-family="sans-serif" font-size="14" lengthAdjust="spacing" textLength="90" x="5" y="584.6172">0xf39f..2266</text><ellipse cx="53" cy="596.0703" fill="#E2E2F0" rx="8" ry="8" style="stroke:#181818;stroke-width:0.5;"/><path d="M53,604.0703 L53,631.0703 M40,612.0703 L66,612.0703 M53,631.0703 L40,646.0703 M53,631.0703 L66,646.0703 " fill="none" style="stroke:#181818;stroke-width:0.5;"/><rect fill="#E2E2F0" height="46.9766" rx="2.5" ry="2.5" style="stroke:#181818;stroke-width:0.5;" width="188" x="111" y="71"/><text fill="#000000" font-family="sans-serif" font-size="14" font-style="italic" lengthAdjust="spacing" textLength="174" x="118" y="91.5352">«PoolModifyPositionTest»</text><text fill="#000000" font-family="sans-serif" font-size="14" lengthAdjust="spacing" textLength="85" x="162.5" y="108.0234">0xcf7e..0fc9</text><rect fill="#E2E2F0" height="46.9766" rx="2.5" ry="2.5" style="stroke:#181818;stroke-width:0.5;" width="188" x="111" y="571.082"/><text fill="#000000" font-family="sans-serif" font-size="14" font-style="italic" lengthAdjust="spacing" textLength="174" x="118" y="591.6172">«PoolModifyPositionTest»</text><text fill="#000000" font-family="sans-serif" font-size="14" lengthAdjust="spacing" textLength="85" x="162.5" y="608.1055">0xcf7e..0fc9</text><rect fill="#E2E2F0" height="46.9766" rx="2.5" ry="2.5" style="stroke:#181818;stroke-width:0.5;" width="118" x="309" y="71"/><text fill="#000000" font-family="sans-serif" font-size="14" font-style="italic" lengthAdjust="spacing" textLength="104" x="316" y="91.5352">«PoolManager»</text><text fill="#000000" font-family="sans-serif" font-size="14" lengthAdjust="spacing" textLength="91" x="322.5" y="108.0234">0x9fe4..a6e0</text><rect fill="#E2E2F0" height="46.9766" rx="2.5" ry="2.5" style="stroke:#181818;stroke-width:0.5;" width="118" x="309" y="571.082"/><text fill="#000000" font-family="sans-serif" font-size="14" font-style="italic" lengthAdjust="spacing" textLength="104" x="316" y="591.6172">«PoolManager»</text><text fill="#000000" font-family="sans-serif" font-size="14" lengthAdjust="spacing" textLength="91" x="322.5" y="608.1055">0x9fe4..a6e0</text><rect fill="#E2E2F0" height="46.9766" rx="2.5" ry="2.5" style="stroke:#181818;stroke-width:0.5;" width="106" x="437" y="71"/><text fill="#000000" font-family="sans-serif" font-size="14" font-style="italic" lengthAdjust="spacing" textLength="88" x="446" y="91.5352">«TestERC20»</text><text fill="#000000" font-family="sans-serif" font-size="14" lengthAdjust="spacing" textLength="92" x="444" y="108.0234">0x5fbd..0aa3</text><rect fill="#E2E2F0" height="46.9766" rx="2.5" ry="2.5" style="stroke:#181818;stroke-width:0.5;" width="106" x="437" y="571.082"/><text fill="#000000" font-family="sans-serif" font-size="14" font-style="italic" lengthAdjust="spacing" textLength="88" x="446" y="591.6172">«TestERC20»</text><text fill="#000000" font-family="sans-serif" font-size="14" lengthAdjust="spacing" textLength="92" x="444" y="608.1055">0x5fbd..0aa3</text><rect fill="#E2E2F0" height="46.9766" rx="2.5" ry="2.5" style="stroke:#181818;stroke-width:0.5;" width="107" x="553" y="71"/><text fill="#000000" font-family="sans-serif" font-size="14" font-style="italic" lengthAdjust="spacing" textLength="88" x="562.5" y="91.5352">«TestERC20»</text><text fill="#000000" font-family="sans-serif" font-size="14" lengthAdjust="spacing" textLength="93" x="560" y="108.0234">0xe7f1..0512</text><rect fill="#E2E2F0" height="46.9766" rx="2.5" ry="2.5" style="stroke:#181818;stroke-width:0.5;" width="107" x="553" y="571.082"/><text fill="#000000" font-family="sans-serif" font-size="14" font-style="italic" lengthAdjust="spacing" textLength="88" x="562.5" y="591.6172">«TestERC20»</text><text fill="#000000" font-family="sans-serif" font-size="14" lengthAdjust="spacing" textLength="93" x="560" y="608.1055">0xe7f1..0512</text><rect fill="#FFFFFF" height="403.7949" style="stroke:#181818;stroke-width:1.0;" width="10" x="200" y="150.2871"/><rect fill="#FFFFFF" height="317.1738" style="stroke:#181818;stroke-width:1.0;" width="10" x="205" y="208.9082"/><rect fill="#FFFFFF" height="360.4844" style="stroke:#181818;stroke-width:1.0;" width="10" x="363" y="179.5977"/><rect fill="#FFFFFF" height="14" style="stroke:#181818;stroke-width:1.0;" width="10" x="368" y="238.2188"/><rect fill="#FFFFFF" height="57.3105" style="stroke:#181818;stroke-width:1.0;" width="10" x="368" y="324.8398"/><rect fill="#FFFFFF" height="57.3105" style="stroke:#181818;stroke-width:1.0;" width="10" x="368" y="454.7715"/><rect fill="#FFFFFF" height="14" style="stroke:#181818;stroke-width:1.0;" width="10" x="485" y="281.5293"/><rect fill="#FFFFFF" height="14" style="stroke:#181818;stroke-width:1.0;" width="10" x="485" y="354.1504"/><rect fill="#FFFFFF" height="14" style="stroke:#181818;stroke-width:1.0;" width="10" x="601.5" y="411.4609"/><rect fill="#FFFFFF" height="14" style="stroke:#181818;stroke-width:1.0;" width="10" x="601.5" y="484.082"/><polygon fill="#181818" points="188,146.2871,198,150.2871,188,154.2871,192,150.2871" style="stroke:#181818;stroke-width:1.0;"/><line style="stroke:#181818;stroke-width:1.0;" x1="53" x2="194" y1="150.2871" y2="150.2871"/><text fill="#000000" font-family="sans-serif" font-size="13" lengthAdjust="spacing" textLength="95" x="60" y="145.5449">modifyPosition</text><polygon fill="#181818" points="351,175.5977,361,179.5977,351,183.5977,355,179.5977" style="stroke:#181818;stroke-width:1.0;"/><line style="stroke:#181818;stroke-width:1.0;" x1="210" x2="357" y1="179.5977" y2="179.5977"/><text fill="#000000" font-family="sans-serif" font-size="13" lengthAdjust="spacing" textLength="27" x="217" y="174.8555">lock</text><polygon fill="#181818" points="226,204.9082,216,208.9082,226,212.9082,222,208.9082" style="stroke:#181818;stroke-width:1.0;"/><line style="stroke:#181818;stroke-width:1.0;" x1="220" x2="362" y1="208.9082" y2="208.9082"/><text fill="#000000" font-family="sans-serif" font-size="13" lengthAdjust="spacing" textLength="83" x="232" y="204.166">lockAcquired</text><polygon fill="#181818" points="356,234.2188,366,238.2188,356,242.2188,360,238.2188" style="stroke:#181818;stroke-width:1.0;"/><line style="stroke:#181818;stroke-width:1.0;" x1="215" x2="362" y1="238.2188" y2="238.2188"/><text fill="#000000" font-family="sans-serif" font-size="13" lengthAdjust="spacing" textLength="95" x="222" y="233.4766">modifyPosition</text><polygon fill="#181818" points="226,248.2188,216,252.2188,226,256.2188,222,252.2188" style="stroke:#181818;stroke-width:1.0;"/><line style="stroke:#181818;stroke-width:1.0;stroke-dasharray:2.0,2.0;" x1="220" x2="362" y1="252.2188" y2="252.2188"/><polygon fill="#181818" points="473,277.5293,483,281.5293,473,285.5293,477,281.5293" style="stroke:#181818;stroke-width:1.0;"/><line style="stroke:#181818;stroke-width:1.0;" x1="215" x2="479" y1="281.5293" y2="281.5293"/><text fill="#000000" font-family="sans-serif" font-size="13" lengthAdjust="spacing" textLength="81" x="222" y="276.7871">transferFrom</text><polygon fill="#181818" points="226,291.5293,216,295.5293,226,299.5293,222,295.5293" style="stroke:#181818;stroke-width:1.0;"/><line style="stroke:#181818;stroke-width:1.0;stroke-dasharray:2.0,2.0;" x1="220" x2="489" y1="295.5293" y2="295.5293"/><polygon fill="#181818" points="356,320.8398,366,324.8398,356,328.8398,360,324.8398" style="stroke:#181818;stroke-width:1.0;"/><line style="stroke:#181818;stroke-width:1.0;" x1="215" x2="362" y1="324.8398" y2="324.8398"/><text fill="#000000" font-family="sans-serif" font-size="13" lengthAdjust="spacing" textLength="35" x="222" y="320.0977">settle</text><polygon fill="#181818" points="473,350.1504,483,354.1504,473,358.1504,477,354.1504" style="stroke:#181818;stroke-width:1.0;"/><line style="stroke:#181818;stroke-width:1.0;" x1="378" x2="479" y1="354.1504" y2="354.1504"/><text fill="#000000" font-family="sans-serif" font-size="13" lengthAdjust="spacing" textLength="63" x="385" y="349.4082">balanceOf</text><polygon fill="#181818" points="389,364.1504,379,368.1504,389,372.1504,385,368.1504" style="stroke:#181818;stroke-width:1.0;"/><line style="stroke:#181818;stroke-width:1.0;stroke-dasharray:2.0,2.0;" x1="383" x2="489" y1="368.1504" y2="368.1504"/><polygon fill="#181818" points="226,378.1504,216,382.1504,226,386.1504,222,382.1504" style="stroke:#181818;stroke-width:1.0;"/><line style="stroke:#181818;stroke-width:1.0;stroke-dasharray:2.0,2.0;" x1="220" x2="362" y1="382.1504" y2="382.1504"/><polygon fill="#181818" points="589.5,407.4609,599.5,411.4609,589.5,415.4609,593.5,411.4609" style="stroke:#181818;stroke-width:1.0;"/><line style="stroke:#181818;stroke-width:1.0;" x1="215" x2="595.5" y1="411.4609" y2="411.4609"/><text fill="#000000" font-family="sans-serif" font-size="13" lengthAdjust="spacing" textLength="81" x="222" y="406.7188">transferFrom</text><polygon fill="#181818" points="226,421.4609,216,425.4609,226,429.4609,222,425.4609" style="stroke:#181818;stroke-width:1.0;"/><line style="stroke:#181818;stroke-width:1.0;stroke-dasharray:2.0,2.0;" x1="220" x2="605.5" y1="425.4609" y2="425.4609"/><polygon fill="#181818" points="356,450.7715,366,454.7715,356,458.7715,360,454.7715" style="stroke:#181818;stroke-width:1.0;"/><line style="stroke:#181818;stroke-width:1.0;" x1="215" x2="362" y1="454.7715" y2="454.7715"/><text fill="#000000" font-family="sans-serif" font-size="13" lengthAdjust="spacing" textLength="35" x="222" y="450.0293">settle</text><polygon fill="#181818" points="589.5,480.082,599.5,484.082,589.5,488.082,593.5,484.082" style="stroke:#181818;stroke-width:1.0;"/><line style="stroke:#181818;stroke-width:1.0;" x1="378" x2="595.5" y1="484.082" y2="484.082"/><text fill="#000000" font-family="sans-serif" font-size="13" lengthAdjust="spacing" textLength="63" x="385" y="479.3398">balanceOf</text><polygon fill="#181818" points="389,494.082,379,498.082,389,502.082,385,498.082" style="stroke:#181818;stroke-width:1.0;"/><line style="stroke:#181818;stroke-width:1.0;stroke-dasharray:2.0,2.0;" x1="383" x2="605.5" y1="498.082" y2="498.082"/><polygon fill="#181818" points="226,508.082,216,512.082,226,516.082,222,512.082" style="stroke:#181818;stroke-width:1.0;"/><line style="stroke:#181818;stroke-width:1.0;stroke-dasharray:2.0,2.0;" x1="220" x2="362" y1="512.082" y2="512.082"/><polygon fill="#181818" points="351,522.082,361,526.082,351,530.082,355,526.082" style="stroke:#181818;stroke-width:1.0;"/><line style="stroke:#181818;stroke-width:1.0;stroke-dasharray:2.0,2.0;" x1="210" x2="357" y1="526.082" y2="526.082"/><polygon fill="#181818" points="221,536.082,211,540.082,221,544.082,217,540.082" style="stroke:#181818;stroke-width:1.0;"/><line style="stroke:#181818;stroke-width:1.0;stroke-dasharray:2.0,2.0;" x1="215" x2="367" y1="540.082" y2="540.082"/><polygon fill="#181818" points="64,550.082,54,554.082,64,558.082,60,554.082" style="stroke:#181818;stroke-width:1.0;"/><line style="stroke:#181818;stroke-width:1.0;stroke-dasharray:2.0,2.0;" x1="58" x2="204" y1="554.082" y2="554.082"/><!--SRC=[hP9DJiCm48NtESMewnBPJkgG25L225WXAkW5niwuicYTuhW8RazSAOdw1onOMI-UDz-ySO8DQmBsUSrudcT6POKIIg94hGhCDCUYPZKhyboBh312ALdMP8Z9Z9SrHoskPIqDYIJHk0ssSR11wno5AQXrezyWdyBhpar1CBZThRf3PC1PDMCLv_3uj4nGXyR3X7sQh3HfAeIK4y0Meem2aYtwOBNTeWknJfk2qfGPNUxheem2RcuMJRD-QcfhlXPDQ-CqIsh3V7xSeJIKfobAOliEKKRHTq27A_AdjfbHTGT6pFQsAAFeR15p_t8dsAc92iCxquoBlIdAA8vCoP3sQZuagc1p42QkodvWeA4Y6S9tjZv61N7nOt7_FHbo7Z1YyQr-trbFzPy9bmORM9x2phi3Tx-l2e97rnho3xxPZDx-_fnt9BSKkZ_sbtGZIk4QdQPdSvbp1jU_qgLH-_j_67L4dHdrcFFJyGq0]--></g></svg>