<?xml version="1.0" encoding="us-ascii" standalone="no"?><svg xmlns="http://www.w3.org/2000/svg" xmlns:xlink="http://www.w3.org/1999/xlink" contentStyleType="text/css" height="1137px" preserveAspectRatio="none" style="width:731px;height:1137px;background:#FFFFFF;" version="1.1" viewBox="0 0 731 1137" width="731px" zoomAndPan="magnify"><defs/><g><rect fill="#FFFFFF" height="72.6211" style="stroke:#181818;stroke-width:1.0;" width="10" x="270" y="167.7305"/><rect fill="#FFFFFF" height="14" style="stroke:#181818;stroke-width:1.0;" width="10" x="407" y="197.041"/><rect fill="#FFFFFF" height="29.3105" style="stroke:#181818;stroke-width:1.0;" width="10" x="407" y="656.4941"/><rect fill="#FFFFFF" height="29.3105" style="stroke:#181818;stroke-width:1.0;" width="10" x="407" y="806.9785"/><rect fill="#FFFFFF" height="330.2793" style="stroke:#181818;stroke-width:1.0;" width="10" x="613" y="535.3203"/><rect fill="none" height="277.0371" style="stroke:#000000;stroke-width:1.5;" width="715" x="10" y="98.4883"/><rect fill="none" height="611.248" style="stroke:#000000;stroke-width:1.5;" width="715" x="10" y="389.5254"/><line style="stroke:#181818;stroke-width:0.5;stroke-dasharray:5.0,5.0;" x1="68" x2="68" y1="81.4883" y2="1017.7734"/><line style="stroke:#181818;stroke-width:0.5;stroke-dasharray:5.0,5.0;" x1="275" x2="275" y1="81.4883" y2="1017.7734"/><line style="stroke:#181818;stroke-width:0.5;stroke-dasharray:5.0,5.0;" x1="412" x2="412" y1="81.4883" y2="1017.7734"/><line style="stroke:#181818;stroke-width:0.5;stroke-dasharray:5.0,5.0;" x1="618" x2="618" y1="81.4883" y2="1017.7734"/><text fill="#000000" font-family="sans-serif" font-size="14" lengthAdjust="spacing" textLength="90" x="20" y="78.5352">0xf39f..2266</text><ellipse cx="68" cy="13.5" fill="#E2E2F0" rx="8" ry="8" style="stroke:#181818;stroke-width:0.5;"/><path d="M68,21.5 L68,48.5 M55,29.5 L81,29.5 M68,48.5 L55,63.5 M68,48.5 L81,63.5 " fill="none" style="stroke:#181818;stroke-width:0.5;"/><text fill="#000000" font-family="sans-serif" font-size="14" lengthAdjust="spacing" textLength="90" x="20" y="1030.3086">0xf39f..2266</text><ellipse cx="68" cy="1041.7617" fill="#E2E2F0" rx="8" ry="8" style="stroke:#181818;stroke-width:0.5;"/><path d="M68,1049.7617 L68,1076.7617 M55,1057.7617 L81,1057.7617 M68,1076.7617 L55,1091.7617 M68,1076.7617 L81,1091.7617 " fill="none" style="stroke:#181818;stroke-width:0.5;"/><rect fill="#E2E2F0" height="46.9766" rx="2.5" ry="2.5" style="stroke:#181818;stroke-width:0.5;" width="134" x="208" y="33.5117"/><text fill="#000000" font-family="sans-serif" font-size="14" font-style="italic" lengthAdjust="spacing" textLength="120" x="215" y="54.0469">&#171;CounterFactory&#187;</text><text fill="#000000" font-family="sans-serif" font-size="14" lengthAdjust="spacing" textLength="95" x="227.5" y="70.5352">0xa513..c853</text><rect fill="#E2E2F0" height="46.9766" rx="2.5" ry="2.5" style="stroke:#181818;stroke-width:0.5;" width="134" x="208" y="1016.7734"/><text fill="#000000" font-family="sans-serif" font-size="14" font-style="italic" lengthAdjust="spacing" textLength="120" x="215" y="1037.3086">&#171;CounterFactory&#187;</text><text fill="#000000" font-family="sans-serif" font-size="14" lengthAdjust="spacing" textLength="95" x="227.5" y="1053.7969">0xa513..c853</text><rect fill="#E2E2F0" height="46.9766" rx="2.5" ry="2.5" style="stroke:#181818;stroke-width:0.5;" width="120" x="352" y="33.5117"/><text fill="#000000" font-family="sans-serif" font-size="14" font-style="italic" lengthAdjust="spacing" textLength="106" x="359" y="54.0469">&#171;CounterHook&#187;</text><text fill="#000000" font-family="sans-serif" font-size="14" lengthAdjust="spacing" textLength="96" x="364" y="70.5352">0x3c7d..0652</text><rect fill="#E2E2F0" height="46.9766" rx="2.5" ry="2.5" style="stroke:#181818;stroke-width:0.5;" width="120" x="352" y="1016.7734"/><text fill="#000000" font-family="sans-serif" font-size="14" font-style="italic" lengthAdjust="spacing" textLength="106" x="359" y="1037.3086">&#171;CounterHook&#187;</text><text fill="#000000" font-family="sans-serif" font-size="14" lengthAdjust="spacing" textLength="96" x="364" y="1053.7969">0x3c7d..0652</text><rect fill="#E2E2F0" height="46.9766" rx="2.5" ry="2.5" style="stroke:#181818;stroke-width:0.5;" width="118" x="559" y="33.5117"/><text fill="#000000" font-family="sans-serif" font-size="14" font-style="italic" lengthAdjust="spacing" textLength="104" x="566" y="54.0469">&#171;PoolManager&#187;</text><text fill="#000000" font-family="sans-serif" font-size="14" lengthAdjust="spacing" textLength="91" x="572.5" y="70.5352">0x9fe4..a6e0</text><rect fill="#E2E2F0" height="46.9766" rx="2.5" ry="2.5" style="stroke:#181818;stroke-width:0.5;" width="118" x="559" y="1016.7734"/><text fill="#000000" font-family="sans-serif" font-size="14" font-style="italic" lengthAdjust="spacing" textLength="104" x="566" y="1037.3086">&#171;PoolManager&#187;</text><text fill="#000000" font-family="sans-serif" font-size="14" lengthAdjust="spacing" textLength="91" x="572.5" y="1053.7969">0x9fe4..a6e0</text><rect fill="#FFFFFF" height="72.6211" style="stroke:#181818;stroke-width:1.0;" width="10" x="270" y="167.7305"/><rect fill="#FFFFFF" height="14" style="stroke:#181818;stroke-width:1.0;" width="10" x="407" y="197.041"/><rect fill="#FFFFFF" height="29.3105" style="stroke:#181818;stroke-width:1.0;" width="10" x="407" y="656.4941"/><rect fill="#FFFFFF" height="29.3105" style="stroke:#181818;stroke-width:1.0;" width="10" x="407" y="806.9785"/><rect fill="#FFFFFF" height="330.2793" style="stroke:#181818;stroke-width:1.0;" width="10" x="613" y="535.3203"/><path d="M10,98.4883 L603,98.4883 L603,105.7988 L593,115.7988 L10,115.7988 L10,98.4883 " fill="#EEEEEE" style="stroke:#000000;stroke-width:1.5;"/><rect fill="none" height="277.0371" style="stroke:#000000;stroke-width:1.5;" width="715" x="10" y="98.4883"/><text fill="#000000" font-family="sans-serif" font-size="13" font-weight="bold" lengthAdjust="spacing" textLength="548" x="25" y="112.0566">0x3f17825b8fe0d777f7ddf35ee512a9258ef1234869bcf02f715ebd9f4af28358</text><polygon fill="#181818" points="258,163.7305,268,167.7305,258,171.7305,262,167.7305" style="stroke:#181818;stroke-width:1.0;"/><line style="stroke:#181818;stroke-width:1.0;" x1="68" x2="264" y1="167.7305" y2="167.7305"/><text fill="#000000" font-family="sans-serif" font-size="13" lengthAdjust="spacing" textLength="79" x="75" y="132.3672">mineDeploy(</text><text fill="#000000" font-family="sans-serif" font-size="13" lengthAdjust="spacing" textLength="175" x="83" y="147.6777">poolManager: 0x9fE4..a6e0,</text><text fill="#000000" font-family="sans-serif" font-size="13" lengthAdjust="spacing" textLength="88" x="83" y="162.9883">startSalt: 282)</text><ellipse cx="406.5" cy="196.291" fill="none" rx="4" ry="4" style="stroke:#181818;stroke-width:1.5;"/><polygon fill="#181818" points="389.5,193.041,399.5,197.041,389.5,201.041,393.5,197.041" style="stroke:#181818;stroke-width:1.0;"/><line style="stroke:#181818;stroke-width:1.0;" x1="280" x2="395.5" y1="197.041" y2="197.041"/><text fill="#000000" font-family="sans-serif" font-size="13" lengthAdjust="spacing" textLength="81" x="287" y="192.2988">constructor()</text><ellipse cx="279.5" cy="210.291" fill="none" rx="4" ry="4" style="stroke:#181818;stroke-width:1.5;"/><polygon fill="#181818" points="296.5,207.041,286.5,211.041,296.5,215.041,292.5,211.041" style="stroke:#181818;stroke-width:1.0;"/><line style="stroke:#181818;stroke-width:1.0;stroke-dasharray:2.0,2.0;" x1="294.5" x2="411" y1="211.041" y2="211.041"/><polygon fill="#181818" points="79,236.3516,69,240.3516,79,244.3516,75,240.3516" style="stroke:#181818;stroke-width:1.0;"/><line style="stroke:#181818;stroke-width:1.0;stroke-dasharray:2.0,2.0;" x1="73" x2="274" y1="240.3516" y2="240.3516"/><text fill="#000000" font-family="sans-serif" font-size="13" lengthAdjust="spacing" textLength="87" x="85" y="235.6094">0x3c7d..0652</text><path d="M520,253.3516 L520,370.3516 L715,370.3516 L715,263.3516 L705,253.3516 L520,253.3516 " fill="#00FFFF" style="stroke:#181818;stroke-width:0.5;"/><path d="M705,253.3516 L705,263.3516 L715,263.3516 L705,253.3516 " fill="#00FFFF" style="stroke:#181818;stroke-width:0.5;"/><text fill="#000000" font-family="sans-serif" font-size="13" lengthAdjust="spacing" textLength="58" x="526" y="270.9199">Initialize:</text><text fill="#000000" font-family="sans-serif" font-size="13" lengthAdjust="spacing" textLength="166" x="534" y="286.2305">id: 0x1f1ae639..7aab7d7f,</text><text fill="#000000" font-family="sans-serif" font-size="13" lengthAdjust="spacing" textLength="161" x="534" y="301.541">currency0: 0x5FbD..0aa3,</text><text fill="#000000" font-family="sans-serif" font-size="13" lengthAdjust="spacing" textLength="158" x="534" y="316.8516">currency1: 0xe7f1..0512,</text><text fill="#000000" font-family="sans-serif" font-size="13" lengthAdjust="spacing" textLength="95" x="534" y="332.1621">fee: 6,294,456,</text><text fill="#000000" font-family="sans-serif" font-size="13" lengthAdjust="spacing" textLength="101" x="534" y="347.4727">tickSpacing: 60,</text><text fill="#000000" font-family="sans-serif" font-size="13" lengthAdjust="spacing" textLength="134" x="534" y="362.7832">hooks: 0x3c7d..0652</text><path d="M10,389.5254 L616,389.5254 L616,396.8359 L606,406.8359 L10,406.8359 L10,389.5254 " fill="#EEEEEE" style="stroke:#000000;stroke-width:1.5;"/><rect fill="none" height="611.248" style="stroke:#000000;stroke-width:1.5;" width="715" x="10" y="389.5254"/><text fill="#000000" font-family="sans-serif" font-size="13" font-weight="bold" lengthAdjust="spacing" textLength="561" x="25" y="403.0938">0x3e8aa6240dfe1302a385bafc15dec04bf11322723d5a7a180e47fd0095a090a1</text><polygon fill="#181818" points="601,531.3203,611,535.3203,601,539.3203,605,535.3203" style="stroke:#181818;stroke-width:1.0;"/><line style="stroke:#181818;stroke-width:1.0;" x1="68" x2="607" y1="535.3203" y2="535.3203"/><text fill="#000000" font-family="sans-serif" font-size="13" lengthAdjust="spacing" textLength="58" x="75" y="423.4043">initialize(</text><text fill="#000000" font-family="sans-serif" font-size="13" lengthAdjust="spacing" textLength="34" x="83" y="438.7148">key: [</text><text fill="#000000" font-family="sans-serif" font-size="13" lengthAdjust="spacing" textLength="161" x="91" y="454.0254">currency0: 0x5FbD..0aa3,</text><text fill="#000000" font-family="sans-serif" font-size="13" lengthAdjust="spacing" textLength="158" x="91" y="469.3359">currency1: 0xe7f1..0512,</text><text fill="#000000" font-family="sans-serif" font-size="13" lengthAdjust="spacing" textLength="95" x="91" y="484.6465">fee: 6,294,456,</text><text fill="#000000" font-family="sans-serif" font-size="13" lengthAdjust="spacing" textLength="101" x="91" y="499.957">tickSpacing: 60,</text><text fill="#000000" font-family="sans-serif" font-size="13" lengthAdjust="spacing" textLength="142" x="91" y="515.2676">hooks: 0x3c7d..0652],</text><text fill="#000000" font-family="sans-serif" font-size="13" lengthAdjust="spacing" textLength="363" x="83" y="530.5781">sqrtPriceX96: 79,228,162,514,,264,337,593,543,950,336)</text><polygon fill="#181818" points="428,652.4941,418,656.4941,428,660.4941,424,656.4941" style="stroke:#181818;stroke-width:1.0;"/><line style="stroke:#181818;stroke-width:1.0;" x1="422" x2="612" y1="656.4941" y2="656.4941"/><text fill="#000000" font-family="sans-serif" font-size="13" lengthAdjust="spacing" textLength="111" x="434" y="559.8887">getHookSwapFee(</text><text fill="#000000" font-family="sans-serif" font-size="13" lengthAdjust="spacing" textLength="34" x="442" y="575.1992">key: [</text><text fill="#000000" font-family="sans-serif" font-size="13" lengthAdjust="spacing" textLength="161" x="450" y="590.5098">currency0: 0x5FbD..0aa3,</text><text fill="#000000" font-family="sans-serif" font-size="13" lengthAdjust="spacing" textLength="158" x="450" y="605.8203">currency1: 0xe7f1..0512,</text><text fill="#000000" font-family="sans-serif" font-size="13" lengthAdjust="spacing" textLength="95" x="450" y="621.1309">fee: 6,294,456,</text><text fill="#000000" font-family="sans-serif" font-size="13" lengthAdjust="spacing" textLength="101" x="450" y="636.4414">tickSpacing: 60,</text><text fill="#000000" font-family="sans-serif" font-size="13" lengthAdjust="spacing" textLength="142" x="450" y="651.752">hooks: 0x3c7d..0652])</text><polygon fill="#181818" points="601,681.8047,611,685.8047,601,689.8047,605,685.8047" style="stroke:#181818;stroke-width:1.0;"/><line style="stroke:#181818;stroke-width:1.0;stroke-dasharray:2.0,2.0;" x1="412" x2="607" y1="685.8047" y2="685.8047"/><text fill="#000000" font-family="sans-serif" font-size="13" lengthAdjust="spacing" textLength="43" x="419" y="681.0625">fee: 85</text><polygon fill="#181818" points="428,802.9785,418,806.9785,428,810.9785,424,806.9785" style="stroke:#181818;stroke-width:1.0;"/><line style="stroke:#181818;stroke-width:1.0;" x1="422" x2="612" y1="806.9785" y2="806.9785"/><text fill="#000000" font-family="sans-serif" font-size="13" lengthAdjust="spacing" textLength="137" x="434" y="710.373">getHookWithdrawFee(</text><text fill="#000000" font-family="sans-serif" font-size="13" lengthAdjust="spacing" textLength="34" x="442" y="725.6836">key: [</text><text fill="#000000" font-family="sans-serif" font-size="13" lengthAdjust="spacing" textLength="161" x="450" y="740.9941">currency0: 0x5FbD..0aa3,</text><text fill="#000000" font-family="sans-serif" font-size="13" lengthAdjust="spacing" textLength="158" x="450" y="756.3047">currency1: 0xe7f1..0512,</text><text fill="#000000" font-family="sans-serif" font-size="13" lengthAdjust="spacing" textLength="95" x="450" y="771.6152">fee: 6,294,456,</text><text fill="#000000" font-family="sans-serif" font-size="13" lengthAdjust="spacing" textLength="101" x="450" y="786.9258">tickSpacing: 60,</text><text fill="#000000" font-family="sans-serif" font-size="13" lengthAdjust="spacing" textLength="142" x="450" y="802.2363">hooks: 0x3c7d..0652])</text><polygon fill="#181818" points="601,832.2891,611,836.2891,601,840.2891,605,836.2891" style="stroke:#181818;stroke-width:1.0;"/><line style="stroke:#181818;stroke-width:1.0;stroke-dasharray:2.0,2.0;" x1="412" x2="607" y1="836.2891" y2="836.2891"/><text fill="#000000" font-family="sans-serif" font-size="13" lengthAdjust="spacing" textLength="43" x="419" y="831.5469">fee: 51</text><polygon fill="#181818" points="79,861.5996,69,865.5996,79,869.5996,75,865.5996" style="stroke:#181818;stroke-width:1.0;"/><line style="stroke:#181818;stroke-width:1.0;stroke-dasharray:2.0,2.0;" x1="73" x2="617" y1="865.5996" y2="865.5996"/><text fill="#000000" font-family="sans-serif" font-size="13" lengthAdjust="spacing" textLength="28" x="85" y="860.8574">tick:</text><path d="M520,878.5996 L520,995.5996 L715,995.5996 L715,888.5996 L705,878.5996 L520,878.5996 " fill="#00FFFF" style="stroke:#181818;stroke-width:0.5;"/><path d="M705,878.5996 L705,888.5996 L715,888.5996 L705,878.5996 " fill="#00FFFF" style="stroke:#181818;stroke-width:0.5;"/><text fill="#000000" font-family="sans-serif" font-size="13" lengthAdjust="spacing" textLength="58" x="526" y="896.168">Initialize:</text><text fill="#000000" font-family="sans-serif" font-size="13" lengthAdjust="spacing" textLength="166" x="534" y="911.4785">id: 0x1f1ae639..7aab7d7f,</text><text fill="#000000" font-family="sans-serif" font-size="13" lengthAdjust="spacing" textLength="161" x="534" y="926.7891">currency0: 0x5FbD..0aa3,</text><text fill="#000000" font-family="sans-serif" font-size="13" lengthAdjust="spacing" textLength="158" x="534" y="942.0996">currency1: 0xe7f1..0512,</text><text fill="#000000" font-family="sans-serif" font-size="13" lengthAdjust="spacing" textLength="95" x="534" y="957.4102">fee: 6,294,456,</text><text fill="#000000" font-family="sans-serif" font-size="13" lengthAdjust="spacing" textLength="101" x="534" y="972.7207">tickSpacing: 60,</text><text fill="#000000" font-family="sans-serif" font-size="13" lengthAdjust="spacing" textLength="134" x="534" y="988.0313">hooks: 0x3c7d..0652</text><text fill="#888888" font-family="sans-serif" font-size="10" lengthAdjust="spacing" textLength="226" x="254" y="1103.9297">none, block 5, Tue, 29 Aug 2023 03:37:42 GMT</text><text fill="#888888" font-family="sans-serif" font-size="10" lengthAdjust="spacing" textLength="226" x="254" y="1115.707">none, block 5, Tue, 29 Aug 2023 03:37:42 GMT</text><text fill="#888888" font-family="sans-serif" font-size="10" lengthAdjust="spacing" textLength="3" x="365.5" y="1127.4844">&#160;</text><!--SRC=[rLDDRzGm4BtdLrXmAP8R-IEEuwXQ2L4A72fLQYMGWCCa6M-ZNUBKcxGilnuxotvqWKhSw2bvVZFZUM_6rha1VTAv3YcfbgvU44N9pHYGCEJrE2U22KcOBAKkCq7UNTxyMt22NMCtbq0zE4zUiEzM6fkcGkJv2m8h4c449Ed13stTzj0DCGuKbsbQ5qfESH56GCxEthYn2oKlffBhsUmuKzQwILEMAp5bHXZ1FlEzSulVqup5B4qXHpQbHHX1IBjoRda97SpHXxHaxjtOat2FvReGgYeiiaPhRNNJMAaG5HTWX2hGSY6p8ZTLRPcmcYki6cCpiAAGgaXssazdEtqb-TPsU8xzqgrFldI4zFlBInAxVFkhInhPrH14NCDoA8aenAjeStiF0-xg9JlZJcTkvqL9QjUj1Zz62qyEqhO1YSTXz1tPVWzTJS8IX51tZtxlqaku6o7vqBL32yls1vO98MqJE-QM0-RIfAa6g7IZBGrSFNgFNRrcCKHTLEUXDe0yf7YaK5iUg61ff2nYIN8gJ4OpbSUJCC75TGzrsyq3m-BHRHZlgdpSSbX44hkULd8_GIm0Sf6nnYANJ80iL0Msvgh1ccMLvLmAeOLi56ZW1SDCsuOneu0P1lpH1BTMbAJTkJ1DS87hadoEVt-N_PWzLhvXZyHl3e_rRqx_OC7NpRxS-U7AjpL-Cdb9jA5259JdWYgUKIhoZ4gfgJAIganIerZ0-S5-R4Kcky47vVkjckCG7zVr0_GN-5-fVsB7fyg5UbhIntQuRJmyF3DPYczXh5cIP_zsVm80]--></g></svg>