<?xml version="1.0" encoding="us-ascii" standalone="no"?><svg xmlns="http://www.w3.org/2000/svg" xmlns:xlink="http://www.w3.org/1999/xlink" contentStyleType="text/css" height="790px" preserveAspectRatio="none" style="width:627px;height:790px;background:#FFFFFF;" version="1.1" viewBox="0 0 627 790" width="627px" zoomAndPan="magnify"><defs/><g><rect fill="#FFFFFF" height="57.3105" style="stroke:#181818;stroke-width:1.0;" width="10" x="175.5" y="137.1094"/><rect fill="#FFFFFF" height="14" style="stroke:#181818;stroke-width:1.0;" width="10" x="300" y="166.4199"/><rect fill="#FFFFFF" height="29.3105" style="stroke:#181818;stroke-width:1.0;" width="10" x="458" y="489.3887"/><rect fill="none" height="231.1055" style="stroke:#000000;stroke-width:1.5;" width="611" x="10" y="98.4883"/><rect fill="none" height="310.2793" style="stroke:#000000;stroke-width:1.5;" width="601" x="10" y="343.5938"/><line style="stroke:#181818;stroke-width:0.5;stroke-dasharray:5.0,5.0;" x1="68" x2="68" y1="81.4883" y2="670.873"/><line style="stroke:#181818;stroke-width:0.5;stroke-dasharray:5.0,5.0;" x1="180" x2="180" y1="81.4883" y2="670.873"/><line style="stroke:#181818;stroke-width:0.5;stroke-dasharray:5.0,5.0;" x1="305" x2="305" y1="81.4883" y2="670.873"/><line style="stroke:#181818;stroke-width:0.5;stroke-dasharray:5.0,5.0;" x1="463" x2="463" y1="81.4883" y2="670.873"/><text fill="#000000" font-family="sans-serif" font-size="14" lengthAdjust="spacing" textLength="90" x="20" y="78.5352">0xf39f..2266</text><ellipse cx="68" cy="13.5" fill="#E2E2F0" rx="8" ry="8" style="stroke:#181818;stroke-width:0.5;"/><path d="M68,21.5 L68,48.5 M55,29.5 L81,29.5 M68,48.5 L55,63.5 M68,48.5 L81,63.5 " fill="none" style="stroke:#181818;stroke-width:0.5;"/><text fill="#000000" font-family="sans-serif" font-size="14" lengthAdjust="spacing" textLength="90" x="20" y="683.4082">0xf39f..2266</text><ellipse cx="68" cy="694.8613" fill="#E2E2F0" rx="8" ry="8" style="stroke:#181818;stroke-width:0.5;"/><path d="M68,702.8613 L68,729.8613 M55,710.8613 L81,710.8613 M68,729.8613 L55,744.8613 M68,729.8613 L81,744.8613 " fill="none" style="stroke:#181818;stroke-width:0.5;"/><rect fill="#E2E2F0" height="30.4883" rx="2.5" ry="2.5" style="stroke:#181818;stroke-width:0.5;" width="109" x="126" y="50"/><text fill="#000000" font-family="sans-serif" font-size="14" lengthAdjust="spacing" textLength="95" x="133" y="70.5352">0xa513..c853</text><rect fill="#E2E2F0" height="30.4883" rx="2.5" ry="2.5" style="stroke:#181818;stroke-width:0.5;" width="109" x="126" y="669.873"/><text fill="#000000" font-family="sans-serif" font-size="14" lengthAdjust="spacing" textLength="95" x="133" y="690.4082">0xa513..c853</text><rect fill="#E2E2F0" height="46.9766" rx="2.5" ry="2.5" style="stroke:#181818;stroke-width:0.5;" width="120" x="245" y="33.5117"/><text fill="#000000" font-family="sans-serif" font-size="14" font-style="italic" lengthAdjust="spacing" textLength="106" x="252" y="54.0469">&#171;CounterHook&#187;</text><text fill="#000000" font-family="sans-serif" font-size="14" lengthAdjust="spacing" textLength="96" x="257" y="70.5352">0x3c7d..0652</text><rect fill="#E2E2F0" height="46.9766" rx="2.5" ry="2.5" style="stroke:#181818;stroke-width:0.5;" width="120" x="245" y="669.873"/><text fill="#000000" font-family="sans-serif" font-size="14" font-style="italic" lengthAdjust="spacing" textLength="106" x="252" y="690.4082">&#171;CounterHook&#187;</text><text fill="#000000" font-family="sans-serif" font-size="14" lengthAdjust="spacing" textLength="96" x="257" y="706.8965">0x3c7d..0652</text><rect fill="#E2E2F0" height="46.9766" rx="2.5" ry="2.5" style="stroke:#181818;stroke-width:0.5;" width="118" x="404" y="33.5117"/><text fill="#000000" font-family="sans-serif" font-size="14" font-style="italic" lengthAdjust="spacing" textLength="104" x="411" y="54.0469">&#171;PoolManager&#187;</text><text fill="#000000" font-family="sans-serif" font-size="14" lengthAdjust="spacing" textLength="91" x="417.5" y="70.5352">0x9fe4..a6e0</text><rect fill="#E2E2F0" height="46.9766" rx="2.5" ry="2.5" style="stroke:#181818;stroke-width:0.5;" width="118" x="404" y="669.873"/><text fill="#000000" font-family="sans-serif" font-size="14" font-style="italic" lengthAdjust="spacing" textLength="104" x="411" y="690.4082">&#171;PoolManager&#187;</text><text fill="#000000" font-family="sans-serif" font-size="14" lengthAdjust="spacing" textLength="91" x="417.5" y="706.8965">0x9fe4..a6e0</text><rect fill="#FFFFFF" height="57.3105" style="stroke:#181818;stroke-width:1.0;" width="10" x="175.5" y="137.1094"/><rect fill="#FFFFFF" height="14" style="stroke:#181818;stroke-width:1.0;" width="10" x="300" y="166.4199"/><rect fill="#FFFFFF" height="29.3105" style="stroke:#181818;stroke-width:1.0;" width="10" x="458" y="489.3887"/><path d="M10,98.4883 L616,98.4883 L616,105.7988 L606,115.7988 L10,115.7988 L10,98.4883 " fill="#EEEEEE" style="stroke:#000000;stroke-width:1.5;"/><rect fill="none" height="231.1055" style="stroke:#000000;stroke-width:1.5;" width="611" x="10" y="98.4883"/><text fill="#000000" font-family="sans-serif" font-size="13" font-weight="bold" lengthAdjust="spacing" textLength="561" x="25" y="112.0566">0xd9fced18673bcd85b32ea84f899e47a7d4336e6977471fe995c9bbfc9390d0e5</text><polygon fill="#181818" points="163.5,133.1094,173.5,137.1094,163.5,141.1094,167.5,137.1094" style="stroke:#181818;stroke-width:1.0;"/><line style="stroke:#181818;stroke-width:1.0;" x1="68" x2="169.5" y1="137.1094" y2="137.1094"/><text fill="#000000" font-family="sans-serif" font-size="13" lengthAdjust="spacing" textLength="76" x="75" y="132.3672">0x21cde3ec</text><ellipse cx="299.5" cy="165.6699" fill="none" rx="4" ry="4" style="stroke:#181818;stroke-width:1.5;"/><polygon fill="#181818" points="282.5,162.4199,292.5,166.4199,282.5,170.4199,286.5,166.4199" style="stroke:#181818;stroke-width:1.0;"/><line style="stroke:#181818;stroke-width:1.0;" x1="185.5" x2="288.5" y1="166.4199" y2="166.4199"/><text fill="#000000" font-family="sans-serif" font-size="13" lengthAdjust="spacing" textLength="81" x="192.5" y="161.6777">constructor()</text><ellipse cx="185" cy="179.6699" fill="none" rx="4" ry="4" style="stroke:#181818;stroke-width:1.5;"/><polygon fill="#181818" points="202,176.4199,192,180.4199,202,184.4199,198,180.4199" style="stroke:#181818;stroke-width:1.0;"/><line style="stroke:#181818;stroke-width:1.0;stroke-dasharray:2.0,2.0;" x1="200" x2="304" y1="180.4199" y2="180.4199"/><polygon fill="#181818" points="79,190.4199,69,194.4199,79,198.4199,75,194.4199" style="stroke:#181818;stroke-width:1.0;"/><line style="stroke:#181818;stroke-width:1.0;stroke-dasharray:2.0,2.0;" x1="73" x2="179.5" y1="194.4199" y2="194.4199"/><path d="M364,207.4199 L364,324.4199 L562,324.4199 L562,217.4199 L552,207.4199 L364,207.4199 " fill="#00FFFF" style="stroke:#181818;stroke-width:0.5;"/><path d="M552,207.4199 L552,217.4199 L562,217.4199 L552,207.4199 " fill="#00FFFF" style="stroke:#181818;stroke-width:0.5;"/><text fill="#000000" font-family="sans-serif" font-size="13" lengthAdjust="spacing" textLength="58" x="370" y="224.9883">Initialize:</text><text fill="#000000" font-family="sans-serif" font-size="13" lengthAdjust="spacing" textLength="169" x="378" y="240.2988">id: 0xca112b7b..08e26fa1,</text><text fill="#000000" font-family="sans-serif" font-size="13" lengthAdjust="spacing" textLength="161" x="378" y="255.6094">currency0: 0x5FbD..0aa3,</text><text fill="#000000" font-family="sans-serif" font-size="13" lengthAdjust="spacing" textLength="158" x="378" y="270.9199">currency1: 0xe7f1..0512,</text><text fill="#000000" font-family="sans-serif" font-size="13" lengthAdjust="spacing" textLength="67" x="378" y="286.2305">fee: 3,000,</text><text fill="#000000" font-family="sans-serif" font-size="13" lengthAdjust="spacing" textLength="101" x="378" y="301.541">tickSpacing: 60,</text><text fill="#000000" font-family="sans-serif" font-size="13" lengthAdjust="spacing" textLength="134" x="378" y="316.8516">hooks: 0x3c7d..0652</text><path d="M10,343.5938 L606,343.5938 L606,350.9043 L596,360.9043 L10,360.9043 L10,343.5938 " fill="#EEEEEE" style="stroke:#000000;stroke-width:1.5;"/><rect fill="none" height="310.2793" style="stroke:#000000;stroke-width:1.5;" width="601" x="10" y="343.5938"/><text fill="#000000" font-family="sans-serif" font-size="13" font-weight="bold" lengthAdjust="spacing" textLength="551" x="25" y="357.1621">0xafeafe6c046345f34878c8e2652e6c06b875f9ee558a7e6f90d2b0c03c42e40a</text><polygon fill="#181818" points="446,485.3887,456,489.3887,446,493.3887,450,489.3887" style="stroke:#181818;stroke-width:1.0;"/><line style="stroke:#181818;stroke-width:1.0;" x1="68" x2="452" y1="489.3887" y2="489.3887"/><text fill="#000000" font-family="sans-serif" font-size="13" lengthAdjust="spacing" textLength="58" x="75" y="377.4727">initialize(</text><text fill="#000000" font-family="sans-serif" font-size="13" lengthAdjust="spacing" textLength="34" x="83" y="392.7832">key: [</text><text fill="#000000" font-family="sans-serif" font-size="13" lengthAdjust="spacing" textLength="161" x="91" y="408.0938">currency0: 0x5FbD..0aa3,</text><text fill="#000000" font-family="sans-serif" font-size="13" lengthAdjust="spacing" textLength="158" x="91" y="423.4043">currency1: 0xe7f1..0512,</text><text fill="#000000" font-family="sans-serif" font-size="13" lengthAdjust="spacing" textLength="67" x="91" y="438.7148">fee: 3,000,</text><text fill="#000000" font-family="sans-serif" font-size="13" lengthAdjust="spacing" textLength="101" x="91" y="454.0254">tickSpacing: 60,</text><text fill="#000000" font-family="sans-serif" font-size="13" lengthAdjust="spacing" textLength="142" x="91" y="469.3359">hooks: 0x3c7d..0652],</text><text fill="#000000" font-family="sans-serif" font-size="13" lengthAdjust="spacing" textLength="363" x="83" y="484.6465">sqrtPriceX96: 79,228,162,514,,264,337,593,543,950,336)</text><polygon fill="#181818" points="79,514.6992,69,518.6992,79,522.6992,75,518.6992" style="stroke:#181818;stroke-width:1.0;"/><line style="stroke:#181818;stroke-width:1.0;stroke-dasharray:2.0,2.0;" x1="73" x2="462" y1="518.6992" y2="518.6992"/><text fill="#000000" font-family="sans-serif" font-size="13" lengthAdjust="spacing" textLength="28" x="85" y="513.957">tick:</text><path d="M364,531.6992 L364,648.6992 L562,648.6992 L562,541.6992 L552,531.6992 L364,531.6992 " fill="#00FFFF" style="stroke:#181818;stroke-width:0.5;"/><path d="M552,531.6992 L552,541.6992 L562,541.6992 L552,531.6992 " fill="#00FFFF" style="stroke:#181818;stroke-width:0.5;"/><text fill="#000000" font-family="sans-serif" font-size="13" lengthAdjust="spacing" textLength="58" x="370" y="549.2676">Initialize:</text><text fill="#000000" font-family="sans-serif" font-size="13" lengthAdjust="spacing" textLength="169" x="378" y="564.5781">id: 0xca112b7b..08e26fa1,</text><text fill="#000000" font-family="sans-serif" font-size="13" lengthAdjust="spacing" textLength="161" x="378" y="579.8887">currency0: 0x5FbD..0aa3,</text><text fill="#000000" font-family="sans-serif" font-size="13" lengthAdjust="spacing" textLength="158" x="378" y="595.1992">currency1: 0xe7f1..0512,</text><text fill="#000000" font-family="sans-serif" font-size="13" lengthAdjust="spacing" textLength="67" x="378" y="610.5098">fee: 3,000,</text><text fill="#000000" font-family="sans-serif" font-size="13" lengthAdjust="spacing" textLength="101" x="378" y="625.8203">tickSpacing: 60,</text><text fill="#000000" font-family="sans-serif" font-size="13" lengthAdjust="spacing" textLength="134" x="378" y="641.1309">hooks: 0x3c7d..0652</text><text fill="#888888" font-family="sans-serif" font-size="10" lengthAdjust="spacing" textLength="226" x="202" y="757.0293">none, block 3, Tue, 29 Aug 2023 02:47:39 GMT</text><text fill="#888888" font-family="sans-serif" font-size="10" lengthAdjust="spacing" textLength="226" x="202" y="768.8066">none, block 4, Tue, 29 Aug 2023 02:47:40 GMT</text><text fill="#888888" font-family="sans-serif" font-size="10" lengthAdjust="spacing" textLength="3" x="313.5" y="780.584">&#160;</text><!--SRC=[rLBRQjmm57ptLuZq9GN5w2xBX8NIqij38D0y5De-oFBHrkmYRRHsIFhrbRoiDvis7r0ms7DcZezcT7oC8wGgn00OTTleDeXZT3Tbn0nwDwqH8umZmbgXMsxGfvkxCx5uLIp8BAuWzFumnBen9dH17ZqtlguPK-e2sJqgi01KxMmQ1pViR1YBpahAwzerai-w0WluIyUTxkkQACbcNO45eElhzt4AUVJd63UhrSisuq7KjLL0vhO22yXjjp5kRsomQqYvhLgdEEqGUUoDTz3JHcdUkRwH7MTW6-4ROq1egtl1kG9bj1QQUZ16EjDrtXbkI4z0LelJgzNYfiq_PjJrmC6LY8O7EyB2LelfgrLSdBN8nR0VqrGIlNnxQZiAgWJZb09QtldICXqV89rylh7taws-X64Sx7Ru3Ms5qD2NypXBAUjqbqDjW2blASwScrA2u9v8aSYFtOTCMykVKxHGe3tDbAIiK1wWpJj522aevx_vkhDk2EiMgRdqAr_EllIThh4i3IeddjTdoTzwo8zoH2WkfEUYqOqh1vIiL5NNQEaDW9IDrQ1yJfrrn17k10D1x5d-nnXQD2m9NFu826tWgKNVozVhbi_PbwuFx3FZXy9BxuVgF-p_dAdzVHflq-3Wcr4jqWOprc2g69PKOCoKm9nhB0t7Kd1i9CbOFTk5ey7Z3fJnxV-z2Ny0]--></g></svg>