<?xml version="1.0" encoding="us-ascii" standalone="no"?><svg xmlns="http://www.w3.org/2000/svg" xmlns:xlink="http://www.w3.org/1999/xlink" contentStyleType="text/css" height="665px" preserveAspectRatio="none" style="width:936px;height:665px;background:#FFFFFF;" version="1.1" viewBox="0 0 936 665" width="936px" zoomAndPan="magnify"><defs/><g><text fill="#000000" font-family="sans-serif" font-size="14" font-weight="bold" lengthAdjust="spacing" textLength="275" x="329.5" y="28.5352">Uniswap v4 - Swap token0 for token1</text><rect fill="#FFFFFF" height="490.416" style="stroke:#181818;stroke-width:1.0;" width="10" x="178" y="150.2871"/><rect fill="#FFFFFF" height="447.1055" style="stroke:#181818;stroke-width:1.0;" width="10" x="335" y="179.5977"/><rect fill="#FFFFFF" height="360.4844" style="stroke:#181818;stroke-width:1.0;" width="10" x="340" y="238.2188"/><rect fill="#FFFFFF" height="403.7949" style="stroke:#181818;stroke-width:1.0;" width="10" x="491.5" y="208.9082"/><rect fill="#FFFFFF" height="100.6211" style="stroke:#181818;stroke-width:1.0;" width="10" x="496.5" y="267.5293"/><rect fill="#FFFFFF" height="57.3105" style="stroke:#181818;stroke-width:1.0;" width="10" x="496.5" y="440.7715"/><rect fill="#FFFFFF" height="57.3105" style="stroke:#181818;stroke-width:1.0;" width="10" x="496.5" y="527.3926"/><rect fill="#FFFFFF" height="14" style="stroke:#181818;stroke-width:1.0;" width="10" x="633" y="296.8398"/><rect fill="#FFFFFF" height="14" style="stroke:#181818;stroke-width:1.0;" width="10" x="633" y="340.1504"/><rect fill="#FFFFFF" height="14" style="stroke:#181818;stroke-width:1.0;" width="10" x="755.5" y="397.4609"/><rect fill="#FFFFFF" height="14" style="stroke:#181818;stroke-width:1.0;" width="10" x="755.5" y="470.082"/><rect fill="#FFFFFF" height="14" style="stroke:#181818;stroke-width:1.0;" width="10" x="871.5" y="556.7031"/><line style="stroke:#181818;stroke-width:0.5;stroke-dasharray:5.0,5.0;" x1="53" x2="53" y1="118.9766" y2="658.7031"/><line style="stroke:#181818;stroke-width:0.5;stroke-dasharray:5.0,5.0;" x1="183" x2="183" y1="118.9766" y2="658.7031"/><line style="stroke:#181818;stroke-width:0.5;stroke-dasharray:5.0,5.0;" x1="340" x2="340" y1="118.9766" y2="658.7031"/><line style="stroke:#181818;stroke-width:0.5;stroke-dasharray:5.0,5.0;" x1="496" x2="496" y1="118.9766" y2="658.7031"/><line style="stroke:#181818;stroke-width:0.5;stroke-dasharray:5.0,5.0;" x1="638" x2="638" y1="118.9766" y2="658.7031"/><line style="stroke:#181818;stroke-width:0.5;stroke-dasharray:5.0,5.0;" x1="760" x2="760" y1="118.9766" y2="658.7031"/><line style="stroke:#181818;stroke-width:0.5;stroke-dasharray:5.0,5.0;" x1="876" x2="876" y1="118.9766" y2="658.7031"/><text fill="#000000" font-family="sans-serif" font-size="14" lengthAdjust="spacing" textLength="90" x="5" y="116.0234">0xf39f..2266</text><ellipse cx="53" cy="50.9883" fill="#E2E2F0" rx="8" ry="8" style="stroke:#181818;stroke-width:0.5;"/><path d="M53,58.9883 L53,85.9883 M40,66.9883 L66,66.9883 M53,85.9883 L40,100.9883 M53,85.9883 L66,100.9883 " fill="none" style="stroke:#181818;stroke-width:0.5;"/><rect fill="#E2E2F0" height="46.9766" rx="2.5" ry="2.5" style="stroke:#181818;stroke-width:0.5;" width="144" x="111" y="71"/><text fill="#000000" font-family="sans-serif" font-size="14" font-style="italic" lengthAdjust="spacing" textLength="130" x="118" y="91.5352">&#171;UniswapV4Caller&#187;</text><text fill="#000000" font-family="sans-serif" font-size="14" lengthAdjust="spacing" textLength="92" x="137" y="108.0234">0x5fc8..5707</text><rect fill="#E2E2F0" height="46.9766" rx="2.5" ry="2.5" style="stroke:#181818;stroke-width:0.5;" width="150" x="265" y="71"/><text fill="#000000" font-family="sans-serif" font-size="14" font-style="italic" lengthAdjust="spacing" textLength="136" x="272" y="91.5352">&#171;UniswapV4Router&#187;</text><text fill="#000000" font-family="sans-serif" font-size="14" lengthAdjust="spacing" textLength="90" x="295" y="108.0234">0xdc64..f6c9</text><rect fill="#E2E2F0" height="63.4648" rx="2.5" ry="2.5" style="stroke:#181818;stroke-width:0.5;" width="143" x="425" y="54.5117"/><text fill="#000000" font-family="sans-serif" font-size="14" font-style="italic" lengthAdjust="spacing" textLength="129" x="432" y="75.0469">&#171;Uniswap v4 Core&#187;</text><text fill="#000000" font-family="sans-serif" font-size="14" font-style="italic" lengthAdjust="spacing" textLength="104" x="444.5" y="91.5352">&#171;PoolManager&#187;</text><text fill="#000000" font-family="sans-serif" font-size="14" lengthAdjust="spacing" textLength="85" x="454" y="108.0234">0xcf7e..0fc9</text><rect fill="#E2E2F0" height="46.9766" rx="2.5" ry="2.5" style="stroke:#181818;stroke-width:0.5;" width="120" x="578" y="71"/><text fill="#000000" font-family="sans-serif" font-size="14" font-style="italic" lengthAdjust="spacing" textLength="106" x="585" y="91.5352">&#171;CounterHook&#187;</text><text fill="#000000" font-family="sans-serif" font-size="14" lengthAdjust="spacing" textLength="93" x="591.5" y="108.0234">0x3c11..a8c1</text><rect fill="#E2E2F0" height="63.4648" rx="2.5" ry="2.5" style="stroke:#181818;stroke-width:0.5;" width="105" x="708" y="54.5117"/><text fill="#000000" font-family="sans-serif" font-size="14" font-style="italic" lengthAdjust="spacing" textLength="62" x="729.5" y="75.0469">&#171;token0&#187;</text><text fill="#000000" font-family="sans-serif" font-size="14" font-style="italic" lengthAdjust="spacing" textLength="88" x="716.5" y="91.5352">&#171;TestERC20&#187;</text><text fill="#000000" font-family="sans-serif" font-size="14" lengthAdjust="spacing" textLength="91" x="715" y="108.0234">0x9fe4..a6e0</text><rect fill="#E2E2F0" height="63.4648" rx="2.5" ry="2.5" style="stroke:#181818;stroke-width:0.5;" width="107" x="823" y="54.5117"/><text fill="#000000" font-family="sans-serif" font-size="14" font-style="italic" lengthAdjust="spacing" textLength="62" x="845.5" y="75.0469">&#171;token1&#187;</text><text fill="#000000" font-family="sans-serif" font-size="14" font-style="italic" lengthAdjust="spacing" textLength="88" x="832.5" y="91.5352">&#171;TestERC20&#187;</text><text fill="#000000" font-family="sans-serif" font-size="14" lengthAdjust="spacing" textLength="93" x="830" y="108.0234">0xe7f1..0512</text><rect fill="#FFFFFF" height="490.416" style="stroke:#181818;stroke-width:1.0;" width="10" x="178" y="150.2871"/><rect fill="#FFFFFF" height="447.1055" style="stroke:#181818;stroke-width:1.0;" width="10" x="335" y="179.5977"/><rect fill="#FFFFFF" height="360.4844" style="stroke:#181818;stroke-width:1.0;" width="10" x="340" y="238.2188"/><rect fill="#FFFFFF" height="403.7949" style="stroke:#181818;stroke-width:1.0;" width="10" x="491.5" y="208.9082"/><rect fill="#FFFFFF" height="100.6211" style="stroke:#181818;stroke-width:1.0;" width="10" x="496.5" y="267.5293"/><rect fill="#FFFFFF" height="57.3105" style="stroke:#181818;stroke-width:1.0;" width="10" x="496.5" y="440.7715"/><rect fill="#FFFFFF" height="57.3105" style="stroke:#181818;stroke-width:1.0;" width="10" x="496.5" y="527.3926"/><rect fill="#FFFFFF" height="14" style="stroke:#181818;stroke-width:1.0;" width="10" x="633" y="296.8398"/><rect fill="#FFFFFF" height="14" style="stroke:#181818;stroke-width:1.0;" width="10" x="633" y="340.1504"/><rect fill="#FFFFFF" height="14" style="stroke:#181818;stroke-width:1.0;" width="10" x="755.5" y="397.4609"/><rect fill="#FFFFFF" height="14" style="stroke:#181818;stroke-width:1.0;" width="10" x="755.5" y="470.082"/><rect fill="#FFFFFF" height="14" style="stroke:#181818;stroke-width:1.0;" width="10" x="871.5" y="556.7031"/><polygon fill="#181818" points="166,146.2871,176,150.2871,166,154.2871,170,150.2871" style="stroke:#181818;stroke-width:1.0;"/><line style="stroke:#181818;stroke-width:1.0;" x1="53" x2="172" y1="150.2871" y2="150.2871"/><text fill="#000000" font-family="sans-serif" font-size="13" lengthAdjust="spacing" textLength="32" x="60" y="145.5449">swap</text><polygon fill="#181818" points="323,175.5977,333,179.5977,323,183.5977,327,179.5977" style="stroke:#181818;stroke-width:1.0;"/><line style="stroke:#181818;stroke-width:1.0;" x1="188" x2="329" y1="179.5977" y2="179.5977"/><text fill="#000000" font-family="sans-serif" font-size="13" lengthAdjust="spacing" textLength="49" x="195" y="174.8555">process</text><polygon fill="#181818" points="479.5,204.9082,489.5,208.9082,479.5,212.9082,483.5,208.9082" style="stroke:#181818;stroke-width:1.0;"/><line style="stroke:#181818;stroke-width:1.0;" x1="345" x2="485.5" y1="208.9082" y2="208.9082"/><text fill="#000000" font-family="sans-serif" font-size="13" lengthAdjust="spacing" textLength="27" x="352" y="204.166">lock</text><polygon fill="#181818" points="361,234.2188,351,238.2188,361,242.2188,357,238.2188" style="stroke:#181818;stroke-width:1.0;"/><line style="stroke:#181818;stroke-width:1.0;" x1="355" x2="490.5" y1="238.2188" y2="238.2188"/><text fill="#000000" font-family="sans-serif" font-size="13" lengthAdjust="spacing" textLength="83" x="367" y="233.4766">lockAcquired</text><polygon fill="#181818" points="484.5,263.5293,494.5,267.5293,484.5,271.5293,488.5,267.5293" style="stroke:#181818;stroke-width:1.0;"/><line style="stroke:#181818;stroke-width:1.0;" x1="350" x2="490.5" y1="267.5293" y2="267.5293"/><text fill="#000000" font-family="sans-serif" font-size="13" lengthAdjust="spacing" textLength="32" x="357" y="262.7871">swap</text><polygon fill="#181818" points="621,292.8398,631,296.8398,621,300.8398,625,296.8398" style="stroke:#181818;stroke-width:1.0;"/><line style="stroke:#181818;stroke-width:1.0;" x1="506.5" x2="627" y1="296.8398" y2="296.8398"/><text fill="#000000" font-family="sans-serif" font-size="13" lengthAdjust="spacing" textLength="72" x="513.5" y="292.0977">beforeSwap</text><polygon fill="#181818" points="517.5,306.8398,507.5,310.8398,517.5,314.8398,513.5,310.8398" style="stroke:#181818;stroke-width:1.0;"/><line style="stroke:#181818;stroke-width:1.0;stroke-dasharray:2.0,2.0;" x1="511.5" x2="637" y1="310.8398" y2="310.8398"/><polygon fill="#181818" points="621,336.1504,631,340.1504,621,344.1504,625,340.1504" style="stroke:#181818;stroke-width:1.0;"/><line style="stroke:#181818;stroke-width:1.0;" x1="506.5" x2="627" y1="340.1504" y2="340.1504"/><text fill="#000000" font-family="sans-serif" font-size="13" lengthAdjust="spacing" textLength="61" x="513.5" y="335.4082">afterSwap</text><polygon fill="#181818" points="517.5,350.1504,507.5,354.1504,517.5,358.1504,513.5,354.1504" style="stroke:#181818;stroke-width:1.0;"/><line style="stroke:#181818;stroke-width:1.0;stroke-dasharray:2.0,2.0;" x1="511.5" x2="637" y1="354.1504" y2="354.1504"/><polygon fill="#181818" points="361,364.1504,351,368.1504,361,372.1504,357,368.1504" style="stroke:#181818;stroke-width:1.0;"/><line style="stroke:#181818;stroke-width:1.0;stroke-dasharray:2.0,2.0;" x1="355" x2="490.5" y1="368.1504" y2="368.1504"/><polygon fill="#181818" points="743.5,393.4609,753.5,397.4609,743.5,401.4609,747.5,397.4609" style="stroke:#181818;stroke-width:1.0;"/><line style="stroke:#181818;stroke-width:1.0;" x1="350" x2="749.5" y1="397.4609" y2="397.4609"/><text fill="#000000" font-family="sans-serif" font-size="13" lengthAdjust="spacing" textLength="81" x="357" y="392.7188">transferFrom</text><polygon fill="#181818" points="361,407.4609,351,411.4609,361,415.4609,357,411.4609" style="stroke:#181818;stroke-width:1.0;"/><line style="stroke:#181818;stroke-width:1.0;stroke-dasharray:2.0,2.0;" x1="355" x2="759.5" y1="411.4609" y2="411.4609"/><polygon fill="#181818" points="484.5,436.7715,494.5,440.7715,484.5,444.7715,488.5,440.7715" style="stroke:#181818;stroke-width:1.0;"/><line style="stroke:#181818;stroke-width:1.0;" x1="350" x2="490.5" y1="440.7715" y2="440.7715"/><text fill="#000000" font-family="sans-serif" font-size="13" lengthAdjust="spacing" textLength="35" x="357" y="436.0293">settle</text><polygon fill="#181818" points="743.5,466.082,753.5,470.082,743.5,474.082,747.5,470.082" style="stroke:#181818;stroke-width:1.0;"/><line style="stroke:#181818;stroke-width:1.0;" x1="506.5" x2="749.5" y1="470.082" y2="470.082"/><text fill="#000000" font-family="sans-serif" font-size="13" lengthAdjust="spacing" textLength="63" x="513.5" y="465.3398">balanceOf</text><polygon fill="#181818" points="517.5,480.082,507.5,484.082,517.5,488.082,513.5,484.082" style="stroke:#181818;stroke-width:1.0;"/><line style="stroke:#181818;stroke-width:1.0;stroke-dasharray:2.0,2.0;" x1="511.5" x2="759.5" y1="484.082" y2="484.082"/><polygon fill="#181818" points="361,494.082,351,498.082,361,502.082,357,498.082" style="stroke:#181818;stroke-width:1.0;"/><line style="stroke:#181818;stroke-width:1.0;stroke-dasharray:2.0,2.0;" x1="355" x2="490.5" y1="498.082" y2="498.082"/><polygon fill="#181818" points="484.5,523.3926,494.5,527.3926,484.5,531.3926,488.5,527.3926" style="stroke:#181818;stroke-width:1.0;"/><line style="stroke:#181818;stroke-width:1.0;" x1="350" x2="490.5" y1="527.3926" y2="527.3926"/><text fill="#000000" font-family="sans-serif" font-size="13" lengthAdjust="spacing" textLength="27" x="357" y="522.6504">take</text><polygon fill="#181818" points="859.5,552.7031,869.5,556.7031,859.5,560.7031,863.5,556.7031" style="stroke:#181818;stroke-width:1.0;"/><line style="stroke:#181818;stroke-width:1.0;" x1="506.5" x2="865.5" y1="556.7031" y2="556.7031"/><text fill="#000000" font-family="sans-serif" font-size="13" lengthAdjust="spacing" textLength="49" x="513.5" y="551.9609">transfer</text><polygon fill="#181818" points="517.5,566.7031,507.5,570.7031,517.5,574.7031,513.5,570.7031" style="stroke:#181818;stroke-width:1.0;"/><line style="stroke:#181818;stroke-width:1.0;stroke-dasharray:2.0,2.0;" x1="511.5" x2="875.5" y1="570.7031" y2="570.7031"/><polygon fill="#181818" points="361,580.7031,351,584.7031,361,588.7031,357,584.7031" style="stroke:#181818;stroke-width:1.0;"/><line style="stroke:#181818;stroke-width:1.0;stroke-dasharray:2.0,2.0;" x1="355" x2="490.5" y1="584.7031" y2="584.7031"/><polygon fill="#181818" points="479.5,594.7031,489.5,598.7031,479.5,602.7031,483.5,598.7031" style="stroke:#181818;stroke-width:1.0;"/><line style="stroke:#181818;stroke-width:1.0;stroke-dasharray:2.0,2.0;" x1="345" x2="485.5" y1="598.7031" y2="598.7031"/><polygon fill="#181818" points="356,608.7031,346,612.7031,356,616.7031,352,612.7031" style="stroke:#181818;stroke-width:1.0;"/><line style="stroke:#181818;stroke-width:1.0;stroke-dasharray:2.0,2.0;" x1="350" x2="495.5" y1="612.7031" y2="612.7031"/><polygon fill="#181818" points="199,622.7031,189,626.7031,199,630.7031,195,626.7031" style="stroke:#181818;stroke-width:1.0;"/><line style="stroke:#181818;stroke-width:1.0;stroke-dasharray:2.0,2.0;" x1="193" x2="339" y1="626.7031" y2="626.7031"/><polygon fill="#181818" points="64,636.7031,54,640.7031,64,644.7031,60,640.7031" style="stroke:#181818;stroke-width:1.0;"/><line style="stroke:#181818;stroke-width:1.0;stroke-dasharray:2.0,2.0;" x1="58" x2="182" y1="640.7031" y2="640.7031"/><!--SRC=[ZPDDRuCm38Rl-HNHxesW7z0YX3IXJRjCczfjzpHrDbH6M0XTV_vYsa0_QBiJlB4Vlx4D9ZCvqFSYgtvvIJTZEg0BV3Dg3OL7fTAxLvzyPIkmMfcbsXB2XR6XEsyhHpF9s70O17UKLnGb2afAhaqcif8N1lCcKamPcuHUsEIXH47ZU6_-CKvvdeDEabDq9O8nOp8GimP5YU8GdQlQzA52Xi2O9_SeIXGTYYsdIaEInF6hKlapB_XdNwMHy7t6-5JuJIMKA6obLDM5DNzIQdsEpIJOk_C0l0P3YS9YkmcZxnjKvc6U3hrp749fNRs9Fsnmb2WSxf_Yf9t_86bd757i55UMRRY1zfoqIx39RgeHBRKIK5LTlWkHTl8stuqoehaIwoxPdPDsraV5CVbU_DIPXjM_7Owlt-lWzX7H9TYF5XP7Y8iI3QRMnGMIIxl6w-3-SNXDjzA86isBIe9-rEgxA-7YVUn1Ys3iZtYZoSvgoNDU27YHbtsksXc-lcNclhMkhmvmiHElQuy_]--></g></svg>