<?xml version="1.0" encoding="us-ascii" standalone="no"?><svg xmlns="http://www.w3.org/2000/svg" xmlns:xlink="http://www.w3.org/1999/xlink" contentStyleType="text/css" height="612px" preserveAspectRatio="none" style="width:617px;height:612px;background:#FFFFFF;" version="1.1" viewBox="0 0 617 612" width="617px" zoomAndPan="magnify"><defs/><g><rect fill="#FFFFFF" height="87.9316" style="stroke:#181818;stroke-width:1.0;" width="10" x="262" y="167.7305"/><rect fill="#FFFFFF" height="14" style="stroke:#181818;stroke-width:1.0;" width="10" x="399" y="197.041"/><rect fill="#FFFFFF" height="44.6211" style="stroke:#181818;stroke-width:1.0;" width="10" x="528" y="423.457"/><rect fill="none" height="165.1738" style="stroke:#000000;stroke-width:1.5;" width="601" x="10" y="98.4883"/><rect fill="none" height="198.416" style="stroke:#000000;stroke-width:1.5;" width="596" x="10" y="277.6621"/><line style="stroke:#181818;stroke-width:0.5;stroke-dasharray:5.0,5.0;" x1="68" x2="68" y1="81.4883" y2="493.0781"/><line style="stroke:#181818;stroke-width:0.5;stroke-dasharray:5.0,5.0;" x1="267" x2="267" y1="81.4883" y2="493.0781"/><line style="stroke:#181818;stroke-width:0.5;stroke-dasharray:5.0,5.0;" x1="404" x2="404" y1="81.4883" y2="493.0781"/><line style="stroke:#181818;stroke-width:0.5;stroke-dasharray:5.0,5.0;" x1="533" x2="533" y1="81.4883" y2="493.0781"/><text fill="#000000" font-family="sans-serif" font-size="14" lengthAdjust="spacing" textLength="90" x="20" y="78.5352">0xf39f..2266</text><ellipse cx="68" cy="13.5" fill="#E2E2F0" rx="8" ry="8" style="stroke:#181818;stroke-width:0.5;"/><path d="M68,21.5 L68,48.5 M55,29.5 L81,29.5 M68,48.5 L55,63.5 M68,48.5 L81,63.5 " fill="none" style="stroke:#181818;stroke-width:0.5;"/><text fill="#000000" font-family="sans-serif" font-size="14" lengthAdjust="spacing" textLength="90" x="20" y="505.6133">0xf39f..2266</text><ellipse cx="68" cy="517.0664" fill="#E2E2F0" rx="8" ry="8" style="stroke:#181818;stroke-width:0.5;"/><path d="M68,525.0664 L68,552.0664 M55,533.0664 L81,533.0664 M68,552.0664 L55,567.0664 M68,552.0664 L81,567.0664 " fill="none" style="stroke:#181818;stroke-width:0.5;"/><rect fill="#E2E2F0" height="46.9766" rx="2.5" ry="2.5" style="stroke:#181818;stroke-width:0.5;" width="134" x="200" y="33.5117"/><text fill="#000000" font-family="sans-serif" font-size="14" font-style="italic" lengthAdjust="spacing" textLength="120" x="207" y="54.0469">&#171;CounterFactory&#187;</text><text fill="#000000" font-family="sans-serif" font-size="14" lengthAdjust="spacing" textLength="98" x="218" y="70.5352">0x6101..d788</text><rect fill="#E2E2F0" height="46.9766" rx="2.5" ry="2.5" style="stroke:#181818;stroke-width:0.5;" width="134" x="200" y="492.0781"/><text fill="#000000" font-family="sans-serif" font-size="14" font-style="italic" lengthAdjust="spacing" textLength="120" x="207" y="512.6133">&#171;CounterFactory&#187;</text><text fill="#000000" font-family="sans-serif" font-size="14" lengthAdjust="spacing" textLength="98" x="218" y="529.1016">0x6101..d788</text><rect fill="#E2E2F0" height="46.9766" rx="2.5" ry="2.5" style="stroke:#181818;stroke-width:0.5;" width="120" x="344" y="33.5117"/><text fill="#000000" font-family="sans-serif" font-size="14" font-style="italic" lengthAdjust="spacing" textLength="106" x="351" y="54.0469">&#171;CounterHook&#187;</text><text fill="#000000" font-family="sans-serif" font-size="14" lengthAdjust="spacing" textLength="94" x="357" y="70.5352">0x3cb6..eab3</text><rect fill="#E2E2F0" height="46.9766" rx="2.5" ry="2.5" style="stroke:#181818;stroke-width:0.5;" width="120" x="344" y="492.0781"/><text fill="#000000" font-family="sans-serif" font-size="14" font-style="italic" lengthAdjust="spacing" textLength="106" x="351" y="512.6133">&#171;CounterHook&#187;</text><text fill="#000000" font-family="sans-serif" font-size="14" lengthAdjust="spacing" textLength="94" x="357" y="529.1016">0x3cb6..eab3</text><rect fill="#E2E2F0" height="46.9766" rx="2.5" ry="2.5" style="stroke:#181818;stroke-width:0.5;" width="118" x="474" y="33.5117"/><text fill="#000000" font-family="sans-serif" font-size="14" font-style="italic" lengthAdjust="spacing" textLength="104" x="481" y="54.0469">&#171;PoolManager&#187;</text><text fill="#000000" font-family="sans-serif" font-size="14" lengthAdjust="spacing" textLength="91" x="487.5" y="70.5352">0x9fe4..a6e0</text><rect fill="#E2E2F0" height="46.9766" rx="2.5" ry="2.5" style="stroke:#181818;stroke-width:0.5;" width="118" x="474" y="492.0781"/><text fill="#000000" font-family="sans-serif" font-size="14" font-style="italic" lengthAdjust="spacing" textLength="104" x="481" y="512.6133">&#171;PoolManager&#187;</text><text fill="#000000" font-family="sans-serif" font-size="14" lengthAdjust="spacing" textLength="91" x="487.5" y="529.1016">0x9fe4..a6e0</text><rect fill="#FFFFFF" height="87.9316" style="stroke:#181818;stroke-width:1.0;" width="10" x="262" y="167.7305"/><rect fill="#FFFFFF" height="14" style="stroke:#181818;stroke-width:1.0;" width="10" x="399" y="197.041"/><rect fill="#FFFFFF" height="44.6211" style="stroke:#181818;stroke-width:1.0;" width="10" x="528" y="423.457"/><path d="M10,98.4883 L606,98.4883 L606,105.7988 L596,115.7988 L10,115.7988 L10,98.4883 " fill="#EEEEEE" style="stroke:#000000;stroke-width:1.5;"/><rect fill="none" height="165.1738" style="stroke:#000000;stroke-width:1.5;" width="601" x="10" y="98.4883"/><text fill="#000000" font-family="sans-serif" font-size="13" font-weight="bold" lengthAdjust="spacing" textLength="551" x="25" y="112.0566">0xaf292eedd8b6188bd7fa91efccfe337b820d2526f34966853baf03dc58e97fbd</text><polygon fill="#181818" points="250,163.7305,260,167.7305,250,171.7305,254,167.7305" style="stroke:#181818;stroke-width:1.0;"/><line style="stroke:#181818;stroke-width:1.0;" x1="68" x2="256" y1="167.7305" y2="167.7305"/><text fill="#000000" font-family="sans-serif" font-size="13" lengthAdjust="spacing" textLength="79" x="75" y="132.3672">mineDeploy(</text><text fill="#000000" font-family="sans-serif" font-size="13" lengthAdjust="spacing" textLength="175" x="75" y="147.6777">poolManager: 0x9fE4..a6e0,</text><text fill="#000000" font-family="sans-serif" font-size="13" lengthAdjust="spacing" textLength="88" x="75" y="162.9883">startSalt: 385)</text><ellipse cx="398.5" cy="196.291" fill="none" rx="4" ry="4" style="stroke:#181818;stroke-width:1.5;"/><polygon fill="#181818" points="381.5,193.041,391.5,197.041,381.5,201.041,385.5,197.041" style="stroke:#181818;stroke-width:1.0;"/><line style="stroke:#181818;stroke-width:1.0;" x1="272" x2="387.5" y1="197.041" y2="197.041"/><text fill="#000000" font-family="sans-serif" font-size="13" lengthAdjust="spacing" textLength="81" x="279" y="192.2988">constructor()</text><ellipse cx="271.5" cy="210.291" fill="none" rx="4" ry="4" style="stroke:#181818;stroke-width:1.5;"/><polygon fill="#181818" points="288.5,207.041,278.5,211.041,288.5,215.041,284.5,211.041" style="stroke:#181818;stroke-width:1.0;"/><line style="stroke:#181818;stroke-width:1.0;stroke-dasharray:2.0,2.0;" x1="286.5" x2="403" y1="211.041" y2="211.041"/><polygon fill="#181818" points="79,251.6621,69,255.6621,79,259.6621,75,255.6621" style="stroke:#181818;stroke-width:1.0;"/><line style="stroke:#181818;stroke-width:1.0;stroke-dasharray:2.0,2.0;" x1="73" x2="266" y1="255.6621" y2="255.6621"/><text fill="#000000" font-family="sans-serif" font-size="13" lengthAdjust="spacing" textLength="4" x="85" y="235.6094">&#160;</text><text fill="#000000" font-family="sans-serif" font-size="13" lengthAdjust="spacing" textLength="87" x="85" y="250.9199">0x3Cb6..eab3</text><path d="M10,277.6621 L601,277.6621 L601,284.9727 L591,294.9727 L10,294.9727 L10,277.6621 " fill="#EEEEEE" style="stroke:#000000;stroke-width:1.5;"/><rect fill="none" height="198.416" style="stroke:#000000;stroke-width:1.5;" width="596" x="10" y="277.6621"/><text fill="#000000" font-family="sans-serif" font-size="13" font-weight="bold" lengthAdjust="spacing" textLength="546" x="25" y="291.2305">0x48c4082ffe451e41c9cbaeb0ff77867e498af1a94175e1fcf5115538783535ca</text><polygon fill="#181818" points="516,419.457,526,423.457,516,427.457,520,423.457" style="stroke:#181818;stroke-width:1.0;"/><line style="stroke:#181818;stroke-width:1.0;" x1="68" x2="522" y1="423.457" y2="423.457"/><text fill="#000000" font-family="sans-serif" font-size="13" lengthAdjust="spacing" textLength="58" x="75" y="311.541">initialize(</text><text fill="#000000" font-family="sans-serif" font-size="13" lengthAdjust="spacing" textLength="34" x="75" y="326.8516">key: [</text><text fill="#000000" font-family="sans-serif" font-size="13" lengthAdjust="spacing" textLength="161" x="83" y="342.1621">currency0: 0x5FbD..0aa3,</text><text fill="#000000" font-family="sans-serif" font-size="13" lengthAdjust="spacing" textLength="158" x="83" y="357.4727">currency1: 0xe7f1..0512,</text><text fill="#000000" font-family="sans-serif" font-size="13" lengthAdjust="spacing" textLength="67" x="83" y="372.7832">fee: 3,000,</text><text fill="#000000" font-family="sans-serif" font-size="13" lengthAdjust="spacing" textLength="101" x="83" y="388.0938">tickSpacing: 60,</text><text fill="#000000" font-family="sans-serif" font-size="13" lengthAdjust="spacing" textLength="142" x="83" y="403.4043">hooks: 0x3Cb6..eab3],</text><text fill="#000000" font-family="sans-serif" font-size="13" lengthAdjust="spacing" textLength="363" x="75" y="418.7148">sqrtPriceX96: 79,228,162,514,,264,337,593,543,950,336)</text><polygon fill="#181818" points="79,464.0781,69,468.0781,79,472.0781,75,468.0781" style="stroke:#181818;stroke-width:1.0;"/><line style="stroke:#181818;stroke-width:1.0;stroke-dasharray:2.0,2.0;" x1="73" x2="532" y1="468.0781" y2="468.0781"/><text fill="#000000" font-family="sans-serif" font-size="13" lengthAdjust="spacing" textLength="4" x="85" y="448.0254">&#160;</text><text fill="#000000" font-family="sans-serif" font-size="13" lengthAdjust="spacing" textLength="28" x="85" y="463.3359">tick:</text><text fill="#888888" font-family="sans-serif" font-size="10" lengthAdjust="spacing" textLength="245" x="187.5" y="579.2344">mainnet, block 4, Mon, 21 Aug 2023 05:51:29 GMT</text><text fill="#888888" font-family="sans-serif" font-size="10" lengthAdjust="spacing" textLength="245" x="187.5" y="591.0117">mainnet, block 4, Mon, 21 Aug 2023 05:51:29 GMT</text><text fill="#888888" font-family="sans-serif" font-size="10" lengthAdjust="spacing" textLength="3" x="308.5" y="602.7891">&#160;</text><!--SRC=[bP9DRzim38Rl_XL4JnsW6lgmPCae0Wpjkbq25EWE0vOTP9dAZAHIvZX3iry_oMsSR3lj9BmYNr9yA1_ZY4FnRFiGS2JGRgFRG4LW6GC1pk3zOGsSSW5KDf8rtC37vUV_pYymTFwrbNLZ7E2AldXXV5bohjGLs3racGKKEpkClUjtDemvJp7AohAhjPxoiim2Rc_luY6aaWzJoUDYyRTJk5QL9TfMJCuiipWxFyMu-TTcF5PbQHNIoPPb5ids6EDsQODTuv1inNg8XntG5-kvuOXTfrl5j6wxsbl3q3ldKOYwrPnsN7BbHMMKqbAqrbFHEQdHrBxjYddscyKyNmFFVS1xt6tZyNeLTkVM3UGtVdXx8rc5_PW6UBBRiG6XvRkCkFzfHvnh5JEqcqMSEJJWOl8EXupl-i9sIYW670z3U3jM8H6zEn6TLZeJgBIhgEO-eP8CA-QCQossrFkwrgh6ocZhcJKLgoKoxxnaJ4gXQosaaCx-GU04l84-z6Dlj_qlJ0GsU6pWwoe0kCCmO717cad8X_Q-BAcrWbp6M8vXxTFNePBnAUOH4o52APrasldcQMTT7zODgDUxx-b7xBFrFEctJFZ7C3uElSClHZLG6yAv9ann8bb525SLINicqWWYAq6Cf4ch2wAdaMQKkNS34yJV]--></g></svg>