<?xml version="1.0" encoding="us-ascii" standalone="no"?><svg xmlns="http://www.w3.org/2000/svg" xmlns:xlink="http://www.w3.org/1999/xlink" contentStyleType="text/css" height="2083px" preserveAspectRatio="none" style="width:2381px;height:2083px;background:#FFFFFF;" version="1.1" viewBox="0 0 2381 2083" width="2381px" zoomAndPan="magnify"><defs/><g><text fill="#000000" font-family="sans-serif" font-size="14" font-weight="bold" lengthAdjust="spacing" textLength="564" x="907.25" y="28.5352">0xedad69b97461dc5bb65e6ec01cc35b47cc5e1c410d87a1c96c648fad8b81b1e8</text><text fill="#000000" font-family="sans-serif" font-size="14" lengthAdjust="spacing" textLength="351" x="1013.75" y="2071.123">mainnet, block 6, Mon, 21 Aug 2023 04:50:21 GMT</text><rect fill="#FFFFFF" height="1546.8438" style="stroke:#181818;stroke-width:1.0;" width="10" x="640" y="303.3926"/><rect fill="#FFFFFF" height="1368.3594" style="stroke:#181818;stroke-width:1.0;" width="10" x="645" y="392.6348"/><rect fill="#FFFFFF" height="1457.6016" style="stroke:#181818;stroke-width:1.0;" width="10" x="1242" y="348.0137"/><rect fill="#FFFFFF" height="544.627" style="stroke:#181818;stroke-width:1.0;" width="10" x="1247" y="575.0508"/><rect fill="#FFFFFF" height="133.8633" style="stroke:#181818;stroke-width:1.0;" width="10" x="1247" y="1284.1621"/><rect fill="#FFFFFF" height="133.8633" style="stroke:#181818;stroke-width:1.0;" width="10" x="1247" y="1582.5098"/><rect fill="#FFFFFF" height="44.6211" style="stroke:#181818;stroke-width:1.0;" width="10" x="1843" y="772.7773"/><rect fill="#FFFFFF" height="44.6211" style="stroke:#181818;stroke-width:1.0;" width="10" x="1843" y="1030.4355"/><rect fill="#FFFFFF" height="44.6211" style="stroke:#181818;stroke-width:1.0;" width="10" x="2020.5" y="1194.9199"/><rect fill="#FFFFFF" height="44.6211" style="stroke:#181818;stroke-width:1.0;" width="10" x="2020.5" y="1328.7832"/><rect fill="#FFFFFF" height="44.6211" style="stroke:#181818;stroke-width:1.0;" width="10" x="2256.5" y="1493.2676"/><rect fill="#FFFFFF" height="44.6211" style="stroke:#181818;stroke-width:1.0;" width="10" x="2256.5" y="1627.1309"/><line style="stroke:#181818;stroke-width:0.5;stroke-dasharray:5.0,5.0;" x1="53" x2="53" y1="118.9766" y2="1980.0996"/><line style="stroke:#181818;stroke-width:0.5;stroke-dasharray:5.0,5.0;" x1="645" x2="645" y1="118.9766" y2="1980.0996"/><line style="stroke:#181818;stroke-width:0.5;stroke-dasharray:5.0,5.0;" x1="1247" x2="1247" y1="118.9766" y2="1980.0996"/><line style="stroke:#181818;stroke-width:0.5;stroke-dasharray:5.0,5.0;" x1="1848" x2="1848" y1="118.9766" y2="1980.0996"/><line style="stroke:#181818;stroke-width:0.5;stroke-dasharray:5.0,5.0;" x1="2025.5" x2="2025.5" y1="118.9766" y2="1980.0996"/><line style="stroke:#181818;stroke-width:0.5;stroke-dasharray:5.0,5.0;" x1="2261" x2="2261" y1="118.9766" y2="1980.0996"/><text fill="#000000" font-family="sans-serif" font-size="14" lengthAdjust="spacing" textLength="90" x="5" y="116.0234">0xf39f..2266</text><ellipse cx="53" cy="50.9883" fill="#E2E2F0" rx="8" ry="8" style="stroke:#181818;stroke-width:0.5;"/><path d="M53,58.9883 L53,85.9883 M40,66.9883 L66,66.9883 M53,85.9883 L40,100.9883 M53,85.9883 L66,100.9883 " fill="none" style="stroke:#181818;stroke-width:0.5;"/><text fill="#000000" font-family="sans-serif" font-size="14" lengthAdjust="spacing" textLength="90" x="5" y="1992.6348">0xf39f..2266</text><ellipse cx="53" cy="2004.0879" fill="#E2E2F0" rx="8" ry="8" style="stroke:#181818;stroke-width:0.5;"/><path d="M53,2012.0879 L53,2039.0879 M40,2020.0879 L66,2020.0879 M53,2039.0879 L40,2054.0879 M53,2039.0879 L66,2054.0879 " fill="none" style="stroke:#181818;stroke-width:0.5;"/><rect fill="#E2E2F0" height="46.9766" rx="2.5" ry="2.5" style="stroke:#181818;stroke-width:0.5;" width="188" x="551" y="71"/><text fill="#000000" font-family="sans-serif" font-size="14" font-style="italic" lengthAdjust="spacing" textLength="174" x="558" y="91.5352">&#171;PoolModifyPositionTest&#187;</text><text fill="#000000" font-family="sans-serif" font-size="14" lengthAdjust="spacing" textLength="85" x="602.5" y="108.0234">0xcf7e..0fc9</text><rect fill="#E2E2F0" height="46.9766" rx="2.5" ry="2.5" style="stroke:#181818;stroke-width:0.5;" width="188" x="551" y="1979.0996"/><text fill="#000000" font-family="sans-serif" font-size="14" font-style="italic" lengthAdjust="spacing" textLength="174" x="558" y="1999.6348">&#171;PoolModifyPositionTest&#187;</text><text fill="#000000" font-family="sans-serif" font-size="14" lengthAdjust="spacing" textLength="85" x="602.5" y="2016.123">0xcf7e..0fc9</text><rect fill="#E2E2F0" height="46.9766" rx="2.5" ry="2.5" style="stroke:#181818;stroke-width:0.5;" width="118" x="1188" y="71"/><text fill="#000000" font-family="sans-serif" font-size="14" font-style="italic" lengthAdjust="spacing" textLength="104" x="1195" y="91.5352">&#171;PoolManager&#187;</text><text fill="#000000" font-family="sans-serif" font-size="14" lengthAdjust="spacing" textLength="91" x="1201.5" y="108.0234">0x9fe4..a6e0</text><rect fill="#E2E2F0" height="46.9766" rx="2.5" ry="2.5" style="stroke:#181818;stroke-width:0.5;" width="118" x="1188" y="1979.0996"/><text fill="#000000" font-family="sans-serif" font-size="14" font-style="italic" lengthAdjust="spacing" textLength="104" x="1195" y="1999.6348">&#171;PoolManager&#187;</text><text fill="#000000" font-family="sans-serif" font-size="14" lengthAdjust="spacing" textLength="91" x="1201.5" y="2016.123">0x9fe4..a6e0</text><rect fill="#E2E2F0" height="46.9766" rx="2.5" ry="2.5" style="stroke:#181818;stroke-width:0.5;" width="120" x="1788" y="71"/><text fill="#000000" font-family="sans-serif" font-size="14" font-style="italic" lengthAdjust="spacing" textLength="106" x="1795" y="91.5352">&#171;CounterHook&#187;</text><text fill="#000000" font-family="sans-serif" font-size="14" lengthAdjust="spacing" textLength="94" x="1801" y="108.0234">0x3cb6..eab3</text><rect fill="#E2E2F0" height="46.9766" rx="2.5" ry="2.5" style="stroke:#181818;stroke-width:0.5;" width="120" x="1788" y="1979.0996"/><text fill="#000000" font-family="sans-serif" font-size="14" font-style="italic" lengthAdjust="spacing" textLength="106" x="1795" y="1999.6348">&#171;CounterHook&#187;</text><text fill="#000000" font-family="sans-serif" font-size="14" lengthAdjust="spacing" textLength="94" x="1801" y="2016.123">0x3cb6..eab3</text><rect fill="#E2E2F0" height="46.9766" rx="2.5" ry="2.5" style="stroke:#181818;stroke-width:0.5;" width="106" x="1972.5" y="71"/><text fill="#000000" font-family="sans-serif" font-size="14" font-style="italic" lengthAdjust="spacing" textLength="88" x="1981.5" y="91.5352">&#171;TestERC20&#187;</text><text fill="#000000" font-family="sans-serif" font-size="14" lengthAdjust="spacing" textLength="92" x="1979.5" y="108.0234">0x5fbd..0aa3</text><rect fill="#E2E2F0" height="46.9766" rx="2.5" ry="2.5" style="stroke:#181818;stroke-width:0.5;" width="106" x="1972.5" y="1979.0996"/><text fill="#000000" font-family="sans-serif" font-size="14" font-style="italic" lengthAdjust="spacing" textLength="88" x="1981.5" y="1999.6348">&#171;TestERC20&#187;</text><text fill="#000000" font-family="sans-serif" font-size="14" lengthAdjust="spacing" textLength="92" x="1979.5" y="2016.123">0x5fbd..0aa3</text><rect fill="#E2E2F0" height="46.9766" rx="2.5" ry="2.5" style="stroke:#181818;stroke-width:0.5;" width="107" x="2208" y="71"/><text fill="#000000" font-family="sans-serif" font-size="14" font-style="italic" lengthAdjust="spacing" textLength="88" x="2217.5" y="91.5352">&#171;TestERC20&#187;</text><text fill="#000000" font-family="sans-serif" font-size="14" lengthAdjust="spacing" textLength="93" x="2215" y="108.0234">0xe7f1..0512</text><rect fill="#E2E2F0" height="46.9766" rx="2.5" ry="2.5" style="stroke:#181818;stroke-width:0.5;" width="107" x="2208" y="1979.0996"/><text fill="#000000" font-family="sans-serif" font-size="14" font-style="italic" lengthAdjust="spacing" textLength="88" x="2217.5" y="1999.6348">&#171;TestERC20&#187;</text><text fill="#000000" font-family="sans-serif" font-size="14" lengthAdjust="spacing" textLength="93" x="2215" y="2016.123">0xe7f1..0512</text><rect fill="#FFFFFF" height="1546.8438" style="stroke:#181818;stroke-width:1.0;" width="10" x="640" y="303.3926"/><rect fill="#FFFFFF" height="1368.3594" style="stroke:#181818;stroke-width:1.0;" width="10" x="645" y="392.6348"/><rect fill="#FFFFFF" height="1457.6016" style="stroke:#181818;stroke-width:1.0;" width="10" x="1242" y="348.0137"/><rect fill="#FFFFFF" height="544.627" style="stroke:#181818;stroke-width:1.0;" width="10" x="1247" y="575.0508"/><rect fill="#FFFFFF" height="133.8633" style="stroke:#181818;stroke-width:1.0;" width="10" x="1247" y="1284.1621"/><rect fill="#FFFFFF" height="133.8633" style="stroke:#181818;stroke-width:1.0;" width="10" x="1247" y="1582.5098"/><rect fill="#FFFFFF" height="44.6211" style="stroke:#181818;stroke-width:1.0;" width="10" x="1843" y="772.7773"/><rect fill="#FFFFFF" height="44.6211" style="stroke:#181818;stroke-width:1.0;" width="10" x="1843" y="1030.4355"/><rect fill="#FFFFFF" height="44.6211" style="stroke:#181818;stroke-width:1.0;" width="10" x="2020.5" y="1194.9199"/><rect fill="#FFFFFF" height="44.6211" style="stroke:#181818;stroke-width:1.0;" width="10" x="2020.5" y="1328.7832"/><rect fill="#FFFFFF" height="44.6211" style="stroke:#181818;stroke-width:1.0;" width="10" x="2256.5" y="1493.2676"/><rect fill="#FFFFFF" height="44.6211" style="stroke:#181818;stroke-width:1.0;" width="10" x="2256.5" y="1627.1309"/><polygon fill="#181818" points="628,299.3926,638,303.3926,628,307.3926,632,303.3926" style="stroke:#181818;stroke-width:1.0;"/><line style="stroke:#181818;stroke-width:1.0;" x1="53" x2="634" y1="303.3926" y2="303.3926"/><text fill="#000000" font-family="sans-serif" font-size="13" lengthAdjust="spacing" textLength="99" x="60" y="145.5449">modifyPosition(</text><text fill="#000000" font-family="sans-serif" font-size="13" lengthAdjust="spacing" textLength="34" x="60" y="160.8555">key: [</text><text fill="#000000" font-family="sans-serif" font-size="13" lengthAdjust="spacing" textLength="161" x="68" y="176.166">currency0: 0x5FbD..0aa3,</text><text fill="#000000" font-family="sans-serif" font-size="13" lengthAdjust="spacing" textLength="158" x="68" y="191.4766">currency1: 0xe7f1..0512,</text><text fill="#000000" font-family="sans-serif" font-size="13" lengthAdjust="spacing" textLength="67" x="68" y="206.7871">fee: 3,000,</text><text fill="#000000" font-family="sans-serif" font-size="13" lengthAdjust="spacing" textLength="101" x="68" y="222.0977">tickSpacing: 60,</text><text fill="#000000" font-family="sans-serif" font-size="13" lengthAdjust="spacing" textLength="142" x="68" y="237.4082">hooks: 0x3Cb6..eab3],</text><text fill="#000000" font-family="sans-serif" font-size="13" lengthAdjust="spacing" textLength="58" x="60" y="252.7188">params: [</text><text fill="#000000" font-family="sans-serif" font-size="13" lengthAdjust="spacing" textLength="105" x="68" y="268.0293">tickLower: -120,</text><text fill="#000000" font-family="sans-serif" font-size="13" lengthAdjust="spacing" textLength="97" x="68" y="283.3398">tickUpper: 120,</text><text fill="#000000" font-family="sans-serif" font-size="13" lengthAdjust="spacing" textLength="289" x="68" y="298.6504">liquidityDelta: 10,,000,000,000,000,000,000])</text><polygon fill="#181818" points="1230,344.0137,1240,348.0137,1230,352.0137,1234,348.0137" style="stroke:#181818;stroke-width:1.0;"/><line style="stroke:#181818;stroke-width:1.0;" x1="650" x2="1236" y1="348.0137" y2="348.0137"/><text fill="#000000" font-family="sans-serif" font-size="13" lengthAdjust="spacing" textLength="31" x="657" y="327.9609">lock(</text><text fill="#000000" font-family="sans-serif" font-size="13" lengthAdjust="spacing" textLength="190" x="657" y="343.2715">data: 0x00000000..89e80000)</text><polygon fill="#181818" points="666,388.6348,656,392.6348,666,396.6348,662,392.6348" style="stroke:#181818;stroke-width:1.0;"/><line style="stroke:#181818;stroke-width:1.0;" x1="660" x2="1241" y1="392.6348" y2="392.6348"/><text fill="#000000" font-family="sans-serif" font-size="13" lengthAdjust="spacing" textLength="87" x="672" y="372.582">lockAcquired(</text><text fill="#000000" font-family="sans-serif" font-size="13" lengthAdjust="spacing" textLength="214" x="672" y="387.8926">rawData: 0x00000000..89e80000)</text><polygon fill="#181818" points="1235,571.0508,1245,575.0508,1235,579.0508,1239,575.0508" style="stroke:#181818;stroke-width:1.0;"/><line style="stroke:#181818;stroke-width:1.0;" x1="655" x2="1241" y1="575.0508" y2="575.0508"/><text fill="#000000" font-family="sans-serif" font-size="13" lengthAdjust="spacing" textLength="99" x="662" y="417.2031">modifyPosition(</text><text fill="#000000" font-family="sans-serif" font-size="13" lengthAdjust="spacing" textLength="34" x="662" y="432.5137">key: [</text><text fill="#000000" font-family="sans-serif" font-size="13" lengthAdjust="spacing" textLength="161" x="670" y="447.8242">currency0: 0x5FbD..0aa3,</text><text fill="#000000" font-family="sans-serif" font-size="13" lengthAdjust="spacing" textLength="158" x="670" y="463.1348">currency1: 0xe7f1..0512,</text><text fill="#000000" font-family="sans-serif" font-size="13" lengthAdjust="spacing" textLength="67" x="670" y="478.4453">fee: 3,000,</text><text fill="#000000" font-family="sans-serif" font-size="13" lengthAdjust="spacing" textLength="101" x="670" y="493.7559">tickSpacing: 60,</text><text fill="#000000" font-family="sans-serif" font-size="13" lengthAdjust="spacing" textLength="142" x="670" y="509.0664">hooks: 0x3Cb6..eab3],</text><text fill="#000000" font-family="sans-serif" font-size="13" lengthAdjust="spacing" textLength="58" x="662" y="524.377">params: [</text><text fill="#000000" font-family="sans-serif" font-size="13" lengthAdjust="spacing" textLength="105" x="670" y="539.6875">tickLower: -120,</text><text fill="#000000" font-family="sans-serif" font-size="13" lengthAdjust="spacing" textLength="97" x="670" y="554.998">tickUpper: 120,</text><text fill="#000000" font-family="sans-serif" font-size="13" lengthAdjust="spacing" textLength="289" x="670" y="570.3086">liquidityDelta: 10,,000,000,000,000,000,000])</text><polygon fill="#181818" points="1831,768.7773,1841,772.7773,1831,776.7773,1835,772.7773" style="stroke:#181818;stroke-width:1.0;"/><line style="stroke:#181818;stroke-width:1.0;" x1="1257" x2="1837" y1="772.7773" y2="772.7773"/><text fill="#000000" font-family="sans-serif" font-size="13" lengthAdjust="spacing" textLength="138" x="1264" y="599.6191">beforeModifyPosition(</text><text fill="#000000" font-family="sans-serif" font-size="13" lengthAdjust="spacing" textLength="137" x="1264" y="614.9297">sender: 0xCf7E..0Fc9,</text><text fill="#000000" font-family="sans-serif" font-size="13" lengthAdjust="spacing" textLength="34" x="1264" y="630.2402">key: [</text><text fill="#000000" font-family="sans-serif" font-size="13" lengthAdjust="spacing" textLength="161" x="1272" y="645.5508">currency0: 0x5FbD..0aa3,</text><text fill="#000000" font-family="sans-serif" font-size="13" lengthAdjust="spacing" textLength="158" x="1272" y="660.8613">currency1: 0xe7f1..0512,</text><text fill="#000000" font-family="sans-serif" font-size="13" lengthAdjust="spacing" textLength="67" x="1272" y="676.1719">fee: 3,000,</text><text fill="#000000" font-family="sans-serif" font-size="13" lengthAdjust="spacing" textLength="101" x="1272" y="691.4824">tickSpacing: 60,</text><text fill="#000000" font-family="sans-serif" font-size="13" lengthAdjust="spacing" textLength="142" x="1272" y="706.793">hooks: 0x3Cb6..eab3],</text><text fill="#000000" font-family="sans-serif" font-size="13" lengthAdjust="spacing" textLength="58" x="1264" y="722.1035">params: [</text><text fill="#000000" font-family="sans-serif" font-size="13" lengthAdjust="spacing" textLength="105" x="1272" y="737.4141">tickLower: -120,</text><text fill="#000000" font-family="sans-serif" font-size="13" lengthAdjust="spacing" textLength="97" x="1272" y="752.7246">tickUpper: 120,</text><text fill="#000000" font-family="sans-serif" font-size="13" lengthAdjust="spacing" textLength="289" x="1272" y="768.0352">liquidityDelta: 10,,000,000,000,000,000,000])</text><polygon fill="#181818" points="1268,813.3984,1258,817.3984,1268,821.3984,1264,817.3984" style="stroke:#181818;stroke-width:1.0;"/><line style="stroke:#181818;stroke-width:1.0;stroke-dasharray:2.0,2.0;" x1="1262" x2="1847" y1="817.3984" y2="817.3984"/><text fill="#000000" font-family="sans-serif" font-size="13" lengthAdjust="spacing" textLength="4" x="1274" y="797.3457">&#160;</text><text fill="#000000" font-family="sans-serif" font-size="13" lengthAdjust="spacing" textLength="137" x="1274" y="812.6563">selector: 0x0dbe5dbd</text><polygon fill="#181818" points="1831,1026.4355,1841,1030.4355,1831,1034.4355,1835,1030.4355" style="stroke:#181818;stroke-width:1.0;"/><line style="stroke:#181818;stroke-width:1.0;" x1="1257" x2="1837" y1="1030.4355" y2="1030.4355"/><text fill="#000000" font-family="sans-serif" font-size="13" lengthAdjust="spacing" textLength="127" x="1264" y="841.9668">afterModifyPosition(</text><text fill="#000000" font-family="sans-serif" font-size="13" lengthAdjust="spacing" textLength="137" x="1264" y="857.2773">sender: 0xCf7E..0Fc9,</text><text fill="#000000" font-family="sans-serif" font-size="13" lengthAdjust="spacing" textLength="34" x="1264" y="872.5879">key: [</text><text fill="#000000" font-family="sans-serif" font-size="13" lengthAdjust="spacing" textLength="161" x="1272" y="887.8984">currency0: 0x5FbD..0aa3,</text><text fill="#000000" font-family="sans-serif" font-size="13" lengthAdjust="spacing" textLength="158" x="1272" y="903.209">currency1: 0xe7f1..0512,</text><text fill="#000000" font-family="sans-serif" font-size="13" lengthAdjust="spacing" textLength="67" x="1272" y="918.5195">fee: 3,000,</text><text fill="#000000" font-family="sans-serif" font-size="13" lengthAdjust="spacing" textLength="101" x="1272" y="933.8301">tickSpacing: 60,</text><text fill="#000000" font-family="sans-serif" font-size="13" lengthAdjust="spacing" textLength="142" x="1272" y="949.1406">hooks: 0x3Cb6..eab3],</text><text fill="#000000" font-family="sans-serif" font-size="13" lengthAdjust="spacing" textLength="58" x="1264" y="964.4512">params: [</text><text fill="#000000" font-family="sans-serif" font-size="13" lengthAdjust="spacing" textLength="105" x="1272" y="979.7617">tickLower: -120,</text><text fill="#000000" font-family="sans-serif" font-size="13" lengthAdjust="spacing" textLength="97" x="1272" y="995.0723">tickUpper: 120,</text><text fill="#000000" font-family="sans-serif" font-size="13" lengthAdjust="spacing" textLength="289" x="1272" y="1010.3828">liquidityDelta: 10,,000,000,000,000,000,000],</text><text fill="#000000" font-family="sans-serif" font-size="13" lengthAdjust="spacing" textLength="567" x="1264" y="1025.6934">delta: 20,354,798,834,465,817,373,943,277,580,285,330,412,,376,558,255,685,244,082)</text><polygon fill="#181818" points="1268,1071.0566,1258,1075.0566,1268,1079.0566,1264,1075.0566" style="stroke:#181818;stroke-width:1.0;"/><line style="stroke:#181818;stroke-width:1.0;stroke-dasharray:2.0,2.0;" x1="1262" x2="1847" y1="1075.0566" y2="1075.0566"/><text fill="#000000" font-family="sans-serif" font-size="13" lengthAdjust="spacing" textLength="4" x="1274" y="1055.0039">&#160;</text><text fill="#000000" font-family="sans-serif" font-size="13" lengthAdjust="spacing" textLength="134" x="1274" y="1070.3145">selector: 0x0e2059f5</text><polygon fill="#181818" points="666,1115.6777,656,1119.6777,666,1123.6777,662,1119.6777" style="stroke:#181818;stroke-width:1.0;"/><line style="stroke:#181818;stroke-width:1.0;stroke-dasharray:2.0,2.0;" x1="660" x2="1241" y1="1119.6777" y2="1119.6777"/><text fill="#000000" font-family="sans-serif" font-size="13" lengthAdjust="spacing" textLength="4" x="672" y="1099.625">&#160;</text><text fill="#000000" font-family="sans-serif" font-size="13" lengthAdjust="spacing" textLength="563" x="672" y="1114.9355">delta: 20,354,798,834,465,817,373,943,277,580,285,330,412,,376,558,255,685,244,082</text><polygon fill="#181818" points="2008.5,1190.9199,2018.5,1194.9199,2008.5,1198.9199,2012.5,1194.9199" style="stroke:#181818;stroke-width:1.0;"/><line style="stroke:#181818;stroke-width:1.0;" x1="655" x2="2014.5" y1="1194.9199" y2="1194.9199"/><text fill="#000000" font-family="sans-serif" font-size="13" lengthAdjust="spacing" textLength="85" x="662" y="1144.2461">transferFrom(</text><text fill="#000000" font-family="sans-serif" font-size="13" lengthAdjust="spacing" textLength="138" x="662" y="1159.5566">sender: 0xf39F..2266,</text><text fill="#000000" font-family="sans-serif" font-size="13" lengthAdjust="spacing" textLength="149" x="662" y="1174.8672">recipient: 0x9fE4..a6e0,</text><text fill="#000000" font-family="sans-serif" font-size="13" lengthAdjust="spacing" textLength="216" x="662" y="1190.1777">amount: 59,817,377,605,096,626)</text><polygon fill="#181818" points="666,1235.541,656,1239.541,666,1243.541,662,1239.541" style="stroke:#181818;stroke-width:1.0;"/><line style="stroke:#181818;stroke-width:1.0;stroke-dasharray:2.0,2.0;" x1="660" x2="2024.5" y1="1239.541" y2="1239.541"/><text fill="#000000" font-family="sans-serif" font-size="13" lengthAdjust="spacing" textLength="4" x="672" y="1219.4883">&#160;</text><text fill="#000000" font-family="sans-serif" font-size="13" lengthAdjust="spacing" textLength="25" x="672" y="1234.7988">true</text><polygon fill="#181818" points="1235,1280.1621,1245,1284.1621,1235,1288.1621,1239,1284.1621" style="stroke:#181818;stroke-width:1.0;"/><line style="stroke:#181818;stroke-width:1.0;" x1="655" x2="1241" y1="1284.1621" y2="1284.1621"/><text fill="#000000" font-family="sans-serif" font-size="13" lengthAdjust="spacing" textLength="39" x="662" y="1264.1094">settle(</text><text fill="#000000" font-family="sans-serif" font-size="13" lengthAdjust="spacing" textLength="153" x="662" y="1279.4199">currency: 0x5FbD..0aa3)</text><polygon fill="#181818" points="2008.5,1324.7832,2018.5,1328.7832,2008.5,1332.7832,2012.5,1328.7832" style="stroke:#181818;stroke-width:1.0;"/><line style="stroke:#181818;stroke-width:1.0;" x1="1257" x2="2014.5" y1="1328.7832" y2="1328.7832"/><text fill="#000000" font-family="sans-serif" font-size="13" lengthAdjust="spacing" textLength="67" x="1264" y="1308.7305">balanceOf(</text><text fill="#000000" font-family="sans-serif" font-size="13" lengthAdjust="spacing" textLength="86" x="1264" y="1324.041">0x9fE4..a6e0)</text><polygon fill="#181818" points="1268,1369.4043,1258,1373.4043,1268,1377.4043,1264,1373.4043" style="stroke:#181818;stroke-width:1.0;"/><line style="stroke:#181818;stroke-width:1.0;stroke-dasharray:2.0,2.0;" x1="1262" x2="2024.5" y1="1373.4043" y2="1373.4043"/><text fill="#000000" font-family="sans-serif" font-size="13" lengthAdjust="spacing" textLength="4" x="1274" y="1353.3516">&#160;</text><text fill="#000000" font-family="sans-serif" font-size="13" lengthAdjust="spacing" textLength="156" x="1274" y="1368.6621">89,770,927,164,204,436</text><polygon fill="#181818" points="666,1414.0254,656,1418.0254,666,1422.0254,662,1418.0254" style="stroke:#181818;stroke-width:1.0;"/><line style="stroke:#181818;stroke-width:1.0;stroke-dasharray:2.0,2.0;" x1="660" x2="1241" y1="1418.0254" y2="1418.0254"/><text fill="#000000" font-family="sans-serif" font-size="13" lengthAdjust="spacing" textLength="4" x="672" y="1397.9727">&#160;</text><text fill="#000000" font-family="sans-serif" font-size="13" lengthAdjust="spacing" textLength="191" x="672" y="1413.2832">paid: 59,817,377,605,096,626</text><polygon fill="#181818" points="2244.5,1489.2676,2254.5,1493.2676,2244.5,1497.2676,2248.5,1493.2676" style="stroke:#181818;stroke-width:1.0;"/><line style="stroke:#181818;stroke-width:1.0;" x1="655" x2="2250.5" y1="1493.2676" y2="1493.2676"/><text fill="#000000" font-family="sans-serif" font-size="13" lengthAdjust="spacing" textLength="85" x="662" y="1442.5938">transferFrom(</text><text fill="#000000" font-family="sans-serif" font-size="13" lengthAdjust="spacing" textLength="138" x="662" y="1457.9043">sender: 0xf39F..2266,</text><text fill="#000000" font-family="sans-serif" font-size="13" lengthAdjust="spacing" textLength="149" x="662" y="1473.2148">recipient: 0x9fE4..a6e0,</text><text fill="#000000" font-family="sans-serif" font-size="13" lengthAdjust="spacing" textLength="216" x="662" y="1488.5254">amount: 59,817,377,605,096,626)</text><polygon fill="#181818" points="666,1533.8887,656,1537.8887,666,1541.8887,662,1537.8887" style="stroke:#181818;stroke-width:1.0;"/><line style="stroke:#181818;stroke-width:1.0;stroke-dasharray:2.0,2.0;" x1="660" x2="2260.5" y1="1537.8887" y2="1537.8887"/><text fill="#000000" font-family="sans-serif" font-size="13" lengthAdjust="spacing" textLength="4" x="672" y="1517.8359">&#160;</text><text fill="#000000" font-family="sans-serif" font-size="13" lengthAdjust="spacing" textLength="25" x="672" y="1533.1465">true</text><polygon fill="#181818" points="1235,1578.5098,1245,1582.5098,1235,1586.5098,1239,1582.5098" style="stroke:#181818;stroke-width:1.0;"/><line style="stroke:#181818;stroke-width:1.0;" x1="655" x2="1241" y1="1582.5098" y2="1582.5098"/><text fill="#000000" font-family="sans-serif" font-size="13" lengthAdjust="spacing" textLength="39" x="662" y="1562.457">settle(</text><text fill="#000000" font-family="sans-serif" font-size="13" lengthAdjust="spacing" textLength="150" x="662" y="1577.7676">currency: 0xe7f1..0512)</text><polygon fill="#181818" points="2244.5,1623.1309,2254.5,1627.1309,2244.5,1631.1309,2248.5,1627.1309" style="stroke:#181818;stroke-width:1.0;"/><line style="stroke:#181818;stroke-width:1.0;" x1="1257" x2="2250.5" y1="1627.1309" y2="1627.1309"/><text fill="#000000" font-family="sans-serif" font-size="13" lengthAdjust="spacing" textLength="67" x="1264" y="1607.0781">balanceOf(</text><text fill="#000000" font-family="sans-serif" font-size="13" lengthAdjust="spacing" textLength="86" x="1264" y="1622.3887">0x9fE4..a6e0)</text><polygon fill="#181818" points="1268,1667.752,1258,1671.752,1268,1675.752,1264,1671.752" style="stroke:#181818;stroke-width:1.0;"/><line style="stroke:#181818;stroke-width:1.0;stroke-dasharray:2.0,2.0;" x1="1262" x2="2260.5" y1="1671.752" y2="1671.752"/><text fill="#000000" font-family="sans-serif" font-size="13" lengthAdjust="spacing" textLength="4" x="1274" y="1651.6992">&#160;</text><text fill="#000000" font-family="sans-serif" font-size="13" lengthAdjust="spacing" textLength="156" x="1274" y="1667.0098">89,770,927,164,204,436</text><polygon fill="#181818" points="666,1712.373,656,1716.373,666,1720.373,662,1716.373" style="stroke:#181818;stroke-width:1.0;"/><line style="stroke:#181818;stroke-width:1.0;stroke-dasharray:2.0,2.0;" x1="660" x2="1241" y1="1716.373" y2="1716.373"/><text fill="#000000" font-family="sans-serif" font-size="13" lengthAdjust="spacing" textLength="4" x="672" y="1696.3203">&#160;</text><text fill="#000000" font-family="sans-serif" font-size="13" lengthAdjust="spacing" textLength="191" x="672" y="1711.6309">paid: 59,817,377,605,096,626</text><polygon fill="#181818" points="1230,1756.9941,1240,1760.9941,1230,1764.9941,1234,1760.9941" style="stroke:#181818;stroke-width:1.0;"/><line style="stroke:#181818;stroke-width:1.0;stroke-dasharray:2.0,2.0;" x1="650" x2="1236" y1="1760.9941" y2="1760.9941"/><text fill="#000000" font-family="sans-serif" font-size="13" lengthAdjust="spacing" textLength="4" x="657" y="1740.9414">&#160;</text><text fill="#000000" font-family="sans-serif" font-size="13" lengthAdjust="spacing" textLength="151" x="657" y="1756.252">0x00000000..878c14b2</text><polygon fill="#181818" points="661,1801.6152,651,1805.6152,661,1809.6152,657,1805.6152" style="stroke:#181818;stroke-width:1.0;"/><line style="stroke:#181818;stroke-width:1.0;stroke-dasharray:2.0,2.0;" x1="655" x2="1246" y1="1805.6152" y2="1805.6152"/><text fill="#000000" font-family="sans-serif" font-size="13" lengthAdjust="spacing" textLength="4" x="667" y="1785.5625">&#160;</text><text fill="#000000" font-family="sans-serif" font-size="13" lengthAdjust="spacing" textLength="195" x="667" y="1800.873">result: 0x00000000..878c14b2</text><polygon fill="#181818" points="64,1846.2363,54,1850.2363,64,1854.2363,60,1850.2363" style="stroke:#181818;stroke-width:1.0;"/><line style="stroke:#181818;stroke-width:1.0;stroke-dasharray:2.0,2.0;" x1="58" x2="644" y1="1850.2363" y2="1850.2363"/><text fill="#000000" font-family="sans-serif" font-size="13" lengthAdjust="spacing" textLength="4" x="70" y="1830.1836">&#160;</text><text fill="#000000" font-family="sans-serif" font-size="13" lengthAdjust="spacing" textLength="563" x="70" y="1845.4941">delta: 20,354,798,834,465,817,373,943,277,580,285,330,412,,376,558,255,685,244,082</text><path d="M1092,1863.2363 L1092,1964.2363 L1402,1964.2363 L1402,1873.2363 L1392,1863.2363 L1092,1863.2363 " fill="#00FFFF" style="stroke:#181818;stroke-width:0.5;"/><path d="M1392,1863.2363 L1392,1873.2363 L1402,1873.2363 L1392,1863.2363 " fill="#00FFFF" style="stroke:#181818;stroke-width:0.5;"/><text fill="#000000" font-family="sans-serif" font-size="13" lengthAdjust="spacing" textLength="98" x="1098" y="1880.8047">ModifyPosition:</text><text fill="#000000" font-family="sans-serif" font-size="13" lengthAdjust="spacing" textLength="172" x="1106" y="1896.1152">id: 0x7dc68f5b..d6b12048,</text><text fill="#000000" font-family="sans-serif" font-size="13" lengthAdjust="spacing" textLength="137" x="1106" y="1911.4258">sender: 0xCf7E..0Fc9,</text><text fill="#000000" font-family="sans-serif" font-size="13" lengthAdjust="spacing" textLength="105" x="1106" y="1926.7363">tickLower: -120,</text><text fill="#000000" font-family="sans-serif" font-size="13" lengthAdjust="spacing" textLength="97" x="1106" y="1942.0469">tickUpper: 120,</text><text fill="#000000" font-family="sans-serif" font-size="13" lengthAdjust="spacing" textLength="281" x="1106" y="1957.3574">liquidityDelta: 10,,000,000,000,000,000,000</text><path d="M1793,1863.2363 L1793,1934.2363 L1902,1934.2363 L1902,1873.2363 L1892,1863.2363 L1793,1863.2363 " fill="#00FFFF" style="stroke:#181818;stroke-width:0.5;"/><path d="M1892,1863.2363 L1892,1873.2363 L1902,1873.2363 L1892,1863.2363 " fill="#00FFFF" style="stroke:#181818;stroke-width:0.5;"/><text fill="#000000" font-family="sans-serif" font-size="13" lengthAdjust="spacing" textLength="86" x="1799" y="1880.8047">BeforeModify:</text><text fill="#000000" font-family="sans-serif" font-size="13" lengthAdjust="spacing" textLength="80" x="1807" y="1896.1152">counter: 302</text><text fill="#000000" font-family="sans-serif" font-size="13" lengthAdjust="spacing" textLength="78" x="1799" y="1911.4258">AfterModify:</text><text fill="#000000" font-family="sans-serif" font-size="13" lengthAdjust="spacing" textLength="80" x="1807" y="1926.7363">counter: 402</text><path d="M1912,1863.2363 L1912,1934.2363 L2138,1934.2363 L2138,1873.2363 L2128,1863.2363 L1912,1863.2363 " fill="#00FFFF" style="stroke:#181818;stroke-width:0.5;"/><path d="M2128,1863.2363 L2128,1873.2363 L2138,1873.2363 L2128,1863.2363 " fill="#00FFFF" style="stroke:#181818;stroke-width:0.5;"/><text fill="#000000" font-family="sans-serif" font-size="13" lengthAdjust="spacing" textLength="56" x="1918" y="1880.8047">Transfer:</text><text fill="#000000" font-family="sans-serif" font-size="13" lengthAdjust="spacing" textLength="126" x="1926" y="1896.1152">from: 0xf39F..2266,</text><text fill="#000000" font-family="sans-serif" font-size="13" lengthAdjust="spacing" textLength="107" x="1926" y="1911.4258">to: 0x9fE4..a6e0,</text><text fill="#000000" font-family="sans-serif" font-size="13" lengthAdjust="spacing" textLength="197" x="1926" y="1926.7363">value: 59,817,377,605,096,626</text><path d="M2148,1863.2363 L2148,1934.2363 L2374,1934.2363 L2374,1873.2363 L2364,1863.2363 L2148,1863.2363 " fill="#00FFFF" style="stroke:#181818;stroke-width:0.5;"/><path d="M2364,1863.2363 L2364,1873.2363 L2374,1873.2363 L2364,1863.2363 " fill="#00FFFF" style="stroke:#181818;stroke-width:0.5;"/><text fill="#000000" font-family="sans-serif" font-size="13" lengthAdjust="spacing" textLength="56" x="2154" y="1880.8047">Transfer:</text><text fill="#000000" font-family="sans-serif" font-size="13" lengthAdjust="spacing" textLength="126" x="2162" y="1896.1152">from: 0xf39F..2266,</text><text fill="#000000" font-family="sans-serif" font-size="13" lengthAdjust="spacing" textLength="107" x="2162" y="1911.4258">to: 0x9fE4..a6e0,</text><text fill="#000000" font-family="sans-serif" font-size="13" lengthAdjust="spacing" textLength="197" x="2162" y="1926.7363">value: 59,817,377,605,096,626</text><!--SRC=[xLPBZzis4BxhLn3ffGKObNgGeeHWWUq-saCN3PhDgSc1eePROMN9eUYDzzztQ5kIPNkxsrSkgG417WvdvfkFmncwsZL0s1egLOcypBDKH9NcPIau2D0iqZhXPPffpI7IQSGgcQb8vqABL1fLoL96PGGo2BHQkhfhoKBLRGkEahBfz3qHbDnqBILnHCvNToHcSK9OMd1MuCgFDxU1qgwpv1LRcoGtOHZ7GhmYgYTUz089bigwMjTBrJg_JviCmf0PdM_sUT4BvCsRjrtNt7HLRHxVTdtjqTn2xyxE3Zta1j8mL0BOneCNlJ1uKAsw0tjibkXIX26eCjcOUT4BQ7RHhLe7zgUkkpysuwQi4AzIMpClUW7DFBghNozYTcm4cOdGY4VnniYBNZWm2aQINf-DH1HaCUFWsm_jFJmMvBSFBI5wPIsq-f4LUEZykhpS8gFxkiZh9W0RdG4eI48POniHeTw_MofTjtS54Tkrtp7xtfic5mDF7r61YQb5lmllxNxkFeCjoEieddozNoxzsh3Kr9zMTLMxnqjedC9rHZUXJtmVl_CLL3ye1oC3mLWJICjmkWNnzOXaLCgxP6ks-uMXp47wVtkk1gjWB8uPmzxLkKQG5YfqQTNdovTuVGRWrtfk9yaUhbT1IZ2TXPj3SdfeAn-ShIzCTeKvN-kSVZMS3VG45jpAjfwE1dmhtHHXLGAloke9GfN1PlK_dyo7gBQxq3ZXASroIMMIqbHmAgEC9bb2ypIXSPPHBXcD9QT9mcYAgQ5IKCubZJcd0XLncb8cunSV4iICvuQFodyVogpF38Ed8CwgjZTWhsstc1qyZfFhxGX6PYpWEAgXTLwJcwlTo4IDMlXvLn2Uxv1bL31EMIweYCLU_aF8CKLdL_14y-l1uLC4uGobDA-ovzh5b5sf6jLg-CMWhttWVuPBvZJB6CtZZ4OYfJ53tXCngfUghfvATvRECAU_8CT3oB_DyNHRd-Duoku571_X-YSS3vjcypMJEahBAO25VjMuWo5ykEa_k6H1ss6-tGFOwIdvZVgqKi6ynnO18Jv7jiugBQJXPHXMeiJ6bKgAkfCDE3XkVC5Html-KjiBC0xnc8FWUp9X7z-pM-m_x4rTZrnltxZOoLaSd4yJPAPBKNVQ-_ZitNg_tLqFRstmYXpS39zYTt0dSEr1DIjuiaXE1nwVpbyWy1y0]--></g></svg>