<?xml version="1.0" encoding="UTF-8" standalone="no"?><svg xmlns="http://www.w3.org/2000/svg" xmlns:xlink="http://www.w3.org/1999/xlink" contentStyleType="text/css" height="761px" preserveAspectRatio="none" style="width:835px;height:761px;background:#FFFFFF;" version="1.1" viewBox="0 0 835 761" width="835px" zoomAndPan="magnify"><defs/><g><text fill="#000000" font-family="sans-serif" font-size="14" font-weight="bold" lengthAdjust="spacing" textLength="576" x="128.5" y="28.5352">0x9b115c369b25d6ec3a0496ac1b851de7446d08d69e47361cf096912328a85730</text><text fill="#000000" font-family="sans-serif" font-size="14" lengthAdjust="spacing" textLength="347" x="243" y="749.7266">mainnet, block 4, Sun, 20 Aug 2023 11:18:56 GMT</text><rect fill="#FFFFFF" height="490.416" style="stroke:#181818;stroke-width:1.0;" width="10" x="200" y="150.2871"/><rect fill="#FFFFFF" height="403.7949" style="stroke:#181818;stroke-width:1.0;" width="10" x="205" y="208.9082"/><rect fill="#FFFFFF" height="447.1055" style="stroke:#181818;stroke-width:1.0;" width="10" x="363" y="179.5977"/><rect fill="#FFFFFF" height="100.6211" style="stroke:#181818;stroke-width:1.0;" width="10" x="368" y="238.2188"/><rect fill="#FFFFFF" height="57.3105" style="stroke:#181818;stroke-width:1.0;" width="10" x="368" y="411.4609"/><rect fill="#FFFFFF" height="57.3105" style="stroke:#181818;stroke-width:1.0;" width="10" x="368" y="541.3926"/><rect fill="#FFFFFF" height="14" style="stroke:#181818;stroke-width:1.0;" width="10" x="531" y="267.5293"/><rect fill="#FFFFFF" height="14" style="stroke:#181818;stroke-width:1.0;" width="10" x="531" y="310.8398"/><rect fill="#FFFFFF" height="14" style="stroke:#181818;stroke-width:1.0;" width="10" x="654" y="368.1504"/><rect fill="#FFFFFF" height="14" style="stroke:#181818;stroke-width:1.0;" width="10" x="654" y="440.7715"/><rect fill="#FFFFFF" height="14" style="stroke:#181818;stroke-width:1.0;" width="10" x="770.5" y="498.082"/><rect fill="#FFFFFF" height="14" style="stroke:#181818;stroke-width:1.0;" width="10" x="770.5" y="570.7031"/><line style="stroke:#181818;stroke-width:0.5;stroke-dasharray:5.0,5.0;" x1="53" x2="53" y1="118.9766" y2="658.7031"/><line style="stroke:#181818;stroke-width:0.5;stroke-dasharray:5.0,5.0;" x1="205" x2="205" y1="118.9766" y2="658.7031"/><line style="stroke:#181818;stroke-width:0.5;stroke-dasharray:5.0,5.0;" x1="368" x2="368" y1="118.9766" y2="658.7031"/><line style="stroke:#181818;stroke-width:0.5;stroke-dasharray:5.0,5.0;" x1="536" x2="536" y1="118.9766" y2="658.7031"/><line style="stroke:#181818;stroke-width:0.5;stroke-dasharray:5.0,5.0;" x1="659" x2="659" y1="118.9766" y2="658.7031"/><line style="stroke:#181818;stroke-width:0.5;stroke-dasharray:5.0,5.0;" x1="775" x2="775" y1="118.9766" y2="658.7031"/><text fill="#000000" font-family="sans-serif" font-size="14" lengthAdjust="spacing" textLength="90" x="5" y="116.0234">0xf39f..2266</text><ellipse cx="53" cy="50.9883" fill="#E2E2F0" rx="8" ry="8" style="stroke:#181818;stroke-width:0.5;"/><path d="M53,58.9883 L53,85.9883 M40,66.9883 L66,66.9883 M53,85.9883 L40,100.9883 M53,85.9883 L66,100.9883 " fill="none" style="stroke:#181818;stroke-width:0.5;"/><text fill="#000000" font-family="sans-serif" font-size="14" lengthAdjust="spacing" textLength="90" x="5" y="671.2383">0xf39f..2266</text><ellipse cx="53" cy="682.6914" fill="#E2E2F0" rx="8" ry="8" style="stroke:#181818;stroke-width:0.5;"/><path d="M53,690.6914 L53,717.6914 M40,698.6914 L66,698.6914 M53,717.6914 L40,732.6914 M53,717.6914 L66,732.6914 " fill="none" style="stroke:#181818;stroke-width:0.5;"/><rect fill="#E2E2F0" height="46.9766" rx="2.5" ry="2.5" style="stroke:#181818;stroke-width:0.5;" width="188" x="111" y="71"/><text fill="#000000" font-family="sans-serif" font-size="14" font-style="italic" lengthAdjust="spacing" textLength="174" x="118" y="91.5352">«PoolModifyPositionTest»</text><text fill="#000000" font-family="sans-serif" font-size="14" lengthAdjust="spacing" textLength="85" x="162.5" y="108.0234">0xcf7e..0fc9</text><rect fill="#E2E2F0" height="46.9766" rx="2.5" ry="2.5" style="stroke:#181818;stroke-width:0.5;" width="188" x="111" y="657.7031"/><text fill="#000000" font-family="sans-serif" font-size="14" font-style="italic" lengthAdjust="spacing" textLength="174" x="118" y="678.2383">«PoolModifyPositionTest»</text><text fill="#000000" font-family="sans-serif" font-size="14" lengthAdjust="spacing" textLength="85" x="162.5" y="694.7266">0xcf7e..0fc9</text><rect fill="#E2E2F0" height="46.9766" rx="2.5" ry="2.5" style="stroke:#181818;stroke-width:0.5;" width="118" x="309" y="71"/><text fill="#000000" font-family="sans-serif" font-size="14" font-style="italic" lengthAdjust="spacing" textLength="104" x="316" y="91.5352">«PoolManager»</text><text fill="#000000" font-family="sans-serif" font-size="14" lengthAdjust="spacing" textLength="91" x="322.5" y="108.0234">0x9fe4..a6e0</text><rect fill="#E2E2F0" height="46.9766" rx="2.5" ry="2.5" style="stroke:#181818;stroke-width:0.5;" width="118" x="309" y="657.7031"/><text fill="#000000" font-family="sans-serif" font-size="14" font-style="italic" lengthAdjust="spacing" textLength="104" x="316" y="678.2383">«PoolManager»</text><text fill="#000000" font-family="sans-serif" font-size="14" lengthAdjust="spacing" textLength="91" x="322.5" y="694.7266">0x9fe4..a6e0</text><rect fill="#E2E2F0" height="46.9766" rx="2.5" ry="2.5" style="stroke:#181818;stroke-width:0.5;" width="120" x="476" y="71"/><text fill="#000000" font-family="sans-serif" font-size="14" font-style="italic" lengthAdjust="spacing" textLength="106" x="483" y="91.5352">«CounterHook»</text><text fill="#000000" font-family="sans-serif" font-size="14" lengthAdjust="spacing" textLength="96" x="488" y="108.0234">0x3cd9..40bb</text><rect fill="#E2E2F0" height="46.9766" rx="2.5" ry="2.5" style="stroke:#181818;stroke-width:0.5;" width="120" x="476" y="657.7031"/><text fill="#000000" font-family="sans-serif" font-size="14" font-style="italic" lengthAdjust="spacing" textLength="106" x="483" y="678.2383">«CounterHook»</text><text fill="#000000" font-family="sans-serif" font-size="14" lengthAdjust="spacing" textLength="96" x="488" y="694.7266">0x3cd9..40bb</text><rect fill="#E2E2F0" height="46.9766" rx="2.5" ry="2.5" style="stroke:#181818;stroke-width:0.5;" width="106" x="606" y="71"/><text fill="#000000" font-family="sans-serif" font-size="14" font-style="italic" lengthAdjust="spacing" textLength="88" x="615" y="91.5352">«TestERC20»</text><text fill="#000000" font-family="sans-serif" font-size="14" lengthAdjust="spacing" textLength="92" x="613" y="108.0234">0x5fbd..0aa3</text><rect fill="#E2E2F0" height="46.9766" rx="2.5" ry="2.5" style="stroke:#181818;stroke-width:0.5;" width="106" x="606" y="657.7031"/><text fill="#000000" font-family="sans-serif" font-size="14" font-style="italic" lengthAdjust="spacing" textLength="88" x="615" y="678.2383">«TestERC20»</text><text fill="#000000" font-family="sans-serif" font-size="14" lengthAdjust="spacing" textLength="92" x="613" y="694.7266">0x5fbd..0aa3</text><rect fill="#E2E2F0" height="46.9766" rx="2.5" ry="2.5" style="stroke:#181818;stroke-width:0.5;" width="107" x="722" y="71"/><text fill="#000000" font-family="sans-serif" font-size="14" font-style="italic" lengthAdjust="spacing" textLength="88" x="731.5" y="91.5352">«TestERC20»</text><text fill="#000000" font-family="sans-serif" font-size="14" lengthAdjust="spacing" textLength="93" x="729" y="108.0234">0xe7f1..0512</text><rect fill="#E2E2F0" height="46.9766" rx="2.5" ry="2.5" style="stroke:#181818;stroke-width:0.5;" width="107" x="722" y="657.7031"/><text fill="#000000" font-family="sans-serif" font-size="14" font-style="italic" lengthAdjust="spacing" textLength="88" x="731.5" y="678.2383">«TestERC20»</text><text fill="#000000" font-family="sans-serif" font-size="14" lengthAdjust="spacing" textLength="93" x="729" y="694.7266">0xe7f1..0512</text><rect fill="#FFFFFF" height="490.416" style="stroke:#181818;stroke-width:1.0;" width="10" x="200" y="150.2871"/><rect fill="#FFFFFF" height="403.7949" style="stroke:#181818;stroke-width:1.0;" width="10" x="205" y="208.9082"/><rect fill="#FFFFFF" height="447.1055" style="stroke:#181818;stroke-width:1.0;" width="10" x="363" y="179.5977"/><rect fill="#FFFFFF" height="100.6211" style="stroke:#181818;stroke-width:1.0;" width="10" x="368" y="238.2188"/><rect fill="#FFFFFF" height="57.3105" style="stroke:#181818;stroke-width:1.0;" width="10" x="368" y="411.4609"/><rect fill="#FFFFFF" height="57.3105" style="stroke:#181818;stroke-width:1.0;" width="10" x="368" y="541.3926"/><rect fill="#FFFFFF" height="14" style="stroke:#181818;stroke-width:1.0;" width="10" x="531" y="267.5293"/><rect fill="#FFFFFF" height="14" style="stroke:#181818;stroke-width:1.0;" width="10" x="531" y="310.8398"/><rect fill="#FFFFFF" height="14" style="stroke:#181818;stroke-width:1.0;" width="10" x="654" y="368.1504"/><rect fill="#FFFFFF" height="14" style="stroke:#181818;stroke-width:1.0;" width="10" x="654" y="440.7715"/><rect fill="#FFFFFF" height="14" style="stroke:#181818;stroke-width:1.0;" width="10" x="770.5" y="498.082"/><rect fill="#FFFFFF" height="14" style="stroke:#181818;stroke-width:1.0;" width="10" x="770.5" y="570.7031"/><polygon fill="#181818" points="188,146.2871,198,150.2871,188,154.2871,192,150.2871" style="stroke:#181818;stroke-width:1.0;"/><line style="stroke:#181818;stroke-width:1.0;" x1="53" x2="194" y1="150.2871" y2="150.2871"/><text fill="#000000" font-family="sans-serif" font-size="13" lengthAdjust="spacing" textLength="95" x="60" y="145.5449">modifyPosition</text><polygon fill="#181818" points="351,175.5977,361,179.5977,351,183.5977,355,179.5977" style="stroke:#181818;stroke-width:1.0;"/><line style="stroke:#181818;stroke-width:1.0;" x1="210" x2="357" y1="179.5977" y2="179.5977"/><text fill="#000000" font-family="sans-serif" font-size="13" lengthAdjust="spacing" textLength="27" x="217" y="174.8555">lock</text><polygon fill="#181818" points="226,204.9082,216,208.9082,226,212.9082,222,208.9082" style="stroke:#181818;stroke-width:1.0;"/><line style="stroke:#181818;stroke-width:1.0;" x1="220" x2="362" y1="208.9082" y2="208.9082"/><text fill="#000000" font-family="sans-serif" font-size="13" lengthAdjust="spacing" textLength="83" x="232" y="204.166">lockAcquired</text><polygon fill="#181818" points="356,234.2188,366,238.2188,356,242.2188,360,238.2188" style="stroke:#181818;stroke-width:1.0;"/><line style="stroke:#181818;stroke-width:1.0;" x1="215" x2="362" y1="238.2188" y2="238.2188"/><text fill="#000000" font-family="sans-serif" font-size="13" lengthAdjust="spacing" textLength="95" x="222" y="233.4766">modifyPosition</text><polygon fill="#181818" points="519,263.5293,529,267.5293,519,271.5293,523,267.5293" style="stroke:#181818;stroke-width:1.0;"/><line style="stroke:#181818;stroke-width:1.0;" x1="378" x2="525" y1="267.5293" y2="267.5293"/><text fill="#000000" font-family="sans-serif" font-size="13" lengthAdjust="spacing" textLength="134" x="385" y="262.7871">beforeModifyPosition</text><polygon fill="#181818" points="389,277.5293,379,281.5293,389,285.5293,385,281.5293" style="stroke:#181818;stroke-width:1.0;"/><line style="stroke:#181818;stroke-width:1.0;stroke-dasharray:2.0,2.0;" x1="383" x2="535" y1="281.5293" y2="281.5293"/><polygon fill="#181818" points="519,306.8398,529,310.8398,519,314.8398,523,310.8398" style="stroke:#181818;stroke-width:1.0;"/><line style="stroke:#181818;stroke-width:1.0;" x1="378" x2="525" y1="310.8398" y2="310.8398"/><text fill="#000000" font-family="sans-serif" font-size="13" lengthAdjust="spacing" textLength="123" x="385" y="306.0977">afterModifyPosition</text><polygon fill="#181818" points="389,320.8398,379,324.8398,389,328.8398,385,324.8398" style="stroke:#181818;stroke-width:1.0;"/><line style="stroke:#181818;stroke-width:1.0;stroke-dasharray:2.0,2.0;" x1="383" x2="535" y1="324.8398" y2="324.8398"/><polygon fill="#181818" points="226,334.8398,216,338.8398,226,342.8398,222,338.8398" style="stroke:#181818;stroke-width:1.0;"/><line style="stroke:#181818;stroke-width:1.0;stroke-dasharray:2.0,2.0;" x1="220" x2="362" y1="338.8398" y2="338.8398"/><polygon fill="#181818" points="642,364.1504,652,368.1504,642,372.1504,646,368.1504" style="stroke:#181818;stroke-width:1.0;"/><line style="stroke:#181818;stroke-width:1.0;" x1="215" x2="648" y1="368.1504" y2="368.1504"/><text fill="#000000" font-family="sans-serif" font-size="13" lengthAdjust="spacing" textLength="81" x="222" y="363.4082">transferFrom</text><polygon fill="#181818" points="226,378.1504,216,382.1504,226,386.1504,222,382.1504" style="stroke:#181818;stroke-width:1.0;"/><line style="stroke:#181818;stroke-width:1.0;stroke-dasharray:2.0,2.0;" x1="220" x2="658" y1="382.1504" y2="382.1504"/><polygon fill="#181818" points="356,407.4609,366,411.4609,356,415.4609,360,411.4609" style="stroke:#181818;stroke-width:1.0;"/><line style="stroke:#181818;stroke-width:1.0;" x1="215" x2="362" y1="411.4609" y2="411.4609"/><text fill="#000000" font-family="sans-serif" font-size="13" lengthAdjust="spacing" textLength="35" x="222" y="406.7188">settle</text><polygon fill="#181818" points="642,436.7715,652,440.7715,642,444.7715,646,440.7715" style="stroke:#181818;stroke-width:1.0;"/><line style="stroke:#181818;stroke-width:1.0;" x1="378" x2="648" y1="440.7715" y2="440.7715"/><text fill="#000000" font-family="sans-serif" font-size="13" lengthAdjust="spacing" textLength="63" x="385" y="436.0293">balanceOf</text><polygon fill="#181818" points="389,450.7715,379,454.7715,389,458.7715,385,454.7715" style="stroke:#181818;stroke-width:1.0;"/><line style="stroke:#181818;stroke-width:1.0;stroke-dasharray:2.0,2.0;" x1="383" x2="658" y1="454.7715" y2="454.7715"/><polygon fill="#181818" points="226,464.7715,216,468.7715,226,472.7715,222,468.7715" style="stroke:#181818;stroke-width:1.0;"/><line style="stroke:#181818;stroke-width:1.0;stroke-dasharray:2.0,2.0;" x1="220" x2="362" y1="468.7715" y2="468.7715"/><polygon fill="#181818" points="758.5,494.082,768.5,498.082,758.5,502.082,762.5,498.082" style="stroke:#181818;stroke-width:1.0;"/><line style="stroke:#181818;stroke-width:1.0;" x1="215" x2="764.5" y1="498.082" y2="498.082"/><text fill="#000000" font-family="sans-serif" font-size="13" lengthAdjust="spacing" textLength="81" x="222" y="493.3398">transferFrom</text><polygon fill="#181818" points="226,508.082,216,512.082,226,516.082,222,512.082" style="stroke:#181818;stroke-width:1.0;"/><line style="stroke:#181818;stroke-width:1.0;stroke-dasharray:2.0,2.0;" x1="220" x2="774.5" y1="512.082" y2="512.082"/><polygon fill="#181818" points="356,537.3926,366,541.3926,356,545.3926,360,541.3926" style="stroke:#181818;stroke-width:1.0;"/><line style="stroke:#181818;stroke-width:1.0;" x1="215" x2="362" y1="541.3926" y2="541.3926"/><text fill="#000000" font-family="sans-serif" font-size="13" lengthAdjust="spacing" textLength="35" x="222" y="536.6504">settle</text><polygon fill="#181818" points="758.5,566.7031,768.5,570.7031,758.5,574.7031,762.5,570.7031" style="stroke:#181818;stroke-width:1.0;"/><line style="stroke:#181818;stroke-width:1.0;" x1="378" x2="764.5" y1="570.7031" y2="570.7031"/><text fill="#000000" font-family="sans-serif" font-size="13" lengthAdjust="spacing" textLength="63" x="385" y="565.9609">balanceOf</text><polygon fill="#181818" points="389,580.7031,379,584.7031,389,588.7031,385,584.7031" style="stroke:#181818;stroke-width:1.0;"/><line style="stroke:#181818;stroke-width:1.0;stroke-dasharray:2.0,2.0;" x1="383" x2="774.5" y1="584.7031" y2="584.7031"/><polygon fill="#181818" points="226,594.7031,216,598.7031,226,602.7031,222,598.7031" style="stroke:#181818;stroke-width:1.0;"/><line style="stroke:#181818;stroke-width:1.0;stroke-dasharray:2.0,2.0;" x1="220" x2="362" y1="598.7031" y2="598.7031"/><polygon fill="#181818" points="351,608.7031,361,612.7031,351,616.7031,355,612.7031" style="stroke:#181818;stroke-width:1.0;"/><line style="stroke:#181818;stroke-width:1.0;stroke-dasharray:2.0,2.0;" x1="210" x2="357" y1="612.7031" y2="612.7031"/><polygon fill="#181818" points="221,622.7031,211,626.7031,221,630.7031,217,626.7031" style="stroke:#181818;stroke-width:1.0;"/><line style="stroke:#181818;stroke-width:1.0;stroke-dasharray:2.0,2.0;" x1="215" x2="367" y1="626.7031" y2="626.7031"/><polygon fill="#181818" points="64,636.7031,54,640.7031,64,644.7031,60,640.7031" style="stroke:#181818;stroke-width:1.0;"/><line style="stroke:#181818;stroke-width:1.0;stroke-dasharray:2.0,2.0;" x1="58" x2="204" y1="640.7031" y2="640.7031"/><!--SRC=[hLF1Rfmm4Btp5LREMsGRC1X5AqLHcrvMZThym636aPLTUsjCbFvzCIhGx2v93ZbP3y-Rz-QD2IRiaT0NsJ1Mg4p8XXUjG9K1pQK0nPggO2sMUIvQMhL2ObvcWYbDfP2CPxo2gYWpcYGAZi4uImvWhCMm8StUgIUIRyYltcu8f-IcVnmEdX76QbRLXI1tkuS4L72UND4NdKcTffmBSKMW8n56G98Z-62KEO8DiKxf4jEKQYN7kWWZ8DVNzyxjTwur-i-zwqnqyu1Ts6vFEqYDUPg2G3fsY322gGDOU4H_JijKAzCqfqqpqYACOA3Tkju6zD-TUpgd5Rff1xy0sKYBC8A15jrz_NdBwJa9Iyq6Ki7uI8emWXDICeVqPJi7KPF3gmnYmkOP0iuLoPpPG9kchqdSrr8yVK_cU5vfnE8RzRit7jiFAwmPkwWrvLkJ1hNpk5iXJtM9nz1xkz83zB2WZxRuT_m_nBIscWGFjjFeltbtM5fCzvUuIm0TXk5_UsVmHQg1FLY5F_IwpWMvwR6iMPtkFy7g8dN1wgdEMyTV]--></g></svg>