<?xml version="1.0" encoding="us-ascii" standalone="no"?><svg xmlns="http://www.w3.org/2000/svg" xmlns:xlink="http://www.w3.org/1999/xlink" contentStyleType="text/css" height="1392px" preserveAspectRatio="none" style="width:731px;height:1392px;background:#FFFFFF;" version="1.1" viewBox="0 0 731 1392" width="731px" zoomAndPan="magnify"><defs/><g><text fill="#000000" font-family="sans-serif" font-size="14" font-weight="bold" lengthAdjust="spacing" textLength="566" x="81.5" y="28.5352">0x8bf2dcb4a75e71fdda9139fe0539ba22bcfe0dcb31e41559897b7e20d440beb1</text><text fill="#000000" font-family="sans-serif" font-size="14" lengthAdjust="spacing" textLength="351" x="189" y="1380.0801">mainnet, block 6, Mon, 21 Aug 2023 04:50:21 GMT</text><rect fill="#FFFFFF" height="1074.8379" style="stroke:#181818;stroke-width:1.0;" width="10" x="167.5" y="196.2188"/><rect fill="#FFFFFF" height="896.3535" style="stroke:#181818;stroke-width:1.0;" width="10" x="172.5" y="285.4609"/><rect fill="#FFFFFF" height="985.5957" style="stroke:#181818;stroke-width:1.0;" width="10" x="298" y="240.8398"/><rect fill="#FFFFFF" height="299.6582" style="stroke:#181818;stroke-width:1.0;" width="10" x="303" y="345.3926"/><rect fill="#FFFFFF" height="133.8633" style="stroke:#181818;stroke-width:1.0;" width="10" x="303" y="809.5352"/><rect fill="#FFFFFF" height="118.5527" style="stroke:#181818;stroke-width:1.0;" width="10" x="303" y="1018.6406"/><rect fill="#FFFFFF" height="44.6211" style="stroke:#181818;stroke-width:1.0;" width="10" x="427" y="420.6348"/><rect fill="#FFFFFF" height="44.6211" style="stroke:#181818;stroke-width:1.0;" width="10" x="427" y="555.8086"/><rect fill="#FFFFFF" height="44.6211" style="stroke:#181818;stroke-width:1.0;" width="10" x="550" y="720.293"/><rect fill="#FFFFFF" height="44.6211" style="stroke:#181818;stroke-width:1.0;" width="10" x="550" y="854.1563"/><rect fill="#FFFFFF" height="44.6211" style="stroke:#181818;stroke-width:1.0;" width="10" x="666.5" y="1078.5723"/><line style="stroke:#181818;stroke-width:0.5;stroke-dasharray:5.0,5.0;" x1="53" x2="53" y1="118.9766" y2="1289.0566"/><line style="stroke:#181818;stroke-width:0.5;stroke-dasharray:5.0,5.0;" x1="172" x2="172" y1="118.9766" y2="1289.0566"/><line style="stroke:#181818;stroke-width:0.5;stroke-dasharray:5.0,5.0;" x1="303" x2="303" y1="118.9766" y2="1289.0566"/><line style="stroke:#181818;stroke-width:0.5;stroke-dasharray:5.0,5.0;" x1="432" x2="432" y1="118.9766" y2="1289.0566"/><line style="stroke:#181818;stroke-width:0.5;stroke-dasharray:5.0,5.0;" x1="555" x2="555" y1="118.9766" y2="1289.0566"/><line style="stroke:#181818;stroke-width:0.5;stroke-dasharray:5.0,5.0;" x1="671" x2="671" y1="118.9766" y2="1289.0566"/><text fill="#000000" font-family="sans-serif" font-size="14" lengthAdjust="spacing" textLength="90" x="5" y="116.0234">0xf39f..2266</text><ellipse cx="53" cy="50.9883" fill="#E2E2F0" rx="8" ry="8" style="stroke:#181818;stroke-width:0.5;"/><path d="M53,58.9883 L53,85.9883 M40,66.9883 L66,66.9883 M53,85.9883 L40,100.9883 M53,85.9883 L66,100.9883 " fill="none" style="stroke:#181818;stroke-width:0.5;"/><text fill="#000000" font-family="sans-serif" font-size="14" lengthAdjust="spacing" textLength="90" x="5" y="1301.5918">0xf39f..2266</text><ellipse cx="53" cy="1313.0449" fill="#E2E2F0" rx="8" ry="8" style="stroke:#181818;stroke-width:0.5;"/><path d="M53,1321.0449 L53,1348.0449 M40,1329.0449 L66,1329.0449 M53,1348.0449 L40,1363.0449 M53,1348.0449 L66,1363.0449 " fill="none" style="stroke:#181818;stroke-width:0.5;"/><rect fill="#E2E2F0" height="46.9766" rx="2.5" ry="2.5" style="stroke:#181818;stroke-width:0.5;" width="123" x="111" y="71"/><text fill="#000000" font-family="sans-serif" font-size="14" font-style="italic" lengthAdjust="spacing" textLength="109" x="118" y="91.5352">&#171;PoolSwapTest&#187;</text><text fill="#000000" font-family="sans-serif" font-size="14" lengthAdjust="spacing" textLength="90" x="127.5" y="108.0234">0xdc64..f6c9</text><rect fill="#E2E2F0" height="46.9766" rx="2.5" ry="2.5" style="stroke:#181818;stroke-width:0.5;" width="123" x="111" y="1288.0566"/><text fill="#000000" font-family="sans-serif" font-size="14" font-style="italic" lengthAdjust="spacing" textLength="109" x="118" y="1308.5918">&#171;PoolSwapTest&#187;</text><text fill="#000000" font-family="sans-serif" font-size="14" lengthAdjust="spacing" textLength="90" x="127.5" y="1325.0801">0xdc64..f6c9</text><rect fill="#E2E2F0" height="46.9766" rx="2.5" ry="2.5" style="stroke:#181818;stroke-width:0.5;" width="118" x="244" y="71"/><text fill="#000000" font-family="sans-serif" font-size="14" font-style="italic" lengthAdjust="spacing" textLength="104" x="251" y="91.5352">&#171;PoolManager&#187;</text><text fill="#000000" font-family="sans-serif" font-size="14" lengthAdjust="spacing" textLength="91" x="257.5" y="108.0234">0x9fe4..a6e0</text><rect fill="#E2E2F0" height="46.9766" rx="2.5" ry="2.5" style="stroke:#181818;stroke-width:0.5;" width="118" x="244" y="1288.0566"/><text fill="#000000" font-family="sans-serif" font-size="14" font-style="italic" lengthAdjust="spacing" textLength="104" x="251" y="1308.5918">&#171;PoolManager&#187;</text><text fill="#000000" font-family="sans-serif" font-size="14" lengthAdjust="spacing" textLength="91" x="257.5" y="1325.0801">0x9fe4..a6e0</text><rect fill="#E2E2F0" height="46.9766" rx="2.5" ry="2.5" style="stroke:#181818;stroke-width:0.5;" width="120" x="372" y="71"/><text fill="#000000" font-family="sans-serif" font-size="14" font-style="italic" lengthAdjust="spacing" textLength="106" x="379" y="91.5352">&#171;CounterHook&#187;</text><text fill="#000000" font-family="sans-serif" font-size="14" lengthAdjust="spacing" textLength="94" x="385" y="108.0234">0x3cb6..eab3</text><rect fill="#E2E2F0" height="46.9766" rx="2.5" ry="2.5" style="stroke:#181818;stroke-width:0.5;" width="120" x="372" y="1288.0566"/><text fill="#000000" font-family="sans-serif" font-size="14" font-style="italic" lengthAdjust="spacing" textLength="106" x="379" y="1308.5918">&#171;CounterHook&#187;</text><text fill="#000000" font-family="sans-serif" font-size="14" lengthAdjust="spacing" textLength="94" x="385" y="1325.0801">0x3cb6..eab3</text><rect fill="#E2E2F0" height="46.9766" rx="2.5" ry="2.5" style="stroke:#181818;stroke-width:0.5;" width="106" x="502" y="71"/><text fill="#000000" font-family="sans-serif" font-size="14" font-style="italic" lengthAdjust="spacing" textLength="88" x="511" y="91.5352">&#171;TestERC20&#187;</text><text fill="#000000" font-family="sans-serif" font-size="14" lengthAdjust="spacing" textLength="92" x="509" y="108.0234">0x5fbd..0aa3</text><rect fill="#E2E2F0" height="46.9766" rx="2.5" ry="2.5" style="stroke:#181818;stroke-width:0.5;" width="106" x="502" y="1288.0566"/><text fill="#000000" font-family="sans-serif" font-size="14" font-style="italic" lengthAdjust="spacing" textLength="88" x="511" y="1308.5918">&#171;TestERC20&#187;</text><text fill="#000000" font-family="sans-serif" font-size="14" lengthAdjust="spacing" textLength="92" x="509" y="1325.0801">0x5fbd..0aa3</text><rect fill="#E2E2F0" height="46.9766" rx="2.5" ry="2.5" style="stroke:#181818;stroke-width:0.5;" width="107" x="618" y="71"/><text fill="#000000" font-family="sans-serif" font-size="14" font-style="italic" lengthAdjust="spacing" textLength="88" x="627.5" y="91.5352">&#171;TestERC20&#187;</text><text fill="#000000" font-family="sans-serif" font-size="14" lengthAdjust="spacing" textLength="93" x="625" y="108.0234">0xe7f1..0512</text><rect fill="#E2E2F0" height="46.9766" rx="2.5" ry="2.5" style="stroke:#181818;stroke-width:0.5;" width="107" x="618" y="1288.0566"/><text fill="#000000" font-family="sans-serif" font-size="14" font-style="italic" lengthAdjust="spacing" textLength="88" x="627.5" y="1308.5918">&#171;TestERC20&#187;</text><text fill="#000000" font-family="sans-serif" font-size="14" lengthAdjust="spacing" textLength="93" x="625" y="1325.0801">0xe7f1..0512</text><rect fill="#FFFFFF" height="1074.8379" style="stroke:#181818;stroke-width:1.0;" width="10" x="167.5" y="196.2188"/><rect fill="#FFFFFF" height="896.3535" style="stroke:#181818;stroke-width:1.0;" width="10" x="172.5" y="285.4609"/><rect fill="#FFFFFF" height="985.5957" style="stroke:#181818;stroke-width:1.0;" width="10" x="298" y="240.8398"/><rect fill="#FFFFFF" height="299.6582" style="stroke:#181818;stroke-width:1.0;" width="10" x="303" y="345.3926"/><rect fill="#FFFFFF" height="133.8633" style="stroke:#181818;stroke-width:1.0;" width="10" x="303" y="809.5352"/><rect fill="#FFFFFF" height="118.5527" style="stroke:#181818;stroke-width:1.0;" width="10" x="303" y="1018.6406"/><rect fill="#FFFFFF" height="44.6211" style="stroke:#181818;stroke-width:1.0;" width="10" x="427" y="420.6348"/><rect fill="#FFFFFF" height="44.6211" style="stroke:#181818;stroke-width:1.0;" width="10" x="427" y="555.8086"/><rect fill="#FFFFFF" height="44.6211" style="stroke:#181818;stroke-width:1.0;" width="10" x="550" y="720.293"/><rect fill="#FFFFFF" height="44.6211" style="stroke:#181818;stroke-width:1.0;" width="10" x="550" y="854.1563"/><rect fill="#FFFFFF" height="44.6211" style="stroke:#181818;stroke-width:1.0;" width="10" x="666.5" y="1078.5723"/><polygon fill="#181818" points="155.5,192.2188,165.5,196.2188,155.5,200.2188,159.5,196.2188" style="stroke:#181818;stroke-width:1.0;"/><line style="stroke:#181818;stroke-width:1.0;" x1="53" x2="161.5" y1="196.2188" y2="196.2188"/><text fill="#000000" font-family="sans-serif" font-size="13" lengthAdjust="spacing" textLength="36" x="60" y="145.5449">swap(</text><text fill="#000000" font-family="sans-serif" font-size="13" lengthAdjust="spacing" textLength="26" x="60" y="160.8555">key,</text><text fill="#000000" font-family="sans-serif" font-size="13" lengthAdjust="spacing" textLength="50" x="60" y="176.166">params,</text><text fill="#000000" font-family="sans-serif" font-size="13" lengthAdjust="spacing" textLength="79" x="60" y="191.4766">testSettings)</text><polygon fill="#181818" points="286,236.8398,296,240.8398,286,244.8398,290,240.8398" style="stroke:#181818;stroke-width:1.0;"/><line style="stroke:#181818;stroke-width:1.0;" x1="177.5" x2="292" y1="240.8398" y2="240.8398"/><text fill="#000000" font-family="sans-serif" font-size="13" lengthAdjust="spacing" textLength="31" x="184.5" y="220.7871">lock(</text><text fill="#000000" font-family="sans-serif" font-size="13" lengthAdjust="spacing" textLength="31" x="184.5" y="236.0977">data)</text><polygon fill="#181818" points="193.5,281.4609,183.5,285.4609,193.5,289.4609,189.5,285.4609" style="stroke:#181818;stroke-width:1.0;"/><line style="stroke:#181818;stroke-width:1.0;" x1="187.5" x2="297" y1="285.4609" y2="285.4609"/><text fill="#000000" font-family="sans-serif" font-size="13" lengthAdjust="spacing" textLength="87" x="199.5" y="265.4082">lockAcquired(</text><text fill="#000000" font-family="sans-serif" font-size="13" lengthAdjust="spacing" textLength="55" x="199.5" y="280.7188">rawData)</text><polygon fill="#181818" points="291,341.3926,301,345.3926,291,349.3926,295,345.3926" style="stroke:#181818;stroke-width:1.0;"/><line style="stroke:#181818;stroke-width:1.0;" x1="182.5" x2="297" y1="345.3926" y2="345.3926"/><text fill="#000000" font-family="sans-serif" font-size="13" lengthAdjust="spacing" textLength="36" x="189.5" y="310.0293">swap(</text><text fill="#000000" font-family="sans-serif" font-size="13" lengthAdjust="spacing" textLength="26" x="189.5" y="325.3398">key,</text><text fill="#000000" font-family="sans-serif" font-size="13" lengthAdjust="spacing" textLength="50" x="189.5" y="340.6504">params)</text><polygon fill="#181818" points="415,416.6348,425,420.6348,415,424.6348,419,420.6348" style="stroke:#181818;stroke-width:1.0;"/><line style="stroke:#181818;stroke-width:1.0;" x1="313" x2="421" y1="420.6348" y2="420.6348"/><text fill="#000000" font-family="sans-serif" font-size="13" lengthAdjust="spacing" textLength="76" x="320" y="369.9609">beforeSwap(</text><text fill="#000000" font-family="sans-serif" font-size="13" lengthAdjust="spacing" textLength="46" x="320" y="385.2715">sender,</text><text fill="#000000" font-family="sans-serif" font-size="13" lengthAdjust="spacing" textLength="26" x="320" y="400.582">key,</text><text fill="#000000" font-family="sans-serif" font-size="13" lengthAdjust="spacing" textLength="50" x="320" y="415.8926">params)</text><polygon fill="#181818" points="324,461.2559,314,465.2559,324,469.2559,320,465.2559" style="stroke:#181818;stroke-width:1.0;"/><line style="stroke:#181818;stroke-width:1.0;stroke-dasharray:2.0,2.0;" x1="318" x2="431" y1="465.2559" y2="465.2559"/><text fill="#000000" font-family="sans-serif" font-size="13" lengthAdjust="spacing" textLength="4" x="330" y="445.2031">&#160;</text><text fill="#000000" font-family="sans-serif" font-size="13" lengthAdjust="spacing" textLength="50" x="330" y="460.5137">selector</text><polygon fill="#181818" points="415,551.8086,425,555.8086,415,559.8086,419,555.8086" style="stroke:#181818;stroke-width:1.0;"/><line style="stroke:#181818;stroke-width:1.0;" x1="313" x2="421" y1="555.8086" y2="555.8086"/><text fill="#000000" font-family="sans-serif" font-size="13" lengthAdjust="spacing" textLength="65" x="320" y="489.8242">afterSwap(</text><text fill="#000000" font-family="sans-serif" font-size="13" lengthAdjust="spacing" textLength="46" x="320" y="505.1348">sender,</text><text fill="#000000" font-family="sans-serif" font-size="13" lengthAdjust="spacing" textLength="26" x="320" y="520.4453">key,</text><text fill="#000000" font-family="sans-serif" font-size="13" lengthAdjust="spacing" textLength="50" x="320" y="535.7559">params,</text><text fill="#000000" font-family="sans-serif" font-size="13" lengthAdjust="spacing" textLength="35" x="320" y="551.0664">delta)</text><polygon fill="#181818" points="324,596.4297,314,600.4297,324,604.4297,320,600.4297" style="stroke:#181818;stroke-width:1.0;"/><line style="stroke:#181818;stroke-width:1.0;stroke-dasharray:2.0,2.0;" x1="318" x2="431" y1="600.4297" y2="600.4297"/><text fill="#000000" font-family="sans-serif" font-size="13" lengthAdjust="spacing" textLength="4" x="330" y="580.377">&#160;</text><text fill="#000000" font-family="sans-serif" font-size="13" lengthAdjust="spacing" textLength="50" x="330" y="595.6875">selector</text><polygon fill="#181818" points="193.5,641.0508,183.5,645.0508,193.5,649.0508,189.5,645.0508" style="stroke:#181818;stroke-width:1.0;"/><line style="stroke:#181818;stroke-width:1.0;stroke-dasharray:2.0,2.0;" x1="187.5" x2="297" y1="645.0508" y2="645.0508"/><text fill="#000000" font-family="sans-serif" font-size="13" lengthAdjust="spacing" textLength="4" x="199.5" y="624.998">&#160;</text><text fill="#000000" font-family="sans-serif" font-size="13" lengthAdjust="spacing" textLength="31" x="199.5" y="640.3086">delta</text><polygon fill="#181818" points="538,716.293,548,720.293,538,724.293,542,720.293" style="stroke:#181818;stroke-width:1.0;"/><line style="stroke:#181818;stroke-width:1.0;" x1="182.5" x2="544" y1="720.293" y2="720.293"/><text fill="#000000" font-family="sans-serif" font-size="13" lengthAdjust="spacing" textLength="85" x="189.5" y="669.6191">transferFrom(</text><text fill="#000000" font-family="sans-serif" font-size="13" lengthAdjust="spacing" textLength="46" x="189.5" y="684.9297">sender,</text><text fill="#000000" font-family="sans-serif" font-size="13" lengthAdjust="spacing" textLength="59" x="189.5" y="700.2402">recipient,</text><text fill="#000000" font-family="sans-serif" font-size="13" lengthAdjust="spacing" textLength="52" x="189.5" y="715.5508">amount)</text><polygon fill="#181818" points="193.5,760.9141,183.5,764.9141,193.5,768.9141,189.5,764.9141" style="stroke:#181818;stroke-width:1.0;"/><line style="stroke:#181818;stroke-width:1.0;stroke-dasharray:2.0,2.0;" x1="187.5" x2="554" y1="764.9141" y2="764.9141"/><text fill="#000000" font-family="sans-serif" font-size="13" lengthAdjust="spacing" textLength="4" x="199.5" y="744.8613">&#160;</text><text fill="#000000" font-family="sans-serif" font-size="13" lengthAdjust="spacing" textLength="5" x="199.5" y="760.1719">?</text><polygon fill="#181818" points="291,805.5352,301,809.5352,291,813.5352,295,809.5352" style="stroke:#181818;stroke-width:1.0;"/><line style="stroke:#181818;stroke-width:1.0;" x1="182.5" x2="297" y1="809.5352" y2="809.5352"/><text fill="#000000" font-family="sans-serif" font-size="13" lengthAdjust="spacing" textLength="39" x="189.5" y="789.4824">settle(</text><text fill="#000000" font-family="sans-serif" font-size="13" lengthAdjust="spacing" textLength="58" x="189.5" y="804.793">currency)</text><polygon fill="#181818" points="538,850.1563,548,854.1563,538,858.1563,542,854.1563" style="stroke:#181818;stroke-width:1.0;"/><line style="stroke:#181818;stroke-width:1.0;" x1="313" x2="544" y1="854.1563" y2="854.1563"/><text fill="#000000" font-family="sans-serif" font-size="13" lengthAdjust="spacing" textLength="67" x="320" y="834.1035">balanceOf(</text><text fill="#000000" font-family="sans-serif" font-size="13" lengthAdjust="spacing" textLength="9" x="320" y="849.4141">?)</text><polygon fill="#181818" points="324,894.7773,314,898.7773,324,902.7773,320,898.7773" style="stroke:#181818;stroke-width:1.0;"/><line style="stroke:#181818;stroke-width:1.0;stroke-dasharray:2.0,2.0;" x1="318" x2="554" y1="898.7773" y2="898.7773"/><text fill="#000000" font-family="sans-serif" font-size="13" lengthAdjust="spacing" textLength="4" x="330" y="878.7246">&#160;</text><text fill="#000000" font-family="sans-serif" font-size="13" lengthAdjust="spacing" textLength="5" x="330" y="894.0352">?</text><polygon fill="#181818" points="193.5,939.3984,183.5,943.3984,193.5,947.3984,189.5,943.3984" style="stroke:#181818;stroke-width:1.0;"/><line style="stroke:#181818;stroke-width:1.0;stroke-dasharray:2.0,2.0;" x1="187.5" x2="297" y1="943.3984" y2="943.3984"/><text fill="#000000" font-family="sans-serif" font-size="13" lengthAdjust="spacing" textLength="4" x="199.5" y="923.3457">&#160;</text><text fill="#000000" font-family="sans-serif" font-size="13" lengthAdjust="spacing" textLength="27" x="199.5" y="938.6563">paid</text><polygon fill="#181818" points="291,1014.6406,301,1018.6406,291,1022.6406,295,1018.6406" style="stroke:#181818;stroke-width:1.0;"/><line style="stroke:#181818;stroke-width:1.0;" x1="182.5" x2="297" y1="1018.6406" y2="1018.6406"/><text fill="#000000" font-family="sans-serif" font-size="13" lengthAdjust="spacing" textLength="31" x="189.5" y="967.9668">take(</text><text fill="#000000" font-family="sans-serif" font-size="13" lengthAdjust="spacing" textLength="58" x="189.5" y="983.2773">currency,</text><text fill="#000000" font-family="sans-serif" font-size="13" lengthAdjust="spacing" textLength="17" x="189.5" y="998.5879">to,</text><text fill="#000000" font-family="sans-serif" font-size="13" lengthAdjust="spacing" textLength="52" x="189.5" y="1013.8984">amount)</text><polygon fill="#181818" points="654.5,1074.5723,664.5,1078.5723,654.5,1082.5723,658.5,1078.5723" style="stroke:#181818;stroke-width:1.0;"/><line style="stroke:#181818;stroke-width:1.0;" x1="313" x2="660.5" y1="1078.5723" y2="1078.5723"/><text fill="#000000" font-family="sans-serif" font-size="13" lengthAdjust="spacing" textLength="53" x="320" y="1043.209">transfer(</text><text fill="#000000" font-family="sans-serif" font-size="13" lengthAdjust="spacing" textLength="59" x="320" y="1058.5195">recipient,</text><text fill="#000000" font-family="sans-serif" font-size="13" lengthAdjust="spacing" textLength="52" x="320" y="1073.8301">amount)</text><polygon fill="#181818" points="324,1119.1934,314,1123.1934,324,1127.1934,320,1123.1934" style="stroke:#181818;stroke-width:1.0;"/><line style="stroke:#181818;stroke-width:1.0;stroke-dasharray:2.0,2.0;" x1="318" x2="670.5" y1="1123.1934" y2="1123.1934"/><text fill="#000000" font-family="sans-serif" font-size="13" lengthAdjust="spacing" textLength="4" x="330" y="1103.1406">&#160;</text><text fill="#000000" font-family="sans-serif" font-size="13" lengthAdjust="spacing" textLength="5" x="330" y="1118.4512">?</text><polygon fill="#181818" points="193.5,1133.1934,183.5,1137.1934,193.5,1141.1934,189.5,1137.1934" style="stroke:#181818;stroke-width:1.0;"/><line style="stroke:#181818;stroke-width:1.0;stroke-dasharray:2.0,2.0;" x1="187.5" x2="297" y1="1137.1934" y2="1137.1934"/><polygon fill="#181818" points="286,1177.8145,296,1181.8145,286,1185.8145,290,1181.8145" style="stroke:#181818;stroke-width:1.0;"/><line style="stroke:#181818;stroke-width:1.0;stroke-dasharray:2.0,2.0;" x1="177.5" x2="292" y1="1181.8145" y2="1181.8145"/><text fill="#000000" font-family="sans-serif" font-size="13" lengthAdjust="spacing" textLength="4" x="184.5" y="1161.7617">&#160;</text><text fill="#000000" font-family="sans-serif" font-size="13" lengthAdjust="spacing" textLength="5" x="184.5" y="1177.0723">?</text><polygon fill="#181818" points="188.5,1222.4355,178.5,1226.4355,188.5,1230.4355,184.5,1226.4355" style="stroke:#181818;stroke-width:1.0;"/><line style="stroke:#181818;stroke-width:1.0;stroke-dasharray:2.0,2.0;" x1="182.5" x2="302" y1="1226.4355" y2="1226.4355"/><text fill="#000000" font-family="sans-serif" font-size="13" lengthAdjust="spacing" textLength="4" x="194.5" y="1206.3828">&#160;</text><text fill="#000000" font-family="sans-serif" font-size="13" lengthAdjust="spacing" textLength="36" x="194.5" y="1221.6934">result</text><polygon fill="#181818" points="64,1267.0566,54,1271.0566,64,1275.0566,60,1271.0566" style="stroke:#181818;stroke-width:1.0;"/><line style="stroke:#181818;stroke-width:1.0;stroke-dasharray:2.0,2.0;" x1="58" x2="171.5" y1="1271.0566" y2="1271.0566"/><text fill="#000000" font-family="sans-serif" font-size="13" lengthAdjust="spacing" textLength="4" x="70" y="1251.0039">&#160;</text><text fill="#000000" font-family="sans-serif" font-size="13" lengthAdjust="spacing" textLength="31" x="70" y="1266.3145">delta</text><!--SRC=[XPF9Rjim48RlUWeYfnHm1Mfr90GEWdIx62tg77CPaaD3i4ow5DKaRz-XKobUuzly5BzPVevyurja_EL6w5H9aSEqm6cYbO8goIgDlCWg0Mag9CLq8KimJugYkgccOeefLtdE1OeaYYHiV6CDMqDZ3Fe94wsLArPEsDoQ2KiJTjylMShJZF6yBdXD9z_dZn58RnsxuY-QwiLncfRb5OEE1Ha4YpRWV2ER3HWVxYbPvd6iIrbjxmKP1Bkz_MLjktY6pIDsVZOxv6WQug14lkM23E8_DmS3ItJ7M2P56SS88jjYGGP1s8FjZKVtmzhLCLPeeUAO0xnXGGP1MEZkw- -7b1z3EDK9GKMIRg4WWpY0ej6QpxDn_9frDFdrardXw-J9K69OTnHu0XVeVMEMtQTWTlCNF8vODDf7kGPBQXQUZd8fyB033T-ZqRkz1W9qB__qZKD5i8FdB_lyXQ8d1hXKV7YDcWdKrk7YBKM7Hg6RdCqrO953tpiJW1R37fv93fhU-QFS52XizuOzNsCus19xNWnRKZFlm7GQtJTdrxj57TAsD6WynR0E2xXJSi372dVddAQ5Q97oojuvDFBrai_lZGbemKZygOc- -xZs46sWKMSQyR3QRIFigpqrsSccXj_ZtQth2mODn56J9xfssFMjFtYiVm00]--></g></svg>