<?xml version="1.0" encoding="us-ascii" standalone="no"?><svg xmlns="http://www.w3.org/2000/svg" xmlns:xlink="http://www.w3.org/1999/xlink" contentStyleType="text/css" height="867px" preserveAspectRatio="none" style="width:649px;height:867px;background:#FFFFFF;" version="1.1" viewBox="0 0 649 867" width="649px" zoomAndPan="magnify"><defs/><g><rect fill="#FFFFFF" height="87.9316" style="stroke:#181818;stroke-width:1.0;" width="10" x="262" y="167.7305"/><rect fill="#FFFFFF" height="14" style="stroke:#181818;stroke-width:1.0;" width="10" x="399" y="197.041"/><rect fill="#FFFFFF" height="44.6211" style="stroke:#181818;stroke-width:1.0;" width="10" x="528" y="550.6309"/><rect fill="none" height="292.3477" style="stroke:#000000;stroke-width:1.5;" width="633" x="10" y="98.4883"/><rect fill="none" height="325.5898" style="stroke:#000000;stroke-width:1.5;" width="633" x="10" y="404.8359"/><line style="stroke:#181818;stroke-width:0.5;stroke-dasharray:5.0,5.0;" x1="68" x2="68" y1="81.4883" y2="747.4258"/><line style="stroke:#181818;stroke-width:0.5;stroke-dasharray:5.0,5.0;" x1="267" x2="267" y1="81.4883" y2="747.4258"/><line style="stroke:#181818;stroke-width:0.5;stroke-dasharray:5.0,5.0;" x1="404" x2="404" y1="81.4883" y2="747.4258"/><line style="stroke:#181818;stroke-width:0.5;stroke-dasharray:5.0,5.0;" x1="533" x2="533" y1="81.4883" y2="747.4258"/><text fill="#000000" font-family="sans-serif" font-size="14" lengthAdjust="spacing" textLength="90" x="20" y="78.5352">0xf39f..2266</text><ellipse cx="68" cy="13.5" fill="#E2E2F0" rx="8" ry="8" style="stroke:#181818;stroke-width:0.5;"/><path d="M68,21.5 L68,48.5 M55,29.5 L81,29.5 M68,48.5 L55,63.5 M68,48.5 L81,63.5 " fill="none" style="stroke:#181818;stroke-width:0.5;"/><text fill="#000000" font-family="sans-serif" font-size="14" lengthAdjust="spacing" textLength="90" x="20" y="759.9609">0xf39f..2266</text><ellipse cx="68" cy="771.4141" fill="#E2E2F0" rx="8" ry="8" style="stroke:#181818;stroke-width:0.5;"/><path d="M68,779.4141 L68,806.4141 M55,787.4141 L81,787.4141 M68,806.4141 L55,821.4141 M68,806.4141 L81,821.4141 " fill="none" style="stroke:#181818;stroke-width:0.5;"/><rect fill="#E2E2F0" height="46.9766" rx="2.5" ry="2.5" style="stroke:#181818;stroke-width:0.5;" width="134" x="200" y="33.5117"/><text fill="#000000" font-family="sans-serif" font-size="14" font-style="italic" lengthAdjust="spacing" textLength="120" x="207" y="54.0469">&#171;CounterFactory&#187;</text><text fill="#000000" font-family="sans-serif" font-size="14" lengthAdjust="spacing" textLength="98" x="218" y="70.5352">0x6101..d788</text><rect fill="#E2E2F0" height="46.9766" rx="2.5" ry="2.5" style="stroke:#181818;stroke-width:0.5;" width="134" x="200" y="746.4258"/><text fill="#000000" font-family="sans-serif" font-size="14" font-style="italic" lengthAdjust="spacing" textLength="120" x="207" y="766.9609">&#171;CounterFactory&#187;</text><text fill="#000000" font-family="sans-serif" font-size="14" lengthAdjust="spacing" textLength="98" x="218" y="783.4492">0x6101..d788</text><rect fill="#E2E2F0" height="46.9766" rx="2.5" ry="2.5" style="stroke:#181818;stroke-width:0.5;" width="120" x="344" y="33.5117"/><text fill="#000000" font-family="sans-serif" font-size="14" font-style="italic" lengthAdjust="spacing" textLength="106" x="351" y="54.0469">&#171;CounterHook&#187;</text><text fill="#000000" font-family="sans-serif" font-size="14" lengthAdjust="spacing" textLength="94" x="357" y="70.5352">0x3cb6..eab3</text><rect fill="#E2E2F0" height="46.9766" rx="2.5" ry="2.5" style="stroke:#181818;stroke-width:0.5;" width="120" x="344" y="746.4258"/><text fill="#000000" font-family="sans-serif" font-size="14" font-style="italic" lengthAdjust="spacing" textLength="106" x="351" y="766.9609">&#171;CounterHook&#187;</text><text fill="#000000" font-family="sans-serif" font-size="14" lengthAdjust="spacing" textLength="94" x="357" y="783.4492">0x3cb6..eab3</text><rect fill="#E2E2F0" height="46.9766" rx="2.5" ry="2.5" style="stroke:#181818;stroke-width:0.5;" width="118" x="474" y="33.5117"/><text fill="#000000" font-family="sans-serif" font-size="14" font-style="italic" lengthAdjust="spacing" textLength="104" x="481" y="54.0469">&#171;PoolManager&#187;</text><text fill="#000000" font-family="sans-serif" font-size="14" lengthAdjust="spacing" textLength="91" x="487.5" y="70.5352">0x9fe4..a6e0</text><rect fill="#E2E2F0" height="46.9766" rx="2.5" ry="2.5" style="stroke:#181818;stroke-width:0.5;" width="118" x="474" y="746.4258"/><text fill="#000000" font-family="sans-serif" font-size="14" font-style="italic" lengthAdjust="spacing" textLength="104" x="481" y="766.9609">&#171;PoolManager&#187;</text><text fill="#000000" font-family="sans-serif" font-size="14" lengthAdjust="spacing" textLength="91" x="487.5" y="783.4492">0x9fe4..a6e0</text><rect fill="#FFFFFF" height="87.9316" style="stroke:#181818;stroke-width:1.0;" width="10" x="262" y="167.7305"/><rect fill="#FFFFFF" height="14" style="stroke:#181818;stroke-width:1.0;" width="10" x="399" y="197.041"/><rect fill="#FFFFFF" height="44.6211" style="stroke:#181818;stroke-width:1.0;" width="10" x="528" y="550.6309"/><path d="M10,98.4883 L606,98.4883 L606,105.7988 L596,115.7988 L10,115.7988 L10,98.4883 " fill="#EEEEEE" style="stroke:#000000;stroke-width:1.5;"/><rect fill="none" height="292.3477" style="stroke:#000000;stroke-width:1.5;" width="633" x="10" y="98.4883"/><text fill="#000000" font-family="sans-serif" font-size="13" font-weight="bold" lengthAdjust="spacing" textLength="551" x="25" y="112.0566">0xaf292eedd8b6188bd7fa91efccfe337b820d2526f34966853baf03dc58e97fbd</text><polygon fill="#181818" points="250,163.7305,260,167.7305,250,171.7305,254,167.7305" style="stroke:#181818;stroke-width:1.0;"/><line style="stroke:#181818;stroke-width:1.0;" x1="68" x2="256" y1="167.7305" y2="167.7305"/><text fill="#000000" font-family="sans-serif" font-size="13" lengthAdjust="spacing" textLength="79" x="75" y="132.3672">mineDeploy(</text><text fill="#000000" font-family="sans-serif" font-size="13" lengthAdjust="spacing" textLength="175" x="75" y="147.6777">poolManager: 0x9fE4..a6e0,</text><text fill="#000000" font-family="sans-serif" font-size="13" lengthAdjust="spacing" textLength="88" x="75" y="162.9883">startSalt: 385)</text><ellipse cx="398.5" cy="196.291" fill="none" rx="4" ry="4" style="stroke:#181818;stroke-width:1.5;"/><polygon fill="#181818" points="381.5,193.041,391.5,197.041,381.5,201.041,385.5,197.041" style="stroke:#181818;stroke-width:1.0;"/><line style="stroke:#181818;stroke-width:1.0;" x1="272" x2="387.5" y1="197.041" y2="197.041"/><text fill="#000000" font-family="sans-serif" font-size="13" lengthAdjust="spacing" textLength="81" x="279" y="192.2988">constructor()</text><ellipse cx="271.5" cy="210.291" fill="none" rx="4" ry="4" style="stroke:#181818;stroke-width:1.5;"/><polygon fill="#181818" points="288.5,207.041,278.5,211.041,288.5,215.041,284.5,211.041" style="stroke:#181818;stroke-width:1.0;"/><line style="stroke:#181818;stroke-width:1.0;stroke-dasharray:2.0,2.0;" x1="286.5" x2="403" y1="211.041" y2="211.041"/><polygon fill="#181818" points="79,251.6621,69,255.6621,79,259.6621,75,255.6621" style="stroke:#181818;stroke-width:1.0;"/><line style="stroke:#181818;stroke-width:1.0;stroke-dasharray:2.0,2.0;" x1="73" x2="266" y1="255.6621" y2="255.6621"/><text fill="#000000" font-family="sans-serif" font-size="13" lengthAdjust="spacing" textLength="4" x="85" y="235.6094">&#160;</text><text fill="#000000" font-family="sans-serif" font-size="13" lengthAdjust="spacing" textLength="87" x="85" y="250.9199">0x3Cb6..eab3</text><path d="M432,268.6621 L432,385.6621 L633,385.6621 L633,278.6621 L623,268.6621 L432,268.6621 " fill="#00FFFF" style="stroke:#181818;stroke-width:0.5;"/><path d="M623,268.6621 L623,278.6621 L633,278.6621 L623,268.6621 " fill="#00FFFF" style="stroke:#181818;stroke-width:0.5;"/><text fill="#000000" font-family="sans-serif" font-size="13" lengthAdjust="spacing" textLength="58" x="438" y="286.2305">Initialize:</text><text fill="#000000" font-family="sans-serif" font-size="13" lengthAdjust="spacing" textLength="172" x="446" y="301.541">id: 0x7dc68f5b..d6b12048,</text><text fill="#000000" font-family="sans-serif" font-size="13" lengthAdjust="spacing" textLength="161" x="446" y="316.8516">currency0: 0x5FbD..0aa3,</text><text fill="#000000" font-family="sans-serif" font-size="13" lengthAdjust="spacing" textLength="158" x="446" y="332.1621">currency1: 0xe7f1..0512,</text><text fill="#000000" font-family="sans-serif" font-size="13" lengthAdjust="spacing" textLength="67" x="446" y="347.4727">fee: 3,000,</text><text fill="#000000" font-family="sans-serif" font-size="13" lengthAdjust="spacing" textLength="101" x="446" y="362.7832">tickSpacing: 60,</text><text fill="#000000" font-family="sans-serif" font-size="13" lengthAdjust="spacing" textLength="134" x="446" y="378.0938">hooks: 0x3Cb6..eab3</text><path d="M10,404.8359 L601,404.8359 L601,412.1465 L591,422.1465 L10,422.1465 L10,404.8359 " fill="#EEEEEE" style="stroke:#000000;stroke-width:1.5;"/><rect fill="none" height="325.5898" style="stroke:#000000;stroke-width:1.5;" width="633" x="10" y="404.8359"/><text fill="#000000" font-family="sans-serif" font-size="13" font-weight="bold" lengthAdjust="spacing" textLength="546" x="25" y="418.4043">0x48c4082ffe451e41c9cbaeb0ff77867e498af1a94175e1fcf5115538783535ca</text><polygon fill="#181818" points="516,546.6309,526,550.6309,516,554.6309,520,550.6309" style="stroke:#181818;stroke-width:1.0;"/><line style="stroke:#181818;stroke-width:1.0;" x1="68" x2="522" y1="550.6309" y2="550.6309"/><text fill="#000000" font-family="sans-serif" font-size="13" lengthAdjust="spacing" textLength="58" x="75" y="438.7148">initialize(</text><text fill="#000000" font-family="sans-serif" font-size="13" lengthAdjust="spacing" textLength="34" x="75" y="454.0254">key: [</text><text fill="#000000" font-family="sans-serif" font-size="13" lengthAdjust="spacing" textLength="161" x="83" y="469.3359">currency0: 0x5FbD..0aa3,</text><text fill="#000000" font-family="sans-serif" font-size="13" lengthAdjust="spacing" textLength="158" x="83" y="484.6465">currency1: 0xe7f1..0512,</text><text fill="#000000" font-family="sans-serif" font-size="13" lengthAdjust="spacing" textLength="67" x="83" y="499.957">fee: 3,000,</text><text fill="#000000" font-family="sans-serif" font-size="13" lengthAdjust="spacing" textLength="101" x="83" y="515.2676">tickSpacing: 60,</text><text fill="#000000" font-family="sans-serif" font-size="13" lengthAdjust="spacing" textLength="142" x="83" y="530.5781">hooks: 0x3Cb6..eab3],</text><text fill="#000000" font-family="sans-serif" font-size="13" lengthAdjust="spacing" textLength="363" x="75" y="545.8887">sqrtPriceX96: 79,228,162,514,,264,337,593,543,950,336)</text><polygon fill="#181818" points="79,591.252,69,595.252,79,599.252,75,595.252" style="stroke:#181818;stroke-width:1.0;"/><line style="stroke:#181818;stroke-width:1.0;stroke-dasharray:2.0,2.0;" x1="73" x2="532" y1="595.252" y2="595.252"/><text fill="#000000" font-family="sans-serif" font-size="13" lengthAdjust="spacing" textLength="4" x="85" y="575.1992">&#160;</text><text fill="#000000" font-family="sans-serif" font-size="13" lengthAdjust="spacing" textLength="28" x="85" y="590.5098">tick:</text><path d="M432,608.252 L432,725.252 L633,725.252 L633,618.252 L623,608.252 L432,608.252 " fill="#00FFFF" style="stroke:#181818;stroke-width:0.5;"/><path d="M623,608.252 L623,618.252 L633,618.252 L623,608.252 " fill="#00FFFF" style="stroke:#181818;stroke-width:0.5;"/><text fill="#000000" font-family="sans-serif" font-size="13" lengthAdjust="spacing" textLength="58" x="438" y="625.8203">Initialize:</text><text fill="#000000" font-family="sans-serif" font-size="13" lengthAdjust="spacing" textLength="172" x="446" y="641.1309">id: 0x7dc68f5b..d6b12048,</text><text fill="#000000" font-family="sans-serif" font-size="13" lengthAdjust="spacing" textLength="161" x="446" y="656.4414">currency0: 0x5FbD..0aa3,</text><text fill="#000000" font-family="sans-serif" font-size="13" lengthAdjust="spacing" textLength="158" x="446" y="671.752">currency1: 0xe7f1..0512,</text><text fill="#000000" font-family="sans-serif" font-size="13" lengthAdjust="spacing" textLength="67" x="446" y="687.0625">fee: 3,000,</text><text fill="#000000" font-family="sans-serif" font-size="13" lengthAdjust="spacing" textLength="101" x="446" y="702.373">tickSpacing: 60,</text><text fill="#000000" font-family="sans-serif" font-size="13" lengthAdjust="spacing" textLength="134" x="446" y="717.6836">hooks: 0x3Cb6..eab3</text><text fill="#888888" font-family="sans-serif" font-size="10" lengthAdjust="spacing" textLength="245" x="203.5" y="833.582">mainnet, block 4, Wed, 23 Aug 2023 06:02:40 GMT</text><text fill="#888888" font-family="sans-serif" font-size="10" lengthAdjust="spacing" textLength="245" x="203.5" y="845.3594">mainnet, block 4, Wed, 23 Aug 2023 06:02:40 GMT</text><text fill="#888888" font-family="sans-serif" font-size="10" lengthAdjust="spacing" textLength="3" x="324.5" y="857.1367">&#160;</text><!--SRC=[rL9TRzCm57tFhx36ov2yo1-nOqTJ9RGnu67If261H7cmdUiIjRExD9bMVZrsMTDIu857dfBZUuzzppdNnpX0NpoOBWGOCBAhw9QemkWJj1WnZjwC2yH8-Y6o8Qof27ft-_6V-mi8hV_vb753xD4PUVPS-x9aJCepP3OemmnGiJRzqBbkRSAG-oGbj2pRMgbTNuOPeClBgpY6TENDxihjR7RAvCxAiWHZ-OwPOGO7vliObx_Jj8UgB8q4igDbc46YtSMukZN1BA1Fj6BHnt6DoBFnJ3E0jbLMKgLiMtkZANZdF71UMyL8omIJdbTQIYMuDPxmrWa5klQsBIRj5xD9NuCUkW3Ni5x5xVayh0zFDoZF-FPbHZmFco49k3UheK5SYTVPukx9333TLKocNSpYv4E3N4pSVipsdH_HzWr53yFOXvVFF2H7h_QE5aL8SQBu1Ft1eLVcSJJ5Xz0DdLbrtw4f4EhQF6_TEgcyi2b8QIaZbSAfviQ-X-2s9BU86tjTbiGOVboYkGIrJoj016Mvv06IK4m8oIWbjxnV6zU5HOFaxkXRYdMJUKVZfWL4UUBTAax9LSfLH36V10WA5NNQMGEMU5_NIjPGQMKyDRgYjG3gdHUK2i5LhRZWmfbVajlRqA1kSY0bjuHjWxxCmz_b7jTEzURQaU0CJnNdipz8_fetux4VxlhEmMSj6rHhp9Z2L38iQ8KnanLE-uc5vbXK76j14fP7cx2NDAr0Vhj1_tNuFm00]--></g></svg>