<?xml version="1.0" encoding="UTF-8" standalone="no"?><svg xmlns="http://www.w3.org/2000/svg" xmlns:xlink="http://www.w3.org/1999/xlink" contentStyleType="text/css" height="2619px" preserveAspectRatio="none" style="width:1826px;height:2619px;background:#FFFFFF;" version="1.1" viewBox="0 0 1826 2619" width="1826px" zoomAndPan="magnify"><defs/><g><text fill="#000000" font-family="sans-serif" font-size="14" font-weight="bold" lengthAdjust="spacing" textLength="557" x="633" y="28.5352">0xdf85e1e3bc524858d3fdf7288efc8d5f5cdb68ea442d5e3c5a3c562c04a20a57</text><text fill="#000000" font-family="sans-serif" font-size="14" lengthAdjust="spacing" textLength="347" x="738" y="2607.1289">mainnet, block 5, Sun, 20 Aug 2023 09:38:13 GMT</text><rect fill="#FFFFFF" height="1797.8809" style="stroke:#181818;stroke-width:1.0;" width="10" x="554" y="491.8086"/><rect fill="#FFFFFF" height="1538.1543" style="stroke:#181818;stroke-width:1.0;" width="10" x="559" y="611.6719"/><rect fill="#FFFFFF" height="1642.707" style="stroke:#181818;stroke-width:1.0;" width="10" x="1016" y="551.7402"/><rect fill="#FFFFFF" height="575.248" style="stroke:#181818;stroke-width:1.0;" width="10" x="1021" y="809.3984"/><rect fill="#FFFFFF" height="149.1738" style="stroke:#181818;stroke-width:1.0;" width="10" x="1021" y="1630.373"/><rect fill="#FFFFFF" height="133.8633" style="stroke:#181818;stroke-width:1.0;" width="10" x="1021" y="1920.7207"/><rect fill="#FFFFFF" height="44.6211" style="stroke:#181818;stroke-width:1.0;" width="10" x="1438" y="1022.4355"/><rect fill="#FFFFFF" height="44.6211" style="stroke:#181818;stroke-width:1.0;" width="10" x="1438" y="1295.4043"/><rect fill="#FFFFFF" height="44.6211" style="stroke:#181818;stroke-width:1.0;" width="10" x="1573.5" y="1525.8203"/><rect fill="#FFFFFF" height="44.6211" style="stroke:#181818;stroke-width:1.0;" width="10" x="1573.5" y="1690.3047"/><rect fill="#FFFFFF" height="44.6211" style="stroke:#181818;stroke-width:1.0;" width="10" x="1737.5" y="1995.9629"/><line style="stroke:#181818;stroke-width:0.5;stroke-dasharray:5.0,5.0;" x1="107" x2="107" y1="118.9766" y2="2516.1055"/><line style="stroke:#181818;stroke-width:0.5;stroke-dasharray:5.0,5.0;" x1="558.5" x2="558.5" y1="118.9766" y2="2516.1055"/><line style="stroke:#181818;stroke-width:0.5;stroke-dasharray:5.0,5.0;" x1="1021" x2="1021" y1="118.9766" y2="2516.1055"/><line style="stroke:#181818;stroke-width:0.5;stroke-dasharray:5.0,5.0;" x1="1443" x2="1443" y1="118.9766" y2="2516.1055"/><line style="stroke:#181818;stroke-width:0.5;stroke-dasharray:5.0,5.0;" x1="1578.5" x2="1578.5" y1="118.9766" y2="2516.1055"/><line style="stroke:#181818;stroke-width:0.5;stroke-dasharray:5.0,5.0;" x1="1742" x2="1742" y1="118.9766" y2="2516.1055"/><text fill="#000000" font-family="sans-serif" font-size="14" lengthAdjust="spacing" textLength="90" x="59" y="116.0234">0xf39f..2266</text><ellipse cx="107" cy="50.9883" fill="#E2E2F0" rx="8" ry="8" style="stroke:#181818;stroke-width:0.5;"/><path d="M107,58.9883 L107,85.9883 M94,66.9883 L120,66.9883 M107,85.9883 L94,100.9883 M107,85.9883 L120,100.9883 " fill="none" style="stroke:#181818;stroke-width:0.5;"/><text fill="#000000" font-family="sans-serif" font-size="14" lengthAdjust="spacing" textLength="90" x="59" y="2528.6406">0xf39f..2266</text><ellipse cx="107" cy="2540.0938" fill="#E2E2F0" rx="8" ry="8" style="stroke:#181818;stroke-width:0.5;"/><path d="M107,2548.0938 L107,2575.0938 M94,2556.0938 L120,2556.0938 M107,2575.0938 L94,2590.0938 M107,2575.0938 L120,2590.0938 " fill="none" style="stroke:#181818;stroke-width:0.5;"/><rect fill="#E2E2F0" height="46.9766" rx="2.5" ry="2.5" style="stroke:#181818;stroke-width:0.5;" width="123" x="497.5" y="71"/><text fill="#000000" font-family="sans-serif" font-size="14" font-style="italic" lengthAdjust="spacing" textLength="109" x="504.5" y="91.5352">«PoolSwapTest»</text><text fill="#000000" font-family="sans-serif" font-size="14" lengthAdjust="spacing" textLength="90" x="514" y="108.0234">0xdc64..f6c9</text><rect fill="#E2E2F0" height="46.9766" rx="2.5" ry="2.5" style="stroke:#181818;stroke-width:0.5;" width="123" x="497.5" y="2515.1055"/><text fill="#000000" font-family="sans-serif" font-size="14" font-style="italic" lengthAdjust="spacing" textLength="109" x="504.5" y="2535.6406">«PoolSwapTest»</text><text fill="#000000" font-family="sans-serif" font-size="14" lengthAdjust="spacing" textLength="90" x="514" y="2552.1289">0xdc64..f6c9</text><rect fill="#E2E2F0" height="46.9766" rx="2.5" ry="2.5" style="stroke:#181818;stroke-width:0.5;" width="118" x="962" y="71"/><text fill="#000000" font-family="sans-serif" font-size="14" font-style="italic" lengthAdjust="spacing" textLength="104" x="969" y="91.5352">«PoolManager»</text><text fill="#000000" font-family="sans-serif" font-size="14" lengthAdjust="spacing" textLength="91" x="975.5" y="108.0234">0x9fe4..a6e0</text><rect fill="#E2E2F0" height="46.9766" rx="2.5" ry="2.5" style="stroke:#181818;stroke-width:0.5;" width="118" x="962" y="2515.1055"/><text fill="#000000" font-family="sans-serif" font-size="14" font-style="italic" lengthAdjust="spacing" textLength="104" x="969" y="2535.6406">«PoolManager»</text><text fill="#000000" font-family="sans-serif" font-size="14" lengthAdjust="spacing" textLength="91" x="975.5" y="2552.1289">0x9fe4..a6e0</text><rect fill="#E2E2F0" height="46.9766" rx="2.5" ry="2.5" style="stroke:#181818;stroke-width:0.5;" width="120" x="1383" y="71"/><text fill="#000000" font-family="sans-serif" font-size="14" font-style="italic" lengthAdjust="spacing" textLength="106" x="1390" y="91.5352">«CounterHook»</text><text fill="#000000" font-family="sans-serif" font-size="14" lengthAdjust="spacing" textLength="92" x="1397" y="108.0234">0x0c2a..e1c1</text><rect fill="#E2E2F0" height="46.9766" rx="2.5" ry="2.5" style="stroke:#181818;stroke-width:0.5;" width="120" x="1383" y="2515.1055"/><text fill="#000000" font-family="sans-serif" font-size="14" font-style="italic" lengthAdjust="spacing" textLength="106" x="1390" y="2535.6406">«CounterHook»</text><text fill="#000000" font-family="sans-serif" font-size="14" lengthAdjust="spacing" textLength="92" x="1397" y="2552.1289">0x0c2a..e1c1</text><rect fill="#E2E2F0" height="46.9766" rx="2.5" ry="2.5" style="stroke:#181818;stroke-width:0.5;" width="106" x="1525.5" y="71"/><text fill="#000000" font-family="sans-serif" font-size="14" font-style="italic" lengthAdjust="spacing" textLength="88" x="1534.5" y="91.5352">«TestERC20»</text><text fill="#000000" font-family="sans-serif" font-size="14" lengthAdjust="spacing" textLength="92" x="1532.5" y="108.0234">0x5fbd..0aa3</text><rect fill="#E2E2F0" height="46.9766" rx="2.5" ry="2.5" style="stroke:#181818;stroke-width:0.5;" width="106" x="1525.5" y="2515.1055"/><text fill="#000000" font-family="sans-serif" font-size="14" font-style="italic" lengthAdjust="spacing" textLength="88" x="1534.5" y="2535.6406">«TestERC20»</text><text fill="#000000" font-family="sans-serif" font-size="14" lengthAdjust="spacing" textLength="92" x="1532.5" y="2552.1289">0x5fbd..0aa3</text><rect fill="#E2E2F0" height="46.9766" rx="2.5" ry="2.5" style="stroke:#181818;stroke-width:0.5;" width="107" x="1689" y="71"/><text fill="#000000" font-family="sans-serif" font-size="14" font-style="italic" lengthAdjust="spacing" textLength="88" x="1698.5" y="91.5352">«TestERC20»</text><text fill="#000000" font-family="sans-serif" font-size="14" lengthAdjust="spacing" textLength="93" x="1696" y="108.0234">0xe7f1..0512</text><rect fill="#E2E2F0" height="46.9766" rx="2.5" ry="2.5" style="stroke:#181818;stroke-width:0.5;" width="107" x="1689" y="2515.1055"/><text fill="#000000" font-family="sans-serif" font-size="14" font-style="italic" lengthAdjust="spacing" textLength="88" x="1698.5" y="2535.6406">«TestERC20»</text><text fill="#000000" font-family="sans-serif" font-size="14" lengthAdjust="spacing" textLength="93" x="1696" y="2552.1289">0xe7f1..0512</text><rect fill="#FFFFFF" height="1797.8809" style="stroke:#181818;stroke-width:1.0;" width="10" x="554" y="491.8086"/><rect fill="#FFFFFF" height="1538.1543" style="stroke:#181818;stroke-width:1.0;" width="10" x="559" y="611.6719"/><rect fill="#FFFFFF" height="1642.707" style="stroke:#181818;stroke-width:1.0;" width="10" x="1016" y="551.7402"/><rect fill="#FFFFFF" height="575.248" style="stroke:#181818;stroke-width:1.0;" width="10" x="1021" y="809.3984"/><rect fill="#FFFFFF" height="149.1738" style="stroke:#181818;stroke-width:1.0;" width="10" x="1021" y="1630.373"/><rect fill="#FFFFFF" height="133.8633" style="stroke:#181818;stroke-width:1.0;" width="10" x="1021" y="1920.7207"/><rect fill="#FFFFFF" height="44.6211" style="stroke:#181818;stroke-width:1.0;" width="10" x="1438" y="1022.4355"/><rect fill="#FFFFFF" height="44.6211" style="stroke:#181818;stroke-width:1.0;" width="10" x="1438" y="1295.4043"/><rect fill="#FFFFFF" height="44.6211" style="stroke:#181818;stroke-width:1.0;" width="10" x="1573.5" y="1525.8203"/><rect fill="#FFFFFF" height="44.6211" style="stroke:#181818;stroke-width:1.0;" width="10" x="1573.5" y="1690.3047"/><rect fill="#FFFFFF" height="44.6211" style="stroke:#181818;stroke-width:1.0;" width="10" x="1737.5" y="1995.9629"/><path d="M5,133.9766 L5,250.9766 L209,250.9766 L209,143.9766 L199,133.9766 L5,133.9766 " fill="#FEFFDD" style="stroke:#181818;stroke-width:0.5;"/><path d="M199,133.9766 L199,143.9766 L209,143.9766 L199,133.9766 " fill="#FEFFDD" style="stroke:#181818;stroke-width:0.5;"/><text fill="#000000" font-family="sans-serif" font-size="13" lengthAdjust="spacing" textLength="64" x="11" y="151.5449">Nonce: 16</text><text fill="#000000" font-family="sans-serif" font-size="13" lengthAdjust="spacing" textLength="183" x="11" y="166.8555">Gas Price: 3.675726043 Gwei</text><text fill="#000000" font-family="sans-serif" font-size="13" lengthAdjust="spacing" textLength="113" x="11" y="182.166">Max Fee: 5.0 Gwei</text><text fill="#000000" font-family="sans-serif" font-size="13" lengthAdjust="spacing" textLength="137" x="11" y="197.4766">Max Priority: 3.0 Gwei</text><text fill="#000000" font-family="sans-serif" font-size="13" lengthAdjust="spacing" textLength="119" x="11" y="212.7871">Gas Limit: 319,529</text><text fill="#000000" font-family="sans-serif" font-size="13" lengthAdjust="spacing" textLength="118" x="11" y="228.0977">Gas Used: 218,482</text><text fill="#000000" font-family="sans-serif" font-size="13" lengthAdjust="spacing" textLength="114" x="11" y="243.4082">Tx Fee: 0.001 ETH</text><polygon fill="#181818" points="542,487.8086,552,491.8086,542,495.8086,546,491.8086" style="stroke:#181818;stroke-width:1.0;"/><line style="stroke:#181818;stroke-width:1.0;" x1="107" x2="548" y1="491.8086" y2="491.8086"/><text fill="#000000" font-family="sans-serif" font-size="13" lengthAdjust="spacing" textLength="36" x="114" y="272.7188">swap(</text><text fill="#000000" font-family="sans-serif" font-size="13" lengthAdjust="spacing" textLength="34" x="114" y="288.0293">key: [</text><text fill="#000000" font-family="sans-serif" font-size="13" lengthAdjust="spacing" textLength="161" x="122" y="303.3398">currency0: 0x5FbD..0aa3,</text><text fill="#000000" font-family="sans-serif" font-size="13" lengthAdjust="spacing" textLength="158" x="122" y="318.6504">currency1: 0xe7f1..0512,</text><text fill="#000000" font-family="sans-serif" font-size="13" lengthAdjust="spacing" textLength="67" x="122" y="333.9609">fee: 3,000,</text><text fill="#000000" font-family="sans-serif" font-size="13" lengthAdjust="spacing" textLength="101" x="122" y="349.2715">tickSpacing: 60,</text><text fill="#000000" font-family="sans-serif" font-size="13" lengthAdjust="spacing" textLength="139" x="122" y="364.582">hooks: 0x0c2a..e1c1],</text><text fill="#000000" font-family="sans-serif" font-size="13" lengthAdjust="spacing" textLength="58" x="114" y="379.8926">params: [</text><text fill="#000000" font-family="sans-serif" font-size="13" lengthAdjust="spacing" textLength="109" x="122" y="395.2031">zeroForOne: true,</text><text fill="#000000" font-family="sans-serif" font-size="13" lengthAdjust="spacing" textLength="141" x="122" y="410.5137">amountSpecified: 100,</text><text fill="#000000" font-family="sans-serif" font-size="13" lengthAdjust="spacing" textLength="219" x="122" y="425.8242">sqrtPriceLimitX96: 4,295,128,740],</text><text fill="#000000" font-family="sans-serif" font-size="13" lengthAdjust="spacing" textLength="87" x="114" y="441.1348">testSettings: [</text><text fill="#000000" font-family="sans-serif" font-size="13" lengthAdjust="spacing" textLength="140" x="122" y="456.4453">withdrawTokens: true,</text><text fill="#000000" font-family="sans-serif" font-size="13" lengthAdjust="spacing" textLength="164" x="122" y="471.7559">settleUsingTransfer: true])</text><text fill="#000000" font-family="sans-serif" font-size="13" lengthAdjust="spacing" textLength="78" x="114" y="487.0664">199,925 gas</text><polygon fill="#181818" points="1004,547.7402,1014,551.7402,1004,555.7402,1008,551.7402" style="stroke:#181818;stroke-width:1.0;"/><line style="stroke:#181818;stroke-width:1.0;" x1="564" x2="1010" y1="551.7402" y2="551.7402"/><text fill="#000000" font-family="sans-serif" font-size="13" lengthAdjust="spacing" textLength="31" x="571" y="516.377">lock(</text><text fill="#000000" font-family="sans-serif" font-size="13" lengthAdjust="spacing" textLength="190" x="571" y="531.6875">data: 0x00000000..000276a4)</text><text fill="#000000" font-family="sans-serif" font-size="13" lengthAdjust="spacing" textLength="78" x="571" y="546.998">194,681 gas</text><polygon fill="#181818" points="580,607.6719,570,611.6719,580,615.6719,576,611.6719" style="stroke:#181818;stroke-width:1.0;"/><line style="stroke:#181818;stroke-width:1.0;" x1="574" x2="1015" y1="611.6719" y2="611.6719"/><text fill="#000000" font-family="sans-serif" font-size="13" lengthAdjust="spacing" textLength="87" x="586" y="576.3086">lockAcquired(</text><text fill="#000000" font-family="sans-serif" font-size="13" lengthAdjust="spacing" textLength="214" x="586" y="591.6191">rawData: 0x00000000..000276a4)</text><text fill="#000000" font-family="sans-serif" font-size="13" lengthAdjust="spacing" textLength="78" x="586" y="606.9297">173,798 gas</text><polygon fill="#181818" points="1009,805.3984,1019,809.3984,1009,813.3984,1013,809.3984" style="stroke:#181818;stroke-width:1.0;"/><line style="stroke:#181818;stroke-width:1.0;" x1="569" x2="1015" y1="809.3984" y2="809.3984"/><text fill="#000000" font-family="sans-serif" font-size="13" lengthAdjust="spacing" textLength="36" x="576" y="636.2402">swap(</text><text fill="#000000" font-family="sans-serif" font-size="13" lengthAdjust="spacing" textLength="34" x="576" y="651.5508">key: [</text><text fill="#000000" font-family="sans-serif" font-size="13" lengthAdjust="spacing" textLength="161" x="584" y="666.8613">currency0: 0x5FbD..0aa3,</text><text fill="#000000" font-family="sans-serif" font-size="13" lengthAdjust="spacing" textLength="158" x="584" y="682.1719">currency1: 0xe7f1..0512,</text><text fill="#000000" font-family="sans-serif" font-size="13" lengthAdjust="spacing" textLength="67" x="584" y="697.4824">fee: 3,000,</text><text fill="#000000" font-family="sans-serif" font-size="13" lengthAdjust="spacing" textLength="101" x="584" y="712.793">tickSpacing: 60,</text><text fill="#000000" font-family="sans-serif" font-size="13" lengthAdjust="spacing" textLength="139" x="584" y="728.1035">hooks: 0x0c2a..e1c1],</text><text fill="#000000" font-family="sans-serif" font-size="13" lengthAdjust="spacing" textLength="58" x="576" y="743.4141">params: [</text><text fill="#000000" font-family="sans-serif" font-size="13" lengthAdjust="spacing" textLength="109" x="584" y="758.7246">zeroForOne: true,</text><text fill="#000000" font-family="sans-serif" font-size="13" lengthAdjust="spacing" textLength="141" x="584" y="774.0352">amountSpecified: 100,</text><text fill="#000000" font-family="sans-serif" font-size="13" lengthAdjust="spacing" textLength="219" x="584" y="789.3457">sqrtPriceLimitX96: 4,295,128,740])</text><text fill="#000000" font-family="sans-serif" font-size="13" lengthAdjust="spacing" textLength="78" x="576" y="804.6563">155,272 gas</text><polygon fill="#181818" points="1426,1018.4355,1436,1022.4355,1426,1026.4355,1430,1022.4355" style="stroke:#181818;stroke-width:1.0;"/><line style="stroke:#181818;stroke-width:1.0;" x1="1031" x2="1432" y1="1022.4355" y2="1022.4355"/><text fill="#000000" font-family="sans-serif" font-size="13" lengthAdjust="spacing" textLength="76" x="1038" y="833.9668">beforeSwap(</text><text fill="#000000" font-family="sans-serif" font-size="13" lengthAdjust="spacing" textLength="93" x="1038" y="849.2773">0xDc64..F6C9,</text><text fill="#000000" font-family="sans-serif" font-size="13" lengthAdjust="spacing" textLength="4" x="1038" y="864.5879">[</text><text fill="#000000" font-family="sans-serif" font-size="13" lengthAdjust="spacing" textLength="161" x="1046" y="879.8984">currency0: 0x5FbD..0aa3,</text><text fill="#000000" font-family="sans-serif" font-size="13" lengthAdjust="spacing" textLength="158" x="1046" y="895.209">currency1: 0xe7f1..0512,</text><text fill="#000000" font-family="sans-serif" font-size="13" lengthAdjust="spacing" textLength="67" x="1046" y="910.5195">fee: 3,000,</text><text fill="#000000" font-family="sans-serif" font-size="13" lengthAdjust="spacing" textLength="101" x="1046" y="925.8301">tickSpacing: 60,</text><text fill="#000000" font-family="sans-serif" font-size="13" lengthAdjust="spacing" textLength="139" x="1046" y="941.1406">hooks: 0x0c2a..e1c1],</text><text fill="#000000" font-family="sans-serif" font-size="13" lengthAdjust="spacing" textLength="4" x="1038" y="956.4512">[</text><text fill="#000000" font-family="sans-serif" font-size="13" lengthAdjust="spacing" textLength="109" x="1046" y="971.7617">zeroForOne: true,</text><text fill="#000000" font-family="sans-serif" font-size="13" lengthAdjust="spacing" textLength="141" x="1046" y="987.0723">amountSpecified: 100,</text><text fill="#000000" font-family="sans-serif" font-size="13" lengthAdjust="spacing" textLength="219" x="1046" y="1002.3828">sqrtPriceLimitX96: 4,295,128,740])</text><text fill="#000000" font-family="sans-serif" font-size="13" lengthAdjust="spacing" textLength="70" x="1038" y="1017.6934">23,947 gas</text><polygon fill="#181818" points="1042,1063.0566,1032,1067.0566,1042,1071.0566,1038,1067.0566" style="stroke:#181818;stroke-width:1.0;"/><line style="stroke:#181818;stroke-width:1.0;stroke-dasharray:2.0,2.0;" x1="1036" x2="1442" y1="1067.0566" y2="1067.0566"/><text fill="#000000" font-family="sans-serif" font-size="13" lengthAdjust="spacing" textLength="4" x="1048" y="1047.0039"> </text><text fill="#000000" font-family="sans-serif" font-size="13" lengthAdjust="spacing" textLength="74" x="1048" y="1062.3145">0xb3f97f80</text><polygon fill="#181818" points="1426,1291.4043,1436,1295.4043,1426,1299.4043,1430,1295.4043" style="stroke:#181818;stroke-width:1.0;"/><line style="stroke:#181818;stroke-width:1.0;" x1="1031" x2="1432" y1="1295.4043" y2="1295.4043"/><text fill="#000000" font-family="sans-serif" font-size="13" lengthAdjust="spacing" textLength="65" x="1038" y="1091.625">afterSwap(</text><text fill="#000000" font-family="sans-serif" font-size="13" lengthAdjust="spacing" textLength="93" x="1038" y="1106.9355">0xDc64..F6C9,</text><text fill="#000000" font-family="sans-serif" font-size="13" lengthAdjust="spacing" textLength="4" x="1038" y="1122.2461">[</text><text fill="#000000" font-family="sans-serif" font-size="13" lengthAdjust="spacing" textLength="161" x="1046" y="1137.5566">currency0: 0x5FbD..0aa3,</text><text fill="#000000" font-family="sans-serif" font-size="13" lengthAdjust="spacing" textLength="158" x="1046" y="1152.8672">currency1: 0xe7f1..0512,</text><text fill="#000000" font-family="sans-serif" font-size="13" lengthAdjust="spacing" textLength="67" x="1046" y="1168.1777">fee: 3,000,</text><text fill="#000000" font-family="sans-serif" font-size="13" lengthAdjust="spacing" textLength="101" x="1046" y="1183.4883">tickSpacing: 60,</text><text fill="#000000" font-family="sans-serif" font-size="13" lengthAdjust="spacing" textLength="139" x="1046" y="1198.7988">hooks: 0x0c2a..e1c1],</text><text fill="#000000" font-family="sans-serif" font-size="13" lengthAdjust="spacing" textLength="4" x="1038" y="1214.1094">[</text><text fill="#000000" font-family="sans-serif" font-size="13" lengthAdjust="spacing" textLength="109" x="1046" y="1229.4199">zeroForOne: true,</text><text fill="#000000" font-family="sans-serif" font-size="13" lengthAdjust="spacing" textLength="141" x="1046" y="1244.7305">amountSpecified: 100,</text><text fill="#000000" font-family="sans-serif" font-size="13" lengthAdjust="spacing" textLength="219" x="1046" y="1260.041">sqrtPriceLimitX96: 4,295,128,740],</text><text fill="#000000" font-family="sans-serif" font-size="13" lengthAdjust="spacing" textLength="388" x="1038" y="1275.3516">34,368,519,059,014,784,809,800,,835,350,608,589,356,958)</text><text fill="#000000" font-family="sans-serif" font-size="13" lengthAdjust="spacing" textLength="70" x="1038" y="1290.6621">23,974 gas</text><polygon fill="#181818" points="1042,1336.0254,1032,1340.0254,1042,1344.0254,1038,1340.0254" style="stroke:#181818;stroke-width:1.0;"/><line style="stroke:#181818;stroke-width:1.0;stroke-dasharray:2.0,2.0;" x1="1036" x2="1442" y1="1340.0254" y2="1340.0254"/><text fill="#000000" font-family="sans-serif" font-size="13" lengthAdjust="spacing" textLength="4" x="1048" y="1319.9727"> </text><text fill="#000000" font-family="sans-serif" font-size="13" lengthAdjust="spacing" textLength="76" x="1048" y="1335.2832">0xa5aa370a</text><polygon fill="#181818" points="580,1380.6465,570,1384.6465,580,1388.6465,576,1384.6465" style="stroke:#181818;stroke-width:1.0;"/><line style="stroke:#181818;stroke-width:1.0;stroke-dasharray:2.0,2.0;" x1="574" x2="1015" y1="1384.6465" y2="1384.6465"/><text fill="#000000" font-family="sans-serif" font-size="13" lengthAdjust="spacing" textLength="4" x="586" y="1364.5938"> </text><text fill="#000000" font-family="sans-serif" font-size="13" lengthAdjust="spacing" textLength="423" x="586" y="1379.9043">delta: 34,368,519,059,014,784,809,800,,835,350,608,589,356,958</text><path d="M1031,1397.6465 L1031,1437.6465 L1130,1437.6465 L1130,1407.6465 L1120,1397.6465 L1031,1397.6465 " fill="#FEFFDD" style="stroke:#181818;stroke-width:0.5;"/><path d="M1120,1397.6465 L1120,1407.6465 L1130,1407.6465 L1120,1397.6465 " fill="#FEFFDD" style="stroke:#181818;stroke-width:0.5;"/><text fill="#000000" font-family="sans-serif" font-size="13" lengthAdjust="spacing" textLength="4" x="1037" y="1415.2148"> </text><text fill="#000000" font-family="sans-serif" font-size="13" lengthAdjust="spacing" textLength="78" x="1037" y="1430.5254">107,351 gas</text><polygon fill="#181818" points="1561.5,1521.8203,1571.5,1525.8203,1561.5,1529.8203,1565.5,1525.8203" style="stroke:#181818;stroke-width:1.0;"/><line style="stroke:#181818;stroke-width:1.0;" x1="569" x2="1567.5" y1="1525.8203" y2="1525.8203"/><text fill="#000000" font-family="sans-serif" font-size="13" lengthAdjust="spacing" textLength="85" x="576" y="1459.8359">transferFrom(</text><text fill="#000000" font-family="sans-serif" font-size="13" lengthAdjust="spacing" textLength="138" x="576" y="1475.1465">sender: 0xf39F..2266,</text><text fill="#000000" font-family="sans-serif" font-size="13" lengthAdjust="spacing" textLength="149" x="576" y="1490.457">recipient: 0x9fE4..a6e0,</text><text fill="#000000" font-family="sans-serif" font-size="13" lengthAdjust="spacing" textLength="84" x="576" y="1505.7676">amount: 100)</text><text fill="#000000" font-family="sans-serif" font-size="13" lengthAdjust="spacing" textLength="70" x="576" y="1521.0781">18,366 gas</text><polygon fill="#181818" points="580,1566.4414,570,1570.4414,580,1574.4414,576,1570.4414" style="stroke:#181818;stroke-width:1.0;"/><line style="stroke:#181818;stroke-width:1.0;stroke-dasharray:2.0,2.0;" x1="574" x2="1577.5" y1="1570.4414" y2="1570.4414"/><text fill="#000000" font-family="sans-serif" font-size="13" lengthAdjust="spacing" textLength="4" x="586" y="1550.3887"> </text><text fill="#000000" font-family="sans-serif" font-size="13" lengthAdjust="spacing" textLength="25" x="586" y="1565.6992">true</text><polygon fill="#181818" points="1009,1626.373,1019,1630.373,1009,1634.373,1013,1630.373" style="stroke:#181818;stroke-width:1.0;"/><line style="stroke:#181818;stroke-width:1.0;" x1="569" x2="1015" y1="1630.373" y2="1630.373"/><text fill="#000000" font-family="sans-serif" font-size="13" lengthAdjust="spacing" textLength="39" x="576" y="1595.0098">settle(</text><text fill="#000000" font-family="sans-serif" font-size="13" lengthAdjust="spacing" textLength="153" x="576" y="1610.3203">currency: 0x5FbD..0aa3)</text><text fill="#000000" font-family="sans-serif" font-size="13" lengthAdjust="spacing" textLength="62" x="576" y="1625.6309">7,136 gas</text><polygon fill="#181818" points="1561.5,1686.3047,1571.5,1690.3047,1561.5,1694.3047,1565.5,1690.3047" style="stroke:#181818;stroke-width:1.0;"/><line style="stroke:#181818;stroke-width:1.0;" x1="1031" x2="1567.5" y1="1690.3047" y2="1690.3047"/><text fill="#000000" font-family="sans-serif" font-size="13" lengthAdjust="spacing" textLength="67" x="1038" y="1654.9414">balanceOf(</text><text fill="#000000" font-family="sans-serif" font-size="13" lengthAdjust="spacing" textLength="86" x="1038" y="1670.252">0x9fE4..a6e0)</text><text fill="#000000" font-family="sans-serif" font-size="13" lengthAdjust="spacing" textLength="50" x="1038" y="1685.5625">566 gas</text><polygon fill="#181818" points="1042,1730.9258,1032,1734.9258,1042,1738.9258,1038,1734.9258" style="stroke:#181818;stroke-width:1.0;"/><line style="stroke:#181818;stroke-width:1.0;stroke-dasharray:2.0,2.0;" x1="1036" x2="1577.5" y1="1734.9258" y2="1734.9258"/><text fill="#000000" font-family="sans-serif" font-size="13" lengthAdjust="spacing" textLength="4" x="1048" y="1714.873"> </text><text fill="#000000" font-family="sans-serif" font-size="13" lengthAdjust="spacing" textLength="188" x="1048" y="1730.1836">10,,089,770,927,164,204,536</text><polygon fill="#181818" points="580,1775.5469,570,1779.5469,580,1783.5469,576,1779.5469" style="stroke:#181818;stroke-width:1.0;"/><line style="stroke:#181818;stroke-width:1.0;stroke-dasharray:2.0,2.0;" x1="574" x2="1015" y1="1779.5469" y2="1779.5469"/><text fill="#000000" font-family="sans-serif" font-size="13" lengthAdjust="spacing" textLength="4" x="586" y="1759.4941"> </text><text fill="#000000" font-family="sans-serif" font-size="13" lengthAdjust="spacing" textLength="59" x="586" y="1774.8047">paid: 100</text><path d="M1031,1792.5469 L1031,1832.5469 L1114,1832.5469 L1114,1802.5469 L1104,1792.5469 L1031,1792.5469 " fill="#FEFFDD" style="stroke:#181818;stroke-width:0.5;"/><path d="M1104,1792.5469 L1104,1802.5469 L1114,1802.5469 L1104,1792.5469 " fill="#FEFFDD" style="stroke:#181818;stroke-width:0.5;"/><text fill="#000000" font-family="sans-serif" font-size="13" lengthAdjust="spacing" textLength="4" x="1037" y="1810.1152"> </text><text fill="#000000" font-family="sans-serif" font-size="13" lengthAdjust="spacing" textLength="62" x="1037" y="1825.4258">6,570 gas</text><polygon fill="#181818" points="1009,1916.7207,1019,1920.7207,1009,1924.7207,1013,1920.7207" style="stroke:#181818;stroke-width:1.0;"/><line style="stroke:#181818;stroke-width:1.0;" x1="569" x2="1015" y1="1920.7207" y2="1920.7207"/><text fill="#000000" font-family="sans-serif" font-size="13" lengthAdjust="spacing" textLength="31" x="576" y="1854.7363">take(</text><text fill="#000000" font-family="sans-serif" font-size="13" lengthAdjust="spacing" textLength="150" x="576" y="1870.0469">currency: 0xe7f1..0512,</text><text fill="#000000" font-family="sans-serif" font-size="13" lengthAdjust="spacing" textLength="109" x="576" y="1885.3574">to: 0xf39F..2266,</text><text fill="#000000" font-family="sans-serif" font-size="13" lengthAdjust="spacing" textLength="76" x="576" y="1900.668">amount: 98)</text><text fill="#000000" font-family="sans-serif" font-size="13" lengthAdjust="spacing" textLength="70" x="576" y="1915.9785">18,856 gas</text><polygon fill="#181818" points="1725.5,1991.9629,1735.5,1995.9629,1725.5,1999.9629,1729.5,1995.9629" style="stroke:#181818;stroke-width:1.0;"/><line style="stroke:#181818;stroke-width:1.0;" x1="1031" x2="1731.5" y1="1995.9629" y2="1995.9629"/><text fill="#000000" font-family="sans-serif" font-size="13" lengthAdjust="spacing" textLength="53" x="1038" y="1945.2891">transfer(</text><text fill="#000000" font-family="sans-serif" font-size="13" lengthAdjust="spacing" textLength="151" x="1038" y="1960.5996">recipient: 0xf39F..2266,</text><text fill="#000000" font-family="sans-serif" font-size="13" lengthAdjust="spacing" textLength="76" x="1038" y="1975.9102">amount: 98)</text><text fill="#000000" font-family="sans-serif" font-size="13" lengthAdjust="spacing" textLength="70" x="1038" y="1991.2207">12,877 gas</text><polygon fill="#181818" points="1042,2036.584,1032,2040.584,1042,2044.584,1038,2040.584" style="stroke:#181818;stroke-width:1.0;"/><line style="stroke:#181818;stroke-width:1.0;stroke-dasharray:2.0,2.0;" x1="1036" x2="1741.5" y1="2040.584" y2="2040.584"/><text fill="#000000" font-family="sans-serif" font-size="13" lengthAdjust="spacing" textLength="4" x="1048" y="2020.5313"> </text><text fill="#000000" font-family="sans-serif" font-size="13" lengthAdjust="spacing" textLength="25" x="1048" y="2035.8418">true</text><polygon fill="#181818" points="580,2050.584,570,2054.584,580,2058.584,576,2054.584" style="stroke:#181818;stroke-width:1.0;"/><line style="stroke:#181818;stroke-width:1.0;stroke-dasharray:2.0,2.0;" x1="574" x2="1015" y1="2054.584" y2="2054.584"/><path d="M1031,2067.584 L1031,2107.584 L1114,2107.584 L1114,2077.584 L1104,2067.584 L1031,2067.584 " fill="#FEFFDD" style="stroke:#181818;stroke-width:0.5;"/><path d="M1104,2067.584 L1104,2077.584 L1114,2077.584 L1104,2067.584 " fill="#FEFFDD" style="stroke:#181818;stroke-width:0.5;"/><text fill="#000000" font-family="sans-serif" font-size="13" lengthAdjust="spacing" textLength="4" x="1037" y="2085.1523"> </text><text fill="#000000" font-family="sans-serif" font-size="13" lengthAdjust="spacing" textLength="62" x="1037" y="2100.4629">5,979 gas</text><polygon fill="#181818" points="1004,2145.8262,1014,2149.8262,1004,2153.8262,1008,2149.8262" style="stroke:#181818;stroke-width:1.0;"/><line style="stroke:#181818;stroke-width:1.0;stroke-dasharray:2.0,2.0;" x1="564" x2="1010" y1="2149.8262" y2="2149.8262"/><text fill="#000000" font-family="sans-serif" font-size="13" lengthAdjust="spacing" textLength="4" x="571" y="2129.7734"> </text><text fill="#000000" font-family="sans-serif" font-size="13" lengthAdjust="spacing" textLength="133" x="571" y="2145.084">0x00000000..ffffff9e</text><polygon fill="#181818" points="575,2190.4473,565,2194.4473,575,2198.4473,571,2194.4473" style="stroke:#181818;stroke-width:1.0;"/><line style="stroke:#181818;stroke-width:1.0;stroke-dasharray:2.0,2.0;" x1="569" x2="1020" y1="2194.4473" y2="2194.4473"/><text fill="#000000" font-family="sans-serif" font-size="13" lengthAdjust="spacing" textLength="4" x="581" y="2174.3945"> </text><text fill="#000000" font-family="sans-serif" font-size="13" lengthAdjust="spacing" textLength="177" x="581" y="2189.7051">result: 0x00000000..ffffff9e</text><path d="M1026,2207.4473 L1026,2247.4473 L1117,2247.4473 L1117,2217.4473 L1107,2207.4473 L1026,2207.4473 " fill="#FEFFDD" style="stroke:#181818;stroke-width:0.5;"/><path d="M1107,2207.4473 L1107,2217.4473 L1117,2217.4473 L1107,2207.4473 " fill="#FEFFDD" style="stroke:#181818;stroke-width:0.5;"/><text fill="#000000" font-family="sans-serif" font-size="13" lengthAdjust="spacing" textLength="4" x="1032" y="2225.0156"> </text><text fill="#000000" font-family="sans-serif" font-size="13" lengthAdjust="spacing" textLength="70" x="1032" y="2240.3262">20,883 gas</text><polygon fill="#181818" points="118,2285.6895,108,2289.6895,118,2293.6895,114,2289.6895" style="stroke:#181818;stroke-width:1.0;"/><line style="stroke:#181818;stroke-width:1.0;stroke-dasharray:2.0,2.0;" x1="112" x2="558" y1="2289.6895" y2="2289.6895"/><text fill="#000000" font-family="sans-serif" font-size="13" lengthAdjust="spacing" textLength="4" x="124" y="2269.6367"> </text><text fill="#000000" font-family="sans-serif" font-size="13" lengthAdjust="spacing" textLength="423" x="124" y="2284.9473">delta: 34,368,519,059,014,784,809,800,,835,350,608,589,356,958</text><path d="M564,2302.6895 L564,2342.6895 L647,2342.6895 L647,2312.6895 L637,2302.6895 L564,2302.6895 " fill="#FEFFDD" style="stroke:#181818;stroke-width:0.5;"/><path d="M637,2302.6895 L637,2312.6895 L647,2312.6895 L637,2302.6895 " fill="#FEFFDD" style="stroke:#181818;stroke-width:0.5;"/><text fill="#000000" font-family="sans-serif" font-size="13" lengthAdjust="spacing" textLength="4" x="570" y="2320.2578"> </text><text fill="#000000" font-family="sans-serif" font-size="13" lengthAdjust="spacing" textLength="62" x="570" y="2335.5684">5,244 gas</text><path d="M825,2353.3105 L825,2500.3105 L1217,2500.3105 L1217,2363.3105 L1207,2353.3105 L825,2353.3105 " fill="#00FFFF" style="stroke:#181818;stroke-width:0.5;"/><path d="M1207,2353.3105 L1207,2363.3105 L1217,2363.3105 L1207,2353.3105 " fill="#00FFFF" style="stroke:#181818;stroke-width:0.5;"/><text fill="#000000" font-family="sans-serif" font-size="13" lengthAdjust="spacing" textLength="36" x="831" y="2370.8789">Swap:</text><text fill="#000000" font-family="sans-serif" font-size="13" lengthAdjust="spacing" textLength="172" x="839" y="2386.1895">id: 0xb95b78c2..bf609442,</text><text fill="#000000" font-family="sans-serif" font-size="13" lengthAdjust="spacing" textLength="143" x="839" y="2401.5">sender: 0xDc64..F6C9,</text><text fill="#000000" font-family="sans-serif" font-size="13" lengthAdjust="spacing" textLength="92" x="839" y="2416.8105">amount0: 100,</text><text fill="#000000" font-family="sans-serif" font-size="13" lengthAdjust="spacing" textLength="92" x="839" y="2432.1211">amount1: -98,</text><text fill="#000000" font-family="sans-serif" font-size="13" lengthAdjust="spacing" textLength="363" x="839" y="2447.4316">sqrtPriceX96: 79,228,162,514,,264,337,332,091,014,039,</text><text fill="#000000" font-family="sans-serif" font-size="13" lengthAdjust="spacing" textLength="252" x="839" y="2462.7422">liquidity: 30,,000,000,000,000,000,000,</text><text fill="#000000" font-family="sans-serif" font-size="13" lengthAdjust="spacing" textLength="52" x="839" y="2478.0527">tick: -1,</text><text fill="#000000" font-family="sans-serif" font-size="13" lengthAdjust="spacing" textLength="63" x="839" y="2493.3633">fee: 3,000</text><path d="M1395,2353.3105 L1395,2424.3105 L1491,2424.3105 L1491,2363.3105 L1481,2353.3105 L1395,2353.3105 " fill="#00FFFF" style="stroke:#181818;stroke-width:0.5;"/><path d="M1481,2353.3105 L1481,2363.3105 L1491,2363.3105 L1481,2353.3105 " fill="#00FFFF" style="stroke:#181818;stroke-width:0.5;"/><text fill="#000000" font-family="sans-serif" font-size="13" lengthAdjust="spacing" textLength="75" x="1401" y="2370.8789">BeforeSwap:</text><text fill="#000000" font-family="sans-serif" font-size="13" lengthAdjust="spacing" textLength="64" x="1409" y="2386.1895">counter: 1</text><text fill="#000000" font-family="sans-serif" font-size="13" lengthAdjust="spacing" textLength="67" x="1401" y="2401.5">AfterSwap:</text><text fill="#000000" font-family="sans-serif" font-size="13" lengthAdjust="spacing" textLength="64" x="1409" y="2416.8105">counter: 1</text><path d="M1501,2353.3105 L1501,2424.3105 L1656,2424.3105 L1656,2363.3105 L1646,2353.3105 L1501,2353.3105 " fill="#00FFFF" style="stroke:#181818;stroke-width:0.5;"/><path d="M1646,2353.3105 L1646,2363.3105 L1656,2363.3105 L1646,2353.3105 " fill="#00FFFF" style="stroke:#181818;stroke-width:0.5;"/><text fill="#000000" font-family="sans-serif" font-size="13" lengthAdjust="spacing" textLength="56" x="1507" y="2370.8789">Transfer:</text><text fill="#000000" font-family="sans-serif" font-size="13" lengthAdjust="spacing" textLength="126" x="1515" y="2386.1895">from: 0xf39F..2266,</text><text fill="#000000" font-family="sans-serif" font-size="13" lengthAdjust="spacing" textLength="107" x="1515" y="2401.5">to: 0x9fE4..a6e0,</text><text fill="#000000" font-family="sans-serif" font-size="13" lengthAdjust="spacing" textLength="65" x="1515" y="2416.8105">value: 100</text><path d="M1666,2353.3105 L1666,2424.3105 L1819,2424.3105 L1819,2363.3105 L1809,2353.3105 L1666,2353.3105 " fill="#00FFFF" style="stroke:#181818;stroke-width:0.5;"/><path d="M1809,2353.3105 L1809,2363.3105 L1819,2363.3105 L1809,2353.3105 " fill="#00FFFF" style="stroke:#181818;stroke-width:0.5;"/><text fill="#000000" font-family="sans-serif" font-size="13" lengthAdjust="spacing" textLength="56" x="1672" y="2370.8789">Transfer:</text><text fill="#000000" font-family="sans-serif" font-size="13" lengthAdjust="spacing" textLength="124" x="1680" y="2386.1895">from: 0x9fE4..a6e0,</text><text fill="#000000" font-family="sans-serif" font-size="13" lengthAdjust="spacing" textLength="109" x="1680" y="2401.5">to: 0xf39F..2266,</text><text fill="#000000" font-family="sans-serif" font-size="13" lengthAdjust="spacing" textLength="57" x="1680" y="2416.8105">value: 98</text><!--SRC=[tLVVRzis47xNNq5qBnt0QXGfKgHH1CYIk7rOrc9sWG5B7sY9IWGxaalHIRg_VaVAalmZIRDXmu0QCE8ZUNUyx-u-NbpbLWQHXwAKt2I6BN9EKybbmSgYpAYKfinbmKkU5miXZKvJMd33SgxXAsXEKas9vbaKvNhjggP6jxggQ-CmMgoQV8auHhDDZH4bw7Hp3NyeGqHDc9ma3Bsxd4SwTur5hyX3oLGPnvGAyGhf5ddH2oXQQ-kgl5hhslbpHIxIE2v5hi8vBte1lNtxiMbMitkzdflMdPmSwgdIW9uMXWGzBtfXgtUfQtrjxB4QoQcEOvFaIL3peXT0xQpPrCxOzqspF5RZvQA8Ow8r2sfUz0Ae-TjT_7P6oR6IoSe4b7X2Wv8NlN2W5DMDCwYvCtO0AVgrgNCpGOc8te7YHrjvYSKYunaL90MexqqLNUe7D3MmmsCohi3fnbRkgrVOBdiZlrItbOErH65ELLZwr9fYWcWYSIffDDyQ8p4X2RgOluzCNI1_kIWQilVcPCZG1BMGdDTNzTA0hp-kQeJoZRMcphyIiFB0fulp3ZAykvVulH6Pi5TwlmmJGe8862vdQvrNzVK4YMxj1jBIUjKnWPzX0n3Nj-tM_P_6DjF6VgZ1chCR4nJrhS_hR6toggnylCdMI_l5ke1iGEPt9IOenLHnd529ivHuymxoD3FEmKrw9_ULkocilfytIrEtEuvQEBSodreuExUwRajZkztFFrxLYL9OKOwkTUjRfBhJaFCUoMWeUe2tB-G9yWq7y1RQwH3uzWEu4K8peTDWDyL29ljsUnFHq1HxQVDsJ_ClcygQ0kn3BEVFkiWOpfJyMrV_pYl3ey8vfXbz0V0znKpGmfIDDRCE6_9m7fXlAiuKUFsVKFgFqA4CgpJR1wV78RB6RMpj4LYmKcMbV0elNG8VV_TmmIcMOYOavi3DXCCtIN4cKoo9WY_1M3AE6ITO43Wa5VmMM76v1JfBlmcqve1BHlImL9YLR_b_wBXxicnrVUDGK-xqFVG5oU1KHqYxtD2_c1woZXodjhc5nBRmodYc31F3j9iO018BGAuhKpk_eygBxLiFEntI0M3VXn8Y4Fi0zBw6Q7sMdcAgmDfmZxvWzci9F6GuOU85VJv6kD0h3U_tXpBKxNXvCCQ_UTS4O2S0TPOHU370kO1o8IdcJ0ndrhhgAkoPH0ZCCtAKXl64qyl3iFVQn3L7EUcHLx83NlANuDAFFMFcNn-aznad5CliW4TwU_lPxOHdyE3GA2fO6jjYVE_Ay55csBIctQpS_gCu77hQ2oLOIhRdvbzjjV4Lzn7Hj6lzdH5oGFu7_MMZ8y-UamWXNo_0juelCfdJE5wKWYYO_d7a1vU-0tSeDkefZNHKDiX0g6-K37ezimLIonIcm6Y9e11ZYZ65kcKCo81HJ5GI0YOi65vLC7mKtOZggntCF_QDEce6Vud_FRBspc3w4nf37sRvBlIVXzVM0v1tqpq44vtspyh1-kDMXr6_ipgCTlv6m607zUllt1nG5gpTwTN6T1txk9VXVuEdlUnRF6hFqOkIevE_0000]--></g></svg>