<?xml version="1.0" encoding="UTF-8" standalone="no"?><svg xmlns="http://www.w3.org/2000/svg" xmlns:xlink="http://www.w3.org/1999/xlink" contentStyleType="text/css" height="500px" preserveAspectRatio="none" style="width:635px;height:500px;background:#FFFFFF;" version="1.1" viewBox="0 0 635 500" width="635px" zoomAndPan="magnify"><defs/><g><rect fill="#FFFFFF" height="14" style="stroke:#181818;stroke-width:1.0;" width="10" x="180" y="137.1094"/><rect fill="#FFFFFF" height="14" style="stroke:#181818;stroke-width:1.0;" width="10" x="180" y="329.6621"/><rect fill="#FFFFFF" height="57.3105" style="stroke:#181818;stroke-width:1.0;" width="10" x="316" y="211.7305"/><rect fill="#FFFFFF" height="14" style="stroke:#181818;stroke-width:1.0;" width="10" x="453" y="241.041"/><rect fill="none" height="60.6211" style="stroke:#000000;stroke-width:1.5;" width="619" x="10" y="98.4883"/><rect fill="none" height="103.9316" style="stroke:#000000;stroke-width:1.5;" width="609" x="10" y="173.1094"/><rect fill="none" height="60.6211" style="stroke:#000000;stroke-width:1.5;" width="616" x="10" y="291.041"/><line style="stroke:#181818;stroke-width:0.5;stroke-dasharray:5.0,5.0;" x1="68" x2="68" y1="81.4883" y2="368.6621"/><line style="stroke:#181818;stroke-width:0.5;stroke-dasharray:5.0,5.0;" x1="185" x2="185" y1="81.4883" y2="368.6621"/><line style="stroke:#181818;stroke-width:0.5;stroke-dasharray:5.0,5.0;" x1="321" x2="321" y1="81.4883" y2="368.6621"/><line style="stroke:#181818;stroke-width:0.5;stroke-dasharray:5.0,5.0;" x1="458" x2="458" y1="81.4883" y2="368.6621"/><text fill="#000000" font-family="sans-serif" font-size="14" lengthAdjust="spacing" textLength="90" x="20" y="78.5352">0xf39f..2266</text><ellipse cx="68" cy="13.5" fill="#E2E2F0" rx="8" ry="8" style="stroke:#181818;stroke-width:0.5;"/><path d="M68,21.5 L68,48.5 M55,29.5 L81,29.5 M68,48.5 L55,63.5 M68,48.5 L81,63.5 " fill="none" style="stroke:#181818;stroke-width:0.5;"/><text fill="#000000" font-family="sans-serif" font-size="14" lengthAdjust="spacing" textLength="90" x="20" y="381.1973">0xf39f..2266</text><ellipse cx="68" cy="392.6504" fill="#E2E2F0" rx="8" ry="8" style="stroke:#181818;stroke-width:0.5;"/><path d="M68,400.6504 L68,427.6504 M55,408.6504 L81,408.6504 M68,427.6504 L55,442.6504 M68,427.6504 L81,442.6504 " fill="none" style="stroke:#181818;stroke-width:0.5;"/><rect fill="#E2E2F0" height="46.9766" rx="2.5" ry="2.5" style="stroke:#181818;stroke-width:0.5;" width="118" x="126" y="33.5117"/><text fill="#000000" font-family="sans-serif" font-size="14" font-style="italic" lengthAdjust="spacing" textLength="104" x="133" y="54.0469">«PoolManager»</text><text fill="#000000" font-family="sans-serif" font-size="14" lengthAdjust="spacing" textLength="91" x="139.5" y="70.5352">0x9fe4..a6e0</text><rect fill="#E2E2F0" height="46.9766" rx="2.5" ry="2.5" style="stroke:#181818;stroke-width:0.5;" width="118" x="126" y="367.6621"/><text fill="#000000" font-family="sans-serif" font-size="14" font-style="italic" lengthAdjust="spacing" textLength="104" x="133" y="388.1973">«PoolManager»</text><text fill="#000000" font-family="sans-serif" font-size="14" lengthAdjust="spacing" textLength="91" x="139.5" y="404.6855">0x9fe4..a6e0</text><rect fill="#E2E2F0" height="63.4648" rx="2.5" ry="2.5" style="stroke:#181818;stroke-width:0.5;" width="134" x="254" y="17.0234"/><text fill="#000000" font-family="sans-serif" font-size="14" font-style="italic" lengthAdjust="spacing" textLength="72" x="285" y="37.5586">«Uniswap»</text><text fill="#000000" font-family="sans-serif" font-size="14" font-style="italic" lengthAdjust="spacing" textLength="120" x="261" y="54.0469">«CounterFactory»</text><text fill="#000000" font-family="sans-serif" font-size="14" lengthAdjust="spacing" textLength="98" x="272" y="70.5352">0x6101..d788</text><rect fill="#E2E2F0" height="63.4648" rx="2.5" ry="2.5" style="stroke:#181818;stroke-width:0.5;" width="134" x="254" y="367.6621"/><text fill="#000000" font-family="sans-serif" font-size="14" font-style="italic" lengthAdjust="spacing" textLength="72" x="285" y="388.1973">«Uniswap»</text><text fill="#000000" font-family="sans-serif" font-size="14" font-style="italic" lengthAdjust="spacing" textLength="120" x="261" y="404.6855">«CounterFactory»</text><text fill="#000000" font-family="sans-serif" font-size="14" lengthAdjust="spacing" textLength="98" x="272" y="421.1738">0x6101..d788</text><rect fill="#E2E2F0" height="46.9766" rx="2.5" ry="2.5" style="stroke:#181818;stroke-width:0.5;" width="120" x="398" y="33.5117"/><text fill="#000000" font-family="sans-serif" font-size="14" font-style="italic" lengthAdjust="spacing" textLength="106" x="405" y="54.0469">«CounterHook»</text><text fill="#000000" font-family="sans-serif" font-size="14" lengthAdjust="spacing" textLength="92" x="412" y="70.5352">0x0c2a..e1c1</text><rect fill="#E2E2F0" height="46.9766" rx="2.5" ry="2.5" style="stroke:#181818;stroke-width:0.5;" width="120" x="398" y="367.6621"/><text fill="#000000" font-family="sans-serif" font-size="14" font-style="italic" lengthAdjust="spacing" textLength="106" x="405" y="388.1973">«CounterHook»</text><text fill="#000000" font-family="sans-serif" font-size="14" lengthAdjust="spacing" textLength="92" x="412" y="404.6855">0x0c2a..e1c1</text><rect fill="#FFFFFF" height="14" style="stroke:#181818;stroke-width:1.0;" width="10" x="180" y="137.1094"/><rect fill="#FFFFFF" height="14" style="stroke:#181818;stroke-width:1.0;" width="10" x="180" y="329.6621"/><rect fill="#FFFFFF" height="57.3105" style="stroke:#181818;stroke-width:1.0;" width="10" x="316" y="211.7305"/><rect fill="#FFFFFF" height="14" style="stroke:#181818;stroke-width:1.0;" width="10" x="453" y="241.041"/><path d="M10,98.4883 L624,98.4883 L624,105.7988 L614,115.7988 L10,115.7988 L10,98.4883 " fill="#EEEEEE" style="stroke:#000000;stroke-width:1.5;"/><rect fill="none" height="60.6211" style="stroke:#000000;stroke-width:1.5;" width="619" x="10" y="98.4883"/><text fill="#000000" font-family="sans-serif" font-size="13" font-weight="bold" lengthAdjust="spacing" textLength="569" x="25" y="112.0566">0x9cf249890694687e28f66952c3a0469e9150dc788c2a4983ba7e373433270c44</text><ellipse cx="179.5" cy="136.3594" fill="none" rx="4" ry="4" style="stroke:#181818;stroke-width:1.5;"/><polygon fill="#181818" points="162.5,133.1094,172.5,137.1094,162.5,141.1094,166.5,137.1094" style="stroke:#181818;stroke-width:1.0;"/><line style="stroke:#181818;stroke-width:1.0;" x1="68" x2="168.5" y1="137.1094" y2="137.1094"/><text fill="#000000" font-family="sans-serif" font-size="13" lengthAdjust="spacing" textLength="81" x="75" y="132.3672">constructor()</text><ellipse cx="67.5" cy="150.3594" fill="none" rx="4" ry="4" style="stroke:#181818;stroke-width:1.5;"/><polygon fill="#181818" points="84.5,147.1094,74.5,151.1094,84.5,155.1094,80.5,151.1094" style="stroke:#181818;stroke-width:1.0;"/><line style="stroke:#181818;stroke-width:1.0;stroke-dasharray:2.0,2.0;" x1="82.5" x2="184" y1="151.1094" y2="151.1094"/><path d="M10,173.1094 L614,173.1094 L614,180.4199 L604,190.4199 L10,190.4199 L10,173.1094 " fill="#EEEEEE" style="stroke:#000000;stroke-width:1.5;"/><rect fill="none" height="103.9316" style="stroke:#000000;stroke-width:1.5;" width="609" x="10" y="173.1094"/><text fill="#000000" font-family="sans-serif" font-size="13" font-weight="bold" lengthAdjust="spacing" textLength="559" x="25" y="186.6777">0xc1756dfb5669fe320edb26f99150f836448b07aed75b453604fe3af20ba97e72</text><polygon fill="#181818" points="304,207.7305,314,211.7305,304,215.7305,308,211.7305" style="stroke:#181818;stroke-width:1.0;"/><line style="stroke:#181818;stroke-width:1.0;" x1="68" x2="310" y1="211.7305" y2="211.7305"/><text fill="#000000" font-family="sans-serif" font-size="13" lengthAdjust="spacing" textLength="76" x="75" y="206.9883">0x21cde3ec</text><ellipse cx="452.5" cy="240.291" fill="none" rx="4" ry="4" style="stroke:#181818;stroke-width:1.5;"/><polygon fill="#181818" points="435.5,237.041,445.5,241.041,435.5,245.041,439.5,241.041" style="stroke:#181818;stroke-width:1.0;"/><line style="stroke:#181818;stroke-width:1.0;" x1="326" x2="441.5" y1="241.041" y2="241.041"/><text fill="#000000" font-family="sans-serif" font-size="13" lengthAdjust="spacing" textLength="86" x="333" y="236.2988">constructor(?)</text><ellipse cx="325.5" cy="254.291" fill="none" rx="4" ry="4" style="stroke:#181818;stroke-width:1.5;"/><polygon fill="#181818" points="342.5,251.041,332.5,255.041,342.5,259.041,338.5,255.041" style="stroke:#181818;stroke-width:1.0;"/><line style="stroke:#181818;stroke-width:1.0;stroke-dasharray:2.0,2.0;" x1="340.5" x2="457" y1="255.041" y2="255.041"/><polygon fill="#181818" points="79,265.041,69,269.041,79,273.041,75,269.041" style="stroke:#181818;stroke-width:1.0;"/><line style="stroke:#181818;stroke-width:1.0;stroke-dasharray:2.0,2.0;" x1="73" x2="320" y1="269.041" y2="269.041"/><path d="M10,291.041 L621,291.041 L621,298.3516 L611,308.3516 L10,308.3516 L10,291.041 " fill="#EEEEEE" style="stroke:#000000;stroke-width:1.5;"/><rect fill="none" height="60.6211" style="stroke:#000000;stroke-width:1.5;" width="616" x="10" y="291.041"/><text fill="#000000" font-family="sans-serif" font-size="13" font-weight="bold" lengthAdjust="spacing" textLength="566" x="25" y="304.6094">0x02ff4b04a82193eba7247358a09a1d0630159a0e54d946d1d45a10dff6ce3388</text><polygon fill="#181818" points="168,325.6621,178,329.6621,168,333.6621,172,329.6621" style="stroke:#181818;stroke-width:1.0;"/><line style="stroke:#181818;stroke-width:1.0;" x1="68" x2="174" y1="329.6621" y2="329.6621"/><text fill="#000000" font-family="sans-serif" font-size="13" lengthAdjust="spacing" textLength="78" x="75" y="324.9199">0x6276cbbe</text><polygon fill="#181818" points="79,339.6621,69,343.6621,79,347.6621,75,343.6621" style="stroke:#181818;stroke-width:1.0;"/><line style="stroke:#181818;stroke-width:1.0;stroke-dasharray:2.0,2.0;" x1="73" x2="184" y1="343.6621" y2="343.6621"/><text fill="#888888" font-family="sans-serif" font-size="10" lengthAdjust="spacing" textLength="241" x="198.5" y="454.8184">mainnet, block 3, Sun, 20 Aug 2023 09:38:11 GMT</text><text fill="#888888" font-family="sans-serif" font-size="10" lengthAdjust="spacing" textLength="241" x="198.5" y="466.5957">mainnet, block 4, Sun, 20 Aug 2023 09:38:12 GMT</text><text fill="#888888" font-family="sans-serif" font-size="10" lengthAdjust="spacing" textLength="241" x="198.5" y="478.373">mainnet, block 4, Sun, 20 Aug 2023 09:38:12 GMT</text><text fill="#888888" font-family="sans-serif" font-size="10" lengthAdjust="spacing" textLength="3" x="317.5" y="490.1504"> </text><!--SRC=[dPBBYjmm44Nt_WengmbqJEbXFPh68GIIR0O2IJwWB9KQCpDIuxRp-Fj83ktfJ1wBhCp5jufJ1yMSPvgQHnnJedd7XeVixvdSiOzBsZ41xFLoB1yX6RYzj7lEsRkxJy_xwkzzyL_zXbA8Fz7GptbYD_0jIXVRLWYjRnYUMOqriEQ4qppwyOHfhZqNIRKjQeArLsCDx73uaFF37IOyqjJtpySq1zwsmLYxZjLOGndxdCRpLppr_U7m9Y-fGBrTeRx_lWIymBObxlcwfCOQs3RvFkVxCjOSfxoSM87rKIXd7MYdj3KaRDJQTS9B1AKTETv1y8MZR2ezEQ0XQQIIKXZmIZMRXfTztcxTCv_JUPwMYddxeZeSl-1CMw6PQ5wcj7hUM3mtdGvnw0f192c0mY1qT9KXMgcLiWCOf62wGNLIWoejZ086T8QCk6RP_EtBOi5z84d-YUFojzaqL_oBhb_nNrtnNneN_Z-T0I96DO12AxYJL8m9PMHd4Hpo05e2xnm2TIeKvu47rI674AFs96LXkZxZoMXv8S9eFmpqRvq_0000]--></g></svg>