<?xml version="1.0" encoding="UTF-8" standalone="no"?><svg xmlns="http://www.w3.org/2000/svg" xmlns:xlink="http://www.w3.org/1999/xlink" contentStyleType="text/css" height="2070px" preserveAspectRatio="none" style="width:1772px;height:2070px;background:#FFFFFF;" version="1.1" viewBox="0 0 1772 2070" width="1772px" zoomAndPan="magnify"><defs/><g><text fill="#000000" font-family="sans-serif" font-size="14" font-weight="bold" lengthAdjust="spacing" textLength="557" x="606" y="28.5352">0xdf85e1e3bc524858d3fdf7288efc8d5f5cdb68ea442d5e3c5a3c562c04a20a57</text><text fill="#000000" font-family="sans-serif" font-size="14" lengthAdjust="spacing" textLength="347" x="711" y="2058.4336">mainnet, block 5, Sun, 20 Aug 2023 09:38:13 GMT</text><rect fill="#FFFFFF" height="1442.291" style="stroke:#181818;stroke-width:1.0;" width="10" x="500" y="349.3242"/><rect fill="#FFFFFF" height="1263.8066" style="stroke:#181818;stroke-width:1.0;" width="10" x="505" y="438.5664"/><rect fill="#FFFFFF" height="1353.0488" style="stroke:#181818;stroke-width:1.0;" width="10" x="962" y="393.9453"/><rect fill="#FFFFFF" height="544.627" style="stroke:#181818;stroke-width:1.0;" width="10" x="967" y="620.9824"/><rect fill="#FFFFFF" height="133.8633" style="stroke:#181818;stroke-width:1.0;" width="10" x="967" y="1330.0938"/><rect fill="#FFFFFF" height="118.5527" style="stroke:#181818;stroke-width:1.0;" width="10" x="967" y="1539.1992"/><rect fill="#FFFFFF" height="44.6211" style="stroke:#181818;stroke-width:1.0;" width="10" x="1384" y="818.709"/><rect fill="#FFFFFF" height="44.6211" style="stroke:#181818;stroke-width:1.0;" width="10" x="1384" y="1076.3672"/><rect fill="#FFFFFF" height="44.6211" style="stroke:#181818;stroke-width:1.0;" width="10" x="1519.5" y="1240.8516"/><rect fill="#FFFFFF" height="44.6211" style="stroke:#181818;stroke-width:1.0;" width="10" x="1519.5" y="1374.7148"/><rect fill="#FFFFFF" height="44.6211" style="stroke:#181818;stroke-width:1.0;" width="10" x="1683.5" y="1599.1309"/><line style="stroke:#181818;stroke-width:0.5;stroke-dasharray:5.0,5.0;" x1="53" x2="53" y1="118.9766" y2="1967.4102"/><line style="stroke:#181818;stroke-width:0.5;stroke-dasharray:5.0,5.0;" x1="504.5" x2="504.5" y1="118.9766" y2="1967.4102"/><line style="stroke:#181818;stroke-width:0.5;stroke-dasharray:5.0,5.0;" x1="967" x2="967" y1="118.9766" y2="1967.4102"/><line style="stroke:#181818;stroke-width:0.5;stroke-dasharray:5.0,5.0;" x1="1389" x2="1389" y1="118.9766" y2="1967.4102"/><line style="stroke:#181818;stroke-width:0.5;stroke-dasharray:5.0,5.0;" x1="1524.5" x2="1524.5" y1="118.9766" y2="1967.4102"/><line style="stroke:#181818;stroke-width:0.5;stroke-dasharray:5.0,5.0;" x1="1688" x2="1688" y1="118.9766" y2="1967.4102"/><text fill="#000000" font-family="sans-serif" font-size="14" lengthAdjust="spacing" textLength="90" x="5" y="116.0234">0xf39f..2266</text><ellipse cx="53" cy="50.9883" fill="#E2E2F0" rx="8" ry="8" style="stroke:#181818;stroke-width:0.5;"/><path d="M53,58.9883 L53,85.9883 M40,66.9883 L66,66.9883 M53,85.9883 L40,100.9883 M53,85.9883 L66,100.9883 " fill="none" style="stroke:#181818;stroke-width:0.5;"/><text fill="#000000" font-family="sans-serif" font-size="14" lengthAdjust="spacing" textLength="90" x="5" y="1979.9453">0xf39f..2266</text><ellipse cx="53" cy="1991.3984" fill="#E2E2F0" rx="8" ry="8" style="stroke:#181818;stroke-width:0.5;"/><path d="M53,1999.3984 L53,2026.3984 M40,2007.3984 L66,2007.3984 M53,2026.3984 L40,2041.3984 M53,2026.3984 L66,2041.3984 " fill="none" style="stroke:#181818;stroke-width:0.5;"/><rect fill="#E2E2F0" height="46.9766" rx="2.5" ry="2.5" style="stroke:#181818;stroke-width:0.5;" width="123" x="443.5" y="71"/><text fill="#000000" font-family="sans-serif" font-size="14" font-style="italic" lengthAdjust="spacing" textLength="109" x="450.5" y="91.5352">«PoolSwapTest»</text><text fill="#000000" font-family="sans-serif" font-size="14" lengthAdjust="spacing" textLength="90" x="460" y="108.0234">0xdc64..f6c9</text><rect fill="#E2E2F0" height="46.9766" rx="2.5" ry="2.5" style="stroke:#181818;stroke-width:0.5;" width="123" x="443.5" y="1966.4102"/><text fill="#000000" font-family="sans-serif" font-size="14" font-style="italic" lengthAdjust="spacing" textLength="109" x="450.5" y="1986.9453">«PoolSwapTest»</text><text fill="#000000" font-family="sans-serif" font-size="14" lengthAdjust="spacing" textLength="90" x="460" y="2003.4336">0xdc64..f6c9</text><rect fill="#E2E2F0" height="46.9766" rx="2.5" ry="2.5" style="stroke:#181818;stroke-width:0.5;" width="118" x="908" y="71"/><text fill="#000000" font-family="sans-serif" font-size="14" font-style="italic" lengthAdjust="spacing" textLength="104" x="915" y="91.5352">«PoolManager»</text><text fill="#000000" font-family="sans-serif" font-size="14" lengthAdjust="spacing" textLength="91" x="921.5" y="108.0234">0x9fe4..a6e0</text><rect fill="#E2E2F0" height="46.9766" rx="2.5" ry="2.5" style="stroke:#181818;stroke-width:0.5;" width="118" x="908" y="1966.4102"/><text fill="#000000" font-family="sans-serif" font-size="14" font-style="italic" lengthAdjust="spacing" textLength="104" x="915" y="1986.9453">«PoolManager»</text><text fill="#000000" font-family="sans-serif" font-size="14" lengthAdjust="spacing" textLength="91" x="921.5" y="2003.4336">0x9fe4..a6e0</text><rect fill="#E2E2F0" height="46.9766" rx="2.5" ry="2.5" style="stroke:#181818;stroke-width:0.5;" width="120" x="1329" y="71"/><text fill="#000000" font-family="sans-serif" font-size="14" font-style="italic" lengthAdjust="spacing" textLength="106" x="1336" y="91.5352">«CounterHook»</text><text fill="#000000" font-family="sans-serif" font-size="14" lengthAdjust="spacing" textLength="92" x="1343" y="108.0234">0x0c2a..e1c1</text><rect fill="#E2E2F0" height="46.9766" rx="2.5" ry="2.5" style="stroke:#181818;stroke-width:0.5;" width="120" x="1329" y="1966.4102"/><text fill="#000000" font-family="sans-serif" font-size="14" font-style="italic" lengthAdjust="spacing" textLength="106" x="1336" y="1986.9453">«CounterHook»</text><text fill="#000000" font-family="sans-serif" font-size="14" lengthAdjust="spacing" textLength="92" x="1343" y="2003.4336">0x0c2a..e1c1</text><rect fill="#E2E2F0" height="46.9766" rx="2.5" ry="2.5" style="stroke:#181818;stroke-width:0.5;" width="106" x="1471.5" y="71"/><text fill="#000000" font-family="sans-serif" font-size="14" font-style="italic" lengthAdjust="spacing" textLength="88" x="1480.5" y="91.5352">«TestERC20»</text><text fill="#000000" font-family="sans-serif" font-size="14" lengthAdjust="spacing" textLength="92" x="1478.5" y="108.0234">0x5fbd..0aa3</text><rect fill="#E2E2F0" height="46.9766" rx="2.5" ry="2.5" style="stroke:#181818;stroke-width:0.5;" width="106" x="1471.5" y="1966.4102"/><text fill="#000000" font-family="sans-serif" font-size="14" font-style="italic" lengthAdjust="spacing" textLength="88" x="1480.5" y="1986.9453">«TestERC20»</text><text fill="#000000" font-family="sans-serif" font-size="14" lengthAdjust="spacing" textLength="92" x="1478.5" y="2003.4336">0x5fbd..0aa3</text><rect fill="#E2E2F0" height="46.9766" rx="2.5" ry="2.5" style="stroke:#181818;stroke-width:0.5;" width="107" x="1635" y="71"/><text fill="#000000" font-family="sans-serif" font-size="14" font-style="italic" lengthAdjust="spacing" textLength="88" x="1644.5" y="91.5352">«TestERC20»</text><text fill="#000000" font-family="sans-serif" font-size="14" lengthAdjust="spacing" textLength="93" x="1642" y="108.0234">0xe7f1..0512</text><rect fill="#E2E2F0" height="46.9766" rx="2.5" ry="2.5" style="stroke:#181818;stroke-width:0.5;" width="107" x="1635" y="1966.4102"/><text fill="#000000" font-family="sans-serif" font-size="14" font-style="italic" lengthAdjust="spacing" textLength="88" x="1644.5" y="1986.9453">«TestERC20»</text><text fill="#000000" font-family="sans-serif" font-size="14" lengthAdjust="spacing" textLength="93" x="1642" y="2003.4336">0xe7f1..0512</text><rect fill="#FFFFFF" height="1442.291" style="stroke:#181818;stroke-width:1.0;" width="10" x="500" y="349.3242"/><rect fill="#FFFFFF" height="1263.8066" style="stroke:#181818;stroke-width:1.0;" width="10" x="505" y="438.5664"/><rect fill="#FFFFFF" height="1353.0488" style="stroke:#181818;stroke-width:1.0;" width="10" x="962" y="393.9453"/><rect fill="#FFFFFF" height="544.627" style="stroke:#181818;stroke-width:1.0;" width="10" x="967" y="620.9824"/><rect fill="#FFFFFF" height="133.8633" style="stroke:#181818;stroke-width:1.0;" width="10" x="967" y="1330.0938"/><rect fill="#FFFFFF" height="118.5527" style="stroke:#181818;stroke-width:1.0;" width="10" x="967" y="1539.1992"/><rect fill="#FFFFFF" height="44.6211" style="stroke:#181818;stroke-width:1.0;" width="10" x="1384" y="818.709"/><rect fill="#FFFFFF" height="44.6211" style="stroke:#181818;stroke-width:1.0;" width="10" x="1384" y="1076.3672"/><rect fill="#FFFFFF" height="44.6211" style="stroke:#181818;stroke-width:1.0;" width="10" x="1519.5" y="1240.8516"/><rect fill="#FFFFFF" height="44.6211" style="stroke:#181818;stroke-width:1.0;" width="10" x="1519.5" y="1374.7148"/><rect fill="#FFFFFF" height="44.6211" style="stroke:#181818;stroke-width:1.0;" width="10" x="1683.5" y="1599.1309"/><polygon fill="#181818" points="488,345.3242,498,349.3242,488,353.3242,492,349.3242" style="stroke:#181818;stroke-width:1.0;"/><line style="stroke:#181818;stroke-width:1.0;" x1="53" x2="494" y1="349.3242" y2="349.3242"/><text fill="#000000" font-family="sans-serif" font-size="13" lengthAdjust="spacing" textLength="36" x="60" y="145.5449">swap(</text><text fill="#000000" font-family="sans-serif" font-size="13" lengthAdjust="spacing" textLength="34" x="60" y="160.8555">key: [</text><text fill="#000000" font-family="sans-serif" font-size="13" lengthAdjust="spacing" textLength="161" x="68" y="176.166">currency0: 0x5FbD..0aa3,</text><text fill="#000000" font-family="sans-serif" font-size="13" lengthAdjust="spacing" textLength="158" x="68" y="191.4766">currency1: 0xe7f1..0512,</text><text fill="#000000" font-family="sans-serif" font-size="13" lengthAdjust="spacing" textLength="67" x="68" y="206.7871">fee: 3,000,</text><text fill="#000000" font-family="sans-serif" font-size="13" lengthAdjust="spacing" textLength="101" x="68" y="222.0977">tickSpacing: 60,</text><text fill="#000000" font-family="sans-serif" font-size="13" lengthAdjust="spacing" textLength="139" x="68" y="237.4082">hooks: 0x0c2a..e1c1],</text><text fill="#000000" font-family="sans-serif" font-size="13" lengthAdjust="spacing" textLength="58" x="60" y="252.7188">params: [</text><text fill="#000000" font-family="sans-serif" font-size="13" lengthAdjust="spacing" textLength="109" x="68" y="268.0293">zeroForOne: true,</text><text fill="#000000" font-family="sans-serif" font-size="13" lengthAdjust="spacing" textLength="141" x="68" y="283.3398">amountSpecified: 100,</text><text fill="#000000" font-family="sans-serif" font-size="13" lengthAdjust="spacing" textLength="219" x="68" y="298.6504">sqrtPriceLimitX96: 4,295,128,740],</text><text fill="#000000" font-family="sans-serif" font-size="13" lengthAdjust="spacing" textLength="87" x="60" y="313.9609">testSettings: [</text><text fill="#000000" font-family="sans-serif" font-size="13" lengthAdjust="spacing" textLength="140" x="68" y="329.2715">withdrawTokens: true,</text><text fill="#000000" font-family="sans-serif" font-size="13" lengthAdjust="spacing" textLength="164" x="68" y="344.582">settleUsingTransfer: true])</text><polygon fill="#181818" points="950,389.9453,960,393.9453,950,397.9453,954,393.9453" style="stroke:#181818;stroke-width:1.0;"/><line style="stroke:#181818;stroke-width:1.0;" x1="510" x2="956" y1="393.9453" y2="393.9453"/><text fill="#000000" font-family="sans-serif" font-size="13" lengthAdjust="spacing" textLength="31" x="517" y="373.8926">lock(</text><text fill="#000000" font-family="sans-serif" font-size="13" lengthAdjust="spacing" textLength="190" x="517" y="389.2031">data: 0x00000000..000276a4)</text><polygon fill="#181818" points="526,434.5664,516,438.5664,526,442.5664,522,438.5664" style="stroke:#181818;stroke-width:1.0;"/><line style="stroke:#181818;stroke-width:1.0;" x1="520" x2="961" y1="438.5664" y2="438.5664"/><text fill="#000000" font-family="sans-serif" font-size="13" lengthAdjust="spacing" textLength="87" x="532" y="418.5137">lockAcquired(</text><text fill="#000000" font-family="sans-serif" font-size="13" lengthAdjust="spacing" textLength="214" x="532" y="433.8242">rawData: 0x00000000..000276a4)</text><polygon fill="#181818" points="955,616.9824,965,620.9824,955,624.9824,959,620.9824" style="stroke:#181818;stroke-width:1.0;"/><line style="stroke:#181818;stroke-width:1.0;" x1="515" x2="961" y1="620.9824" y2="620.9824"/><text fill="#000000" font-family="sans-serif" font-size="13" lengthAdjust="spacing" textLength="36" x="522" y="463.1348">swap(</text><text fill="#000000" font-family="sans-serif" font-size="13" lengthAdjust="spacing" textLength="34" x="522" y="478.4453">key: [</text><text fill="#000000" font-family="sans-serif" font-size="13" lengthAdjust="spacing" textLength="161" x="530" y="493.7559">currency0: 0x5FbD..0aa3,</text><text fill="#000000" font-family="sans-serif" font-size="13" lengthAdjust="spacing" textLength="158" x="530" y="509.0664">currency1: 0xe7f1..0512,</text><text fill="#000000" font-family="sans-serif" font-size="13" lengthAdjust="spacing" textLength="67" x="530" y="524.377">fee: 3,000,</text><text fill="#000000" font-family="sans-serif" font-size="13" lengthAdjust="spacing" textLength="101" x="530" y="539.6875">tickSpacing: 60,</text><text fill="#000000" font-family="sans-serif" font-size="13" lengthAdjust="spacing" textLength="139" x="530" y="554.998">hooks: 0x0c2a..e1c1],</text><text fill="#000000" font-family="sans-serif" font-size="13" lengthAdjust="spacing" textLength="58" x="522" y="570.3086">params: [</text><text fill="#000000" font-family="sans-serif" font-size="13" lengthAdjust="spacing" textLength="109" x="530" y="585.6191">zeroForOne: true,</text><text fill="#000000" font-family="sans-serif" font-size="13" lengthAdjust="spacing" textLength="141" x="530" y="600.9297">amountSpecified: 100,</text><text fill="#000000" font-family="sans-serif" font-size="13" lengthAdjust="spacing" textLength="219" x="530" y="616.2402">sqrtPriceLimitX96: 4,295,128,740])</text><polygon fill="#181818" points="1372,814.709,1382,818.709,1372,822.709,1376,818.709" style="stroke:#181818;stroke-width:1.0;"/><line style="stroke:#181818;stroke-width:1.0;" x1="977" x2="1378" y1="818.709" y2="818.709"/><text fill="#000000" font-family="sans-serif" font-size="13" lengthAdjust="spacing" textLength="76" x="984" y="645.5508">beforeSwap(</text><text fill="#000000" font-family="sans-serif" font-size="13" lengthAdjust="spacing" textLength="93" x="984" y="660.8613">0xDc64..F6C9,</text><text fill="#000000" font-family="sans-serif" font-size="13" lengthAdjust="spacing" textLength="4" x="984" y="676.1719">[</text><text fill="#000000" font-family="sans-serif" font-size="13" lengthAdjust="spacing" textLength="161" x="992" y="691.4824">currency0: 0x5FbD..0aa3,</text><text fill="#000000" font-family="sans-serif" font-size="13" lengthAdjust="spacing" textLength="158" x="992" y="706.793">currency1: 0xe7f1..0512,</text><text fill="#000000" font-family="sans-serif" font-size="13" lengthAdjust="spacing" textLength="67" x="992" y="722.1035">fee: 3,000,</text><text fill="#000000" font-family="sans-serif" font-size="13" lengthAdjust="spacing" textLength="101" x="992" y="737.4141">tickSpacing: 60,</text><text fill="#000000" font-family="sans-serif" font-size="13" lengthAdjust="spacing" textLength="139" x="992" y="752.7246">hooks: 0x0c2a..e1c1],</text><text fill="#000000" font-family="sans-serif" font-size="13" lengthAdjust="spacing" textLength="4" x="984" y="768.0352">[</text><text fill="#000000" font-family="sans-serif" font-size="13" lengthAdjust="spacing" textLength="109" x="992" y="783.3457">zeroForOne: true,</text><text fill="#000000" font-family="sans-serif" font-size="13" lengthAdjust="spacing" textLength="141" x="992" y="798.6563">amountSpecified: 100,</text><text fill="#000000" font-family="sans-serif" font-size="13" lengthAdjust="spacing" textLength="219" x="992" y="813.9668">sqrtPriceLimitX96: 4,295,128,740])</text><polygon fill="#181818" points="988,859.3301,978,863.3301,988,867.3301,984,863.3301" style="stroke:#181818;stroke-width:1.0;"/><line style="stroke:#181818;stroke-width:1.0;stroke-dasharray:2.0,2.0;" x1="982" x2="1388" y1="863.3301" y2="863.3301"/><text fill="#000000" font-family="sans-serif" font-size="13" lengthAdjust="spacing" textLength="4" x="994" y="843.2773"> </text><text fill="#000000" font-family="sans-serif" font-size="13" lengthAdjust="spacing" textLength="74" x="994" y="858.5879">0xb3f97f80</text><polygon fill="#181818" points="1372,1072.3672,1382,1076.3672,1372,1080.3672,1376,1076.3672" style="stroke:#181818;stroke-width:1.0;"/><line style="stroke:#181818;stroke-width:1.0;" x1="977" x2="1378" y1="1076.3672" y2="1076.3672"/><text fill="#000000" font-family="sans-serif" font-size="13" lengthAdjust="spacing" textLength="65" x="984" y="887.8984">afterSwap(</text><text fill="#000000" font-family="sans-serif" font-size="13" lengthAdjust="spacing" textLength="93" x="984" y="903.209">0xDc64..F6C9,</text><text fill="#000000" font-family="sans-serif" font-size="13" lengthAdjust="spacing" textLength="4" x="984" y="918.5195">[</text><text fill="#000000" font-family="sans-serif" font-size="13" lengthAdjust="spacing" textLength="161" x="992" y="933.8301">currency0: 0x5FbD..0aa3,</text><text fill="#000000" font-family="sans-serif" font-size="13" lengthAdjust="spacing" textLength="158" x="992" y="949.1406">currency1: 0xe7f1..0512,</text><text fill="#000000" font-family="sans-serif" font-size="13" lengthAdjust="spacing" textLength="67" x="992" y="964.4512">fee: 3,000,</text><text fill="#000000" font-family="sans-serif" font-size="13" lengthAdjust="spacing" textLength="101" x="992" y="979.7617">tickSpacing: 60,</text><text fill="#000000" font-family="sans-serif" font-size="13" lengthAdjust="spacing" textLength="139" x="992" y="995.0723">hooks: 0x0c2a..e1c1],</text><text fill="#000000" font-family="sans-serif" font-size="13" lengthAdjust="spacing" textLength="4" x="984" y="1010.3828">[</text><text fill="#000000" font-family="sans-serif" font-size="13" lengthAdjust="spacing" textLength="109" x="992" y="1025.6934">zeroForOne: true,</text><text fill="#000000" font-family="sans-serif" font-size="13" lengthAdjust="spacing" textLength="141" x="992" y="1041.0039">amountSpecified: 100,</text><text fill="#000000" font-family="sans-serif" font-size="13" lengthAdjust="spacing" textLength="219" x="992" y="1056.3145">sqrtPriceLimitX96: 4,295,128,740],</text><text fill="#000000" font-family="sans-serif" font-size="13" lengthAdjust="spacing" textLength="388" x="984" y="1071.625">34,368,519,059,014,784,809,800,,835,350,608,589,356,958)</text><polygon fill="#181818" points="988,1116.9883,978,1120.9883,988,1124.9883,984,1120.9883" style="stroke:#181818;stroke-width:1.0;"/><line style="stroke:#181818;stroke-width:1.0;stroke-dasharray:2.0,2.0;" x1="982" x2="1388" y1="1120.9883" y2="1120.9883"/><text fill="#000000" font-family="sans-serif" font-size="13" lengthAdjust="spacing" textLength="4" x="994" y="1100.9355"> </text><text fill="#000000" font-family="sans-serif" font-size="13" lengthAdjust="spacing" textLength="76" x="994" y="1116.2461">0xa5aa370a</text><polygon fill="#181818" points="526,1161.6094,516,1165.6094,526,1169.6094,522,1165.6094" style="stroke:#181818;stroke-width:1.0;"/><line style="stroke:#181818;stroke-width:1.0;stroke-dasharray:2.0,2.0;" x1="520" x2="961" y1="1165.6094" y2="1165.6094"/><text fill="#000000" font-family="sans-serif" font-size="13" lengthAdjust="spacing" textLength="4" x="532" y="1145.5566"> </text><text fill="#000000" font-family="sans-serif" font-size="13" lengthAdjust="spacing" textLength="423" x="532" y="1160.8672">delta: 34,368,519,059,014,784,809,800,,835,350,608,589,356,958</text><polygon fill="#181818" points="1507.5,1236.8516,1517.5,1240.8516,1507.5,1244.8516,1511.5,1240.8516" style="stroke:#181818;stroke-width:1.0;"/><line style="stroke:#181818;stroke-width:1.0;" x1="515" x2="1513.5" y1="1240.8516" y2="1240.8516"/><text fill="#000000" font-family="sans-serif" font-size="13" lengthAdjust="spacing" textLength="85" x="522" y="1190.1777">transferFrom(</text><text fill="#000000" font-family="sans-serif" font-size="13" lengthAdjust="spacing" textLength="138" x="522" y="1205.4883">sender: 0xf39F..2266,</text><text fill="#000000" font-family="sans-serif" font-size="13" lengthAdjust="spacing" textLength="149" x="522" y="1220.7988">recipient: 0x9fE4..a6e0,</text><text fill="#000000" font-family="sans-serif" font-size="13" lengthAdjust="spacing" textLength="84" x="522" y="1236.1094">amount: 100)</text><polygon fill="#181818" points="526,1281.4727,516,1285.4727,526,1289.4727,522,1285.4727" style="stroke:#181818;stroke-width:1.0;"/><line style="stroke:#181818;stroke-width:1.0;stroke-dasharray:2.0,2.0;" x1="520" x2="1523.5" y1="1285.4727" y2="1285.4727"/><text fill="#000000" font-family="sans-serif" font-size="13" lengthAdjust="spacing" textLength="4" x="532" y="1265.4199"> </text><text fill="#000000" font-family="sans-serif" font-size="13" lengthAdjust="spacing" textLength="25" x="532" y="1280.7305">true</text><polygon fill="#181818" points="955,1326.0938,965,1330.0938,955,1334.0938,959,1330.0938" style="stroke:#181818;stroke-width:1.0;"/><line style="stroke:#181818;stroke-width:1.0;" x1="515" x2="961" y1="1330.0938" y2="1330.0938"/><text fill="#000000" font-family="sans-serif" font-size="13" lengthAdjust="spacing" textLength="39" x="522" y="1310.041">settle(</text><text fill="#000000" font-family="sans-serif" font-size="13" lengthAdjust="spacing" textLength="153" x="522" y="1325.3516">currency: 0x5FbD..0aa3)</text><polygon fill="#181818" points="1507.5,1370.7148,1517.5,1374.7148,1507.5,1378.7148,1511.5,1374.7148" style="stroke:#181818;stroke-width:1.0;"/><line style="stroke:#181818;stroke-width:1.0;" x1="977" x2="1513.5" y1="1374.7148" y2="1374.7148"/><text fill="#000000" font-family="sans-serif" font-size="13" lengthAdjust="spacing" textLength="67" x="984" y="1354.6621">balanceOf(</text><text fill="#000000" font-family="sans-serif" font-size="13" lengthAdjust="spacing" textLength="86" x="984" y="1369.9727">0x9fE4..a6e0)</text><polygon fill="#181818" points="988,1415.3359,978,1419.3359,988,1423.3359,984,1419.3359" style="stroke:#181818;stroke-width:1.0;"/><line style="stroke:#181818;stroke-width:1.0;stroke-dasharray:2.0,2.0;" x1="982" x2="1523.5" y1="1419.3359" y2="1419.3359"/><text fill="#000000" font-family="sans-serif" font-size="13" lengthAdjust="spacing" textLength="4" x="994" y="1399.2832"> </text><text fill="#000000" font-family="sans-serif" font-size="13" lengthAdjust="spacing" textLength="188" x="994" y="1414.5938">10,,089,770,927,164,204,536</text><polygon fill="#181818" points="526,1459.957,516,1463.957,526,1467.957,522,1463.957" style="stroke:#181818;stroke-width:1.0;"/><line style="stroke:#181818;stroke-width:1.0;stroke-dasharray:2.0,2.0;" x1="520" x2="961" y1="1463.957" y2="1463.957"/><text fill="#000000" font-family="sans-serif" font-size="13" lengthAdjust="spacing" textLength="4" x="532" y="1443.9043"> </text><text fill="#000000" font-family="sans-serif" font-size="13" lengthAdjust="spacing" textLength="59" x="532" y="1459.2148">paid: 100</text><polygon fill="#181818" points="955,1535.1992,965,1539.1992,955,1543.1992,959,1539.1992" style="stroke:#181818;stroke-width:1.0;"/><line style="stroke:#181818;stroke-width:1.0;" x1="515" x2="961" y1="1539.1992" y2="1539.1992"/><text fill="#000000" font-family="sans-serif" font-size="13" lengthAdjust="spacing" textLength="31" x="522" y="1488.5254">take(</text><text fill="#000000" font-family="sans-serif" font-size="13" lengthAdjust="spacing" textLength="150" x="522" y="1503.8359">currency: 0xe7f1..0512,</text><text fill="#000000" font-family="sans-serif" font-size="13" lengthAdjust="spacing" textLength="109" x="522" y="1519.1465">to: 0xf39F..2266,</text><text fill="#000000" font-family="sans-serif" font-size="13" lengthAdjust="spacing" textLength="76" x="522" y="1534.457">amount: 98)</text><polygon fill="#181818" points="1671.5,1595.1309,1681.5,1599.1309,1671.5,1603.1309,1675.5,1599.1309" style="stroke:#181818;stroke-width:1.0;"/><line style="stroke:#181818;stroke-width:1.0;" x1="977" x2="1677.5" y1="1599.1309" y2="1599.1309"/><text fill="#000000" font-family="sans-serif" font-size="13" lengthAdjust="spacing" textLength="53" x="984" y="1563.7676">transfer(</text><text fill="#000000" font-family="sans-serif" font-size="13" lengthAdjust="spacing" textLength="151" x="984" y="1579.0781">recipient: 0xf39F..2266,</text><text fill="#000000" font-family="sans-serif" font-size="13" lengthAdjust="spacing" textLength="76" x="984" y="1594.3887">amount: 98)</text><polygon fill="#181818" points="988,1639.752,978,1643.752,988,1647.752,984,1643.752" style="stroke:#181818;stroke-width:1.0;"/><line style="stroke:#181818;stroke-width:1.0;stroke-dasharray:2.0,2.0;" x1="982" x2="1687.5" y1="1643.752" y2="1643.752"/><text fill="#000000" font-family="sans-serif" font-size="13" lengthAdjust="spacing" textLength="4" x="994" y="1623.6992"> </text><text fill="#000000" font-family="sans-serif" font-size="13" lengthAdjust="spacing" textLength="25" x="994" y="1639.0098">true</text><polygon fill="#181818" points="526,1653.752,516,1657.752,526,1661.752,522,1657.752" style="stroke:#181818;stroke-width:1.0;"/><line style="stroke:#181818;stroke-width:1.0;stroke-dasharray:2.0,2.0;" x1="520" x2="961" y1="1657.752" y2="1657.752"/><polygon fill="#181818" points="950,1698.373,960,1702.373,950,1706.373,954,1702.373" style="stroke:#181818;stroke-width:1.0;"/><line style="stroke:#181818;stroke-width:1.0;stroke-dasharray:2.0,2.0;" x1="510" x2="956" y1="1702.373" y2="1702.373"/><text fill="#000000" font-family="sans-serif" font-size="13" lengthAdjust="spacing" textLength="4" x="517" y="1682.3203"> </text><text fill="#000000" font-family="sans-serif" font-size="13" lengthAdjust="spacing" textLength="133" x="517" y="1697.6309">0x00000000..ffffff9e</text><polygon fill="#181818" points="521,1742.9941,511,1746.9941,521,1750.9941,517,1746.9941" style="stroke:#181818;stroke-width:1.0;"/><line style="stroke:#181818;stroke-width:1.0;stroke-dasharray:2.0,2.0;" x1="515" x2="966" y1="1746.9941" y2="1746.9941"/><text fill="#000000" font-family="sans-serif" font-size="13" lengthAdjust="spacing" textLength="4" x="527" y="1726.9414"> </text><text fill="#000000" font-family="sans-serif" font-size="13" lengthAdjust="spacing" textLength="177" x="527" y="1742.252">result: 0x00000000..ffffff9e</text><polygon fill="#181818" points="64,1787.6152,54,1791.6152,64,1795.6152,60,1791.6152" style="stroke:#181818;stroke-width:1.0;"/><line style="stroke:#181818;stroke-width:1.0;stroke-dasharray:2.0,2.0;" x1="58" x2="504" y1="1791.6152" y2="1791.6152"/><text fill="#000000" font-family="sans-serif" font-size="13" lengthAdjust="spacing" textLength="4" x="70" y="1771.5625"> </text><text fill="#000000" font-family="sans-serif" font-size="13" lengthAdjust="spacing" textLength="423" x="70" y="1786.873">delta: 34,368,519,059,014,784,809,800,,835,350,608,589,356,958</text><path d="M771,1804.6152 L771,1951.6152 L1163,1951.6152 L1163,1814.6152 L1153,1804.6152 L771,1804.6152 " fill="#00FFFF" style="stroke:#181818;stroke-width:0.5;"/><path d="M1153,1804.6152 L1153,1814.6152 L1163,1814.6152 L1153,1804.6152 " fill="#00FFFF" style="stroke:#181818;stroke-width:0.5;"/><text fill="#000000" font-family="sans-serif" font-size="13" lengthAdjust="spacing" textLength="36" x="777" y="1822.1836">Swap:</text><text fill="#000000" font-family="sans-serif" font-size="13" lengthAdjust="spacing" textLength="172" x="785" y="1837.4941">id: 0xb95b78c2..bf609442,</text><text fill="#000000" font-family="sans-serif" font-size="13" lengthAdjust="spacing" textLength="143" x="785" y="1852.8047">sender: 0xDc64..F6C9,</text><text fill="#000000" font-family="sans-serif" font-size="13" lengthAdjust="spacing" textLength="92" x="785" y="1868.1152">amount0: 100,</text><text fill="#000000" font-family="sans-serif" font-size="13" lengthAdjust="spacing" textLength="92" x="785" y="1883.4258">amount1: -98,</text><text fill="#000000" font-family="sans-serif" font-size="13" lengthAdjust="spacing" textLength="363" x="785" y="1898.7363">sqrtPriceX96: 79,228,162,514,,264,337,332,091,014,039,</text><text fill="#000000" font-family="sans-serif" font-size="13" lengthAdjust="spacing" textLength="252" x="785" y="1914.0469">liquidity: 30,,000,000,000,000,000,000,</text><text fill="#000000" font-family="sans-serif" font-size="13" lengthAdjust="spacing" textLength="52" x="785" y="1929.3574">tick: -1,</text><text fill="#000000" font-family="sans-serif" font-size="13" lengthAdjust="spacing" textLength="63" x="785" y="1944.668">fee: 3,000</text><path d="M1341,1804.6152 L1341,1875.6152 L1437,1875.6152 L1437,1814.6152 L1427,1804.6152 L1341,1804.6152 " fill="#00FFFF" style="stroke:#181818;stroke-width:0.5;"/><path d="M1427,1804.6152 L1427,1814.6152 L1437,1814.6152 L1427,1804.6152 " fill="#00FFFF" style="stroke:#181818;stroke-width:0.5;"/><text fill="#000000" font-family="sans-serif" font-size="13" lengthAdjust="spacing" textLength="75" x="1347" y="1822.1836">BeforeSwap:</text><text fill="#000000" font-family="sans-serif" font-size="13" lengthAdjust="spacing" textLength="64" x="1355" y="1837.4941">counter: 1</text><text fill="#000000" font-family="sans-serif" font-size="13" lengthAdjust="spacing" textLength="67" x="1347" y="1852.8047">AfterSwap:</text><text fill="#000000" font-family="sans-serif" font-size="13" lengthAdjust="spacing" textLength="64" x="1355" y="1868.1152">counter: 1</text><path d="M1447,1804.6152 L1447,1875.6152 L1602,1875.6152 L1602,1814.6152 L1592,1804.6152 L1447,1804.6152 " fill="#00FFFF" style="stroke:#181818;stroke-width:0.5;"/><path d="M1592,1804.6152 L1592,1814.6152 L1602,1814.6152 L1592,1804.6152 " fill="#00FFFF" style="stroke:#181818;stroke-width:0.5;"/><text fill="#000000" font-family="sans-serif" font-size="13" lengthAdjust="spacing" textLength="56" x="1453" y="1822.1836">Transfer:</text><text fill="#000000" font-family="sans-serif" font-size="13" lengthAdjust="spacing" textLength="126" x="1461" y="1837.4941">from: 0xf39F..2266,</text><text fill="#000000" font-family="sans-serif" font-size="13" lengthAdjust="spacing" textLength="107" x="1461" y="1852.8047">to: 0x9fE4..a6e0,</text><text fill="#000000" font-family="sans-serif" font-size="13" lengthAdjust="spacing" textLength="65" x="1461" y="1868.1152">value: 100</text><path d="M1612,1804.6152 L1612,1875.6152 L1765,1875.6152 L1765,1814.6152 L1755,1804.6152 L1612,1804.6152 " fill="#00FFFF" style="stroke:#181818;stroke-width:0.5;"/><path d="M1755,1804.6152 L1755,1814.6152 L1765,1814.6152 L1755,1804.6152 " fill="#00FFFF" style="stroke:#181818;stroke-width:0.5;"/><text fill="#000000" font-family="sans-serif" font-size="13" lengthAdjust="spacing" textLength="56" x="1618" y="1822.1836">Transfer:</text><text fill="#000000" font-family="sans-serif" font-size="13" lengthAdjust="spacing" textLength="124" x="1626" y="1837.4941">from: 0x9fE4..a6e0,</text><text fill="#000000" font-family="sans-serif" font-size="13" lengthAdjust="spacing" textLength="109" x="1626" y="1852.8047">to: 0xf39F..2266,</text><text fill="#000000" font-family="sans-serif" font-size="13" lengthAdjust="spacing" textLength="57" x="1626" y="1868.1152">value: 98</text><!--SRC=[tLPRRzis57xNho3QbmvWDOeI9L8e0cH9lJsiQ36dm82r3nH5fe9joQ6e9Dsltw5aIRuazR1X6503X7L8djjtRdILMsj47al3cOvqN2X64yvu6PlIP9HpRHGlcM6gB5AkPPBGakbOCGahfOeaaXB9iY1GSkkgfaORMTMrTXWLwqQj4CDesTKOKO8kkrluep4Y8ezv7iNevtStWLIkiUW5UJInC658QPg-GB95dlG42hRIkafLMraxVwzKQHA69bMYl-T9Jw0tRpuqpNhv8BStkdKN5yTymcZWawacFPydFR7ZUoThUQljAHjHL8QXZbJKitdI4y1srNIrq_QNfbcTiZ5Jb658f8nxDazw0jYyTMz_kwBab4bd9W8c5j6UoPEUE68A9cXUNqpkvwW5przzgbVwQux- -5GZf3fhTQs-aXm2p1R5zM0FtZ-B_DcijZypMkSeneIGdWG3LykjL5LzcwDqsFi2FhUUTKRdCno0EtBJxjJ_gMspQEpx6gGvs-cUKMuyQCkjLfMfT9cZQAUblRFkWwsK_hNQLEvtaUOemLGm756EiuHuyGv0M6hdm99HoKFblfHMFjmqArstUufQkBVM7rkuUsDbtHfjXzFFF_YKg-wbqnDumPH4WEYO63do2Go8bjB9tjVT3w0YX6QfJFP4ZLp1b5S7mV6YBjLTLrbTWaYm-FhlI3rZu7SUydFmZhMOeqARnkhb00TvlEvRn2Az4g3eVmBcFmPaz3smsdMszbuNiH6PuSzX90qqg-yU8hWL9pXEEMQHm8J1YXASyGHp8c0HZ7dCSCm8JWbSuWA-KomO_pQuaW4M6P7JLgdNle3_eRA3WXw7WmTWQ5KBssmWJAq6DTO31or_CGn7SD02BDjArywV2FDsDzRWPC2jXslFdL7-PBl7-RcMqlTDq3s6_30RpfNax4eXrx9M-htfqsssybjsHG0O0P2oZ611Cnob45oIO1Qdqvsjh8PyUCO19rV7vXyah6jEy1nH4_oSU-D4dYFrwYWSvmMFCWwZCH1x2JVF1TF_X9uEhMwxjJiS7YUN_cL-1dK3jZRtsiulfPVohfE1Ro5vW90F0pGTmOgCAng6XKc9WFSX3lpq7HDthyy4OrsJePud6hhAQy5xlh6y-yhE1APGrb5AmVu4Omhf4CSPB8g9Y7fdIDmBNbSmMylAGRnZdqGW_gaL3Fq9z4N-UsvT0HYClCj1y2EQNPzUUuFhFqrZnWEWXlSVE1DSZhtrQFzfgTDZS90wlK-yHL3uHsdaRMwEAXtsxkMwqqCXFArbUZq-h-LGuabbp5e4dvNy1G00]--></g></svg>