<?xml version="1.0" encoding="us-ascii" standalone="no"?><svg xmlns="http://www.w3.org/2000/svg" xmlns:xlink="http://www.w3.org/1999/xlink" contentStyleType="text/css" height="935px" preserveAspectRatio="none" style="width:728px;height:935px;background:#FFFFFF;" version="1.1" viewBox="0 0 728 935" width="728px" zoomAndPan="magnify"><defs/><g><text fill="#000000" font-family="sans-serif" font-size="14" font-weight="bold" lengthAdjust="spacing" textLength="179" x="276" y="28.5352">Uniswap v4 - Pool Setup</text><rect fill="#FFFFFF" height="72.6211" style="stroke:#181818;stroke-width:1.0;" width="10" x="271" y="205.2188"/><rect fill="#FFFFFF" height="14" style="stroke:#181818;stroke-width:1.0;" width="10" x="408" y="234.5293"/><rect fill="#FFFFFF" height="29.3105" style="stroke:#181818;stroke-width:1.0;" width="10" x="408" y="566.8086"/><rect fill="#FFFFFF" height="29.3105" style="stroke:#181818;stroke-width:1.0;" width="10" x="408" y="717.293"/><rect fill="#FFFFFF" height="330.2793" style="stroke:#181818;stroke-width:1.0;" width="10" x="611" y="445.6348"/><rect fill="none" height="149.8633" style="stroke:#000000;stroke-width:1.5;" width="611" x="10" y="135.9766"/><rect fill="none" height="611.248" style="stroke:#000000;stroke-width:1.5;" width="712" x="10" y="299.8398"/><line style="stroke:#181818;stroke-width:0.5;stroke-dasharray:5.0,5.0;" x1="68" x2="68" y1="118.9766" y2="928.0879"/><line style="stroke:#181818;stroke-width:0.5;stroke-dasharray:5.0,5.0;" x1="276" x2="276" y1="118.9766" y2="928.0879"/><line style="stroke:#181818;stroke-width:0.5;stroke-dasharray:5.0,5.0;" x1="413" x2="413" y1="118.9766" y2="928.0879"/><line style="stroke:#181818;stroke-width:0.5;stroke-dasharray:5.0,5.0;" x1="615.5" x2="615.5" y1="118.9766" y2="928.0879"/><text fill="#000000" font-family="sans-serif" font-size="14" lengthAdjust="spacing" textLength="90" x="20" y="116.0234">0xf39f..2266</text><ellipse cx="68" cy="50.9883" fill="#E2E2F0" rx="8" ry="8" style="stroke:#181818;stroke-width:0.5;"/><path d="M68,58.9883 L68,85.9883 M55,66.9883 L81,66.9883 M68,85.9883 L55,100.9883 M68,85.9883 L81,100.9883 " fill="none" style="stroke:#181818;stroke-width:0.5;"/><rect fill="#E2E2F0" height="46.9766" rx="2.5" ry="2.5" style="stroke:#181818;stroke-width:0.5;" width="134" x="209" y="71"/><text fill="#000000" font-family="sans-serif" font-size="14" font-style="italic" lengthAdjust="spacing" textLength="120" x="216" y="91.5352">&#171;CounterFactory&#187;</text><text fill="#000000" font-family="sans-serif" font-size="14" lengthAdjust="spacing" textLength="96" x="228" y="108.0234">0x2279..ebe6</text><rect fill="#E2E2F0" height="46.9766" rx="2.5" ry="2.5" style="stroke:#181818;stroke-width:0.5;" width="120" x="353" y="71"/><text fill="#000000" font-family="sans-serif" font-size="14" font-style="italic" lengthAdjust="spacing" textLength="106" x="360" y="91.5352">&#171;CounterHook&#187;</text><text fill="#000000" font-family="sans-serif" font-size="14" lengthAdjust="spacing" textLength="93" x="366.5" y="108.0234">0x3c11..a8c1</text><rect fill="#E2E2F0" height="63.4648" rx="2.5" ry="2.5" style="stroke:#181818;stroke-width:0.5;" width="143" x="544.5" y="54.5117"/><text fill="#000000" font-family="sans-serif" font-size="14" font-style="italic" lengthAdjust="spacing" textLength="129" x="551.5" y="75.0469">&#171;Uniswap v4 Core&#187;</text><text fill="#000000" font-family="sans-serif" font-size="14" font-style="italic" lengthAdjust="spacing" textLength="104" x="564" y="91.5352">&#171;PoolManager&#187;</text><text fill="#000000" font-family="sans-serif" font-size="14" lengthAdjust="spacing" textLength="85" x="573.5" y="108.0234">0xcf7e..0fc9</text><rect fill="#FFFFFF" height="72.6211" style="stroke:#181818;stroke-width:1.0;" width="10" x="271" y="205.2188"/><rect fill="#FFFFFF" height="14" style="stroke:#181818;stroke-width:1.0;" width="10" x="408" y="234.5293"/><rect fill="#FFFFFF" height="29.3105" style="stroke:#181818;stroke-width:1.0;" width="10" x="408" y="566.8086"/><rect fill="#FFFFFF" height="29.3105" style="stroke:#181818;stroke-width:1.0;" width="10" x="408" y="717.293"/><rect fill="#FFFFFF" height="330.2793" style="stroke:#181818;stroke-width:1.0;" width="10" x="611" y="445.6348"/><path d="M10,135.9766 L616,135.9766 L616,143.2871 L606,153.2871 L10,153.2871 L10,135.9766 " fill="#EEEEEE" style="stroke:#000000;stroke-width:1.5;"/><rect fill="none" height="149.8633" style="stroke:#000000;stroke-width:1.5;" width="611" x="10" y="135.9766"/><text fill="#000000" font-family="sans-serif" font-size="13" font-weight="bold" lengthAdjust="spacing" textLength="561" x="25" y="149.5449">0xfabb35401132c449e2ef6887892d1e2f43e62480e9f1932aa6c7e8308be7eba5</text><polygon fill="#181818" points="259,201.2188,269,205.2188,259,209.2188,263,205.2188" style="stroke:#181818;stroke-width:1.0;"/><line style="stroke:#181818;stroke-width:1.0;" x1="68" x2="265" y1="205.2188" y2="205.2188"/><text fill="#000000" font-family="sans-serif" font-size="13" lengthAdjust="spacing" textLength="79" x="75" y="169.8555">mineDeploy(</text><text fill="#000000" font-family="sans-serif" font-size="13" lengthAdjust="spacing" textLength="176" x="83" y="185.166">poolManager: 0xCf7E..0Fc9,</text><text fill="#000000" font-family="sans-serif" font-size="13" lengthAdjust="spacing" textLength="88" x="83" y="200.4766">startSalt: 471)</text><ellipse cx="407.5" cy="233.7793" fill="none" rx="4" ry="4" style="stroke:#181818;stroke-width:1.5;"/><polygon fill="#181818" points="390.5,230.5293,400.5,234.5293,390.5,238.5293,394.5,234.5293" style="stroke:#181818;stroke-width:1.0;"/><line style="stroke:#181818;stroke-width:1.0;" x1="281" x2="396.5" y1="234.5293" y2="234.5293"/><text fill="#000000" font-family="sans-serif" font-size="13" lengthAdjust="spacing" textLength="81" x="288" y="229.7871">constructor()</text><ellipse cx="280.5" cy="247.7793" fill="none" rx="4" ry="4" style="stroke:#181818;stroke-width:1.5;"/><polygon fill="#181818" points="297.5,244.5293,287.5,248.5293,297.5,252.5293,293.5,248.5293" style="stroke:#181818;stroke-width:1.0;"/><line style="stroke:#181818;stroke-width:1.0;stroke-dasharray:2.0,2.0;" x1="295.5" x2="412" y1="248.5293" y2="248.5293"/><polygon fill="#181818" points="79,273.8398,69,277.8398,79,281.8398,75,277.8398" style="stroke:#181818;stroke-width:1.0;"/><line style="stroke:#181818;stroke-width:1.0;stroke-dasharray:2.0,2.0;" x1="73" x2="275" y1="277.8398" y2="277.8398"/><text fill="#000000" font-family="sans-serif" font-size="13" lengthAdjust="spacing" textLength="89" x="85" y="273.0977">0x3C11..A8c1</text><path d="M10,299.8398 L617,299.8398 L617,307.1504 L607,317.1504 L10,317.1504 L10,299.8398 " fill="#EEEEEE" style="stroke:#000000;stroke-width:1.5;"/><rect fill="none" height="611.248" style="stroke:#000000;stroke-width:1.5;" width="712" x="10" y="299.8398"/><text fill="#000000" font-family="sans-serif" font-size="13" font-weight="bold" lengthAdjust="spacing" textLength="562" x="25" y="313.4082">0xb3ee845923d8f202dd8d4326e87c39d7ee00d2ba341c7794d0f392327ecc41ff</text><polygon fill="#181818" points="599,441.6348,609,445.6348,599,449.6348,603,445.6348" style="stroke:#181818;stroke-width:1.0;"/><line style="stroke:#181818;stroke-width:1.0;" x1="68" x2="605" y1="445.6348" y2="445.6348"/><text fill="#000000" font-family="sans-serif" font-size="13" lengthAdjust="spacing" textLength="58" x="75" y="333.7188">initialize(</text><text fill="#000000" font-family="sans-serif" font-size="13" lengthAdjust="spacing" textLength="34" x="83" y="349.0293">key: [</text><text fill="#000000" font-family="sans-serif" font-size="13" lengthAdjust="spacing" textLength="156" x="91" y="364.3398">currency0: 0x9fE4..a6e0,</text><text fill="#000000" font-family="sans-serif" font-size="13" lengthAdjust="spacing" textLength="158" x="91" y="379.6504">currency1: 0xe7f1..0512,</text><text fill="#000000" font-family="sans-serif" font-size="13" lengthAdjust="spacing" textLength="95" x="91" y="394.9609">fee: 6,294,456,</text><text fill="#000000" font-family="sans-serif" font-size="13" lengthAdjust="spacing" textLength="101" x="91" y="410.2715">tickSpacing: 60,</text><text fill="#000000" font-family="sans-serif" font-size="13" lengthAdjust="spacing" textLength="144" x="91" y="425.582">hooks: 0x3C11..A8c1],</text><text fill="#000000" font-family="sans-serif" font-size="13" lengthAdjust="spacing" textLength="363" x="83" y="440.8926">sqrtPriceX96: 79,228,162,514,,264,337,593,543,950,336)</text><polygon fill="#181818" points="429,562.8086,419,566.8086,429,570.8086,425,566.8086" style="stroke:#181818;stroke-width:1.0;"/><line style="stroke:#181818;stroke-width:1.0;" x1="423" x2="610" y1="566.8086" y2="566.8086"/><text fill="#000000" font-family="sans-serif" font-size="13" lengthAdjust="spacing" textLength="111" x="435" y="470.2031">getHookSwapFee(</text><text fill="#000000" font-family="sans-serif" font-size="13" lengthAdjust="spacing" textLength="34" x="443" y="485.5137">key: [</text><text fill="#000000" font-family="sans-serif" font-size="13" lengthAdjust="spacing" textLength="156" x="451" y="500.8242">currency0: 0x9fE4..a6e0,</text><text fill="#000000" font-family="sans-serif" font-size="13" lengthAdjust="spacing" textLength="158" x="451" y="516.1348">currency1: 0xe7f1..0512,</text><text fill="#000000" font-family="sans-serif" font-size="13" lengthAdjust="spacing" textLength="95" x="451" y="531.4453">fee: 6,294,456,</text><text fill="#000000" font-family="sans-serif" font-size="13" lengthAdjust="spacing" textLength="101" x="451" y="546.7559">tickSpacing: 60,</text><text fill="#000000" font-family="sans-serif" font-size="13" lengthAdjust="spacing" textLength="144" x="451" y="562.0664">hooks: 0x3C11..A8c1])</text><polygon fill="#181818" points="599,592.1191,609,596.1191,599,600.1191,603,596.1191" style="stroke:#181818;stroke-width:1.0;"/><line style="stroke:#181818;stroke-width:1.0;stroke-dasharray:2.0,2.0;" x1="413" x2="605" y1="596.1191" y2="596.1191"/><text fill="#000000" font-family="sans-serif" font-size="13" lengthAdjust="spacing" textLength="43" x="420" y="591.377">fee: 85</text><polygon fill="#181818" points="429,713.293,419,717.293,429,721.293,425,717.293" style="stroke:#181818;stroke-width:1.0;"/><line style="stroke:#181818;stroke-width:1.0;" x1="423" x2="610" y1="717.293" y2="717.293"/><text fill="#000000" font-family="sans-serif" font-size="13" lengthAdjust="spacing" textLength="137" x="435" y="620.6875">getHookWithdrawFee(</text><text fill="#000000" font-family="sans-serif" font-size="13" lengthAdjust="spacing" textLength="34" x="443" y="635.998">key: [</text><text fill="#000000" font-family="sans-serif" font-size="13" lengthAdjust="spacing" textLength="156" x="451" y="651.3086">currency0: 0x9fE4..a6e0,</text><text fill="#000000" font-family="sans-serif" font-size="13" lengthAdjust="spacing" textLength="158" x="451" y="666.6191">currency1: 0xe7f1..0512,</text><text fill="#000000" font-family="sans-serif" font-size="13" lengthAdjust="spacing" textLength="95" x="451" y="681.9297">fee: 6,294,456,</text><text fill="#000000" font-family="sans-serif" font-size="13" lengthAdjust="spacing" textLength="101" x="451" y="697.2402">tickSpacing: 60,</text><text fill="#000000" font-family="sans-serif" font-size="13" lengthAdjust="spacing" textLength="144" x="451" y="712.5508">hooks: 0x3C11..A8c1])</text><polygon fill="#181818" points="599,742.6035,609,746.6035,599,750.6035,603,746.6035" style="stroke:#181818;stroke-width:1.0;"/><line style="stroke:#181818;stroke-width:1.0;stroke-dasharray:2.0,2.0;" x1="413" x2="605" y1="746.6035" y2="746.6035"/><text fill="#000000" font-family="sans-serif" font-size="13" lengthAdjust="spacing" textLength="43" x="420" y="741.8613">fee: 51</text><polygon fill="#181818" points="79,771.9141,69,775.9141,79,779.9141,75,775.9141" style="stroke:#181818;stroke-width:1.0;"/><line style="stroke:#181818;stroke-width:1.0;stroke-dasharray:2.0,2.0;" x1="73" x2="615" y1="775.9141" y2="775.9141"/><text fill="#000000" font-family="sans-serif" font-size="13" lengthAdjust="spacing" textLength="28" x="85" y="771.1719">tick:</text><path d="M519,788.9141 L519,905.9141 L712,905.9141 L712,798.9141 L702,788.9141 L519,788.9141 " fill="#00FFFF" style="stroke:#181818;stroke-width:0.5;"/><path d="M702,788.9141 L702,798.9141 L712,798.9141 L702,788.9141 " fill="#00FFFF" style="stroke:#181818;stroke-width:0.5;"/><text fill="#000000" font-family="sans-serif" font-size="13" lengthAdjust="spacing" textLength="58" x="525" y="806.4824">Initialize:</text><text fill="#000000" font-family="sans-serif" font-size="13" lengthAdjust="spacing" textLength="164" x="533" y="821.793">id: 0x6a6ac772..cfc0f99e,</text><text fill="#000000" font-family="sans-serif" font-size="13" lengthAdjust="spacing" textLength="156" x="533" y="837.1035">currency0: 0x9fE4..a6e0,</text><text fill="#000000" font-family="sans-serif" font-size="13" lengthAdjust="spacing" textLength="158" x="533" y="852.4141">currency1: 0xe7f1..0512,</text><text fill="#000000" font-family="sans-serif" font-size="13" lengthAdjust="spacing" textLength="95" x="533" y="867.7246">fee: 6,294,456,</text><text fill="#000000" font-family="sans-serif" font-size="13" lengthAdjust="spacing" textLength="101" x="533" y="883.0352">tickSpacing: 60,</text><text fill="#000000" font-family="sans-serif" font-size="13" lengthAdjust="spacing" textLength="136" x="533" y="898.3457">hooks: 0x3C11..A8c1</text><!--SRC=[rPHDRzGm48Rl_XLMkHJ9ZUAFn76qMWajhU20L6c5G08EZZFUMbtYrElj1xyUUzlDjfJs3AVapNZ6VjuP9xgu1lnvS9iRFU9hWK_mkVThl8Iu7T65wm5RxsFdRn7I9lg0ZyfRovKj2iRg-WZh3Suo2un67Q8pRjH3pEiOaweee8FxTLbcWMUpXTyE4SBPhkJTVFvd9ZUK5eLk3DrbPfd58VE3zvVFquoLK1IbDMgNbcKMAUqHuS87cCzdiypvIGzw1I5LGglWjoDESBhhU2LAIZapGYXWOEkcaOrYFGLc1OUQYQO4PQdYJElQI6XusNGWeTCLckmucK_8BVxf1dWFuzhV7NyVC1uFcxTfquMLf-dWPqQH7Dt4nBNKwzXY8UdRxBoxrX6cUcZoycJk9tjQRFomYM6RNJr-bBPVW49gQnZm_fcCNcIZt-KOWg6VNEWuG2CgnNZVM5QolczwmLaDZJHSzHAWB7lMQIweaLA9lapOZ3C9nWXgxHCNzdreiHjST7hjVi7EXKkuQ_6t_8QnsOO0Wxahin_AdehK_nfAyZHASnIaJOSkAyeUeXQWnJLXIX1HrGyVqs1SBaTjtB1AmNsXYpGuc_O9-Ozxpwz2F0_Em5ULsYKLOQmXj6Qaee8GLWl2kIILugGIdAYgJBf-vF4U4arJbyWFdLb1p3ExJ4Du1lyK_IjpiglSLAyZVN7neW_wvZ_3gYQPQxOOeS6djVuQmk77yKPVRJNwE4rjYp1sVTwfrhLEay-AmbXJMgM0e9TvqSkmw1afUew9_igORopEfzxTtTy0]--></g></svg>