<?xml version="1.0" encoding="UTF-8" standalone="no"?><svg xmlns="http://www.w3.org/2000/svg" xmlns:xlink="http://www.w3.org/1999/xlink" contentStyleType="text/css" height="1583px" preserveAspectRatio="none" style="width:1881px;height:1583px;background:#FFFFFF;" version="1.1" viewBox="0 0 1881 1583" width="1881px" zoomAndPan="magnify"><defs/><g><text fill="#000000" font-family="sans-serif" font-size="14" font-weight="bold" lengthAdjust="spacing" textLength="565" x="656.5" y="28.5352">0x801443fb37b2b6a6acb7a3c1a7d0d0744c237f2bb69defe06319d1ac286d6fe2</text><text fill="#000000" font-family="sans-serif" font-size="14" lengthAdjust="spacing" textLength="347" x="765.5" y="1571.1172">mainnet, block 4, Sun, 20 Aug 2023 10:50:11 GMT</text><rect fill="#FFFFFF" height="1046.8379" style="stroke:#181818;stroke-width:1.0;" width="10" x="640" y="303.3926"/><rect fill="#FFFFFF" height="868.3535" style="stroke:#181818;stroke-width:1.0;" width="10" x="645" y="392.6348"/><rect fill="#FFFFFF" height="957.5957" style="stroke:#181818;stroke-width:1.0;" width="10" x="1242" y="348.0137"/><rect fill="#FFFFFF" height="44.6211" style="stroke:#181818;stroke-width:1.0;" width="10" x="1247" y="575.0508"/><rect fill="#FFFFFF" height="133.8633" style="stroke:#181818;stroke-width:1.0;" width="10" x="1247" y="784.1563"/><rect fill="#FFFFFF" height="133.8633" style="stroke:#181818;stroke-width:1.0;" width="10" x="1247" y="1082.5039"/><rect fill="#FFFFFF" height="44.6211" style="stroke:#181818;stroke-width:1.0;" width="10" x="1520" y="694.9141"/><rect fill="#FFFFFF" height="44.6211" style="stroke:#181818;stroke-width:1.0;" width="10" x="1520" y="828.7773"/><rect fill="#FFFFFF" height="44.6211" style="stroke:#181818;stroke-width:1.0;" width="10" x="1756" y="993.2617"/><rect fill="#FFFFFF" height="44.6211" style="stroke:#181818;stroke-width:1.0;" width="10" x="1756" y="1127.125"/><line style="stroke:#181818;stroke-width:0.5;stroke-dasharray:5.0,5.0;" x1="53" x2="53" y1="118.9766" y2="1480.0938"/><line style="stroke:#181818;stroke-width:0.5;stroke-dasharray:5.0,5.0;" x1="645" x2="645" y1="118.9766" y2="1480.0938"/><line style="stroke:#181818;stroke-width:0.5;stroke-dasharray:5.0,5.0;" x1="1247" x2="1247" y1="118.9766" y2="1480.0938"/><line style="stroke:#181818;stroke-width:0.5;stroke-dasharray:5.0,5.0;" x1="1525" x2="1525" y1="118.9766" y2="1480.0938"/><line style="stroke:#181818;stroke-width:0.5;stroke-dasharray:5.0,5.0;" x1="1760.5" x2="1760.5" y1="118.9766" y2="1480.0938"/><text fill="#000000" font-family="sans-serif" font-size="14" lengthAdjust="spacing" textLength="90" x="5" y="116.0234">0xf39f..2266</text><ellipse cx="53" cy="50.9883" fill="#E2E2F0" rx="8" ry="8" style="stroke:#181818;stroke-width:0.5;"/><path d="M53,58.9883 L53,85.9883 M40,66.9883 L66,66.9883 M53,85.9883 L40,100.9883 M53,85.9883 L66,100.9883 " fill="none" style="stroke:#181818;stroke-width:0.5;"/><text fill="#000000" font-family="sans-serif" font-size="14" lengthAdjust="spacing" textLength="90" x="5" y="1492.6289">0xf39f..2266</text><ellipse cx="53" cy="1504.082" fill="#E2E2F0" rx="8" ry="8" style="stroke:#181818;stroke-width:0.5;"/><path d="M53,1512.082 L53,1539.082 M40,1520.082 L66,1520.082 M53,1539.082 L40,1554.082 M53,1539.082 L66,1554.082 " fill="none" style="stroke:#181818;stroke-width:0.5;"/><rect fill="#E2E2F0" height="46.9766" rx="2.5" ry="2.5" style="stroke:#181818;stroke-width:0.5;" width="188" x="551" y="71"/><text fill="#000000" font-family="sans-serif" font-size="14" font-style="italic" lengthAdjust="spacing" textLength="174" x="558" y="91.5352">«PoolModifyPositionTest»</text><text fill="#000000" font-family="sans-serif" font-size="14" lengthAdjust="spacing" textLength="85" x="602.5" y="108.0234">0xcf7e..0fc9</text><rect fill="#E2E2F0" height="46.9766" rx="2.5" ry="2.5" style="stroke:#181818;stroke-width:0.5;" width="188" x="551" y="1479.0938"/><text fill="#000000" font-family="sans-serif" font-size="14" font-style="italic" lengthAdjust="spacing" textLength="174" x="558" y="1499.6289">«PoolModifyPositionTest»</text><text fill="#000000" font-family="sans-serif" font-size="14" lengthAdjust="spacing" textLength="85" x="602.5" y="1516.1172">0xcf7e..0fc9</text><rect fill="#E2E2F0" height="46.9766" rx="2.5" ry="2.5" style="stroke:#181818;stroke-width:0.5;" width="118" x="1188" y="71"/><text fill="#000000" font-family="sans-serif" font-size="14" font-style="italic" lengthAdjust="spacing" textLength="104" x="1195" y="91.5352">«PoolManager»</text><text fill="#000000" font-family="sans-serif" font-size="14" lengthAdjust="spacing" textLength="91" x="1201.5" y="108.0234">0x9fe4..a6e0</text><rect fill="#E2E2F0" height="46.9766" rx="2.5" ry="2.5" style="stroke:#181818;stroke-width:0.5;" width="118" x="1188" y="1479.0938"/><text fill="#000000" font-family="sans-serif" font-size="14" font-style="italic" lengthAdjust="spacing" textLength="104" x="1195" y="1499.6289">«PoolManager»</text><text fill="#000000" font-family="sans-serif" font-size="14" lengthAdjust="spacing" textLength="91" x="1201.5" y="1516.1172">0x9fe4..a6e0</text><rect fill="#E2E2F0" height="46.9766" rx="2.5" ry="2.5" style="stroke:#181818;stroke-width:0.5;" width="106" x="1472" y="71"/><text fill="#000000" font-family="sans-serif" font-size="14" font-style="italic" lengthAdjust="spacing" textLength="88" x="1481" y="91.5352">«TestERC20»</text><text fill="#000000" font-family="sans-serif" font-size="14" lengthAdjust="spacing" textLength="92" x="1479" y="108.0234">0x5fbd..0aa3</text><rect fill="#E2E2F0" height="46.9766" rx="2.5" ry="2.5" style="stroke:#181818;stroke-width:0.5;" width="106" x="1472" y="1479.0938"/><text fill="#000000" font-family="sans-serif" font-size="14" font-style="italic" lengthAdjust="spacing" textLength="88" x="1481" y="1499.6289">«TestERC20»</text><text fill="#000000" font-family="sans-serif" font-size="14" lengthAdjust="spacing" textLength="92" x="1479" y="1516.1172">0x5fbd..0aa3</text><rect fill="#E2E2F0" height="46.9766" rx="2.5" ry="2.5" style="stroke:#181818;stroke-width:0.5;" width="107" x="1707.5" y="71"/><text fill="#000000" font-family="sans-serif" font-size="14" font-style="italic" lengthAdjust="spacing" textLength="88" x="1717" y="91.5352">«TestERC20»</text><text fill="#000000" font-family="sans-serif" font-size="14" lengthAdjust="spacing" textLength="93" x="1714.5" y="108.0234">0xe7f1..0512</text><rect fill="#E2E2F0" height="46.9766" rx="2.5" ry="2.5" style="stroke:#181818;stroke-width:0.5;" width="107" x="1707.5" y="1479.0938"/><text fill="#000000" font-family="sans-serif" font-size="14" font-style="italic" lengthAdjust="spacing" textLength="88" x="1717" y="1499.6289">«TestERC20»</text><text fill="#000000" font-family="sans-serif" font-size="14" lengthAdjust="spacing" textLength="93" x="1714.5" y="1516.1172">0xe7f1..0512</text><rect fill="#FFFFFF" height="1046.8379" style="stroke:#181818;stroke-width:1.0;" width="10" x="640" y="303.3926"/><rect fill="#FFFFFF" height="868.3535" style="stroke:#181818;stroke-width:1.0;" width="10" x="645" y="392.6348"/><rect fill="#FFFFFF" height="957.5957" style="stroke:#181818;stroke-width:1.0;" width="10" x="1242" y="348.0137"/><rect fill="#FFFFFF" height="44.6211" style="stroke:#181818;stroke-width:1.0;" width="10" x="1247" y="575.0508"/><rect fill="#FFFFFF" height="133.8633" style="stroke:#181818;stroke-width:1.0;" width="10" x="1247" y="784.1563"/><rect fill="#FFFFFF" height="133.8633" style="stroke:#181818;stroke-width:1.0;" width="10" x="1247" y="1082.5039"/><rect fill="#FFFFFF" height="44.6211" style="stroke:#181818;stroke-width:1.0;" width="10" x="1520" y="694.9141"/><rect fill="#FFFFFF" height="44.6211" style="stroke:#181818;stroke-width:1.0;" width="10" x="1520" y="828.7773"/><rect fill="#FFFFFF" height="44.6211" style="stroke:#181818;stroke-width:1.0;" width="10" x="1756" y="993.2617"/><rect fill="#FFFFFF" height="44.6211" style="stroke:#181818;stroke-width:1.0;" width="10" x="1756" y="1127.125"/><polygon fill="#181818" points="628,299.3926,638,303.3926,628,307.3926,632,303.3926" style="stroke:#181818;stroke-width:1.0;"/><line style="stroke:#181818;stroke-width:1.0;" x1="53" x2="634" y1="303.3926" y2="303.3926"/><text fill="#000000" font-family="sans-serif" font-size="13" lengthAdjust="spacing" textLength="99" x="60" y="145.5449">modifyPosition(</text><text fill="#000000" font-family="sans-serif" font-size="13" lengthAdjust="spacing" textLength="34" x="60" y="160.8555">key: [</text><text fill="#000000" font-family="sans-serif" font-size="13" lengthAdjust="spacing" textLength="161" x="68" y="176.166">currency0: 0x5FbD..0aa3,</text><text fill="#000000" font-family="sans-serif" font-size="13" lengthAdjust="spacing" textLength="158" x="68" y="191.4766">currency1: 0xe7f1..0512,</text><text fill="#000000" font-family="sans-serif" font-size="13" lengthAdjust="spacing" textLength="67" x="68" y="206.7871">fee: 3,000,</text><text fill="#000000" font-family="sans-serif" font-size="13" lengthAdjust="spacing" textLength="101" x="68" y="222.0977">tickSpacing: 60,</text><text fill="#000000" font-family="sans-serif" font-size="13" lengthAdjust="spacing" textLength="139" x="68" y="237.4082">hooks: 0x0c2a..e1c1],</text><text fill="#000000" font-family="sans-serif" font-size="13" lengthAdjust="spacing" textLength="58" x="60" y="252.7188">params: [</text><text fill="#000000" font-family="sans-serif" font-size="13" lengthAdjust="spacing" textLength="105" x="68" y="268.0293">tickLower: -120,</text><text fill="#000000" font-family="sans-serif" font-size="13" lengthAdjust="spacing" textLength="97" x="68" y="283.3398">tickUpper: 120,</text><text fill="#000000" font-family="sans-serif" font-size="13" lengthAdjust="spacing" textLength="289" x="68" y="298.6504">liquidityDelta: 10,,000,000,000,000,000,000])</text><polygon fill="#181818" points="1230,344.0137,1240,348.0137,1230,352.0137,1234,348.0137" style="stroke:#181818;stroke-width:1.0;"/><line style="stroke:#181818;stroke-width:1.0;" x1="650" x2="1236" y1="348.0137" y2="348.0137"/><text fill="#000000" font-family="sans-serif" font-size="13" lengthAdjust="spacing" textLength="31" x="657" y="327.9609">lock(</text><text fill="#000000" font-family="sans-serif" font-size="13" lengthAdjust="spacing" textLength="190" x="657" y="343.2715">data: 0x00000000..89e80000)</text><polygon fill="#181818" points="666,388.6348,656,392.6348,666,396.6348,662,392.6348" style="stroke:#181818;stroke-width:1.0;"/><line style="stroke:#181818;stroke-width:1.0;" x1="660" x2="1241" y1="392.6348" y2="392.6348"/><text fill="#000000" font-family="sans-serif" font-size="13" lengthAdjust="spacing" textLength="87" x="672" y="372.582">lockAcquired(</text><text fill="#000000" font-family="sans-serif" font-size="13" lengthAdjust="spacing" textLength="214" x="672" y="387.8926">rawData: 0x00000000..89e80000)</text><polygon fill="#181818" points="1235,571.0508,1245,575.0508,1235,579.0508,1239,575.0508" style="stroke:#181818;stroke-width:1.0;"/><line style="stroke:#181818;stroke-width:1.0;" x1="655" x2="1241" y1="575.0508" y2="575.0508"/><text fill="#000000" font-family="sans-serif" font-size="13" lengthAdjust="spacing" textLength="99" x="662" y="417.2031">modifyPosition(</text><text fill="#000000" font-family="sans-serif" font-size="13" lengthAdjust="spacing" textLength="34" x="662" y="432.5137">key: [</text><text fill="#000000" font-family="sans-serif" font-size="13" lengthAdjust="spacing" textLength="161" x="670" y="447.8242">currency0: 0x5FbD..0aa3,</text><text fill="#000000" font-family="sans-serif" font-size="13" lengthAdjust="spacing" textLength="158" x="670" y="463.1348">currency1: 0xe7f1..0512,</text><text fill="#000000" font-family="sans-serif" font-size="13" lengthAdjust="spacing" textLength="67" x="670" y="478.4453">fee: 3,000,</text><text fill="#000000" font-family="sans-serif" font-size="13" lengthAdjust="spacing" textLength="101" x="670" y="493.7559">tickSpacing: 60,</text><text fill="#000000" font-family="sans-serif" font-size="13" lengthAdjust="spacing" textLength="139" x="670" y="509.0664">hooks: 0x0c2a..e1c1],</text><text fill="#000000" font-family="sans-serif" font-size="13" lengthAdjust="spacing" textLength="58" x="662" y="524.377">params: [</text><text fill="#000000" font-family="sans-serif" font-size="13" lengthAdjust="spacing" textLength="105" x="670" y="539.6875">tickLower: -120,</text><text fill="#000000" font-family="sans-serif" font-size="13" lengthAdjust="spacing" textLength="97" x="670" y="554.998">tickUpper: 120,</text><text fill="#000000" font-family="sans-serif" font-size="13" lengthAdjust="spacing" textLength="289" x="670" y="570.3086">liquidityDelta: 10,,000,000,000,000,000,000])</text><polygon fill="#181818" points="666,615.6719,656,619.6719,666,623.6719,662,619.6719" style="stroke:#181818;stroke-width:1.0;"/><line style="stroke:#181818;stroke-width:1.0;stroke-dasharray:2.0,2.0;" x1="660" x2="1241" y1="619.6719" y2="619.6719"/><text fill="#000000" font-family="sans-serif" font-size="13" lengthAdjust="spacing" textLength="4" x="672" y="599.6191"> </text><text fill="#000000" font-family="sans-serif" font-size="13" lengthAdjust="spacing" textLength="563" x="672" y="614.9297">delta: 20,354,798,834,465,817,373,943,277,580,285,330,412,,376,558,255,685,244,082</text><polygon fill="#181818" points="1508,690.9141,1518,694.9141,1508,698.9141,1512,694.9141" style="stroke:#181818;stroke-width:1.0;"/><line style="stroke:#181818;stroke-width:1.0;" x1="655" x2="1514" y1="694.9141" y2="694.9141"/><text fill="#000000" font-family="sans-serif" font-size="13" lengthAdjust="spacing" textLength="85" x="662" y="644.2402">transferFrom(</text><text fill="#000000" font-family="sans-serif" font-size="13" lengthAdjust="spacing" textLength="138" x="662" y="659.5508">sender: 0xf39F..2266,</text><text fill="#000000" font-family="sans-serif" font-size="13" lengthAdjust="spacing" textLength="149" x="662" y="674.8613">recipient: 0x9fE4..a6e0,</text><text fill="#000000" font-family="sans-serif" font-size="13" lengthAdjust="spacing" textLength="216" x="662" y="690.1719">amount: 59,817,377,605,096,626)</text><polygon fill="#181818" points="666,735.5352,656,739.5352,666,743.5352,662,739.5352" style="stroke:#181818;stroke-width:1.0;"/><line style="stroke:#181818;stroke-width:1.0;stroke-dasharray:2.0,2.0;" x1="660" x2="1524" y1="739.5352" y2="739.5352"/><text fill="#000000" font-family="sans-serif" font-size="13" lengthAdjust="spacing" textLength="4" x="672" y="719.4824"> </text><text fill="#000000" font-family="sans-serif" font-size="13" lengthAdjust="spacing" textLength="25" x="672" y="734.793">true</text><polygon fill="#181818" points="1235,780.1563,1245,784.1563,1235,788.1563,1239,784.1563" style="stroke:#181818;stroke-width:1.0;"/><line style="stroke:#181818;stroke-width:1.0;" x1="655" x2="1241" y1="784.1563" y2="784.1563"/><text fill="#000000" font-family="sans-serif" font-size="13" lengthAdjust="spacing" textLength="39" x="662" y="764.1035">settle(</text><text fill="#000000" font-family="sans-serif" font-size="13" lengthAdjust="spacing" textLength="153" x="662" y="779.4141">currency: 0x5FbD..0aa3)</text><polygon fill="#181818" points="1508,824.7773,1518,828.7773,1508,832.7773,1512,828.7773" style="stroke:#181818;stroke-width:1.0;"/><line style="stroke:#181818;stroke-width:1.0;" x1="1257" x2="1514" y1="828.7773" y2="828.7773"/><text fill="#000000" font-family="sans-serif" font-size="13" lengthAdjust="spacing" textLength="67" x="1264" y="808.7246">balanceOf(</text><text fill="#000000" font-family="sans-serif" font-size="13" lengthAdjust="spacing" textLength="86" x="1264" y="824.0352">0x9fE4..a6e0)</text><polygon fill="#181818" points="1268,869.3984,1258,873.3984,1268,877.3984,1264,873.3984" style="stroke:#181818;stroke-width:1.0;"/><line style="stroke:#181818;stroke-width:1.0;stroke-dasharray:2.0,2.0;" x1="1262" x2="1524" y1="873.3984" y2="873.3984"/><text fill="#000000" font-family="sans-serif" font-size="13" lengthAdjust="spacing" textLength="4" x="1274" y="853.3457"> </text><text fill="#000000" font-family="sans-serif" font-size="13" lengthAdjust="spacing" textLength="156" x="1274" y="868.6563">89,770,927,164,204,436</text><polygon fill="#181818" points="666,914.0195,656,918.0195,666,922.0195,662,918.0195" style="stroke:#181818;stroke-width:1.0;"/><line style="stroke:#181818;stroke-width:1.0;stroke-dasharray:2.0,2.0;" x1="660" x2="1241" y1="918.0195" y2="918.0195"/><text fill="#000000" font-family="sans-serif" font-size="13" lengthAdjust="spacing" textLength="4" x="672" y="897.9668"> </text><text fill="#000000" font-family="sans-serif" font-size="13" lengthAdjust="spacing" textLength="191" x="672" y="913.2773">paid: 59,817,377,605,096,626</text><polygon fill="#181818" points="1744,989.2617,1754,993.2617,1744,997.2617,1748,993.2617" style="stroke:#181818;stroke-width:1.0;"/><line style="stroke:#181818;stroke-width:1.0;" x1="655" x2="1750" y1="993.2617" y2="993.2617"/><text fill="#000000" font-family="sans-serif" font-size="13" lengthAdjust="spacing" textLength="85" x="662" y="942.5879">transferFrom(</text><text fill="#000000" font-family="sans-serif" font-size="13" lengthAdjust="spacing" textLength="138" x="662" y="957.8984">sender: 0xf39F..2266,</text><text fill="#000000" font-family="sans-serif" font-size="13" lengthAdjust="spacing" textLength="149" x="662" y="973.209">recipient: 0x9fE4..a6e0,</text><text fill="#000000" font-family="sans-serif" font-size="13" lengthAdjust="spacing" textLength="216" x="662" y="988.5195">amount: 59,817,377,605,096,626)</text><polygon fill="#181818" points="666,1033.8828,656,1037.8828,666,1041.8828,662,1037.8828" style="stroke:#181818;stroke-width:1.0;"/><line style="stroke:#181818;stroke-width:1.0;stroke-dasharray:2.0,2.0;" x1="660" x2="1760" y1="1037.8828" y2="1037.8828"/><text fill="#000000" font-family="sans-serif" font-size="13" lengthAdjust="spacing" textLength="4" x="672" y="1017.8301"> </text><text fill="#000000" font-family="sans-serif" font-size="13" lengthAdjust="spacing" textLength="25" x="672" y="1033.1406">true</text><polygon fill="#181818" points="1235,1078.5039,1245,1082.5039,1235,1086.5039,1239,1082.5039" style="stroke:#181818;stroke-width:1.0;"/><line style="stroke:#181818;stroke-width:1.0;" x1="655" x2="1241" y1="1082.5039" y2="1082.5039"/><text fill="#000000" font-family="sans-serif" font-size="13" lengthAdjust="spacing" textLength="39" x="662" y="1062.4512">settle(</text><text fill="#000000" font-family="sans-serif" font-size="13" lengthAdjust="spacing" textLength="150" x="662" y="1077.7617">currency: 0xe7f1..0512)</text><polygon fill="#181818" points="1744,1123.125,1754,1127.125,1744,1131.125,1748,1127.125" style="stroke:#181818;stroke-width:1.0;"/><line style="stroke:#181818;stroke-width:1.0;" x1="1257" x2="1750" y1="1127.125" y2="1127.125"/><text fill="#000000" font-family="sans-serif" font-size="13" lengthAdjust="spacing" textLength="67" x="1264" y="1107.0723">balanceOf(</text><text fill="#000000" font-family="sans-serif" font-size="13" lengthAdjust="spacing" textLength="86" x="1264" y="1122.3828">0x9fE4..a6e0)</text><polygon fill="#181818" points="1268,1167.7461,1258,1171.7461,1268,1175.7461,1264,1171.7461" style="stroke:#181818;stroke-width:1.0;"/><line style="stroke:#181818;stroke-width:1.0;stroke-dasharray:2.0,2.0;" x1="1262" x2="1760" y1="1171.7461" y2="1171.7461"/><text fill="#000000" font-family="sans-serif" font-size="13" lengthAdjust="spacing" textLength="4" x="1274" y="1151.6934"> </text><text fill="#000000" font-family="sans-serif" font-size="13" lengthAdjust="spacing" textLength="156" x="1274" y="1167.0039">89,770,927,164,204,436</text><polygon fill="#181818" points="666,1212.3672,656,1216.3672,666,1220.3672,662,1216.3672" style="stroke:#181818;stroke-width:1.0;"/><line style="stroke:#181818;stroke-width:1.0;stroke-dasharray:2.0,2.0;" x1="660" x2="1241" y1="1216.3672" y2="1216.3672"/><text fill="#000000" font-family="sans-serif" font-size="13" lengthAdjust="spacing" textLength="4" x="672" y="1196.3145"> </text><text fill="#000000" font-family="sans-serif" font-size="13" lengthAdjust="spacing" textLength="191" x="672" y="1211.625">paid: 59,817,377,605,096,626</text><polygon fill="#181818" points="1230,1256.9883,1240,1260.9883,1230,1264.9883,1234,1260.9883" style="stroke:#181818;stroke-width:1.0;"/><line style="stroke:#181818;stroke-width:1.0;stroke-dasharray:2.0,2.0;" x1="650" x2="1236" y1="1260.9883" y2="1260.9883"/><text fill="#000000" font-family="sans-serif" font-size="13" lengthAdjust="spacing" textLength="4" x="657" y="1240.9355"> </text><text fill="#000000" font-family="sans-serif" font-size="13" lengthAdjust="spacing" textLength="151" x="657" y="1256.2461">0x00000000..878c14b2</text><polygon fill="#181818" points="661,1301.6094,651,1305.6094,661,1309.6094,657,1305.6094" style="stroke:#181818;stroke-width:1.0;"/><line style="stroke:#181818;stroke-width:1.0;stroke-dasharray:2.0,2.0;" x1="655" x2="1246" y1="1305.6094" y2="1305.6094"/><text fill="#000000" font-family="sans-serif" font-size="13" lengthAdjust="spacing" textLength="4" x="667" y="1285.5566"> </text><text fill="#000000" font-family="sans-serif" font-size="13" lengthAdjust="spacing" textLength="195" x="667" y="1300.8672">result: 0x00000000..878c14b2</text><polygon fill="#181818" points="64,1346.2305,54,1350.2305,64,1354.2305,60,1350.2305" style="stroke:#181818;stroke-width:1.0;"/><line style="stroke:#181818;stroke-width:1.0;stroke-dasharray:2.0,2.0;" x1="58" x2="644" y1="1350.2305" y2="1350.2305"/><text fill="#000000" font-family="sans-serif" font-size="13" lengthAdjust="spacing" textLength="4" x="70" y="1330.1777"> </text><text fill="#000000" font-family="sans-serif" font-size="13" lengthAdjust="spacing" textLength="563" x="70" y="1345.4883">delta: 20,354,798,834,465,817,373,943,277,580,285,330,412,,376,558,255,685,244,082</text><path d="M1092,1363.2305 L1092,1464.2305 L1402,1464.2305 L1402,1373.2305 L1392,1363.2305 L1092,1363.2305 " fill="#00FFFF" style="stroke:#181818;stroke-width:0.5;"/><path d="M1392,1363.2305 L1392,1373.2305 L1402,1373.2305 L1392,1363.2305 " fill="#00FFFF" style="stroke:#181818;stroke-width:0.5;"/><text fill="#000000" font-family="sans-serif" font-size="13" lengthAdjust="spacing" textLength="98" x="1098" y="1380.7988">ModifyPosition:</text><text fill="#000000" font-family="sans-serif" font-size="13" lengthAdjust="spacing" textLength="172" x="1106" y="1396.1094">id: 0xb95b78c2..bf609442,</text><text fill="#000000" font-family="sans-serif" font-size="13" lengthAdjust="spacing" textLength="137" x="1106" y="1411.4199">sender: 0xCf7E..0Fc9,</text><text fill="#000000" font-family="sans-serif" font-size="13" lengthAdjust="spacing" textLength="105" x="1106" y="1426.7305">tickLower: -120,</text><text fill="#000000" font-family="sans-serif" font-size="13" lengthAdjust="spacing" textLength="97" x="1106" y="1442.041">tickUpper: 120,</text><text fill="#000000" font-family="sans-serif" font-size="13" lengthAdjust="spacing" textLength="281" x="1106" y="1457.3516">liquidityDelta: 10,,000,000,000,000,000,000</text><path d="M1412,1363.2305 L1412,1434.2305 L1638,1434.2305 L1638,1373.2305 L1628,1363.2305 L1412,1363.2305 " fill="#00FFFF" style="stroke:#181818;stroke-width:0.5;"/><path d="M1628,1363.2305 L1628,1373.2305 L1638,1373.2305 L1628,1363.2305 " fill="#00FFFF" style="stroke:#181818;stroke-width:0.5;"/><text fill="#000000" font-family="sans-serif" font-size="13" lengthAdjust="spacing" textLength="56" x="1418" y="1380.7988">Transfer:</text><text fill="#000000" font-family="sans-serif" font-size="13" lengthAdjust="spacing" textLength="126" x="1426" y="1396.1094">from: 0xf39F..2266,</text><text fill="#000000" font-family="sans-serif" font-size="13" lengthAdjust="spacing" textLength="107" x="1426" y="1411.4199">to: 0x9fE4..a6e0,</text><text fill="#000000" font-family="sans-serif" font-size="13" lengthAdjust="spacing" textLength="197" x="1426" y="1426.7305">value: 59,817,377,605,096,626</text><path d="M1648,1363.2305 L1648,1434.2305 L1874,1434.2305 L1874,1373.2305 L1864,1363.2305 L1648,1363.2305 " fill="#00FFFF" style="stroke:#181818;stroke-width:0.5;"/><path d="M1864,1363.2305 L1864,1373.2305 L1874,1373.2305 L1864,1363.2305 " fill="#00FFFF" style="stroke:#181818;stroke-width:0.5;"/><text fill="#000000" font-family="sans-serif" font-size="13" lengthAdjust="spacing" textLength="56" x="1654" y="1380.7988">Transfer:</text><text fill="#000000" font-family="sans-serif" font-size="13" lengthAdjust="spacing" textLength="126" x="1662" y="1396.1094">from: 0xf39F..2266,</text><text fill="#000000" font-family="sans-serif" font-size="13" lengthAdjust="spacing" textLength="107" x="1662" y="1411.4199">to: 0x9fE4..a6e0,</text><text fill="#000000" font-family="sans-serif" font-size="13" lengthAdjust="spacing" textLength="197" x="1662" y="1426.7305">value: 59,817,377,605,096,626</text><!--SRC=[vLNVRzCm47xFNs712qWcEBPZ9n6QDEq7Bo0c64zi3uvZZwXjKXndRFyzvxP9rdPZ0mGlLAhQk_FTVVVT-UnhFpU8t6GauPpPaicIba89fKkfc4wKh4X59EUQCcbfMOgyCjOGmPAyIfIccQY4DJIAj5hwkctGGjLDOpn6vRpLCyGn-jGt65623lih-A4C9QH8IP4awEtxyqXftphqZDnObjiufbI8PqXrA8X1GD5IEL_hUgaQ7yvfAqqS4wlprRaW1W6zUNFMjlFtRLNRsxEsgmEQSzFvWuFT2BarF8wLC6GL8OX162AeHbqPj- -MshA2n4gnbLiGWm1k8St9noDAzfsCj0aufGbTEGKn23jEqLZjguEneW8jjefvST7Cp6s1lbmq2EdUETFeMr90zzBJydYD3D-r9S4s0LZPh345OfWGiX81wkpJKkcwkIgGMEk-jksi2wv4KnN79j799HYWCBNeDkc3txlskt45UfNGATRdvJBe1jMy_jRNLUrlZytSAz0Jl4fzp_VoPHY5-bfvCp8GZSq5MeOs5IWC5f1HgH0IO6u-SPpb9Wl_xeGQlAAnoriCXr276a0wKq58fxuVFoNg8m3_rxwDP3lZUzT0YzRk49Mb7CiymndZc8iKPud4J3ASSuQfb3ZD2APPYXaZc4FDO1GuJJDCqnGBC53ECSde5kF35IoGTwhfh76dhbq0tvs1r2vm0HVhTBrLe31du6BMfl71ajkJpHO0YrgqVL2d-GQPn8AacEG22ohkb3Ya74lqhZSFZ45dF6nNW3CqThldZqtfL5sfvghHveE5M7U1_mnNbcCf2Swfn8dWc1BWdOdHl5HrzL2vM-KC6-iVSZoa_6sEfxlp6CTJTK_WU0_Ndt0y7DhQD3BJ2I-d1Cvq_TplhAFTGt_XaaLD2_MsryPDh-DpzQrNqVRxMaG8XHh9JPcd9G2ZSLnQGNBEAGRRD2D7Lfv0Iqvr7lIxQoZQsqBHBosX2FAWW3cANgC9-_X4hx6VRmOueBOmn3kp6q2qErCBkcirxys3RRm_yVZC_uF4Fm00]--></g></svg>