<?xml version="1.0" encoding="UTF-8" standalone="no"?><svg xmlns="http://www.w3.org/2000/svg" xmlns:xlink="http://www.w3.org/1999/xlink" contentStyleType="text/css" height="2083px" preserveAspectRatio="none" style="width:2466px;height:2083px;background:#FFFFFF;" version="1.1" viewBox="0 0 2466 2083" width="2466px" zoomAndPan="magnify"><defs/><g><text fill="#000000" font-family="sans-serif" font-size="14" font-weight="bold" lengthAdjust="spacing" textLength="576" x="943.75" y="28.5352">0x9b115c369b25d6ec3a0496ac1b851de7446d08d69e47361cf096912328a85730</text><text fill="#000000" font-family="sans-serif" font-size="14" lengthAdjust="spacing" textLength="347" x="1058.25" y="2071.123">mainnet, block 4, Sun, 20 Aug 2023 11:18:56 GMT</text><rect fill="#FFFFFF" height="1546.8438" style="stroke:#181818;stroke-width:1.0;" width="10" x="660" y="303.3926"/><rect fill="#FFFFFF" height="1368.3594" style="stroke:#181818;stroke-width:1.0;" width="10" x="665" y="392.6348"/><rect fill="#FFFFFF" height="1457.6016" style="stroke:#181818;stroke-width:1.0;" width="10" x="1282" y="348.0137"/><rect fill="#FFFFFF" height="544.627" style="stroke:#181818;stroke-width:1.0;" width="10" x="1287" y="575.0508"/><rect fill="#FFFFFF" height="133.8633" style="stroke:#181818;stroke-width:1.0;" width="10" x="1287" y="1284.1621"/><rect fill="#FFFFFF" height="133.8633" style="stroke:#181818;stroke-width:1.0;" width="10" x="1287" y="1582.5098"/><rect fill="#FFFFFF" height="44.6211" style="stroke:#181818;stroke-width:1.0;" width="10" x="1864" y="772.7773"/><rect fill="#FFFFFF" height="44.6211" style="stroke:#181818;stroke-width:1.0;" width="10" x="1864" y="1030.4355"/><rect fill="#FFFFFF" height="44.6211" style="stroke:#181818;stroke-width:1.0;" width="10" x="2057.5" y="1194.9199"/><rect fill="#FFFFFF" height="44.6211" style="stroke:#181818;stroke-width:1.0;" width="10" x="2057.5" y="1328.7832"/><rect fill="#FFFFFF" height="44.6211" style="stroke:#181818;stroke-width:1.0;" width="10" x="2325.5" y="1493.2676"/><rect fill="#FFFFFF" height="44.6211" style="stroke:#181818;stroke-width:1.0;" width="10" x="2325.5" y="1627.1309"/><line style="stroke:#181818;stroke-width:0.5;stroke-dasharray:5.0,5.0;" x1="53" x2="53" y1="118.9766" y2="1980.0996"/><line style="stroke:#181818;stroke-width:0.5;stroke-dasharray:5.0,5.0;" x1="665" x2="665" y1="118.9766" y2="1980.0996"/><line style="stroke:#181818;stroke-width:0.5;stroke-dasharray:5.0,5.0;" x1="1287" x2="1287" y1="118.9766" y2="1980.0996"/><line style="stroke:#181818;stroke-width:0.5;stroke-dasharray:5.0,5.0;" x1="1869" x2="1869" y1="118.9766" y2="1980.0996"/><line style="stroke:#181818;stroke-width:0.5;stroke-dasharray:5.0,5.0;" x1="2062.5" x2="2062.5" y1="118.9766" y2="1980.0996"/><line style="stroke:#181818;stroke-width:0.5;stroke-dasharray:5.0,5.0;" x1="2330" x2="2330" y1="118.9766" y2="1980.0996"/><text fill="#000000" font-family="sans-serif" font-size="14" lengthAdjust="spacing" textLength="90" x="5" y="116.0234">0xf39f..2266</text><ellipse cx="53" cy="50.9883" fill="#E2E2F0" rx="8" ry="8" style="stroke:#181818;stroke-width:0.5;"/><path d="M53,58.9883 L53,85.9883 M40,66.9883 L66,66.9883 M53,85.9883 L40,100.9883 M53,85.9883 L66,100.9883 " fill="none" style="stroke:#181818;stroke-width:0.5;"/><text fill="#000000" font-family="sans-serif" font-size="14" lengthAdjust="spacing" textLength="90" x="5" y="1992.6348">0xf39f..2266</text><ellipse cx="53" cy="2004.0879" fill="#E2E2F0" rx="8" ry="8" style="stroke:#181818;stroke-width:0.5;"/><path d="M53,2012.0879 L53,2039.0879 M40,2020.0879 L66,2020.0879 M53,2039.0879 L40,2054.0879 M53,2039.0879 L66,2054.0879 " fill="none" style="stroke:#181818;stroke-width:0.5;"/><rect fill="#E2E2F0" height="46.9766" rx="2.5" ry="2.5" style="stroke:#181818;stroke-width:0.5;" width="188" x="571" y="71"/><text fill="#000000" font-family="sans-serif" font-size="14" font-style="italic" lengthAdjust="spacing" textLength="174" x="578" y="91.5352">«PoolModifyPositionTest»</text><text fill="#000000" font-family="sans-serif" font-size="14" lengthAdjust="spacing" textLength="85" x="622.5" y="108.0234">0xcf7e..0fc9</text><rect fill="#E2E2F0" height="46.9766" rx="2.5" ry="2.5" style="stroke:#181818;stroke-width:0.5;" width="188" x="571" y="1979.0996"/><text fill="#000000" font-family="sans-serif" font-size="14" font-style="italic" lengthAdjust="spacing" textLength="174" x="578" y="1999.6348">«PoolModifyPositionTest»</text><text fill="#000000" font-family="sans-serif" font-size="14" lengthAdjust="spacing" textLength="85" x="622.5" y="2016.123">0xcf7e..0fc9</text><rect fill="#E2E2F0" height="46.9766" rx="2.5" ry="2.5" style="stroke:#181818;stroke-width:0.5;" width="118" x="1228" y="71"/><text fill="#000000" font-family="sans-serif" font-size="14" font-style="italic" lengthAdjust="spacing" textLength="104" x="1235" y="91.5352">«PoolManager»</text><text fill="#000000" font-family="sans-serif" font-size="14" lengthAdjust="spacing" textLength="91" x="1241.5" y="108.0234">0x9fe4..a6e0</text><rect fill="#E2E2F0" height="46.9766" rx="2.5" ry="2.5" style="stroke:#181818;stroke-width:0.5;" width="118" x="1228" y="1979.0996"/><text fill="#000000" font-family="sans-serif" font-size="14" font-style="italic" lengthAdjust="spacing" textLength="104" x="1235" y="1999.6348">«PoolManager»</text><text fill="#000000" font-family="sans-serif" font-size="14" lengthAdjust="spacing" textLength="91" x="1241.5" y="2016.123">0x9fe4..a6e0</text><rect fill="#E2E2F0" height="46.9766" rx="2.5" ry="2.5" style="stroke:#181818;stroke-width:0.5;" width="120" x="1809" y="71"/><text fill="#000000" font-family="sans-serif" font-size="14" font-style="italic" lengthAdjust="spacing" textLength="106" x="1816" y="91.5352">«CounterHook»</text><text fill="#000000" font-family="sans-serif" font-size="14" lengthAdjust="spacing" textLength="96" x="1821" y="108.0234">0x3cd9..40bb</text><rect fill="#E2E2F0" height="46.9766" rx="2.5" ry="2.5" style="stroke:#181818;stroke-width:0.5;" width="120" x="1809" y="1979.0996"/><text fill="#000000" font-family="sans-serif" font-size="14" font-style="italic" lengthAdjust="spacing" textLength="106" x="1816" y="1999.6348">«CounterHook»</text><text fill="#000000" font-family="sans-serif" font-size="14" lengthAdjust="spacing" textLength="96" x="1821" y="2016.123">0x3cd9..40bb</text><rect fill="#E2E2F0" height="46.9766" rx="2.5" ry="2.5" style="stroke:#181818;stroke-width:0.5;" width="106" x="2009.5" y="71"/><text fill="#000000" font-family="sans-serif" font-size="14" font-style="italic" lengthAdjust="spacing" textLength="88" x="2018.5" y="91.5352">«TestERC20»</text><text fill="#000000" font-family="sans-serif" font-size="14" lengthAdjust="spacing" textLength="92" x="2016.5" y="108.0234">0x5fbd..0aa3</text><rect fill="#E2E2F0" height="46.9766" rx="2.5" ry="2.5" style="stroke:#181818;stroke-width:0.5;" width="106" x="2009.5" y="1979.0996"/><text fill="#000000" font-family="sans-serif" font-size="14" font-style="italic" lengthAdjust="spacing" textLength="88" x="2018.5" y="1999.6348">«TestERC20»</text><text fill="#000000" font-family="sans-serif" font-size="14" lengthAdjust="spacing" textLength="92" x="2016.5" y="2016.123">0x5fbd..0aa3</text><rect fill="#E2E2F0" height="46.9766" rx="2.5" ry="2.5" style="stroke:#181818;stroke-width:0.5;" width="107" x="2277" y="71"/><text fill="#000000" font-family="sans-serif" font-size="14" font-style="italic" lengthAdjust="spacing" textLength="88" x="2286.5" y="91.5352">«TestERC20»</text><text fill="#000000" font-family="sans-serif" font-size="14" lengthAdjust="spacing" textLength="93" x="2284" y="108.0234">0xe7f1..0512</text><rect fill="#E2E2F0" height="46.9766" rx="2.5" ry="2.5" style="stroke:#181818;stroke-width:0.5;" width="107" x="2277" y="1979.0996"/><text fill="#000000" font-family="sans-serif" font-size="14" font-style="italic" lengthAdjust="spacing" textLength="88" x="2286.5" y="1999.6348">«TestERC20»</text><text fill="#000000" font-family="sans-serif" font-size="14" lengthAdjust="spacing" textLength="93" x="2284" y="2016.123">0xe7f1..0512</text><rect fill="#FFFFFF" height="1546.8438" style="stroke:#181818;stroke-width:1.0;" width="10" x="660" y="303.3926"/><rect fill="#FFFFFF" height="1368.3594" style="stroke:#181818;stroke-width:1.0;" width="10" x="665" y="392.6348"/><rect fill="#FFFFFF" height="1457.6016" style="stroke:#181818;stroke-width:1.0;" width="10" x="1282" y="348.0137"/><rect fill="#FFFFFF" height="544.627" style="stroke:#181818;stroke-width:1.0;" width="10" x="1287" y="575.0508"/><rect fill="#FFFFFF" height="133.8633" style="stroke:#181818;stroke-width:1.0;" width="10" x="1287" y="1284.1621"/><rect fill="#FFFFFF" height="133.8633" style="stroke:#181818;stroke-width:1.0;" width="10" x="1287" y="1582.5098"/><rect fill="#FFFFFF" height="44.6211" style="stroke:#181818;stroke-width:1.0;" width="10" x="1864" y="772.7773"/><rect fill="#FFFFFF" height="44.6211" style="stroke:#181818;stroke-width:1.0;" width="10" x="1864" y="1030.4355"/><rect fill="#FFFFFF" height="44.6211" style="stroke:#181818;stroke-width:1.0;" width="10" x="2057.5" y="1194.9199"/><rect fill="#FFFFFF" height="44.6211" style="stroke:#181818;stroke-width:1.0;" width="10" x="2057.5" y="1328.7832"/><rect fill="#FFFFFF" height="44.6211" style="stroke:#181818;stroke-width:1.0;" width="10" x="2325.5" y="1493.2676"/><rect fill="#FFFFFF" height="44.6211" style="stroke:#181818;stroke-width:1.0;" width="10" x="2325.5" y="1627.1309"/><polygon fill="#181818" points="648,299.3926,658,303.3926,648,307.3926,652,303.3926" style="stroke:#181818;stroke-width:1.0;"/><line style="stroke:#181818;stroke-width:1.0;" x1="53" x2="654" y1="303.3926" y2="303.3926"/><text fill="#000000" font-family="sans-serif" font-size="13" lengthAdjust="spacing" textLength="99" x="60" y="145.5449">modifyPosition(</text><text fill="#000000" font-family="sans-serif" font-size="13" lengthAdjust="spacing" textLength="34" x="60" y="160.8555">key: [</text><text fill="#000000" font-family="sans-serif" font-size="13" lengthAdjust="spacing" textLength="161" x="68" y="176.166">currency0: 0x5FbD..0aa3,</text><text fill="#000000" font-family="sans-serif" font-size="13" lengthAdjust="spacing" textLength="158" x="68" y="191.4766">currency1: 0xe7f1..0512,</text><text fill="#000000" font-family="sans-serif" font-size="13" lengthAdjust="spacing" textLength="67" x="68" y="206.7871">fee: 3,000,</text><text fill="#000000" font-family="sans-serif" font-size="13" lengthAdjust="spacing" textLength="101" x="68" y="222.0977">tickSpacing: 60,</text><text fill="#000000" font-family="sans-serif" font-size="13" lengthAdjust="spacing" textLength="145" x="68" y="237.4082">hooks: 0x3CD9..40bB],</text><text fill="#000000" font-family="sans-serif" font-size="13" lengthAdjust="spacing" textLength="58" x="60" y="252.7188">params: [</text><text fill="#000000" font-family="sans-serif" font-size="13" lengthAdjust="spacing" textLength="129" x="68" y="268.0293">tickLower: -887220,</text><text fill="#000000" font-family="sans-serif" font-size="13" lengthAdjust="spacing" textLength="125" x="68" y="283.3398">tickUpper: 887,220,</text><text fill="#000000" font-family="sans-serif" font-size="13" lengthAdjust="spacing" textLength="289" x="68" y="298.6504">liquidityDelta: 10,,000,000,000,000,000,000])</text><polygon fill="#181818" points="1270,344.0137,1280,348.0137,1270,352.0137,1274,348.0137" style="stroke:#181818;stroke-width:1.0;"/><line style="stroke:#181818;stroke-width:1.0;" x1="670" x2="1276" y1="348.0137" y2="348.0137"/><text fill="#000000" font-family="sans-serif" font-size="13" lengthAdjust="spacing" textLength="31" x="677" y="327.9609">lock(</text><text fill="#000000" font-family="sans-serif" font-size="13" lengthAdjust="spacing" textLength="190" x="677" y="343.2715">data: 0x00000000..89e80000)</text><polygon fill="#181818" points="686,388.6348,676,392.6348,686,396.6348,682,392.6348" style="stroke:#181818;stroke-width:1.0;"/><line style="stroke:#181818;stroke-width:1.0;" x1="680" x2="1281" y1="392.6348" y2="392.6348"/><text fill="#000000" font-family="sans-serif" font-size="13" lengthAdjust="spacing" textLength="87" x="692" y="372.582">lockAcquired(</text><text fill="#000000" font-family="sans-serif" font-size="13" lengthAdjust="spacing" textLength="214" x="692" y="387.8926">rawData: 0x00000000..89e80000)</text><polygon fill="#181818" points="1275,571.0508,1285,575.0508,1275,579.0508,1279,575.0508" style="stroke:#181818;stroke-width:1.0;"/><line style="stroke:#181818;stroke-width:1.0;" x1="675" x2="1281" y1="575.0508" y2="575.0508"/><text fill="#000000" font-family="sans-serif" font-size="13" lengthAdjust="spacing" textLength="99" x="682" y="417.2031">modifyPosition(</text><text fill="#000000" font-family="sans-serif" font-size="13" lengthAdjust="spacing" textLength="34" x="682" y="432.5137">key: [</text><text fill="#000000" font-family="sans-serif" font-size="13" lengthAdjust="spacing" textLength="161" x="690" y="447.8242">currency0: 0x5FbD..0aa3,</text><text fill="#000000" font-family="sans-serif" font-size="13" lengthAdjust="spacing" textLength="158" x="690" y="463.1348">currency1: 0xe7f1..0512,</text><text fill="#000000" font-family="sans-serif" font-size="13" lengthAdjust="spacing" textLength="67" x="690" y="478.4453">fee: 3,000,</text><text fill="#000000" font-family="sans-serif" font-size="13" lengthAdjust="spacing" textLength="101" x="690" y="493.7559">tickSpacing: 60,</text><text fill="#000000" font-family="sans-serif" font-size="13" lengthAdjust="spacing" textLength="145" x="690" y="509.0664">hooks: 0x3CD9..40bB],</text><text fill="#000000" font-family="sans-serif" font-size="13" lengthAdjust="spacing" textLength="58" x="682" y="524.377">params: [</text><text fill="#000000" font-family="sans-serif" font-size="13" lengthAdjust="spacing" textLength="129" x="690" y="539.6875">tickLower: -887220,</text><text fill="#000000" font-family="sans-serif" font-size="13" lengthAdjust="spacing" textLength="125" x="690" y="554.998">tickUpper: 887,220,</text><text fill="#000000" font-family="sans-serif" font-size="13" lengthAdjust="spacing" textLength="289" x="690" y="570.3086">liquidityDelta: 10,,000,000,000,000,000,000])</text><polygon fill="#181818" points="1852,768.7773,1862,772.7773,1852,776.7773,1856,772.7773" style="stroke:#181818;stroke-width:1.0;"/><line style="stroke:#181818;stroke-width:1.0;" x1="1297" x2="1858" y1="772.7773" y2="772.7773"/><text fill="#000000" font-family="sans-serif" font-size="13" lengthAdjust="spacing" textLength="138" x="1304" y="599.6191">beforeModifyPosition(</text><text fill="#000000" font-family="sans-serif" font-size="13" lengthAdjust="spacing" textLength="87" x="1304" y="614.9297">0xCf7E..0Fc9,</text><text fill="#000000" font-family="sans-serif" font-size="13" lengthAdjust="spacing" textLength="4" x="1304" y="630.2402">[</text><text fill="#000000" font-family="sans-serif" font-size="13" lengthAdjust="spacing" textLength="161" x="1312" y="645.5508">currency0: 0x5FbD..0aa3,</text><text fill="#000000" font-family="sans-serif" font-size="13" lengthAdjust="spacing" textLength="158" x="1312" y="660.8613">currency1: 0xe7f1..0512,</text><text fill="#000000" font-family="sans-serif" font-size="13" lengthAdjust="spacing" textLength="67" x="1312" y="676.1719">fee: 3,000,</text><text fill="#000000" font-family="sans-serif" font-size="13" lengthAdjust="spacing" textLength="101" x="1312" y="691.4824">tickSpacing: 60,</text><text fill="#000000" font-family="sans-serif" font-size="13" lengthAdjust="spacing" textLength="145" x="1312" y="706.793">hooks: 0x3CD9..40bB],</text><text fill="#000000" font-family="sans-serif" font-size="13" lengthAdjust="spacing" textLength="4" x="1304" y="722.1035">[</text><text fill="#000000" font-family="sans-serif" font-size="13" lengthAdjust="spacing" textLength="129" x="1312" y="737.4141">tickLower: -887220,</text><text fill="#000000" font-family="sans-serif" font-size="13" lengthAdjust="spacing" textLength="125" x="1312" y="752.7246">tickUpper: 887,220,</text><text fill="#000000" font-family="sans-serif" font-size="13" lengthAdjust="spacing" textLength="289" x="1312" y="768.0352">liquidityDelta: 10,,000,000,000,000,000,000])</text><polygon fill="#181818" points="1308,813.3984,1298,817.3984,1308,821.3984,1304,817.3984" style="stroke:#181818;stroke-width:1.0;"/><line style="stroke:#181818;stroke-width:1.0;stroke-dasharray:2.0,2.0;" x1="1302" x2="1868" y1="817.3984" y2="817.3984"/><text fill="#000000" font-family="sans-serif" font-size="13" lengthAdjust="spacing" textLength="4" x="1314" y="797.3457"> </text><text fill="#000000" font-family="sans-serif" font-size="13" lengthAdjust="spacing" textLength="79" x="1314" y="812.6563">0x0dbe5dbd</text><polygon fill="#181818" points="1852,1026.4355,1862,1030.4355,1852,1034.4355,1856,1030.4355" style="stroke:#181818;stroke-width:1.0;"/><line style="stroke:#181818;stroke-width:1.0;" x1="1297" x2="1858" y1="1030.4355" y2="1030.4355"/><text fill="#000000" font-family="sans-serif" font-size="13" lengthAdjust="spacing" textLength="127" x="1304" y="841.9668">afterModifyPosition(</text><text fill="#000000" font-family="sans-serif" font-size="13" lengthAdjust="spacing" textLength="87" x="1304" y="857.2773">0xCf7E..0Fc9,</text><text fill="#000000" font-family="sans-serif" font-size="13" lengthAdjust="spacing" textLength="4" x="1304" y="872.5879">[</text><text fill="#000000" font-family="sans-serif" font-size="13" lengthAdjust="spacing" textLength="161" x="1312" y="887.8984">currency0: 0x5FbD..0aa3,</text><text fill="#000000" font-family="sans-serif" font-size="13" lengthAdjust="spacing" textLength="158" x="1312" y="903.209">currency1: 0xe7f1..0512,</text><text fill="#000000" font-family="sans-serif" font-size="13" lengthAdjust="spacing" textLength="67" x="1312" y="918.5195">fee: 3,000,</text><text fill="#000000" font-family="sans-serif" font-size="13" lengthAdjust="spacing" textLength="101" x="1312" y="933.8301">tickSpacing: 60,</text><text fill="#000000" font-family="sans-serif" font-size="13" lengthAdjust="spacing" textLength="145" x="1312" y="949.1406">hooks: 0x3CD9..40bB],</text><text fill="#000000" font-family="sans-serif" font-size="13" lengthAdjust="spacing" textLength="4" x="1304" y="964.4512">[</text><text fill="#000000" font-family="sans-serif" font-size="13" lengthAdjust="spacing" textLength="129" x="1312" y="979.7617">tickLower: -887220,</text><text fill="#000000" font-family="sans-serif" font-size="13" lengthAdjust="spacing" textLength="125" x="1312" y="995.0723">tickUpper: 887,220,</text><text fill="#000000" font-family="sans-serif" font-size="13" lengthAdjust="spacing" textLength="289" x="1312" y="1010.3828">liquidityDelta: 10,,000,000,000,000,000,000],</text><text fill="#000000" font-family="sans-serif" font-size="13" lengthAdjust="spacing" textLength="548" x="1304" y="1025.6934">3,402,823,669,209,384,634,633,746,074,317,682,114,570,,000,000,000,000,000,000)</text><polygon fill="#181818" points="1308,1071.0566,1298,1075.0566,1308,1079.0566,1304,1075.0566" style="stroke:#181818;stroke-width:1.0;"/><line style="stroke:#181818;stroke-width:1.0;stroke-dasharray:2.0,2.0;" x1="1302" x2="1868" y1="1075.0566" y2="1075.0566"/><text fill="#000000" font-family="sans-serif" font-size="13" lengthAdjust="spacing" textLength="4" x="1314" y="1055.0039"> </text><text fill="#000000" font-family="sans-serif" font-size="13" lengthAdjust="spacing" textLength="76" x="1314" y="1070.3145">0x0e2059f5</text><polygon fill="#181818" points="686,1115.6777,676,1119.6777,686,1123.6777,682,1119.6777" style="stroke:#181818;stroke-width:1.0;"/><line style="stroke:#181818;stroke-width:1.0;stroke-dasharray:2.0,2.0;" x1="680" x2="1281" y1="1119.6777" y2="1119.6777"/><text fill="#000000" font-family="sans-serif" font-size="13" lengthAdjust="spacing" textLength="4" x="692" y="1099.625"> </text><text fill="#000000" font-family="sans-serif" font-size="13" lengthAdjust="spacing" textLength="583" x="692" y="1114.9355">delta: 3,402,823,669,209,384,634,633,746,074,317,682,114,570,,000,000,000,000,000,000</text><polygon fill="#181818" points="2045.5,1190.9199,2055.5,1194.9199,2045.5,1198.9199,2049.5,1194.9199" style="stroke:#181818;stroke-width:1.0;"/><line style="stroke:#181818;stroke-width:1.0;" x1="675" x2="2051.5" y1="1194.9199" y2="1194.9199"/><text fill="#000000" font-family="sans-serif" font-size="13" lengthAdjust="spacing" textLength="85" x="682" y="1144.2461">transferFrom(</text><text fill="#000000" font-family="sans-serif" font-size="13" lengthAdjust="spacing" textLength="138" x="682" y="1159.5566">sender: 0xf39F..2266,</text><text fill="#000000" font-family="sans-serif" font-size="13" lengthAdjust="spacing" textLength="149" x="682" y="1174.8672">recipient: 0x9fE4..a6e0,</text><text fill="#000000" font-family="sans-serif" font-size="13" lengthAdjust="spacing" textLength="248" x="682" y="1190.1777">amount: 10,,000,000,000,000,000,000)</text><polygon fill="#181818" points="686,1235.541,676,1239.541,686,1243.541,682,1239.541" style="stroke:#181818;stroke-width:1.0;"/><line style="stroke:#181818;stroke-width:1.0;stroke-dasharray:2.0,2.0;" x1="680" x2="2061.5" y1="1239.541" y2="1239.541"/><text fill="#000000" font-family="sans-serif" font-size="13" lengthAdjust="spacing" textLength="4" x="692" y="1219.4883"> </text><text fill="#000000" font-family="sans-serif" font-size="13" lengthAdjust="spacing" textLength="25" x="692" y="1234.7988">true</text><polygon fill="#181818" points="1275,1280.1621,1285,1284.1621,1275,1288.1621,1279,1284.1621" style="stroke:#181818;stroke-width:1.0;"/><line style="stroke:#181818;stroke-width:1.0;" x1="675" x2="1281" y1="1284.1621" y2="1284.1621"/><text fill="#000000" font-family="sans-serif" font-size="13" lengthAdjust="spacing" textLength="39" x="682" y="1264.1094">settle(</text><text fill="#000000" font-family="sans-serif" font-size="13" lengthAdjust="spacing" textLength="153" x="682" y="1279.4199">currency: 0x5FbD..0aa3)</text><polygon fill="#181818" points="2045.5,1324.7832,2055.5,1328.7832,2045.5,1332.7832,2049.5,1328.7832" style="stroke:#181818;stroke-width:1.0;"/><line style="stroke:#181818;stroke-width:1.0;" x1="1297" x2="2051.5" y1="1328.7832" y2="1328.7832"/><text fill="#000000" font-family="sans-serif" font-size="13" lengthAdjust="spacing" textLength="67" x="1304" y="1308.7305">balanceOf(</text><text fill="#000000" font-family="sans-serif" font-size="13" lengthAdjust="spacing" textLength="86" x="1304" y="1324.041">0x9fE4..a6e0)</text><polygon fill="#181818" points="1308,1369.4043,1298,1373.4043,1308,1377.4043,1304,1373.4043" style="stroke:#181818;stroke-width:1.0;"/><line style="stroke:#181818;stroke-width:1.0;stroke-dasharray:2.0,2.0;" x1="1302" x2="2061.5" y1="1373.4043" y2="1373.4043"/><text fill="#000000" font-family="sans-serif" font-size="13" lengthAdjust="spacing" textLength="4" x="1314" y="1353.3516"> </text><text fill="#000000" font-family="sans-serif" font-size="13" lengthAdjust="spacing" textLength="188" x="1314" y="1368.6621">10,,089,770,927,164,204,436</text><polygon fill="#181818" points="686,1414.0254,676,1418.0254,686,1422.0254,682,1418.0254" style="stroke:#181818;stroke-width:1.0;"/><line style="stroke:#181818;stroke-width:1.0;stroke-dasharray:2.0,2.0;" x1="680" x2="1281" y1="1418.0254" y2="1418.0254"/><text fill="#000000" font-family="sans-serif" font-size="13" lengthAdjust="spacing" textLength="4" x="692" y="1397.9727"> </text><text fill="#000000" font-family="sans-serif" font-size="13" lengthAdjust="spacing" textLength="223" x="692" y="1413.2832">paid: 10,,000,000,000,000,000,000</text><polygon fill="#181818" points="2313.5,1489.2676,2323.5,1493.2676,2313.5,1497.2676,2317.5,1493.2676" style="stroke:#181818;stroke-width:1.0;"/><line style="stroke:#181818;stroke-width:1.0;" x1="675" x2="2319.5" y1="1493.2676" y2="1493.2676"/><text fill="#000000" font-family="sans-serif" font-size="13" lengthAdjust="spacing" textLength="85" x="682" y="1442.5938">transferFrom(</text><text fill="#000000" font-family="sans-serif" font-size="13" lengthAdjust="spacing" textLength="138" x="682" y="1457.9043">sender: 0xf39F..2266,</text><text fill="#000000" font-family="sans-serif" font-size="13" lengthAdjust="spacing" textLength="149" x="682" y="1473.2148">recipient: 0x9fE4..a6e0,</text><text fill="#000000" font-family="sans-serif" font-size="13" lengthAdjust="spacing" textLength="248" x="682" y="1488.5254">amount: 10,,000,000,000,000,000,000)</text><polygon fill="#181818" points="686,1533.8887,676,1537.8887,686,1541.8887,682,1537.8887" style="stroke:#181818;stroke-width:1.0;"/><line style="stroke:#181818;stroke-width:1.0;stroke-dasharray:2.0,2.0;" x1="680" x2="2329.5" y1="1537.8887" y2="1537.8887"/><text fill="#000000" font-family="sans-serif" font-size="13" lengthAdjust="spacing" textLength="4" x="692" y="1517.8359"> </text><text fill="#000000" font-family="sans-serif" font-size="13" lengthAdjust="spacing" textLength="25" x="692" y="1533.1465">true</text><polygon fill="#181818" points="1275,1578.5098,1285,1582.5098,1275,1586.5098,1279,1582.5098" style="stroke:#181818;stroke-width:1.0;"/><line style="stroke:#181818;stroke-width:1.0;" x1="675" x2="1281" y1="1582.5098" y2="1582.5098"/><text fill="#000000" font-family="sans-serif" font-size="13" lengthAdjust="spacing" textLength="39" x="682" y="1562.457">settle(</text><text fill="#000000" font-family="sans-serif" font-size="13" lengthAdjust="spacing" textLength="150" x="682" y="1577.7676">currency: 0xe7f1..0512)</text><polygon fill="#181818" points="2313.5,1623.1309,2323.5,1627.1309,2313.5,1631.1309,2317.5,1627.1309" style="stroke:#181818;stroke-width:1.0;"/><line style="stroke:#181818;stroke-width:1.0;" x1="1297" x2="2319.5" y1="1627.1309" y2="1627.1309"/><text fill="#000000" font-family="sans-serif" font-size="13" lengthAdjust="spacing" textLength="67" x="1304" y="1607.0781">balanceOf(</text><text fill="#000000" font-family="sans-serif" font-size="13" lengthAdjust="spacing" textLength="86" x="1304" y="1622.3887">0x9fE4..a6e0)</text><polygon fill="#181818" points="1308,1667.752,1298,1671.752,1308,1675.752,1304,1671.752" style="stroke:#181818;stroke-width:1.0;"/><line style="stroke:#181818;stroke-width:1.0;stroke-dasharray:2.0,2.0;" x1="1302" x2="2329.5" y1="1671.752" y2="1671.752"/><text fill="#000000" font-family="sans-serif" font-size="13" lengthAdjust="spacing" textLength="4" x="1314" y="1651.6992"> </text><text fill="#000000" font-family="sans-serif" font-size="13" lengthAdjust="spacing" textLength="188" x="1314" y="1667.0098">10,,089,770,927,164,204,436</text><polygon fill="#181818" points="686,1712.373,676,1716.373,686,1720.373,682,1716.373" style="stroke:#181818;stroke-width:1.0;"/><line style="stroke:#181818;stroke-width:1.0;stroke-dasharray:2.0,2.0;" x1="680" x2="1281" y1="1716.373" y2="1716.373"/><text fill="#000000" font-family="sans-serif" font-size="13" lengthAdjust="spacing" textLength="4" x="692" y="1696.3203"> </text><text fill="#000000" font-family="sans-serif" font-size="13" lengthAdjust="spacing" textLength="223" x="692" y="1711.6309">paid: 10,,000,000,000,000,000,000</text><polygon fill="#181818" points="1270,1756.9941,1280,1760.9941,1270,1764.9941,1274,1760.9941" style="stroke:#181818;stroke-width:1.0;"/><line style="stroke:#181818;stroke-width:1.0;stroke-dasharray:2.0,2.0;" x1="670" x2="1276" y1="1760.9941" y2="1760.9941"/><text fill="#000000" font-family="sans-serif" font-size="13" lengthAdjust="spacing" textLength="4" x="677" y="1740.9414"> </text><text fill="#000000" font-family="sans-serif" font-size="13" lengthAdjust="spacing" textLength="151" x="677" y="1756.252">0x00000000..89e80000</text><polygon fill="#181818" points="681,1801.6152,671,1805.6152,681,1809.6152,677,1805.6152" style="stroke:#181818;stroke-width:1.0;"/><line style="stroke:#181818;stroke-width:1.0;stroke-dasharray:2.0,2.0;" x1="675" x2="1286" y1="1805.6152" y2="1805.6152"/><text fill="#000000" font-family="sans-serif" font-size="13" lengthAdjust="spacing" textLength="4" x="687" y="1785.5625"> </text><text fill="#000000" font-family="sans-serif" font-size="13" lengthAdjust="spacing" textLength="195" x="687" y="1800.873">result: 0x00000000..89e80000</text><polygon fill="#181818" points="64,1846.2363,54,1850.2363,64,1854.2363,60,1850.2363" style="stroke:#181818;stroke-width:1.0;"/><line style="stroke:#181818;stroke-width:1.0;stroke-dasharray:2.0,2.0;" x1="58" x2="664" y1="1850.2363" y2="1850.2363"/><text fill="#000000" font-family="sans-serif" font-size="13" lengthAdjust="spacing" textLength="4" x="70" y="1830.1836"> </text><text fill="#000000" font-family="sans-serif" font-size="13" lengthAdjust="spacing" textLength="583" x="70" y="1845.4941">delta: 3,402,823,669,209,384,634,633,746,074,317,682,114,570,,000,000,000,000,000,000</text><path d="M1132,1863.2363 L1132,1964.2363 L1442,1964.2363 L1442,1873.2363 L1432,1863.2363 L1132,1863.2363 " fill="#00FFFF" style="stroke:#181818;stroke-width:0.5;"/><path d="M1432,1863.2363 L1432,1873.2363 L1442,1873.2363 L1432,1863.2363 " fill="#00FFFF" style="stroke:#181818;stroke-width:0.5;"/><text fill="#000000" font-family="sans-serif" font-size="13" lengthAdjust="spacing" textLength="98" x="1138" y="1880.8047">ModifyPosition:</text><text fill="#000000" font-family="sans-serif" font-size="13" lengthAdjust="spacing" textLength="172" x="1146" y="1896.1152">id: 0x48a0776d..cc69ad05,</text><text fill="#000000" font-family="sans-serif" font-size="13" lengthAdjust="spacing" textLength="137" x="1146" y="1911.4258">sender: 0xCf7E..0Fc9,</text><text fill="#000000" font-family="sans-serif" font-size="13" lengthAdjust="spacing" textLength="129" x="1146" y="1926.7363">tickLower: -887220,</text><text fill="#000000" font-family="sans-serif" font-size="13" lengthAdjust="spacing" textLength="125" x="1146" y="1942.0469">tickUpper: 887,220,</text><text fill="#000000" font-family="sans-serif" font-size="13" lengthAdjust="spacing" textLength="281" x="1146" y="1957.3574">liquidityDelta: 10,,000,000,000,000,000,000</text><path d="M1814,1863.2363 L1814,1934.2363 L1923,1934.2363 L1923,1873.2363 L1913,1863.2363 L1814,1863.2363 " fill="#00FFFF" style="stroke:#181818;stroke-width:0.5;"/><path d="M1913,1863.2363 L1913,1873.2363 L1923,1873.2363 L1913,1863.2363 " fill="#00FFFF" style="stroke:#181818;stroke-width:0.5;"/><text fill="#000000" font-family="sans-serif" font-size="13" lengthAdjust="spacing" textLength="86" x="1820" y="1880.8047">BeforeModify:</text><text fill="#000000" font-family="sans-serif" font-size="13" lengthAdjust="spacing" textLength="80" x="1828" y="1896.1152">counter: 303</text><text fill="#000000" font-family="sans-serif" font-size="13" lengthAdjust="spacing" textLength="78" x="1820" y="1911.4258">AfterModify:</text><text fill="#000000" font-family="sans-serif" font-size="13" lengthAdjust="spacing" textLength="80" x="1828" y="1926.7363">counter: 403</text><path d="M1933,1863.2363 L1933,1934.2363 L2191,1934.2363 L2191,1873.2363 L2181,1863.2363 L1933,1863.2363 " fill="#00FFFF" style="stroke:#181818;stroke-width:0.5;"/><path d="M2181,1863.2363 L2181,1873.2363 L2191,1873.2363 L2181,1863.2363 " fill="#00FFFF" style="stroke:#181818;stroke-width:0.5;"/><text fill="#000000" font-family="sans-serif" font-size="13" lengthAdjust="spacing" textLength="56" x="1939" y="1880.8047">Transfer:</text><text fill="#000000" font-family="sans-serif" font-size="13" lengthAdjust="spacing" textLength="126" x="1947" y="1896.1152">from: 0xf39F..2266,</text><text fill="#000000" font-family="sans-serif" font-size="13" lengthAdjust="spacing" textLength="107" x="1947" y="1911.4258">to: 0x9fE4..a6e0,</text><text fill="#000000" font-family="sans-serif" font-size="13" lengthAdjust="spacing" textLength="229" x="1947" y="1926.7363">value: 10,,000,000,000,000,000,000</text><path d="M2201,1863.2363 L2201,1934.2363 L2459,1934.2363 L2459,1873.2363 L2449,1863.2363 L2201,1863.2363 " fill="#00FFFF" style="stroke:#181818;stroke-width:0.5;"/><path d="M2449,1863.2363 L2449,1873.2363 L2459,1873.2363 L2449,1863.2363 " fill="#00FFFF" style="stroke:#181818;stroke-width:0.5;"/><text fill="#000000" font-family="sans-serif" font-size="13" lengthAdjust="spacing" textLength="56" x="2207" y="1880.8047">Transfer:</text><text fill="#000000" font-family="sans-serif" font-size="13" lengthAdjust="spacing" textLength="126" x="2215" y="1896.1152">from: 0xf39F..2266,</text><text fill="#000000" font-family="sans-serif" font-size="13" lengthAdjust="spacing" textLength="107" x="2215" y="1911.4258">to: 0x9fE4..a6e0,</text><text fill="#000000" font-family="sans-serif" font-size="13" lengthAdjust="spacing" textLength="229" x="2215" y="1926.7363">value: 10,,000,000,000,000,000,000</text><!--SRC=[vLPBRzms4BxpLn3ffGKObH8bIXG20uuVxQ56WyOzDJbGrD0Ll2jjACbP__iEjPQqBzjfaBg7B22iXgCPplTn7kogRW6KhrKHXeaHKXLHKaemGlDOIMt28al24j8ubYNFIgaWJeKCZULAgZ0IKQQp91MS4ADNNTNKTAchkeQEqMBHc5iQC_g-hncDE3tjR_0l4ZGCyp3B4qb_kRecsdIDew_usWfbWo2Af7n5TKkzw0LALjfrbQbMkkxyTyQc40JS6ZLyvqKlq3TltZNDugefAtl_hcah7yqrjDt9oRu7PI4E0Ys13nwyw8NHWwxr3RX3Cs5A5GGnBuh1p8jUGBEpfgyxSByspUsXMMAB4kFLMWncNlG2cldeBluuY_YX4QGsHACaZ0OZBtfXpuXC9Bq-cOZ8wNA7Wny_rBTmdzE_FjIKcjuvgCqzp_7GaylYV1CPszQ5NZS7CEWiG4u5uvmF8ePw-twbJLNVv5Hkrlv6zAqt5MVd6vxUVaG50jFBzc5xR_TRynbSJbzdMHf5ixi_Lok_ZAjiN5vKd_gghBhxSrXqEgSXPqC4HvwFF_b4gkvq1nCHP4eDP6Syv9pwj4HEIkrTyZL_-0L1fY3pRrkkHYiovSWEqTxLgS4W7PJeqkdFvr_YzPa0l_FZEyhvM6mvBS0s3gxsEUBhCvjU8EHBet3t_ucjbsDf98Guw7fNUm9uMK1I5kKZn6cBBUhxv0qD18jvnB98C2aLYxXY8ekP5FuHB8qbusdCH9WocKKi36EMf8zxVEOW8EA9iicqL6v2_BOnx7IFSQhaj7EwRYsuIzSiyNnRmDsTPnndnULclY8T3d3ML51tNgFinSCyH8rU-c7s99zRwCTz9wYTw-6HljP2XvSDZ6dCeTtqUgu5p10BlT2rWT_jaBzpz4_5DS3954kHKHMbB9Gnda3COY6dRrQwAfy4lWDidCalJVcuxrTJFbVjSvJF4B-0yeEulWtbMsLrC5CdfOEsNtJ71-z_N8MaRX1ySmTklaZ-e3_rckpssfnGwh7oTPnfdgOIBuN6IALBdZ3KpLcprP39qQv8ZZP5ygzw8i7jg0-Ta9_f366wr6uWlDqQjXw0sLnqaKGkoEayK7PqCUgEUv_klXllrmzruwqjrivUoNYOpLwnuDgTNlJmDTYcI_HBxVuF]--></g></svg>