<?xml version="1.0" encoding="us-ascii" standalone="no"?><svg xmlns="http://www.w3.org/2000/svg" xmlns:xlink="http://www.w3.org/1999/xlink" contentStyleType="text/css" height="812px" preserveAspectRatio="none" style="width:883px;height:812px;background:#FFFFFF;" version="1.1" viewBox="0 0 883 812" width="883px" zoomAndPan="magnify"><defs/><g><text fill="#000000" font-family="sans-serif" font-size="14" font-weight="bold" lengthAdjust="spacing" textLength="570" x="155.5" y="28.5352">0x76f7a801d8f2240a93b754891a5da8ce855a9e6e0bada535d2a77556720bcc75</text><text fill="#000000" font-family="sans-serif" font-size="14" lengthAdjust="spacing" textLength="326" x="277.5" y="800.3477">none, block 4, Tue, 29 Aug 2023 02:47:40 GMT</text><rect fill="#FFFFFF" height="490.416" style="stroke:#181818;stroke-width:1.0;" width="10" x="169" y="150.2871"/><rect fill="#FFFFFF" height="403.7949" style="stroke:#181818;stroke-width:1.0;" width="10" x="174" y="208.9082"/><rect fill="#FFFFFF" height="447.1055" style="stroke:#181818;stroke-width:1.0;" width="10" x="301" y="179.5977"/><rect fill="#FFFFFF" height="100.6211" style="stroke:#181818;stroke-width:1.0;" width="10" x="306" y="238.2188"/><rect fill="#FFFFFF" height="57.3105" style="stroke:#181818;stroke-width:1.0;" width="10" x="306" y="411.4609"/><rect fill="#FFFFFF" height="57.3105" style="stroke:#181818;stroke-width:1.0;" width="10" x="306" y="527.3926"/><rect fill="#FFFFFF" height="14" style="stroke:#181818;stroke-width:1.0;" width="10" x="430" y="267.5293"/><rect fill="#FFFFFF" height="14" style="stroke:#181818;stroke-width:1.0;" width="10" x="430" y="310.8398"/><rect fill="#FFFFFF" height="14" style="stroke:#181818;stroke-width:1.0;" width="10" x="553" y="368.1504"/><rect fill="#FFFFFF" height="14" style="stroke:#181818;stroke-width:1.0;" width="10" x="553" y="440.7715"/><rect fill="#809ECB" height="100.6211" style="stroke:#181818;stroke-width:1.0;" width="10" x="685.5" y="498.082"/><rect fill="#FFFFFF" height="14" style="stroke:#181818;stroke-width:1.0;" width="10" x="818.5" y="556.7031"/><line style="stroke:#181818;stroke-width:0.5;stroke-dasharray:5.0,5.0;" x1="53" x2="53" y1="118.9766" y2="709.3242"/><line style="stroke:#181818;stroke-width:0.5;stroke-dasharray:5.0,5.0;" x1="174" x2="174" y1="118.9766" y2="709.3242"/><line style="stroke:#181818;stroke-width:0.5;stroke-dasharray:5.0,5.0;" x1="306" x2="306" y1="118.9766" y2="709.3242"/><line style="stroke:#181818;stroke-width:0.5;stroke-dasharray:5.0,5.0;" x1="435" x2="435" y1="118.9766" y2="709.3242"/><line style="stroke:#181818;stroke-width:0.5;stroke-dasharray:5.0,5.0;" x1="558" x2="558" y1="118.9766" y2="709.3242"/><line style="stroke:#181818;stroke-width:0.5;stroke-dasharray:5.0,5.0;" x1="690" x2="690" y1="118.9766" y2="709.3242"/><line style="stroke:#181818;stroke-width:0.5;stroke-dasharray:5.0,5.0;" x1="823" x2="823" y1="118.9766" y2="709.3242"/><text fill="#000000" font-family="sans-serif" font-size="14" lengthAdjust="spacing" textLength="90" x="5" y="116.0234">0xf39f..2266</text><ellipse cx="53" cy="50.9883" fill="#E2E2F0" rx="8" ry="8" style="stroke:#181818;stroke-width:0.5;"/><path d="M53,58.9883 L53,85.9883 M40,66.9883 L66,66.9883 M53,85.9883 L40,100.9883 M53,85.9883 L66,100.9883 " fill="none" style="stroke:#181818;stroke-width:0.5;"/><text fill="#000000" font-family="sans-serif" font-size="14" lengthAdjust="spacing" textLength="90" x="5" y="721.8594">0xf39f..2266</text><ellipse cx="53" cy="733.3125" fill="#E2E2F0" rx="8" ry="8" style="stroke:#181818;stroke-width:0.5;"/><path d="M53,741.3125 L53,768.3125 M40,749.3125 L66,749.3125 M53,768.3125 L40,783.3125 M53,768.3125 L66,783.3125 " fill="none" style="stroke:#181818;stroke-width:0.5;"/><rect fill="#E2E2F0" height="46.9766" rx="2.5" ry="2.5" style="stroke:#181818;stroke-width:0.5;" width="126" x="111" y="71"/><text fill="#000000" font-family="sans-serif" font-size="14" font-style="italic" lengthAdjust="spacing" textLength="112" x="118" y="91.5352">&#171;GenericRouter&#187;</text><text fill="#000000" font-family="sans-serif" font-size="14" lengthAdjust="spacing" textLength="85" x="131.5" y="108.0234">0xcf7e..0fc9</text><rect fill="#E2E2F0" height="46.9766" rx="2.5" ry="2.5" style="stroke:#181818;stroke-width:0.5;" width="126" x="111" y="708.3242"/><text fill="#000000" font-family="sans-serif" font-size="14" font-style="italic" lengthAdjust="spacing" textLength="112" x="118" y="728.8594">&#171;GenericRouter&#187;</text><text fill="#000000" font-family="sans-serif" font-size="14" lengthAdjust="spacing" textLength="85" x="131.5" y="745.3477">0xcf7e..0fc9</text><rect fill="#E2E2F0" height="46.9766" rx="2.5" ry="2.5" style="stroke:#181818;stroke-width:0.5;" width="118" x="247" y="71"/><text fill="#000000" font-family="sans-serif" font-size="14" font-style="italic" lengthAdjust="spacing" textLength="104" x="254" y="91.5352">&#171;PoolManager&#187;</text><text fill="#000000" font-family="sans-serif" font-size="14" lengthAdjust="spacing" textLength="91" x="260.5" y="108.0234">0x9fe4..a6e0</text><rect fill="#E2E2F0" height="46.9766" rx="2.5" ry="2.5" style="stroke:#181818;stroke-width:0.5;" width="118" x="247" y="708.3242"/><text fill="#000000" font-family="sans-serif" font-size="14" font-style="italic" lengthAdjust="spacing" textLength="104" x="254" y="728.8594">&#171;PoolManager&#187;</text><text fill="#000000" font-family="sans-serif" font-size="14" lengthAdjust="spacing" textLength="91" x="260.5" y="745.3477">0x9fe4..a6e0</text><rect fill="#E2E2F0" height="46.9766" rx="2.5" ry="2.5" style="stroke:#181818;stroke-width:0.5;" width="120" x="375" y="71"/><text fill="#000000" font-family="sans-serif" font-size="14" font-style="italic" lengthAdjust="spacing" textLength="106" x="382" y="91.5352">&#171;CounterHook&#187;</text><text fill="#000000" font-family="sans-serif" font-size="14" lengthAdjust="spacing" textLength="96" x="387" y="108.0234">0x3c7d..0652</text><rect fill="#E2E2F0" height="46.9766" rx="2.5" ry="2.5" style="stroke:#181818;stroke-width:0.5;" width="120" x="375" y="708.3242"/><text fill="#000000" font-family="sans-serif" font-size="14" font-style="italic" lengthAdjust="spacing" textLength="106" x="382" y="728.8594">&#171;CounterHook&#187;</text><text fill="#000000" font-family="sans-serif" font-size="14" lengthAdjust="spacing" textLength="96" x="387" y="745.3477">0x3c7d..0652</text><rect fill="#E2E2F0" height="63.4648" rx="2.5" ry="2.5" style="stroke:#181818;stroke-width:0.5;" width="106" x="505" y="54.5117"/><text fill="#000000" font-family="sans-serif" font-size="14" font-style="italic" lengthAdjust="spacing" textLength="62" x="527" y="75.0469">&#171;token0&#187;</text><text fill="#000000" font-family="sans-serif" font-size="14" font-style="italic" lengthAdjust="spacing" textLength="88" x="514" y="91.5352">&#171;TestERC20&#187;</text><text fill="#000000" font-family="sans-serif" font-size="14" lengthAdjust="spacing" textLength="92" x="512" y="108.0234">0x5fbd..0aa3</text><rect fill="#E2E2F0" height="63.4648" rx="2.5" ry="2.5" style="stroke:#181818;stroke-width:0.5;" width="106" x="505" y="708.3242"/><text fill="#000000" font-family="sans-serif" font-size="14" font-style="italic" lengthAdjust="spacing" textLength="62" x="527" y="728.8594">&#171;token0&#187;</text><text fill="#000000" font-family="sans-serif" font-size="14" font-style="italic" lengthAdjust="spacing" textLength="88" x="514" y="745.3477">&#171;TestERC20&#187;</text><text fill="#000000" font-family="sans-serif" font-size="14" lengthAdjust="spacing" textLength="92" x="512" y="761.8359">0x5fbd..0aa3</text><rect fill="#E2E2F0" height="46.9766" rx="2.5" ry="2.5" style="stroke:#181818;stroke-width:0.5;" width="139" x="621" y="71"/><text fill="#000000" font-family="sans-serif" font-size="14" font-style="italic" lengthAdjust="spacing" textLength="125" x="628" y="91.5352">&#171;RouterCallbacks&#187;</text><text fill="#000000" font-family="sans-serif" font-size="14" lengthAdjust="spacing" textLength="90" x="645.5" y="108.0234">0xdc64..f6c9</text><rect fill="#E2E2F0" height="46.9766" rx="2.5" ry="2.5" style="stroke:#181818;stroke-width:0.5;" width="139" x="621" y="708.3242"/><text fill="#000000" font-family="sans-serif" font-size="14" font-style="italic" lengthAdjust="spacing" textLength="125" x="628" y="728.8594">&#171;RouterCallbacks&#187;</text><text fill="#000000" font-family="sans-serif" font-size="14" lengthAdjust="spacing" textLength="90" x="645.5" y="745.3477">0xdc64..f6c9</text><rect fill="#E2E2F0" height="63.4648" rx="2.5" ry="2.5" style="stroke:#181818;stroke-width:0.5;" width="107" x="770" y="54.5117"/><text fill="#000000" font-family="sans-serif" font-size="14" font-style="italic" lengthAdjust="spacing" textLength="62" x="792.5" y="75.0469">&#171;token1&#187;</text><text fill="#000000" font-family="sans-serif" font-size="14" font-style="italic" lengthAdjust="spacing" textLength="88" x="779.5" y="91.5352">&#171;TestERC20&#187;</text><text fill="#000000" font-family="sans-serif" font-size="14" lengthAdjust="spacing" textLength="93" x="777" y="108.0234">0xe7f1..0512</text><rect fill="#E2E2F0" height="63.4648" rx="2.5" ry="2.5" style="stroke:#181818;stroke-width:0.5;" width="107" x="770" y="708.3242"/><text fill="#000000" font-family="sans-serif" font-size="14" font-style="italic" lengthAdjust="spacing" textLength="62" x="792.5" y="728.8594">&#171;token1&#187;</text><text fill="#000000" font-family="sans-serif" font-size="14" font-style="italic" lengthAdjust="spacing" textLength="88" x="779.5" y="745.3477">&#171;TestERC20&#187;</text><text fill="#000000" font-family="sans-serif" font-size="14" lengthAdjust="spacing" textLength="93" x="777" y="761.8359">0xe7f1..0512</text><rect fill="#FFFFFF" height="490.416" style="stroke:#181818;stroke-width:1.0;" width="10" x="169" y="150.2871"/><rect fill="#FFFFFF" height="403.7949" style="stroke:#181818;stroke-width:1.0;" width="10" x="174" y="208.9082"/><rect fill="#FFFFFF" height="447.1055" style="stroke:#181818;stroke-width:1.0;" width="10" x="301" y="179.5977"/><rect fill="#FFFFFF" height="100.6211" style="stroke:#181818;stroke-width:1.0;" width="10" x="306" y="238.2188"/><rect fill="#FFFFFF" height="57.3105" style="stroke:#181818;stroke-width:1.0;" width="10" x="306" y="411.4609"/><rect fill="#FFFFFF" height="57.3105" style="stroke:#181818;stroke-width:1.0;" width="10" x="306" y="527.3926"/><rect fill="#FFFFFF" height="14" style="stroke:#181818;stroke-width:1.0;" width="10" x="430" y="267.5293"/><rect fill="#FFFFFF" height="14" style="stroke:#181818;stroke-width:1.0;" width="10" x="430" y="310.8398"/><rect fill="#FFFFFF" height="14" style="stroke:#181818;stroke-width:1.0;" width="10" x="553" y="368.1504"/><rect fill="#FFFFFF" height="14" style="stroke:#181818;stroke-width:1.0;" width="10" x="553" y="440.7715"/><rect fill="#809ECB" height="100.6211" style="stroke:#181818;stroke-width:1.0;" width="10" x="685.5" y="498.082"/><rect fill="#FFFFFF" height="14" style="stroke:#181818;stroke-width:1.0;" width="10" x="818.5" y="556.7031"/><polygon fill="#181818" points="157,146.2871,167,150.2871,157,154.2871,161,150.2871" style="stroke:#181818;stroke-width:1.0;"/><line style="stroke:#181818;stroke-width:1.0;" x1="53" x2="163" y1="150.2871" y2="150.2871"/><text fill="#000000" font-family="sans-serif" font-size="13" lengthAdjust="spacing" textLength="49" x="60" y="145.5449">process</text><polygon fill="#181818" points="289,175.5977,299,179.5977,289,183.5977,293,179.5977" style="stroke:#181818;stroke-width:1.0;"/><line style="stroke:#181818;stroke-width:1.0;" x1="179" x2="295" y1="179.5977" y2="179.5977"/><text fill="#000000" font-family="sans-serif" font-size="13" lengthAdjust="spacing" textLength="27" x="186" y="174.8555">lock</text><polygon fill="#181818" points="195,204.9082,185,208.9082,195,212.9082,191,208.9082" style="stroke:#181818;stroke-width:1.0;"/><line style="stroke:#181818;stroke-width:1.0;" x1="189" x2="300" y1="208.9082" y2="208.9082"/><text fill="#000000" font-family="sans-serif" font-size="13" lengthAdjust="spacing" textLength="83" x="201" y="204.166">lockAcquired</text><polygon fill="#181818" points="294,234.2188,304,238.2188,294,242.2188,298,238.2188" style="stroke:#181818;stroke-width:1.0;"/><line style="stroke:#181818;stroke-width:1.0;" x1="184" x2="300" y1="238.2188" y2="238.2188"/><text fill="#000000" font-family="sans-serif" font-size="13" lengthAdjust="spacing" textLength="32" x="191" y="233.4766">swap</text><polygon fill="#181818" points="418,263.5293,428,267.5293,418,271.5293,422,267.5293" style="stroke:#181818;stroke-width:1.0;"/><line style="stroke:#181818;stroke-width:1.0;" x1="316" x2="424" y1="267.5293" y2="267.5293"/><text fill="#000000" font-family="sans-serif" font-size="13" lengthAdjust="spacing" textLength="72" x="323" y="262.7871">beforeSwap</text><polygon fill="#181818" points="327,277.5293,317,281.5293,327,285.5293,323,281.5293" style="stroke:#181818;stroke-width:1.0;"/><line style="stroke:#181818;stroke-width:1.0;stroke-dasharray:2.0,2.0;" x1="321" x2="434" y1="281.5293" y2="281.5293"/><polygon fill="#181818" points="418,306.8398,428,310.8398,418,314.8398,422,310.8398" style="stroke:#181818;stroke-width:1.0;"/><line style="stroke:#181818;stroke-width:1.0;" x1="316" x2="424" y1="310.8398" y2="310.8398"/><text fill="#000000" font-family="sans-serif" font-size="13" lengthAdjust="spacing" textLength="61" x="323" y="306.0977">afterSwap</text><polygon fill="#181818" points="327,320.8398,317,324.8398,327,328.8398,323,324.8398" style="stroke:#181818;stroke-width:1.0;"/><line style="stroke:#181818;stroke-width:1.0;stroke-dasharray:2.0,2.0;" x1="321" x2="434" y1="324.8398" y2="324.8398"/><polygon fill="#181818" points="195,334.8398,185,338.8398,195,342.8398,191,338.8398" style="stroke:#181818;stroke-width:1.0;"/><line style="stroke:#181818;stroke-width:1.0;stroke-dasharray:2.0,2.0;" x1="189" x2="300" y1="338.8398" y2="338.8398"/><polygon fill="#181818" points="541,364.1504,551,368.1504,541,372.1504,545,368.1504" style="stroke:#181818;stroke-width:1.0;"/><line style="stroke:#181818;stroke-width:1.0;" x1="184" x2="547" y1="368.1504" y2="368.1504"/><text fill="#000000" font-family="sans-serif" font-size="13" lengthAdjust="spacing" textLength="81" x="191" y="363.4082">transferFrom</text><polygon fill="#181818" points="195,378.1504,185,382.1504,195,386.1504,191,382.1504" style="stroke:#181818;stroke-width:1.0;"/><line style="stroke:#181818;stroke-width:1.0;stroke-dasharray:2.0,2.0;" x1="189" x2="557" y1="382.1504" y2="382.1504"/><polygon fill="#181818" points="294,407.4609,304,411.4609,294,415.4609,298,411.4609" style="stroke:#181818;stroke-width:1.0;"/><line style="stroke:#181818;stroke-width:1.0;" x1="184" x2="300" y1="411.4609" y2="411.4609"/><text fill="#000000" font-family="sans-serif" font-size="13" lengthAdjust="spacing" textLength="35" x="191" y="406.7188">settle</text><polygon fill="#181818" points="541,436.7715,551,440.7715,541,444.7715,545,440.7715" style="stroke:#181818;stroke-width:1.0;"/><line style="stroke:#181818;stroke-width:1.0;" x1="316" x2="547" y1="440.7715" y2="440.7715"/><text fill="#000000" font-family="sans-serif" font-size="13" lengthAdjust="spacing" textLength="63" x="323" y="436.0293">balanceOf</text><polygon fill="#181818" points="327,450.7715,317,454.7715,327,458.7715,323,454.7715" style="stroke:#181818;stroke-width:1.0;"/><line style="stroke:#181818;stroke-width:1.0;stroke-dasharray:2.0,2.0;" x1="321" x2="557" y1="454.7715" y2="454.7715"/><polygon fill="#181818" points="195,464.7715,185,468.7715,195,472.7715,191,468.7715" style="stroke:#181818;stroke-width:1.0;"/><line style="stroke:#181818;stroke-width:1.0;stroke-dasharray:2.0,2.0;" x1="189" x2="300" y1="468.7715" y2="468.7715"/><line style="stroke:#181818;stroke-width:1.0;" x1="683.5" x2="673.5" y1="498.082" y2="494.082"/><line style="stroke:#181818;stroke-width:1.0;" x1="683.5" x2="673.5" y1="498.082" y2="502.082"/><line style="stroke:#181818;stroke-width:1.0;" x1="184" x2="684.5" y1="498.082" y2="498.082"/><text fill="#000000" font-family="sans-serif" font-size="13" lengthAdjust="spacing" textLength="86" x="191" y="493.3398">swapCallback</text><polygon fill="#3471CD" points="294,523.3926,304,527.3926,294,531.3926,298,527.3926" style="stroke:#3471CD;stroke-width:1.0;"/><line style="stroke:#3471CD;stroke-width:1.0;" x1="184" x2="300" y1="527.3926" y2="527.3926"/><text fill="#000000" font-family="sans-serif" font-size="13" lengthAdjust="spacing" textLength="27" x="191" y="522.6504">take</text><polygon fill="#181818" points="806.5,552.7031,816.5,556.7031,806.5,560.7031,810.5,556.7031" style="stroke:#181818;stroke-width:1.0;"/><line style="stroke:#181818;stroke-width:1.0;" x1="316" x2="812.5" y1="556.7031" y2="556.7031"/><text fill="#000000" font-family="sans-serif" font-size="13" lengthAdjust="spacing" textLength="49" x="323" y="551.9609">transfer</text><polygon fill="#181818" points="327,566.7031,317,570.7031,327,574.7031,323,570.7031" style="stroke:#181818;stroke-width:1.0;"/><line style="stroke:#181818;stroke-width:1.0;stroke-dasharray:2.0,2.0;" x1="321" x2="822.5" y1="570.7031" y2="570.7031"/><polygon fill="#3471CD" points="195,580.7031,185,584.7031,195,588.7031,191,584.7031" style="stroke:#3471CD;stroke-width:1.0;"/><line style="stroke:#3471CD;stroke-width:1.0;stroke-dasharray:2.0,2.0;" x1="189" x2="300" y1="584.7031" y2="584.7031"/><line style="stroke:#181818;stroke-width:1.0;" x1="185" x2="195" y1="598.7031" y2="594.7031"/><line style="stroke:#181818;stroke-width:1.0;" x1="185" x2="195" y1="598.7031" y2="602.7031"/><line style="stroke:#181818;stroke-width:1.0;stroke-dasharray:2.0,2.0;" x1="184" x2="689.5" y1="598.7031" y2="598.7031"/><polygon fill="#181818" points="289,608.7031,299,612.7031,289,616.7031,293,612.7031" style="stroke:#181818;stroke-width:1.0;"/><line style="stroke:#181818;stroke-width:1.0;stroke-dasharray:2.0,2.0;" x1="179" x2="295" y1="612.7031" y2="612.7031"/><polygon fill="#181818" points="190,622.7031,180,626.7031,190,630.7031,186,626.7031" style="stroke:#181818;stroke-width:1.0;"/><line style="stroke:#181818;stroke-width:1.0;stroke-dasharray:2.0,2.0;" x1="184" x2="305" y1="626.7031" y2="626.7031"/><polygon fill="#181818" points="64,636.7031,54,640.7031,64,644.7031,60,640.7031" style="stroke:#181818;stroke-width:1.0;"/><line style="stroke:#181818;stroke-width:1.0;stroke-dasharray:2.0,2.0;" x1="58" x2="173" y1="640.7031" y2="640.7031"/><path d="M279,653.7031 L279,678.7031 L332,678.7031 L332,663.7031 L322,653.7031 L279,653.7031 " fill="#00FFFF" style="stroke:#181818;stroke-width:0.5;"/><path d="M322,653.7031 L322,663.7031 L332,663.7031 L322,653.7031 " fill="#00FFFF" style="stroke:#181818;stroke-width:0.5;"/><text fill="#000000" font-family="sans-serif" font-size="13" lengthAdjust="spacing" textLength="32" x="285" y="671.2715">Swap</text><path d="M389,653.7031 L389,693.7031 L481,693.7031 L481,663.7031 L471,653.7031 L389,653.7031 " fill="#00FFFF" style="stroke:#181818;stroke-width:0.5;"/><path d="M471,653.7031 L471,663.7031 L481,663.7031 L471,653.7031 " fill="#00FFFF" style="stroke:#181818;stroke-width:0.5;"/><text fill="#000000" font-family="sans-serif" font-size="13" lengthAdjust="spacing" textLength="71" x="395" y="671.2715">BeforeSwap</text><text fill="#000000" font-family="sans-serif" font-size="13" lengthAdjust="spacing" textLength="63" x="395" y="686.582">AfterSwap</text><path d="M521,653.7031 L521,678.7031 L594,678.7031 L594,663.7031 L584,653.7031 L521,653.7031 " fill="#00FFFF" style="stroke:#181818;stroke-width:0.5;"/><path d="M584,653.7031 L584,663.7031 L594,663.7031 L584,653.7031 " fill="#00FFFF" style="stroke:#181818;stroke-width:0.5;"/><text fill="#000000" font-family="sans-serif" font-size="13" lengthAdjust="spacing" textLength="52" x="527" y="671.2715">Transfer</text><path d="M787,653.7031 L787,678.7031 L860,678.7031 L860,663.7031 L850,653.7031 L787,653.7031 " fill="#00FFFF" style="stroke:#181818;stroke-width:0.5;"/><path d="M850,653.7031 L850,663.7031 L860,663.7031 L850,653.7031 " fill="#00FFFF" style="stroke:#181818;stroke-width:0.5;"/><text fill="#000000" font-family="sans-serif" font-size="13" lengthAdjust="spacing" textLength="52" x="793" y="671.2715">Transfer</text><!--SRC=[ZPDTRvim58Rl_IkivhPZnc0SK8JKPbrtKstgSZVjuc3i2eNPgJ5TV_xif42QZsPNwCNdyNk-x1hNIanUUQOup4bSpnMbAO4ygJXBvtaCh8Qva7F689UP91NKm19MK-2SiOnJKWd16K82Dgun6ckZvJMkMYFMEBt6gzuhckER_WbJGXDCQ97o8YNu_c65G3XZyHLvLKckeeZIBBl2qE4WWy1e0zOrejc0TY5EA2wZY2YHR-E2308l5lTIIzk8HzCxQSlo4CoLJAC8V0LRCCWWFFZ3cFO1D3oTmXB1Q- -NCRh5WWp2OqlJQ-_qpPZrCSPK5J20P8i56OJ7d5bBJSfoiLZ9pjqzBYavnckH-MHLzbPba45uV5VU4jgs0h7kZb79LUoTMRnBECWW1kVuq1cDhVvKZkqiyCOQ8Rik3AXv0IV78pIstCSFNInm6FSKFFn7OvlVNHw2RyHptrXP_xT3znSs5no6wHIuaifO-VCTCfmYArrlzHaIbE_ln-3RPp_DOS05TXPqfwJzQisVwOhX_1IxLw9q_ZLUA7Aogg05BUHtTTxdsAuSjsdNqc6LfZl6RPlDINwtlDsZVysIbCVBBx_titQmlfJpi8LJUoPWE3j8-QCFqiQ3vaNQwHtFuBa7j1sSr3KE4GXznbFa-7HtaRVJXjoC8pzDZgztHww64av7Zo_kNFG_]--></g></svg>