<?xml version="1.0" encoding="us-ascii" standalone="no"?><svg xmlns="http://www.w3.org/2000/svg" xmlns:xlink="http://www.w3.org/1999/xlink" contentStyleType="text/css" height="898px" preserveAspectRatio="none" style="width:924px;height:898px;background:#FFFFFF;" version="1.1" viewBox="0 0 924 898" width="924px" zoomAndPan="magnify"><defs/><g><text fill="#000000" font-family="sans-serif" font-size="14" font-weight="bold" lengthAdjust="spacing" textLength="573" x="174.5" y="28.5352">0x834f3d9c9817753ee9e6fecbb10680ceb912d3a2ea7b84010488886600091d22</text><text fill="#000000" font-family="sans-serif" font-size="14" lengthAdjust="spacing" textLength="326" x="298" y="886.9688">none, block 4, Tue, 29 Aug 2023 02:47:40 GMT</text><rect fill="#FFFFFF" height="577.0371" style="stroke:#181818;stroke-width:1.0;" width="10" x="169" y="150.2871"/><rect fill="#FFFFFF" height="490.416" style="stroke:#181818;stroke-width:1.0;" width="10" x="174" y="208.9082"/><rect fill="#FFFFFF" height="533.7266" style="stroke:#181818;stroke-width:1.0;" width="10" x="303" y="179.5977"/><rect fill="#FFFFFF" height="100.6211" style="stroke:#181818;stroke-width:1.0;" width="10" x="308" y="238.2188"/><rect fill="#FFFFFF" height="57.3105" style="stroke:#181818;stroke-width:1.0;" width="10" x="308" y="454.7715"/><rect fill="#FFFFFF" height="57.3105" style="stroke:#181818;stroke-width:1.0;" width="10" x="308" y="628.0137"/><rect fill="#FFFFFF" height="14" style="stroke:#181818;stroke-width:1.0;" width="10" x="471" y="267.5293"/><rect fill="#FFFFFF" height="14" style="stroke:#181818;stroke-width:1.0;" width="10" x="471" y="310.8398"/><rect fill="#809ECB" height="57.3105" style="stroke:#181818;stroke-width:1.0;" width="10" x="610.5" y="368.1504"/><rect fill="#809ECB" height="57.3105" style="stroke:#181818;stroke-width:1.0;" width="10" x="610.5" y="541.3926"/><rect fill="#FFFFFF" height="14" style="stroke:#181818;stroke-width:1.0;" width="10" x="743" y="397.4609"/><rect fill="#FFFFFF" height="14" style="stroke:#181818;stroke-width:1.0;" width="10" x="743" y="484.082"/><rect fill="#FFFFFF" height="14" style="stroke:#181818;stroke-width:1.0;" width="10" x="859.5" y="570.7031"/><rect fill="#FFFFFF" height="14" style="stroke:#181818;stroke-width:1.0;" width="10" x="859.5" y="657.3242"/><line style="stroke:#181818;stroke-width:0.5;stroke-dasharray:5.0,5.0;" x1="53" x2="53" y1="118.9766" y2="795.9453"/><line style="stroke:#181818;stroke-width:0.5;stroke-dasharray:5.0,5.0;" x1="174" x2="174" y1="118.9766" y2="795.9453"/><line style="stroke:#181818;stroke-width:0.5;stroke-dasharray:5.0,5.0;" x1="308" x2="308" y1="118.9766" y2="795.9453"/><line style="stroke:#181818;stroke-width:0.5;stroke-dasharray:5.0,5.0;" x1="476" x2="476" y1="118.9766" y2="795.9453"/><line style="stroke:#181818;stroke-width:0.5;stroke-dasharray:5.0,5.0;" x1="615" x2="615" y1="118.9766" y2="795.9453"/><line style="stroke:#181818;stroke-width:0.5;stroke-dasharray:5.0,5.0;" x1="748" x2="748" y1="118.9766" y2="795.9453"/><line style="stroke:#181818;stroke-width:0.5;stroke-dasharray:5.0,5.0;" x1="864" x2="864" y1="118.9766" y2="795.9453"/><text fill="#000000" font-family="sans-serif" font-size="14" lengthAdjust="spacing" textLength="90" x="5" y="116.0234">0xf39f..2266</text><ellipse cx="53" cy="50.9883" fill="#E2E2F0" rx="8" ry="8" style="stroke:#181818;stroke-width:0.5;"/><path d="M53,58.9883 L53,85.9883 M40,66.9883 L66,66.9883 M53,85.9883 L40,100.9883 M53,85.9883 L66,100.9883 " fill="none" style="stroke:#181818;stroke-width:0.5;"/><text fill="#000000" font-family="sans-serif" font-size="14" lengthAdjust="spacing" textLength="90" x="5" y="808.4805">0xf39f..2266</text><ellipse cx="53" cy="819.9336" fill="#E2E2F0" rx="8" ry="8" style="stroke:#181818;stroke-width:0.5;"/><path d="M53,827.9336 L53,854.9336 M40,835.9336 L66,835.9336 M53,854.9336 L40,869.9336 M53,854.9336 L66,869.9336 " fill="none" style="stroke:#181818;stroke-width:0.5;"/><rect fill="#E2E2F0" height="46.9766" rx="2.5" ry="2.5" style="stroke:#181818;stroke-width:0.5;" width="126" x="111" y="71"/><text fill="#000000" font-family="sans-serif" font-size="14" font-style="italic" lengthAdjust="spacing" textLength="112" x="118" y="91.5352">&#171;GenericRouter&#187;</text><text fill="#000000" font-family="sans-serif" font-size="14" lengthAdjust="spacing" textLength="85" x="131.5" y="108.0234">0xcf7e..0fc9</text><rect fill="#E2E2F0" height="46.9766" rx="2.5" ry="2.5" style="stroke:#181818;stroke-width:0.5;" width="126" x="111" y="794.9453"/><text fill="#000000" font-family="sans-serif" font-size="14" font-style="italic" lengthAdjust="spacing" textLength="112" x="118" y="815.4805">&#171;GenericRouter&#187;</text><text fill="#000000" font-family="sans-serif" font-size="14" lengthAdjust="spacing" textLength="85" x="131.5" y="831.9688">0xcf7e..0fc9</text><rect fill="#E2E2F0" height="46.9766" rx="2.5" ry="2.5" style="stroke:#181818;stroke-width:0.5;" width="118" x="249" y="71"/><text fill="#000000" font-family="sans-serif" font-size="14" font-style="italic" lengthAdjust="spacing" textLength="104" x="256" y="91.5352">&#171;PoolManager&#187;</text><text fill="#000000" font-family="sans-serif" font-size="14" lengthAdjust="spacing" textLength="91" x="262.5" y="108.0234">0x9fe4..a6e0</text><rect fill="#E2E2F0" height="46.9766" rx="2.5" ry="2.5" style="stroke:#181818;stroke-width:0.5;" width="118" x="249" y="794.9453"/><text fill="#000000" font-family="sans-serif" font-size="14" font-style="italic" lengthAdjust="spacing" textLength="104" x="256" y="815.4805">&#171;PoolManager&#187;</text><text fill="#000000" font-family="sans-serif" font-size="14" lengthAdjust="spacing" textLength="91" x="262.5" y="831.9688">0x9fe4..a6e0</text><rect fill="#E2E2F0" height="46.9766" rx="2.5" ry="2.5" style="stroke:#181818;stroke-width:0.5;" width="120" x="416" y="71"/><text fill="#000000" font-family="sans-serif" font-size="14" font-style="italic" lengthAdjust="spacing" textLength="106" x="423" y="91.5352">&#171;CounterHook&#187;</text><text fill="#000000" font-family="sans-serif" font-size="14" lengthAdjust="spacing" textLength="96" x="428" y="108.0234">0x3c7d..0652</text><rect fill="#E2E2F0" height="46.9766" rx="2.5" ry="2.5" style="stroke:#181818;stroke-width:0.5;" width="120" x="416" y="794.9453"/><text fill="#000000" font-family="sans-serif" font-size="14" font-style="italic" lengthAdjust="spacing" textLength="106" x="423" y="815.4805">&#171;CounterHook&#187;</text><text fill="#000000" font-family="sans-serif" font-size="14" lengthAdjust="spacing" textLength="96" x="428" y="831.9688">0x3c7d..0652</text><rect fill="#E2E2F0" height="46.9766" rx="2.5" ry="2.5" style="stroke:#181818;stroke-width:0.5;" width="139" x="546" y="71"/><text fill="#000000" font-family="sans-serif" font-size="14" font-style="italic" lengthAdjust="spacing" textLength="125" x="553" y="91.5352">&#171;RouterCallbacks&#187;</text><text fill="#000000" font-family="sans-serif" font-size="14" lengthAdjust="spacing" textLength="90" x="570.5" y="108.0234">0xdc64..f6c9</text><rect fill="#E2E2F0" height="46.9766" rx="2.5" ry="2.5" style="stroke:#181818;stroke-width:0.5;" width="139" x="546" y="794.9453"/><text fill="#000000" font-family="sans-serif" font-size="14" font-style="italic" lengthAdjust="spacing" textLength="125" x="553" y="815.4805">&#171;RouterCallbacks&#187;</text><text fill="#000000" font-family="sans-serif" font-size="14" lengthAdjust="spacing" textLength="90" x="570.5" y="831.9688">0xdc64..f6c9</text><rect fill="#E2E2F0" height="63.4648" rx="2.5" ry="2.5" style="stroke:#181818;stroke-width:0.5;" width="106" x="695" y="54.5117"/><text fill="#000000" font-family="sans-serif" font-size="14" font-style="italic" lengthAdjust="spacing" textLength="62" x="717" y="75.0469">&#171;token0&#187;</text><text fill="#000000" font-family="sans-serif" font-size="14" font-style="italic" lengthAdjust="spacing" textLength="88" x="704" y="91.5352">&#171;TestERC20&#187;</text><text fill="#000000" font-family="sans-serif" font-size="14" lengthAdjust="spacing" textLength="92" x="702" y="108.0234">0x5fbd..0aa3</text><rect fill="#E2E2F0" height="63.4648" rx="2.5" ry="2.5" style="stroke:#181818;stroke-width:0.5;" width="106" x="695" y="794.9453"/><text fill="#000000" font-family="sans-serif" font-size="14" font-style="italic" lengthAdjust="spacing" textLength="62" x="717" y="815.4805">&#171;token0&#187;</text><text fill="#000000" font-family="sans-serif" font-size="14" font-style="italic" lengthAdjust="spacing" textLength="88" x="704" y="831.9688">&#171;TestERC20&#187;</text><text fill="#000000" font-family="sans-serif" font-size="14" lengthAdjust="spacing" textLength="92" x="702" y="848.457">0x5fbd..0aa3</text><rect fill="#E2E2F0" height="63.4648" rx="2.5" ry="2.5" style="stroke:#181818;stroke-width:0.5;" width="107" x="811" y="54.5117"/><text fill="#000000" font-family="sans-serif" font-size="14" font-style="italic" lengthAdjust="spacing" textLength="62" x="833.5" y="75.0469">&#171;token1&#187;</text><text fill="#000000" font-family="sans-serif" font-size="14" font-style="italic" lengthAdjust="spacing" textLength="88" x="820.5" y="91.5352">&#171;TestERC20&#187;</text><text fill="#000000" font-family="sans-serif" font-size="14" lengthAdjust="spacing" textLength="93" x="818" y="108.0234">0xe7f1..0512</text><rect fill="#E2E2F0" height="63.4648" rx="2.5" ry="2.5" style="stroke:#181818;stroke-width:0.5;" width="107" x="811" y="794.9453"/><text fill="#000000" font-family="sans-serif" font-size="14" font-style="italic" lengthAdjust="spacing" textLength="62" x="833.5" y="815.4805">&#171;token1&#187;</text><text fill="#000000" font-family="sans-serif" font-size="14" font-style="italic" lengthAdjust="spacing" textLength="88" x="820.5" y="831.9688">&#171;TestERC20&#187;</text><text fill="#000000" font-family="sans-serif" font-size="14" lengthAdjust="spacing" textLength="93" x="818" y="848.457">0xe7f1..0512</text><rect fill="#FFFFFF" height="577.0371" style="stroke:#181818;stroke-width:1.0;" width="10" x="169" y="150.2871"/><rect fill="#FFFFFF" height="490.416" style="stroke:#181818;stroke-width:1.0;" width="10" x="174" y="208.9082"/><rect fill="#FFFFFF" height="533.7266" style="stroke:#181818;stroke-width:1.0;" width="10" x="303" y="179.5977"/><rect fill="#FFFFFF" height="100.6211" style="stroke:#181818;stroke-width:1.0;" width="10" x="308" y="238.2188"/><rect fill="#FFFFFF" height="57.3105" style="stroke:#181818;stroke-width:1.0;" width="10" x="308" y="454.7715"/><rect fill="#FFFFFF" height="57.3105" style="stroke:#181818;stroke-width:1.0;" width="10" x="308" y="628.0137"/><rect fill="#FFFFFF" height="14" style="stroke:#181818;stroke-width:1.0;" width="10" x="471" y="267.5293"/><rect fill="#FFFFFF" height="14" style="stroke:#181818;stroke-width:1.0;" width="10" x="471" y="310.8398"/><rect fill="#809ECB" height="57.3105" style="stroke:#181818;stroke-width:1.0;" width="10" x="610.5" y="368.1504"/><rect fill="#809ECB" height="57.3105" style="stroke:#181818;stroke-width:1.0;" width="10" x="610.5" y="541.3926"/><rect fill="#FFFFFF" height="14" style="stroke:#181818;stroke-width:1.0;" width="10" x="743" y="397.4609"/><rect fill="#FFFFFF" height="14" style="stroke:#181818;stroke-width:1.0;" width="10" x="743" y="484.082"/><rect fill="#FFFFFF" height="14" style="stroke:#181818;stroke-width:1.0;" width="10" x="859.5" y="570.7031"/><rect fill="#FFFFFF" height="14" style="stroke:#181818;stroke-width:1.0;" width="10" x="859.5" y="657.3242"/><polygon fill="#181818" points="157,146.2871,167,150.2871,157,154.2871,161,150.2871" style="stroke:#181818;stroke-width:1.0;"/><line style="stroke:#181818;stroke-width:1.0;" x1="53" x2="163" y1="150.2871" y2="150.2871"/><text fill="#000000" font-family="sans-serif" font-size="13" lengthAdjust="spacing" textLength="49" x="60" y="145.5449">process</text><polygon fill="#181818" points="291,175.5977,301,179.5977,291,183.5977,295,179.5977" style="stroke:#181818;stroke-width:1.0;"/><line style="stroke:#181818;stroke-width:1.0;" x1="179" x2="297" y1="179.5977" y2="179.5977"/><text fill="#000000" font-family="sans-serif" font-size="13" lengthAdjust="spacing" textLength="27" x="186" y="174.8555">lock</text><polygon fill="#181818" points="195,204.9082,185,208.9082,195,212.9082,191,208.9082" style="stroke:#181818;stroke-width:1.0;"/><line style="stroke:#181818;stroke-width:1.0;" x1="189" x2="302" y1="208.9082" y2="208.9082"/><text fill="#000000" font-family="sans-serif" font-size="13" lengthAdjust="spacing" textLength="83" x="201" y="204.166">lockAcquired</text><polygon fill="#181818" points="296,234.2188,306,238.2188,296,242.2188,300,238.2188" style="stroke:#181818;stroke-width:1.0;"/><line style="stroke:#181818;stroke-width:1.0;" x1="184" x2="302" y1="238.2188" y2="238.2188"/><text fill="#000000" font-family="sans-serif" font-size="13" lengthAdjust="spacing" textLength="95" x="191" y="233.4766">modifyPosition</text><polygon fill="#181818" points="459,263.5293,469,267.5293,459,271.5293,463,267.5293" style="stroke:#181818;stroke-width:1.0;"/><line style="stroke:#181818;stroke-width:1.0;" x1="318" x2="465" y1="267.5293" y2="267.5293"/><text fill="#000000" font-family="sans-serif" font-size="13" lengthAdjust="spacing" textLength="134" x="325" y="262.7871">beforeModifyPosition</text><polygon fill="#181818" points="329,277.5293,319,281.5293,329,285.5293,325,281.5293" style="stroke:#181818;stroke-width:1.0;"/><line style="stroke:#181818;stroke-width:1.0;stroke-dasharray:2.0,2.0;" x1="323" x2="475" y1="281.5293" y2="281.5293"/><polygon fill="#181818" points="459,306.8398,469,310.8398,459,314.8398,463,310.8398" style="stroke:#181818;stroke-width:1.0;"/><line style="stroke:#181818;stroke-width:1.0;" x1="318" x2="465" y1="310.8398" y2="310.8398"/><text fill="#000000" font-family="sans-serif" font-size="13" lengthAdjust="spacing" textLength="123" x="325" y="306.0977">afterModifyPosition</text><polygon fill="#181818" points="329,320.8398,319,324.8398,329,328.8398,325,324.8398" style="stroke:#181818;stroke-width:1.0;"/><line style="stroke:#181818;stroke-width:1.0;stroke-dasharray:2.0,2.0;" x1="323" x2="475" y1="324.8398" y2="324.8398"/><polygon fill="#181818" points="195,334.8398,185,338.8398,195,342.8398,191,338.8398" style="stroke:#181818;stroke-width:1.0;"/><line style="stroke:#181818;stroke-width:1.0;stroke-dasharray:2.0,2.0;" x1="189" x2="302" y1="338.8398" y2="338.8398"/><line style="stroke:#181818;stroke-width:1.0;" x1="608.5" x2="598.5" y1="368.1504" y2="364.1504"/><line style="stroke:#181818;stroke-width:1.0;" x1="608.5" x2="598.5" y1="368.1504" y2="372.1504"/><line style="stroke:#181818;stroke-width:1.0;" x1="184" x2="609.5" y1="368.1504" y2="368.1504"/><text fill="#000000" font-family="sans-serif" font-size="13" lengthAdjust="spacing" textLength="132" x="191" y="363.4082">addLiquidityCallback</text><polygon fill="#3471CD" points="731,393.4609,741,397.4609,731,401.4609,735,397.4609" style="stroke:#3471CD;stroke-width:1.0;"/><line style="stroke:#3471CD;stroke-width:1.0;" x1="184" x2="737" y1="397.4609" y2="397.4609"/><text fill="#000000" font-family="sans-serif" font-size="13" lengthAdjust="spacing" textLength="81" x="191" y="392.7188">transferFrom</text><polygon fill="#3471CD" points="195,407.4609,185,411.4609,195,415.4609,191,411.4609" style="stroke:#3471CD;stroke-width:1.0;"/><line style="stroke:#3471CD;stroke-width:1.0;stroke-dasharray:2.0,2.0;" x1="189" x2="747" y1="411.4609" y2="411.4609"/><line style="stroke:#181818;stroke-width:1.0;" x1="185" x2="195" y1="425.4609" y2="421.4609"/><line style="stroke:#181818;stroke-width:1.0;" x1="185" x2="195" y1="425.4609" y2="429.4609"/><line style="stroke:#181818;stroke-width:1.0;stroke-dasharray:2.0,2.0;" x1="184" x2="614.5" y1="425.4609" y2="425.4609"/><polygon fill="#181818" points="296,450.7715,306,454.7715,296,458.7715,300,454.7715" style="stroke:#181818;stroke-width:1.0;"/><line style="stroke:#181818;stroke-width:1.0;" x1="184" x2="302" y1="454.7715" y2="454.7715"/><text fill="#000000" font-family="sans-serif" font-size="13" lengthAdjust="spacing" textLength="35" x="191" y="450.0293">settle</text><polygon fill="#181818" points="731,480.082,741,484.082,731,488.082,735,484.082" style="stroke:#181818;stroke-width:1.0;"/><line style="stroke:#181818;stroke-width:1.0;" x1="318" x2="737" y1="484.082" y2="484.082"/><text fill="#000000" font-family="sans-serif" font-size="13" lengthAdjust="spacing" textLength="63" x="325" y="479.3398">balanceOf</text><polygon fill="#181818" points="329,494.082,319,498.082,329,502.082,325,498.082" style="stroke:#181818;stroke-width:1.0;"/><line style="stroke:#181818;stroke-width:1.0;stroke-dasharray:2.0,2.0;" x1="323" x2="747" y1="498.082" y2="498.082"/><polygon fill="#181818" points="195,508.082,185,512.082,195,516.082,191,512.082" style="stroke:#181818;stroke-width:1.0;"/><line style="stroke:#181818;stroke-width:1.0;stroke-dasharray:2.0,2.0;" x1="189" x2="302" y1="512.082" y2="512.082"/><line style="stroke:#181818;stroke-width:1.0;" x1="608.5" x2="598.5" y1="541.3926" y2="537.3926"/><line style="stroke:#181818;stroke-width:1.0;" x1="608.5" x2="598.5" y1="541.3926" y2="545.3926"/><line style="stroke:#181818;stroke-width:1.0;" x1="184" x2="609.5" y1="541.3926" y2="541.3926"/><text fill="#000000" font-family="sans-serif" font-size="13" lengthAdjust="spacing" textLength="132" x="191" y="536.6504">addLiquidityCallback</text><polygon fill="#3471CD" points="847.5,566.7031,857.5,570.7031,847.5,574.7031,851.5,570.7031" style="stroke:#3471CD;stroke-width:1.0;"/><line style="stroke:#3471CD;stroke-width:1.0;" x1="184" x2="853.5" y1="570.7031" y2="570.7031"/><text fill="#000000" font-family="sans-serif" font-size="13" lengthAdjust="spacing" textLength="81" x="191" y="565.9609">transferFrom</text><polygon fill="#3471CD" points="195,580.7031,185,584.7031,195,588.7031,191,584.7031" style="stroke:#3471CD;stroke-width:1.0;"/><line style="stroke:#3471CD;stroke-width:1.0;stroke-dasharray:2.0,2.0;" x1="189" x2="863.5" y1="584.7031" y2="584.7031"/><line style="stroke:#181818;stroke-width:1.0;" x1="185" x2="195" y1="598.7031" y2="594.7031"/><line style="stroke:#181818;stroke-width:1.0;" x1="185" x2="195" y1="598.7031" y2="602.7031"/><line style="stroke:#181818;stroke-width:1.0;stroke-dasharray:2.0,2.0;" x1="184" x2="614.5" y1="598.7031" y2="598.7031"/><polygon fill="#181818" points="296,624.0137,306,628.0137,296,632.0137,300,628.0137" style="stroke:#181818;stroke-width:1.0;"/><line style="stroke:#181818;stroke-width:1.0;" x1="184" x2="302" y1="628.0137" y2="628.0137"/><text fill="#000000" font-family="sans-serif" font-size="13" lengthAdjust="spacing" textLength="35" x="191" y="623.2715">settle</text><polygon fill="#181818" points="847.5,653.3242,857.5,657.3242,847.5,661.3242,851.5,657.3242" style="stroke:#181818;stroke-width:1.0;"/><line style="stroke:#181818;stroke-width:1.0;" x1="318" x2="853.5" y1="657.3242" y2="657.3242"/><text fill="#000000" font-family="sans-serif" font-size="13" lengthAdjust="spacing" textLength="63" x="325" y="652.582">balanceOf</text><polygon fill="#181818" points="329,667.3242,319,671.3242,329,675.3242,325,671.3242" style="stroke:#181818;stroke-width:1.0;"/><line style="stroke:#181818;stroke-width:1.0;stroke-dasharray:2.0,2.0;" x1="323" x2="863.5" y1="671.3242" y2="671.3242"/><polygon fill="#181818" points="195,681.3242,185,685.3242,195,689.3242,191,685.3242" style="stroke:#181818;stroke-width:1.0;"/><line style="stroke:#181818;stroke-width:1.0;stroke-dasharray:2.0,2.0;" x1="189" x2="302" y1="685.3242" y2="685.3242"/><polygon fill="#181818" points="291,695.3242,301,699.3242,291,703.3242,295,699.3242" style="stroke:#181818;stroke-width:1.0;"/><line style="stroke:#181818;stroke-width:1.0;stroke-dasharray:2.0,2.0;" x1="179" x2="297" y1="699.3242" y2="699.3242"/><polygon fill="#181818" points="190,709.3242,180,713.3242,190,717.3242,186,713.3242" style="stroke:#181818;stroke-width:1.0;"/><line style="stroke:#181818;stroke-width:1.0;stroke-dasharray:2.0,2.0;" x1="184" x2="307" y1="713.3242" y2="713.3242"/><polygon fill="#181818" points="64,723.3242,54,727.3242,64,731.3242,60,727.3242" style="stroke:#181818;stroke-width:1.0;"/><line style="stroke:#181818;stroke-width:1.0;stroke-dasharray:2.0,2.0;" x1="58" x2="173" y1="727.3242" y2="727.3242"/><path d="M250,740.3242 L250,765.3242 L365,765.3242 L365,750.3242 L355,740.3242 L250,740.3242 " fill="#00FFFF" style="stroke:#181818;stroke-width:0.5;"/><path d="M355,740.3242 L355,750.3242 L365,750.3242 L355,740.3242 " fill="#00FFFF" style="stroke:#181818;stroke-width:0.5;"/><text fill="#000000" font-family="sans-serif" font-size="13" lengthAdjust="spacing" textLength="94" x="256" y="757.8926">ModifyPosition</text><path d="M424,740.3242 L424,780.3242 L527,780.3242 L527,750.3242 L517,740.3242 L424,740.3242 " fill="#00FFFF" style="stroke:#181818;stroke-width:0.5;"/><path d="M517,740.3242 L517,750.3242 L527,750.3242 L517,740.3242 " fill="#00FFFF" style="stroke:#181818;stroke-width:0.5;"/><text fill="#000000" font-family="sans-serif" font-size="13" lengthAdjust="spacing" textLength="82" x="430" y="757.8926">BeforeModify</text><text fill="#000000" font-family="sans-serif" font-size="13" lengthAdjust="spacing" textLength="74" x="430" y="773.2031">AfterModify</text><path d="M711,740.3242 L711,765.3242 L784,765.3242 L784,750.3242 L774,740.3242 L711,740.3242 " fill="#00FFFF" style="stroke:#181818;stroke-width:0.5;"/><path d="M774,740.3242 L774,750.3242 L784,750.3242 L774,740.3242 " fill="#00FFFF" style="stroke:#181818;stroke-width:0.5;"/><text fill="#000000" font-family="sans-serif" font-size="13" lengthAdjust="spacing" textLength="52" x="717" y="757.8926">Transfer</text><path d="M828,740.3242 L828,765.3242 L901,765.3242 L901,750.3242 L891,740.3242 L828,740.3242 " fill="#00FFFF" style="stroke:#181818;stroke-width:0.5;"/><path d="M891,740.3242 L891,750.3242 L901,750.3242 L891,740.3242 " fill="#00FFFF" style="stroke:#181818;stroke-width:0.5;"/><text fill="#000000" font-family="sans-serif" font-size="13" lengthAdjust="spacing" textLength="52" x="834" y="757.8926">Transfer</text><!--SRC=[hPHDRwCm48Rl_XLMS-sonX2-526bRBTxs6YhAhVL7emPLoZKJesfsd-_TX8WcmIrAvKBUl4yC-QTqPZQD839QnA48gXIdYP-7Cy3W1GY0RmiVH8bX4EP-hGA60KMbqb8V18czeaYGaZgLvGYnDdMr4fYgIHSux9HV8F3QxpkhA8fNdQFc18QO4ApCCv2WkzMQyIuKHfVaLSHfCBpA8sYAynQxAGJ66sPDZMljqmQ5yT539v714ztSKuwWHUBEv2WQ_wWEWCwpq_1L43eUIm2iWETTCA2zqerAoRPuoKiu75bwqLpkiESTC9YXUgahVH3gSqvLl78LXFHuPfEEc6n_VqArZGbuvls79sBqbLaBDYXJZfXKQCs84cUBnPhQCtjGq79EGwny2q-z_SNTjA97lTFSJHO_IKVxCpmLYiERUiQLBym0yCH6YotyRsB6NRj7eFxxsYm-P_aBdZ9dxjQG_NX2a-ggiNRlMfhDsRlrEhxbE4IXDAmce3xEAJ1T5fEv632jkoZAGwlev_8X_xRL5NrixP_NjNchH-2CTSm9xE4fBV5pL6MtxCWZFtYsvzy68aC6yraAq1_r-ffpDAVJz_eoDOMZDq0xzWvLYnPmoI7N-9_odss0VrGJndGdt-U0MF52mPCbBluGb9PGhs07bVGZ3rt39tC5yWAkrY4lkAH6VRFdhav6cwq7ATqWXvsoPvU7yoRY1vMnrJqNm00]--></g></svg>