<?xml version="1.0" encoding="us-ascii" standalone="no"?><svg xmlns="http://www.w3.org/2000/svg" xmlns:xlink="http://www.w3.org/1999/xlink" contentStyleType="text/css" height="709px" preserveAspectRatio="none" style="width:962px;height:709px;background:#FFFFFF;" version="1.1" viewBox="0 0 962 709" width="962px" zoomAndPan="magnify"><defs/><g><text fill="#000000" font-family="sans-serif" font-size="14" font-weight="bold" lengthAdjust="spacing" textLength="256" x="352.25" y="28.5352">Uniswap v4 - Add Liquidity to Pool</text><rect fill="#FFFFFF" height="533.7266" style="stroke:#181818;stroke-width:1.0;" width="10" x="178" y="150.2871"/><rect fill="#FFFFFF" height="490.416" style="stroke:#181818;stroke-width:1.0;" width="10" x="335" y="179.5977"/><rect fill="#FFFFFF" height="403.7949" style="stroke:#181818;stroke-width:1.0;" width="10" x="340" y="238.2188"/><rect fill="#FFFFFF" height="447.1055" style="stroke:#181818;stroke-width:1.0;" width="10" x="491.5" y="208.9082"/><rect fill="#FFFFFF" height="100.6211" style="stroke:#181818;stroke-width:1.0;" width="10" x="496.5" y="267.5293"/><rect fill="#FFFFFF" height="57.3105" style="stroke:#181818;stroke-width:1.0;" width="10" x="496.5" y="440.7715"/><rect fill="#FFFFFF" height="57.3105" style="stroke:#181818;stroke-width:1.0;" width="10" x="496.5" y="570.7031"/><rect fill="#FFFFFF" height="14" style="stroke:#181818;stroke-width:1.0;" width="10" x="659.5" y="296.8398"/><rect fill="#FFFFFF" height="14" style="stroke:#181818;stroke-width:1.0;" width="10" x="659.5" y="340.1504"/><rect fill="#FFFFFF" height="14" style="stroke:#181818;stroke-width:1.0;" width="10" x="782" y="397.4609"/><rect fill="#FFFFFF" height="14" style="stroke:#181818;stroke-width:1.0;" width="10" x="782" y="470.082"/><rect fill="#FFFFFF" height="14" style="stroke:#181818;stroke-width:1.0;" width="10" x="898" y="527.3926"/><rect fill="#FFFFFF" height="14" style="stroke:#181818;stroke-width:1.0;" width="10" x="898" y="600.0137"/><line style="stroke:#181818;stroke-width:0.5;stroke-dasharray:5.0,5.0;" x1="53" x2="53" y1="118.9766" y2="702.0137"/><line style="stroke:#181818;stroke-width:0.5;stroke-dasharray:5.0,5.0;" x1="183" x2="183" y1="118.9766" y2="702.0137"/><line style="stroke:#181818;stroke-width:0.5;stroke-dasharray:5.0,5.0;" x1="340" x2="340" y1="118.9766" y2="702.0137"/><line style="stroke:#181818;stroke-width:0.5;stroke-dasharray:5.0,5.0;" x1="496" x2="496" y1="118.9766" y2="702.0137"/><line style="stroke:#181818;stroke-width:0.5;stroke-dasharray:5.0,5.0;" x1="664.5" x2="664.5" y1="118.9766" y2="702.0137"/><line style="stroke:#181818;stroke-width:0.5;stroke-dasharray:5.0,5.0;" x1="786.5" x2="786.5" y1="118.9766" y2="702.0137"/><line style="stroke:#181818;stroke-width:0.5;stroke-dasharray:5.0,5.0;" x1="902.5" x2="902.5" y1="118.9766" y2="702.0137"/><text fill="#000000" font-family="sans-serif" font-size="14" lengthAdjust="spacing" textLength="90" x="5" y="116.0234">0xf39f..2266</text><ellipse cx="53" cy="50.9883" fill="#E2E2F0" rx="8" ry="8" style="stroke:#181818;stroke-width:0.5;"/><path d="M53,58.9883 L53,85.9883 M40,66.9883 L66,66.9883 M53,85.9883 L40,100.9883 M53,85.9883 L66,100.9883 " fill="none" style="stroke:#181818;stroke-width:0.5;"/><rect fill="#E2E2F0" height="46.9766" rx="2.5" ry="2.5" style="stroke:#181818;stroke-width:0.5;" width="144" x="111" y="71"/><text fill="#000000" font-family="sans-serif" font-size="14" font-style="italic" lengthAdjust="spacing" textLength="130" x="118" y="91.5352">&#171;UniswapV4Caller&#187;</text><text fill="#000000" font-family="sans-serif" font-size="14" lengthAdjust="spacing" textLength="92" x="137" y="108.0234">0x5fc8..5707</text><rect fill="#E2E2F0" height="46.9766" rx="2.5" ry="2.5" style="stroke:#181818;stroke-width:0.5;" width="150" x="265" y="71"/><text fill="#000000" font-family="sans-serif" font-size="14" font-style="italic" lengthAdjust="spacing" textLength="136" x="272" y="91.5352">&#171;UniswapV4Router&#187;</text><text fill="#000000" font-family="sans-serif" font-size="14" lengthAdjust="spacing" textLength="90" x="295" y="108.0234">0xdc64..f6c9</text><rect fill="#E2E2F0" height="63.4648" rx="2.5" ry="2.5" style="stroke:#181818;stroke-width:0.5;" width="143" x="425" y="54.5117"/><text fill="#000000" font-family="sans-serif" font-size="14" font-style="italic" lengthAdjust="spacing" textLength="129" x="432" y="75.0469">&#171;Uniswap v4 Core&#187;</text><text fill="#000000" font-family="sans-serif" font-size="14" font-style="italic" lengthAdjust="spacing" textLength="104" x="444.5" y="91.5352">&#171;PoolManager&#187;</text><text fill="#000000" font-family="sans-serif" font-size="14" lengthAdjust="spacing" textLength="85" x="454" y="108.0234">0xcf7e..0fc9</text><rect fill="#E2E2F0" height="46.9766" rx="2.5" ry="2.5" style="stroke:#181818;stroke-width:0.5;" width="120" x="604.5" y="71"/><text fill="#000000" font-family="sans-serif" font-size="14" font-style="italic" lengthAdjust="spacing" textLength="106" x="611.5" y="91.5352">&#171;CounterHook&#187;</text><text fill="#000000" font-family="sans-serif" font-size="14" lengthAdjust="spacing" textLength="93" x="618" y="108.0234">0x3c11..a8c1</text><rect fill="#E2E2F0" height="63.4648" rx="2.5" ry="2.5" style="stroke:#181818;stroke-width:0.5;" width="105" x="734.5" y="54.5117"/><text fill="#000000" font-family="sans-serif" font-size="14" font-style="italic" lengthAdjust="spacing" textLength="62" x="756" y="75.0469">&#171;token1&#187;</text><text fill="#000000" font-family="sans-serif" font-size="14" font-style="italic" lengthAdjust="spacing" textLength="88" x="743" y="91.5352">&#171;TestERC20&#187;</text><text fill="#000000" font-family="sans-serif" font-size="14" lengthAdjust="spacing" textLength="91" x="741.5" y="108.0234">0x9fe4..a6e0</text><rect fill="#E2E2F0" height="63.4648" rx="2.5" ry="2.5" style="stroke:#181818;stroke-width:0.5;" width="107" x="849.5" y="54.5117"/><text fill="#000000" font-family="sans-serif" font-size="14" font-style="italic" lengthAdjust="spacing" textLength="62" x="872" y="75.0469">&#171;token0&#187;</text><text fill="#000000" font-family="sans-serif" font-size="14" font-style="italic" lengthAdjust="spacing" textLength="88" x="859" y="91.5352">&#171;TestERC20&#187;</text><text fill="#000000" font-family="sans-serif" font-size="14" lengthAdjust="spacing" textLength="93" x="856.5" y="108.0234">0xe7f1..0512</text><rect fill="#FFFFFF" height="533.7266" style="stroke:#181818;stroke-width:1.0;" width="10" x="178" y="150.2871"/><rect fill="#FFFFFF" height="490.416" style="stroke:#181818;stroke-width:1.0;" width="10" x="335" y="179.5977"/><rect fill="#FFFFFF" height="403.7949" style="stroke:#181818;stroke-width:1.0;" width="10" x="340" y="238.2188"/><rect fill="#FFFFFF" height="447.1055" style="stroke:#181818;stroke-width:1.0;" width="10" x="491.5" y="208.9082"/><rect fill="#FFFFFF" height="100.6211" style="stroke:#181818;stroke-width:1.0;" width="10" x="496.5" y="267.5293"/><rect fill="#FFFFFF" height="57.3105" style="stroke:#181818;stroke-width:1.0;" width="10" x="496.5" y="440.7715"/><rect fill="#FFFFFF" height="57.3105" style="stroke:#181818;stroke-width:1.0;" width="10" x="496.5" y="570.7031"/><rect fill="#FFFFFF" height="14" style="stroke:#181818;stroke-width:1.0;" width="10" x="659.5" y="296.8398"/><rect fill="#FFFFFF" height="14" style="stroke:#181818;stroke-width:1.0;" width="10" x="659.5" y="340.1504"/><rect fill="#FFFFFF" height="14" style="stroke:#181818;stroke-width:1.0;" width="10" x="782" y="397.4609"/><rect fill="#FFFFFF" height="14" style="stroke:#181818;stroke-width:1.0;" width="10" x="782" y="470.082"/><rect fill="#FFFFFF" height="14" style="stroke:#181818;stroke-width:1.0;" width="10" x="898" y="527.3926"/><rect fill="#FFFFFF" height="14" style="stroke:#181818;stroke-width:1.0;" width="10" x="898" y="600.0137"/><polygon fill="#181818" points="166,146.2871,176,150.2871,166,154.2871,170,150.2871" style="stroke:#181818;stroke-width:1.0;"/><line style="stroke:#181818;stroke-width:1.0;" x1="53" x2="172" y1="150.2871" y2="150.2871"/><text fill="#000000" font-family="sans-serif" font-size="13" lengthAdjust="spacing" textLength="78" x="60" y="145.5449">addLiquidity</text><polygon fill="#181818" points="323,175.5977,333,179.5977,323,183.5977,327,179.5977" style="stroke:#181818;stroke-width:1.0;"/><line style="stroke:#181818;stroke-width:1.0;" x1="188" x2="329" y1="179.5977" y2="179.5977"/><text fill="#000000" font-family="sans-serif" font-size="13" lengthAdjust="spacing" textLength="49" x="195" y="174.8555">process</text><polygon fill="#181818" points="479.5,204.9082,489.5,208.9082,479.5,212.9082,483.5,208.9082" style="stroke:#181818;stroke-width:1.0;"/><line style="stroke:#181818;stroke-width:1.0;" x1="345" x2="485.5" y1="208.9082" y2="208.9082"/><text fill="#000000" font-family="sans-serif" font-size="13" lengthAdjust="spacing" textLength="27" x="352" y="204.166">lock</text><polygon fill="#181818" points="361,234.2188,351,238.2188,361,242.2188,357,238.2188" style="stroke:#181818;stroke-width:1.0;"/><line style="stroke:#181818;stroke-width:1.0;" x1="355" x2="490.5" y1="238.2188" y2="238.2188"/><text fill="#000000" font-family="sans-serif" font-size="13" lengthAdjust="spacing" textLength="83" x="367" y="233.4766">lockAcquired</text><polygon fill="#181818" points="484.5,263.5293,494.5,267.5293,484.5,271.5293,488.5,267.5293" style="stroke:#181818;stroke-width:1.0;"/><line style="stroke:#181818;stroke-width:1.0;" x1="350" x2="490.5" y1="267.5293" y2="267.5293"/><text fill="#000000" font-family="sans-serif" font-size="13" lengthAdjust="spacing" textLength="95" x="357" y="262.7871">modifyPosition</text><polygon fill="#181818" points="647.5,292.8398,657.5,296.8398,647.5,300.8398,651.5,296.8398" style="stroke:#181818;stroke-width:1.0;"/><line style="stroke:#181818;stroke-width:1.0;" x1="506.5" x2="653.5" y1="296.8398" y2="296.8398"/><text fill="#000000" font-family="sans-serif" font-size="13" lengthAdjust="spacing" textLength="134" x="513.5" y="292.0977">beforeModifyPosition</text><polygon fill="#181818" points="517.5,306.8398,507.5,310.8398,517.5,314.8398,513.5,310.8398" style="stroke:#181818;stroke-width:1.0;"/><line style="stroke:#181818;stroke-width:1.0;stroke-dasharray:2.0,2.0;" x1="511.5" x2="663.5" y1="310.8398" y2="310.8398"/><polygon fill="#181818" points="647.5,336.1504,657.5,340.1504,647.5,344.1504,651.5,340.1504" style="stroke:#181818;stroke-width:1.0;"/><line style="stroke:#181818;stroke-width:1.0;" x1="506.5" x2="653.5" y1="340.1504" y2="340.1504"/><text fill="#000000" font-family="sans-serif" font-size="13" lengthAdjust="spacing" textLength="123" x="513.5" y="335.4082">afterModifyPosition</text><polygon fill="#181818" points="517.5,350.1504,507.5,354.1504,517.5,358.1504,513.5,354.1504" style="stroke:#181818;stroke-width:1.0;"/><line style="stroke:#181818;stroke-width:1.0;stroke-dasharray:2.0,2.0;" x1="511.5" x2="663.5" y1="354.1504" y2="354.1504"/><polygon fill="#181818" points="361,364.1504,351,368.1504,361,372.1504,357,368.1504" style="stroke:#181818;stroke-width:1.0;"/><line style="stroke:#181818;stroke-width:1.0;stroke-dasharray:2.0,2.0;" x1="355" x2="490.5" y1="368.1504" y2="368.1504"/><polygon fill="#181818" points="770,393.4609,780,397.4609,770,401.4609,774,397.4609" style="stroke:#181818;stroke-width:1.0;"/><line style="stroke:#181818;stroke-width:1.0;" x1="350" x2="776" y1="397.4609" y2="397.4609"/><text fill="#000000" font-family="sans-serif" font-size="13" lengthAdjust="spacing" textLength="81" x="357" y="392.7188">transferFrom</text><polygon fill="#181818" points="361,407.4609,351,411.4609,361,415.4609,357,411.4609" style="stroke:#181818;stroke-width:1.0;"/><line style="stroke:#181818;stroke-width:1.0;stroke-dasharray:2.0,2.0;" x1="355" x2="786" y1="411.4609" y2="411.4609"/><polygon fill="#181818" points="484.5,436.7715,494.5,440.7715,484.5,444.7715,488.5,440.7715" style="stroke:#181818;stroke-width:1.0;"/><line style="stroke:#181818;stroke-width:1.0;" x1="350" x2="490.5" y1="440.7715" y2="440.7715"/><text fill="#000000" font-family="sans-serif" font-size="13" lengthAdjust="spacing" textLength="35" x="357" y="436.0293">settle</text><polygon fill="#181818" points="770,466.082,780,470.082,770,474.082,774,470.082" style="stroke:#181818;stroke-width:1.0;"/><line style="stroke:#181818;stroke-width:1.0;" x1="506.5" x2="776" y1="470.082" y2="470.082"/><text fill="#000000" font-family="sans-serif" font-size="13" lengthAdjust="spacing" textLength="63" x="513.5" y="465.3398">balanceOf</text><polygon fill="#181818" points="517.5,480.082,507.5,484.082,517.5,488.082,513.5,484.082" style="stroke:#181818;stroke-width:1.0;"/><line style="stroke:#181818;stroke-width:1.0;stroke-dasharray:2.0,2.0;" x1="511.5" x2="786" y1="484.082" y2="484.082"/><polygon fill="#181818" points="361,494.082,351,498.082,361,502.082,357,498.082" style="stroke:#181818;stroke-width:1.0;"/><line style="stroke:#181818;stroke-width:1.0;stroke-dasharray:2.0,2.0;" x1="355" x2="490.5" y1="498.082" y2="498.082"/><polygon fill="#181818" points="886,523.3926,896,527.3926,886,531.3926,890,527.3926" style="stroke:#181818;stroke-width:1.0;"/><line style="stroke:#181818;stroke-width:1.0;" x1="350" x2="892" y1="527.3926" y2="527.3926"/><text fill="#000000" font-family="sans-serif" font-size="13" lengthAdjust="spacing" textLength="81" x="357" y="522.6504">transferFrom</text><polygon fill="#181818" points="361,537.3926,351,541.3926,361,545.3926,357,541.3926" style="stroke:#181818;stroke-width:1.0;"/><line style="stroke:#181818;stroke-width:1.0;stroke-dasharray:2.0,2.0;" x1="355" x2="902" y1="541.3926" y2="541.3926"/><polygon fill="#181818" points="484.5,566.7031,494.5,570.7031,484.5,574.7031,488.5,570.7031" style="stroke:#181818;stroke-width:1.0;"/><line style="stroke:#181818;stroke-width:1.0;" x1="350" x2="490.5" y1="570.7031" y2="570.7031"/><text fill="#000000" font-family="sans-serif" font-size="13" lengthAdjust="spacing" textLength="35" x="357" y="565.9609">settle</text><polygon fill="#181818" points="886,596.0137,896,600.0137,886,604.0137,890,600.0137" style="stroke:#181818;stroke-width:1.0;"/><line style="stroke:#181818;stroke-width:1.0;" x1="506.5" x2="892" y1="600.0137" y2="600.0137"/><text fill="#000000" font-family="sans-serif" font-size="13" lengthAdjust="spacing" textLength="63" x="513.5" y="595.2715">balanceOf</text><polygon fill="#181818" points="517.5,610.0137,507.5,614.0137,517.5,618.0137,513.5,614.0137" style="stroke:#181818;stroke-width:1.0;"/><line style="stroke:#181818;stroke-width:1.0;stroke-dasharray:2.0,2.0;" x1="511.5" x2="902" y1="614.0137" y2="614.0137"/><polygon fill="#181818" points="361,624.0137,351,628.0137,361,632.0137,357,628.0137" style="stroke:#181818;stroke-width:1.0;"/><line style="stroke:#181818;stroke-width:1.0;stroke-dasharray:2.0,2.0;" x1="355" x2="490.5" y1="628.0137" y2="628.0137"/><polygon fill="#181818" points="479.5,638.0137,489.5,642.0137,479.5,646.0137,483.5,642.0137" style="stroke:#181818;stroke-width:1.0;"/><line style="stroke:#181818;stroke-width:1.0;stroke-dasharray:2.0,2.0;" x1="345" x2="485.5" y1="642.0137" y2="642.0137"/><polygon fill="#181818" points="356,652.0137,346,656.0137,356,660.0137,352,656.0137" style="stroke:#181818;stroke-width:1.0;"/><line style="stroke:#181818;stroke-width:1.0;stroke-dasharray:2.0,2.0;" x1="350" x2="495.5" y1="656.0137" y2="656.0137"/><polygon fill="#181818" points="199,666.0137,189,670.0137,199,674.0137,195,670.0137" style="stroke:#181818;stroke-width:1.0;"/><line style="stroke:#181818;stroke-width:1.0;stroke-dasharray:2.0,2.0;" x1="193" x2="339" y1="670.0137" y2="670.0137"/><polygon fill="#181818" points="64,680.0137,54,684.0137,64,688.0137,60,684.0137" style="stroke:#181818;stroke-width:1.0;"/><line style="stroke:#181818;stroke-width:1.0;stroke-dasharray:2.0,2.0;" x1="58" x2="182" y1="684.0137" y2="684.0137"/><!--SRC=[hPDDJ-Cm48Rl_XKZxbX9QLCQLP5GnMeFYnOXTk-kCmQhmTDrN1R-FPweJg2aeWTEqPkPPzxvI88D3S8VPzl_QWlFKpY7gxg6N_RVpjOsl48Wk2LgnAEj4GnHMDEB44e7yd2MlPYBXP5oCYcACr0ji6G1OgjyiDfkbGkSDpFwKihPF9jtUInPm7Avz_uxNQccGLzLXsYjYwcKfj2B3cN9uZrwHximXcepHoapiqTPiXXGddX57gjgkUGnRvHJ3sELBdIUIwakTTvLOiaYLbhHpaNpdqIRpzZ2OEnT5PXr64iM4GkqGPUpxpssuVfkDSa-upWtqJMRvPCEPyaYuTaXBlhzdrVzZajGTTqVb4zddrN0FYxwOqGeRRU4hIUDRJlafv3eBn3pqqfBQ4XlXkJqNlGx_r2SawzqRCbZVRB34zNMlDvIQuCbzuLNkb09QpJnmZT7u9GdF8QTTqTgA1DFV6g9_UFz4Edm9GIlN6lG__3qD9H8yJ5sM42B8VwjNmm-MArLevp6t-QupuXT-iYEjPhYtz3gO3NIwg7F2Oyt]--></g></svg>