<?xml version="1.0" encoding="us-ascii" standalone="no"?><svg xmlns="http://www.w3.org/2000/svg" xmlns:xlink="http://www.w3.org/1999/xlink" contentStyleType="text/css" height="1965px" preserveAspectRatio="none" style="width:1546px;height:1965px;background:#FFFFFF;" version="1.1" viewBox="0 0 1546 1965" width="1546px" zoomAndPan="magnify"><defs/><g><text fill="#000000" font-family="sans-serif" font-size="14" font-weight="bold" lengthAdjust="spacing" textLength="158" x="692.75" y="28.5352">Uniswap v4 - Deposit</text><text fill="#000000" font-family="sans-serif" font-size="14" lengthAdjust="spacing" textLength="323" x="610.25" y="1954.0176">none, block 8, Sun, 24 Sep 2023 01:02:28 GMT</text><rect fill="#FFFFFF" height="1328.4961" style="stroke:#181818;stroke-width:1.0;" width="10" x="370" y="354.0137"/><rect fill="#809ECB" height="1158.0117" style="stroke:#181818;stroke-width:1.0;" width="10" x="550.5" y="398.6348"/><rect fill="#FFFFFF" height="757.8691" style="stroke:#181818;stroke-width:1.0;" width="10" x="734" y="734.1563"/><rect fill="#FFFFFF" height="482.832" style="stroke:#181818;stroke-width:1.0;" width="10" x="739" y="854.0195"/><rect fill="#FFFFFF" height="572.0742" style="stroke:#181818;stroke-width:1.0;" width="10" x="1024" y="794.0879"/><rect fill="#FFFFFF" height="14" style="stroke:#181818;stroke-width:1.0;" width="10" x="1029" y="1064.4355"/><rect fill="#FFFFFF" height="118.5527" style="stroke:#181818;stroke-width:1.0;" width="10" x="1029" y="1138.3672"/><rect fill="#FFFFFF" height="29.3105" style="stroke:#181818;stroke-width:1.0;" width="10" x="1409.5" y="944.5723"/><rect fill="#FFFFFF" height="29.3105" style="stroke:#181818;stroke-width:1.0;" width="10" x="1409.5" y="1198.2988"/><line style="stroke:#181818;stroke-width:0.5;stroke-dasharray:5.0,5.0;" x1="103" x2="103" y1="118.9766" y2="1862.9941"/><line style="stroke:#181818;stroke-width:0.5;stroke-dasharray:5.0,5.0;" x1="375" x2="375" y1="118.9766" y2="1862.9941"/><line style="stroke:#181818;stroke-width:0.5;stroke-dasharray:5.0,5.0;" x1="555" x2="555" y1="118.9766" y2="1862.9941"/><line style="stroke:#181818;stroke-width:0.5;stroke-dasharray:5.0,5.0;" x1="739" x2="739" y1="118.9766" y2="1862.9941"/><line style="stroke:#181818;stroke-width:0.5;stroke-dasharray:5.0,5.0;" x1="1028.5" x2="1028.5" y1="118.9766" y2="1862.9941"/><line style="stroke:#181818;stroke-width:0.5;stroke-dasharray:5.0,5.0;" x1="1414" x2="1414" y1="118.9766" y2="1862.9941"/><text fill="#000000" font-family="sans-serif" font-size="14" lengthAdjust="spacing" textLength="90" x="55" y="116.0234">0xf39f..2266</text><ellipse cx="103" cy="50.9883" fill="#E2E2F0" rx="8" ry="8" style="stroke:#181818;stroke-width:0.5;"/><path d="M103,58.9883 L103,85.9883 M90,66.9883 L116,66.9883 M103,85.9883 L90,100.9883 M103,85.9883 L116,100.9883 " fill="none" style="stroke:#181818;stroke-width:0.5;"/><text fill="#000000" font-family="sans-serif" font-size="14" lengthAdjust="spacing" textLength="90" x="55" y="1875.5293">0xf39f..2266</text><ellipse cx="103" cy="1886.9824" fill="#E2E2F0" rx="8" ry="8" style="stroke:#181818;stroke-width:0.5;"/><path d="M103,1894.9824 L103,1921.9824 M90,1902.9824 L116,1902.9824 M103,1921.9824 L90,1936.9824 M103,1921.9824 L116,1936.9824 " fill="none" style="stroke:#181818;stroke-width:0.5;"/><rect fill="#E2E2F0" height="46.9766" rx="2.5" ry="2.5" style="stroke:#181818;stroke-width:0.5;" width="144" x="303" y="71"/><text fill="#000000" font-family="sans-serif" font-size="14" font-style="italic" lengthAdjust="spacing" textLength="130" x="310" y="91.5352">&#171;UniswapV4Caller&#187;</text><text fill="#000000" font-family="sans-serif" font-size="14" lengthAdjust="spacing" textLength="95" x="327.5" y="108.0234">0xa513..c853</text><rect fill="#E2E2F0" height="46.9766" rx="2.5" ry="2.5" style="stroke:#181818;stroke-width:0.5;" width="144" x="303" y="1861.9941"/><text fill="#000000" font-family="sans-serif" font-size="14" font-style="italic" lengthAdjust="spacing" textLength="130" x="310" y="1882.5293">&#171;UniswapV4Caller&#187;</text><text fill="#000000" font-family="sans-serif" font-size="14" lengthAdjust="spacing" textLength="95" x="327.5" y="1899.0176">0xa513..c853</text><rect fill="#E2E2F0" height="46.9766" rx="2.5" ry="2.5" style="stroke:#181818;stroke-width:0.5;" width="197" x="457" y="71"/><text fill="#000000" font-family="sans-serif" font-size="14" font-style="italic" lengthAdjust="spacing" textLength="183" x="464" y="91.5352">&#171;UniswapV4RouterLibrary&#187;</text><text fill="#000000" font-family="sans-serif" font-size="14" lengthAdjust="spacing" textLength="92" x="509.5" y="108.0234">0x5fbd..0aa3</text><rect fill="#E2E2F0" height="46.9766" rx="2.5" ry="2.5" style="stroke:#181818;stroke-width:0.5;" width="197" x="457" y="1861.9941"/><text fill="#000000" font-family="sans-serif" font-size="14" font-style="italic" lengthAdjust="spacing" textLength="183" x="464" y="1882.5293">&#171;UniswapV4RouterLibrary&#187;</text><text fill="#000000" font-family="sans-serif" font-size="14" lengthAdjust="spacing" textLength="92" x="509.5" y="1899.0176">0x5fbd..0aa3</text><rect fill="#E2E2F0" height="46.9766" rx="2.5" ry="2.5" style="stroke:#181818;stroke-width:0.5;" width="150" x="664" y="71"/><text fill="#000000" font-family="sans-serif" font-size="14" font-style="italic" lengthAdjust="spacing" textLength="136" x="671" y="91.5352">&#171;UniswapV4Router&#187;</text><text fill="#000000" font-family="sans-serif" font-size="14" lengthAdjust="spacing" textLength="93" x="692.5" y="108.0234">0x0165..eb8f</text><rect fill="#E2E2F0" height="46.9766" rx="2.5" ry="2.5" style="stroke:#181818;stroke-width:0.5;" width="150" x="664" y="1861.9941"/><text fill="#000000" font-family="sans-serif" font-size="14" font-style="italic" lengthAdjust="spacing" textLength="136" x="671" y="1882.5293">&#171;UniswapV4Router&#187;</text><text fill="#000000" font-family="sans-serif" font-size="14" lengthAdjust="spacing" textLength="93" x="692.5" y="1899.0176">0x0165..eb8f</text><rect fill="#E2E2F0" height="63.4648" rx="2.5" ry="2.5" style="stroke:#181818;stroke-width:0.5;" width="143" x="957.5" y="54.5117"/><text fill="#000000" font-family="sans-serif" font-size="14" font-style="italic" lengthAdjust="spacing" textLength="129" x="964.5" y="75.0469">&#171;Uniswap v4 Core&#187;</text><text fill="#000000" font-family="sans-serif" font-size="14" font-style="italic" lengthAdjust="spacing" textLength="104" x="977" y="91.5352">&#171;PoolManager&#187;</text><text fill="#000000" font-family="sans-serif" font-size="14" lengthAdjust="spacing" textLength="92" x="983" y="108.0234">0x5fc8..5707</text><rect fill="#E2E2F0" height="63.4648" rx="2.5" ry="2.5" style="stroke:#181818;stroke-width:0.5;" width="143" x="957.5" y="1861.9941"/><text fill="#000000" font-family="sans-serif" font-size="14" font-style="italic" lengthAdjust="spacing" textLength="129" x="964.5" y="1882.5293">&#171;Uniswap v4 Core&#187;</text><text fill="#000000" font-family="sans-serif" font-size="14" font-style="italic" lengthAdjust="spacing" textLength="104" x="977" y="1899.0176">&#171;PoolManager&#187;</text><text fill="#000000" font-family="sans-serif" font-size="14" lengthAdjust="spacing" textLength="92" x="983" y="1915.5059">0x5fc8..5707</text><rect fill="#E2E2F0" height="63.4648" rx="2.5" ry="2.5" style="stroke:#181818;stroke-width:0.5;" width="107" x="1361" y="54.5117"/><text fill="#000000" font-family="sans-serif" font-size="14" font-style="italic" lengthAdjust="spacing" textLength="69" x="1380" y="75.0469">&#171;Token B&#187;</text><text fill="#000000" font-family="sans-serif" font-size="14" font-style="italic" lengthAdjust="spacing" textLength="93" x="1368" y="91.5352">&#171;MockToken&#187;</text><text fill="#000000" font-family="sans-serif" font-size="14" lengthAdjust="spacing" textLength="91" x="1369" y="108.0234">0x9fe4..a6e0</text><rect fill="#E2E2F0" height="63.4648" rx="2.5" ry="2.5" style="stroke:#181818;stroke-width:0.5;" width="107" x="1361" y="1861.9941"/><text fill="#000000" font-family="sans-serif" font-size="14" font-style="italic" lengthAdjust="spacing" textLength="69" x="1380" y="1882.5293">&#171;Token B&#187;</text><text fill="#000000" font-family="sans-serif" font-size="14" font-style="italic" lengthAdjust="spacing" textLength="93" x="1368" y="1899.0176">&#171;MockToken&#187;</text><text fill="#000000" font-family="sans-serif" font-size="14" lengthAdjust="spacing" textLength="91" x="1369" y="1915.5059">0x9fe4..a6e0</text><rect fill="#FFFFFF" height="1328.4961" style="stroke:#181818;stroke-width:1.0;" width="10" x="370" y="354.0137"/><rect fill="#809ECB" height="1158.0117" style="stroke:#181818;stroke-width:1.0;" width="10" x="550.5" y="398.6348"/><rect fill="#FFFFFF" height="757.8691" style="stroke:#181818;stroke-width:1.0;" width="10" x="734" y="734.1563"/><rect fill="#FFFFFF" height="482.832" style="stroke:#181818;stroke-width:1.0;" width="10" x="739" y="854.0195"/><rect fill="#FFFFFF" height="572.0742" style="stroke:#181818;stroke-width:1.0;" width="10" x="1024" y="794.0879"/><rect fill="#FFFFFF" height="14" style="stroke:#181818;stroke-width:1.0;" width="10" x="1029" y="1064.4355"/><rect fill="#FFFFFF" height="118.5527" style="stroke:#181818;stroke-width:1.0;" width="10" x="1029" y="1138.3672"/><rect fill="#FFFFFF" height="29.3105" style="stroke:#181818;stroke-width:1.0;" width="10" x="1409.5" y="944.5723"/><rect fill="#FFFFFF" height="29.3105" style="stroke:#181818;stroke-width:1.0;" width="10" x="1409.5" y="1198.2988"/><path d="M5,133.9766 L5,250.9766 L201,250.9766 L201,143.9766 L191,133.9766 L5,133.9766 " fill="#FEFFDD" style="stroke:#181818;stroke-width:0.5;"/><path d="M191,133.9766 L191,143.9766 L201,143.9766 L191,133.9766 " fill="#FEFFDD" style="stroke:#181818;stroke-width:0.5;"/><text fill="#000000" font-family="sans-serif" font-size="13" lengthAdjust="spacing" textLength="64" x="11" y="151.5449">Nonce: 18</text><text fill="#000000" font-family="sans-serif" font-size="13" lengthAdjust="spacing" textLength="175" x="11" y="166.8555">Gas Price: 3.46992129 Gwei</text><text fill="#000000" font-family="sans-serif" font-size="13" lengthAdjust="spacing" textLength="113" x="11" y="182.166">Max Fee: 5.0 Gwei</text><text fill="#000000" font-family="sans-serif" font-size="13" lengthAdjust="spacing" textLength="137" x="11" y="197.4766">Max Priority: 3.0 Gwei</text><text fill="#000000" font-family="sans-serif" font-size="13" lengthAdjust="spacing" textLength="119" x="11" y="212.7871">Gas Limit: 191,306</text><text fill="#000000" font-family="sans-serif" font-size="13" lengthAdjust="spacing" textLength="118" x="11" y="228.0977">Gas Used: 138,503</text><text fill="#000000" font-family="sans-serif" font-size="13" lengthAdjust="spacing" textLength="86" x="11" y="243.4082">Tx Fee: 0 ETH</text><polygon fill="#181818" points="358,350.0137,368,354.0137,358,358.0137,362,354.0137" style="stroke:#181818;stroke-width:1.0;"/><line style="stroke:#181818;stroke-width:1.0;" x1="103" x2="364" y1="354.0137" y2="354.0137"/><text fill="#000000" font-family="sans-serif" font-size="13" lengthAdjust="spacing" textLength="51" x="110" y="272.7188">deposit(</text><text fill="#000000" font-family="sans-serif" font-size="13" lengthAdjust="spacing" textLength="130" x="118" y="288.0293">token: 0x9fE4..a6e0,</text><text fill="#000000" font-family="sans-serif" font-size="13" lengthAdjust="spacing" textLength="138" x="118" y="303.3398">sender: 0xf39F..2266,</text><text fill="#000000" font-family="sans-serif" font-size="13" lengthAdjust="spacing" textLength="151" x="118" y="318.6504">recipient: 0xf39F..2266,</text><text fill="#000000" font-family="sans-serif" font-size="13" lengthAdjust="spacing" textLength="240" x="118" y="333.9609">amount: 6,,000,000,000,000,000,000)</text><text fill="#000000" font-family="sans-serif" font-size="13" lengthAdjust="spacing" textLength="78" x="110" y="349.2715">120,608 gas</text><line style="stroke:#181818;stroke-width:1.0;" x1="548.5" x2="538.5" y1="398.6348" y2="394.6348"/><line style="stroke:#181818;stroke-width:1.0;" x1="548.5" x2="538.5" y1="398.6348" y2="402.6348"/><line style="stroke:#181818;stroke-width:1.0;" x1="380" x2="549.5" y1="398.6348" y2="398.6348"/><text fill="#000000" font-family="sans-serif" font-size="13" lengthAdjust="spacing" textLength="78" x="387" y="378.582">0xc443648c</text><text fill="#000000" font-family="sans-serif" font-size="13" lengthAdjust="spacing" textLength="78" x="387" y="393.8926">115,135 gas</text><polygon fill="#3471CD" points="722,730.1563,732,734.1563,722,738.1563,726,734.1563" style="stroke:#3471CD;stroke-width:1.0;"/><line style="stroke:#3471CD;stroke-width:1.0;" x1="380" x2="728" y1="734.1563" y2="734.1563"/><text fill="#000000" font-family="sans-serif" font-size="13" lengthAdjust="spacing" textLength="53" x="387" y="423.2031">process(</text><text fill="#000000" font-family="sans-serif" font-size="13" lengthAdjust="spacing" textLength="41" x="395" y="438.5137">calls: [</text><text fill="#000000" font-family="sans-serif" font-size="13" lengthAdjust="spacing" textLength="20" x="403" y="453.8242">0: [</text><text fill="#000000" font-family="sans-serif" font-size="13" lengthAdjust="spacing" textLength="131" x="411" y="469.1348">target: 0x9fE4..a6e0,</text><text fill="#000000" font-family="sans-serif" font-size="13" lengthAdjust="spacing" textLength="64" x="411" y="484.4453">callType: ,</text><text fill="#000000" font-family="sans-serif" font-size="13" lengthAdjust="spacing" textLength="85" x="411" y="499.7559">results: false,</text><text fill="#000000" font-family="sans-serif" font-size="13" lengthAdjust="spacing" textLength="53" x="411" y="515.0664">value: 0,</text><text fill="#000000" font-family="sans-serif" font-size="13" lengthAdjust="spacing" textLength="193" x="411" y="530.377">data: 0x23b872dd..ec580000],</text><text fill="#000000" font-family="sans-serif" font-size="13" lengthAdjust="spacing" textLength="20" x="403" y="545.6875">1: [</text><text fill="#000000" font-family="sans-serif" font-size="13" lengthAdjust="spacing" textLength="137" x="411" y="560.998">target: 0x5FC8..5707,</text><text fill="#000000" font-family="sans-serif" font-size="13" lengthAdjust="spacing" textLength="64" x="411" y="576.3086">callType: ,</text><text fill="#000000" font-family="sans-serif" font-size="13" lengthAdjust="spacing" textLength="85" x="411" y="591.6191">results: false,</text><text fill="#000000" font-family="sans-serif" font-size="13" lengthAdjust="spacing" textLength="53" x="411" y="606.9297">value: 0,</text><text fill="#000000" font-family="sans-serif" font-size="13" lengthAdjust="spacing" textLength="190" x="411" y="622.2402">data: 0xc6c3bbe6..ec580000],</text><text fill="#000000" font-family="sans-serif" font-size="13" lengthAdjust="spacing" textLength="20" x="403" y="637.5508">2: [</text><text fill="#000000" font-family="sans-serif" font-size="13" lengthAdjust="spacing" textLength="137" x="411" y="652.8613">target: 0x5FC8..5707,</text><text fill="#000000" font-family="sans-serif" font-size="13" lengthAdjust="spacing" textLength="64" x="411" y="668.1719">callType: ,</text><text fill="#000000" font-family="sans-serif" font-size="13" lengthAdjust="spacing" textLength="85" x="411" y="683.4824">results: false,</text><text fill="#000000" font-family="sans-serif" font-size="13" lengthAdjust="spacing" textLength="53" x="411" y="698.793">value: 0,</text><text fill="#000000" font-family="sans-serif" font-size="13" lengthAdjust="spacing" textLength="192" x="411" y="714.1035">data: 0x6a256b29..3c7fa6e0]])</text><text fill="#000000" font-family="sans-serif" font-size="13" lengthAdjust="spacing" textLength="78" x="387" y="729.4141">106,200 gas</text><polygon fill="#181818" points="1012,790.0879,1022,794.0879,1012,798.0879,1016,794.0879" style="stroke:#181818;stroke-width:1.0;"/><line style="stroke:#181818;stroke-width:1.0;" x1="744" x2="1018" y1="794.0879" y2="794.0879"/><text fill="#000000" font-family="sans-serif" font-size="13" lengthAdjust="spacing" textLength="31" x="751" y="758.7246">lock(</text><text fill="#000000" font-family="sans-serif" font-size="13" lengthAdjust="spacing" textLength="191" x="759" y="774.0352">data: 0x00000000..00000000)</text><text fill="#000000" font-family="sans-serif" font-size="13" lengthAdjust="spacing" textLength="70" x="751" y="789.3457">95,398 gas</text><polygon fill="#181818" points="760,850.0195,750,854.0195,760,858.0195,756,854.0195" style="stroke:#181818;stroke-width:1.0;"/><line style="stroke:#181818;stroke-width:1.0;" x1="754" x2="1023" y1="854.0195" y2="854.0195"/><text fill="#000000" font-family="sans-serif" font-size="13" lengthAdjust="spacing" textLength="87" x="766" y="818.6563">lockAcquired(</text><text fill="#000000" font-family="sans-serif" font-size="13" lengthAdjust="spacing" textLength="248" x="774" y="833.9668">encodedCalls: 0x00000000..00000000)</text><text fill="#000000" font-family="sans-serif" font-size="13" lengthAdjust="spacing" textLength="70" x="766" y="849.2773">72,699 gas</text><polygon fill="#181818" points="1397.5,940.5723,1407.5,944.5723,1397.5,948.5723,1401.5,944.5723" style="stroke:#181818;stroke-width:1.0;"/><line style="stroke:#181818;stroke-width:1.0;" x1="749" x2="1403.5" y1="944.5723" y2="944.5723"/><text fill="#000000" font-family="sans-serif" font-size="13" lengthAdjust="spacing" textLength="85" x="756" y="878.5879">transferFrom(</text><text fill="#000000" font-family="sans-serif" font-size="13" lengthAdjust="spacing" textLength="126" x="764" y="893.8984">from: 0xf39F..2266,</text><text fill="#000000" font-family="sans-serif" font-size="13" lengthAdjust="spacing" textLength="113" x="764" y="909.209">to: 0x5FC8..5707,</text><text fill="#000000" font-family="sans-serif" font-size="13" lengthAdjust="spacing" textLength="225" x="764" y="924.5195">value: 6,,000,000,000,000,000,000)</text><text fill="#000000" font-family="sans-serif" font-size="13" lengthAdjust="spacing" textLength="70" x="756" y="939.8301">18,562 gas</text><polygon fill="#181818" points="760,969.8828,750,973.8828,760,977.8828,756,973.8828" style="stroke:#181818;stroke-width:1.0;"/><line style="stroke:#181818;stroke-width:1.0;stroke-dasharray:2.0,2.0;" x1="754" x2="1413.5" y1="973.8828" y2="973.8828"/><text fill="#000000" font-family="sans-serif" font-size="13" lengthAdjust="spacing" textLength="25" x="766" y="969.1406">true</text><polygon fill="#181818" points="1017,1060.4355,1027,1064.4355,1017,1068.4355,1021,1064.4355" style="stroke:#181818;stroke-width:1.0;"/><line style="stroke:#181818;stroke-width:1.0;" x1="749" x2="1023" y1="1064.4355" y2="1064.4355"/><text fill="#000000" font-family="sans-serif" font-size="13" lengthAdjust="spacing" textLength="33" x="756" y="998.4512">mint(</text><text fill="#000000" font-family="sans-serif" font-size="13" lengthAdjust="spacing" textLength="148" x="764" y="1013.7617">currency: 0x9fE4..a6e0,</text><text fill="#000000" font-family="sans-serif" font-size="13" lengthAdjust="spacing" textLength="109" x="764" y="1029.0723">to: 0xf39F..2266,</text><text fill="#000000" font-family="sans-serif" font-size="13" lengthAdjust="spacing" textLength="240" x="764" y="1044.3828">amount: 6,,000,000,000,000,000,000)</text><text fill="#000000" font-family="sans-serif" font-size="13" lengthAdjust="spacing" textLength="70" x="756" y="1059.6934">50,419 gas</text><polygon fill="#181818" points="760,1074.4355,750,1078.4355,760,1082.4355,756,1078.4355" style="stroke:#181818;stroke-width:1.0;"/><line style="stroke:#181818;stroke-width:1.0;stroke-dasharray:2.0,2.0;" x1="754" x2="1023" y1="1078.4355" y2="1078.4355"/><polygon fill="#181818" points="1017,1134.3672,1027,1138.3672,1017,1142.3672,1021,1138.3672" style="stroke:#181818;stroke-width:1.0;"/><line style="stroke:#181818;stroke-width:1.0;" x1="749" x2="1023" y1="1138.3672" y2="1138.3672"/><text fill="#000000" font-family="sans-serif" font-size="13" lengthAdjust="spacing" textLength="39" x="756" y="1103.0039">settle(</text><text fill="#000000" font-family="sans-serif" font-size="13" lengthAdjust="spacing" textLength="148" x="764" y="1118.3145">currency: 0x9fE4..a6e0)</text><text fill="#000000" font-family="sans-serif" font-size="13" lengthAdjust="spacing" textLength="62" x="756" y="1133.625">7,132 gas</text><polygon fill="#181818" points="1397.5,1194.2988,1407.5,1198.2988,1397.5,1202.2988,1401.5,1198.2988" style="stroke:#181818;stroke-width:1.0;"/><line style="stroke:#181818;stroke-width:1.0;" x1="1039" x2="1403.5" y1="1198.2988" y2="1198.2988"/><text fill="#000000" font-family="sans-serif" font-size="13" lengthAdjust="spacing" textLength="67" x="1046" y="1162.9355">balanceOf(</text><text fill="#000000" font-family="sans-serif" font-size="13" lengthAdjust="spacing" textLength="150" x="1054" y="1178.2461">account: 0x5FC8..5707)</text><text fill="#000000" font-family="sans-serif" font-size="13" lengthAdjust="spacing" textLength="50" x="1046" y="1193.5566">562 gas</text><polygon fill="#181818" points="1050,1223.6094,1040,1227.6094,1050,1231.6094,1046,1227.6094" style="stroke:#181818;stroke-width:1.0;"/><line style="stroke:#181818;stroke-width:1.0;stroke-dasharray:2.0,2.0;" x1="1044" x2="1413.5" y1="1227.6094" y2="1227.6094"/><text fill="#000000" font-family="sans-serif" font-size="13" lengthAdjust="spacing" textLength="188" x="1056" y="1222.8672">37,,125,499,066,867,325,885</text><polygon fill="#181818" points="760,1252.9199,750,1256.9199,760,1260.9199,756,1256.9199" style="stroke:#181818;stroke-width:1.0;"/><line style="stroke:#181818;stroke-width:1.0;stroke-dasharray:2.0,2.0;" x1="754" x2="1023" y1="1256.9199" y2="1256.9199"/><text fill="#000000" font-family="sans-serif" font-size="13" lengthAdjust="spacing" textLength="215" x="766" y="1252.1777">paid: 6,,000,000,000,000,000,000</text><path d="M1039,1269.9199 L1039,1309.9199 L1122,1309.9199 L1122,1279.9199 L1112,1269.9199 L1039,1269.9199 " fill="#FEFFDD" style="stroke:#181818;stroke-width:0.5;"/><path d="M1112,1269.9199 L1112,1279.9199 L1122,1279.9199 L1112,1269.9199 " fill="#FEFFDD" style="stroke:#181818;stroke-width:0.5;"/><text fill="#000000" font-family="sans-serif" font-size="13" lengthAdjust="spacing" textLength="4" x="1045" y="1287.4883">&#160;</text><text fill="#000000" font-family="sans-serif" font-size="13" lengthAdjust="spacing" textLength="62" x="1045" y="1302.7988">6,570 gas</text><polygon fill="#181818" points="1012,1332.8516,1022,1336.8516,1012,1340.8516,1016,1336.8516" style="stroke:#181818;stroke-width:1.0;"/><line style="stroke:#181818;stroke-width:1.0;stroke-dasharray:2.0,2.0;" x1="744" x2="1018" y1="1336.8516" y2="1336.8516"/><text fill="#000000" font-family="sans-serif" font-size="13" lengthAdjust="spacing" textLength="150" x="751" y="1332.1094">0x00000000..ec580000</text><polygon fill="#181818" points="755,1362.1621,745,1366.1621,755,1370.1621,751,1366.1621" style="stroke:#181818;stroke-width:1.0;"/><line style="stroke:#181818;stroke-width:1.0;stroke-dasharray:2.0,2.0;" x1="749" x2="1028" y1="1366.1621" y2="1366.1621"/><text fill="#000000" font-family="sans-serif" font-size="13" lengthAdjust="spacing" textLength="194" x="761" y="1361.4199">result: 0x00000000..ec580000</text><path d="M1034,1379.1621 L1034,1419.1621 L1125,1419.1621 L1125,1389.1621 L1115,1379.1621 L1034,1379.1621 " fill="#FEFFDD" style="stroke:#181818;stroke-width:0.5;"/><path d="M1115,1379.1621 L1115,1389.1621 L1125,1389.1621 L1115,1379.1621 " fill="#FEFFDD" style="stroke:#181818;stroke-width:0.5;"/><text fill="#000000" font-family="sans-serif" font-size="13" lengthAdjust="spacing" textLength="4" x="1040" y="1396.7305">&#160;</text><text fill="#000000" font-family="sans-serif" font-size="13" lengthAdjust="spacing" textLength="70" x="1040" y="1412.041">22,699 gas</text><polygon fill="#3471CD" points="391,1488.0254,381,1492.0254,391,1496.0254,387,1492.0254" style="stroke:#3471CD;stroke-width:1.0;"/><line style="stroke:#3471CD;stroke-width:1.0;stroke-dasharray:2.0,2.0;" x1="385" x2="738" y1="1492.0254" y2="1492.0254"/><text fill="#000000" font-family="sans-serif" font-size="13" lengthAdjust="spacing" textLength="55" x="397" y="1441.3516">results: [</text><text fill="#000000" font-family="sans-serif" font-size="13" lengthAdjust="spacing" textLength="172" x="405" y="1456.6621">0: 0x00000000..00000001,</text><text fill="#000000" font-family="sans-serif" font-size="13" lengthAdjust="spacing" textLength="36" x="405" y="1471.9727">1: 0x,</text><text fill="#000000" font-family="sans-serif" font-size="13" lengthAdjust="spacing" textLength="170" x="405" y="1487.2832">2: 0x00000000..ec580000]</text><path d="M744,1505.0254 L744,1545.0254 L835,1545.0254 L835,1515.0254 L825,1505.0254 L744,1505.0254 " fill="#FEFFDD" style="stroke:#181818;stroke-width:0.5;"/><path d="M825,1505.0254 L825,1515.0254 L835,1515.0254 L825,1505.0254 " fill="#FEFFDD" style="stroke:#181818;stroke-width:0.5;"/><text fill="#000000" font-family="sans-serif" font-size="13" lengthAdjust="spacing" textLength="4" x="750" y="1522.5938">&#160;</text><text fill="#000000" font-family="sans-serif" font-size="13" lengthAdjust="spacing" textLength="70" x="750" y="1537.9043">10,802 gas</text><line style="stroke:#181818;stroke-width:1.0;" x1="381" x2="391" y1="1556.6465" y2="1552.6465"/><line style="stroke:#181818;stroke-width:1.0;" x1="381" x2="391" y1="1556.6465" y2="1560.6465"/><line style="stroke:#181818;stroke-width:1.0;stroke-dasharray:2.0,2.0;" x1="380" x2="554.5" y1="1556.6465" y2="1556.6465"/><path d="M560,1569.6465 L560,1609.6465 L643,1609.6465 L643,1579.6465 L633,1569.6465 L560,1569.6465 " fill="#FEFFDD" style="stroke:#181818;stroke-width:0.5;"/><path d="M633,1569.6465 L633,1579.6465 L643,1579.6465 L633,1569.6465 " fill="#FEFFDD" style="stroke:#181818;stroke-width:0.5;"/><text fill="#000000" font-family="sans-serif" font-size="13" lengthAdjust="spacing" textLength="4" x="566" y="1587.2148">&#160;</text><text fill="#000000" font-family="sans-serif" font-size="13" lengthAdjust="spacing" textLength="62" x="566" y="1602.5254">8,935 gas</text><polygon fill="#181818" points="114,1678.5098,104,1682.5098,114,1686.5098,110,1682.5098" style="stroke:#181818;stroke-width:1.0;"/><line style="stroke:#181818;stroke-width:1.0;stroke-dasharray:2.0,2.0;" x1="108" x2="374" y1="1682.5098" y2="1682.5098"/><text fill="#000000" font-family="sans-serif" font-size="13" lengthAdjust="spacing" textLength="55" x="120" y="1631.8359">results: [</text><text fill="#000000" font-family="sans-serif" font-size="13" lengthAdjust="spacing" textLength="172" x="128" y="1647.1465">0: 0x00000000..00000001,</text><text fill="#000000" font-family="sans-serif" font-size="13" lengthAdjust="spacing" textLength="36" x="128" y="1662.457">1: 0x,</text><text fill="#000000" font-family="sans-serif" font-size="13" lengthAdjust="spacing" textLength="170" x="128" y="1677.7676">2: 0x00000000..ec580000]</text><path d="M380,1695.5098 L380,1735.5098 L463,1735.5098 L463,1705.5098 L453,1695.5098 L380,1695.5098 " fill="#FEFFDD" style="stroke:#181818;stroke-width:0.5;"/><path d="M453,1695.5098 L453,1705.5098 L463,1705.5098 L453,1695.5098 " fill="#FEFFDD" style="stroke:#181818;stroke-width:0.5;"/><text fill="#000000" font-family="sans-serif" font-size="13" lengthAdjust="spacing" textLength="4" x="386" y="1713.0781">&#160;</text><text fill="#000000" font-family="sans-serif" font-size="13" lengthAdjust="spacing" textLength="62" x="386" y="1728.3887">5,473 gas</text><path d="M778,1746.1309 L778,1847.1309 L1279,1847.1309 L1279,1756.1309 L1269,1746.1309 L778,1746.1309 " fill="#00FFFF" style="stroke:#181818;stroke-width:0.5;"/><path d="M1269,1746.1309 L1269,1756.1309 L1279,1756.1309 L1269,1746.1309 " fill="#00FFFF" style="stroke:#181818;stroke-width:0.5;"/><text fill="#000000" font-family="sans-serif" font-size="13" lengthAdjust="spacing" textLength="94" x="784" y="1763.6992">TransferSingle:</text><text fill="#000000" font-family="sans-serif" font-size="13" lengthAdjust="spacing" textLength="151" x="792" y="1779.0098">operator: 0x0165..Eb8F,</text><text fill="#000000" font-family="sans-serif" font-size="13" lengthAdjust="spacing" textLength="130" x="792" y="1794.3203">from: 0x0000..0000,</text><text fill="#000000" font-family="sans-serif" font-size="13" lengthAdjust="spacing" textLength="109" x="792" y="1809.6309">to: 0xf39F..2266,</text><text fill="#000000" font-family="sans-serif" font-size="13" lengthAdjust="spacing" textLength="472" x="792" y="1824.9414">id: 912,823,093,544,680,850,579,175,995,568,,783,282,090,442,467,040,</text><text fill="#000000" font-family="sans-serif" font-size="13" lengthAdjust="spacing" textLength="221" x="792" y="1840.252">value: 6,,000,000,000,000,000,000</text><path d="M1289,1746.1309 L1289,1817.1309 L1539,1817.1309 L1539,1756.1309 L1529,1746.1309 L1289,1746.1309 " fill="#00FFFF" style="stroke:#181818;stroke-width:0.5;"/><path d="M1529,1746.1309 L1529,1756.1309 L1539,1756.1309 L1529,1746.1309 " fill="#00FFFF" style="stroke:#181818;stroke-width:0.5;"/><text fill="#000000" font-family="sans-serif" font-size="13" lengthAdjust="spacing" textLength="56" x="1295" y="1763.6992">Transfer:</text><text fill="#000000" font-family="sans-serif" font-size="13" lengthAdjust="spacing" textLength="126" x="1303" y="1779.0098">from: 0xf39F..2266,</text><text fill="#000000" font-family="sans-serif" font-size="13" lengthAdjust="spacing" textLength="113" x="1303" y="1794.3203">to: 0x5FC8..5707,</text><text fill="#000000" font-family="sans-serif" font-size="13" lengthAdjust="spacing" textLength="221" x="1303" y="1809.6309">value: 6,,000,000,000,000,000,000</text><!--SRC=[lLPRRzis57xdho2QbmsWDOhKXH820wkRP0_DLYnkNne_K1Bb2NL8bwBJvj_lK9PbEvRJTjWcG03F8VcTZ-T6kiQj57wlc_QBNEF724_m6xKsRUCGAkNQDKPZRRGYk5YPyXCM1DzjDC4imdTgZHbb7DCmfond0j_Spf4idR7u5VrQywmE0iQIv1MMBVQY5p1QI-kQibbBxVmw6OSy24eHyswT5xs0BozxLX-YcLojb9rEds-Dww8A0YhbTgiNlN2uzK-pSSg-RGehxTCf0WsJE0XK8UeEmOjUE4KOCrwA88XJclR6WJK8-wtUcpDZrNHwUVdEcDMjr78vXfJLAWe2cIZQ8NdH2u0qDv-KngyzmYrulnDXFzB6AMmUbHtSYdutkbGv3WMw0Ontjl4I3w8aorZ8CdppHJNeLdx5rmecue3kDR3OsCOz-VMzscEyRHuQ1uXPI3XDEjNxLbMWuOB4bADv3qRnrVmtf7I5FI-4Xb1FfaCuSrnjq-gdUusnymU1ZN3qg_xenEjR057MJm36zJPxkWchm5sDqcvaJZwOZPz82A6KZlq_t-kGKP9GWPUozIdQF4hmu8uS6f9kCfqEQUHDbL74aqYK01369EJnCS2GSHU2PbUprmT07ozub8QpDulfa5KvNbjJghRjV512KhSv_kZ76DDX1DwHTgdSY7lyvxVDdzRWza5bLRjPES2gvQfLW_fHhZO-EeEYaavwLCOBaR8AIaULiG3_q4M_9Xnb4L_F-ap_DrcKIScBGYMdBDZ_o2AHB4uAbWK1BzFQUtgnyEb24y8eFOxsBeveQ1EJwL3tEVRziOli3fls7xIe_WFaB2Oy4y_JQ8k1XYOoESmQ3_nh-NdJM5Lr1fGkJQMgsJQ3pXXA6O7Q_uuJxFfDZfsLkgsLlRRceJDKms2aufmP2KZlufUh41f7meuvxSmZgzp6QY2nKMSy_D3eRVyeDzQ24vv6QcJBxP-qY9YIACpEHAOdTuPOgnnSeozGy_60zi6-8-xxS1Ho9Q6f_r5tmB8ijuSuzBod_Is7yfIGaCKaoZ92mI4YIGa7MOXujsGjc-ebxsml7Dii_tBOr0S7lzS9WL57eCSwJCTTPU_cjjMPZwyvRuFjK_a8QDS-wMWHX5teGp_NZTYutSKpm_kwyss02CeE3P-mtDqLzrgGhByV_dkI-siL4e14AU_i7hmBXeowa9yt4itxohvhz7AbSeInMIihuQdMsUjUGLU5k2PeN_HxdbvxKbUWyqcJXOm8nWdDE8cZY2G2V0Qb5ASP2TEOPD3muaGGaWfEc62m4EeiOYI2DAHHX_tDrd7mkFW5xmyvl9IE3vcZqSw5HXhNZnd_6m00]--></g></svg>