<?xml version="1.0" encoding="us-ascii" standalone="no"?><svg xmlns="http://www.w3.org/2000/svg" xmlns:xlink="http://www.w3.org/1999/xlink" contentStyleType="text/css" height="1965px" preserveAspectRatio="none" style="width:1550px;height:1965px;background:#FFFFFF;" version="1.1" viewBox="0 0 1550 1965" width="1550px" zoomAndPan="magnify"><defs/><g><text fill="#000000" font-family="sans-serif" font-size="14" font-weight="bold" lengthAdjust="spacing" textLength="158" x="694.75" y="28.5352">Uniswap v4 - Deposit</text><text fill="#000000" font-family="sans-serif" font-size="14" lengthAdjust="spacing" textLength="327" x="610.25" y="1954.0176">none, block 5, Mon, 18 Sep 2023 22:50:25 GMT</text><rect fill="#FFFFFF" height="1328.4961" style="stroke:#181818;stroke-width:1.0;" width="10" x="374" y="354.0137"/><rect fill="#809ECB" height="1158.0117" style="stroke:#181818;stroke-width:1.0;" width="10" x="554.5" y="398.6348"/><rect fill="#FFFFFF" height="757.8691" style="stroke:#181818;stroke-width:1.0;" width="10" x="738" y="734.1563"/><rect fill="#FFFFFF" height="482.832" style="stroke:#181818;stroke-width:1.0;" width="10" x="743" y="854.0195"/><rect fill="#FFFFFF" height="572.0742" style="stroke:#181818;stroke-width:1.0;" width="10" x="1028" y="794.0879"/><rect fill="#FFFFFF" height="14" style="stroke:#181818;stroke-width:1.0;" width="10" x="1033" y="1064.4355"/><rect fill="#FFFFFF" height="118.5527" style="stroke:#181818;stroke-width:1.0;" width="10" x="1033" y="1138.3672"/><rect fill="#FFFFFF" height="29.3105" style="stroke:#181818;stroke-width:1.0;" width="10" x="1413.5" y="944.5723"/><rect fill="#FFFFFF" height="29.3105" style="stroke:#181818;stroke-width:1.0;" width="10" x="1413.5" y="1198.2988"/><line style="stroke:#181818;stroke-width:0.5;stroke-dasharray:5.0,5.0;" x1="107" x2="107" y1="118.9766" y2="1862.9941"/><line style="stroke:#181818;stroke-width:0.5;stroke-dasharray:5.0,5.0;" x1="379" x2="379" y1="118.9766" y2="1862.9941"/><line style="stroke:#181818;stroke-width:0.5;stroke-dasharray:5.0,5.0;" x1="559" x2="559" y1="118.9766" y2="1862.9941"/><line style="stroke:#181818;stroke-width:0.5;stroke-dasharray:5.0,5.0;" x1="743" x2="743" y1="118.9766" y2="1862.9941"/><line style="stroke:#181818;stroke-width:0.5;stroke-dasharray:5.0,5.0;" x1="1032.5" x2="1032.5" y1="118.9766" y2="1862.9941"/><line style="stroke:#181818;stroke-width:0.5;stroke-dasharray:5.0,5.0;" x1="1418" x2="1418" y1="118.9766" y2="1862.9941"/><text fill="#000000" font-family="sans-serif" font-size="14" lengthAdjust="spacing" textLength="90" x="59" y="116.0234">0xf39f..2266</text><ellipse cx="107" cy="50.9883" fill="#E2E2F0" rx="8" ry="8" style="stroke:#181818;stroke-width:0.5;"/><path d="M107,58.9883 L107,85.9883 M94,66.9883 L120,66.9883 M107,85.9883 L94,100.9883 M107,85.9883 L120,100.9883 " fill="none" style="stroke:#181818;stroke-width:0.5;"/><text fill="#000000" font-family="sans-serif" font-size="14" lengthAdjust="spacing" textLength="90" x="59" y="1875.5293">0xf39f..2266</text><ellipse cx="107" cy="1886.9824" fill="#E2E2F0" rx="8" ry="8" style="stroke:#181818;stroke-width:0.5;"/><path d="M107,1894.9824 L107,1921.9824 M94,1902.9824 L120,1902.9824 M107,1921.9824 L94,1936.9824 M107,1921.9824 L120,1936.9824 " fill="none" style="stroke:#181818;stroke-width:0.5;"/><rect fill="#E2E2F0" height="46.9766" rx="2.5" ry="2.5" style="stroke:#181818;stroke-width:0.5;" width="144" x="307" y="71"/><text fill="#000000" font-family="sans-serif" font-size="14" font-style="italic" lengthAdjust="spacing" textLength="130" x="314" y="91.5352">&#171;UniswapV4Caller&#187;</text><text fill="#000000" font-family="sans-serif" font-size="14" lengthAdjust="spacing" textLength="92" x="333" y="108.0234">0x5fc8..5707</text><rect fill="#E2E2F0" height="46.9766" rx="2.5" ry="2.5" style="stroke:#181818;stroke-width:0.5;" width="144" x="307" y="1861.9941"/><text fill="#000000" font-family="sans-serif" font-size="14" font-style="italic" lengthAdjust="spacing" textLength="130" x="314" y="1882.5293">&#171;UniswapV4Caller&#187;</text><text fill="#000000" font-family="sans-serif" font-size="14" lengthAdjust="spacing" textLength="92" x="333" y="1899.0176">0x5fc8..5707</text><rect fill="#E2E2F0" height="46.9766" rx="2.5" ry="2.5" style="stroke:#181818;stroke-width:0.5;" width="197" x="461" y="71"/><text fill="#000000" font-family="sans-serif" font-size="14" font-style="italic" lengthAdjust="spacing" textLength="183" x="468" y="91.5352">&#171;UniswapV4RouterLibrary&#187;</text><text fill="#000000" font-family="sans-serif" font-size="14" lengthAdjust="spacing" textLength="92" x="513.5" y="108.0234">0x5fbd..0aa3</text><rect fill="#E2E2F0" height="46.9766" rx="2.5" ry="2.5" style="stroke:#181818;stroke-width:0.5;" width="197" x="461" y="1861.9941"/><text fill="#000000" font-family="sans-serif" font-size="14" font-style="italic" lengthAdjust="spacing" textLength="183" x="468" y="1882.5293">&#171;UniswapV4RouterLibrary&#187;</text><text fill="#000000" font-family="sans-serif" font-size="14" lengthAdjust="spacing" textLength="92" x="513.5" y="1899.0176">0x5fbd..0aa3</text><rect fill="#E2E2F0" height="46.9766" rx="2.5" ry="2.5" style="stroke:#181818;stroke-width:0.5;" width="150" x="668" y="71"/><text fill="#000000" font-family="sans-serif" font-size="14" font-style="italic" lengthAdjust="spacing" textLength="136" x="675" y="91.5352">&#171;UniswapV4Router&#187;</text><text fill="#000000" font-family="sans-serif" font-size="14" lengthAdjust="spacing" textLength="90" x="698" y="108.0234">0xdc64..f6c9</text><rect fill="#E2E2F0" height="46.9766" rx="2.5" ry="2.5" style="stroke:#181818;stroke-width:0.5;" width="150" x="668" y="1861.9941"/><text fill="#000000" font-family="sans-serif" font-size="14" font-style="italic" lengthAdjust="spacing" textLength="136" x="675" y="1882.5293">&#171;UniswapV4Router&#187;</text><text fill="#000000" font-family="sans-serif" font-size="14" lengthAdjust="spacing" textLength="90" x="698" y="1899.0176">0xdc64..f6c9</text><rect fill="#E2E2F0" height="63.4648" rx="2.5" ry="2.5" style="stroke:#181818;stroke-width:0.5;" width="143" x="961.5" y="54.5117"/><text fill="#000000" font-family="sans-serif" font-size="14" font-style="italic" lengthAdjust="spacing" textLength="129" x="968.5" y="75.0469">&#171;Uniswap v4 Core&#187;</text><text fill="#000000" font-family="sans-serif" font-size="14" font-style="italic" lengthAdjust="spacing" textLength="104" x="981" y="91.5352">&#171;PoolManager&#187;</text><text fill="#000000" font-family="sans-serif" font-size="14" lengthAdjust="spacing" textLength="85" x="990.5" y="108.0234">0xcf7e..0fc9</text><rect fill="#E2E2F0" height="63.4648" rx="2.5" ry="2.5" style="stroke:#181818;stroke-width:0.5;" width="143" x="961.5" y="1861.9941"/><text fill="#000000" font-family="sans-serif" font-size="14" font-style="italic" lengthAdjust="spacing" textLength="129" x="968.5" y="1882.5293">&#171;Uniswap v4 Core&#187;</text><text fill="#000000" font-family="sans-serif" font-size="14" font-style="italic" lengthAdjust="spacing" textLength="104" x="981" y="1899.0176">&#171;PoolManager&#187;</text><text fill="#000000" font-family="sans-serif" font-size="14" lengthAdjust="spacing" textLength="85" x="990.5" y="1915.5059">0xcf7e..0fc9</text><rect fill="#E2E2F0" height="63.4648" rx="2.5" ry="2.5" style="stroke:#181818;stroke-width:0.5;" width="105" x="1366" y="54.5117"/><text fill="#000000" font-family="sans-serif" font-size="14" font-style="italic" lengthAdjust="spacing" textLength="62" x="1387.5" y="75.0469">&#171;token0&#187;</text><text fill="#000000" font-family="sans-serif" font-size="14" font-style="italic" lengthAdjust="spacing" textLength="88" x="1374.5" y="91.5352">&#171;TestERC20&#187;</text><text fill="#000000" font-family="sans-serif" font-size="14" lengthAdjust="spacing" textLength="91" x="1373" y="108.0234">0x9fe4..a6e0</text><rect fill="#E2E2F0" height="63.4648" rx="2.5" ry="2.5" style="stroke:#181818;stroke-width:0.5;" width="105" x="1366" y="1861.9941"/><text fill="#000000" font-family="sans-serif" font-size="14" font-style="italic" lengthAdjust="spacing" textLength="62" x="1387.5" y="1882.5293">&#171;token0&#187;</text><text fill="#000000" font-family="sans-serif" font-size="14" font-style="italic" lengthAdjust="spacing" textLength="88" x="1374.5" y="1899.0176">&#171;TestERC20&#187;</text><text fill="#000000" font-family="sans-serif" font-size="14" lengthAdjust="spacing" textLength="91" x="1373" y="1915.5059">0x9fe4..a6e0</text><rect fill="#FFFFFF" height="1328.4961" style="stroke:#181818;stroke-width:1.0;" width="10" x="374" y="354.0137"/><rect fill="#809ECB" height="1158.0117" style="stroke:#181818;stroke-width:1.0;" width="10" x="554.5" y="398.6348"/><rect fill="#FFFFFF" height="757.8691" style="stroke:#181818;stroke-width:1.0;" width="10" x="738" y="734.1563"/><rect fill="#FFFFFF" height="482.832" style="stroke:#181818;stroke-width:1.0;" width="10" x="743" y="854.0195"/><rect fill="#FFFFFF" height="572.0742" style="stroke:#181818;stroke-width:1.0;" width="10" x="1028" y="794.0879"/><rect fill="#FFFFFF" height="14" style="stroke:#181818;stroke-width:1.0;" width="10" x="1033" y="1064.4355"/><rect fill="#FFFFFF" height="118.5527" style="stroke:#181818;stroke-width:1.0;" width="10" x="1033" y="1138.3672"/><rect fill="#FFFFFF" height="29.3105" style="stroke:#181818;stroke-width:1.0;" width="10" x="1413.5" y="944.5723"/><rect fill="#FFFFFF" height="29.3105" style="stroke:#181818;stroke-width:1.0;" width="10" x="1413.5" y="1198.2988"/><path d="M5,133.9766 L5,250.9766 L209,250.9766 L209,143.9766 L199,133.9766 L5,133.9766 " fill="#FEFFDD" style="stroke:#181818;stroke-width:0.5;"/><path d="M199,133.9766 L199,143.9766 L209,143.9766 L199,133.9766 " fill="#FEFFDD" style="stroke:#181818;stroke-width:0.5;"/><text fill="#000000" font-family="sans-serif" font-size="13" lengthAdjust="spacing" textLength="64" x="11" y="151.5449">Nonce: 16</text><text fill="#000000" font-family="sans-serif" font-size="13" lengthAdjust="spacing" textLength="183" x="11" y="166.8555">Gas Price: 3.658192031 Gwei</text><text fill="#000000" font-family="sans-serif" font-size="13" lengthAdjust="spacing" textLength="113" x="11" y="182.166">Max Fee: 5.0 Gwei</text><text fill="#000000" font-family="sans-serif" font-size="13" lengthAdjust="spacing" textLength="137" x="11" y="197.4766">Max Priority: 3.0 Gwei</text><text fill="#000000" font-family="sans-serif" font-size="13" lengthAdjust="spacing" textLength="119" x="11" y="212.7871">Gas Limit: 191,059</text><text fill="#000000" font-family="sans-serif" font-size="13" lengthAdjust="spacing" textLength="118" x="11" y="228.0977">Gas Used: 138,324</text><text fill="#000000" font-family="sans-serif" font-size="13" lengthAdjust="spacing" textLength="114" x="11" y="243.4082">Tx Fee: 0.001 ETH</text><polygon fill="#181818" points="362,350.0137,372,354.0137,362,358.0137,366,354.0137" style="stroke:#181818;stroke-width:1.0;"/><line style="stroke:#181818;stroke-width:1.0;" x1="107" x2="368" y1="354.0137" y2="354.0137"/><text fill="#000000" font-family="sans-serif" font-size="13" lengthAdjust="spacing" textLength="51" x="114" y="272.7188">deposit(</text><text fill="#000000" font-family="sans-serif" font-size="13" lengthAdjust="spacing" textLength="130" x="122" y="288.0293">token: 0x9fE4..a6e0,</text><text fill="#000000" font-family="sans-serif" font-size="13" lengthAdjust="spacing" textLength="138" x="122" y="303.3398">sender: 0xf39F..2266,</text><text fill="#000000" font-family="sans-serif" font-size="13" lengthAdjust="spacing" textLength="151" x="122" y="318.6504">recipient: 0xf39F..2266,</text><text fill="#000000" font-family="sans-serif" font-size="13" lengthAdjust="spacing" textLength="240" x="122" y="333.9609">amount: 6,,000,000,000,000,000,000)</text><text fill="#000000" font-family="sans-serif" font-size="13" lengthAdjust="spacing" textLength="78" x="114" y="349.2715">120,430 gas</text><line style="stroke:#181818;stroke-width:1.0;" x1="552.5" x2="542.5" y1="398.6348" y2="394.6348"/><line style="stroke:#181818;stroke-width:1.0;" x1="552.5" x2="542.5" y1="398.6348" y2="402.6348"/><line style="stroke:#181818;stroke-width:1.0;" x1="384" x2="553.5" y1="398.6348" y2="398.6348"/><text fill="#000000" font-family="sans-serif" font-size="13" lengthAdjust="spacing" textLength="78" x="391" y="378.582">0xc443648c</text><text fill="#000000" font-family="sans-serif" font-size="13" lengthAdjust="spacing" textLength="78" x="391" y="393.8926">114,956 gas</text><polygon fill="#3471CD" points="726,730.1563,736,734.1563,726,738.1563,730,734.1563" style="stroke:#3471CD;stroke-width:1.0;"/><line style="stroke:#3471CD;stroke-width:1.0;" x1="384" x2="732" y1="734.1563" y2="734.1563"/><text fill="#000000" font-family="sans-serif" font-size="13" lengthAdjust="spacing" textLength="53" x="391" y="423.2031">process(</text><text fill="#000000" font-family="sans-serif" font-size="13" lengthAdjust="spacing" textLength="41" x="399" y="438.5137">calls: [</text><text fill="#000000" font-family="sans-serif" font-size="13" lengthAdjust="spacing" textLength="20" x="407" y="453.8242">0: [</text><text fill="#000000" font-family="sans-serif" font-size="13" lengthAdjust="spacing" textLength="131" x="415" y="469.1348">target: 0x9fE4..a6e0,</text><text fill="#000000" font-family="sans-serif" font-size="13" lengthAdjust="spacing" textLength="64" x="415" y="484.4453">callType: ,</text><text fill="#000000" font-family="sans-serif" font-size="13" lengthAdjust="spacing" textLength="85" x="415" y="499.7559">results: false,</text><text fill="#000000" font-family="sans-serif" font-size="13" lengthAdjust="spacing" textLength="53" x="415" y="515.0664">value: 0,</text><text fill="#000000" font-family="sans-serif" font-size="13" lengthAdjust="spacing" textLength="193" x="415" y="530.377">data: 0x23b872dd..ec580000],</text><text fill="#000000" font-family="sans-serif" font-size="13" lengthAdjust="spacing" textLength="20" x="407" y="545.6875">1: [</text><text fill="#000000" font-family="sans-serif" font-size="13" lengthAdjust="spacing" textLength="132" x="415" y="560.998">target: 0xCf7E..0Fc9,</text><text fill="#000000" font-family="sans-serif" font-size="13" lengthAdjust="spacing" textLength="64" x="415" y="576.3086">callType: ,</text><text fill="#000000" font-family="sans-serif" font-size="13" lengthAdjust="spacing" textLength="85" x="415" y="591.6191">results: false,</text><text fill="#000000" font-family="sans-serif" font-size="13" lengthAdjust="spacing" textLength="53" x="415" y="606.9297">value: 0,</text><text fill="#000000" font-family="sans-serif" font-size="13" lengthAdjust="spacing" textLength="190" x="415" y="622.2402">data: 0xc6c3bbe6..ec580000],</text><text fill="#000000" font-family="sans-serif" font-size="13" lengthAdjust="spacing" textLength="20" x="407" y="637.5508">2: [</text><text fill="#000000" font-family="sans-serif" font-size="13" lengthAdjust="spacing" textLength="132" x="415" y="652.8613">target: 0xCf7E..0Fc9,</text><text fill="#000000" font-family="sans-serif" font-size="13" lengthAdjust="spacing" textLength="64" x="415" y="668.1719">callType: ,</text><text fill="#000000" font-family="sans-serif" font-size="13" lengthAdjust="spacing" textLength="85" x="415" y="683.4824">results: false,</text><text fill="#000000" font-family="sans-serif" font-size="13" lengthAdjust="spacing" textLength="53" x="415" y="698.793">value: 0,</text><text fill="#000000" font-family="sans-serif" font-size="13" lengthAdjust="spacing" textLength="192" x="415" y="714.1035">data: 0x6a256b29..3c7fa6e0]])</text><text fill="#000000" font-family="sans-serif" font-size="13" lengthAdjust="spacing" textLength="78" x="391" y="729.4141">106,021 gas</text><polygon fill="#181818" points="1016,790.0879,1026,794.0879,1016,798.0879,1020,794.0879" style="stroke:#181818;stroke-width:1.0;"/><line style="stroke:#181818;stroke-width:1.0;" x1="748" x2="1022" y1="794.0879" y2="794.0879"/><text fill="#000000" font-family="sans-serif" font-size="13" lengthAdjust="spacing" textLength="31" x="755" y="758.7246">lock(</text><text fill="#000000" font-family="sans-serif" font-size="13" lengthAdjust="spacing" textLength="191" x="763" y="774.0352">data: 0x00000000..00000000)</text><text fill="#000000" font-family="sans-serif" font-size="13" lengthAdjust="spacing" textLength="70" x="755" y="789.3457">95,220 gas</text><polygon fill="#181818" points="764,850.0195,754,854.0195,764,858.0195,760,854.0195" style="stroke:#181818;stroke-width:1.0;"/><line style="stroke:#181818;stroke-width:1.0;" x1="758" x2="1027" y1="854.0195" y2="854.0195"/><text fill="#000000" font-family="sans-serif" font-size="13" lengthAdjust="spacing" textLength="87" x="770" y="818.6563">lockAcquired(</text><text fill="#000000" font-family="sans-serif" font-size="13" lengthAdjust="spacing" textLength="248" x="778" y="833.9668">encodedCalls: 0x00000000..00000000)</text><text fill="#000000" font-family="sans-serif" font-size="13" lengthAdjust="spacing" textLength="70" x="770" y="849.2773">72,563 gas</text><polygon fill="#181818" points="1401.5,940.5723,1411.5,944.5723,1401.5,948.5723,1405.5,944.5723" style="stroke:#181818;stroke-width:1.0;"/><line style="stroke:#181818;stroke-width:1.0;" x1="753" x2="1407.5" y1="944.5723" y2="944.5723"/><text fill="#000000" font-family="sans-serif" font-size="13" lengthAdjust="spacing" textLength="85" x="760" y="878.5879">transferFrom(</text><text fill="#000000" font-family="sans-serif" font-size="13" lengthAdjust="spacing" textLength="138" x="768" y="893.8984">sender: 0xf39F..2266,</text><text fill="#000000" font-family="sans-serif" font-size="13" lengthAdjust="spacing" textLength="150" x="768" y="909.209">recipient: 0xCf7E..0Fc9,</text><text fill="#000000" font-family="sans-serif" font-size="13" lengthAdjust="spacing" textLength="240" x="768" y="924.5195">amount: 6,,000,000,000,000,000,000)</text><text fill="#000000" font-family="sans-serif" font-size="13" lengthAdjust="spacing" textLength="70" x="760" y="939.8301">18,366 gas</text><polygon fill="#181818" points="764,969.8828,754,973.8828,764,977.8828,760,973.8828" style="stroke:#181818;stroke-width:1.0;"/><line style="stroke:#181818;stroke-width:1.0;stroke-dasharray:2.0,2.0;" x1="758" x2="1417.5" y1="973.8828" y2="973.8828"/><text fill="#000000" font-family="sans-serif" font-size="13" lengthAdjust="spacing" textLength="25" x="770" y="969.1406">true</text><polygon fill="#181818" points="1021,1060.4355,1031,1064.4355,1021,1068.4355,1025,1064.4355" style="stroke:#181818;stroke-width:1.0;"/><line style="stroke:#181818;stroke-width:1.0;" x1="753" x2="1027" y1="1064.4355" y2="1064.4355"/><text fill="#000000" font-family="sans-serif" font-size="13" lengthAdjust="spacing" textLength="33" x="760" y="998.4512">mint(</text><text fill="#000000" font-family="sans-serif" font-size="13" lengthAdjust="spacing" textLength="148" x="768" y="1013.7617">currency: 0x9fE4..a6e0,</text><text fill="#000000" font-family="sans-serif" font-size="13" lengthAdjust="spacing" textLength="109" x="768" y="1029.0723">to: 0xf39F..2266,</text><text fill="#000000" font-family="sans-serif" font-size="13" lengthAdjust="spacing" textLength="240" x="768" y="1044.3828">amount: 6,,000,000,000,000,000,000)</text><text fill="#000000" font-family="sans-serif" font-size="13" lengthAdjust="spacing" textLength="70" x="760" y="1059.6934">50,441 gas</text><polygon fill="#181818" points="764,1074.4355,754,1078.4355,764,1082.4355,760,1078.4355" style="stroke:#181818;stroke-width:1.0;"/><line style="stroke:#181818;stroke-width:1.0;stroke-dasharray:2.0,2.0;" x1="758" x2="1027" y1="1078.4355" y2="1078.4355"/><polygon fill="#181818" points="1021,1134.3672,1031,1138.3672,1021,1142.3672,1025,1138.3672" style="stroke:#181818;stroke-width:1.0;"/><line style="stroke:#181818;stroke-width:1.0;" x1="753" x2="1027" y1="1138.3672" y2="1138.3672"/><text fill="#000000" font-family="sans-serif" font-size="13" lengthAdjust="spacing" textLength="39" x="760" y="1103.0039">settle(</text><text fill="#000000" font-family="sans-serif" font-size="13" lengthAdjust="spacing" textLength="148" x="768" y="1118.3145">currency: 0x9fE4..a6e0)</text><text fill="#000000" font-family="sans-serif" font-size="13" lengthAdjust="spacing" textLength="62" x="760" y="1133.625">7,136 gas</text><polygon fill="#181818" points="1401.5,1194.2988,1411.5,1198.2988,1401.5,1202.2988,1405.5,1198.2988" style="stroke:#181818;stroke-width:1.0;"/><line style="stroke:#181818;stroke-width:1.0;" x1="1043" x2="1407.5" y1="1198.2988" y2="1198.2988"/><text fill="#000000" font-family="sans-serif" font-size="13" lengthAdjust="spacing" textLength="67" x="1050" y="1162.9355">balanceOf(</text><text fill="#000000" font-family="sans-serif" font-size="13" lengthAdjust="spacing" textLength="87" x="1058" y="1178.2461">0xCf7E..0Fc9)</text><text fill="#000000" font-family="sans-serif" font-size="13" lengthAdjust="spacing" textLength="50" x="1050" y="1193.5566">566 gas</text><polygon fill="#181818" points="1054,1223.6094,1044,1227.6094,1054,1231.6094,1050,1227.6094" style="stroke:#181818;stroke-width:1.0;"/><line style="stroke:#181818;stroke-width:1.0;stroke-dasharray:2.0,2.0;" x1="1048" x2="1417.5" y1="1227.6094" y2="1227.6094"/><text fill="#000000" font-family="sans-serif" font-size="13" lengthAdjust="spacing" textLength="188" x="1060" y="1222.8672">37,,125,499,066,867,325,885</text><polygon fill="#181818" points="764,1252.9199,754,1256.9199,764,1260.9199,760,1256.9199" style="stroke:#181818;stroke-width:1.0;"/><line style="stroke:#181818;stroke-width:1.0;stroke-dasharray:2.0,2.0;" x1="758" x2="1027" y1="1256.9199" y2="1256.9199"/><text fill="#000000" font-family="sans-serif" font-size="13" lengthAdjust="spacing" textLength="215" x="770" y="1252.1777">paid: 6,,000,000,000,000,000,000</text><path d="M1043,1269.9199 L1043,1309.9199 L1126,1309.9199 L1126,1279.9199 L1116,1269.9199 L1043,1269.9199 " fill="#FEFFDD" style="stroke:#181818;stroke-width:0.5;"/><path d="M1116,1269.9199 L1116,1279.9199 L1126,1279.9199 L1116,1269.9199 " fill="#FEFFDD" style="stroke:#181818;stroke-width:0.5;"/><text fill="#000000" font-family="sans-serif" font-size="13" lengthAdjust="spacing" textLength="4" x="1049" y="1287.4883">&#160;</text><text fill="#000000" font-family="sans-serif" font-size="13" lengthAdjust="spacing" textLength="62" x="1049" y="1302.7988">6,570 gas</text><polygon fill="#181818" points="1016,1332.8516,1026,1336.8516,1016,1340.8516,1020,1336.8516" style="stroke:#181818;stroke-width:1.0;"/><line style="stroke:#181818;stroke-width:1.0;stroke-dasharray:2.0,2.0;" x1="748" x2="1022" y1="1336.8516" y2="1336.8516"/><text fill="#000000" font-family="sans-serif" font-size="13" lengthAdjust="spacing" textLength="150" x="755" y="1332.1094">0x00000000..ec580000</text><polygon fill="#181818" points="759,1362.1621,749,1366.1621,759,1370.1621,755,1366.1621" style="stroke:#181818;stroke-width:1.0;"/><line style="stroke:#181818;stroke-width:1.0;stroke-dasharray:2.0,2.0;" x1="753" x2="1032" y1="1366.1621" y2="1366.1621"/><text fill="#000000" font-family="sans-serif" font-size="13" lengthAdjust="spacing" textLength="194" x="765" y="1361.4199">result: 0x00000000..ec580000</text><path d="M1038,1379.1621 L1038,1419.1621 L1129,1419.1621 L1129,1389.1621 L1119,1379.1621 L1038,1379.1621 " fill="#FEFFDD" style="stroke:#181818;stroke-width:0.5;"/><path d="M1119,1379.1621 L1119,1389.1621 L1129,1389.1621 L1119,1379.1621 " fill="#FEFFDD" style="stroke:#181818;stroke-width:0.5;"/><text fill="#000000" font-family="sans-serif" font-size="13" lengthAdjust="spacing" textLength="4" x="1044" y="1396.7305">&#160;</text><text fill="#000000" font-family="sans-serif" font-size="13" lengthAdjust="spacing" textLength="70" x="1044" y="1412.041">22,657 gas</text><polygon fill="#3471CD" points="395,1488.0254,385,1492.0254,395,1496.0254,391,1492.0254" style="stroke:#3471CD;stroke-width:1.0;"/><line style="stroke:#3471CD;stroke-width:1.0;stroke-dasharray:2.0,2.0;" x1="389" x2="742" y1="1492.0254" y2="1492.0254"/><text fill="#000000" font-family="sans-serif" font-size="13" lengthAdjust="spacing" textLength="55" x="401" y="1441.3516">results: [</text><text fill="#000000" font-family="sans-serif" font-size="13" lengthAdjust="spacing" textLength="172" x="409" y="1456.6621">0: 0x00000000..00000001,</text><text fill="#000000" font-family="sans-serif" font-size="13" lengthAdjust="spacing" textLength="36" x="409" y="1471.9727">1: 0x,</text><text fill="#000000" font-family="sans-serif" font-size="13" lengthAdjust="spacing" textLength="170" x="409" y="1487.2832">2: 0x00000000..ec580000]</text><path d="M748,1505.0254 L748,1545.0254 L839,1545.0254 L839,1515.0254 L829,1505.0254 L748,1505.0254 " fill="#FEFFDD" style="stroke:#181818;stroke-width:0.5;"/><path d="M829,1505.0254 L829,1515.0254 L839,1515.0254 L829,1505.0254 " fill="#FEFFDD" style="stroke:#181818;stroke-width:0.5;"/><text fill="#000000" font-family="sans-serif" font-size="13" lengthAdjust="spacing" textLength="4" x="754" y="1522.5938">&#160;</text><text fill="#000000" font-family="sans-serif" font-size="13" lengthAdjust="spacing" textLength="70" x="754" y="1537.9043">10,801 gas</text><line style="stroke:#181818;stroke-width:1.0;" x1="385" x2="395" y1="1556.6465" y2="1552.6465"/><line style="stroke:#181818;stroke-width:1.0;" x1="385" x2="395" y1="1556.6465" y2="1560.6465"/><line style="stroke:#181818;stroke-width:1.0;stroke-dasharray:2.0,2.0;" x1="384" x2="558.5" y1="1556.6465" y2="1556.6465"/><path d="M564,1569.6465 L564,1609.6465 L647,1609.6465 L647,1579.6465 L637,1569.6465 L564,1569.6465 " fill="#FEFFDD" style="stroke:#181818;stroke-width:0.5;"/><path d="M637,1569.6465 L637,1579.6465 L647,1579.6465 L637,1569.6465 " fill="#FEFFDD" style="stroke:#181818;stroke-width:0.5;"/><text fill="#000000" font-family="sans-serif" font-size="13" lengthAdjust="spacing" textLength="4" x="570" y="1587.2148">&#160;</text><text fill="#000000" font-family="sans-serif" font-size="13" lengthAdjust="spacing" textLength="62" x="570" y="1602.5254">8,935 gas</text><polygon fill="#181818" points="118,1678.5098,108,1682.5098,118,1686.5098,114,1682.5098" style="stroke:#181818;stroke-width:1.0;"/><line style="stroke:#181818;stroke-width:1.0;stroke-dasharray:2.0,2.0;" x1="112" x2="378" y1="1682.5098" y2="1682.5098"/><text fill="#000000" font-family="sans-serif" font-size="13" lengthAdjust="spacing" textLength="55" x="124" y="1631.8359">results: [</text><text fill="#000000" font-family="sans-serif" font-size="13" lengthAdjust="spacing" textLength="172" x="132" y="1647.1465">0: 0x00000000..00000001,</text><text fill="#000000" font-family="sans-serif" font-size="13" lengthAdjust="spacing" textLength="36" x="132" y="1662.457">1: 0x,</text><text fill="#000000" font-family="sans-serif" font-size="13" lengthAdjust="spacing" textLength="170" x="132" y="1677.7676">2: 0x00000000..ec580000]</text><path d="M384,1695.5098 L384,1735.5098 L467,1735.5098 L467,1705.5098 L457,1695.5098 L384,1695.5098 " fill="#FEFFDD" style="stroke:#181818;stroke-width:0.5;"/><path d="M457,1695.5098 L457,1705.5098 L467,1705.5098 L457,1695.5098 " fill="#FEFFDD" style="stroke:#181818;stroke-width:0.5;"/><text fill="#000000" font-family="sans-serif" font-size="13" lengthAdjust="spacing" textLength="4" x="390" y="1713.0781">&#160;</text><text fill="#000000" font-family="sans-serif" font-size="13" lengthAdjust="spacing" textLength="62" x="390" y="1728.3887">5,474 gas</text><path d="M782,1746.1309 L782,1847.1309 L1283,1847.1309 L1283,1756.1309 L1273,1746.1309 L782,1746.1309 " fill="#00FFFF" style="stroke:#181818;stroke-width:0.5;"/><path d="M1273,1746.1309 L1273,1756.1309 L1283,1756.1309 L1273,1746.1309 " fill="#00FFFF" style="stroke:#181818;stroke-width:0.5;"/><text fill="#000000" font-family="sans-serif" font-size="13" lengthAdjust="spacing" textLength="94" x="788" y="1763.6992">TransferSingle:</text><text fill="#000000" font-family="sans-serif" font-size="13" lengthAdjust="spacing" textLength="154" x="796" y="1779.0098">operator: 0xDc64..F6C9,</text><text fill="#000000" font-family="sans-serif" font-size="13" lengthAdjust="spacing" textLength="130" x="796" y="1794.3203">from: 0x0000..0000,</text><text fill="#000000" font-family="sans-serif" font-size="13" lengthAdjust="spacing" textLength="109" x="796" y="1809.6309">to: 0xf39F..2266,</text><text fill="#000000" font-family="sans-serif" font-size="13" lengthAdjust="spacing" textLength="472" x="796" y="1824.9414">id: 912,823,093,544,680,850,579,175,995,568,,783,282,090,442,467,040,</text><text fill="#000000" font-family="sans-serif" font-size="13" lengthAdjust="spacing" textLength="221" x="796" y="1840.252">value: 6,,000,000,000,000,000,000</text><path d="M1293,1746.1309 L1293,1817.1309 L1543,1817.1309 L1543,1756.1309 L1533,1746.1309 L1293,1746.1309 " fill="#00FFFF" style="stroke:#181818;stroke-width:0.5;"/><path d="M1533,1746.1309 L1533,1756.1309 L1543,1756.1309 L1533,1746.1309 " fill="#00FFFF" style="stroke:#181818;stroke-width:0.5;"/><text fill="#000000" font-family="sans-serif" font-size="13" lengthAdjust="spacing" textLength="56" x="1299" y="1763.6992">Transfer:</text><text fill="#000000" font-family="sans-serif" font-size="13" lengthAdjust="spacing" textLength="126" x="1307" y="1779.0098">from: 0xf39F..2266,</text><text fill="#000000" font-family="sans-serif" font-size="13" lengthAdjust="spacing" textLength="108" x="1307" y="1794.3203">to: 0xCf7E..0Fc9,</text><text fill="#000000" font-family="sans-serif" font-size="13" lengthAdjust="spacing" textLength="221" x="1307" y="1809.6309">value: 6,,000,000,000,000,000,000</text><!--SRC=[lLRVRzis47xNNq4qBnt0Q1GbKZyG6DWS9tjejg9rzzBuWQOeJwX3kXITDl_zZh8aA_wHPSDG0GPyH_AxZtVVdUHgjrReawwRRsA37XDqYQxLnZIr2m8fDgus6ccZ5KRBjP5V4CFepcYCeWnzL1j42OqHfGKZ1MNezcuU2EcCHM_8zohEgp2abFCtI3J8czv0mKPOLyjw8xJp-rWbip1aAKdRVTxq1hgwwbZzcKp5UgtiP79yT5c68H4YxeukIs-CZtumMwViktffXNqwHYWbJyAmuZ9l4RpfZME4uwEoIXK4hxgZtlJ6_gZFvjHODPbSNRqtPdqdj5YTGieh1IG4LwH5ygOt0CcPBqeJ3p1NZPjzc58mWa0Rfv1vL7R8Ql2xqL8LAEB1BK2yjxMtuf2pBCefYIDq-qtLmPtuZcuKhB2Gx3smszZQFVa3dTk3lAiVQWUGUOG9orlNfqQLu8ap7DCac7TW92GaGhFvRu7I9VBaWc0ez-LaA6c1ofsqtjvhXDgxmM6u_goxFlR-1a2KzGk0SRDJKBjW5QIiLjgTM1CFPkiNECQ4a5E_d-vrH0bEOe9Mel4ohHy5fB4d5mp2kvnC1YdvK399Ofva4W2Y1EUC7m9qghl8I3wR_Ze2-dmH9saqlLvC1cKLQ6EDL4tJva22i9i2VVR_4IB3FyYEi2lbJgJ7F_xO_6a3gHzSLZNRjGEiIgmRDRWVnNhhApGuIk64HwNnCajf2UsZ9CiWFsJHxObEifXMwGpKVYFp_vE5v39UBXK_Pa5_80ikAEDBceTXBDFAPtgny78X71CQFQzsNyTW61KWyBxt2-HdP5lP7fjq3x3k7a3E6QRqG8SzHZ0CaiknQZpmB_BhjhQgR0CeBKsfokbEGMS2fHGp7h_Y1ltCAP2pGZULiZVMFBnzVJyULEPr_GXZX1zqKqyaiCfjhGOwMtKcrm-rtaqIkRKMql5qebkS-Q_3Wi6iIA8pDUh8dI7MA0SlrHUe-ShWAEQlKC2-C4kn5Z3Z_wXQu776FTj_ocESOXnHXfCynmJoaF4KPZZ3MSRwBHjHboybPVVQiVNgBuTCDRhllUOO1bvBeCCQwx5lxNvjrvx5wJtdOr2AEKl7GOO-RoS5ETa5KLlnoA-r_-Zfk8k3mFl6ytC0PoGQ1pxOl7zPtEiCvp7xGIJtxrKG04xIf8qx-ZeOX7GXlcv5CEzQ-sEjLsjL10YPZR82ljTylElsK-Y6JtCCAnMqVyzYnzDxZze9V5uqUKHnHcDCyXYp9C4yWvn11x4qnr7AS0uJZ_4CupIBCSqeRFJjHN42CYH9YzsDvnVqj_-w-1djBpbyBZs_P36wn7F2kqkC1jQ_2_ut]--></g></svg>