<?xml version="1.0" encoding="us-ascii" standalone="no"?><svg xmlns="http://www.w3.org/2000/svg" xmlns:xlink="http://www.w3.org/1999/xlink" contentStyleType="text/css" height="1409px" preserveAspectRatio="none" style="width:852px;height:1409px;background:#FFFFFF;" version="1.1" viewBox="0 0 852 1409" width="852px" zoomAndPan="magnify"><defs/><g><text fill="#000000" font-family="sans-serif" font-size="14" font-weight="bold" lengthAdjust="spacing" textLength="578" x="136" y="28.5352">0xb89adc24b12077a794a25c1012a0e993950551521b253f2087847d9e0b291e7a</text><text fill="#000000" font-family="sans-serif" font-size="14" lengthAdjust="spacing" textLength="318" x="266" y="1397.459">none, block 4, Fri, 25 Aug 2023 01:52:30 GMT</text><rect fill="#FFFFFF" height="995.6641" style="stroke:#181818;stroke-width:1.0;" width="10" x="200" y="180.9082"/><rect fill="#FFFFFF" height="847.8008" style="stroke:#181818;stroke-width:1.0;" width="10" x="205" y="270.1504"/><rect fill="#FFFFFF" height="921.7324" style="stroke:#181818;stroke-width:1.0;" width="10" x="363" y="225.5293"/><rect fill="#FFFFFF" height="253.7266" style="stroke:#181818;stroke-width:1.0;" width="10" x="368" y="330.082"/><rect fill="#FFFFFF" height="103.2422" style="stroke:#181818;stroke-width:1.0;" width="10" x="368" y="732.9824"/><rect fill="#FFFFFF" height="103.2422" style="stroke:#181818;stroke-width:1.0;" width="10" x="368" y="985.3984"/><rect fill="#FFFFFF" height="29.3105" style="stroke:#181818;stroke-width:1.0;" width="10" x="535" y="405.3242"/><rect fill="#FFFFFF" height="29.3105" style="stroke:#181818;stroke-width:1.0;" width="10" x="535" y="525.1875"/><rect fill="#FFFFFF" height="29.3105" style="stroke:#181818;stroke-width:1.0;" width="10" x="671" y="659.0508"/><rect fill="#FFFFFF" height="29.3105" style="stroke:#181818;stroke-width:1.0;" width="10" x="671" y="777.6035"/><rect fill="#FFFFFF" height="29.3105" style="stroke:#181818;stroke-width:1.0;" width="10" x="787.5" y="911.4668"/><rect fill="#FFFFFF" height="29.3105" style="stroke:#181818;stroke-width:1.0;" width="10" x="787.5" y="1030.0195"/><line style="stroke:#181818;stroke-width:0.5;stroke-dasharray:5.0,5.0;" x1="53" x2="53" y1="118.9766" y2="1306.4355"/><line style="stroke:#181818;stroke-width:0.5;stroke-dasharray:5.0,5.0;" x1="205" x2="205" y1="118.9766" y2="1306.4355"/><line style="stroke:#181818;stroke-width:0.5;stroke-dasharray:5.0,5.0;" x1="368" x2="368" y1="118.9766" y2="1306.4355"/><line style="stroke:#181818;stroke-width:0.5;stroke-dasharray:5.0,5.0;" x1="540" x2="540" y1="118.9766" y2="1306.4355"/><line style="stroke:#181818;stroke-width:0.5;stroke-dasharray:5.0,5.0;" x1="676" x2="676" y1="118.9766" y2="1306.4355"/><line style="stroke:#181818;stroke-width:0.5;stroke-dasharray:5.0,5.0;" x1="792" x2="792" y1="118.9766" y2="1306.4355"/><text fill="#000000" font-family="sans-serif" font-size="14" lengthAdjust="spacing" textLength="90" x="5" y="116.0234">0xf39f..2266</text><ellipse cx="53" cy="50.9883" fill="#E2E2F0" rx="8" ry="8" style="stroke:#181818;stroke-width:0.5;"/><path d="M53,58.9883 L53,85.9883 M40,66.9883 L66,66.9883 M53,85.9883 L40,100.9883 M53,85.9883 L66,100.9883 " fill="none" style="stroke:#181818;stroke-width:0.5;"/><text fill="#000000" font-family="sans-serif" font-size="14" lengthAdjust="spacing" textLength="90" x="5" y="1318.9707">0xf39f..2266</text><ellipse cx="53" cy="1330.4238" fill="#E2E2F0" rx="8" ry="8" style="stroke:#181818;stroke-width:0.5;"/><path d="M53,1338.4238 L53,1365.4238 M40,1346.4238 L66,1346.4238 M53,1365.4238 L40,1380.4238 M53,1365.4238 L66,1380.4238 " fill="none" style="stroke:#181818;stroke-width:0.5;"/><rect fill="#E2E2F0" height="46.9766" rx="2.5" ry="2.5" style="stroke:#181818;stroke-width:0.5;" width="188" x="111" y="71"/><text fill="#000000" font-family="sans-serif" font-size="14" font-style="italic" lengthAdjust="spacing" textLength="174" x="118" y="91.5352">&#171;PoolModifyPositionTest&#187;</text><text fill="#000000" font-family="sans-serif" font-size="14" lengthAdjust="spacing" textLength="85" x="162.5" y="108.0234">0xcf7e..0fc9</text><rect fill="#E2E2F0" height="46.9766" rx="2.5" ry="2.5" style="stroke:#181818;stroke-width:0.5;" width="188" x="111" y="1305.4355"/><text fill="#000000" font-family="sans-serif" font-size="14" font-style="italic" lengthAdjust="spacing" textLength="174" x="118" y="1325.9707">&#171;PoolModifyPositionTest&#187;</text><text fill="#000000" font-family="sans-serif" font-size="14" lengthAdjust="spacing" textLength="85" x="162.5" y="1342.459">0xcf7e..0fc9</text><rect fill="#E2E2F0" height="46.9766" rx="2.5" ry="2.5" style="stroke:#181818;stroke-width:0.5;" width="118" x="309" y="71"/><text fill="#000000" font-family="sans-serif" font-size="14" font-style="italic" lengthAdjust="spacing" textLength="104" x="316" y="91.5352">&#171;PoolManager&#187;</text><text fill="#000000" font-family="sans-serif" font-size="14" lengthAdjust="spacing" textLength="91" x="322.5" y="108.0234">0x9fe4..a6e0</text><rect fill="#E2E2F0" height="46.9766" rx="2.5" ry="2.5" style="stroke:#181818;stroke-width:0.5;" width="118" x="309" y="1305.4355"/><text fill="#000000" font-family="sans-serif" font-size="14" font-style="italic" lengthAdjust="spacing" textLength="104" x="316" y="1325.9707">&#171;PoolManager&#187;</text><text fill="#000000" font-family="sans-serif" font-size="14" lengthAdjust="spacing" textLength="91" x="322.5" y="1342.459">0x9fe4..a6e0</text><rect fill="#E2E2F0" height="46.9766" rx="2.5" ry="2.5" style="stroke:#181818;stroke-width:0.5;" width="146" x="467" y="71"/><text fill="#000000" font-family="sans-serif" font-size="14" font-style="italic" lengthAdjust="spacing" textLength="132" x="474" y="91.5352">&#171;DynamicFeeHook&#187;</text><text fill="#000000" font-family="sans-serif" font-size="14" lengthAdjust="spacing" textLength="85" x="497.5" y="108.0234">0x3cfe..9fee</text><rect fill="#E2E2F0" height="46.9766" rx="2.5" ry="2.5" style="stroke:#181818;stroke-width:0.5;" width="146" x="467" y="1305.4355"/><text fill="#000000" font-family="sans-serif" font-size="14" font-style="italic" lengthAdjust="spacing" textLength="132" x="474" y="1325.9707">&#171;DynamicFeeHook&#187;</text><text fill="#000000" font-family="sans-serif" font-size="14" lengthAdjust="spacing" textLength="85" x="497.5" y="1342.459">0x3cfe..9fee</text><rect fill="#E2E2F0" height="46.9766" rx="2.5" ry="2.5" style="stroke:#181818;stroke-width:0.5;" width="106" x="623" y="71"/><text fill="#000000" font-family="sans-serif" font-size="14" font-style="italic" lengthAdjust="spacing" textLength="88" x="632" y="91.5352">&#171;TestERC20&#187;</text><text fill="#000000" font-family="sans-serif" font-size="14" lengthAdjust="spacing" textLength="92" x="630" y="108.0234">0x5fbd..0aa3</text><rect fill="#E2E2F0" height="46.9766" rx="2.5" ry="2.5" style="stroke:#181818;stroke-width:0.5;" width="106" x="623" y="1305.4355"/><text fill="#000000" font-family="sans-serif" font-size="14" font-style="italic" lengthAdjust="spacing" textLength="88" x="632" y="1325.9707">&#171;TestERC20&#187;</text><text fill="#000000" font-family="sans-serif" font-size="14" lengthAdjust="spacing" textLength="92" x="630" y="1342.459">0x5fbd..0aa3</text><rect fill="#E2E2F0" height="46.9766" rx="2.5" ry="2.5" style="stroke:#181818;stroke-width:0.5;" width="107" x="739" y="71"/><text fill="#000000" font-family="sans-serif" font-size="14" font-style="italic" lengthAdjust="spacing" textLength="88" x="748.5" y="91.5352">&#171;TestERC20&#187;</text><text fill="#000000" font-family="sans-serif" font-size="14" lengthAdjust="spacing" textLength="93" x="746" y="108.0234">0xe7f1..0512</text><rect fill="#E2E2F0" height="46.9766" rx="2.5" ry="2.5" style="stroke:#181818;stroke-width:0.5;" width="107" x="739" y="1305.4355"/><text fill="#000000" font-family="sans-serif" font-size="14" font-style="italic" lengthAdjust="spacing" textLength="88" x="748.5" y="1325.9707">&#171;TestERC20&#187;</text><text fill="#000000" font-family="sans-serif" font-size="14" lengthAdjust="spacing" textLength="93" x="746" y="1342.459">0xe7f1..0512</text><rect fill="#FFFFFF" height="995.6641" style="stroke:#181818;stroke-width:1.0;" width="10" x="200" y="180.9082"/><rect fill="#FFFFFF" height="847.8008" style="stroke:#181818;stroke-width:1.0;" width="10" x="205" y="270.1504"/><rect fill="#FFFFFF" height="921.7324" style="stroke:#181818;stroke-width:1.0;" width="10" x="363" y="225.5293"/><rect fill="#FFFFFF" height="253.7266" style="stroke:#181818;stroke-width:1.0;" width="10" x="368" y="330.082"/><rect fill="#FFFFFF" height="103.2422" style="stroke:#181818;stroke-width:1.0;" width="10" x="368" y="732.9824"/><rect fill="#FFFFFF" height="103.2422" style="stroke:#181818;stroke-width:1.0;" width="10" x="368" y="985.3984"/><rect fill="#FFFFFF" height="29.3105" style="stroke:#181818;stroke-width:1.0;" width="10" x="535" y="405.3242"/><rect fill="#FFFFFF" height="29.3105" style="stroke:#181818;stroke-width:1.0;" width="10" x="535" y="525.1875"/><rect fill="#FFFFFF" height="29.3105" style="stroke:#181818;stroke-width:1.0;" width="10" x="671" y="659.0508"/><rect fill="#FFFFFF" height="29.3105" style="stroke:#181818;stroke-width:1.0;" width="10" x="671" y="777.6035"/><rect fill="#FFFFFF" height="29.3105" style="stroke:#181818;stroke-width:1.0;" width="10" x="787.5" y="911.4668"/><rect fill="#FFFFFF" height="29.3105" style="stroke:#181818;stroke-width:1.0;" width="10" x="787.5" y="1030.0195"/><polygon fill="#181818" points="188,176.9082,198,180.9082,188,184.9082,192,180.9082" style="stroke:#181818;stroke-width:1.0;"/><line style="stroke:#181818;stroke-width:1.0;" x1="53" x2="194" y1="180.9082" y2="180.9082"/><text fill="#000000" font-family="sans-serif" font-size="13" lengthAdjust="spacing" textLength="99" x="60" y="145.5449">modifyPosition(</text><text fill="#000000" font-family="sans-serif" font-size="13" lengthAdjust="spacing" textLength="26" x="68" y="160.8555">key,</text><text fill="#000000" font-family="sans-serif" font-size="13" lengthAdjust="spacing" textLength="50" x="68" y="176.166">params)</text><polygon fill="#181818" points="351,221.5293,361,225.5293,351,229.5293,355,225.5293" style="stroke:#181818;stroke-width:1.0;"/><line style="stroke:#181818;stroke-width:1.0;" x1="210" x2="357" y1="225.5293" y2="225.5293"/><text fill="#000000" font-family="sans-serif" font-size="13" lengthAdjust="spacing" textLength="31" x="217" y="205.4766">lock(</text><text fill="#000000" font-family="sans-serif" font-size="13" lengthAdjust="spacing" textLength="31" x="225" y="220.7871">data)</text><polygon fill="#181818" points="226,266.1504,216,270.1504,226,274.1504,222,270.1504" style="stroke:#181818;stroke-width:1.0;"/><line style="stroke:#181818;stroke-width:1.0;" x1="220" x2="362" y1="270.1504" y2="270.1504"/><text fill="#000000" font-family="sans-serif" font-size="13" lengthAdjust="spacing" textLength="87" x="232" y="250.0977">lockAcquired(</text><text fill="#000000" font-family="sans-serif" font-size="13" lengthAdjust="spacing" textLength="55" x="240" y="265.4082">rawData)</text><polygon fill="#181818" points="356,326.082,366,330.082,356,334.082,360,330.082" style="stroke:#181818;stroke-width:1.0;"/><line style="stroke:#181818;stroke-width:1.0;" x1="215" x2="362" y1="330.082" y2="330.082"/><text fill="#000000" font-family="sans-serif" font-size="13" lengthAdjust="spacing" textLength="99" x="222" y="294.7188">modifyPosition(</text><text fill="#000000" font-family="sans-serif" font-size="13" lengthAdjust="spacing" textLength="26" x="230" y="310.0293">key,</text><text fill="#000000" font-family="sans-serif" font-size="13" lengthAdjust="spacing" textLength="50" x="230" y="325.3398">params)</text><polygon fill="#181818" points="523,401.3242,533,405.3242,523,409.3242,527,405.3242" style="stroke:#181818;stroke-width:1.0;"/><line style="stroke:#181818;stroke-width:1.0;" x1="378" x2="529" y1="405.3242" y2="405.3242"/><text fill="#000000" font-family="sans-serif" font-size="13" lengthAdjust="spacing" textLength="138" x="385" y="354.6504">beforeModifyPosition(</text><text fill="#000000" font-family="sans-serif" font-size="13" lengthAdjust="spacing" textLength="46" x="393" y="369.9609">sender,</text><text fill="#000000" font-family="sans-serif" font-size="13" lengthAdjust="spacing" textLength="26" x="393" y="385.2715">key,</text><text fill="#000000" font-family="sans-serif" font-size="13" lengthAdjust="spacing" textLength="50" x="393" y="400.582">params)</text><polygon fill="#181818" points="389,430.6348,379,434.6348,389,438.6348,385,434.6348" style="stroke:#181818;stroke-width:1.0;"/><line style="stroke:#181818;stroke-width:1.0;stroke-dasharray:2.0,2.0;" x1="383" x2="539" y1="434.6348" y2="434.6348"/><text fill="#000000" font-family="sans-serif" font-size="13" lengthAdjust="spacing" textLength="50" x="395" y="429.8926">selector</text><polygon fill="#181818" points="523,521.1875,533,525.1875,523,529.1875,527,525.1875" style="stroke:#181818;stroke-width:1.0;"/><line style="stroke:#181818;stroke-width:1.0;" x1="378" x2="529" y1="525.1875" y2="525.1875"/><text fill="#000000" font-family="sans-serif" font-size="13" lengthAdjust="spacing" textLength="127" x="385" y="459.2031">afterModifyPosition(</text><text fill="#000000" font-family="sans-serif" font-size="13" lengthAdjust="spacing" textLength="46" x="393" y="474.5137">sender,</text><text fill="#000000" font-family="sans-serif" font-size="13" lengthAdjust="spacing" textLength="26" x="393" y="489.8242">key,</text><text fill="#000000" font-family="sans-serif" font-size="13" lengthAdjust="spacing" textLength="50" x="393" y="505.1348">params,</text><text fill="#000000" font-family="sans-serif" font-size="13" lengthAdjust="spacing" textLength="35" x="393" y="520.4453">delta)</text><polygon fill="#181818" points="389,550.498,379,554.498,389,558.498,385,554.498" style="stroke:#181818;stroke-width:1.0;"/><line style="stroke:#181818;stroke-width:1.0;stroke-dasharray:2.0,2.0;" x1="383" x2="539" y1="554.498" y2="554.498"/><text fill="#000000" font-family="sans-serif" font-size="13" lengthAdjust="spacing" textLength="50" x="395" y="549.7559">selector</text><polygon fill="#181818" points="226,579.8086,216,583.8086,226,587.8086,222,583.8086" style="stroke:#181818;stroke-width:1.0;"/><line style="stroke:#181818;stroke-width:1.0;stroke-dasharray:2.0,2.0;" x1="220" x2="362" y1="583.8086" y2="583.8086"/><text fill="#000000" font-family="sans-serif" font-size="13" lengthAdjust="spacing" textLength="31" x="232" y="579.0664">delta</text><polygon fill="#181818" points="659,655.0508,669,659.0508,659,663.0508,663,659.0508" style="stroke:#181818;stroke-width:1.0;"/><line style="stroke:#181818;stroke-width:1.0;" x1="215" x2="665" y1="659.0508" y2="659.0508"/><text fill="#000000" font-family="sans-serif" font-size="13" lengthAdjust="spacing" textLength="85" x="222" y="608.377">transferFrom(</text><text fill="#000000" font-family="sans-serif" font-size="13" lengthAdjust="spacing" textLength="46" x="230" y="623.6875">sender,</text><text fill="#000000" font-family="sans-serif" font-size="13" lengthAdjust="spacing" textLength="59" x="230" y="638.998">recipient,</text><text fill="#000000" font-family="sans-serif" font-size="13" lengthAdjust="spacing" textLength="52" x="230" y="654.3086">amount)</text><polygon fill="#181818" points="226,684.3613,216,688.3613,226,692.3613,222,688.3613" style="stroke:#181818;stroke-width:1.0;"/><line style="stroke:#181818;stroke-width:1.0;stroke-dasharray:2.0,2.0;" x1="220" x2="675" y1="688.3613" y2="688.3613"/><text fill="#000000" font-family="sans-serif" font-size="13" lengthAdjust="spacing" textLength="5" x="232" y="683.6191">?</text><polygon fill="#181818" points="356,728.9824,366,732.9824,356,736.9824,360,732.9824" style="stroke:#181818;stroke-width:1.0;"/><line style="stroke:#181818;stroke-width:1.0;" x1="215" x2="362" y1="732.9824" y2="732.9824"/><text fill="#000000" font-family="sans-serif" font-size="13" lengthAdjust="spacing" textLength="39" x="222" y="712.9297">settle(</text><text fill="#000000" font-family="sans-serif" font-size="13" lengthAdjust="spacing" textLength="58" x="230" y="728.2402">currency)</text><polygon fill="#181818" points="659,773.6035,669,777.6035,659,781.6035,663,777.6035" style="stroke:#181818;stroke-width:1.0;"/><line style="stroke:#181818;stroke-width:1.0;" x1="378" x2="665" y1="777.6035" y2="777.6035"/><text fill="#000000" font-family="sans-serif" font-size="13" lengthAdjust="spacing" textLength="67" x="385" y="757.5508">balanceOf(</text><text fill="#000000" font-family="sans-serif" font-size="13" lengthAdjust="spacing" textLength="9" x="393" y="772.8613">?)</text><polygon fill="#181818" points="389,802.9141,379,806.9141,389,810.9141,385,806.9141" style="stroke:#181818;stroke-width:1.0;"/><line style="stroke:#181818;stroke-width:1.0;stroke-dasharray:2.0,2.0;" x1="383" x2="675" y1="806.9141" y2="806.9141"/><text fill="#000000" font-family="sans-serif" font-size="13" lengthAdjust="spacing" textLength="5" x="395" y="802.1719">?</text><polygon fill="#181818" points="226,832.2246,216,836.2246,226,840.2246,222,836.2246" style="stroke:#181818;stroke-width:1.0;"/><line style="stroke:#181818;stroke-width:1.0;stroke-dasharray:2.0,2.0;" x1="220" x2="362" y1="836.2246" y2="836.2246"/><text fill="#000000" font-family="sans-serif" font-size="13" lengthAdjust="spacing" textLength="27" x="232" y="831.4824">paid</text><polygon fill="#181818" points="775.5,907.4668,785.5,911.4668,775.5,915.4668,779.5,911.4668" style="stroke:#181818;stroke-width:1.0;"/><line style="stroke:#181818;stroke-width:1.0;" x1="215" x2="781.5" y1="911.4668" y2="911.4668"/><text fill="#000000" font-family="sans-serif" font-size="13" lengthAdjust="spacing" textLength="85" x="222" y="860.793">transferFrom(</text><text fill="#000000" font-family="sans-serif" font-size="13" lengthAdjust="spacing" textLength="46" x="230" y="876.1035">sender,</text><text fill="#000000" font-family="sans-serif" font-size="13" lengthAdjust="spacing" textLength="59" x="230" y="891.4141">recipient,</text><text fill="#000000" font-family="sans-serif" font-size="13" lengthAdjust="spacing" textLength="52" x="230" y="906.7246">amount)</text><polygon fill="#181818" points="226,936.7773,216,940.7773,226,944.7773,222,940.7773" style="stroke:#181818;stroke-width:1.0;"/><line style="stroke:#181818;stroke-width:1.0;stroke-dasharray:2.0,2.0;" x1="220" x2="791.5" y1="940.7773" y2="940.7773"/><text fill="#000000" font-family="sans-serif" font-size="13" lengthAdjust="spacing" textLength="5" x="232" y="936.0352">?</text><polygon fill="#181818" points="356,981.3984,366,985.3984,356,989.3984,360,985.3984" style="stroke:#181818;stroke-width:1.0;"/><line style="stroke:#181818;stroke-width:1.0;" x1="215" x2="362" y1="985.3984" y2="985.3984"/><text fill="#000000" font-family="sans-serif" font-size="13" lengthAdjust="spacing" textLength="39" x="222" y="965.3457">settle(</text><text fill="#000000" font-family="sans-serif" font-size="13" lengthAdjust="spacing" textLength="58" x="230" y="980.6563">currency)</text><polygon fill="#181818" points="775.5,1026.0195,785.5,1030.0195,775.5,1034.0195,779.5,1030.0195" style="stroke:#181818;stroke-width:1.0;"/><line style="stroke:#181818;stroke-width:1.0;" x1="378" x2="781.5" y1="1030.0195" y2="1030.0195"/><text fill="#000000" font-family="sans-serif" font-size="13" lengthAdjust="spacing" textLength="67" x="385" y="1009.9668">balanceOf(</text><text fill="#000000" font-family="sans-serif" font-size="13" lengthAdjust="spacing" textLength="9" x="393" y="1025.2773">?)</text><polygon fill="#181818" points="389,1055.3301,379,1059.3301,389,1063.3301,385,1059.3301" style="stroke:#181818;stroke-width:1.0;"/><line style="stroke:#181818;stroke-width:1.0;stroke-dasharray:2.0,2.0;" x1="383" x2="791.5" y1="1059.3301" y2="1059.3301"/><text fill="#000000" font-family="sans-serif" font-size="13" lengthAdjust="spacing" textLength="5" x="395" y="1054.5879">?</text><polygon fill="#181818" points="226,1084.6406,216,1088.6406,226,1092.6406,222,1088.6406" style="stroke:#181818;stroke-width:1.0;"/><line style="stroke:#181818;stroke-width:1.0;stroke-dasharray:2.0,2.0;" x1="220" x2="362" y1="1088.6406" y2="1088.6406"/><text fill="#000000" font-family="sans-serif" font-size="13" lengthAdjust="spacing" textLength="27" x="232" y="1083.8984">paid</text><polygon fill="#181818" points="351,1113.9512,361,1117.9512,351,1121.9512,355,1117.9512" style="stroke:#181818;stroke-width:1.0;"/><line style="stroke:#181818;stroke-width:1.0;stroke-dasharray:2.0,2.0;" x1="210" x2="357" y1="1117.9512" y2="1117.9512"/><text fill="#000000" font-family="sans-serif" font-size="13" lengthAdjust="spacing" textLength="5" x="217" y="1113.209">?</text><polygon fill="#181818" points="221,1143.2617,211,1147.2617,221,1151.2617,217,1147.2617" style="stroke:#181818;stroke-width:1.0;"/><line style="stroke:#181818;stroke-width:1.0;stroke-dasharray:2.0,2.0;" x1="215" x2="367" y1="1147.2617" y2="1147.2617"/><text fill="#000000" font-family="sans-serif" font-size="13" lengthAdjust="spacing" textLength="36" x="227" y="1142.5195">result</text><polygon fill="#181818" points="64,1172.5723,54,1176.5723,64,1180.5723,60,1176.5723" style="stroke:#181818;stroke-width:1.0;"/><line style="stroke:#181818;stroke-width:1.0;stroke-dasharray:2.0,2.0;" x1="58" x2="204" y1="1176.5723" y2="1176.5723"/><text fill="#000000" font-family="sans-serif" font-size="13" lengthAdjust="spacing" textLength="31" x="70" y="1171.8301">delta</text><path d="M308,1189.5723 L308,1290.5723 L427,1290.5723 L427,1199.5723 L417,1189.5723 L308,1189.5723 " fill="#00FFFF" style="stroke:#181818;stroke-width:0.5;"/><path d="M417,1189.5723 L417,1199.5723 L427,1199.5723 L417,1189.5723 " fill="#00FFFF" style="stroke:#181818;stroke-width:0.5;"/><text fill="#000000" font-family="sans-serif" font-size="13" lengthAdjust="spacing" textLength="98" x="314" y="1207.1406">ModifyPosition:</text><text fill="#000000" font-family="sans-serif" font-size="13" lengthAdjust="spacing" textLength="16" x="322" y="1222.4512">id,</text><text fill="#000000" font-family="sans-serif" font-size="13" lengthAdjust="spacing" textLength="46" x="322" y="1237.7617">sender,</text><text fill="#000000" font-family="sans-serif" font-size="13" lengthAdjust="spacing" textLength="65" x="322" y="1253.0723">tickLower,</text><text fill="#000000" font-family="sans-serif" font-size="13" lengthAdjust="spacing" textLength="65" x="322" y="1268.3828">tickUpper,</text><text fill="#000000" font-family="sans-serif" font-size="13" lengthAdjust="spacing" textLength="85" x="322" y="1283.6934">liquidityDelta</text><path d="M637,1189.5723 L637,1260.5723 L714,1260.5723 L714,1199.5723 L704,1189.5723 L637,1189.5723 " fill="#00FFFF" style="stroke:#181818;stroke-width:0.5;"/><path d="M704,1189.5723 L704,1199.5723 L714,1199.5723 L704,1189.5723 " fill="#00FFFF" style="stroke:#181818;stroke-width:0.5;"/><text fill="#000000" font-family="sans-serif" font-size="13" lengthAdjust="spacing" textLength="56" x="643" y="1207.1406">Transfer:</text><text fill="#000000" font-family="sans-serif" font-size="13" lengthAdjust="spacing" textLength="34" x="651" y="1222.4512">from,</text><text fill="#000000" font-family="sans-serif" font-size="13" lengthAdjust="spacing" textLength="17" x="651" y="1237.7617">to,</text><text fill="#000000" font-family="sans-serif" font-size="13" lengthAdjust="spacing" textLength="33" x="651" y="1253.0723">value</text><path d="M754,1189.5723 L754,1260.5723 L831,1260.5723 L831,1199.5723 L821,1189.5723 L754,1189.5723 " fill="#00FFFF" style="stroke:#181818;stroke-width:0.5;"/><path d="M821,1189.5723 L821,1199.5723 L831,1199.5723 L821,1189.5723 " fill="#00FFFF" style="stroke:#181818;stroke-width:0.5;"/><text fill="#000000" font-family="sans-serif" font-size="13" lengthAdjust="spacing" textLength="56" x="760" y="1207.1406">Transfer:</text><text fill="#000000" font-family="sans-serif" font-size="13" lengthAdjust="spacing" textLength="34" x="768" y="1222.4512">from,</text><text fill="#000000" font-family="sans-serif" font-size="13" lengthAdjust="spacing" textLength="17" x="768" y="1237.7617">to,</text><text fill="#000000" font-family="sans-serif" font-size="13" lengthAdjust="spacing" textLength="33" x="768" y="1253.0723">value</text><!--SRC=[jLHTJzim57tthx3OooPrdUCqX4G8XCRO7eQ6fkvjBpVEDRAQsiLnWFxxsOQaf5r1rRINn2UwvvpxuLodN8EKFLOd1TI2pwg4ipo7l9W1pqJ24WuCYo8jCfPbISQJYcUfvEmaFvdbTO6iuaM2EH0YOEMKqLGRZHDQDKOiw6n2hwoQK9xHY-wMSiPJof8ousNAwDVhEG7XZAL7x56cXPnEEJy-FgBGqW03e6G5rYcXLg1TY1Con-cKIL74k003eAUdDyOqrwPMSdrZMXLIcMFhpiws5Gg9i-aKZf55XG03w1L0motQNLegf3VsqHXf0GRWQPTh3KibhX2_6RFOPMQogdtA06ba1XY0PuO4l_pypDak2NEPU5AMy4WAC80j4XdwzF5iw4L9bwCslF-jALtWUXBUtWQMxOVGU7KF3WSM6LhffVgcb3ICCGhKuE05hOyWG_z66GJQXRZhbCKwqYqyN8uLtZ0-f8Q_9jDFgAGLIcFnUbUmHLsZdRogtSiGYwwpsdCQ39TsZnT8X_OGgtYiiHdrPg_fCuxneyRrjwgape9k9TehQvRRrXRz3LEeNKImD9rsBsnxaTxcVCziMdH-QqHnqLcBMgpVciOclmeQq09_oCW_VzN- -R02LOzIwN-7Vwgs5_aFrMxosr_jhltBQhS_McoxnetdJxJnEkOUxMQBlOEx3iZu0fQ4KbLFoD0SV_AxPl7TF6p0hzNg2JJA_xQrSklBQE8PDFWGyebk_8ObzkGtVvv2S99-4b7KXESzD1tk4HcMse4YVm00]--></g></svg>