<?xml version="1.0" encoding="us-ascii" standalone="no"?><svg xmlns="http://www.w3.org/2000/svg" xmlns:xlink="http://www.w3.org/1999/xlink" contentStyleType="text/css" height="840px" preserveAspectRatio="none" style="width:909px;height:840px;background:#FFFFFF;" version="1.1" viewBox="0 0 909 840" width="909px" zoomAndPan="magnify"><defs/><g><text fill="#000000" font-family="sans-serif" font-size="14" font-weight="bold" lengthAdjust="spacing" textLength="556" x="175.5" y="28.5352">0xb54aa9311e8030b76f6356bd4bf2d1f7cf5fc1f94b98b6dff49bbf701e6e04e0</text><text fill="#000000" font-family="sans-serif" font-size="14" lengthAdjust="spacing" textLength="326" x="290.5" y="828.3477">none, block 4, Tue, 29 Aug 2023 02:56:21 GMT</text><rect fill="#FFFFFF" height="533.7266" style="stroke:#181818;stroke-width:1.0;" width="10" x="169" y="150.2871"/><rect fill="#FFFFFF" height="447.1055" style="stroke:#181818;stroke-width:1.0;" width="10" x="174" y="208.9082"/><rect fill="#FFFFFF" height="490.416" style="stroke:#181818;stroke-width:1.0;" width="10" x="301" y="179.5977"/><rect fill="#FFFFFF" height="143.9316" style="stroke:#181818;stroke-width:1.0;" width="10" x="306" y="238.2188"/><rect fill="#FFFFFF" height="57.3105" style="stroke:#181818;stroke-width:1.0;" width="10" x="306" y="454.7715"/><rect fill="#FFFFFF" height="57.3105" style="stroke:#181818;stroke-width:1.0;" width="10" x="306" y="570.7031"/><rect fill="#FFFFFF" height="14" style="stroke:#181818;stroke-width:1.0;" width="10" x="443" y="267.5293"/><rect fill="#FFFFFF" height="14" style="stroke:#181818;stroke-width:1.0;" width="10" x="443" y="310.8398"/><rect fill="#FFFFFF" height="14" style="stroke:#181818;stroke-width:1.0;" width="10" x="443" y="354.1504"/><rect fill="#FFFFFF" height="14" style="stroke:#181818;stroke-width:1.0;" width="10" x="579" y="411.4609"/><rect fill="#FFFFFF" height="14" style="stroke:#181818;stroke-width:1.0;" width="10" x="579" y="484.082"/><rect fill="#809ECB" height="100.6211" style="stroke:#181818;stroke-width:1.0;" width="10" x="711.5" y="541.3926"/><rect fill="#FFFFFF" height="14" style="stroke:#181818;stroke-width:1.0;" width="10" x="844.5" y="600.0137"/><line style="stroke:#181818;stroke-width:0.5;stroke-dasharray:5.0,5.0;" x1="53" x2="53" y1="118.9766" y2="737.3242"/><line style="stroke:#181818;stroke-width:0.5;stroke-dasharray:5.0,5.0;" x1="174" x2="174" y1="118.9766" y2="737.3242"/><line style="stroke:#181818;stroke-width:0.5;stroke-dasharray:5.0,5.0;" x1="306" x2="306" y1="118.9766" y2="737.3242"/><line style="stroke:#181818;stroke-width:0.5;stroke-dasharray:5.0,5.0;" x1="448" x2="448" y1="118.9766" y2="737.3242"/><line style="stroke:#181818;stroke-width:0.5;stroke-dasharray:5.0,5.0;" x1="584" x2="584" y1="118.9766" y2="737.3242"/><line style="stroke:#181818;stroke-width:0.5;stroke-dasharray:5.0,5.0;" x1="716" x2="716" y1="118.9766" y2="737.3242"/><line style="stroke:#181818;stroke-width:0.5;stroke-dasharray:5.0,5.0;" x1="849" x2="849" y1="118.9766" y2="737.3242"/><text fill="#000000" font-family="sans-serif" font-size="14" lengthAdjust="spacing" textLength="90" x="5" y="116.0234">0xf39f..2266</text><ellipse cx="53" cy="50.9883" fill="#E2E2F0" rx="8" ry="8" style="stroke:#181818;stroke-width:0.5;"/><path d="M53,58.9883 L53,85.9883 M40,66.9883 L66,66.9883 M53,85.9883 L40,100.9883 M53,85.9883 L66,100.9883 " fill="none" style="stroke:#181818;stroke-width:0.5;"/><text fill="#000000" font-family="sans-serif" font-size="14" lengthAdjust="spacing" textLength="90" x="5" y="749.8594">0xf39f..2266</text><ellipse cx="53" cy="761.3125" fill="#E2E2F0" rx="8" ry="8" style="stroke:#181818;stroke-width:0.5;"/><path d="M53,769.3125 L53,796.3125 M40,777.3125 L66,777.3125 M53,796.3125 L40,811.3125 M53,796.3125 L66,811.3125 " fill="none" style="stroke:#181818;stroke-width:0.5;"/><rect fill="#E2E2F0" height="46.9766" rx="2.5" ry="2.5" style="stroke:#181818;stroke-width:0.5;" width="126" x="111" y="71"/><text fill="#000000" font-family="sans-serif" font-size="14" font-style="italic" lengthAdjust="spacing" textLength="112" x="118" y="91.5352">&#171;GenericRouter&#187;</text><text fill="#000000" font-family="sans-serif" font-size="14" lengthAdjust="spacing" textLength="85" x="131.5" y="108.0234">0xcf7e..0fc9</text><rect fill="#E2E2F0" height="46.9766" rx="2.5" ry="2.5" style="stroke:#181818;stroke-width:0.5;" width="126" x="111" y="736.3242"/><text fill="#000000" font-family="sans-serif" font-size="14" font-style="italic" lengthAdjust="spacing" textLength="112" x="118" y="756.8594">&#171;GenericRouter&#187;</text><text fill="#000000" font-family="sans-serif" font-size="14" lengthAdjust="spacing" textLength="85" x="131.5" y="773.3477">0xcf7e..0fc9</text><rect fill="#E2E2F0" height="46.9766" rx="2.5" ry="2.5" style="stroke:#181818;stroke-width:0.5;" width="118" x="247" y="71"/><text fill="#000000" font-family="sans-serif" font-size="14" font-style="italic" lengthAdjust="spacing" textLength="104" x="254" y="91.5352">&#171;PoolManager&#187;</text><text fill="#000000" font-family="sans-serif" font-size="14" lengthAdjust="spacing" textLength="91" x="260.5" y="108.0234">0x9fe4..a6e0</text><rect fill="#E2E2F0" height="46.9766" rx="2.5" ry="2.5" style="stroke:#181818;stroke-width:0.5;" width="118" x="247" y="736.3242"/><text fill="#000000" font-family="sans-serif" font-size="14" font-style="italic" lengthAdjust="spacing" textLength="104" x="254" y="756.8594">&#171;PoolManager&#187;</text><text fill="#000000" font-family="sans-serif" font-size="14" lengthAdjust="spacing" textLength="91" x="260.5" y="773.3477">0x9fe4..a6e0</text><rect fill="#E2E2F0" height="46.9766" rx="2.5" ry="2.5" style="stroke:#181818;stroke-width:0.5;" width="146" x="375" y="71"/><text fill="#000000" font-family="sans-serif" font-size="14" font-style="italic" lengthAdjust="spacing" textLength="132" x="382" y="91.5352">&#171;DynamicFeeHook&#187;</text><text fill="#000000" font-family="sans-serif" font-size="14" lengthAdjust="spacing" textLength="94" x="401" y="108.0234">0x3c5c..8363</text><rect fill="#E2E2F0" height="46.9766" rx="2.5" ry="2.5" style="stroke:#181818;stroke-width:0.5;" width="146" x="375" y="736.3242"/><text fill="#000000" font-family="sans-serif" font-size="14" font-style="italic" lengthAdjust="spacing" textLength="132" x="382" y="756.8594">&#171;DynamicFeeHook&#187;</text><text fill="#000000" font-family="sans-serif" font-size="14" lengthAdjust="spacing" textLength="94" x="401" y="773.3477">0x3c5c..8363</text><rect fill="#E2E2F0" height="63.4648" rx="2.5" ry="2.5" style="stroke:#181818;stroke-width:0.5;" width="106" x="531" y="54.5117"/><text fill="#000000" font-family="sans-serif" font-size="14" font-style="italic" lengthAdjust="spacing" textLength="62" x="553" y="75.0469">&#171;token0&#187;</text><text fill="#000000" font-family="sans-serif" font-size="14" font-style="italic" lengthAdjust="spacing" textLength="88" x="540" y="91.5352">&#171;TestERC20&#187;</text><text fill="#000000" font-family="sans-serif" font-size="14" lengthAdjust="spacing" textLength="92" x="538" y="108.0234">0x5fbd..0aa3</text><rect fill="#E2E2F0" height="63.4648" rx="2.5" ry="2.5" style="stroke:#181818;stroke-width:0.5;" width="106" x="531" y="736.3242"/><text fill="#000000" font-family="sans-serif" font-size="14" font-style="italic" lengthAdjust="spacing" textLength="62" x="553" y="756.8594">&#171;token0&#187;</text><text fill="#000000" font-family="sans-serif" font-size="14" font-style="italic" lengthAdjust="spacing" textLength="88" x="540" y="773.3477">&#171;TestERC20&#187;</text><text fill="#000000" font-family="sans-serif" font-size="14" lengthAdjust="spacing" textLength="92" x="538" y="789.8359">0x5fbd..0aa3</text><rect fill="#E2E2F0" height="46.9766" rx="2.5" ry="2.5" style="stroke:#181818;stroke-width:0.5;" width="139" x="647" y="71"/><text fill="#000000" font-family="sans-serif" font-size="14" font-style="italic" lengthAdjust="spacing" textLength="125" x="654" y="91.5352">&#171;RouterCallbacks&#187;</text><text fill="#000000" font-family="sans-serif" font-size="14" lengthAdjust="spacing" textLength="90" x="671.5" y="108.0234">0xdc64..f6c9</text><rect fill="#E2E2F0" height="46.9766" rx="2.5" ry="2.5" style="stroke:#181818;stroke-width:0.5;" width="139" x="647" y="736.3242"/><text fill="#000000" font-family="sans-serif" font-size="14" font-style="italic" lengthAdjust="spacing" textLength="125" x="654" y="756.8594">&#171;RouterCallbacks&#187;</text><text fill="#000000" font-family="sans-serif" font-size="14" lengthAdjust="spacing" textLength="90" x="671.5" y="773.3477">0xdc64..f6c9</text><rect fill="#E2E2F0" height="63.4648" rx="2.5" ry="2.5" style="stroke:#181818;stroke-width:0.5;" width="107" x="796" y="54.5117"/><text fill="#000000" font-family="sans-serif" font-size="14" font-style="italic" lengthAdjust="spacing" textLength="62" x="818.5" y="75.0469">&#171;token1&#187;</text><text fill="#000000" font-family="sans-serif" font-size="14" font-style="italic" lengthAdjust="spacing" textLength="88" x="805.5" y="91.5352">&#171;TestERC20&#187;</text><text fill="#000000" font-family="sans-serif" font-size="14" lengthAdjust="spacing" textLength="93" x="803" y="108.0234">0xe7f1..0512</text><rect fill="#E2E2F0" height="63.4648" rx="2.5" ry="2.5" style="stroke:#181818;stroke-width:0.5;" width="107" x="796" y="736.3242"/><text fill="#000000" font-family="sans-serif" font-size="14" font-style="italic" lengthAdjust="spacing" textLength="62" x="818.5" y="756.8594">&#171;token1&#187;</text><text fill="#000000" font-family="sans-serif" font-size="14" font-style="italic" lengthAdjust="spacing" textLength="88" x="805.5" y="773.3477">&#171;TestERC20&#187;</text><text fill="#000000" font-family="sans-serif" font-size="14" lengthAdjust="spacing" textLength="93" x="803" y="789.8359">0xe7f1..0512</text><rect fill="#FFFFFF" height="533.7266" style="stroke:#181818;stroke-width:1.0;" width="10" x="169" y="150.2871"/><rect fill="#FFFFFF" height="447.1055" style="stroke:#181818;stroke-width:1.0;" width="10" x="174" y="208.9082"/><rect fill="#FFFFFF" height="490.416" style="stroke:#181818;stroke-width:1.0;" width="10" x="301" y="179.5977"/><rect fill="#FFFFFF" height="143.9316" style="stroke:#181818;stroke-width:1.0;" width="10" x="306" y="238.2188"/><rect fill="#FFFFFF" height="57.3105" style="stroke:#181818;stroke-width:1.0;" width="10" x="306" y="454.7715"/><rect fill="#FFFFFF" height="57.3105" style="stroke:#181818;stroke-width:1.0;" width="10" x="306" y="570.7031"/><rect fill="#FFFFFF" height="14" style="stroke:#181818;stroke-width:1.0;" width="10" x="443" y="267.5293"/><rect fill="#FFFFFF" height="14" style="stroke:#181818;stroke-width:1.0;" width="10" x="443" y="310.8398"/><rect fill="#FFFFFF" height="14" style="stroke:#181818;stroke-width:1.0;" width="10" x="443" y="354.1504"/><rect fill="#FFFFFF" height="14" style="stroke:#181818;stroke-width:1.0;" width="10" x="579" y="411.4609"/><rect fill="#FFFFFF" height="14" style="stroke:#181818;stroke-width:1.0;" width="10" x="579" y="484.082"/><rect fill="#809ECB" height="100.6211" style="stroke:#181818;stroke-width:1.0;" width="10" x="711.5" y="541.3926"/><rect fill="#FFFFFF" height="14" style="stroke:#181818;stroke-width:1.0;" width="10" x="844.5" y="600.0137"/><polygon fill="#181818" points="157,146.2871,167,150.2871,157,154.2871,161,150.2871" style="stroke:#181818;stroke-width:1.0;"/><line style="stroke:#181818;stroke-width:1.0;" x1="53" x2="163" y1="150.2871" y2="150.2871"/><text fill="#000000" font-family="sans-serif" font-size="13" lengthAdjust="spacing" textLength="49" x="60" y="145.5449">process</text><polygon fill="#181818" points="289,175.5977,299,179.5977,289,183.5977,293,179.5977" style="stroke:#181818;stroke-width:1.0;"/><line style="stroke:#181818;stroke-width:1.0;" x1="179" x2="295" y1="179.5977" y2="179.5977"/><text fill="#000000" font-family="sans-serif" font-size="13" lengthAdjust="spacing" textLength="27" x="186" y="174.8555">lock</text><polygon fill="#181818" points="195,204.9082,185,208.9082,195,212.9082,191,208.9082" style="stroke:#181818;stroke-width:1.0;"/><line style="stroke:#181818;stroke-width:1.0;" x1="189" x2="300" y1="208.9082" y2="208.9082"/><text fill="#000000" font-family="sans-serif" font-size="13" lengthAdjust="spacing" textLength="83" x="201" y="204.166">lockAcquired</text><polygon fill="#181818" points="294,234.2188,304,238.2188,294,242.2188,298,238.2188" style="stroke:#181818;stroke-width:1.0;"/><line style="stroke:#181818;stroke-width:1.0;" x1="184" x2="300" y1="238.2188" y2="238.2188"/><text fill="#000000" font-family="sans-serif" font-size="13" lengthAdjust="spacing" textLength="32" x="191" y="233.4766">swap</text><polygon fill="#181818" points="431,263.5293,441,267.5293,431,271.5293,435,267.5293" style="stroke:#181818;stroke-width:1.0;"/><line style="stroke:#181818;stroke-width:1.0;" x1="316" x2="437" y1="267.5293" y2="267.5293"/><text fill="#000000" font-family="sans-serif" font-size="13" lengthAdjust="spacing" textLength="72" x="323" y="262.7871">beforeSwap</text><polygon fill="#181818" points="327,277.5293,317,281.5293,327,285.5293,323,281.5293" style="stroke:#181818;stroke-width:1.0;"/><line style="stroke:#181818;stroke-width:1.0;stroke-dasharray:2.0,2.0;" x1="321" x2="447" y1="281.5293" y2="281.5293"/><polygon fill="#181818" points="431,306.8398,441,310.8398,431,314.8398,435,310.8398" style="stroke:#181818;stroke-width:1.0;"/><line style="stroke:#181818;stroke-width:1.0;" x1="316" x2="437" y1="310.8398" y2="310.8398"/><text fill="#000000" font-family="sans-serif" font-size="13" lengthAdjust="spacing" textLength="41" x="323" y="306.0977">getFee</text><polygon fill="#181818" points="327,320.8398,317,324.8398,327,328.8398,323,324.8398" style="stroke:#181818;stroke-width:1.0;"/><line style="stroke:#181818;stroke-width:1.0;stroke-dasharray:2.0,2.0;" x1="321" x2="447" y1="324.8398" y2="324.8398"/><polygon fill="#181818" points="431,350.1504,441,354.1504,431,358.1504,435,354.1504" style="stroke:#181818;stroke-width:1.0;"/><line style="stroke:#181818;stroke-width:1.0;" x1="316" x2="437" y1="354.1504" y2="354.1504"/><text fill="#000000" font-family="sans-serif" font-size="13" lengthAdjust="spacing" textLength="61" x="323" y="349.4082">afterSwap</text><polygon fill="#181818" points="327,364.1504,317,368.1504,327,372.1504,323,368.1504" style="stroke:#181818;stroke-width:1.0;"/><line style="stroke:#181818;stroke-width:1.0;stroke-dasharray:2.0,2.0;" x1="321" x2="447" y1="368.1504" y2="368.1504"/><polygon fill="#181818" points="195,378.1504,185,382.1504,195,386.1504,191,382.1504" style="stroke:#181818;stroke-width:1.0;"/><line style="stroke:#181818;stroke-width:1.0;stroke-dasharray:2.0,2.0;" x1="189" x2="300" y1="382.1504" y2="382.1504"/><polygon fill="#181818" points="567,407.4609,577,411.4609,567,415.4609,571,411.4609" style="stroke:#181818;stroke-width:1.0;"/><line style="stroke:#181818;stroke-width:1.0;" x1="184" x2="573" y1="411.4609" y2="411.4609"/><text fill="#000000" font-family="sans-serif" font-size="13" lengthAdjust="spacing" textLength="81" x="191" y="406.7188">transferFrom</text><polygon fill="#181818" points="195,421.4609,185,425.4609,195,429.4609,191,425.4609" style="stroke:#181818;stroke-width:1.0;"/><line style="stroke:#181818;stroke-width:1.0;stroke-dasharray:2.0,2.0;" x1="189" x2="583" y1="425.4609" y2="425.4609"/><polygon fill="#181818" points="294,450.7715,304,454.7715,294,458.7715,298,454.7715" style="stroke:#181818;stroke-width:1.0;"/><line style="stroke:#181818;stroke-width:1.0;" x1="184" x2="300" y1="454.7715" y2="454.7715"/><text fill="#000000" font-family="sans-serif" font-size="13" lengthAdjust="spacing" textLength="35" x="191" y="450.0293">settle</text><polygon fill="#181818" points="567,480.082,577,484.082,567,488.082,571,484.082" style="stroke:#181818;stroke-width:1.0;"/><line style="stroke:#181818;stroke-width:1.0;" x1="316" x2="573" y1="484.082" y2="484.082"/><text fill="#000000" font-family="sans-serif" font-size="13" lengthAdjust="spacing" textLength="63" x="323" y="479.3398">balanceOf</text><polygon fill="#181818" points="327,494.082,317,498.082,327,502.082,323,498.082" style="stroke:#181818;stroke-width:1.0;"/><line style="stroke:#181818;stroke-width:1.0;stroke-dasharray:2.0,2.0;" x1="321" x2="583" y1="498.082" y2="498.082"/><polygon fill="#181818" points="195,508.082,185,512.082,195,516.082,191,512.082" style="stroke:#181818;stroke-width:1.0;"/><line style="stroke:#181818;stroke-width:1.0;stroke-dasharray:2.0,2.0;" x1="189" x2="300" y1="512.082" y2="512.082"/><line style="stroke:#181818;stroke-width:1.0;" x1="709.5" x2="699.5" y1="541.3926" y2="537.3926"/><line style="stroke:#181818;stroke-width:1.0;" x1="709.5" x2="699.5" y1="541.3926" y2="545.3926"/><line style="stroke:#181818;stroke-width:1.0;" x1="184" x2="710.5" y1="541.3926" y2="541.3926"/><text fill="#000000" font-family="sans-serif" font-size="13" lengthAdjust="spacing" textLength="86" x="191" y="536.6504">swapCallback</text><polygon fill="#3471CD" points="294,566.7031,304,570.7031,294,574.7031,298,570.7031" style="stroke:#3471CD;stroke-width:1.0;"/><line style="stroke:#3471CD;stroke-width:1.0;" x1="184" x2="300" y1="570.7031" y2="570.7031"/><text fill="#000000" font-family="sans-serif" font-size="13" lengthAdjust="spacing" textLength="27" x="191" y="565.9609">take</text><polygon fill="#181818" points="832.5,596.0137,842.5,600.0137,832.5,604.0137,836.5,600.0137" style="stroke:#181818;stroke-width:1.0;"/><line style="stroke:#181818;stroke-width:1.0;" x1="316" x2="838.5" y1="600.0137" y2="600.0137"/><text fill="#000000" font-family="sans-serif" font-size="13" lengthAdjust="spacing" textLength="49" x="323" y="595.2715">transfer</text><polygon fill="#181818" points="327,610.0137,317,614.0137,327,618.0137,323,614.0137" style="stroke:#181818;stroke-width:1.0;"/><line style="stroke:#181818;stroke-width:1.0;stroke-dasharray:2.0,2.0;" x1="321" x2="848.5" y1="614.0137" y2="614.0137"/><polygon fill="#3471CD" points="195,624.0137,185,628.0137,195,632.0137,191,628.0137" style="stroke:#3471CD;stroke-width:1.0;"/><line style="stroke:#3471CD;stroke-width:1.0;stroke-dasharray:2.0,2.0;" x1="189" x2="300" y1="628.0137" y2="628.0137"/><line style="stroke:#181818;stroke-width:1.0;" x1="185" x2="195" y1="642.0137" y2="638.0137"/><line style="stroke:#181818;stroke-width:1.0;" x1="185" x2="195" y1="642.0137" y2="646.0137"/><line style="stroke:#181818;stroke-width:1.0;stroke-dasharray:2.0,2.0;" x1="184" x2="715.5" y1="642.0137" y2="642.0137"/><polygon fill="#181818" points="289,652.0137,299,656.0137,289,660.0137,293,656.0137" style="stroke:#181818;stroke-width:1.0;"/><line style="stroke:#181818;stroke-width:1.0;stroke-dasharray:2.0,2.0;" x1="179" x2="295" y1="656.0137" y2="656.0137"/><polygon fill="#181818" points="190,666.0137,180,670.0137,190,674.0137,186,670.0137" style="stroke:#181818;stroke-width:1.0;"/><line style="stroke:#181818;stroke-width:1.0;stroke-dasharray:2.0,2.0;" x1="184" x2="305" y1="670.0137" y2="670.0137"/><polygon fill="#181818" points="64,680.0137,54,684.0137,64,688.0137,60,684.0137" style="stroke:#181818;stroke-width:1.0;"/><line style="stroke:#181818;stroke-width:1.0;stroke-dasharray:2.0,2.0;" x1="58" x2="173" y1="684.0137" y2="684.0137"/><path d="M279,697.0137 L279,722.0137 L332,722.0137 L332,707.0137 L322,697.0137 L279,697.0137 " fill="#00FFFF" style="stroke:#181818;stroke-width:0.5;"/><path d="M322,697.0137 L322,707.0137 L332,707.0137 L322,697.0137 " fill="#00FFFF" style="stroke:#181818;stroke-width:0.5;"/><text fill="#000000" font-family="sans-serif" font-size="13" lengthAdjust="spacing" textLength="32" x="285" y="714.582">Swap</text><path d="M547,697.0137 L547,722.0137 L620,722.0137 L620,707.0137 L610,697.0137 L547,697.0137 " fill="#00FFFF" style="stroke:#181818;stroke-width:0.5;"/><path d="M610,697.0137 L610,707.0137 L620,707.0137 L610,697.0137 " fill="#00FFFF" style="stroke:#181818;stroke-width:0.5;"/><text fill="#000000" font-family="sans-serif" font-size="13" lengthAdjust="spacing" textLength="52" x="553" y="714.582">Transfer</text><path d="M813,697.0137 L813,722.0137 L886,722.0137 L886,707.0137 L876,697.0137 L813,697.0137 " fill="#00FFFF" style="stroke:#181818;stroke-width:0.5;"/><path d="M876,697.0137 L876,707.0137 L886,707.0137 L876,697.0137 " fill="#00FFFF" style="stroke:#181818;stroke-width:0.5;"/><text fill="#000000" font-family="sans-serif" font-size="13" lengthAdjust="spacing" textLength="52" x="819" y="714.582">Transfer</text><!--SRC=[bPJBRjim44Nt_0eYtgOgzRO4Gq3gFBe9MgJU5LqCgQ4XM24TYaxJlozfHvBZHzAkY2lUmndE36KRso9bBpnD08eu377AOiRpJ6Pncl4wuJAgGvaBcKeHoYBXnPHdjPH9mRdCMOWPiWGP8GBMjj6AAgtmal9MYnLDBkbYurHKqAlDaaOiYYcBoZGhev3UtIy82AiDlM0lCYva44HHbbrGwAYNNb2o1cCRqQn1MUyJCiSWO58KMv-NNj3Px0uLcaOyw8r5KrM7O24n2G9msMv1Bxrmu7UjstjGi3o5nI8LGJ2DitYBUUc5mwx_A7Xin2tYLwrNnsGgUUqo1TYHNdhXIAjNg5XLpMOBxEpDmpnYntWjCfUlp5ulwgKN3j_TS0vjoq6ikcCKSncwo6aORL4llUWZXuUHoL3jJzLGqPAkZHROTRv7pJDO7BR8K7NdxmjPKj_nqTn_9qEbtnpkpLVYQTCOhFyvGlSRrXz4w1jKKevI6_pn1kbtYK6xCUeCkKJhklg_54ZNbVV3lIxxb-l7egJMWEeacbkZ7ySZ-lrJx5vXqBfd_45fnb0SMb02lydpSOx3LSCCxXhH3-1unZ2ZaoahRkPVzkYVapZ9m_drh_siBQm-ohcVtR4y8z3l7QJytaAKTg1-HZF-02Rmj06oRHogcde78P_fw1nUxiwvw1CvxHvUspdtNm00]--></g></svg>