<?xml version="1.0" encoding="us-ascii" standalone="no"?><svg xmlns="http://www.w3.org/2000/svg" xmlns:xlink="http://www.w3.org/1999/xlink" contentStyleType="text/css" height="227px" preserveAspectRatio="none" style="width:508px;height:227px;background:#FFFFFF;" version="1.1" viewBox="0 0 508 227" width="508px" zoomAndPan="magnify"><defs/><g><text fill="#000000" font-family="sans-serif" font-size="14" font-weight="bold" lengthAdjust="spacing" textLength="298" x="103.5" y="28.5352">Uniswap v4 - Remove Liquidity to a Pool</text><line style="stroke:#181818;stroke-width:0.5;stroke-dasharray:5.0,5.0;" x1="115.5" x2="115.5" y1="106.9531" y2="220.8848"/><line style="stroke:#181818;stroke-width:0.5;stroke-dasharray:5.0,5.0;" x1="388.5" x2="388.5" y1="106.9531" y2="220.8848"/><rect fill="#E2E2F0" height="63.4648" rx="2.5" ry="2.5" style="stroke:#181818;stroke-width:0.5;" width="143" x="44.5" y="42.4883"/><text fill="#000000" font-family="sans-serif" font-size="14" font-style="italic" lengthAdjust="spacing" textLength="129" x="51.5" y="63.0234">&#171;Uniswap v4 Core&#187;</text><text fill="#000000" font-family="sans-serif" font-size="14" font-style="italic" lengthAdjust="spacing" textLength="104" x="64" y="79.5117">&#171;PoolManager&#187;</text><text fill="#000000" font-family="sans-serif" font-size="14" lengthAdjust="spacing" textLength="98" x="67" y="96">0x5FC8..5707</text><rect fill="#E2E2F0" height="30.4883" rx="2.5" ry="2.5" style="stroke:#181818;stroke-width:0.5;" width="107" x="335.5" y="75.4648"/><text fill="#000000" font-family="sans-serif" font-size="14" lengthAdjust="spacing" textLength="93" x="342.5" y="96">0xf39F..2266</text><polygon fill="#181818" points="377,134.2637,387,138.2637,377,142.2637,381,138.2637" style="stroke:#181818;stroke-width:1.0;"/><line style="stroke:#181818;stroke-width:1.0;" x1="116" x2="383" y1="138.2637" y2="138.2637"/><text fill="#000000" font-family="sans-serif" font-size="13" lengthAdjust="spacing" textLength="249" x="123" y="133.5215">Transfer 0.024089237901975176 TOKB</text><polygon fill="#181818" points="377,163.5742,387,167.5742,377,171.5742,381,167.5742" style="stroke:#181818;stroke-width:1.0;"/><line style="stroke:#181818;stroke-width:1.0;" x1="116" x2="383" y1="167.5742" y2="167.5742"/><text fill="#000000" font-family="sans-serif" font-size="13" lengthAdjust="spacing" textLength="115" x="123" y="162.832">Transfer 0.0 TOKA</text><path d="M5,180.5742 L5,205.5742 L227,205.5742 L227,190.5742 L217,180.5742 L5,180.5742 " fill="#00FFFF" style="stroke:#181818;stroke-width:0.5;"/><path d="M217,180.5742 L217,190.5742 L227,190.5742 L217,180.5742 " fill="#00FFFF" style="stroke:#181818;stroke-width:0.5;"/><text fill="#000000" font-family="sans-serif" font-size="13" lengthAdjust="spacing" textLength="201" x="11" y="198.1426">-0.024089237901975176 TOKB</text><path d="M277,180.5742 L277,205.5742 L501,205.5742 L501,190.5742 L491,180.5742 L277,180.5742 " fill="#00FFFF" style="stroke:#181818;stroke-width:0.5;"/><path d="M491,180.5742 L491,190.5742 L501,190.5742 L491,180.5742 " fill="#00FFFF" style="stroke:#181818;stroke-width:0.5;"/><text fill="#000000" font-family="sans-serif" font-size="13" lengthAdjust="spacing" textLength="203" x="283" y="198.1426">+0.024089237901975176 TOKB</text><!--SRC=[ZP3HIiCm58RlprFyr4jfpBgrQQK4TB0R5KNc0yGrqS1CkZIRy-rT53eP2Bly3-VxEEUFDguriXTdXq_LOpT3ZcVzuNSQztQpjPsDNuWU2a_UhpDwjvs6yJw- -ZrHhqAqAzih5v7nVRcOruoLWeiCQa1fLdKAQDi__haFMigsJRu7vTIR3bAUcioqMJ1M55NrOpf4amA8Hcakn_4rba6vmUW0pdWnutLJJ4N39uqe9wB2yl7kzWmmxTqGaVDHuz10E7vmeJPRHVd_Tkqw98xe2aT-lFkNlpo3_mO0]--></g></svg>