<?xml version="1.0" encoding="us-ascii" standalone="no"?><svg xmlns="http://www.w3.org/2000/svg" xmlns:xlink="http://www.w3.org/1999/xlink" contentStyleType="text/css" height="3109px" preserveAspectRatio="none" style="width:2363px;height:3109px;background:#FFFFFF;" version="1.1" viewBox="0 0 2363 3109" width="2363px" zoomAndPan="magnify"><defs/><g><text fill="#000000" font-family="sans-serif" font-size="14" font-weight="bold" lengthAdjust="spacing" textLength="318" x="1021" y="28.5352">Uniswap v4 - Remove Liquidity from a Pool</text><text fill="#000000" font-family="sans-serif" font-size="14" lengthAdjust="spacing" textLength="327" x="1016.5" y="3097.3398">none, block 6, Mon, 11 Sep 2023 08:10:39 GMT</text><rect fill="#FFFFFF" height="2379.9551" style="stroke:#181818;stroke-width:1.0;" width="10" x="428" y="445.877"/><rect fill="#809ECB" height="673.3164" style="stroke:#181818;stroke-width:1.0;" width="10" x="433" y="1706.9258"/><rect fill="#809ECB" height="2224.7813" style="stroke:#181818;stroke-width:1.0;" width="10" x="608.5" y="490.498"/><rect fill="#809ECB" height="533.4531" style="stroke:#181818;stroke-width:1.0;" width="10" x="613.5" y="1782.168"/><rect fill="#FFFFFF" height="1916.502" style="stroke:#181818;stroke-width:1.0;" width="10" x="879.5" y="734.1563"/><rect fill="#FFFFFF" height="1606.1543" style="stroke:#181818;stroke-width:1.0;" width="10" x="884.5" y="854.0195"/><rect fill="#FFFFFF" height="1746.0176" style="stroke:#181818;stroke-width:1.0;" width="10" x="1405.5" y="794.0879"/><rect fill="#FFFFFF" height="529.3164" style="stroke:#181818;stroke-width:1.0;" width="10" x="1410.5" y="1051.7461"/><rect fill="#FFFFFF" height="118.5527" style="stroke:#181818;stroke-width:1.0;" width="10" x="1410.5" y="1872.7207"/><rect fill="#FFFFFF" height="118.5527" style="stroke:#181818;stroke-width:1.0;" width="10" x="1410.5" y="2132.4473"/><rect fill="#FFFFFF" height="29.3105" style="stroke:#181818;stroke-width:1.0;" width="10" x="1938.5" y="1264.7832"/><rect fill="#FFFFFF" height="29.3105" style="stroke:#181818;stroke-width:1.0;" width="10" x="1938.5" y="1522.4414"/><rect fill="#FFFFFF" height="29.3105" style="stroke:#181818;stroke-width:1.0;" width="10" x="2074" y="1947.9629"/><rect fill="#FFFFFF" height="29.3105" style="stroke:#181818;stroke-width:1.0;" width="10" x="2274" y="2207.6895"/><line style="stroke:#181818;stroke-width:0.5;stroke-dasharray:5.0,5.0;" x1="107" x2="107" y1="118.9766" y2="3006.3164"/><line style="stroke:#181818;stroke-width:0.5;stroke-dasharray:5.0,5.0;" x1="433" x2="433" y1="118.9766" y2="3006.3164"/><line style="stroke:#181818;stroke-width:0.5;stroke-dasharray:5.0,5.0;" x1="613" x2="613" y1="118.9766" y2="3006.3164"/><line style="stroke:#181818;stroke-width:0.5;stroke-dasharray:5.0,5.0;" x1="884.5" x2="884.5" y1="118.9766" y2="3006.3164"/><line style="stroke:#181818;stroke-width:0.5;stroke-dasharray:5.0,5.0;" x1="1410" x2="1410" y1="118.9766" y2="3006.3164"/><line style="stroke:#181818;stroke-width:0.5;stroke-dasharray:5.0,5.0;" x1="1943.5" x2="1943.5" y1="118.9766" y2="3006.3164"/><line style="stroke:#181818;stroke-width:0.5;stroke-dasharray:5.0,5.0;" x1="2078.5" x2="2078.5" y1="118.9766" y2="3006.3164"/><line style="stroke:#181818;stroke-width:0.5;stroke-dasharray:5.0,5.0;" x1="2278.5" x2="2278.5" y1="118.9766" y2="3006.3164"/><text fill="#000000" font-family="sans-serif" font-size="14" lengthAdjust="spacing" textLength="90" x="59" y="116.0234">0xf39f..2266</text><ellipse cx="107" cy="50.9883" fill="#E2E2F0" rx="8" ry="8" style="stroke:#181818;stroke-width:0.5;"/><path d="M107,58.9883 L107,85.9883 M94,66.9883 L120,66.9883 M107,85.9883 L94,100.9883 M107,85.9883 L120,100.9883 " fill="none" style="stroke:#181818;stroke-width:0.5;"/><text fill="#000000" font-family="sans-serif" font-size="14" lengthAdjust="spacing" textLength="90" x="59" y="3018.8516">0xf39f..2266</text><ellipse cx="107" cy="3030.3047" fill="#E2E2F0" rx="8" ry="8" style="stroke:#181818;stroke-width:0.5;"/><path d="M107,3038.3047 L107,3065.3047 M94,3046.3047 L120,3046.3047 M107,3065.3047 L94,3080.3047 M107,3065.3047 L120,3080.3047 " fill="none" style="stroke:#181818;stroke-width:0.5;"/><rect fill="#E2E2F0" height="46.9766" rx="2.5" ry="2.5" style="stroke:#181818;stroke-width:0.5;" width="144" x="361" y="71"/><text fill="#000000" font-family="sans-serif" font-size="14" font-style="italic" lengthAdjust="spacing" textLength="130" x="368" y="91.5352">&#171;UniswapV4Caller&#187;</text><text fill="#000000" font-family="sans-serif" font-size="14" lengthAdjust="spacing" textLength="92" x="387" y="108.0234">0x5fc8..5707</text><rect fill="#E2E2F0" height="46.9766" rx="2.5" ry="2.5" style="stroke:#181818;stroke-width:0.5;" width="144" x="361" y="3005.3164"/><text fill="#000000" font-family="sans-serif" font-size="14" font-style="italic" lengthAdjust="spacing" textLength="130" x="368" y="3025.8516">&#171;UniswapV4Caller&#187;</text><text fill="#000000" font-family="sans-serif" font-size="14" lengthAdjust="spacing" textLength="92" x="387" y="3042.3398">0x5fc8..5707</text><rect fill="#E2E2F0" height="46.9766" rx="2.5" ry="2.5" style="stroke:#181818;stroke-width:0.5;" width="197" x="515" y="71"/><text fill="#000000" font-family="sans-serif" font-size="14" font-style="italic" lengthAdjust="spacing" textLength="183" x="522" y="91.5352">&#171;UniswapV4RouterLibrary&#187;</text><text fill="#000000" font-family="sans-serif" font-size="14" lengthAdjust="spacing" textLength="92" x="567.5" y="108.0234">0x5fbd..0aa3</text><rect fill="#E2E2F0" height="46.9766" rx="2.5" ry="2.5" style="stroke:#181818;stroke-width:0.5;" width="197" x="515" y="3005.3164"/><text fill="#000000" font-family="sans-serif" font-size="14" font-style="italic" lengthAdjust="spacing" textLength="183" x="522" y="3025.8516">&#171;UniswapV4RouterLibrary&#187;</text><text fill="#000000" font-family="sans-serif" font-size="14" lengthAdjust="spacing" textLength="92" x="567.5" y="3042.3398">0x5fbd..0aa3</text><rect fill="#E2E2F0" height="46.9766" rx="2.5" ry="2.5" style="stroke:#181818;stroke-width:0.5;" width="150" x="809.5" y="71"/><text fill="#000000" font-family="sans-serif" font-size="14" font-style="italic" lengthAdjust="spacing" textLength="136" x="816.5" y="91.5352">&#171;UniswapV4Router&#187;</text><text fill="#000000" font-family="sans-serif" font-size="14" lengthAdjust="spacing" textLength="90" x="839.5" y="108.0234">0xdc64..f6c9</text><rect fill="#E2E2F0" height="46.9766" rx="2.5" ry="2.5" style="stroke:#181818;stroke-width:0.5;" width="150" x="809.5" y="3005.3164"/><text fill="#000000" font-family="sans-serif" font-size="14" font-style="italic" lengthAdjust="spacing" textLength="136" x="816.5" y="3025.8516">&#171;UniswapV4Router&#187;</text><text fill="#000000" font-family="sans-serif" font-size="14" lengthAdjust="spacing" textLength="90" x="839.5" y="3042.3398">0xdc64..f6c9</text><rect fill="#E2E2F0" height="63.4648" rx="2.5" ry="2.5" style="stroke:#181818;stroke-width:0.5;" width="143" x="1339" y="54.5117"/><text fill="#000000" font-family="sans-serif" font-size="14" font-style="italic" lengthAdjust="spacing" textLength="129" x="1346" y="75.0469">&#171;Uniswap v4 Core&#187;</text><text fill="#000000" font-family="sans-serif" font-size="14" font-style="italic" lengthAdjust="spacing" textLength="104" x="1358.5" y="91.5352">&#171;PoolManager&#187;</text><text fill="#000000" font-family="sans-serif" font-size="14" lengthAdjust="spacing" textLength="85" x="1368" y="108.0234">0xcf7e..0fc9</text><rect fill="#E2E2F0" height="63.4648" rx="2.5" ry="2.5" style="stroke:#181818;stroke-width:0.5;" width="143" x="1339" y="3005.3164"/><text fill="#000000" font-family="sans-serif" font-size="14" font-style="italic" lengthAdjust="spacing" textLength="129" x="1346" y="3025.8516">&#171;Uniswap v4 Core&#187;</text><text fill="#000000" font-family="sans-serif" font-size="14" font-style="italic" lengthAdjust="spacing" textLength="104" x="1358.5" y="3042.3398">&#171;PoolManager&#187;</text><text fill="#000000" font-family="sans-serif" font-size="14" lengthAdjust="spacing" textLength="85" x="1368" y="3058.8281">0xcf7e..0fc9</text><rect fill="#E2E2F0" height="46.9766" rx="2.5" ry="2.5" style="stroke:#181818;stroke-width:0.5;" width="146" x="1870.5" y="71"/><text fill="#000000" font-family="sans-serif" font-size="14" font-style="italic" lengthAdjust="spacing" textLength="132" x="1877.5" y="91.5352">&#171;DynamicFeeHook&#187;</text><text fill="#000000" font-family="sans-serif" font-size="14" lengthAdjust="spacing" textLength="95" x="1896" y="108.0234">0x3cb2..b33e</text><rect fill="#E2E2F0" height="46.9766" rx="2.5" ry="2.5" style="stroke:#181818;stroke-width:0.5;" width="146" x="1870.5" y="3005.3164"/><text fill="#000000" font-family="sans-serif" font-size="14" font-style="italic" lengthAdjust="spacing" textLength="132" x="1877.5" y="3025.8516">&#171;DynamicFeeHook&#187;</text><text fill="#000000" font-family="sans-serif" font-size="14" lengthAdjust="spacing" textLength="95" x="1896" y="3042.3398">0x3cb2..b33e</text><rect fill="#E2E2F0" height="63.4648" rx="2.5" ry="2.5" style="stroke:#181818;stroke-width:0.5;" width="105" x="2026.5" y="54.5117"/><text fill="#000000" font-family="sans-serif" font-size="14" font-style="italic" lengthAdjust="spacing" textLength="62" x="2048" y="75.0469">&#171;token0&#187;</text><text fill="#000000" font-family="sans-serif" font-size="14" font-style="italic" lengthAdjust="spacing" textLength="88" x="2035" y="91.5352">&#171;TestERC20&#187;</text><text fill="#000000" font-family="sans-serif" font-size="14" lengthAdjust="spacing" textLength="91" x="2033.5" y="108.0234">0x9fe4..a6e0</text><rect fill="#E2E2F0" height="63.4648" rx="2.5" ry="2.5" style="stroke:#181818;stroke-width:0.5;" width="105" x="2026.5" y="3005.3164"/><text fill="#000000" font-family="sans-serif" font-size="14" font-style="italic" lengthAdjust="spacing" textLength="62" x="2048" y="3025.8516">&#171;token0&#187;</text><text fill="#000000" font-family="sans-serif" font-size="14" font-style="italic" lengthAdjust="spacing" textLength="88" x="2035" y="3042.3398">&#171;TestERC20&#187;</text><text fill="#000000" font-family="sans-serif" font-size="14" lengthAdjust="spacing" textLength="91" x="2033.5" y="3058.8281">0x9fe4..a6e0</text><rect fill="#E2E2F0" height="63.4648" rx="2.5" ry="2.5" style="stroke:#181818;stroke-width:0.5;" width="107" x="2225.5" y="54.5117"/><text fill="#000000" font-family="sans-serif" font-size="14" font-style="italic" lengthAdjust="spacing" textLength="62" x="2248" y="75.0469">&#171;token1&#187;</text><text fill="#000000" font-family="sans-serif" font-size="14" font-style="italic" lengthAdjust="spacing" textLength="88" x="2235" y="91.5352">&#171;TestERC20&#187;</text><text fill="#000000" font-family="sans-serif" font-size="14" lengthAdjust="spacing" textLength="93" x="2232.5" y="108.0234">0xe7f1..0512</text><rect fill="#E2E2F0" height="63.4648" rx="2.5" ry="2.5" style="stroke:#181818;stroke-width:0.5;" width="107" x="2225.5" y="3005.3164"/><text fill="#000000" font-family="sans-serif" font-size="14" font-style="italic" lengthAdjust="spacing" textLength="62" x="2248" y="3025.8516">&#171;token1&#187;</text><text fill="#000000" font-family="sans-serif" font-size="14" font-style="italic" lengthAdjust="spacing" textLength="88" x="2235" y="3042.3398">&#171;TestERC20&#187;</text><text fill="#000000" font-family="sans-serif" font-size="14" lengthAdjust="spacing" textLength="93" x="2232.5" y="3058.8281">0xe7f1..0512</text><rect fill="#FFFFFF" height="2379.9551" style="stroke:#181818;stroke-width:1.0;" width="10" x="428" y="445.877"/><rect fill="#809ECB" height="673.3164" style="stroke:#181818;stroke-width:1.0;" width="10" x="433" y="1706.9258"/><rect fill="#809ECB" height="2224.7813" style="stroke:#181818;stroke-width:1.0;" width="10" x="608.5" y="490.498"/><rect fill="#809ECB" height="533.4531" style="stroke:#181818;stroke-width:1.0;" width="10" x="613.5" y="1782.168"/><rect fill="#FFFFFF" height="1916.502" style="stroke:#181818;stroke-width:1.0;" width="10" x="879.5" y="734.1563"/><rect fill="#FFFFFF" height="1606.1543" style="stroke:#181818;stroke-width:1.0;" width="10" x="884.5" y="854.0195"/><rect fill="#FFFFFF" height="1746.0176" style="stroke:#181818;stroke-width:1.0;" width="10" x="1405.5" y="794.0879"/><rect fill="#FFFFFF" height="529.3164" style="stroke:#181818;stroke-width:1.0;" width="10" x="1410.5" y="1051.7461"/><rect fill="#FFFFFF" height="118.5527" style="stroke:#181818;stroke-width:1.0;" width="10" x="1410.5" y="1872.7207"/><rect fill="#FFFFFF" height="118.5527" style="stroke:#181818;stroke-width:1.0;" width="10" x="1410.5" y="2132.4473"/><rect fill="#FFFFFF" height="29.3105" style="stroke:#181818;stroke-width:1.0;" width="10" x="1938.5" y="1264.7832"/><rect fill="#FFFFFF" height="29.3105" style="stroke:#181818;stroke-width:1.0;" width="10" x="1938.5" y="1522.4414"/><rect fill="#FFFFFF" height="29.3105" style="stroke:#181818;stroke-width:1.0;" width="10" x="2074" y="1947.9629"/><rect fill="#FFFFFF" height="29.3105" style="stroke:#181818;stroke-width:1.0;" width="10" x="2274" y="2207.6895"/><path d="M5,133.9766 L5,250.9766 L209,250.9766 L209,143.9766 L199,133.9766 L5,133.9766 " fill="#FEFFDD" style="stroke:#181818;stroke-width:0.5;"/><path d="M199,133.9766 L199,143.9766 L209,143.9766 L199,133.9766 " fill="#FEFFDD" style="stroke:#181818;stroke-width:0.5;"/><text fill="#000000" font-family="sans-serif" font-size="13" lengthAdjust="spacing" textLength="64" x="11" y="151.5449">Nonce: 15</text><text fill="#000000" font-family="sans-serif" font-size="13" lengthAdjust="spacing" textLength="183" x="11" y="166.8555">Gas Price: 3.582549245 Gwei</text><text fill="#000000" font-family="sans-serif" font-size="13" lengthAdjust="spacing" textLength="113" x="11" y="182.166">Max Fee: 5.0 Gwei</text><text fill="#000000" font-family="sans-serif" font-size="13" lengthAdjust="spacing" textLength="137" x="11" y="197.4766">Max Priority: 3.0 Gwei</text><text fill="#000000" font-family="sans-serif" font-size="13" lengthAdjust="spacing" textLength="119" x="11" y="212.7871">Gas Limit: 401,815</text><text fill="#000000" font-family="sans-serif" font-size="13" lengthAdjust="spacing" textLength="118" x="11" y="228.0977">Gas Used: 274,746</text><text fill="#000000" font-family="sans-serif" font-size="13" lengthAdjust="spacing" textLength="114" x="11" y="243.4082">Tx Fee: 0.001 ETH</text><polygon fill="#181818" points="416,441.877,426,445.877,416,449.877,420,445.877" style="stroke:#181818;stroke-width:1.0;"/><line style="stroke:#181818;stroke-width:1.0;" x1="107" x2="422" y1="445.877" y2="445.877"/><text fill="#000000" font-family="sans-serif" font-size="13" lengthAdjust="spacing" textLength="105" x="114" y="272.7188">removeLiquidity(</text><text fill="#000000" font-family="sans-serif" font-size="13" lengthAdjust="spacing" textLength="62" x="122" y="288.0293">poolKey: [</text><text fill="#000000" font-family="sans-serif" font-size="13" lengthAdjust="spacing" textLength="156" x="130" y="303.3398">currency0: 0x9fE4..a6e0,</text><text fill="#000000" font-family="sans-serif" font-size="13" lengthAdjust="spacing" textLength="158" x="130" y="318.6504">currency1: 0xe7f1..0512,</text><text fill="#000000" font-family="sans-serif" font-size="13" lengthAdjust="spacing" textLength="95" x="130" y="333.9609">fee: 8,388,608,</text><text fill="#000000" font-family="sans-serif" font-size="13" lengthAdjust="spacing" textLength="101" x="130" y="349.2715">tickSpacing: 60,</text><text fill="#000000" font-family="sans-serif" font-size="13" lengthAdjust="spacing" textLength="139" x="130" y="364.582">hooks: 0x3cB2..B33E],</text><text fill="#000000" font-family="sans-serif" font-size="13" lengthAdjust="spacing" textLength="151" x="122" y="379.8926">recipient: 0xf39F..2266,</text><text fill="#000000" font-family="sans-serif" font-size="13" lengthAdjust="spacing" textLength="97" x="122" y="395.2031">tickLower: -60,</text><text fill="#000000" font-family="sans-serif" font-size="13" lengthAdjust="spacing" textLength="89" x="122" y="410.5137">tickUpper: 60,</text><text fill="#000000" font-family="sans-serif" font-size="13" lengthAdjust="spacing" textLength="294" x="122" y="425.8242">liquidityAmount: 4,,000,000,000,000,000,000)</text><text fill="#000000" font-family="sans-serif" font-size="13" lengthAdjust="spacing" textLength="78" x="114" y="441.1348">251,078 gas</text><line style="stroke:#181818;stroke-width:1.0;" x1="606.5" x2="596.5" y1="490.498" y2="486.498"/><line style="stroke:#181818;stroke-width:1.0;" x1="606.5" x2="596.5" y1="490.498" y2="494.498"/><line style="stroke:#181818;stroke-width:1.0;" x1="438" x2="607.5" y1="490.498" y2="490.498"/><text fill="#000000" font-family="sans-serif" font-size="13" lengthAdjust="spacing" textLength="76" x="445" y="470.4453">0x948d97fc</text><text fill="#000000" font-family="sans-serif" font-size="13" lengthAdjust="spacing" textLength="78" x="445" y="485.7559">244,281 gas</text><polygon fill="#3471CD" points="867.5,730.1563,877.5,734.1563,867.5,738.1563,871.5,734.1563" style="stroke:#3471CD;stroke-width:1.0;"/><line style="stroke:#3471CD;stroke-width:1.0;" x1="438" x2="873.5" y1="734.1563" y2="734.1563"/><text fill="#000000" font-family="sans-serif" font-size="13" lengthAdjust="spacing" textLength="53" x="445" y="515.0664">process(</text><text fill="#000000" font-family="sans-serif" font-size="13" lengthAdjust="spacing" textLength="41" x="453" y="530.377">calls: [</text><text fill="#000000" font-family="sans-serif" font-size="13" lengthAdjust="spacing" textLength="20" x="461" y="545.6875">0: [</text><text fill="#000000" font-family="sans-serif" font-size="13" lengthAdjust="spacing" textLength="132" x="469" y="560.998">target: 0xCf7E..0Fc9,</text><text fill="#000000" font-family="sans-serif" font-size="13" lengthAdjust="spacing" textLength="64" x="469" y="576.3086">callType: ,</text><text fill="#000000" font-family="sans-serif" font-size="13" lengthAdjust="spacing" textLength="85" x="469" y="591.6191">results: false,</text><text fill="#000000" font-family="sans-serif" font-size="13" lengthAdjust="spacing" textLength="53" x="469" y="606.9297">value: 0,</text><text fill="#000000" font-family="sans-serif" font-size="13" lengthAdjust="spacing" textLength="194" x="469" y="622.2402">data: 0x555a4733..62700000],</text><text fill="#000000" font-family="sans-serif" font-size="13" lengthAdjust="spacing" textLength="20" x="461" y="637.5508">1: [</text><text fill="#000000" font-family="sans-serif" font-size="13" lengthAdjust="spacing" textLength="137" x="469" y="652.8613">target: 0x5FC8..5707,</text><text fill="#000000" font-family="sans-serif" font-size="13" lengthAdjust="spacing" textLength="72" x="469" y="668.1719">callType: 1,</text><text fill="#000000" font-family="sans-serif" font-size="13" lengthAdjust="spacing" textLength="80" x="469" y="683.4824">results: true,</text><text fill="#000000" font-family="sans-serif" font-size="13" lengthAdjust="spacing" textLength="53" x="469" y="698.793">value: 0,</text><text fill="#000000" font-family="sans-serif" font-size="13" lengthAdjust="spacing" textLength="195" x="469" y="714.1035">data: 0xd992e10f..00000000]])</text><text fill="#000000" font-family="sans-serif" font-size="13" lengthAdjust="spacing" textLength="78" x="445" y="729.4141">232,442 gas</text><polygon fill="#181818" points="1393.5,790.0879,1403.5,794.0879,1393.5,798.0879,1397.5,794.0879" style="stroke:#181818;stroke-width:1.0;"/><line style="stroke:#181818;stroke-width:1.0;" x1="889.5" x2="1399.5" y1="794.0879" y2="794.0879"/><text fill="#000000" font-family="sans-serif" font-size="13" lengthAdjust="spacing" textLength="31" x="896.5" y="758.7246">lock(</text><text fill="#000000" font-family="sans-serif" font-size="13" lengthAdjust="spacing" textLength="191" x="904.5" y="774.0352">data: 0x00000000..00000000)</text><text fill="#000000" font-family="sans-serif" font-size="13" lengthAdjust="spacing" textLength="78" x="896.5" y="789.3457">220,875 gas</text><polygon fill="#181818" points="905.5,850.0195,895.5,854.0195,905.5,858.0195,901.5,854.0195" style="stroke:#181818;stroke-width:1.0;"/><line style="stroke:#181818;stroke-width:1.0;" x1="899.5" x2="1404.5" y1="854.0195" y2="854.0195"/><text fill="#000000" font-family="sans-serif" font-size="13" lengthAdjust="spacing" textLength="87" x="911.5" y="818.6563">lockAcquired(</text><text fill="#000000" font-family="sans-serif" font-size="13" lengthAdjust="spacing" textLength="248" x="919.5" y="833.9668">encodedCalls: 0x00000000..00000000)</text><text fill="#000000" font-family="sans-serif" font-size="13" lengthAdjust="spacing" textLength="78" x="911.5" y="849.2773">212,859 gas</text><polygon fill="#181818" points="1398.5,1047.7461,1408.5,1051.7461,1398.5,1055.7461,1402.5,1051.7461" style="stroke:#181818;stroke-width:1.0;"/><line style="stroke:#181818;stroke-width:1.0;" x1="894.5" x2="1404.5" y1="1051.7461" y2="1051.7461"/><text fill="#000000" font-family="sans-serif" font-size="13" lengthAdjust="spacing" textLength="99" x="901.5" y="878.5879">modifyPosition(</text><text fill="#000000" font-family="sans-serif" font-size="13" lengthAdjust="spacing" textLength="34" x="909.5" y="893.8984">key: [</text><text fill="#000000" font-family="sans-serif" font-size="13" lengthAdjust="spacing" textLength="156" x="917.5" y="909.209">currency0: 0x9fE4..a6e0,</text><text fill="#000000" font-family="sans-serif" font-size="13" lengthAdjust="spacing" textLength="158" x="917.5" y="924.5195">currency1: 0xe7f1..0512,</text><text fill="#000000" font-family="sans-serif" font-size="13" lengthAdjust="spacing" textLength="95" x="917.5" y="939.8301">fee: 8,388,608,</text><text fill="#000000" font-family="sans-serif" font-size="13" lengthAdjust="spacing" textLength="101" x="917.5" y="955.1406">tickSpacing: 60,</text><text fill="#000000" font-family="sans-serif" font-size="13" lengthAdjust="spacing" textLength="139" x="917.5" y="970.4512">hooks: 0x3cB2..B33E],</text><text fill="#000000" font-family="sans-serif" font-size="13" lengthAdjust="spacing" textLength="58" x="909.5" y="985.7617">params: [</text><text fill="#000000" font-family="sans-serif" font-size="13" lengthAdjust="spacing" textLength="97" x="917.5" y="1001.0723">tickLower: -60,</text><text fill="#000000" font-family="sans-serif" font-size="13" lengthAdjust="spacing" textLength="89" x="917.5" y="1016.3828">tickUpper: 60,</text><text fill="#000000" font-family="sans-serif" font-size="13" lengthAdjust="spacing" textLength="261" x="917.5" y="1031.6934">liquidityDelta: -4000000000000000000])</text><text fill="#000000" font-family="sans-serif" font-size="13" lengthAdjust="spacing" textLength="70" x="901.5" y="1047.0039">92,585 gas</text><polygon fill="#181818" points="1926.5,1260.7832,1936.5,1264.7832,1926.5,1268.7832,1930.5,1264.7832" style="stroke:#181818;stroke-width:1.0;"/><line style="stroke:#181818;stroke-width:1.0;" x1="1420.5" x2="1932.5" y1="1264.7832" y2="1264.7832"/><text fill="#000000" font-family="sans-serif" font-size="13" lengthAdjust="spacing" textLength="138" x="1427.5" y="1076.3145">beforeModifyPosition(</text><text fill="#000000" font-family="sans-serif" font-size="13" lengthAdjust="spacing" textLength="143" x="1435.5" y="1091.625">sender: 0xDc64..F6C9,</text><text fill="#000000" font-family="sans-serif" font-size="13" lengthAdjust="spacing" textLength="34" x="1435.5" y="1106.9355">key: [</text><text fill="#000000" font-family="sans-serif" font-size="13" lengthAdjust="spacing" textLength="156" x="1443.5" y="1122.2461">currency0: 0x9fE4..a6e0,</text><text fill="#000000" font-family="sans-serif" font-size="13" lengthAdjust="spacing" textLength="158" x="1443.5" y="1137.5566">currency1: 0xe7f1..0512,</text><text fill="#000000" font-family="sans-serif" font-size="13" lengthAdjust="spacing" textLength="95" x="1443.5" y="1152.8672">fee: 8,388,608,</text><text fill="#000000" font-family="sans-serif" font-size="13" lengthAdjust="spacing" textLength="101" x="1443.5" y="1168.1777">tickSpacing: 60,</text><text fill="#000000" font-family="sans-serif" font-size="13" lengthAdjust="spacing" textLength="139" x="1443.5" y="1183.4883">hooks: 0x3cB2..B33E],</text><text fill="#000000" font-family="sans-serif" font-size="13" lengthAdjust="spacing" textLength="58" x="1435.5" y="1198.7988">params: [</text><text fill="#000000" font-family="sans-serif" font-size="13" lengthAdjust="spacing" textLength="97" x="1443.5" y="1214.1094">tickLower: -60,</text><text fill="#000000" font-family="sans-serif" font-size="13" lengthAdjust="spacing" textLength="89" x="1443.5" y="1229.4199">tickUpper: 60,</text><text fill="#000000" font-family="sans-serif" font-size="13" lengthAdjust="spacing" textLength="261" x="1443.5" y="1244.7305">liquidityDelta: -4000000000000000000])</text><text fill="#000000" font-family="sans-serif" font-size="13" lengthAdjust="spacing" textLength="50" x="1427.5" y="1260.041">560 gas</text><polygon fill="#181818" points="1431.5,1290.0938,1421.5,1294.0938,1431.5,1298.0938,1427.5,1294.0938" style="stroke:#181818;stroke-width:1.0;"/><line style="stroke:#181818;stroke-width:1.0;stroke-dasharray:2.0,2.0;" x1="1425.5" x2="1942.5" y1="1294.0938" y2="1294.0938"/><text fill="#000000" font-family="sans-serif" font-size="13" lengthAdjust="spacing" textLength="137" x="1437.5" y="1289.3516">selector: 0x0dbe5dbd</text><polygon fill="#181818" points="1926.5,1518.4414,1936.5,1522.4414,1926.5,1526.4414,1930.5,1522.4414" style="stroke:#181818;stroke-width:1.0;"/><line style="stroke:#181818;stroke-width:1.0;" x1="1420.5" x2="1932.5" y1="1522.4414" y2="1522.4414"/><text fill="#000000" font-family="sans-serif" font-size="13" lengthAdjust="spacing" textLength="127" x="1427.5" y="1318.6621">afterModifyPosition(</text><text fill="#000000" font-family="sans-serif" font-size="13" lengthAdjust="spacing" textLength="143" x="1435.5" y="1333.9727">sender: 0xDc64..F6C9,</text><text fill="#000000" font-family="sans-serif" font-size="13" lengthAdjust="spacing" textLength="34" x="1435.5" y="1349.2832">key: [</text><text fill="#000000" font-family="sans-serif" font-size="13" lengthAdjust="spacing" textLength="156" x="1443.5" y="1364.5938">currency0: 0x9fE4..a6e0,</text><text fill="#000000" font-family="sans-serif" font-size="13" lengthAdjust="spacing" textLength="158" x="1443.5" y="1379.9043">currency1: 0xe7f1..0512,</text><text fill="#000000" font-family="sans-serif" font-size="13" lengthAdjust="spacing" textLength="95" x="1443.5" y="1395.2148">fee: 8,388,608,</text><text fill="#000000" font-family="sans-serif" font-size="13" lengthAdjust="spacing" textLength="101" x="1443.5" y="1410.5254">tickSpacing: 60,</text><text fill="#000000" font-family="sans-serif" font-size="13" lengthAdjust="spacing" textLength="139" x="1443.5" y="1425.8359">hooks: 0x3cB2..B33E],</text><text fill="#000000" font-family="sans-serif" font-size="13" lengthAdjust="spacing" textLength="58" x="1435.5" y="1441.1465">params: [</text><text fill="#000000" font-family="sans-serif" font-size="13" lengthAdjust="spacing" textLength="97" x="1443.5" y="1456.457">tickLower: -60,</text><text fill="#000000" font-family="sans-serif" font-size="13" lengthAdjust="spacing" textLength="89" x="1443.5" y="1471.7676">tickUpper: 60,</text><text fill="#000000" font-family="sans-serif" font-size="13" lengthAdjust="spacing" textLength="261" x="1443.5" y="1487.0781">liquidityDelta: -4000000000000000000],</text><text fill="#000000" font-family="sans-serif" font-size="13" lengthAdjust="spacing" textLength="491" x="1435.5" y="1502.3887">delta: -8197142890605694701995120405752706867029739591230816256)</text><text fill="#000000" font-family="sans-serif" font-size="13" lengthAdjust="spacing" textLength="50" x="1427.5" y="1517.6992">605 gas</text><polygon fill="#181818" points="1431.5,1547.752,1421.5,1551.752,1431.5,1555.752,1427.5,1551.752" style="stroke:#181818;stroke-width:1.0;"/><line style="stroke:#181818;stroke-width:1.0;stroke-dasharray:2.0,2.0;" x1="1425.5" x2="1942.5" y1="1551.752" y2="1551.752"/><text fill="#000000" font-family="sans-serif" font-size="13" lengthAdjust="spacing" textLength="134" x="1437.5" y="1547.0098">selector: 0x0e2059f5</text><polygon fill="#181818" points="905.5,1577.0625,895.5,1581.0625,905.5,1585.0625,901.5,1581.0625" style="stroke:#181818;stroke-width:1.0;"/><line style="stroke:#181818;stroke-width:1.0;stroke-dasharray:2.0,2.0;" x1="899.5" x2="1404.5" y1="1581.0625" y2="1581.0625"/><text fill="#000000" font-family="sans-serif" font-size="13" lengthAdjust="spacing" textLength="487" x="911.5" y="1576.3203">delta: -8197142890605694701995120405752706867029739591230816256</text><path d="M1420,1594.0625 L1420,1634.0625 L1511,1634.0625 L1511,1604.0625 L1501,1594.0625 L1420,1594.0625 " fill="#FEFFDD" style="stroke:#181818;stroke-width:0.5;"/><path d="M1501,1594.0625 L1501,1604.0625 L1511,1604.0625 L1501,1594.0625 " fill="#FEFFDD" style="stroke:#181818;stroke-width:0.5;"/><text fill="#000000" font-family="sans-serif" font-size="13" lengthAdjust="spacing" textLength="4" x="1426" y="1611.6309">&#160;</text><text fill="#000000" font-family="sans-serif" font-size="13" lengthAdjust="spacing" textLength="70" x="1426" y="1626.9414">91,420 gas</text><line style="stroke:#181818;stroke-width:1.0;" x1="444" x2="454" y1="1706.9258" y2="1702.9258"/><line style="stroke:#181818;stroke-width:1.0;" x1="444" x2="454" y1="1706.9258" y2="1710.9258"/><line style="stroke:#181818;stroke-width:1.0;" x1="443" x2="883.5" y1="1706.9258" y2="1706.9258"/><text fill="#000000" font-family="sans-serif" font-size="13" lengthAdjust="spacing" textLength="159" x="460" y="1656.252">removeLiquidityCallback(</text><text fill="#000000" font-family="sans-serif" font-size="13" lengthAdjust="spacing" textLength="209" x="468" y="1671.5625">callData: 0x00000000..ffb92266,</text><text fill="#000000" font-family="sans-serif" font-size="13" lengthAdjust="spacing" textLength="229" x="468" y="1686.873">resultData: 0x00000000..00000000)</text><text fill="#000000" font-family="sans-serif" font-size="13" lengthAdjust="spacing" textLength="70" x="460" y="1702.1836">35,760 gas</text><line style="stroke:#3471CD;stroke-width:1.0;" x1="624.5" x2="634.5" y1="1782.168" y2="1778.168"/><line style="stroke:#3471CD;stroke-width:1.0;" x1="624.5" x2="634.5" y1="1782.168" y2="1786.168"/><line style="stroke:#3471CD;stroke-width:1.0;" x1="623.5" x2="883.5" y1="1782.168" y2="1782.168"/><text fill="#000000" font-family="sans-serif" font-size="13" lengthAdjust="spacing" textLength="159" x="640.5" y="1731.4941">removeLiquidityCallback(</text><text fill="#000000" font-family="sans-serif" font-size="13" lengthAdjust="spacing" textLength="209" x="648.5" y="1746.8047">callData: 0x00000000..ffb92266,</text><text fill="#000000" font-family="sans-serif" font-size="13" lengthAdjust="spacing" textLength="229" x="648.5" y="1762.1152">resultData: 0x00000000..00000000)</text><text fill="#000000" font-family="sans-serif" font-size="13" lengthAdjust="spacing" textLength="70" x="640.5" y="1777.4258">33,568 gas</text><polygon fill="#3471CD" points="1398.5,1868.7207,1408.5,1872.7207,1398.5,1876.7207,1402.5,1872.7207" style="stroke:#3471CD;stroke-width:1.0;"/><line style="stroke:#3471CD;stroke-width:1.0;" x1="894.5" x2="1404.5" y1="1872.7207" y2="1872.7207"/><text fill="#000000" font-family="sans-serif" font-size="13" lengthAdjust="spacing" textLength="31" x="901.5" y="1806.7363">take(</text><text fill="#000000" font-family="sans-serif" font-size="13" lengthAdjust="spacing" textLength="148" x="909.5" y="1822.0469">currency: 0x9fE4..a6e0,</text><text fill="#000000" font-family="sans-serif" font-size="13" lengthAdjust="spacing" textLength="109" x="909.5" y="1837.3574">to: 0xf39F..2266,</text><text fill="#000000" font-family="sans-serif" font-size="13" lengthAdjust="spacing" textLength="216" x="909.5" y="1852.668">amount: 24,089,237,901,975,176)</text><text fill="#000000" font-family="sans-serif" font-size="13" lengthAdjust="spacing" textLength="70" x="901.5" y="1867.9785">18,856 gas</text><polygon fill="#181818" points="2062,1943.9629,2072,1947.9629,2062,1951.9629,2066,1947.9629" style="stroke:#181818;stroke-width:1.0;"/><line style="stroke:#181818;stroke-width:1.0;" x1="1420.5" x2="2068" y1="1947.9629" y2="1947.9629"/><text fill="#000000" font-family="sans-serif" font-size="13" lengthAdjust="spacing" textLength="53" x="1427.5" y="1897.2891">transfer(</text><text fill="#000000" font-family="sans-serif" font-size="13" lengthAdjust="spacing" textLength="151" x="1435.5" y="1912.5996">recipient: 0xf39F..2266,</text><text fill="#000000" font-family="sans-serif" font-size="13" lengthAdjust="spacing" textLength="216" x="1435.5" y="1927.9102">amount: 24,089,237,901,975,176)</text><text fill="#000000" font-family="sans-serif" font-size="13" lengthAdjust="spacing" textLength="70" x="1427.5" y="1943.2207">12,877 gas</text><polygon fill="#181818" points="1431.5,1973.2734,1421.5,1977.2734,1431.5,1981.2734,1427.5,1977.2734" style="stroke:#181818;stroke-width:1.0;"/><line style="stroke:#181818;stroke-width:1.0;stroke-dasharray:2.0,2.0;" x1="1425.5" x2="2078" y1="1977.2734" y2="1977.2734"/><text fill="#000000" font-family="sans-serif" font-size="13" lengthAdjust="spacing" textLength="25" x="1437.5" y="1972.5313">true</text><polygon fill="#3471CD" points="905.5,1987.2734,895.5,1991.2734,905.5,1995.2734,901.5,1991.2734" style="stroke:#3471CD;stroke-width:1.0;"/><line style="stroke:#3471CD;stroke-width:1.0;stroke-dasharray:2.0,2.0;" x1="899.5" x2="1404.5" y1="1991.2734" y2="1991.2734"/><path d="M1420,2004.2734 L1420,2044.2734 L1503,2044.2734 L1503,2014.2734 L1493,2004.2734 L1420,2004.2734 " fill="#FEFFDD" style="stroke:#181818;stroke-width:0.5;"/><path d="M1493,2004.2734 L1493,2014.2734 L1503,2014.2734 L1493,2004.2734 " fill="#FEFFDD" style="stroke:#181818;stroke-width:0.5;"/><text fill="#000000" font-family="sans-serif" font-size="13" lengthAdjust="spacing" textLength="4" x="1426" y="2021.8418">&#160;</text><text fill="#000000" font-family="sans-serif" font-size="13" lengthAdjust="spacing" textLength="62" x="1426" y="2037.1523">5,979 gas</text><polygon fill="#3471CD" points="1398.5,2128.4473,1408.5,2132.4473,1398.5,2136.4473,1402.5,2132.4473" style="stroke:#3471CD;stroke-width:1.0;"/><line style="stroke:#3471CD;stroke-width:1.0;" x1="894.5" x2="1404.5" y1="2132.4473" y2="2132.4473"/><text fill="#000000" font-family="sans-serif" font-size="13" lengthAdjust="spacing" textLength="31" x="901.5" y="2066.4629">take(</text><text fill="#000000" font-family="sans-serif" font-size="13" lengthAdjust="spacing" textLength="150" x="909.5" y="2081.7734">currency: 0xe7f1..0512,</text><text fill="#000000" font-family="sans-serif" font-size="13" lengthAdjust="spacing" textLength="109" x="909.5" y="2097.084">to: 0xf39F..2266,</text><text fill="#000000" font-family="sans-serif" font-size="13" lengthAdjust="spacing" textLength="68" x="909.5" y="2112.3945">amount: 0)</text><text fill="#000000" font-family="sans-serif" font-size="13" lengthAdjust="spacing" textLength="70" x="901.5" y="2127.7051">13,726 gas</text><polygon fill="#181818" points="2262,2203.6895,2272,2207.6895,2262,2211.6895,2266,2207.6895" style="stroke:#181818;stroke-width:1.0;"/><line style="stroke:#181818;stroke-width:1.0;" x1="1420.5" x2="2268" y1="2207.6895" y2="2207.6895"/><text fill="#000000" font-family="sans-serif" font-size="13" lengthAdjust="spacing" textLength="53" x="1427.5" y="2157.0156">transfer(</text><text fill="#000000" font-family="sans-serif" font-size="13" lengthAdjust="spacing" textLength="151" x="1435.5" y="2172.3262">recipient: 0xf39F..2266,</text><text fill="#000000" font-family="sans-serif" font-size="13" lengthAdjust="spacing" textLength="68" x="1435.5" y="2187.6367">amount: 0)</text><text fill="#000000" font-family="sans-serif" font-size="13" lengthAdjust="spacing" textLength="62" x="1427.5" y="2202.9473">7,277 gas</text><polygon fill="#181818" points="1431.5,2233,1421.5,2237,1431.5,2241,1427.5,2237" style="stroke:#181818;stroke-width:1.0;"/><line style="stroke:#181818;stroke-width:1.0;stroke-dasharray:2.0,2.0;" x1="1425.5" x2="2278" y1="2237" y2="2237"/><text fill="#000000" font-family="sans-serif" font-size="13" lengthAdjust="spacing" textLength="25" x="1437.5" y="2232.2578">true</text><polygon fill="#3471CD" points="905.5,2247,895.5,2251,905.5,2255,901.5,2251" style="stroke:#3471CD;stroke-width:1.0;"/><line style="stroke:#3471CD;stroke-width:1.0;stroke-dasharray:2.0,2.0;" x1="899.5" x2="1404.5" y1="2251" y2="2251"/><path d="M1420,2264 L1420,2304 L1503,2304 L1503,2274 L1493,2264 L1420,2264 " fill="#FEFFDD" style="stroke:#181818;stroke-width:0.5;"/><path d="M1493,2264 L1493,2274 L1503,2274 L1493,2264 " fill="#FEFFDD" style="stroke:#181818;stroke-width:0.5;"/><text fill="#000000" font-family="sans-serif" font-size="13" lengthAdjust="spacing" textLength="4" x="1426" y="2281.5684">&#160;</text><text fill="#000000" font-family="sans-serif" font-size="13" lengthAdjust="spacing" textLength="62" x="1426" y="2296.8789">6,449 gas</text><line style="stroke:#3471CD;stroke-width:1.0;" x1="882.5" x2="872.5" y1="2315.6211" y2="2311.6211"/><line style="stroke:#3471CD;stroke-width:1.0;" x1="882.5" x2="872.5" y1="2315.6211" y2="2319.6211"/><line style="stroke:#3471CD;stroke-width:1.0;stroke-dasharray:2.0,2.0;" x1="618.5" x2="883.5" y1="2315.6211" y2="2315.6211"/><path d="M623,2328.6211 L623,2368.6211 L694,2368.6211 L694,2338.6211 L684,2328.6211 L623,2328.6211 " fill="#FEFFDD" style="stroke:#181818;stroke-width:0.5;"/><path d="M684,2328.6211 L684,2338.6211 L694,2338.6211 L684,2328.6211 " fill="#FEFFDD" style="stroke:#181818;stroke-width:0.5;"/><text fill="#000000" font-family="sans-serif" font-size="13" lengthAdjust="spacing" textLength="4" x="629" y="2346.1895">&#160;</text><text fill="#000000" font-family="sans-serif" font-size="13" lengthAdjust="spacing" textLength="50" x="629" y="2361.5">986 gas</text><line style="stroke:#181818;stroke-width:1.0;" x1="882.5" x2="872.5" y1="2380.2422" y2="2376.2422"/><line style="stroke:#181818;stroke-width:1.0;" x1="882.5" x2="872.5" y1="2380.2422" y2="2384.2422"/><line style="stroke:#181818;stroke-width:1.0;stroke-dasharray:2.0,2.0;" x1="438" x2="883.5" y1="2380.2422" y2="2380.2422"/><path d="M443,2393.2422 L443,2433.2422 L526,2433.2422 L526,2403.2422 L516,2393.2422 L443,2393.2422 " fill="#FEFFDD" style="stroke:#181818;stroke-width:0.5;"/><path d="M516,2393.2422 L516,2403.2422 L526,2403.2422 L516,2393.2422 " fill="#FEFFDD" style="stroke:#181818;stroke-width:0.5;"/><text fill="#000000" font-family="sans-serif" font-size="13" lengthAdjust="spacing" textLength="4" x="449" y="2410.8105">&#160;</text><text fill="#000000" font-family="sans-serif" font-size="13" lengthAdjust="spacing" textLength="62" x="449" y="2426.1211">2,192 gas</text><polygon fill="#181818" points="1393.5,2456.1738,1403.5,2460.1738,1393.5,2464.1738,1397.5,2460.1738" style="stroke:#181818;stroke-width:1.0;"/><line style="stroke:#181818;stroke-width:1.0;stroke-dasharray:2.0,2.0;" x1="889.5" x2="1399.5" y1="2460.1738" y2="2460.1738"/><text fill="#000000" font-family="sans-serif" font-size="13" lengthAdjust="spacing" textLength="152" x="896.5" y="2455.4316">0x00000000..00000000</text><path d="M894,2473.1738 L894,2513.1738 L985,2513.1738 L985,2483.1738 L975,2473.1738 L894,2473.1738 " fill="#FEFFDD" style="stroke:#181818;stroke-width:0.5;"/><path d="M975,2473.1738 L975,2483.1738 L985,2483.1738 L975,2473.1738 " fill="#FEFFDD" style="stroke:#181818;stroke-width:0.5;"/><text fill="#000000" font-family="sans-serif" font-size="13" lengthAdjust="spacing" textLength="4" x="900" y="2490.7422">&#160;</text><text fill="#000000" font-family="sans-serif" font-size="13" lengthAdjust="spacing" textLength="70" x="900" y="2506.0527">84,514 gas</text><polygon fill="#181818" points="900.5,2536.1055,890.5,2540.1055,900.5,2544.1055,896.5,2540.1055" style="stroke:#181818;stroke-width:1.0;"/><line style="stroke:#181818;stroke-width:1.0;stroke-dasharray:2.0,2.0;" x1="894.5" x2="1409.5" y1="2540.1055" y2="2540.1055"/><text fill="#000000" font-family="sans-serif" font-size="13" lengthAdjust="spacing" textLength="196" x="906.5" y="2535.3633">result: 0x00000000..00000000</text><path d="M1415,2553.1055 L1415,2593.1055 L1498,2593.1055 L1498,2563.1055 L1488,2553.1055 L1415,2553.1055 " fill="#FEFFDD" style="stroke:#181818;stroke-width:0.5;"/><path d="M1488,2553.1055 L1488,2563.1055 L1498,2563.1055 L1488,2553.1055 " fill="#FEFFDD" style="stroke:#181818;stroke-width:0.5;"/><text fill="#000000" font-family="sans-serif" font-size="13" lengthAdjust="spacing" textLength="4" x="1421" y="2570.6738">&#160;</text><text fill="#000000" font-family="sans-serif" font-size="13" lengthAdjust="spacing" textLength="62" x="1421" y="2585.9844">8,016 gas</text><polygon fill="#3471CD" points="449,2646.6582,439,2650.6582,449,2654.6582,445,2650.6582" style="stroke:#3471CD;stroke-width:1.0;"/><line style="stroke:#3471CD;stroke-width:1.0;stroke-dasharray:2.0,2.0;" x1="443" x2="883.5" y1="2650.6582" y2="2650.6582"/><text fill="#000000" font-family="sans-serif" font-size="13" lengthAdjust="spacing" textLength="55" x="455" y="2615.2949">results: [</text><text fill="#000000" font-family="sans-serif" font-size="13" lengthAdjust="spacing" textLength="148" x="463" y="2630.6055">0: 0xffffffff..00000000,</text><text fill="#000000" font-family="sans-serif" font-size="13" lengthAdjust="spacing" textLength="36" x="463" y="2645.916">1: 0x]</text><path d="M889,2663.6582 L889,2703.6582 L980,2703.6582 L980,2673.6582 L970,2663.6582 L889,2663.6582 " fill="#FEFFDD" style="stroke:#181818;stroke-width:0.5;"/><path d="M970,2663.6582 L970,2673.6582 L980,2673.6582 L970,2663.6582 " fill="#FEFFDD" style="stroke:#181818;stroke-width:0.5;"/><text fill="#000000" font-family="sans-serif" font-size="13" lengthAdjust="spacing" textLength="4" x="895" y="2681.2266">&#160;</text><text fill="#000000" font-family="sans-serif" font-size="13" lengthAdjust="spacing" textLength="70" x="895" y="2696.5371">11,567 gas</text><line style="stroke:#181818;stroke-width:1.0;" x1="439" x2="449" y1="2715.2793" y2="2711.2793"/><line style="stroke:#181818;stroke-width:1.0;" x1="439" x2="449" y1="2715.2793" y2="2719.2793"/><line style="stroke:#181818;stroke-width:1.0;stroke-dasharray:2.0,2.0;" x1="438" x2="612.5" y1="2715.2793" y2="2715.2793"/><path d="M618,2728.2793 L618,2768.2793 L709,2768.2793 L709,2738.2793 L699,2728.2793 L618,2728.2793 " fill="#FEFFDD" style="stroke:#181818;stroke-width:0.5;"/><path d="M699,2728.2793 L699,2738.2793 L709,2738.2793 L699,2728.2793 " fill="#FEFFDD" style="stroke:#181818;stroke-width:0.5;"/><text fill="#000000" font-family="sans-serif" font-size="13" lengthAdjust="spacing" textLength="4" x="624" y="2745.8477">&#160;</text><text fill="#000000" font-family="sans-serif" font-size="13" lengthAdjust="spacing" textLength="70" x="624" y="2761.1582">11,839 gas</text><polygon fill="#181818" points="118,2821.832,108,2825.832,118,2829.832,114,2825.832" style="stroke:#181818;stroke-width:1.0;"/><line style="stroke:#181818;stroke-width:1.0;stroke-dasharray:2.0,2.0;" x1="112" x2="432" y1="2825.832" y2="2825.832"/><text fill="#000000" font-family="sans-serif" font-size="13" lengthAdjust="spacing" textLength="55" x="124" y="2790.4688">results: [</text><text fill="#000000" font-family="sans-serif" font-size="13" lengthAdjust="spacing" textLength="148" x="132" y="2805.7793">0: 0xffffffff..00000000,</text><text fill="#000000" font-family="sans-serif" font-size="13" lengthAdjust="spacing" textLength="36" x="132" y="2821.0898">1: 0x]</text><path d="M438,2838.832 L438,2878.832 L521,2878.832 L521,2848.832 L511,2838.832 L438,2838.832 " fill="#FEFFDD" style="stroke:#181818;stroke-width:0.5;"/><path d="M511,2838.832 L511,2848.832 L521,2848.832 L511,2838.832 " fill="#FEFFDD" style="stroke:#181818;stroke-width:0.5;"/><text fill="#000000" font-family="sans-serif" font-size="13" lengthAdjust="spacing" textLength="4" x="444" y="2856.4004">&#160;</text><text fill="#000000" font-family="sans-serif" font-size="13" lengthAdjust="spacing" textLength="62" x="444" y="2871.7109">6,797 gas</text><path d="M1269,2889.4531 L1269,2990.4531 L1551,2990.4531 L1551,2899.4531 L1541,2889.4531 L1269,2889.4531 " fill="#00FFFF" style="stroke:#181818;stroke-width:0.5;"/><path d="M1541,2889.4531 L1541,2899.4531 L1551,2899.4531 L1541,2889.4531 " fill="#00FFFF" style="stroke:#181818;stroke-width:0.5;"/><text fill="#000000" font-family="sans-serif" font-size="13" lengthAdjust="spacing" textLength="98" x="1275" y="2907.0215">ModifyPosition:</text><text fill="#000000" font-family="sans-serif" font-size="13" lengthAdjust="spacing" textLength="161" x="1283" y="2922.332">id: 0xf49e1fc4..ade8fcab,</text><text fill="#000000" font-family="sans-serif" font-size="13" lengthAdjust="spacing" textLength="143" x="1283" y="2937.6426">sender: 0xDc64..F6C9,</text><text fill="#000000" font-family="sans-serif" font-size="13" lengthAdjust="spacing" textLength="97" x="1283" y="2952.9531">tickLower: -60,</text><text fill="#000000" font-family="sans-serif" font-size="13" lengthAdjust="spacing" textLength="89" x="1283" y="2968.2637">tickUpper: 60,</text><text fill="#000000" font-family="sans-serif" font-size="13" lengthAdjust="spacing" textLength="253" x="1283" y="2983.5742">liquidityDelta: -4000000000000000000</text><path d="M1966,2889.4531 L1966,2960.4531 L2192,2960.4531 L2192,2899.4531 L2182,2889.4531 L1966,2889.4531 " fill="#00FFFF" style="stroke:#181818;stroke-width:0.5;"/><path d="M2182,2889.4531 L2182,2899.4531 L2192,2899.4531 L2182,2889.4531 " fill="#00FFFF" style="stroke:#181818;stroke-width:0.5;"/><text fill="#000000" font-family="sans-serif" font-size="13" lengthAdjust="spacing" textLength="56" x="1972" y="2907.0215">Transfer:</text><text fill="#000000" font-family="sans-serif" font-size="13" lengthAdjust="spacing" textLength="125" x="1980" y="2922.332">from: 0xCf7E..0Fc9,</text><text fill="#000000" font-family="sans-serif" font-size="13" lengthAdjust="spacing" textLength="109" x="1980" y="2937.6426">to: 0xf39F..2266,</text><text fill="#000000" font-family="sans-serif" font-size="13" lengthAdjust="spacing" textLength="197" x="1980" y="2952.9531">value: 24,089,237,901,975,176</text><path d="M2202,2889.4531 L2202,2960.4531 L2356,2960.4531 L2356,2899.4531 L2346,2889.4531 L2202,2889.4531 " fill="#00FFFF" style="stroke:#181818;stroke-width:0.5;"/><path d="M2346,2889.4531 L2346,2899.4531 L2356,2899.4531 L2346,2889.4531 " fill="#00FFFF" style="stroke:#181818;stroke-width:0.5;"/><text fill="#000000" font-family="sans-serif" font-size="13" lengthAdjust="spacing" textLength="56" x="2208" y="2907.0215">Transfer:</text><text fill="#000000" font-family="sans-serif" font-size="13" lengthAdjust="spacing" textLength="125" x="2216" y="2922.332">from: 0xCf7E..0Fc9,</text><text fill="#000000" font-family="sans-serif" font-size="13" lengthAdjust="spacing" textLength="109" x="2216" y="2937.6426">to: 0xf39F..2266,</text><text fill="#000000" font-family="sans-serif" font-size="13" lengthAdjust="spacing" textLength="49" x="2216" y="2952.9531">value: 0</text><!--SRC=[xLXRRzis57xNho3QbmvWD98YHL8833HEqW9BXY9DzjBcWPQeL8WjkPASoxyVZop9YgsapbOC0pO10Nn8de-7txcHgRDwRj5LdbNtPedkE3f05tPHt5bqbdrVPKbMFwAqB1R8e4z5CVUys2phhCXHNkGMezcyY6zHYD5vaMD4AVfibuWH5Y2Y8agYGACFvvUUYUkYH6_8GnherFSP2yCto5G8H12GjpHbdSNPqkGrh1Dfh7nVI2ARTI22W0uFMrF_u5CpdzjoCjbLdIM-Jum9MjLP0i9GzQ9OrROyosQbAHzt4P8uvBwVXh5k4404OHTXLpLEfNMRfwqgY21iL87YQL7QoUJm40WzDxcv6KCAuXdp_LaGs0O9H10Sql5ZRXPPV6hjnwAutTNKgNNccz2IHXD449ncNTpQdC3MbxQgJowcZEogMvbITmH1MQCE8WYTEjrMz_AYjiX5JDcxq_kzo6CR8Igy3mxYKvc15FX2CS4rum9zkBUPTsuUa3j5X8HFDYDkTL6wi0E5TXX0ph95LaU84ufLYtjLsIH2J78iUUXTjc349uIYaykFdiqJ1CPvNXzd1vC-bY9KDe7Un_cxhpb2I-UJtwpR_0j82CMhihHv_4WSi6Fsf6KMFvsbCBiXhfrDmHo50wLmI5GxwAY-_RmqSPRVH2ZiWBuvJrO04iH7pkr7GN1otKoLrdacitaDa-uOf-liQUO0wgoujsM43bea6BfQBc6e7Pbtntk_A5O0mp4cX8pz_V8rPu9Y8XMwCHKaRNPdd6yxnhm-3Gycapwn6cAuIhHCOmV0EMQARWEqEVXM4NqoFHe0VNaRS4cdnzUJFiyYj2oBs5PLuv3OfNdLkuFqlznPJNbZ6rwcgJnnp9_66dUJe7Rvk7GEw8TAMwtcjSDApRoo_V2TcQyWRFg1nDG6K8KGXiiWyFsGIGBVTRk6ZbeXJgTjpHgnWkwQKPUhFQn8j6QM4bSrIVjTNuEZ0eOvPqzvxXZq-fBbuhshGH62Mjrmsc5tY1jiG6O4AocU8dSWNb_H3eOE0-JtiGkqqYRD3YufYiGcqxNpdjl9POeI-bLdM1H9bZv-AgeCkb2pr-s_A5rTBJMBJRYEPEXOZWwozDZEmJS7dEnyu7RDi53x-ARh5n6QsTJrc_DTtYfN7y48yd3SDBpJSBhEd_yIeI8aJzdiYFDAMw_AtB4qjt1xQQ8ucLcHp99dc3QfknFyJ_G8qStQf5sWg9QKCwL9I4IekIHKQtSOmecGmfNQK8MIC2q3BJHb0L4qP29qpdBhN-4iouZGgUZc_kRswsjEcTrygr6H3YgIIqgAELk7qQ1elN3JWB8uCsqnXXvnl5EGqtIc-qQ_RXd7BrNjG62v7Sfzb-tQxiQwJTiTDl9_mCm0Yr3zu7OmPkQ0yDhSshL9RLACP4nTZDoNJ7i3OXmJfJ4B9DRkEgcbm5H2V57b-b6uHtNjxjJGn4rUfRPyzwFBseytTyrGogURT_jqCGnNXkxt2m4f7ApUYiVzgTmgBozI2Jwb0PPi7zQwfyHVO0tsaPXjyzCXlfAVq5sTrloChzraX4jk5RwuiajnTvt1LBFXsh4SsDBVNA6-vefZGVaGO9rGqJv0m-CfJ6YuYzCLzwR3fEst0MpuRlhBzGj6KkeIMEx9dLki0lqJBHdI7MAfruOCNg1zkBqrtrV6UzgC8m-XB6dsvDhID8QAaLYLncQ6lMVwjBVJ2xtjHkZjrmK7xz5VqSRa_ds-DlcoJGqm5lxnilM-yKOIqkkV3-F5vPcD-vVzJzXuSBW_0G00]--></g></svg>