<?xml version="1.0" encoding="us-ascii" standalone="no"?><svg xmlns="http://www.w3.org/2000/svg" xmlns:xlink="http://www.w3.org/1999/xlink" contentStyleType="text/css" height="1899px" preserveAspectRatio="none" style="width:2456px;height:1899px;background:#FFFFFF;" version="1.1" viewBox="0 0 2456 1899" width="2456px" zoomAndPan="magnify"><defs/><g><text fill="#000000" font-family="sans-serif" font-size="14" font-weight="bold" lengthAdjust="spacing" textLength="578" x="937.5" y="28.5352">0xb89adc24b12077a794a25c1012a0e993950551521b253f2087847d9e0b291e7a</text><text fill="#000000" font-family="sans-serif" font-size="14" lengthAdjust="spacing" textLength="318" x="1067.5" y="1887.3965">none, block 4, Fri, 25 Aug 2023 01:52:30 GMT</text><rect fill="#FFFFFF" height="1363.1172" style="stroke:#181818;stroke-width:1.0;" width="10" x="660" y="303.3926"/><rect fill="#FFFFFF" height="1215.2539" style="stroke:#181818;stroke-width:1.0;" width="10" x="665" y="392.6348"/><rect fill="#FFFFFF" height="1289.1855" style="stroke:#181818;stroke-width:1.0;" width="10" x="1282" y="348.0137"/><rect fill="#FFFFFF" height="498.6953" style="stroke:#181818;stroke-width:1.0;" width="10" x="1287" y="575.0508"/><rect fill="#FFFFFF" height="103.2422" style="stroke:#181818;stroke-width:1.0;" width="10" x="1287" y="1222.9199"/><rect fill="#FFFFFF" height="103.2422" style="stroke:#181818;stroke-width:1.0;" width="10" x="1287" y="1475.3359"/><rect fill="#FFFFFF" height="29.3105" style="stroke:#181818;stroke-width:1.0;" width="10" x="1911" y="772.7773"/><rect fill="#FFFFFF" height="29.3105" style="stroke:#181818;stroke-width:1.0;" width="10" x="1911" y="1015.125"/><rect fill="#FFFFFF" height="29.3105" style="stroke:#181818;stroke-width:1.0;" width="10" x="2047" y="1148.9883"/><rect fill="#FFFFFF" height="29.3105" style="stroke:#181818;stroke-width:1.0;" width="10" x="2047" y="1267.541"/><rect fill="#FFFFFF" height="29.3105" style="stroke:#181818;stroke-width:1.0;" width="10" x="2315" y="1401.4043"/><rect fill="#FFFFFF" height="29.3105" style="stroke:#181818;stroke-width:1.0;" width="10" x="2315" y="1519.957"/><line style="stroke:#181818;stroke-width:0.5;stroke-dasharray:5.0,5.0;" x1="53" x2="53" y1="118.9766" y2="1796.373"/><line style="stroke:#181818;stroke-width:0.5;stroke-dasharray:5.0,5.0;" x1="665" x2="665" y1="118.9766" y2="1796.373"/><line style="stroke:#181818;stroke-width:0.5;stroke-dasharray:5.0,5.0;" x1="1287" x2="1287" y1="118.9766" y2="1796.373"/><line style="stroke:#181818;stroke-width:0.5;stroke-dasharray:5.0,5.0;" x1="1916" x2="1916" y1="118.9766" y2="1796.373"/><line style="stroke:#181818;stroke-width:0.5;stroke-dasharray:5.0,5.0;" x1="2052" x2="2052" y1="118.9766" y2="1796.373"/><line style="stroke:#181818;stroke-width:0.5;stroke-dasharray:5.0,5.0;" x1="2319.5" x2="2319.5" y1="118.9766" y2="1796.373"/><text fill="#000000" font-family="sans-serif" font-size="14" lengthAdjust="spacing" textLength="90" x="5" y="116.0234">0xf39f..2266</text><ellipse cx="53" cy="50.9883" fill="#E2E2F0" rx="8" ry="8" style="stroke:#181818;stroke-width:0.5;"/><path d="M53,58.9883 L53,85.9883 M40,66.9883 L66,66.9883 M53,85.9883 L40,100.9883 M53,85.9883 L66,100.9883 " fill="none" style="stroke:#181818;stroke-width:0.5;"/><text fill="#000000" font-family="sans-serif" font-size="14" lengthAdjust="spacing" textLength="90" x="5" y="1808.9082">0xf39f..2266</text><ellipse cx="53" cy="1820.3613" fill="#E2E2F0" rx="8" ry="8" style="stroke:#181818;stroke-width:0.5;"/><path d="M53,1828.3613 L53,1855.3613 M40,1836.3613 L66,1836.3613 M53,1855.3613 L40,1870.3613 M53,1855.3613 L66,1870.3613 " fill="none" style="stroke:#181818;stroke-width:0.5;"/><rect fill="#E2E2F0" height="46.9766" rx="2.5" ry="2.5" style="stroke:#181818;stroke-width:0.5;" width="188" x="571" y="71"/><text fill="#000000" font-family="sans-serif" font-size="14" font-style="italic" lengthAdjust="spacing" textLength="174" x="578" y="91.5352">&#171;PoolModifyPositionTest&#187;</text><text fill="#000000" font-family="sans-serif" font-size="14" lengthAdjust="spacing" textLength="85" x="622.5" y="108.0234">0xcf7e..0fc9</text><rect fill="#E2E2F0" height="46.9766" rx="2.5" ry="2.5" style="stroke:#181818;stroke-width:0.5;" width="188" x="571" y="1795.373"/><text fill="#000000" font-family="sans-serif" font-size="14" font-style="italic" lengthAdjust="spacing" textLength="174" x="578" y="1815.9082">&#171;PoolModifyPositionTest&#187;</text><text fill="#000000" font-family="sans-serif" font-size="14" lengthAdjust="spacing" textLength="85" x="622.5" y="1832.3965">0xcf7e..0fc9</text><rect fill="#E2E2F0" height="46.9766" rx="2.5" ry="2.5" style="stroke:#181818;stroke-width:0.5;" width="118" x="1228" y="71"/><text fill="#000000" font-family="sans-serif" font-size="14" font-style="italic" lengthAdjust="spacing" textLength="104" x="1235" y="91.5352">&#171;PoolManager&#187;</text><text fill="#000000" font-family="sans-serif" font-size="14" lengthAdjust="spacing" textLength="91" x="1241.5" y="108.0234">0x9fe4..a6e0</text><rect fill="#E2E2F0" height="46.9766" rx="2.5" ry="2.5" style="stroke:#181818;stroke-width:0.5;" width="118" x="1228" y="1795.373"/><text fill="#000000" font-family="sans-serif" font-size="14" font-style="italic" lengthAdjust="spacing" textLength="104" x="1235" y="1815.9082">&#171;PoolManager&#187;</text><text fill="#000000" font-family="sans-serif" font-size="14" lengthAdjust="spacing" textLength="91" x="1241.5" y="1832.3965">0x9fe4..a6e0</text><rect fill="#E2E2F0" height="46.9766" rx="2.5" ry="2.5" style="stroke:#181818;stroke-width:0.5;" width="146" x="1843" y="71"/><text fill="#000000" font-family="sans-serif" font-size="14" font-style="italic" lengthAdjust="spacing" textLength="132" x="1850" y="91.5352">&#171;DynamicFeeHook&#187;</text><text fill="#000000" font-family="sans-serif" font-size="14" lengthAdjust="spacing" textLength="85" x="1873.5" y="108.0234">0x3cfe..9fee</text><rect fill="#E2E2F0" height="46.9766" rx="2.5" ry="2.5" style="stroke:#181818;stroke-width:0.5;" width="146" x="1843" y="1795.373"/><text fill="#000000" font-family="sans-serif" font-size="14" font-style="italic" lengthAdjust="spacing" textLength="132" x="1850" y="1815.9082">&#171;DynamicFeeHook&#187;</text><text fill="#000000" font-family="sans-serif" font-size="14" lengthAdjust="spacing" textLength="85" x="1873.5" y="1832.3965">0x3cfe..9fee</text><rect fill="#E2E2F0" height="46.9766" rx="2.5" ry="2.5" style="stroke:#181818;stroke-width:0.5;" width="106" x="1999" y="71"/><text fill="#000000" font-family="sans-serif" font-size="14" font-style="italic" lengthAdjust="spacing" textLength="88" x="2008" y="91.5352">&#171;TestERC20&#187;</text><text fill="#000000" font-family="sans-serif" font-size="14" lengthAdjust="spacing" textLength="92" x="2006" y="108.0234">0x5fbd..0aa3</text><rect fill="#E2E2F0" height="46.9766" rx="2.5" ry="2.5" style="stroke:#181818;stroke-width:0.5;" width="106" x="1999" y="1795.373"/><text fill="#000000" font-family="sans-serif" font-size="14" font-style="italic" lengthAdjust="spacing" textLength="88" x="2008" y="1815.9082">&#171;TestERC20&#187;</text><text fill="#000000" font-family="sans-serif" font-size="14" lengthAdjust="spacing" textLength="92" x="2006" y="1832.3965">0x5fbd..0aa3</text><rect fill="#E2E2F0" height="46.9766" rx="2.5" ry="2.5" style="stroke:#181818;stroke-width:0.5;" width="107" x="2266.5" y="71"/><text fill="#000000" font-family="sans-serif" font-size="14" font-style="italic" lengthAdjust="spacing" textLength="88" x="2276" y="91.5352">&#171;TestERC20&#187;</text><text fill="#000000" font-family="sans-serif" font-size="14" lengthAdjust="spacing" textLength="93" x="2273.5" y="108.0234">0xe7f1..0512</text><rect fill="#E2E2F0" height="46.9766" rx="2.5" ry="2.5" style="stroke:#181818;stroke-width:0.5;" width="107" x="2266.5" y="1795.373"/><text fill="#000000" font-family="sans-serif" font-size="14" font-style="italic" lengthAdjust="spacing" textLength="88" x="2276" y="1815.9082">&#171;TestERC20&#187;</text><text fill="#000000" font-family="sans-serif" font-size="14" lengthAdjust="spacing" textLength="93" x="2273.5" y="1832.3965">0xe7f1..0512</text><rect fill="#FFFFFF" height="1363.1172" style="stroke:#181818;stroke-width:1.0;" width="10" x="660" y="303.3926"/><rect fill="#FFFFFF" height="1215.2539" style="stroke:#181818;stroke-width:1.0;" width="10" x="665" y="392.6348"/><rect fill="#FFFFFF" height="1289.1855" style="stroke:#181818;stroke-width:1.0;" width="10" x="1282" y="348.0137"/><rect fill="#FFFFFF" height="498.6953" style="stroke:#181818;stroke-width:1.0;" width="10" x="1287" y="575.0508"/><rect fill="#FFFFFF" height="103.2422" style="stroke:#181818;stroke-width:1.0;" width="10" x="1287" y="1222.9199"/><rect fill="#FFFFFF" height="103.2422" style="stroke:#181818;stroke-width:1.0;" width="10" x="1287" y="1475.3359"/><rect fill="#FFFFFF" height="29.3105" style="stroke:#181818;stroke-width:1.0;" width="10" x="1911" y="772.7773"/><rect fill="#FFFFFF" height="29.3105" style="stroke:#181818;stroke-width:1.0;" width="10" x="1911" y="1015.125"/><rect fill="#FFFFFF" height="29.3105" style="stroke:#181818;stroke-width:1.0;" width="10" x="2047" y="1148.9883"/><rect fill="#FFFFFF" height="29.3105" style="stroke:#181818;stroke-width:1.0;" width="10" x="2047" y="1267.541"/><rect fill="#FFFFFF" height="29.3105" style="stroke:#181818;stroke-width:1.0;" width="10" x="2315" y="1401.4043"/><rect fill="#FFFFFF" height="29.3105" style="stroke:#181818;stroke-width:1.0;" width="10" x="2315" y="1519.957"/><polygon fill="#181818" points="648,299.3926,658,303.3926,648,307.3926,652,303.3926" style="stroke:#181818;stroke-width:1.0;"/><line style="stroke:#181818;stroke-width:1.0;" x1="53" x2="654" y1="303.3926" y2="303.3926"/><text fill="#000000" font-family="sans-serif" font-size="13" lengthAdjust="spacing" textLength="99" x="60" y="145.5449">modifyPosition(</text><text fill="#000000" font-family="sans-serif" font-size="13" lengthAdjust="spacing" textLength="34" x="68" y="160.8555">key: [</text><text fill="#000000" font-family="sans-serif" font-size="13" lengthAdjust="spacing" textLength="161" x="76" y="176.166">currency0: 0x5FbD..0aa3,</text><text fill="#000000" font-family="sans-serif" font-size="13" lengthAdjust="spacing" textLength="158" x="76" y="191.4766">currency1: 0xe7f1..0512,</text><text fill="#000000" font-family="sans-serif" font-size="13" lengthAdjust="spacing" textLength="95" x="76" y="206.7871">fee: 8,388,608,</text><text fill="#000000" font-family="sans-serif" font-size="13" lengthAdjust="spacing" textLength="101" x="76" y="222.0977">tickSpacing: 60,</text><text fill="#000000" font-family="sans-serif" font-size="13" lengthAdjust="spacing" textLength="137" x="76" y="237.4082">hooks: 0x3CFe..9feE],</text><text fill="#000000" font-family="sans-serif" font-size="13" lengthAdjust="spacing" textLength="58" x="68" y="252.7188">params: [</text><text fill="#000000" font-family="sans-serif" font-size="13" lengthAdjust="spacing" textLength="129" x="76" y="268.0293">tickLower: -887220,</text><text fill="#000000" font-family="sans-serif" font-size="13" lengthAdjust="spacing" textLength="125" x="76" y="283.3398">tickUpper: 887,220,</text><text fill="#000000" font-family="sans-serif" font-size="13" lengthAdjust="spacing" textLength="289" x="76" y="298.6504">liquidityDelta: 10,,000,000,000,000,000,000])</text><polygon fill="#181818" points="1270,344.0137,1280,348.0137,1270,352.0137,1274,348.0137" style="stroke:#181818;stroke-width:1.0;"/><line style="stroke:#181818;stroke-width:1.0;" x1="670" x2="1276" y1="348.0137" y2="348.0137"/><text fill="#000000" font-family="sans-serif" font-size="13" lengthAdjust="spacing" textLength="31" x="677" y="327.9609">lock(</text><text fill="#000000" font-family="sans-serif" font-size="13" lengthAdjust="spacing" textLength="190" x="685" y="343.2715">data: 0x00000000..89e80000)</text><polygon fill="#181818" points="686,388.6348,676,392.6348,686,396.6348,682,392.6348" style="stroke:#181818;stroke-width:1.0;"/><line style="stroke:#181818;stroke-width:1.0;" x1="680" x2="1281" y1="392.6348" y2="392.6348"/><text fill="#000000" font-family="sans-serif" font-size="13" lengthAdjust="spacing" textLength="87" x="692" y="372.582">lockAcquired(</text><text fill="#000000" font-family="sans-serif" font-size="13" lengthAdjust="spacing" textLength="214" x="700" y="387.8926">rawData: 0x00000000..89e80000)</text><polygon fill="#181818" points="1275,571.0508,1285,575.0508,1275,579.0508,1279,575.0508" style="stroke:#181818;stroke-width:1.0;"/><line style="stroke:#181818;stroke-width:1.0;" x1="675" x2="1281" y1="575.0508" y2="575.0508"/><text fill="#000000" font-family="sans-serif" font-size="13" lengthAdjust="spacing" textLength="99" x="682" y="417.2031">modifyPosition(</text><text fill="#000000" font-family="sans-serif" font-size="13" lengthAdjust="spacing" textLength="34" x="690" y="432.5137">key: [</text><text fill="#000000" font-family="sans-serif" font-size="13" lengthAdjust="spacing" textLength="161" x="698" y="447.8242">currency0: 0x5FbD..0aa3,</text><text fill="#000000" font-family="sans-serif" font-size="13" lengthAdjust="spacing" textLength="158" x="698" y="463.1348">currency1: 0xe7f1..0512,</text><text fill="#000000" font-family="sans-serif" font-size="13" lengthAdjust="spacing" textLength="95" x="698" y="478.4453">fee: 8,388,608,</text><text fill="#000000" font-family="sans-serif" font-size="13" lengthAdjust="spacing" textLength="101" x="698" y="493.7559">tickSpacing: 60,</text><text fill="#000000" font-family="sans-serif" font-size="13" lengthAdjust="spacing" textLength="137" x="698" y="509.0664">hooks: 0x3CFe..9feE],</text><text fill="#000000" font-family="sans-serif" font-size="13" lengthAdjust="spacing" textLength="58" x="690" y="524.377">params: [</text><text fill="#000000" font-family="sans-serif" font-size="13" lengthAdjust="spacing" textLength="129" x="698" y="539.6875">tickLower: -887220,</text><text fill="#000000" font-family="sans-serif" font-size="13" lengthAdjust="spacing" textLength="125" x="698" y="554.998">tickUpper: 887,220,</text><text fill="#000000" font-family="sans-serif" font-size="13" lengthAdjust="spacing" textLength="289" x="698" y="570.3086">liquidityDelta: 10,,000,000,000,000,000,000])</text><polygon fill="#181818" points="1899,768.7773,1909,772.7773,1899,776.7773,1903,772.7773" style="stroke:#181818;stroke-width:1.0;"/><line style="stroke:#181818;stroke-width:1.0;" x1="1297" x2="1905" y1="772.7773" y2="772.7773"/><text fill="#000000" font-family="sans-serif" font-size="13" lengthAdjust="spacing" textLength="138" x="1304" y="599.6191">beforeModifyPosition(</text><text fill="#000000" font-family="sans-serif" font-size="13" lengthAdjust="spacing" textLength="137" x="1312" y="614.9297">sender: 0xCf7E..0Fc9,</text><text fill="#000000" font-family="sans-serif" font-size="13" lengthAdjust="spacing" textLength="34" x="1312" y="630.2402">key: [</text><text fill="#000000" font-family="sans-serif" font-size="13" lengthAdjust="spacing" textLength="161" x="1320" y="645.5508">currency0: 0x5FbD..0aa3,</text><text fill="#000000" font-family="sans-serif" font-size="13" lengthAdjust="spacing" textLength="158" x="1320" y="660.8613">currency1: 0xe7f1..0512,</text><text fill="#000000" font-family="sans-serif" font-size="13" lengthAdjust="spacing" textLength="95" x="1320" y="676.1719">fee: 8,388,608,</text><text fill="#000000" font-family="sans-serif" font-size="13" lengthAdjust="spacing" textLength="101" x="1320" y="691.4824">tickSpacing: 60,</text><text fill="#000000" font-family="sans-serif" font-size="13" lengthAdjust="spacing" textLength="137" x="1320" y="706.793">hooks: 0x3CFe..9feE],</text><text fill="#000000" font-family="sans-serif" font-size="13" lengthAdjust="spacing" textLength="58" x="1312" y="722.1035">params: [</text><text fill="#000000" font-family="sans-serif" font-size="13" lengthAdjust="spacing" textLength="129" x="1320" y="737.4141">tickLower: -887220,</text><text fill="#000000" font-family="sans-serif" font-size="13" lengthAdjust="spacing" textLength="125" x="1320" y="752.7246">tickUpper: 887,220,</text><text fill="#000000" font-family="sans-serif" font-size="13" lengthAdjust="spacing" textLength="289" x="1320" y="768.0352">liquidityDelta: 10,,000,000,000,000,000,000])</text><polygon fill="#181818" points="1308,798.0879,1298,802.0879,1308,806.0879,1304,802.0879" style="stroke:#181818;stroke-width:1.0;"/><line style="stroke:#181818;stroke-width:1.0;stroke-dasharray:2.0,2.0;" x1="1302" x2="1915" y1="802.0879" y2="802.0879"/><text fill="#000000" font-family="sans-serif" font-size="13" lengthAdjust="spacing" textLength="137" x="1314" y="797.3457">selector: 0x0dbe5dbd</text><polygon fill="#181818" points="1899,1011.125,1909,1015.125,1899,1019.125,1903,1015.125" style="stroke:#181818;stroke-width:1.0;"/><line style="stroke:#181818;stroke-width:1.0;" x1="1297" x2="1905" y1="1015.125" y2="1015.125"/><text fill="#000000" font-family="sans-serif" font-size="13" lengthAdjust="spacing" textLength="127" x="1304" y="826.6563">afterModifyPosition(</text><text fill="#000000" font-family="sans-serif" font-size="13" lengthAdjust="spacing" textLength="137" x="1312" y="841.9668">sender: 0xCf7E..0Fc9,</text><text fill="#000000" font-family="sans-serif" font-size="13" lengthAdjust="spacing" textLength="34" x="1312" y="857.2773">key: [</text><text fill="#000000" font-family="sans-serif" font-size="13" lengthAdjust="spacing" textLength="161" x="1320" y="872.5879">currency0: 0x5FbD..0aa3,</text><text fill="#000000" font-family="sans-serif" font-size="13" lengthAdjust="spacing" textLength="158" x="1320" y="887.8984">currency1: 0xe7f1..0512,</text><text fill="#000000" font-family="sans-serif" font-size="13" lengthAdjust="spacing" textLength="95" x="1320" y="903.209">fee: 8,388,608,</text><text fill="#000000" font-family="sans-serif" font-size="13" lengthAdjust="spacing" textLength="101" x="1320" y="918.5195">tickSpacing: 60,</text><text fill="#000000" font-family="sans-serif" font-size="13" lengthAdjust="spacing" textLength="137" x="1320" y="933.8301">hooks: 0x3CFe..9feE],</text><text fill="#000000" font-family="sans-serif" font-size="13" lengthAdjust="spacing" textLength="58" x="1312" y="949.1406">params: [</text><text fill="#000000" font-family="sans-serif" font-size="13" lengthAdjust="spacing" textLength="129" x="1320" y="964.4512">tickLower: -887220,</text><text fill="#000000" font-family="sans-serif" font-size="13" lengthAdjust="spacing" textLength="125" x="1320" y="979.7617">tickUpper: 887,220,</text><text fill="#000000" font-family="sans-serif" font-size="13" lengthAdjust="spacing" textLength="289" x="1320" y="995.0723">liquidityDelta: 10,,000,000,000,000,000,000],</text><text fill="#000000" font-family="sans-serif" font-size="13" lengthAdjust="spacing" textLength="587" x="1312" y="1010.3828">delta: 3,402,823,669,209,384,634,633,746,074,317,682,114,570,,000,000,000,000,000,000)</text><polygon fill="#181818" points="1308,1040.4355,1298,1044.4355,1308,1048.4355,1304,1044.4355" style="stroke:#181818;stroke-width:1.0;"/><line style="stroke:#181818;stroke-width:1.0;stroke-dasharray:2.0,2.0;" x1="1302" x2="1915" y1="1044.4355" y2="1044.4355"/><text fill="#000000" font-family="sans-serif" font-size="13" lengthAdjust="spacing" textLength="134" x="1314" y="1039.6934">selector: 0x0e2059f5</text><polygon fill="#181818" points="686,1069.7461,676,1073.7461,686,1077.7461,682,1073.7461" style="stroke:#181818;stroke-width:1.0;"/><line style="stroke:#181818;stroke-width:1.0;stroke-dasharray:2.0,2.0;" x1="680" x2="1281" y1="1073.7461" y2="1073.7461"/><text fill="#000000" font-family="sans-serif" font-size="13" lengthAdjust="spacing" textLength="583" x="692" y="1069.0039">delta: 3,402,823,669,209,384,634,633,746,074,317,682,114,570,,000,000,000,000,000,000</text><polygon fill="#181818" points="2035,1144.9883,2045,1148.9883,2035,1152.9883,2039,1148.9883" style="stroke:#181818;stroke-width:1.0;"/><line style="stroke:#181818;stroke-width:1.0;" x1="675" x2="2041" y1="1148.9883" y2="1148.9883"/><text fill="#000000" font-family="sans-serif" font-size="13" lengthAdjust="spacing" textLength="85" x="682" y="1098.3145">transferFrom(</text><text fill="#000000" font-family="sans-serif" font-size="13" lengthAdjust="spacing" textLength="138" x="690" y="1113.625">sender: 0xf39F..2266,</text><text fill="#000000" font-family="sans-serif" font-size="13" lengthAdjust="spacing" textLength="149" x="690" y="1128.9355">recipient: 0x9fE4..a6e0,</text><text fill="#000000" font-family="sans-serif" font-size="13" lengthAdjust="spacing" textLength="248" x="690" y="1144.2461">amount: 10,,000,000,000,000,000,000)</text><polygon fill="#181818" points="686,1174.2988,676,1178.2988,686,1182.2988,682,1178.2988" style="stroke:#181818;stroke-width:1.0;"/><line style="stroke:#181818;stroke-width:1.0;stroke-dasharray:2.0,2.0;" x1="680" x2="2051" y1="1178.2988" y2="1178.2988"/><text fill="#000000" font-family="sans-serif" font-size="13" lengthAdjust="spacing" textLength="25" x="692" y="1173.5566">true</text><polygon fill="#181818" points="1275,1218.9199,1285,1222.9199,1275,1226.9199,1279,1222.9199" style="stroke:#181818;stroke-width:1.0;"/><line style="stroke:#181818;stroke-width:1.0;" x1="675" x2="1281" y1="1222.9199" y2="1222.9199"/><text fill="#000000" font-family="sans-serif" font-size="13" lengthAdjust="spacing" textLength="39" x="682" y="1202.8672">settle(</text><text fill="#000000" font-family="sans-serif" font-size="13" lengthAdjust="spacing" textLength="153" x="690" y="1218.1777">currency: 0x5FbD..0aa3)</text><polygon fill="#181818" points="2035,1263.541,2045,1267.541,2035,1271.541,2039,1267.541" style="stroke:#181818;stroke-width:1.0;"/><line style="stroke:#181818;stroke-width:1.0;" x1="1297" x2="2041" y1="1267.541" y2="1267.541"/><text fill="#000000" font-family="sans-serif" font-size="13" lengthAdjust="spacing" textLength="67" x="1304" y="1247.4883">balanceOf(</text><text fill="#000000" font-family="sans-serif" font-size="13" lengthAdjust="spacing" textLength="86" x="1312" y="1262.7988">0x9fE4..a6e0)</text><polygon fill="#181818" points="1308,1292.8516,1298,1296.8516,1308,1300.8516,1304,1296.8516" style="stroke:#181818;stroke-width:1.0;"/><line style="stroke:#181818;stroke-width:1.0;stroke-dasharray:2.0,2.0;" x1="1302" x2="2051" y1="1296.8516" y2="1296.8516"/><text fill="#000000" font-family="sans-serif" font-size="13" lengthAdjust="spacing" textLength="188" x="1314" y="1292.1094">10,,089,770,927,164,204,436</text><polygon fill="#181818" points="686,1322.1621,676,1326.1621,686,1330.1621,682,1326.1621" style="stroke:#181818;stroke-width:1.0;"/><line style="stroke:#181818;stroke-width:1.0;stroke-dasharray:2.0,2.0;" x1="680" x2="1281" y1="1326.1621" y2="1326.1621"/><text fill="#000000" font-family="sans-serif" font-size="13" lengthAdjust="spacing" textLength="223" x="692" y="1321.4199">paid: 10,,000,000,000,000,000,000</text><polygon fill="#181818" points="2303,1397.4043,2313,1401.4043,2303,1405.4043,2307,1401.4043" style="stroke:#181818;stroke-width:1.0;"/><line style="stroke:#181818;stroke-width:1.0;" x1="675" x2="2309" y1="1401.4043" y2="1401.4043"/><text fill="#000000" font-family="sans-serif" font-size="13" lengthAdjust="spacing" textLength="85" x="682" y="1350.7305">transferFrom(</text><text fill="#000000" font-family="sans-serif" font-size="13" lengthAdjust="spacing" textLength="138" x="690" y="1366.041">sender: 0xf39F..2266,</text><text fill="#000000" font-family="sans-serif" font-size="13" lengthAdjust="spacing" textLength="149" x="690" y="1381.3516">recipient: 0x9fE4..a6e0,</text><text fill="#000000" font-family="sans-serif" font-size="13" lengthAdjust="spacing" textLength="248" x="690" y="1396.6621">amount: 10,,000,000,000,000,000,000)</text><polygon fill="#181818" points="686,1426.7148,676,1430.7148,686,1434.7148,682,1430.7148" style="stroke:#181818;stroke-width:1.0;"/><line style="stroke:#181818;stroke-width:1.0;stroke-dasharray:2.0,2.0;" x1="680" x2="2319" y1="1430.7148" y2="1430.7148"/><text fill="#000000" font-family="sans-serif" font-size="13" lengthAdjust="spacing" textLength="25" x="692" y="1425.9727">true</text><polygon fill="#181818" points="1275,1471.3359,1285,1475.3359,1275,1479.3359,1279,1475.3359" style="stroke:#181818;stroke-width:1.0;"/><line style="stroke:#181818;stroke-width:1.0;" x1="675" x2="1281" y1="1475.3359" y2="1475.3359"/><text fill="#000000" font-family="sans-serif" font-size="13" lengthAdjust="spacing" textLength="39" x="682" y="1455.2832">settle(</text><text fill="#000000" font-family="sans-serif" font-size="13" lengthAdjust="spacing" textLength="150" x="690" y="1470.5938">currency: 0xe7f1..0512)</text><polygon fill="#181818" points="2303,1515.957,2313,1519.957,2303,1523.957,2307,1519.957" style="stroke:#181818;stroke-width:1.0;"/><line style="stroke:#181818;stroke-width:1.0;" x1="1297" x2="2309" y1="1519.957" y2="1519.957"/><text fill="#000000" font-family="sans-serif" font-size="13" lengthAdjust="spacing" textLength="67" x="1304" y="1499.9043">balanceOf(</text><text fill="#000000" font-family="sans-serif" font-size="13" lengthAdjust="spacing" textLength="86" x="1312" y="1515.2148">0x9fE4..a6e0)</text><polygon fill="#181818" points="1308,1545.2676,1298,1549.2676,1308,1553.2676,1304,1549.2676" style="stroke:#181818;stroke-width:1.0;"/><line style="stroke:#181818;stroke-width:1.0;stroke-dasharray:2.0,2.0;" x1="1302" x2="2319" y1="1549.2676" y2="1549.2676"/><text fill="#000000" font-family="sans-serif" font-size="13" lengthAdjust="spacing" textLength="188" x="1314" y="1544.5254">10,,089,770,927,164,204,436</text><polygon fill="#181818" points="686,1574.5781,676,1578.5781,686,1582.5781,682,1578.5781" style="stroke:#181818;stroke-width:1.0;"/><line style="stroke:#181818;stroke-width:1.0;stroke-dasharray:2.0,2.0;" x1="680" x2="1281" y1="1578.5781" y2="1578.5781"/><text fill="#000000" font-family="sans-serif" font-size="13" lengthAdjust="spacing" textLength="223" x="692" y="1573.8359">paid: 10,,000,000,000,000,000,000</text><polygon fill="#181818" points="1270,1603.8887,1280,1607.8887,1270,1611.8887,1274,1607.8887" style="stroke:#181818;stroke-width:1.0;"/><line style="stroke:#181818;stroke-width:1.0;stroke-dasharray:2.0,2.0;" x1="670" x2="1276" y1="1607.8887" y2="1607.8887"/><text fill="#000000" font-family="sans-serif" font-size="13" lengthAdjust="spacing" textLength="151" x="677" y="1603.1465">0x00000000..89e80000</text><polygon fill="#181818" points="681,1633.1992,671,1637.1992,681,1641.1992,677,1637.1992" style="stroke:#181818;stroke-width:1.0;"/><line style="stroke:#181818;stroke-width:1.0;stroke-dasharray:2.0,2.0;" x1="675" x2="1286" y1="1637.1992" y2="1637.1992"/><text fill="#000000" font-family="sans-serif" font-size="13" lengthAdjust="spacing" textLength="195" x="687" y="1632.457">result: 0x00000000..89e80000</text><polygon fill="#181818" points="64,1662.5098,54,1666.5098,64,1670.5098,60,1666.5098" style="stroke:#181818;stroke-width:1.0;"/><line style="stroke:#181818;stroke-width:1.0;stroke-dasharray:2.0,2.0;" x1="58" x2="664" y1="1666.5098" y2="1666.5098"/><text fill="#000000" font-family="sans-serif" font-size="13" lengthAdjust="spacing" textLength="583" x="70" y="1661.7676">delta: 3,402,823,669,209,384,634,633,746,074,317,682,114,570,,000,000,000,000,000,000</text><path d="M1132,1679.5098 L1132,1780.5098 L1442,1780.5098 L1442,1689.5098 L1432,1679.5098 L1132,1679.5098 " fill="#00FFFF" style="stroke:#181818;stroke-width:0.5;"/><path d="M1432,1679.5098 L1432,1689.5098 L1442,1689.5098 L1432,1679.5098 " fill="#00FFFF" style="stroke:#181818;stroke-width:0.5;"/><text fill="#000000" font-family="sans-serif" font-size="13" lengthAdjust="spacing" textLength="98" x="1138" y="1697.0781">ModifyPosition:</text><text fill="#000000" font-family="sans-serif" font-size="13" lengthAdjust="spacing" textLength="173" x="1146" y="1712.3887">id: 0x50e49605..64be25a4,</text><text fill="#000000" font-family="sans-serif" font-size="13" lengthAdjust="spacing" textLength="137" x="1146" y="1727.6992">sender: 0xCf7E..0Fc9,</text><text fill="#000000" font-family="sans-serif" font-size="13" lengthAdjust="spacing" textLength="129" x="1146" y="1743.0098">tickLower: -887220,</text><text fill="#000000" font-family="sans-serif" font-size="13" lengthAdjust="spacing" textLength="125" x="1146" y="1758.3203">tickUpper: 887,220,</text><text fill="#000000" font-family="sans-serif" font-size="13" lengthAdjust="spacing" textLength="281" x="1146" y="1773.6309">liquidityDelta: 10,,000,000,000,000,000,000</text><path d="M1923,1679.5098 L1923,1750.5098 L2181,1750.5098 L2181,1689.5098 L2171,1679.5098 L1923,1679.5098 " fill="#00FFFF" style="stroke:#181818;stroke-width:0.5;"/><path d="M2171,1679.5098 L2171,1689.5098 L2181,1689.5098 L2171,1679.5098 " fill="#00FFFF" style="stroke:#181818;stroke-width:0.5;"/><text fill="#000000" font-family="sans-serif" font-size="13" lengthAdjust="spacing" textLength="56" x="1929" y="1697.0781">Transfer:</text><text fill="#000000" font-family="sans-serif" font-size="13" lengthAdjust="spacing" textLength="126" x="1937" y="1712.3887">from: 0xf39F..2266,</text><text fill="#000000" font-family="sans-serif" font-size="13" lengthAdjust="spacing" textLength="107" x="1937" y="1727.6992">to: 0x9fE4..a6e0,</text><text fill="#000000" font-family="sans-serif" font-size="13" lengthAdjust="spacing" textLength="229" x="1937" y="1743.0098">value: 10,,000,000,000,000,000,000</text><path d="M2191,1679.5098 L2191,1750.5098 L2449,1750.5098 L2449,1689.5098 L2439,1679.5098 L2191,1679.5098 " fill="#00FFFF" style="stroke:#181818;stroke-width:0.5;"/><path d="M2439,1679.5098 L2439,1689.5098 L2449,1689.5098 L2439,1679.5098 " fill="#00FFFF" style="stroke:#181818;stroke-width:0.5;"/><text fill="#000000" font-family="sans-serif" font-size="13" lengthAdjust="spacing" textLength="56" x="2197" y="1697.0781">Transfer:</text><text fill="#000000" font-family="sans-serif" font-size="13" lengthAdjust="spacing" textLength="126" x="2205" y="1712.3887">from: 0xf39F..2266,</text><text fill="#000000" font-family="sans-serif" font-size="13" lengthAdjust="spacing" textLength="107" x="2205" y="1727.6992">to: 0x9fE4..a6e0,</text><text fill="#000000" font-family="sans-serif" font-size="13" lengthAdjust="spacing" textLength="229" x="2205" y="1743.0098">value: 10,,000,000,000,000,000,000</text><!--SRC=[xLPDRziu4BtpLn3jPHTWLOeI9L4e0XH9l3qqs6ARdhezKD8mAqIMN8fAutzVZcpPiUCatgBTlKI000tdWs_UZ8PqjMk0yjiYKxegHLo4WgUfJbMiXIn37WhDGQb8IIvbA4LO21aPmRCqYzDA0I-42Y7LX9HwuUgkfMtN0gD5qvNND6PqPcj6XQHlXoigk8We3tCfyeZJFoukYIvTP-aBVciYPO90Y2HvGNLFKKI1aeMshYxhXMuTsfKcXI3WfbIZ7Oeeq3TlFdHTSz5LjLb-wFeQeLn2xqvEzYCe0t4Gw0Ju60555AO8kjLNOE-xHQNn6tjh6DrGHC6xdIrRFQ_B6S2xhhk-xobDKNd8MaUZ9ueeU4y4UFxNgU3tdI0reNUIeHYTK4HXpubiU7frik4Yf_CT6dxxkwNq6fOv_OnVb9Q3jT2MIvxxmijPSRP2ntQr8MgtCDPQdt9ECnPb6KjujbxqmAy_BdHPjrSvJVXwzH_FHez1ejFPYhhpBwFAfwhd_GOEUh_lle7DwQiiIuNWTy9-MYnGuTVPLj7KNuUwgjto31gdSnfonZZdXzullsEFrJVQmOOWikaQpzfK_vnYnuvSLHg3ybk-Ve8WKv3XrvrWan_PDD1E2J3OszB3j52DGQt-TdPCt2T0FfVsO6aFLcFwHtDQWEaiNDpdheUsGX3yzjIavvwEMQdOCwahKYV-Y0KtsDQJrG3Ewx67gm9aLLGF4AwD0_lCzn5yZoxLoYvYCHSi4n5B4iK4LpwFc2KHlX5BuuJnD6PHcB8a4omCOoRJXqCVMqaGN2eZ9zqlmR8ppQOJCAVEwhOtO6Usc-_rXp_PPgiBmSYG1Nysrj0wr2bplZx2HvsUTmCgmgEuc7QVydLsW0U6RG_Etuv6O5FNxRRaKnDecscX6zsMyASPezrDuH5eOqAPOgbdLecKXKdiAn6pE4ecauMkgqSptqbjkaRyFynFk_yuyzlV_IdcjvaUnVm-j9_2_Dhmq84_wIpqG-FoHsr-pGz9sixdtTs0tLw1N-glWoQxOpidb6AYlkqvn2hXCWYIk00XTSp80nET79oQvE389FzgNXA_7KNeXBocsnGsb-fL2fVhxaRmndVuNbiZa6wldVtQZMu6-97TDxVp_shtxm00]--></g></svg>