<?xml version="1.0" encoding="us-ascii" standalone="no"?><svg xmlns="http://www.w3.org/2000/svg" xmlns:xlink="http://www.w3.org/1999/xlink" contentStyleType="text/css" height="709px" preserveAspectRatio="none" style="width:937px;height:709px;background:#FFFFFF;" version="1.1" viewBox="0 0 937 709" width="937px" zoomAndPan="magnify"><defs/><g><text fill="#000000" font-family="sans-serif" font-size="14" font-weight="bold" lengthAdjust="spacing" textLength="197" x="369" y="28.5352">Uniswap v4 - Swap Tokens</text><rect fill="#FFFFFF" height="533.7266" style="stroke:#181818;stroke-width:1.0;" width="10" x="178" y="150.2871"/><rect fill="#FFFFFF" height="490.416" style="stroke:#181818;stroke-width:1.0;" width="10" x="335" y="179.5977"/><rect fill="#FFFFFF" height="403.7949" style="stroke:#181818;stroke-width:1.0;" width="10" x="340" y="238.2188"/><rect fill="#FFFFFF" height="447.1055" style="stroke:#181818;stroke-width:1.0;" width="10" x="479" y="208.9082"/><rect fill="#FFFFFF" height="143.9316" style="stroke:#181818;stroke-width:1.0;" width="10" x="484" y="267.5293"/><rect fill="#FFFFFF" height="57.3105" style="stroke:#181818;stroke-width:1.0;" width="10" x="484" y="484.082"/><rect fill="#FFFFFF" height="57.3105" style="stroke:#181818;stroke-width:1.0;" width="10" x="484" y="570.7031"/><rect fill="#FFFFFF" height="14" style="stroke:#181818;stroke-width:1.0;" width="10" x="621" y="296.8398"/><rect fill="#FFFFFF" height="14" style="stroke:#181818;stroke-width:1.0;" width="10" x="621" y="340.1504"/><rect fill="#FFFFFF" height="14" style="stroke:#181818;stroke-width:1.0;" width="10" x="621" y="383.4609"/><rect fill="#FFFFFF" height="14" style="stroke:#181818;stroke-width:1.0;" width="10" x="756.5" y="440.7715"/><rect fill="#FFFFFF" height="14" style="stroke:#181818;stroke-width:1.0;" width="10" x="756.5" y="513.3926"/><rect fill="#FFFFFF" height="14" style="stroke:#181818;stroke-width:1.0;" width="10" x="872.5" y="600.0137"/><line style="stroke:#181818;stroke-width:0.5;stroke-dasharray:5.0,5.0;" x1="53" x2="53" y1="118.9766" y2="702.0137"/><line style="stroke:#181818;stroke-width:0.5;stroke-dasharray:5.0,5.0;" x1="183" x2="183" y1="118.9766" y2="702.0137"/><line style="stroke:#181818;stroke-width:0.5;stroke-dasharray:5.0,5.0;" x1="340" x2="340" y1="118.9766" y2="702.0137"/><line style="stroke:#181818;stroke-width:0.5;stroke-dasharray:5.0,5.0;" x1="484" x2="484" y1="118.9766" y2="702.0137"/><line style="stroke:#181818;stroke-width:0.5;stroke-dasharray:5.0,5.0;" x1="626" x2="626" y1="118.9766" y2="702.0137"/><line style="stroke:#181818;stroke-width:0.5;stroke-dasharray:5.0,5.0;" x1="761" x2="761" y1="118.9766" y2="702.0137"/><line style="stroke:#181818;stroke-width:0.5;stroke-dasharray:5.0,5.0;" x1="877" x2="877" y1="118.9766" y2="702.0137"/><text fill="#000000" font-family="sans-serif" font-size="14" lengthAdjust="spacing" textLength="90" x="5" y="116.0234">0xf39f..2266</text><ellipse cx="53" cy="50.9883" fill="#E2E2F0" rx="8" ry="8" style="stroke:#181818;stroke-width:0.5;"/><path d="M53,58.9883 L53,85.9883 M40,66.9883 L66,66.9883 M53,85.9883 L40,100.9883 M53,85.9883 L66,100.9883 " fill="none" style="stroke:#181818;stroke-width:0.5;"/><rect fill="#E2E2F0" height="46.9766" rx="2.5" ry="2.5" style="stroke:#181818;stroke-width:0.5;" width="144" x="111" y="71"/><text fill="#000000" font-family="sans-serif" font-size="14" font-style="italic" lengthAdjust="spacing" textLength="130" x="118" y="91.5352">&#171;UniswapV4Caller&#187;</text><text fill="#000000" font-family="sans-serif" font-size="14" lengthAdjust="spacing" textLength="92" x="137" y="108.0234">0x5fc8..5707</text><rect fill="#E2E2F0" height="46.9766" rx="2.5" ry="2.5" style="stroke:#181818;stroke-width:0.5;" width="150" x="265" y="71"/><text fill="#000000" font-family="sans-serif" font-size="14" font-style="italic" lengthAdjust="spacing" textLength="136" x="272" y="91.5352">&#171;UniswapV4Router&#187;</text><text fill="#000000" font-family="sans-serif" font-size="14" lengthAdjust="spacing" textLength="90" x="295" y="108.0234">0xdc64..f6c9</text><rect fill="#E2E2F0" height="46.9766" rx="2.5" ry="2.5" style="stroke:#181818;stroke-width:0.5;" width="118" x="425" y="71"/><text fill="#000000" font-family="sans-serif" font-size="14" font-style="italic" lengthAdjust="spacing" textLength="104" x="432" y="91.5352">&#171;PoolManager&#187;</text><text fill="#000000" font-family="sans-serif" font-size="14" lengthAdjust="spacing" textLength="85" x="441.5" y="108.0234">0xcf7e..0fc9</text><rect fill="#E2E2F0" height="46.9766" rx="2.5" ry="2.5" style="stroke:#181818;stroke-width:0.5;" width="146" x="553" y="71"/><text fill="#000000" font-family="sans-serif" font-size="14" font-style="italic" lengthAdjust="spacing" textLength="132" x="560" y="91.5352">&#171;DynamicFeeHook&#187;</text><text fill="#000000" font-family="sans-serif" font-size="14" lengthAdjust="spacing" textLength="95" x="578.5" y="108.0234">0x3cb2..b33e</text><rect fill="#E2E2F0" height="63.4648" rx="2.5" ry="2.5" style="stroke:#181818;stroke-width:0.5;" width="105" x="709" y="54.5117"/><text fill="#000000" font-family="sans-serif" font-size="14" font-style="italic" lengthAdjust="spacing" textLength="62" x="730.5" y="75.0469">&#171;token0&#187;</text><text fill="#000000" font-family="sans-serif" font-size="14" font-style="italic" lengthAdjust="spacing" textLength="88" x="717.5" y="91.5352">&#171;TestERC20&#187;</text><text fill="#000000" font-family="sans-serif" font-size="14" lengthAdjust="spacing" textLength="91" x="716" y="108.0234">0x9fe4..a6e0</text><rect fill="#E2E2F0" height="63.4648" rx="2.5" ry="2.5" style="stroke:#181818;stroke-width:0.5;" width="107" x="824" y="54.5117"/><text fill="#000000" font-family="sans-serif" font-size="14" font-style="italic" lengthAdjust="spacing" textLength="62" x="846.5" y="75.0469">&#171;token1&#187;</text><text fill="#000000" font-family="sans-serif" font-size="14" font-style="italic" lengthAdjust="spacing" textLength="88" x="833.5" y="91.5352">&#171;TestERC20&#187;</text><text fill="#000000" font-family="sans-serif" font-size="14" lengthAdjust="spacing" textLength="93" x="831" y="108.0234">0xe7f1..0512</text><rect fill="#FFFFFF" height="533.7266" style="stroke:#181818;stroke-width:1.0;" width="10" x="178" y="150.2871"/><rect fill="#FFFFFF" height="490.416" style="stroke:#181818;stroke-width:1.0;" width="10" x="335" y="179.5977"/><rect fill="#FFFFFF" height="403.7949" style="stroke:#181818;stroke-width:1.0;" width="10" x="340" y="238.2188"/><rect fill="#FFFFFF" height="447.1055" style="stroke:#181818;stroke-width:1.0;" width="10" x="479" y="208.9082"/><rect fill="#FFFFFF" height="143.9316" style="stroke:#181818;stroke-width:1.0;" width="10" x="484" y="267.5293"/><rect fill="#FFFFFF" height="57.3105" style="stroke:#181818;stroke-width:1.0;" width="10" x="484" y="484.082"/><rect fill="#FFFFFF" height="57.3105" style="stroke:#181818;stroke-width:1.0;" width="10" x="484" y="570.7031"/><rect fill="#FFFFFF" height="14" style="stroke:#181818;stroke-width:1.0;" width="10" x="621" y="296.8398"/><rect fill="#FFFFFF" height="14" style="stroke:#181818;stroke-width:1.0;" width="10" x="621" y="340.1504"/><rect fill="#FFFFFF" height="14" style="stroke:#181818;stroke-width:1.0;" width="10" x="621" y="383.4609"/><rect fill="#FFFFFF" height="14" style="stroke:#181818;stroke-width:1.0;" width="10" x="756.5" y="440.7715"/><rect fill="#FFFFFF" height="14" style="stroke:#181818;stroke-width:1.0;" width="10" x="756.5" y="513.3926"/><rect fill="#FFFFFF" height="14" style="stroke:#181818;stroke-width:1.0;" width="10" x="872.5" y="600.0137"/><polygon fill="#181818" points="166,146.2871,176,150.2871,166,154.2871,170,150.2871" style="stroke:#181818;stroke-width:1.0;"/><line style="stroke:#181818;stroke-width:1.0;" x1="53" x2="172" y1="150.2871" y2="150.2871"/><text fill="#000000" font-family="sans-serif" font-size="13" lengthAdjust="spacing" textLength="32" x="60" y="145.5449">swap</text><polygon fill="#181818" points="323,175.5977,333,179.5977,323,183.5977,327,179.5977" style="stroke:#181818;stroke-width:1.0;"/><line style="stroke:#181818;stroke-width:1.0;" x1="188" x2="329" y1="179.5977" y2="179.5977"/><text fill="#000000" font-family="sans-serif" font-size="13" lengthAdjust="spacing" textLength="49" x="195" y="174.8555">process</text><polygon fill="#181818" points="467,204.9082,477,208.9082,467,212.9082,471,208.9082" style="stroke:#181818;stroke-width:1.0;"/><line style="stroke:#181818;stroke-width:1.0;" x1="345" x2="473" y1="208.9082" y2="208.9082"/><text fill="#000000" font-family="sans-serif" font-size="13" lengthAdjust="spacing" textLength="27" x="352" y="204.166">lock</text><polygon fill="#181818" points="361,234.2188,351,238.2188,361,242.2188,357,238.2188" style="stroke:#181818;stroke-width:1.0;"/><line style="stroke:#181818;stroke-width:1.0;" x1="355" x2="478" y1="238.2188" y2="238.2188"/><text fill="#000000" font-family="sans-serif" font-size="13" lengthAdjust="spacing" textLength="83" x="367" y="233.4766">lockAcquired</text><polygon fill="#181818" points="472,263.5293,482,267.5293,472,271.5293,476,267.5293" style="stroke:#181818;stroke-width:1.0;"/><line style="stroke:#181818;stroke-width:1.0;" x1="350" x2="478" y1="267.5293" y2="267.5293"/><text fill="#000000" font-family="sans-serif" font-size="13" lengthAdjust="spacing" textLength="32" x="357" y="262.7871">swap</text><polygon fill="#181818" points="609,292.8398,619,296.8398,609,300.8398,613,296.8398" style="stroke:#181818;stroke-width:1.0;"/><line style="stroke:#181818;stroke-width:1.0;" x1="494" x2="615" y1="296.8398" y2="296.8398"/><text fill="#000000" font-family="sans-serif" font-size="13" lengthAdjust="spacing" textLength="72" x="501" y="292.0977">beforeSwap</text><polygon fill="#181818" points="505,306.8398,495,310.8398,505,314.8398,501,310.8398" style="stroke:#181818;stroke-width:1.0;"/><line style="stroke:#181818;stroke-width:1.0;stroke-dasharray:2.0,2.0;" x1="499" x2="625" y1="310.8398" y2="310.8398"/><polygon fill="#181818" points="609,336.1504,619,340.1504,609,344.1504,613,340.1504" style="stroke:#181818;stroke-width:1.0;"/><line style="stroke:#181818;stroke-width:1.0;" x1="494" x2="615" y1="340.1504" y2="340.1504"/><text fill="#000000" font-family="sans-serif" font-size="13" lengthAdjust="spacing" textLength="41" x="501" y="335.4082">getFee</text><polygon fill="#181818" points="505,350.1504,495,354.1504,505,358.1504,501,354.1504" style="stroke:#181818;stroke-width:1.0;"/><line style="stroke:#181818;stroke-width:1.0;stroke-dasharray:2.0,2.0;" x1="499" x2="625" y1="354.1504" y2="354.1504"/><polygon fill="#181818" points="609,379.4609,619,383.4609,609,387.4609,613,383.4609" style="stroke:#181818;stroke-width:1.0;"/><line style="stroke:#181818;stroke-width:1.0;" x1="494" x2="615" y1="383.4609" y2="383.4609"/><text fill="#000000" font-family="sans-serif" font-size="13" lengthAdjust="spacing" textLength="61" x="501" y="378.7188">afterSwap</text><polygon fill="#181818" points="505,393.4609,495,397.4609,505,401.4609,501,397.4609" style="stroke:#181818;stroke-width:1.0;"/><line style="stroke:#181818;stroke-width:1.0;stroke-dasharray:2.0,2.0;" x1="499" x2="625" y1="397.4609" y2="397.4609"/><polygon fill="#181818" points="361,407.4609,351,411.4609,361,415.4609,357,411.4609" style="stroke:#181818;stroke-width:1.0;"/><line style="stroke:#181818;stroke-width:1.0;stroke-dasharray:2.0,2.0;" x1="355" x2="478" y1="411.4609" y2="411.4609"/><polygon fill="#181818" points="744.5,436.7715,754.5,440.7715,744.5,444.7715,748.5,440.7715" style="stroke:#181818;stroke-width:1.0;"/><line style="stroke:#181818;stroke-width:1.0;" x1="350" x2="750.5" y1="440.7715" y2="440.7715"/><text fill="#000000" font-family="sans-serif" font-size="13" lengthAdjust="spacing" textLength="81" x="357" y="436.0293">transferFrom</text><polygon fill="#181818" points="361,450.7715,351,454.7715,361,458.7715,357,454.7715" style="stroke:#181818;stroke-width:1.0;"/><line style="stroke:#181818;stroke-width:1.0;stroke-dasharray:2.0,2.0;" x1="355" x2="760.5" y1="454.7715" y2="454.7715"/><polygon fill="#181818" points="472,480.082,482,484.082,472,488.082,476,484.082" style="stroke:#181818;stroke-width:1.0;"/><line style="stroke:#181818;stroke-width:1.0;" x1="350" x2="478" y1="484.082" y2="484.082"/><text fill="#000000" font-family="sans-serif" font-size="13" lengthAdjust="spacing" textLength="35" x="357" y="479.3398">settle</text><polygon fill="#181818" points="744.5,509.3926,754.5,513.3926,744.5,517.3926,748.5,513.3926" style="stroke:#181818;stroke-width:1.0;"/><line style="stroke:#181818;stroke-width:1.0;" x1="494" x2="750.5" y1="513.3926" y2="513.3926"/><text fill="#000000" font-family="sans-serif" font-size="13" lengthAdjust="spacing" textLength="63" x="501" y="508.6504">balanceOf</text><polygon fill="#181818" points="505,523.3926,495,527.3926,505,531.3926,501,527.3926" style="stroke:#181818;stroke-width:1.0;"/><line style="stroke:#181818;stroke-width:1.0;stroke-dasharray:2.0,2.0;" x1="499" x2="760.5" y1="527.3926" y2="527.3926"/><polygon fill="#181818" points="361,537.3926,351,541.3926,361,545.3926,357,541.3926" style="stroke:#181818;stroke-width:1.0;"/><line style="stroke:#181818;stroke-width:1.0;stroke-dasharray:2.0,2.0;" x1="355" x2="478" y1="541.3926" y2="541.3926"/><polygon fill="#181818" points="472,566.7031,482,570.7031,472,574.7031,476,570.7031" style="stroke:#181818;stroke-width:1.0;"/><line style="stroke:#181818;stroke-width:1.0;" x1="350" x2="478" y1="570.7031" y2="570.7031"/><text fill="#000000" font-family="sans-serif" font-size="13" lengthAdjust="spacing" textLength="27" x="357" y="565.9609">take</text><polygon fill="#181818" points="860.5,596.0137,870.5,600.0137,860.5,604.0137,864.5,600.0137" style="stroke:#181818;stroke-width:1.0;"/><line style="stroke:#181818;stroke-width:1.0;" x1="494" x2="866.5" y1="600.0137" y2="600.0137"/><text fill="#000000" font-family="sans-serif" font-size="13" lengthAdjust="spacing" textLength="49" x="501" y="595.2715">transfer</text><polygon fill="#181818" points="505,610.0137,495,614.0137,505,618.0137,501,614.0137" style="stroke:#181818;stroke-width:1.0;"/><line style="stroke:#181818;stroke-width:1.0;stroke-dasharray:2.0,2.0;" x1="499" x2="876.5" y1="614.0137" y2="614.0137"/><polygon fill="#181818" points="361,624.0137,351,628.0137,361,632.0137,357,628.0137" style="stroke:#181818;stroke-width:1.0;"/><line style="stroke:#181818;stroke-width:1.0;stroke-dasharray:2.0,2.0;" x1="355" x2="478" y1="628.0137" y2="628.0137"/><polygon fill="#181818" points="467,638.0137,477,642.0137,467,646.0137,471,642.0137" style="stroke:#181818;stroke-width:1.0;"/><line style="stroke:#181818;stroke-width:1.0;stroke-dasharray:2.0,2.0;" x1="345" x2="473" y1="642.0137" y2="642.0137"/><polygon fill="#181818" points="356,652.0137,346,656.0137,356,660.0137,352,656.0137" style="stroke:#181818;stroke-width:1.0;"/><line style="stroke:#181818;stroke-width:1.0;stroke-dasharray:2.0,2.0;" x1="350" x2="483" y1="656.0137" y2="656.0137"/><polygon fill="#181818" points="199,666.0137,189,670.0137,199,674.0137,195,670.0137" style="stroke:#181818;stroke-width:1.0;"/><line style="stroke:#181818;stroke-width:1.0;stroke-dasharray:2.0,2.0;" x1="193" x2="339" y1="670.0137" y2="670.0137"/><polygon fill="#181818" points="64,680.0137,54,684.0137,64,688.0137,60,684.0137" style="stroke:#181818;stroke-width:1.0;"/><line style="stroke:#181818;stroke-width:1.0;stroke-dasharray:2.0,2.0;" x1="58" x2="182" y1="684.0137" y2="684.0137"/><!--SRC=[bPDVJy8m5CNV-oaQtcd61aCMiiIWn1UZ0VMzAxUuRApO5SHlR-z2D_uCqAVkzDvVJtlQcTJaGD-BjFpcQxhjqowTuzURog0eoMUw02gLCedQ4SA5KPfsl9qCHf8ntm_33kKbHOc2aZNN9XNfcXS6-mPIt34s67h3gWyb2ZeUxnq_-XEUvw3Z-1HTYB3Fc0p5g49HeZX4PsfZsb0XXy2O9_SeIXGMVLKgV-O5NxPXWKXynf8WW0f3YS9Y3py5NwLY2l2aL7PEZYJOlV8Gl8f4YSAI1cFqudWyVeFIFCucldUEmr3sx7u7FR_2KQ9mUEyK9tNUtRZEDA8O2bvHkkK6wdbIXswRNOeHNMibe2oRVbSYTTAstqKNqLo9h6bsywJEzcXnRBuNNvjKm-BF3iVRRtLmLnBH1AJIC3z2N9LeC1jTN22NOEmz_fVYqhwqwtRxuV1mxY54r6XUb1BqLAjLiuIhjx47mO2n_-YDQ1ghXEUy4F0YB_jSjJCyksNcNcXphWPmjHElQyCl]--></g></svg>