<?xml version="1.0" encoding="us-ascii" standalone="no"?><svg xmlns="http://www.w3.org/2000/svg" xmlns:xlink="http://www.w3.org/1999/xlink" contentStyleType="text/css" height="1384px" preserveAspectRatio="none" style="width:852px;height:1384px;background:#FFFFFF;" version="1.1" viewBox="0 0 852 1384" width="852px" zoomAndPan="magnify"><defs/><g><text fill="#000000" font-family="sans-serif" font-size="14" font-weight="bold" lengthAdjust="spacing" textLength="561" x="144.5" y="28.5352">0xfa251126a2003db9eedaf37f0c295dd502cdb650afb6bfe055b9c9cdcd724130</text><text fill="#000000" font-family="sans-serif" font-size="14" lengthAdjust="spacing" textLength="348" x="251" y="1372.0801">mainnet, block 4, Thu, 24 Aug 2023 09:35:49 GMT</text><rect fill="#FFFFFF" height="970.2852" style="stroke:#181818;stroke-width:1.0;" width="10" x="200" y="180.9082"/><rect fill="#FFFFFF" height="791.8008" style="stroke:#181818;stroke-width:1.0;" width="10" x="205" y="270.1504"/><rect fill="#FFFFFF" height="881.043" style="stroke:#181818;stroke-width:1.0;" width="10" x="363" y="225.5293"/><rect fill="#FFFFFF" height="299.6582" style="stroke:#181818;stroke-width:1.0;" width="10" x="368" y="330.082"/><rect fill="#FFFFFF" height="118.5527" style="stroke:#181818;stroke-width:1.0;" width="10" x="368" y="704.9824"/><rect fill="#FFFFFF" height="118.5527" style="stroke:#181818;stroke-width:1.0;" width="10" x="368" y="898.7773"/><rect fill="#FFFFFF" height="44.6211" style="stroke:#181818;stroke-width:1.0;" width="10" x="535" y="405.3242"/><rect fill="#FFFFFF" height="44.6211" style="stroke:#181818;stroke-width:1.0;" width="10" x="535" y="540.498"/><rect fill="#FFFFFF" height="44.6211" style="stroke:#181818;stroke-width:1.0;" width="10" x="671" y="764.9141"/><rect fill="#FFFFFF" height="44.6211" style="stroke:#181818;stroke-width:1.0;" width="10" x="787.5" y="958.709"/><line style="stroke:#181818;stroke-width:0.5;stroke-dasharray:5.0,5.0;" x1="53" x2="53" y1="118.9766" y2="1281.0566"/><line style="stroke:#181818;stroke-width:0.5;stroke-dasharray:5.0,5.0;" x1="205" x2="205" y1="118.9766" y2="1281.0566"/><line style="stroke:#181818;stroke-width:0.5;stroke-dasharray:5.0,5.0;" x1="368" x2="368" y1="118.9766" y2="1281.0566"/><line style="stroke:#181818;stroke-width:0.5;stroke-dasharray:5.0,5.0;" x1="540" x2="540" y1="118.9766" y2="1281.0566"/><line style="stroke:#181818;stroke-width:0.5;stroke-dasharray:5.0,5.0;" x1="676" x2="676" y1="118.9766" y2="1281.0566"/><line style="stroke:#181818;stroke-width:0.5;stroke-dasharray:5.0,5.0;" x1="792" x2="792" y1="118.9766" y2="1281.0566"/><text fill="#000000" font-family="sans-serif" font-size="14" lengthAdjust="spacing" textLength="90" x="5" y="116.0234">0xf39f..2266</text><ellipse cx="53" cy="50.9883" fill="#E2E2F0" rx="8" ry="8" style="stroke:#181818;stroke-width:0.5;"/><path d="M53,58.9883 L53,85.9883 M40,66.9883 L66,66.9883 M53,85.9883 L40,100.9883 M53,85.9883 L66,100.9883 " fill="none" style="stroke:#181818;stroke-width:0.5;"/><text fill="#000000" font-family="sans-serif" font-size="14" lengthAdjust="spacing" textLength="90" x="5" y="1293.5918">0xf39f..2266</text><ellipse cx="53" cy="1305.0449" fill="#E2E2F0" rx="8" ry="8" style="stroke:#181818;stroke-width:0.5;"/><path d="M53,1313.0449 L53,1340.0449 M40,1321.0449 L66,1321.0449 M53,1340.0449 L40,1355.0449 M53,1340.0449 L66,1355.0449 " fill="none" style="stroke:#181818;stroke-width:0.5;"/><rect fill="#E2E2F0" height="46.9766" rx="2.5" ry="2.5" style="stroke:#181818;stroke-width:0.5;" width="188" x="111" y="71"/><text fill="#000000" font-family="sans-serif" font-size="14" font-style="italic" lengthAdjust="spacing" textLength="174" x="118" y="91.5352">&#171;PoolModifyPositionTest&#187;</text><text fill="#000000" font-family="sans-serif" font-size="14" lengthAdjust="spacing" textLength="85" x="162.5" y="108.0234">0xcf7e..0fc9</text><rect fill="#E2E2F0" height="46.9766" rx="2.5" ry="2.5" style="stroke:#181818;stroke-width:0.5;" width="188" x="111" y="1280.0566"/><text fill="#000000" font-family="sans-serif" font-size="14" font-style="italic" lengthAdjust="spacing" textLength="174" x="118" y="1300.5918">&#171;PoolModifyPositionTest&#187;</text><text fill="#000000" font-family="sans-serif" font-size="14" lengthAdjust="spacing" textLength="85" x="162.5" y="1317.0801">0xcf7e..0fc9</text><rect fill="#E2E2F0" height="46.9766" rx="2.5" ry="2.5" style="stroke:#181818;stroke-width:0.5;" width="118" x="309" y="71"/><text fill="#000000" font-family="sans-serif" font-size="14" font-style="italic" lengthAdjust="spacing" textLength="104" x="316" y="91.5352">&#171;PoolManager&#187;</text><text fill="#000000" font-family="sans-serif" font-size="14" lengthAdjust="spacing" textLength="91" x="322.5" y="108.0234">0x9fe4..a6e0</text><rect fill="#E2E2F0" height="46.9766" rx="2.5" ry="2.5" style="stroke:#181818;stroke-width:0.5;" width="118" x="309" y="1280.0566"/><text fill="#000000" font-family="sans-serif" font-size="14" font-style="italic" lengthAdjust="spacing" textLength="104" x="316" y="1300.5918">&#171;PoolManager&#187;</text><text fill="#000000" font-family="sans-serif" font-size="14" lengthAdjust="spacing" textLength="91" x="322.5" y="1317.0801">0x9fe4..a6e0</text><rect fill="#E2E2F0" height="46.9766" rx="2.5" ry="2.5" style="stroke:#181818;stroke-width:0.5;" width="146" x="467" y="71"/><text fill="#000000" font-family="sans-serif" font-size="14" font-style="italic" lengthAdjust="spacing" textLength="132" x="474" y="91.5352">&#171;DynamicFeeHook&#187;</text><text fill="#000000" font-family="sans-serif" font-size="14" lengthAdjust="spacing" textLength="85" x="497.5" y="108.0234">0x3cfe..9fee</text><rect fill="#E2E2F0" height="46.9766" rx="2.5" ry="2.5" style="stroke:#181818;stroke-width:0.5;" width="146" x="467" y="1280.0566"/><text fill="#000000" font-family="sans-serif" font-size="14" font-style="italic" lengthAdjust="spacing" textLength="132" x="474" y="1300.5918">&#171;DynamicFeeHook&#187;</text><text fill="#000000" font-family="sans-serif" font-size="14" lengthAdjust="spacing" textLength="85" x="497.5" y="1317.0801">0x3cfe..9fee</text><rect fill="#E2E2F0" height="46.9766" rx="2.5" ry="2.5" style="stroke:#181818;stroke-width:0.5;" width="106" x="623" y="71"/><text fill="#000000" font-family="sans-serif" font-size="14" font-style="italic" lengthAdjust="spacing" textLength="88" x="632" y="91.5352">&#171;TestERC20&#187;</text><text fill="#000000" font-family="sans-serif" font-size="14" lengthAdjust="spacing" textLength="92" x="630" y="108.0234">0x5fbd..0aa3</text><rect fill="#E2E2F0" height="46.9766" rx="2.5" ry="2.5" style="stroke:#181818;stroke-width:0.5;" width="106" x="623" y="1280.0566"/><text fill="#000000" font-family="sans-serif" font-size="14" font-style="italic" lengthAdjust="spacing" textLength="88" x="632" y="1300.5918">&#171;TestERC20&#187;</text><text fill="#000000" font-family="sans-serif" font-size="14" lengthAdjust="spacing" textLength="92" x="630" y="1317.0801">0x5fbd..0aa3</text><rect fill="#E2E2F0" height="46.9766" rx="2.5" ry="2.5" style="stroke:#181818;stroke-width:0.5;" width="107" x="739" y="71"/><text fill="#000000" font-family="sans-serif" font-size="14" font-style="italic" lengthAdjust="spacing" textLength="88" x="748.5" y="91.5352">&#171;TestERC20&#187;</text><text fill="#000000" font-family="sans-serif" font-size="14" lengthAdjust="spacing" textLength="93" x="746" y="108.0234">0xe7f1..0512</text><rect fill="#E2E2F0" height="46.9766" rx="2.5" ry="2.5" style="stroke:#181818;stroke-width:0.5;" width="107" x="739" y="1280.0566"/><text fill="#000000" font-family="sans-serif" font-size="14" font-style="italic" lengthAdjust="spacing" textLength="88" x="748.5" y="1300.5918">&#171;TestERC20&#187;</text><text fill="#000000" font-family="sans-serif" font-size="14" lengthAdjust="spacing" textLength="93" x="746" y="1317.0801">0xe7f1..0512</text><rect fill="#FFFFFF" height="970.2852" style="stroke:#181818;stroke-width:1.0;" width="10" x="200" y="180.9082"/><rect fill="#FFFFFF" height="791.8008" style="stroke:#181818;stroke-width:1.0;" width="10" x="205" y="270.1504"/><rect fill="#FFFFFF" height="881.043" style="stroke:#181818;stroke-width:1.0;" width="10" x="363" y="225.5293"/><rect fill="#FFFFFF" height="299.6582" style="stroke:#181818;stroke-width:1.0;" width="10" x="368" y="330.082"/><rect fill="#FFFFFF" height="118.5527" style="stroke:#181818;stroke-width:1.0;" width="10" x="368" y="704.9824"/><rect fill="#FFFFFF" height="118.5527" style="stroke:#181818;stroke-width:1.0;" width="10" x="368" y="898.7773"/><rect fill="#FFFFFF" height="44.6211" style="stroke:#181818;stroke-width:1.0;" width="10" x="535" y="405.3242"/><rect fill="#FFFFFF" height="44.6211" style="stroke:#181818;stroke-width:1.0;" width="10" x="535" y="540.498"/><rect fill="#FFFFFF" height="44.6211" style="stroke:#181818;stroke-width:1.0;" width="10" x="671" y="764.9141"/><rect fill="#FFFFFF" height="44.6211" style="stroke:#181818;stroke-width:1.0;" width="10" x="787.5" y="958.709"/><polygon fill="#181818" points="188,176.9082,198,180.9082,188,184.9082,192,180.9082" style="stroke:#181818;stroke-width:1.0;"/><line style="stroke:#181818;stroke-width:1.0;" x1="53" x2="194" y1="180.9082" y2="180.9082"/><text fill="#000000" font-family="sans-serif" font-size="13" lengthAdjust="spacing" textLength="99" x="60" y="145.5449">modifyPosition(</text><text fill="#000000" font-family="sans-serif" font-size="13" lengthAdjust="spacing" textLength="26" x="68" y="160.8555">key,</text><text fill="#000000" font-family="sans-serif" font-size="13" lengthAdjust="spacing" textLength="50" x="68" y="176.166">params)</text><polygon fill="#181818" points="351,221.5293,361,225.5293,351,229.5293,355,225.5293" style="stroke:#181818;stroke-width:1.0;"/><line style="stroke:#181818;stroke-width:1.0;" x1="210" x2="357" y1="225.5293" y2="225.5293"/><text fill="#000000" font-family="sans-serif" font-size="13" lengthAdjust="spacing" textLength="31" x="217" y="205.4766">lock(</text><text fill="#000000" font-family="sans-serif" font-size="13" lengthAdjust="spacing" textLength="31" x="225" y="220.7871">data)</text><polygon fill="#181818" points="226,266.1504,216,270.1504,226,274.1504,222,270.1504" style="stroke:#181818;stroke-width:1.0;"/><line style="stroke:#181818;stroke-width:1.0;" x1="220" x2="362" y1="270.1504" y2="270.1504"/><text fill="#000000" font-family="sans-serif" font-size="13" lengthAdjust="spacing" textLength="87" x="232" y="250.0977">lockAcquired(</text><text fill="#000000" font-family="sans-serif" font-size="13" lengthAdjust="spacing" textLength="55" x="240" y="265.4082">rawData)</text><polygon fill="#181818" points="356,326.082,366,330.082,356,334.082,360,330.082" style="stroke:#181818;stroke-width:1.0;"/><line style="stroke:#181818;stroke-width:1.0;" x1="215" x2="362" y1="330.082" y2="330.082"/><text fill="#000000" font-family="sans-serif" font-size="13" lengthAdjust="spacing" textLength="99" x="222" y="294.7188">modifyPosition(</text><text fill="#000000" font-family="sans-serif" font-size="13" lengthAdjust="spacing" textLength="26" x="230" y="310.0293">key,</text><text fill="#000000" font-family="sans-serif" font-size="13" lengthAdjust="spacing" textLength="50" x="230" y="325.3398">params)</text><polygon fill="#181818" points="523,401.3242,533,405.3242,523,409.3242,527,405.3242" style="stroke:#181818;stroke-width:1.0;"/><line style="stroke:#181818;stroke-width:1.0;" x1="378" x2="529" y1="405.3242" y2="405.3242"/><text fill="#000000" font-family="sans-serif" font-size="13" lengthAdjust="spacing" textLength="138" x="385" y="354.6504">beforeModifyPosition(</text><text fill="#000000" font-family="sans-serif" font-size="13" lengthAdjust="spacing" textLength="46" x="393" y="369.9609">sender,</text><text fill="#000000" font-family="sans-serif" font-size="13" lengthAdjust="spacing" textLength="26" x="393" y="385.2715">key,</text><text fill="#000000" font-family="sans-serif" font-size="13" lengthAdjust="spacing" textLength="50" x="393" y="400.582">params)</text><polygon fill="#181818" points="389,445.9453,379,449.9453,389,453.9453,385,449.9453" style="stroke:#181818;stroke-width:1.0;"/><line style="stroke:#181818;stroke-width:1.0;stroke-dasharray:2.0,2.0;" x1="383" x2="539" y1="449.9453" y2="449.9453"/><text fill="#000000" font-family="sans-serif" font-size="13" lengthAdjust="spacing" textLength="4" x="395" y="429.8926">&#160;</text><text fill="#000000" font-family="sans-serif" font-size="13" lengthAdjust="spacing" textLength="50" x="403" y="445.2031">selector</text><polygon fill="#181818" points="523,536.498,533,540.498,523,544.498,527,540.498" style="stroke:#181818;stroke-width:1.0;"/><line style="stroke:#181818;stroke-width:1.0;" x1="378" x2="529" y1="540.498" y2="540.498"/><text fill="#000000" font-family="sans-serif" font-size="13" lengthAdjust="spacing" textLength="127" x="385" y="474.5137">afterModifyPosition(</text><text fill="#000000" font-family="sans-serif" font-size="13" lengthAdjust="spacing" textLength="46" x="393" y="489.8242">sender,</text><text fill="#000000" font-family="sans-serif" font-size="13" lengthAdjust="spacing" textLength="26" x="393" y="505.1348">key,</text><text fill="#000000" font-family="sans-serif" font-size="13" lengthAdjust="spacing" textLength="50" x="393" y="520.4453">params,</text><text fill="#000000" font-family="sans-serif" font-size="13" lengthAdjust="spacing" textLength="35" x="393" y="535.7559">delta)</text><polygon fill="#181818" points="389,581.1191,379,585.1191,389,589.1191,385,585.1191" style="stroke:#181818;stroke-width:1.0;"/><line style="stroke:#181818;stroke-width:1.0;stroke-dasharray:2.0,2.0;" x1="383" x2="539" y1="585.1191" y2="585.1191"/><text fill="#000000" font-family="sans-serif" font-size="13" lengthAdjust="spacing" textLength="4" x="395" y="565.0664">&#160;</text><text fill="#000000" font-family="sans-serif" font-size="13" lengthAdjust="spacing" textLength="50" x="403" y="580.377">selector</text><polygon fill="#181818" points="226,625.7402,216,629.7402,226,633.7402,222,629.7402" style="stroke:#181818;stroke-width:1.0;"/><line style="stroke:#181818;stroke-width:1.0;stroke-dasharray:2.0,2.0;" x1="220" x2="362" y1="629.7402" y2="629.7402"/><text fill="#000000" font-family="sans-serif" font-size="13" lengthAdjust="spacing" textLength="4" x="232" y="609.6875">&#160;</text><text fill="#000000" font-family="sans-serif" font-size="13" lengthAdjust="spacing" textLength="31" x="240" y="624.998">delta</text><polygon fill="#181818" points="356,700.9824,366,704.9824,356,708.9824,360,704.9824" style="stroke:#181818;stroke-width:1.0;"/><line style="stroke:#181818;stroke-width:1.0;" x1="215" x2="362" y1="704.9824" y2="704.9824"/><text fill="#000000" font-family="sans-serif" font-size="13" lengthAdjust="spacing" textLength="31" x="222" y="654.3086">take(</text><text fill="#000000" font-family="sans-serif" font-size="13" lengthAdjust="spacing" textLength="58" x="230" y="669.6191">currency,</text><text fill="#000000" font-family="sans-serif" font-size="13" lengthAdjust="spacing" textLength="17" x="230" y="684.9297">to,</text><text fill="#000000" font-family="sans-serif" font-size="13" lengthAdjust="spacing" textLength="52" x="230" y="700.2402">amount)</text><polygon fill="#181818" points="659,760.9141,669,764.9141,659,768.9141,663,764.9141" style="stroke:#181818;stroke-width:1.0;"/><line style="stroke:#181818;stroke-width:1.0;" x1="378" x2="665" y1="764.9141" y2="764.9141"/><text fill="#000000" font-family="sans-serif" font-size="13" lengthAdjust="spacing" textLength="53" x="385" y="729.5508">transfer(</text><text fill="#000000" font-family="sans-serif" font-size="13" lengthAdjust="spacing" textLength="59" x="393" y="744.8613">recipient,</text><text fill="#000000" font-family="sans-serif" font-size="13" lengthAdjust="spacing" textLength="52" x="393" y="760.1719">amount)</text><polygon fill="#181818" points="389,805.5352,379,809.5352,389,813.5352,385,809.5352" style="stroke:#181818;stroke-width:1.0;"/><line style="stroke:#181818;stroke-width:1.0;stroke-dasharray:2.0,2.0;" x1="383" x2="675" y1="809.5352" y2="809.5352"/><text fill="#000000" font-family="sans-serif" font-size="13" lengthAdjust="spacing" textLength="4" x="395" y="789.4824">&#160;</text><text fill="#000000" font-family="sans-serif" font-size="13" lengthAdjust="spacing" textLength="5" x="395" y="804.793">?</text><polygon fill="#181818" points="226,819.5352,216,823.5352,226,827.5352,222,823.5352" style="stroke:#181818;stroke-width:1.0;"/><line style="stroke:#181818;stroke-width:1.0;stroke-dasharray:2.0,2.0;" x1="220" x2="362" y1="823.5352" y2="823.5352"/><polygon fill="#181818" points="356,894.7773,366,898.7773,356,902.7773,360,898.7773" style="stroke:#181818;stroke-width:1.0;"/><line style="stroke:#181818;stroke-width:1.0;" x1="215" x2="362" y1="898.7773" y2="898.7773"/><text fill="#000000" font-family="sans-serif" font-size="13" lengthAdjust="spacing" textLength="31" x="222" y="848.1035">take(</text><text fill="#000000" font-family="sans-serif" font-size="13" lengthAdjust="spacing" textLength="58" x="230" y="863.4141">currency,</text><text fill="#000000" font-family="sans-serif" font-size="13" lengthAdjust="spacing" textLength="17" x="230" y="878.7246">to,</text><text fill="#000000" font-family="sans-serif" font-size="13" lengthAdjust="spacing" textLength="52" x="230" y="894.0352">amount)</text><polygon fill="#181818" points="775.5,954.709,785.5,958.709,775.5,962.709,779.5,958.709" style="stroke:#181818;stroke-width:1.0;"/><line style="stroke:#181818;stroke-width:1.0;" x1="378" x2="781.5" y1="958.709" y2="958.709"/><text fill="#000000" font-family="sans-serif" font-size="13" lengthAdjust="spacing" textLength="53" x="385" y="923.3457">transfer(</text><text fill="#000000" font-family="sans-serif" font-size="13" lengthAdjust="spacing" textLength="59" x="393" y="938.6563">recipient,</text><text fill="#000000" font-family="sans-serif" font-size="13" lengthAdjust="spacing" textLength="52" x="393" y="953.9668">amount)</text><polygon fill="#181818" points="389,999.3301,379,1003.3301,389,1007.3301,385,1003.3301" style="stroke:#181818;stroke-width:1.0;"/><line style="stroke:#181818;stroke-width:1.0;stroke-dasharray:2.0,2.0;" x1="383" x2="791.5" y1="1003.3301" y2="1003.3301"/><text fill="#000000" font-family="sans-serif" font-size="13" lengthAdjust="spacing" textLength="4" x="395" y="983.2773">&#160;</text><text fill="#000000" font-family="sans-serif" font-size="13" lengthAdjust="spacing" textLength="5" x="395" y="998.5879">?</text><polygon fill="#181818" points="226,1013.3301,216,1017.3301,226,1021.3301,222,1017.3301" style="stroke:#181818;stroke-width:1.0;"/><line style="stroke:#181818;stroke-width:1.0;stroke-dasharray:2.0,2.0;" x1="220" x2="362" y1="1017.3301" y2="1017.3301"/><polygon fill="#181818" points="351,1057.9512,361,1061.9512,351,1065.9512,355,1061.9512" style="stroke:#181818;stroke-width:1.0;"/><line style="stroke:#181818;stroke-width:1.0;stroke-dasharray:2.0,2.0;" x1="210" x2="357" y1="1061.9512" y2="1061.9512"/><text fill="#000000" font-family="sans-serif" font-size="13" lengthAdjust="spacing" textLength="4" x="217" y="1041.8984">&#160;</text><text fill="#000000" font-family="sans-serif" font-size="13" lengthAdjust="spacing" textLength="5" x="217" y="1057.209">?</text><polygon fill="#181818" points="221,1102.5723,211,1106.5723,221,1110.5723,217,1106.5723" style="stroke:#181818;stroke-width:1.0;"/><line style="stroke:#181818;stroke-width:1.0;stroke-dasharray:2.0,2.0;" x1="215" x2="367" y1="1106.5723" y2="1106.5723"/><text fill="#000000" font-family="sans-serif" font-size="13" lengthAdjust="spacing" textLength="4" x="227" y="1086.5195">&#160;</text><text fill="#000000" font-family="sans-serif" font-size="13" lengthAdjust="spacing" textLength="36" x="235" y="1101.8301">result</text><polygon fill="#181818" points="64,1147.1934,54,1151.1934,64,1155.1934,60,1151.1934" style="stroke:#181818;stroke-width:1.0;"/><line style="stroke:#181818;stroke-width:1.0;stroke-dasharray:2.0,2.0;" x1="58" x2="204" y1="1151.1934" y2="1151.1934"/><text fill="#000000" font-family="sans-serif" font-size="13" lengthAdjust="spacing" textLength="4" x="70" y="1131.1406">&#160;</text><text fill="#000000" font-family="sans-serif" font-size="13" lengthAdjust="spacing" textLength="31" x="78" y="1146.4512">delta</text><path d="M307,1164.1934 L307,1265.1934 L429,1265.1934 L429,1174.1934 L419,1164.1934 L307,1164.1934 " fill="#00FFFF" style="stroke:#181818;stroke-width:0.5;"/><path d="M419,1164.1934 L419,1174.1934 L429,1174.1934 L419,1164.1934 " fill="#00FFFF" style="stroke:#181818;stroke-width:0.5;"/><text fill="#000000" font-family="sans-serif" font-size="13" lengthAdjust="spacing" textLength="98" x="313" y="1181.7617">ModifyPosition:</text><text fill="#000000" font-family="sans-serif" font-size="13" lengthAdjust="spacing" textLength="16" x="329" y="1197.0723">id,</text><text fill="#000000" font-family="sans-serif" font-size="13" lengthAdjust="spacing" textLength="46" x="329" y="1212.3828">sender,</text><text fill="#000000" font-family="sans-serif" font-size="13" lengthAdjust="spacing" textLength="65" x="329" y="1227.6934">tickLower,</text><text fill="#000000" font-family="sans-serif" font-size="13" lengthAdjust="spacing" textLength="65" x="329" y="1243.0039">tickUpper,</text><text fill="#000000" font-family="sans-serif" font-size="13" lengthAdjust="spacing" textLength="85" x="329" y="1258.3145">liquidityDelta</text><path d="M637,1164.1934 L637,1235.1934 L714,1235.1934 L714,1174.1934 L704,1164.1934 L637,1164.1934 " fill="#00FFFF" style="stroke:#181818;stroke-width:0.5;"/><path d="M704,1164.1934 L704,1174.1934 L714,1174.1934 L704,1164.1934 " fill="#00FFFF" style="stroke:#181818;stroke-width:0.5;"/><text fill="#000000" font-family="sans-serif" font-size="13" lengthAdjust="spacing" textLength="56" x="643" y="1181.7617">Transfer:</text><text fill="#000000" font-family="sans-serif" font-size="13" lengthAdjust="spacing" textLength="34" x="659" y="1197.0723">from,</text><text fill="#000000" font-family="sans-serif" font-size="13" lengthAdjust="spacing" textLength="17" x="659" y="1212.3828">to,</text><text fill="#000000" font-family="sans-serif" font-size="13" lengthAdjust="spacing" textLength="33" x="659" y="1227.6934">value</text><path d="M754,1164.1934 L754,1235.1934 L831,1235.1934 L831,1174.1934 L821,1164.1934 L754,1164.1934 " fill="#00FFFF" style="stroke:#181818;stroke-width:0.5;"/><path d="M821,1164.1934 L821,1174.1934 L831,1174.1934 L821,1164.1934 " fill="#00FFFF" style="stroke:#181818;stroke-width:0.5;"/><text fill="#000000" font-family="sans-serif" font-size="13" lengthAdjust="spacing" textLength="56" x="760" y="1181.7617">Transfer:</text><text fill="#000000" font-family="sans-serif" font-size="13" lengthAdjust="spacing" textLength="34" x="776" y="1197.0723">from,</text><text fill="#000000" font-family="sans-serif" font-size="13" lengthAdjust="spacing" textLength="17" x="776" y="1212.3828">to,</text><text fill="#000000" font-family="sans-serif" font-size="13" lengthAdjust="spacing" textLength="33" x="776" y="1227.6934">value</text><!--SRC=[jLHRRziW67tdLw3kPPEoZE3OaQEgKxNkyh18rPIzxUKpV7Ge3gGOjyk_7-3OQP9Ur4dB2noBSydXuhMlaR8_2dW-cV02E6EPh4f42IgRAIPucKkPCovaLUGCL5LK2bcULwKeXHHongUJZ14YOEErDNGDsXZq8rhLLgpeT4INlziHvLDwsTvGpdX6MJdFylcqf5yNImB2MqVFGeIiLECnvqLnHg6X4KP0oGQSrq9lmFYuJgWPZiTCYJAjYp02Udv-RMszi5AhxRLjT4opnCPVN1mhb0gdup4Ko992X17q2c3W1jqfBHCg68VLc6WHHX1eLri3Qos-87wpTdNAp5KbGsI0B34ZZ20mOy3FFpvnTah2cPe4KZxXYHHX14SaClJq_cBeOaxN1pMy_MKeNU5s5CTW0-lcNInUtu77WKM6AeDKNygSncrC0X8yFA3rAyZGtq62IBiKjwrsA1FTmVtLeS8Bng_v3u-6wNTeJYjKrk7YLB118z6DdjNkPOX3tphJqMgCv_O9Er0UtMlSqbHYVL3FSxxxJudrH8CULfYCHUiS6j5PUfi6MDlM-9SwxCzg47DW6eMksqmC1rMZyOzBzQmXvyVTxFy5xU_7wuBshDEWnnywiQQj_KdvnDWWPU_GxT-IDt3R0Zay0tD2mq_BKHftXo7DmxrVVRVt3-7FpQQ7jGxNI6g_lKfsWKUZ8o4VwDvvU5Gwv-MkXCvJERlUITjkl8EwnIUaXgVcdwJ-0W00]--></g></svg>