<?xml version="1.0" encoding="us-ascii" standalone="no"?><svg xmlns="http://www.w3.org/2000/svg" xmlns:xlink="http://www.w3.org/1999/xlink" contentStyleType="text/css" height="1751px" preserveAspectRatio="none" style="width:2144px;height:1751px;background:#FFFFFF;" version="1.1" viewBox="0 0 2144 1751" width="2144px" zoomAndPan="magnify"><defs/><g><text fill="#000000" font-family="sans-serif" font-size="14" font-weight="bold" lengthAdjust="spacing" textLength="561" x="790" y="28.5352">0xfa251126a2003db9eedaf37f0c295dd502cdb650afb6bfe055b9c9cdcd724130</text><text fill="#000000" font-family="sans-serif" font-size="14" lengthAdjust="spacing" textLength="339" x="901" y="1739.5332">mainnet, block 4, Fri, 25 Aug 2023 01:52:30 GMT</text><rect fill="#FFFFFF" height="1215.2539" style="stroke:#181818;stroke-width:1.0;" width="10" x="572" y="303.3926"/><rect fill="#FFFFFF" height="1067.3906" style="stroke:#181818;stroke-width:1.0;" width="10" x="577" y="392.6348"/><rect fill="#FFFFFF" height="1141.3223" style="stroke:#181818;stroke-width:1.0;" width="10" x="1106" y="348.0137"/><rect fill="#FFFFFF" height="498.6953" style="stroke:#181818;stroke-width:1.0;" width="10" x="1111" y="575.0508"/><rect fill="#FFFFFF" height="103.2422" style="stroke:#181818;stroke-width:1.0;" width="10" x="1111" y="1148.9883"/><rect fill="#FFFFFF" height="103.2422" style="stroke:#181818;stroke-width:1.0;" width="10" x="1111" y="1327.4727"/><rect fill="#FFFFFF" height="29.3105" style="stroke:#181818;stroke-width:1.0;" width="10" x="1647" y="772.7773"/><rect fill="#FFFFFF" height="29.3105" style="stroke:#181818;stroke-width:1.0;" width="10" x="1647" y="1015.125"/><rect fill="#FFFFFF" height="29.3105" style="stroke:#181818;stroke-width:1.0;" width="10" x="1783" y="1208.9199"/><rect fill="#FFFFFF" height="29.3105" style="stroke:#181818;stroke-width:1.0;" width="10" x="2019" y="1387.4043"/><line style="stroke:#181818;stroke-width:0.5;stroke-dasharray:5.0,5.0;" x1="53" x2="53" y1="118.9766" y2="1648.5098"/><line style="stroke:#181818;stroke-width:0.5;stroke-dasharray:5.0,5.0;" x1="577" x2="577" y1="118.9766" y2="1648.5098"/><line style="stroke:#181818;stroke-width:0.5;stroke-dasharray:5.0,5.0;" x1="1111" x2="1111" y1="118.9766" y2="1648.5098"/><line style="stroke:#181818;stroke-width:0.5;stroke-dasharray:5.0,5.0;" x1="1652" x2="1652" y1="118.9766" y2="1648.5098"/><line style="stroke:#181818;stroke-width:0.5;stroke-dasharray:5.0,5.0;" x1="1788" x2="1788" y1="118.9766" y2="1648.5098"/><line style="stroke:#181818;stroke-width:0.5;stroke-dasharray:5.0,5.0;" x1="2023.5" x2="2023.5" y1="118.9766" y2="1648.5098"/><text fill="#000000" font-family="sans-serif" font-size="14" lengthAdjust="spacing" textLength="90" x="5" y="116.0234">0xf39f..2266</text><ellipse cx="53" cy="50.9883" fill="#E2E2F0" rx="8" ry="8" style="stroke:#181818;stroke-width:0.5;"/><path d="M53,58.9883 L53,85.9883 M40,66.9883 L66,66.9883 M53,85.9883 L40,100.9883 M53,85.9883 L66,100.9883 " fill="none" style="stroke:#181818;stroke-width:0.5;"/><text fill="#000000" font-family="sans-serif" font-size="14" lengthAdjust="spacing" textLength="90" x="5" y="1661.0449">0xf39f..2266</text><ellipse cx="53" cy="1672.498" fill="#E2E2F0" rx="8" ry="8" style="stroke:#181818;stroke-width:0.5;"/><path d="M53,1680.498 L53,1707.498 M40,1688.498 L66,1688.498 M53,1707.498 L40,1722.498 M53,1707.498 L66,1722.498 " fill="none" style="stroke:#181818;stroke-width:0.5;"/><rect fill="#E2E2F0" height="46.9766" rx="2.5" ry="2.5" style="stroke:#181818;stroke-width:0.5;" width="188" x="483" y="71"/><text fill="#000000" font-family="sans-serif" font-size="14" font-style="italic" lengthAdjust="spacing" textLength="174" x="490" y="91.5352">&#171;PoolModifyPositionTest&#187;</text><text fill="#000000" font-family="sans-serif" font-size="14" lengthAdjust="spacing" textLength="85" x="534.5" y="108.0234">0xcf7e..0fc9</text><rect fill="#E2E2F0" height="46.9766" rx="2.5" ry="2.5" style="stroke:#181818;stroke-width:0.5;" width="188" x="483" y="1647.5098"/><text fill="#000000" font-family="sans-serif" font-size="14" font-style="italic" lengthAdjust="spacing" textLength="174" x="490" y="1668.0449">&#171;PoolModifyPositionTest&#187;</text><text fill="#000000" font-family="sans-serif" font-size="14" lengthAdjust="spacing" textLength="85" x="534.5" y="1684.5332">0xcf7e..0fc9</text><rect fill="#E2E2F0" height="46.9766" rx="2.5" ry="2.5" style="stroke:#181818;stroke-width:0.5;" width="118" x="1052" y="71"/><text fill="#000000" font-family="sans-serif" font-size="14" font-style="italic" lengthAdjust="spacing" textLength="104" x="1059" y="91.5352">&#171;PoolManager&#187;</text><text fill="#000000" font-family="sans-serif" font-size="14" lengthAdjust="spacing" textLength="91" x="1065.5" y="108.0234">0x9fe4..a6e0</text><rect fill="#E2E2F0" height="46.9766" rx="2.5" ry="2.5" style="stroke:#181818;stroke-width:0.5;" width="118" x="1052" y="1647.5098"/><text fill="#000000" font-family="sans-serif" font-size="14" font-style="italic" lengthAdjust="spacing" textLength="104" x="1059" y="1668.0449">&#171;PoolManager&#187;</text><text fill="#000000" font-family="sans-serif" font-size="14" lengthAdjust="spacing" textLength="91" x="1065.5" y="1684.5332">0x9fe4..a6e0</text><rect fill="#E2E2F0" height="46.9766" rx="2.5" ry="2.5" style="stroke:#181818;stroke-width:0.5;" width="146" x="1579" y="71"/><text fill="#000000" font-family="sans-serif" font-size="14" font-style="italic" lengthAdjust="spacing" textLength="132" x="1586" y="91.5352">&#171;DynamicFeeHook&#187;</text><text fill="#000000" font-family="sans-serif" font-size="14" lengthAdjust="spacing" textLength="85" x="1609.5" y="108.0234">0x3cfe..9fee</text><rect fill="#E2E2F0" height="46.9766" rx="2.5" ry="2.5" style="stroke:#181818;stroke-width:0.5;" width="146" x="1579" y="1647.5098"/><text fill="#000000" font-family="sans-serif" font-size="14" font-style="italic" lengthAdjust="spacing" textLength="132" x="1586" y="1668.0449">&#171;DynamicFeeHook&#187;</text><text fill="#000000" font-family="sans-serif" font-size="14" lengthAdjust="spacing" textLength="85" x="1609.5" y="1684.5332">0x3cfe..9fee</text><rect fill="#E2E2F0" height="46.9766" rx="2.5" ry="2.5" style="stroke:#181818;stroke-width:0.5;" width="106" x="1735" y="71"/><text fill="#000000" font-family="sans-serif" font-size="14" font-style="italic" lengthAdjust="spacing" textLength="88" x="1744" y="91.5352">&#171;TestERC20&#187;</text><text fill="#000000" font-family="sans-serif" font-size="14" lengthAdjust="spacing" textLength="92" x="1742" y="108.0234">0x5fbd..0aa3</text><rect fill="#E2E2F0" height="46.9766" rx="2.5" ry="2.5" style="stroke:#181818;stroke-width:0.5;" width="106" x="1735" y="1647.5098"/><text fill="#000000" font-family="sans-serif" font-size="14" font-style="italic" lengthAdjust="spacing" textLength="88" x="1744" y="1668.0449">&#171;TestERC20&#187;</text><text fill="#000000" font-family="sans-serif" font-size="14" lengthAdjust="spacing" textLength="92" x="1742" y="1684.5332">0x5fbd..0aa3</text><rect fill="#E2E2F0" height="46.9766" rx="2.5" ry="2.5" style="stroke:#181818;stroke-width:0.5;" width="107" x="1970.5" y="71"/><text fill="#000000" font-family="sans-serif" font-size="14" font-style="italic" lengthAdjust="spacing" textLength="88" x="1980" y="91.5352">&#171;TestERC20&#187;</text><text fill="#000000" font-family="sans-serif" font-size="14" lengthAdjust="spacing" textLength="93" x="1977.5" y="108.0234">0xe7f1..0512</text><rect fill="#E2E2F0" height="46.9766" rx="2.5" ry="2.5" style="stroke:#181818;stroke-width:0.5;" width="107" x="1970.5" y="1647.5098"/><text fill="#000000" font-family="sans-serif" font-size="14" font-style="italic" lengthAdjust="spacing" textLength="88" x="1980" y="1668.0449">&#171;TestERC20&#187;</text><text fill="#000000" font-family="sans-serif" font-size="14" lengthAdjust="spacing" textLength="93" x="1977.5" y="1684.5332">0xe7f1..0512</text><rect fill="#FFFFFF" height="1215.2539" style="stroke:#181818;stroke-width:1.0;" width="10" x="572" y="303.3926"/><rect fill="#FFFFFF" height="1067.3906" style="stroke:#181818;stroke-width:1.0;" width="10" x="577" y="392.6348"/><rect fill="#FFFFFF" height="1141.3223" style="stroke:#181818;stroke-width:1.0;" width="10" x="1106" y="348.0137"/><rect fill="#FFFFFF" height="498.6953" style="stroke:#181818;stroke-width:1.0;" width="10" x="1111" y="575.0508"/><rect fill="#FFFFFF" height="103.2422" style="stroke:#181818;stroke-width:1.0;" width="10" x="1111" y="1148.9883"/><rect fill="#FFFFFF" height="103.2422" style="stroke:#181818;stroke-width:1.0;" width="10" x="1111" y="1327.4727"/><rect fill="#FFFFFF" height="29.3105" style="stroke:#181818;stroke-width:1.0;" width="10" x="1647" y="772.7773"/><rect fill="#FFFFFF" height="29.3105" style="stroke:#181818;stroke-width:1.0;" width="10" x="1647" y="1015.125"/><rect fill="#FFFFFF" height="29.3105" style="stroke:#181818;stroke-width:1.0;" width="10" x="1783" y="1208.9199"/><rect fill="#FFFFFF" height="29.3105" style="stroke:#181818;stroke-width:1.0;" width="10" x="2019" y="1387.4043"/><polygon fill="#181818" points="560,299.3926,570,303.3926,560,307.3926,564,303.3926" style="stroke:#181818;stroke-width:1.0;"/><line style="stroke:#181818;stroke-width:1.0;" x1="53" x2="566" y1="303.3926" y2="303.3926"/><text fill="#000000" font-family="sans-serif" font-size="13" lengthAdjust="spacing" textLength="99" x="60" y="145.5449">modifyPosition(</text><text fill="#000000" font-family="sans-serif" font-size="13" lengthAdjust="spacing" textLength="34" x="68" y="160.8555">key: [</text><text fill="#000000" font-family="sans-serif" font-size="13" lengthAdjust="spacing" textLength="161" x="76" y="176.166">currency0: 0x5FbD..0aa3,</text><text fill="#000000" font-family="sans-serif" font-size="13" lengthAdjust="spacing" textLength="158" x="76" y="191.4766">currency1: 0xe7f1..0512,</text><text fill="#000000" font-family="sans-serif" font-size="13" lengthAdjust="spacing" textLength="95" x="76" y="206.7871">fee: 8,388,608,</text><text fill="#000000" font-family="sans-serif" font-size="13" lengthAdjust="spacing" textLength="101" x="76" y="222.0977">tickSpacing: 60,</text><text fill="#000000" font-family="sans-serif" font-size="13" lengthAdjust="spacing" textLength="137" x="76" y="237.4082">hooks: 0x3CFe..9feE],</text><text fill="#000000" font-family="sans-serif" font-size="13" lengthAdjust="spacing" textLength="58" x="68" y="252.7188">params: [</text><text fill="#000000" font-family="sans-serif" font-size="13" lengthAdjust="spacing" textLength="97" x="76" y="268.0293">tickLower: -60,</text><text fill="#000000" font-family="sans-serif" font-size="13" lengthAdjust="spacing" textLength="89" x="76" y="283.3398">tickUpper: 60,</text><text fill="#000000" font-family="sans-serif" font-size="13" lengthAdjust="spacing" textLength="269" x="76" y="298.6504">liquidityDelta: -10000000000000000000])</text><polygon fill="#181818" points="1094,344.0137,1104,348.0137,1094,352.0137,1098,348.0137" style="stroke:#181818;stroke-width:1.0;"/><line style="stroke:#181818;stroke-width:1.0;" x1="582" x2="1100" y1="348.0137" y2="348.0137"/><text fill="#000000" font-family="sans-serif" font-size="13" lengthAdjust="spacing" textLength="31" x="589" y="327.9609">lock(</text><text fill="#000000" font-family="sans-serif" font-size="13" lengthAdjust="spacing" textLength="191" x="597" y="343.2715">data: 0x00000000..76180000)</text><polygon fill="#181818" points="598,388.6348,588,392.6348,598,396.6348,594,392.6348" style="stroke:#181818;stroke-width:1.0;"/><line style="stroke:#181818;stroke-width:1.0;" x1="592" x2="1105" y1="392.6348" y2="392.6348"/><text fill="#000000" font-family="sans-serif" font-size="13" lengthAdjust="spacing" textLength="87" x="604" y="372.582">lockAcquired(</text><text fill="#000000" font-family="sans-serif" font-size="13" lengthAdjust="spacing" textLength="215" x="612" y="387.8926">rawData: 0x00000000..76180000)</text><polygon fill="#181818" points="1099,571.0508,1109,575.0508,1099,579.0508,1103,575.0508" style="stroke:#181818;stroke-width:1.0;"/><line style="stroke:#181818;stroke-width:1.0;" x1="587" x2="1105" y1="575.0508" y2="575.0508"/><text fill="#000000" font-family="sans-serif" font-size="13" lengthAdjust="spacing" textLength="99" x="594" y="417.2031">modifyPosition(</text><text fill="#000000" font-family="sans-serif" font-size="13" lengthAdjust="spacing" textLength="34" x="602" y="432.5137">key: [</text><text fill="#000000" font-family="sans-serif" font-size="13" lengthAdjust="spacing" textLength="161" x="610" y="447.8242">currency0: 0x5FbD..0aa3,</text><text fill="#000000" font-family="sans-serif" font-size="13" lengthAdjust="spacing" textLength="158" x="610" y="463.1348">currency1: 0xe7f1..0512,</text><text fill="#000000" font-family="sans-serif" font-size="13" lengthAdjust="spacing" textLength="95" x="610" y="478.4453">fee: 8,388,608,</text><text fill="#000000" font-family="sans-serif" font-size="13" lengthAdjust="spacing" textLength="101" x="610" y="493.7559">tickSpacing: 60,</text><text fill="#000000" font-family="sans-serif" font-size="13" lengthAdjust="spacing" textLength="137" x="610" y="509.0664">hooks: 0x3CFe..9feE],</text><text fill="#000000" font-family="sans-serif" font-size="13" lengthAdjust="spacing" textLength="58" x="602" y="524.377">params: [</text><text fill="#000000" font-family="sans-serif" font-size="13" lengthAdjust="spacing" textLength="97" x="610" y="539.6875">tickLower: -60,</text><text fill="#000000" font-family="sans-serif" font-size="13" lengthAdjust="spacing" textLength="89" x="610" y="554.998">tickUpper: 60,</text><text fill="#000000" font-family="sans-serif" font-size="13" lengthAdjust="spacing" textLength="269" x="610" y="570.3086">liquidityDelta: -10000000000000000000])</text><polygon fill="#181818" points="1635,768.7773,1645,772.7773,1635,776.7773,1639,772.7773" style="stroke:#181818;stroke-width:1.0;"/><line style="stroke:#181818;stroke-width:1.0;" x1="1121" x2="1641" y1="772.7773" y2="772.7773"/><text fill="#000000" font-family="sans-serif" font-size="13" lengthAdjust="spacing" textLength="138" x="1128" y="599.6191">beforeModifyPosition(</text><text fill="#000000" font-family="sans-serif" font-size="13" lengthAdjust="spacing" textLength="137" x="1136" y="614.9297">sender: 0xCf7E..0Fc9,</text><text fill="#000000" font-family="sans-serif" font-size="13" lengthAdjust="spacing" textLength="34" x="1136" y="630.2402">key: [</text><text fill="#000000" font-family="sans-serif" font-size="13" lengthAdjust="spacing" textLength="161" x="1144" y="645.5508">currency0: 0x5FbD..0aa3,</text><text fill="#000000" font-family="sans-serif" font-size="13" lengthAdjust="spacing" textLength="158" x="1144" y="660.8613">currency1: 0xe7f1..0512,</text><text fill="#000000" font-family="sans-serif" font-size="13" lengthAdjust="spacing" textLength="95" x="1144" y="676.1719">fee: 8,388,608,</text><text fill="#000000" font-family="sans-serif" font-size="13" lengthAdjust="spacing" textLength="101" x="1144" y="691.4824">tickSpacing: 60,</text><text fill="#000000" font-family="sans-serif" font-size="13" lengthAdjust="spacing" textLength="137" x="1144" y="706.793">hooks: 0x3CFe..9feE],</text><text fill="#000000" font-family="sans-serif" font-size="13" lengthAdjust="spacing" textLength="58" x="1136" y="722.1035">params: [</text><text fill="#000000" font-family="sans-serif" font-size="13" lengthAdjust="spacing" textLength="97" x="1144" y="737.4141">tickLower: -60,</text><text fill="#000000" font-family="sans-serif" font-size="13" lengthAdjust="spacing" textLength="89" x="1144" y="752.7246">tickUpper: 60,</text><text fill="#000000" font-family="sans-serif" font-size="13" lengthAdjust="spacing" textLength="269" x="1144" y="768.0352">liquidityDelta: -10000000000000000000])</text><polygon fill="#181818" points="1132,798.0879,1122,802.0879,1132,806.0879,1128,802.0879" style="stroke:#181818;stroke-width:1.0;"/><line style="stroke:#181818;stroke-width:1.0;stroke-dasharray:2.0,2.0;" x1="1126" x2="1651" y1="802.0879" y2="802.0879"/><text fill="#000000" font-family="sans-serif" font-size="13" lengthAdjust="spacing" textLength="137" x="1138" y="797.3457">selector: 0x0dbe5dbd</text><polygon fill="#181818" points="1635,1011.125,1645,1015.125,1635,1019.125,1639,1015.125" style="stroke:#181818;stroke-width:1.0;"/><line style="stroke:#181818;stroke-width:1.0;" x1="1121" x2="1641" y1="1015.125" y2="1015.125"/><text fill="#000000" font-family="sans-serif" font-size="13" lengthAdjust="spacing" textLength="127" x="1128" y="826.6563">afterModifyPosition(</text><text fill="#000000" font-family="sans-serif" font-size="13" lengthAdjust="spacing" textLength="137" x="1136" y="841.9668">sender: 0xCf7E..0Fc9,</text><text fill="#000000" font-family="sans-serif" font-size="13" lengthAdjust="spacing" textLength="34" x="1136" y="857.2773">key: [</text><text fill="#000000" font-family="sans-serif" font-size="13" lengthAdjust="spacing" textLength="161" x="1144" y="872.5879">currency0: 0x5FbD..0aa3,</text><text fill="#000000" font-family="sans-serif" font-size="13" lengthAdjust="spacing" textLength="158" x="1144" y="887.8984">currency1: 0xe7f1..0512,</text><text fill="#000000" font-family="sans-serif" font-size="13" lengthAdjust="spacing" textLength="95" x="1144" y="903.209">fee: 8,388,608,</text><text fill="#000000" font-family="sans-serif" font-size="13" lengthAdjust="spacing" textLength="101" x="1144" y="918.5195">tickSpacing: 60,</text><text fill="#000000" font-family="sans-serif" font-size="13" lengthAdjust="spacing" textLength="137" x="1144" y="933.8301">hooks: 0x3CFe..9feE],</text><text fill="#000000" font-family="sans-serif" font-size="13" lengthAdjust="spacing" textLength="58" x="1136" y="949.1406">params: [</text><text fill="#000000" font-family="sans-serif" font-size="13" lengthAdjust="spacing" textLength="97" x="1144" y="964.4512">tickLower: -60,</text><text fill="#000000" font-family="sans-serif" font-size="13" lengthAdjust="spacing" textLength="89" x="1144" y="979.7617">tickUpper: 60,</text><text fill="#000000" font-family="sans-serif" font-size="13" lengthAdjust="spacing" textLength="269" x="1144" y="995.0723">liquidityDelta: -10000000000000000000],</text><text fill="#000000" font-family="sans-serif" font-size="13" lengthAdjust="spacing" textLength="499" x="1136" y="1010.3828">delta: -10192664741656848890870623009927992613918090413154734272)</text><polygon fill="#181818" points="1132,1040.4355,1122,1044.4355,1132,1048.4355,1128,1044.4355" style="stroke:#181818;stroke-width:1.0;"/><line style="stroke:#181818;stroke-width:1.0;stroke-dasharray:2.0,2.0;" x1="1126" x2="1651" y1="1044.4355" y2="1044.4355"/><text fill="#000000" font-family="sans-serif" font-size="13" lengthAdjust="spacing" textLength="134" x="1138" y="1039.6934">selector: 0x0e2059f5</text><polygon fill="#181818" points="598,1069.7461,588,1073.7461,598,1077.7461,594,1073.7461" style="stroke:#181818;stroke-width:1.0;"/><line style="stroke:#181818;stroke-width:1.0;stroke-dasharray:2.0,2.0;" x1="592" x2="1105" y1="1073.7461" y2="1073.7461"/><text fill="#000000" font-family="sans-serif" font-size="13" lengthAdjust="spacing" textLength="495" x="604" y="1069.0039">delta: -10192664741656848890870623009927992613918090413154734272</text><polygon fill="#181818" points="1099,1144.9883,1109,1148.9883,1099,1152.9883,1103,1148.9883" style="stroke:#181818;stroke-width:1.0;"/><line style="stroke:#181818;stroke-width:1.0;" x1="587" x2="1105" y1="1148.9883" y2="1148.9883"/><text fill="#000000" font-family="sans-serif" font-size="13" lengthAdjust="spacing" textLength="31" x="594" y="1098.3145">take(</text><text fill="#000000" font-family="sans-serif" font-size="13" lengthAdjust="spacing" textLength="153" x="602" y="1113.625">currency: 0x5FbD..0aa3,</text><text fill="#000000" font-family="sans-serif" font-size="13" lengthAdjust="spacing" textLength="109" x="602" y="1128.9355">to: 0xf39F..2266,</text><text fill="#000000" font-family="sans-serif" font-size="13" lengthAdjust="spacing" textLength="216" x="602" y="1144.2461">amount: 29,953,549,559,107,842)</text><polygon fill="#181818" points="1771,1204.9199,1781,1208.9199,1771,1212.9199,1775,1208.9199" style="stroke:#181818;stroke-width:1.0;"/><line style="stroke:#181818;stroke-width:1.0;" x1="1121" x2="1777" y1="1208.9199" y2="1208.9199"/><text fill="#000000" font-family="sans-serif" font-size="13" lengthAdjust="spacing" textLength="53" x="1128" y="1173.5566">transfer(</text><text fill="#000000" font-family="sans-serif" font-size="13" lengthAdjust="spacing" textLength="151" x="1136" y="1188.8672">recipient: 0xf39F..2266,</text><text fill="#000000" font-family="sans-serif" font-size="13" lengthAdjust="spacing" textLength="216" x="1136" y="1204.1777">amount: 29,953,549,559,107,842)</text><polygon fill="#181818" points="1132,1234.2305,1122,1238.2305,1132,1242.2305,1128,1238.2305" style="stroke:#181818;stroke-width:1.0;"/><line style="stroke:#181818;stroke-width:1.0;stroke-dasharray:2.0,2.0;" x1="1126" x2="1787" y1="1238.2305" y2="1238.2305"/><text fill="#000000" font-family="sans-serif" font-size="13" lengthAdjust="spacing" textLength="25" x="1138" y="1233.4883">true</text><polygon fill="#181818" points="598,1248.2305,588,1252.2305,598,1256.2305,594,1252.2305" style="stroke:#181818;stroke-width:1.0;"/><line style="stroke:#181818;stroke-width:1.0;stroke-dasharray:2.0,2.0;" x1="592" x2="1105" y1="1252.2305" y2="1252.2305"/><polygon fill="#181818" points="1099,1323.4727,1109,1327.4727,1099,1331.4727,1103,1327.4727" style="stroke:#181818;stroke-width:1.0;"/><line style="stroke:#181818;stroke-width:1.0;" x1="587" x2="1105" y1="1327.4727" y2="1327.4727"/><text fill="#000000" font-family="sans-serif" font-size="13" lengthAdjust="spacing" textLength="31" x="594" y="1276.7988">take(</text><text fill="#000000" font-family="sans-serif" font-size="13" lengthAdjust="spacing" textLength="150" x="602" y="1292.1094">currency: 0xe7f1..0512,</text><text fill="#000000" font-family="sans-serif" font-size="13" lengthAdjust="spacing" textLength="109" x="602" y="1307.4199">to: 0xf39F..2266,</text><text fill="#000000" font-family="sans-serif" font-size="13" lengthAdjust="spacing" textLength="216" x="602" y="1322.7305">amount: 29,953,549,559,107,776)</text><polygon fill="#181818" points="2007,1383.4043,2017,1387.4043,2007,1391.4043,2011,1387.4043" style="stroke:#181818;stroke-width:1.0;"/><line style="stroke:#181818;stroke-width:1.0;" x1="1121" x2="2013" y1="1387.4043" y2="1387.4043"/><text fill="#000000" font-family="sans-serif" font-size="13" lengthAdjust="spacing" textLength="53" x="1128" y="1352.041">transfer(</text><text fill="#000000" font-family="sans-serif" font-size="13" lengthAdjust="spacing" textLength="151" x="1136" y="1367.3516">recipient: 0xf39F..2266,</text><text fill="#000000" font-family="sans-serif" font-size="13" lengthAdjust="spacing" textLength="216" x="1136" y="1382.6621">amount: 29,953,549,559,107,776)</text><polygon fill="#181818" points="1132,1412.7148,1122,1416.7148,1132,1420.7148,1128,1416.7148" style="stroke:#181818;stroke-width:1.0;"/><line style="stroke:#181818;stroke-width:1.0;stroke-dasharray:2.0,2.0;" x1="1126" x2="2023" y1="1416.7148" y2="1416.7148"/><text fill="#000000" font-family="sans-serif" font-size="13" lengthAdjust="spacing" textLength="25" x="1138" y="1411.9727">true</text><polygon fill="#181818" points="598,1426.7148,588,1430.7148,598,1434.7148,594,1430.7148" style="stroke:#181818;stroke-width:1.0;"/><line style="stroke:#181818;stroke-width:1.0;stroke-dasharray:2.0,2.0;" x1="592" x2="1105" y1="1430.7148" y2="1430.7148"/><polygon fill="#181818" points="1094,1456.0254,1104,1460.0254,1094,1464.0254,1098,1460.0254" style="stroke:#181818;stroke-width:1.0;"/><line style="stroke:#181818;stroke-width:1.0;stroke-dasharray:2.0,2.0;" x1="582" x2="1100" y1="1460.0254" y2="1460.0254"/><text fill="#000000" font-family="sans-serif" font-size="13" lengthAdjust="spacing" textLength="123" x="589" y="1455.2832">0xffffffff..c6c46f40</text><polygon fill="#181818" points="593,1485.3359,583,1489.3359,593,1493.3359,589,1489.3359" style="stroke:#181818;stroke-width:1.0;"/><line style="stroke:#181818;stroke-width:1.0;stroke-dasharray:2.0,2.0;" x1="587" x2="1110" y1="1489.3359" y2="1489.3359"/><text fill="#000000" font-family="sans-serif" font-size="13" lengthAdjust="spacing" textLength="167" x="599" y="1484.5938">result: 0xffffffff..c6c46f40</text><polygon fill="#181818" points="64,1514.6465,54,1518.6465,64,1522.6465,60,1518.6465" style="stroke:#181818;stroke-width:1.0;"/><line style="stroke:#181818;stroke-width:1.0;stroke-dasharray:2.0,2.0;" x1="58" x2="576" y1="1518.6465" y2="1518.6465"/><text fill="#000000" font-family="sans-serif" font-size="13" lengthAdjust="spacing" textLength="495" x="70" y="1513.9043">delta: -10192664741656848890870623009927992613918090413154734272</text><path d="M966,1531.6465 L966,1632.6465 L1256,1632.6465 L1256,1541.6465 L1246,1531.6465 L966,1531.6465 " fill="#00FFFF" style="stroke:#181818;stroke-width:0.5;"/><path d="M1246,1531.6465 L1246,1541.6465 L1256,1541.6465 L1246,1531.6465 " fill="#00FFFF" style="stroke:#181818;stroke-width:0.5;"/><text fill="#000000" font-family="sans-serif" font-size="13" lengthAdjust="spacing" textLength="98" x="972" y="1549.2148">ModifyPosition:</text><text fill="#000000" font-family="sans-serif" font-size="13" lengthAdjust="spacing" textLength="173" x="980" y="1564.5254">id: 0x50e49605..64be25a4,</text><text fill="#000000" font-family="sans-serif" font-size="13" lengthAdjust="spacing" textLength="137" x="980" y="1579.8359">sender: 0xCf7E..0Fc9,</text><text fill="#000000" font-family="sans-serif" font-size="13" lengthAdjust="spacing" textLength="97" x="980" y="1595.1465">tickLower: -60,</text><text fill="#000000" font-family="sans-serif" font-size="13" lengthAdjust="spacing" textLength="89" x="980" y="1610.457">tickUpper: 60,</text><text fill="#000000" font-family="sans-serif" font-size="13" lengthAdjust="spacing" textLength="261" x="980" y="1625.7676">liquidityDelta: -10000000000000000000</text><path d="M1675,1531.6465 L1675,1602.6465 L1901,1602.6465 L1901,1541.6465 L1891,1531.6465 L1675,1531.6465 " fill="#00FFFF" style="stroke:#181818;stroke-width:0.5;"/><path d="M1891,1531.6465 L1891,1541.6465 L1901,1541.6465 L1891,1531.6465 " fill="#00FFFF" style="stroke:#181818;stroke-width:0.5;"/><text fill="#000000" font-family="sans-serif" font-size="13" lengthAdjust="spacing" textLength="56" x="1681" y="1549.2148">Transfer:</text><text fill="#000000" font-family="sans-serif" font-size="13" lengthAdjust="spacing" textLength="124" x="1689" y="1564.5254">from: 0x9fE4..a6e0,</text><text fill="#000000" font-family="sans-serif" font-size="13" lengthAdjust="spacing" textLength="109" x="1689" y="1579.8359">to: 0xf39F..2266,</text><text fill="#000000" font-family="sans-serif" font-size="13" lengthAdjust="spacing" textLength="197" x="1689" y="1595.1465">value: 29,953,549,559,107,842</text><path d="M1911,1531.6465 L1911,1602.6465 L2137,1602.6465 L2137,1541.6465 L2127,1531.6465 L1911,1531.6465 " fill="#00FFFF" style="stroke:#181818;stroke-width:0.5;"/><path d="M2127,1531.6465 L2127,1541.6465 L2137,1541.6465 L2127,1531.6465 " fill="#00FFFF" style="stroke:#181818;stroke-width:0.5;"/><text fill="#000000" font-family="sans-serif" font-size="13" lengthAdjust="spacing" textLength="56" x="1917" y="1549.2148">Transfer:</text><text fill="#000000" font-family="sans-serif" font-size="13" lengthAdjust="spacing" textLength="124" x="1925" y="1564.5254">from: 0x9fE4..a6e0,</text><text fill="#000000" font-family="sans-serif" font-size="13" lengthAdjust="spacing" textLength="109" x="1925" y="1579.8359">to: 0xf39F..2266,</text><text fill="#000000" font-family="sans-serif" font-size="13" lengthAdjust="spacing" textLength="197" x="1925" y="1595.1465">value: 29,953,549,559,107,776</text><!--SRC=[xLRVRzCm47xtNs712qWXE4xin16QXBOL7fWqmNW27XpxFAAsIN6TiVxts6cJqNPb6uCdY5GrT_Pzz-MxymzNknbWScqaPKb2kQI4fBeI05gQD3T4KS6qPeGgNN56fAbuPO0mLWabb5OwfrcI4eIKNBYwRV1Sraq3BiBLh5LJd4LuOki8KuPVTvUO4ffYafICbYd1Ryuka5IkjVY9fv0A4yUKSlu4ooKEPZ0mMaZhQbKlPEF2F6LoY6DYbEZd1JCO-DMhyxQTdRMwDglpTba7DXUmT4T7kmZ2G1R7aWFf4O8PZ051Dl8Ix7vOgenFx6T37nRCOFYmarKZvxMQ0Bnjs-b-93ELzfIbJFl8O0R3HmQ2f- -FATaFWjmaFeWbj0yAPZ1sWj2equkZKOiIpxTaUFQvmNWAgn9_2cyOgyvQQDIAbBxsR5AThDb5swD96BsXiHdrdrpY8agB8kAas3WzyUc7XLHrSrbYJZRUhrwDPG19ZoThwKw_z4F-K-LyET89qU_Qxs1B_68C3iwFYqLmZhvP_QshTUrM9p1pqizEoFxpvNbeglfAEXWLGMERU9c6WfSuj6WlZfO1ZbmF676SywG8Rp-13N5ex9WjpGFOQ-K9Mj0zg9NVJ-w3UmV9_xNyXVp3AYnn1QQrSBOlrX8Q7JAJwsEJd_hldoWH_RCg3e8X2wwpZLTd1c4BxhjKLy1qfGyeB8q3-r_WsmJk9-jnHYByZfpbMS8PBxAY4AJ82QSf8KBGtFzuaWg_3mZY3y-4PNcQqPpUjqf02HE63MEFJNjWst5o2drvXzhSKZZN1gS_WYRhaxjtoddRDQx4L4I2fH7BHCIOY1AIHqL6xrhGm-7e2LZPB0tOzLuA_cIi8U3-Vi81Ur3EsMvK-24gx3JeGrN8StwN2iDf_sTKs4uuOD-gmkRVes-UE5PSPTnaP1YpiEncQmO7vpow9r7JUghj5TYR-zbJ-QsJQ7i3AX76jUvRaq0cE65npBCAA9DPX0xiJMXl_QFTnO_kkVAHnyU1Aq8lyGtdyOgtvdonAM9WQsmx3to4ETtSGllikptaVLTori6XjZwGUBmc_ft4lfDk4ly0]--></g></svg>