<?xml version="1.0" encoding="us-ascii" standalone="no"?><svg xmlns="http://www.w3.org/2000/svg" xmlns:xlink="http://www.w3.org/1999/xlink" contentStyleType="text/css" height="1593px" preserveAspectRatio="none" style="width:852px;height:1593px;background:#FFFFFF;" version="1.1" viewBox="0 0 852 1593" width="852px" zoomAndPan="magnify"><defs/><g><text fill="#000000" font-family="sans-serif" font-size="14" font-weight="bold" lengthAdjust="spacing" textLength="578" x="136" y="28.5352">0xb89adc24b12077a794a25c1012a0e993950551521b253f2087847d9e0b291e7a</text><text fill="#000000" font-family="sans-serif" font-size="14" lengthAdjust="spacing" textLength="348" x="251" y="1581.1855">mainnet, block 4, Thu, 24 Aug 2023 09:35:49 GMT</text><rect fill="#FFFFFF" height="1179.3906" style="stroke:#181818;stroke-width:1.0;" width="10" x="200" y="180.9082"/><rect fill="#FFFFFF" height="1000.9063" style="stroke:#181818;stroke-width:1.0;" width="10" x="205" y="270.1504"/><rect fill="#FFFFFF" height="1090.1484" style="stroke:#181818;stroke-width:1.0;" width="10" x="363" y="225.5293"/><rect fill="#FFFFFF" height="299.6582" style="stroke:#181818;stroke-width:1.0;" width="10" x="368" y="330.082"/><rect fill="#FFFFFF" height="133.8633" style="stroke:#181818;stroke-width:1.0;" width="10" x="368" y="794.2246"/><rect fill="#FFFFFF" height="133.8633" style="stroke:#181818;stroke-width:1.0;" width="10" x="368" y="1092.5723"/><rect fill="#FFFFFF" height="44.6211" style="stroke:#181818;stroke-width:1.0;" width="10" x="535" y="405.3242"/><rect fill="#FFFFFF" height="44.6211" style="stroke:#181818;stroke-width:1.0;" width="10" x="535" y="540.498"/><rect fill="#FFFFFF" height="44.6211" style="stroke:#181818;stroke-width:1.0;" width="10" x="671" y="704.9824"/><rect fill="#FFFFFF" height="44.6211" style="stroke:#181818;stroke-width:1.0;" width="10" x="671" y="838.8457"/><rect fill="#FFFFFF" height="44.6211" style="stroke:#181818;stroke-width:1.0;" width="10" x="787.5" y="1003.3301"/><rect fill="#FFFFFF" height="44.6211" style="stroke:#181818;stroke-width:1.0;" width="10" x="787.5" y="1137.1934"/><line style="stroke:#181818;stroke-width:0.5;stroke-dasharray:5.0,5.0;" x1="53" x2="53" y1="118.9766" y2="1490.1621"/><line style="stroke:#181818;stroke-width:0.5;stroke-dasharray:5.0,5.0;" x1="205" x2="205" y1="118.9766" y2="1490.1621"/><line style="stroke:#181818;stroke-width:0.5;stroke-dasharray:5.0,5.0;" x1="368" x2="368" y1="118.9766" y2="1490.1621"/><line style="stroke:#181818;stroke-width:0.5;stroke-dasharray:5.0,5.0;" x1="540" x2="540" y1="118.9766" y2="1490.1621"/><line style="stroke:#181818;stroke-width:0.5;stroke-dasharray:5.0,5.0;" x1="676" x2="676" y1="118.9766" y2="1490.1621"/><line style="stroke:#181818;stroke-width:0.5;stroke-dasharray:5.0,5.0;" x1="792" x2="792" y1="118.9766" y2="1490.1621"/><text fill="#000000" font-family="sans-serif" font-size="14" lengthAdjust="spacing" textLength="90" x="5" y="116.0234">0xf39f..2266</text><ellipse cx="53" cy="50.9883" fill="#E2E2F0" rx="8" ry="8" style="stroke:#181818;stroke-width:0.5;"/><path d="M53,58.9883 L53,85.9883 M40,66.9883 L66,66.9883 M53,85.9883 L40,100.9883 M53,85.9883 L66,100.9883 " fill="none" style="stroke:#181818;stroke-width:0.5;"/><text fill="#000000" font-family="sans-serif" font-size="14" lengthAdjust="spacing" textLength="90" x="5" y="1502.6973">0xf39f..2266</text><ellipse cx="53" cy="1514.1504" fill="#E2E2F0" rx="8" ry="8" style="stroke:#181818;stroke-width:0.5;"/><path d="M53,1522.1504 L53,1549.1504 M40,1530.1504 L66,1530.1504 M53,1549.1504 L40,1564.1504 M53,1549.1504 L66,1564.1504 " fill="none" style="stroke:#181818;stroke-width:0.5;"/><rect fill="#E2E2F0" height="46.9766" rx="2.5" ry="2.5" style="stroke:#181818;stroke-width:0.5;" width="188" x="111" y="71"/><text fill="#000000" font-family="sans-serif" font-size="14" font-style="italic" lengthAdjust="spacing" textLength="174" x="118" y="91.5352">&#171;PoolModifyPositionTest&#187;</text><text fill="#000000" font-family="sans-serif" font-size="14" lengthAdjust="spacing" textLength="85" x="162.5" y="108.0234">0xcf7e..0fc9</text><rect fill="#E2E2F0" height="46.9766" rx="2.5" ry="2.5" style="stroke:#181818;stroke-width:0.5;" width="188" x="111" y="1489.1621"/><text fill="#000000" font-family="sans-serif" font-size="14" font-style="italic" lengthAdjust="spacing" textLength="174" x="118" y="1509.6973">&#171;PoolModifyPositionTest&#187;</text><text fill="#000000" font-family="sans-serif" font-size="14" lengthAdjust="spacing" textLength="85" x="162.5" y="1526.1855">0xcf7e..0fc9</text><rect fill="#E2E2F0" height="46.9766" rx="2.5" ry="2.5" style="stroke:#181818;stroke-width:0.5;" width="118" x="309" y="71"/><text fill="#000000" font-family="sans-serif" font-size="14" font-style="italic" lengthAdjust="spacing" textLength="104" x="316" y="91.5352">&#171;PoolManager&#187;</text><text fill="#000000" font-family="sans-serif" font-size="14" lengthAdjust="spacing" textLength="91" x="322.5" y="108.0234">0x9fe4..a6e0</text><rect fill="#E2E2F0" height="46.9766" rx="2.5" ry="2.5" style="stroke:#181818;stroke-width:0.5;" width="118" x="309" y="1489.1621"/><text fill="#000000" font-family="sans-serif" font-size="14" font-style="italic" lengthAdjust="spacing" textLength="104" x="316" y="1509.6973">&#171;PoolManager&#187;</text><text fill="#000000" font-family="sans-serif" font-size="14" lengthAdjust="spacing" textLength="91" x="322.5" y="1526.1855">0x9fe4..a6e0</text><rect fill="#E2E2F0" height="46.9766" rx="2.5" ry="2.5" style="stroke:#181818;stroke-width:0.5;" width="146" x="467" y="71"/><text fill="#000000" font-family="sans-serif" font-size="14" font-style="italic" lengthAdjust="spacing" textLength="132" x="474" y="91.5352">&#171;DynamicFeeHook&#187;</text><text fill="#000000" font-family="sans-serif" font-size="14" lengthAdjust="spacing" textLength="85" x="497.5" y="108.0234">0x3cfe..9fee</text><rect fill="#E2E2F0" height="46.9766" rx="2.5" ry="2.5" style="stroke:#181818;stroke-width:0.5;" width="146" x="467" y="1489.1621"/><text fill="#000000" font-family="sans-serif" font-size="14" font-style="italic" lengthAdjust="spacing" textLength="132" x="474" y="1509.6973">&#171;DynamicFeeHook&#187;</text><text fill="#000000" font-family="sans-serif" font-size="14" lengthAdjust="spacing" textLength="85" x="497.5" y="1526.1855">0x3cfe..9fee</text><rect fill="#E2E2F0" height="46.9766" rx="2.5" ry="2.5" style="stroke:#181818;stroke-width:0.5;" width="106" x="623" y="71"/><text fill="#000000" font-family="sans-serif" font-size="14" font-style="italic" lengthAdjust="spacing" textLength="88" x="632" y="91.5352">&#171;TestERC20&#187;</text><text fill="#000000" font-family="sans-serif" font-size="14" lengthAdjust="spacing" textLength="92" x="630" y="108.0234">0x5fbd..0aa3</text><rect fill="#E2E2F0" height="46.9766" rx="2.5" ry="2.5" style="stroke:#181818;stroke-width:0.5;" width="106" x="623" y="1489.1621"/><text fill="#000000" font-family="sans-serif" font-size="14" font-style="italic" lengthAdjust="spacing" textLength="88" x="632" y="1509.6973">&#171;TestERC20&#187;</text><text fill="#000000" font-family="sans-serif" font-size="14" lengthAdjust="spacing" textLength="92" x="630" y="1526.1855">0x5fbd..0aa3</text><rect fill="#E2E2F0" height="46.9766" rx="2.5" ry="2.5" style="stroke:#181818;stroke-width:0.5;" width="107" x="739" y="71"/><text fill="#000000" font-family="sans-serif" font-size="14" font-style="italic" lengthAdjust="spacing" textLength="88" x="748.5" y="91.5352">&#171;TestERC20&#187;</text><text fill="#000000" font-family="sans-serif" font-size="14" lengthAdjust="spacing" textLength="93" x="746" y="108.0234">0xe7f1..0512</text><rect fill="#E2E2F0" height="46.9766" rx="2.5" ry="2.5" style="stroke:#181818;stroke-width:0.5;" width="107" x="739" y="1489.1621"/><text fill="#000000" font-family="sans-serif" font-size="14" font-style="italic" lengthAdjust="spacing" textLength="88" x="748.5" y="1509.6973">&#171;TestERC20&#187;</text><text fill="#000000" font-family="sans-serif" font-size="14" lengthAdjust="spacing" textLength="93" x="746" y="1526.1855">0xe7f1..0512</text><rect fill="#FFFFFF" height="1179.3906" style="stroke:#181818;stroke-width:1.0;" width="10" x="200" y="180.9082"/><rect fill="#FFFFFF" height="1000.9063" style="stroke:#181818;stroke-width:1.0;" width="10" x="205" y="270.1504"/><rect fill="#FFFFFF" height="1090.1484" style="stroke:#181818;stroke-width:1.0;" width="10" x="363" y="225.5293"/><rect fill="#FFFFFF" height="299.6582" style="stroke:#181818;stroke-width:1.0;" width="10" x="368" y="330.082"/><rect fill="#FFFFFF" height="133.8633" style="stroke:#181818;stroke-width:1.0;" width="10" x="368" y="794.2246"/><rect fill="#FFFFFF" height="133.8633" style="stroke:#181818;stroke-width:1.0;" width="10" x="368" y="1092.5723"/><rect fill="#FFFFFF" height="44.6211" style="stroke:#181818;stroke-width:1.0;" width="10" x="535" y="405.3242"/><rect fill="#FFFFFF" height="44.6211" style="stroke:#181818;stroke-width:1.0;" width="10" x="535" y="540.498"/><rect fill="#FFFFFF" height="44.6211" style="stroke:#181818;stroke-width:1.0;" width="10" x="671" y="704.9824"/><rect fill="#FFFFFF" height="44.6211" style="stroke:#181818;stroke-width:1.0;" width="10" x="671" y="838.8457"/><rect fill="#FFFFFF" height="44.6211" style="stroke:#181818;stroke-width:1.0;" width="10" x="787.5" y="1003.3301"/><rect fill="#FFFFFF" height="44.6211" style="stroke:#181818;stroke-width:1.0;" width="10" x="787.5" y="1137.1934"/><polygon fill="#181818" points="188,176.9082,198,180.9082,188,184.9082,192,180.9082" style="stroke:#181818;stroke-width:1.0;"/><line style="stroke:#181818;stroke-width:1.0;" x1="53" x2="194" y1="180.9082" y2="180.9082"/><text fill="#000000" font-family="sans-serif" font-size="13" lengthAdjust="spacing" textLength="99" x="60" y="145.5449">modifyPosition(</text><text fill="#000000" font-family="sans-serif" font-size="13" lengthAdjust="spacing" textLength="26" x="68" y="160.8555">key,</text><text fill="#000000" font-family="sans-serif" font-size="13" lengthAdjust="spacing" textLength="50" x="68" y="176.166">params)</text><polygon fill="#181818" points="351,221.5293,361,225.5293,351,229.5293,355,225.5293" style="stroke:#181818;stroke-width:1.0;"/><line style="stroke:#181818;stroke-width:1.0;" x1="210" x2="357" y1="225.5293" y2="225.5293"/><text fill="#000000" font-family="sans-serif" font-size="13" lengthAdjust="spacing" textLength="31" x="217" y="205.4766">lock(</text><text fill="#000000" font-family="sans-serif" font-size="13" lengthAdjust="spacing" textLength="31" x="225" y="220.7871">data)</text><polygon fill="#181818" points="226,266.1504,216,270.1504,226,274.1504,222,270.1504" style="stroke:#181818;stroke-width:1.0;"/><line style="stroke:#181818;stroke-width:1.0;" x1="220" x2="362" y1="270.1504" y2="270.1504"/><text fill="#000000" font-family="sans-serif" font-size="13" lengthAdjust="spacing" textLength="87" x="232" y="250.0977">lockAcquired(</text><text fill="#000000" font-family="sans-serif" font-size="13" lengthAdjust="spacing" textLength="55" x="240" y="265.4082">rawData)</text><polygon fill="#181818" points="356,326.082,366,330.082,356,334.082,360,330.082" style="stroke:#181818;stroke-width:1.0;"/><line style="stroke:#181818;stroke-width:1.0;" x1="215" x2="362" y1="330.082" y2="330.082"/><text fill="#000000" font-family="sans-serif" font-size="13" lengthAdjust="spacing" textLength="99" x="222" y="294.7188">modifyPosition(</text><text fill="#000000" font-family="sans-serif" font-size="13" lengthAdjust="spacing" textLength="26" x="230" y="310.0293">key,</text><text fill="#000000" font-family="sans-serif" font-size="13" lengthAdjust="spacing" textLength="50" x="230" y="325.3398">params)</text><polygon fill="#181818" points="523,401.3242,533,405.3242,523,409.3242,527,405.3242" style="stroke:#181818;stroke-width:1.0;"/><line style="stroke:#181818;stroke-width:1.0;" x1="378" x2="529" y1="405.3242" y2="405.3242"/><text fill="#000000" font-family="sans-serif" font-size="13" lengthAdjust="spacing" textLength="138" x="385" y="354.6504">beforeModifyPosition(</text><text fill="#000000" font-family="sans-serif" font-size="13" lengthAdjust="spacing" textLength="46" x="393" y="369.9609">sender,</text><text fill="#000000" font-family="sans-serif" font-size="13" lengthAdjust="spacing" textLength="26" x="393" y="385.2715">key,</text><text fill="#000000" font-family="sans-serif" font-size="13" lengthAdjust="spacing" textLength="50" x="393" y="400.582">params)</text><polygon fill="#181818" points="389,445.9453,379,449.9453,389,453.9453,385,449.9453" style="stroke:#181818;stroke-width:1.0;"/><line style="stroke:#181818;stroke-width:1.0;stroke-dasharray:2.0,2.0;" x1="383" x2="539" y1="449.9453" y2="449.9453"/><text fill="#000000" font-family="sans-serif" font-size="13" lengthAdjust="spacing" textLength="4" x="395" y="429.8926">&#160;</text><text fill="#000000" font-family="sans-serif" font-size="13" lengthAdjust="spacing" textLength="50" x="403" y="445.2031">selector</text><polygon fill="#181818" points="523,536.498,533,540.498,523,544.498,527,540.498" style="stroke:#181818;stroke-width:1.0;"/><line style="stroke:#181818;stroke-width:1.0;" x1="378" x2="529" y1="540.498" y2="540.498"/><text fill="#000000" font-family="sans-serif" font-size="13" lengthAdjust="spacing" textLength="127" x="385" y="474.5137">afterModifyPosition(</text><text fill="#000000" font-family="sans-serif" font-size="13" lengthAdjust="spacing" textLength="46" x="393" y="489.8242">sender,</text><text fill="#000000" font-family="sans-serif" font-size="13" lengthAdjust="spacing" textLength="26" x="393" y="505.1348">key,</text><text fill="#000000" font-family="sans-serif" font-size="13" lengthAdjust="spacing" textLength="50" x="393" y="520.4453">params,</text><text fill="#000000" font-family="sans-serif" font-size="13" lengthAdjust="spacing" textLength="35" x="393" y="535.7559">delta)</text><polygon fill="#181818" points="389,581.1191,379,585.1191,389,589.1191,385,585.1191" style="stroke:#181818;stroke-width:1.0;"/><line style="stroke:#181818;stroke-width:1.0;stroke-dasharray:2.0,2.0;" x1="383" x2="539" y1="585.1191" y2="585.1191"/><text fill="#000000" font-family="sans-serif" font-size="13" lengthAdjust="spacing" textLength="4" x="395" y="565.0664">&#160;</text><text fill="#000000" font-family="sans-serif" font-size="13" lengthAdjust="spacing" textLength="50" x="403" y="580.377">selector</text><polygon fill="#181818" points="226,625.7402,216,629.7402,226,633.7402,222,629.7402" style="stroke:#181818;stroke-width:1.0;"/><line style="stroke:#181818;stroke-width:1.0;stroke-dasharray:2.0,2.0;" x1="220" x2="362" y1="629.7402" y2="629.7402"/><text fill="#000000" font-family="sans-serif" font-size="13" lengthAdjust="spacing" textLength="4" x="232" y="609.6875">&#160;</text><text fill="#000000" font-family="sans-serif" font-size="13" lengthAdjust="spacing" textLength="31" x="240" y="624.998">delta</text><polygon fill="#181818" points="659,700.9824,669,704.9824,659,708.9824,663,704.9824" style="stroke:#181818;stroke-width:1.0;"/><line style="stroke:#181818;stroke-width:1.0;" x1="215" x2="665" y1="704.9824" y2="704.9824"/><text fill="#000000" font-family="sans-serif" font-size="13" lengthAdjust="spacing" textLength="85" x="222" y="654.3086">transferFrom(</text><text fill="#000000" font-family="sans-serif" font-size="13" lengthAdjust="spacing" textLength="46" x="230" y="669.6191">sender,</text><text fill="#000000" font-family="sans-serif" font-size="13" lengthAdjust="spacing" textLength="59" x="230" y="684.9297">recipient,</text><text fill="#000000" font-family="sans-serif" font-size="13" lengthAdjust="spacing" textLength="52" x="230" y="700.2402">amount)</text><polygon fill="#181818" points="226,745.6035,216,749.6035,226,753.6035,222,749.6035" style="stroke:#181818;stroke-width:1.0;"/><line style="stroke:#181818;stroke-width:1.0;stroke-dasharray:2.0,2.0;" x1="220" x2="675" y1="749.6035" y2="749.6035"/><text fill="#000000" font-family="sans-serif" font-size="13" lengthAdjust="spacing" textLength="4" x="232" y="729.5508">&#160;</text><text fill="#000000" font-family="sans-serif" font-size="13" lengthAdjust="spacing" textLength="5" x="232" y="744.8613">?</text><polygon fill="#181818" points="356,790.2246,366,794.2246,356,798.2246,360,794.2246" style="stroke:#181818;stroke-width:1.0;"/><line style="stroke:#181818;stroke-width:1.0;" x1="215" x2="362" y1="794.2246" y2="794.2246"/><text fill="#000000" font-family="sans-serif" font-size="13" lengthAdjust="spacing" textLength="39" x="222" y="774.1719">settle(</text><text fill="#000000" font-family="sans-serif" font-size="13" lengthAdjust="spacing" textLength="58" x="230" y="789.4824">currency)</text><polygon fill="#181818" points="659,834.8457,669,838.8457,659,842.8457,663,838.8457" style="stroke:#181818;stroke-width:1.0;"/><line style="stroke:#181818;stroke-width:1.0;" x1="378" x2="665" y1="838.8457" y2="838.8457"/><text fill="#000000" font-family="sans-serif" font-size="13" lengthAdjust="spacing" textLength="67" x="385" y="818.793">balanceOf(</text><text fill="#000000" font-family="sans-serif" font-size="13" lengthAdjust="spacing" textLength="9" x="385" y="834.1035">?)</text><polygon fill="#181818" points="389,879.4668,379,883.4668,389,887.4668,385,883.4668" style="stroke:#181818;stroke-width:1.0;"/><line style="stroke:#181818;stroke-width:1.0;stroke-dasharray:2.0,2.0;" x1="383" x2="675" y1="883.4668" y2="883.4668"/><text fill="#000000" font-family="sans-serif" font-size="13" lengthAdjust="spacing" textLength="4" x="395" y="863.4141">&#160;</text><text fill="#000000" font-family="sans-serif" font-size="13" lengthAdjust="spacing" textLength="5" x="395" y="878.7246">?</text><polygon fill="#181818" points="226,924.0879,216,928.0879,226,932.0879,222,928.0879" style="stroke:#181818;stroke-width:1.0;"/><line style="stroke:#181818;stroke-width:1.0;stroke-dasharray:2.0,2.0;" x1="220" x2="362" y1="928.0879" y2="928.0879"/><text fill="#000000" font-family="sans-serif" font-size="13" lengthAdjust="spacing" textLength="4" x="232" y="908.0352">&#160;</text><text fill="#000000" font-family="sans-serif" font-size="13" lengthAdjust="spacing" textLength="27" x="240" y="923.3457">paid</text><polygon fill="#181818" points="775.5,999.3301,785.5,1003.3301,775.5,1007.3301,779.5,1003.3301" style="stroke:#181818;stroke-width:1.0;"/><line style="stroke:#181818;stroke-width:1.0;" x1="215" x2="781.5" y1="1003.3301" y2="1003.3301"/><text fill="#000000" font-family="sans-serif" font-size="13" lengthAdjust="spacing" textLength="85" x="222" y="952.6563">transferFrom(</text><text fill="#000000" font-family="sans-serif" font-size="13" lengthAdjust="spacing" textLength="46" x="230" y="967.9668">sender,</text><text fill="#000000" font-family="sans-serif" font-size="13" lengthAdjust="spacing" textLength="59" x="230" y="983.2773">recipient,</text><text fill="#000000" font-family="sans-serif" font-size="13" lengthAdjust="spacing" textLength="52" x="230" y="998.5879">amount)</text><polygon fill="#181818" points="226,1043.9512,216,1047.9512,226,1051.9512,222,1047.9512" style="stroke:#181818;stroke-width:1.0;"/><line style="stroke:#181818;stroke-width:1.0;stroke-dasharray:2.0,2.0;" x1="220" x2="791.5" y1="1047.9512" y2="1047.9512"/><text fill="#000000" font-family="sans-serif" font-size="13" lengthAdjust="spacing" textLength="4" x="232" y="1027.8984">&#160;</text><text fill="#000000" font-family="sans-serif" font-size="13" lengthAdjust="spacing" textLength="5" x="232" y="1043.209">?</text><polygon fill="#181818" points="356,1088.5723,366,1092.5723,356,1096.5723,360,1092.5723" style="stroke:#181818;stroke-width:1.0;"/><line style="stroke:#181818;stroke-width:1.0;" x1="215" x2="362" y1="1092.5723" y2="1092.5723"/><text fill="#000000" font-family="sans-serif" font-size="13" lengthAdjust="spacing" textLength="39" x="222" y="1072.5195">settle(</text><text fill="#000000" font-family="sans-serif" font-size="13" lengthAdjust="spacing" textLength="58" x="230" y="1087.8301">currency)</text><polygon fill="#181818" points="775.5,1133.1934,785.5,1137.1934,775.5,1141.1934,779.5,1137.1934" style="stroke:#181818;stroke-width:1.0;"/><line style="stroke:#181818;stroke-width:1.0;" x1="378" x2="781.5" y1="1137.1934" y2="1137.1934"/><text fill="#000000" font-family="sans-serif" font-size="13" lengthAdjust="spacing" textLength="67" x="385" y="1117.1406">balanceOf(</text><text fill="#000000" font-family="sans-serif" font-size="13" lengthAdjust="spacing" textLength="9" x="385" y="1132.4512">?)</text><polygon fill="#181818" points="389,1177.8145,379,1181.8145,389,1185.8145,385,1181.8145" style="stroke:#181818;stroke-width:1.0;"/><line style="stroke:#181818;stroke-width:1.0;stroke-dasharray:2.0,2.0;" x1="383" x2="791.5" y1="1181.8145" y2="1181.8145"/><text fill="#000000" font-family="sans-serif" font-size="13" lengthAdjust="spacing" textLength="4" x="395" y="1161.7617">&#160;</text><text fill="#000000" font-family="sans-serif" font-size="13" lengthAdjust="spacing" textLength="5" x="395" y="1177.0723">?</text><polygon fill="#181818" points="226,1222.4355,216,1226.4355,226,1230.4355,222,1226.4355" style="stroke:#181818;stroke-width:1.0;"/><line style="stroke:#181818;stroke-width:1.0;stroke-dasharray:2.0,2.0;" x1="220" x2="362" y1="1226.4355" y2="1226.4355"/><text fill="#000000" font-family="sans-serif" font-size="13" lengthAdjust="spacing" textLength="4" x="232" y="1206.3828">&#160;</text><text fill="#000000" font-family="sans-serif" font-size="13" lengthAdjust="spacing" textLength="27" x="240" y="1221.6934">paid</text><polygon fill="#181818" points="351,1267.0566,361,1271.0566,351,1275.0566,355,1271.0566" style="stroke:#181818;stroke-width:1.0;"/><line style="stroke:#181818;stroke-width:1.0;stroke-dasharray:2.0,2.0;" x1="210" x2="357" y1="1271.0566" y2="1271.0566"/><text fill="#000000" font-family="sans-serif" font-size="13" lengthAdjust="spacing" textLength="4" x="217" y="1251.0039">&#160;</text><text fill="#000000" font-family="sans-serif" font-size="13" lengthAdjust="spacing" textLength="5" x="217" y="1266.3145">?</text><polygon fill="#181818" points="221,1311.6777,211,1315.6777,221,1319.6777,217,1315.6777" style="stroke:#181818;stroke-width:1.0;"/><line style="stroke:#181818;stroke-width:1.0;stroke-dasharray:2.0,2.0;" x1="215" x2="367" y1="1315.6777" y2="1315.6777"/><text fill="#000000" font-family="sans-serif" font-size="13" lengthAdjust="spacing" textLength="4" x="227" y="1295.625">&#160;</text><text fill="#000000" font-family="sans-serif" font-size="13" lengthAdjust="spacing" textLength="36" x="235" y="1310.9355">result</text><polygon fill="#181818" points="64,1356.2988,54,1360.2988,64,1364.2988,60,1360.2988" style="stroke:#181818;stroke-width:1.0;"/><line style="stroke:#181818;stroke-width:1.0;stroke-dasharray:2.0,2.0;" x1="58" x2="204" y1="1360.2988" y2="1360.2988"/><text fill="#000000" font-family="sans-serif" font-size="13" lengthAdjust="spacing" textLength="4" x="70" y="1340.2461">&#160;</text><text fill="#000000" font-family="sans-serif" font-size="13" lengthAdjust="spacing" textLength="31" x="78" y="1355.5566">delta</text><path d="M307,1373.2988 L307,1474.2988 L429,1474.2988 L429,1383.2988 L419,1373.2988 L307,1373.2988 " fill="#00FFFF" style="stroke:#181818;stroke-width:0.5;"/><path d="M419,1373.2988 L419,1383.2988 L429,1383.2988 L419,1373.2988 " fill="#00FFFF" style="stroke:#181818;stroke-width:0.5;"/><text fill="#000000" font-family="sans-serif" font-size="13" lengthAdjust="spacing" textLength="98" x="313" y="1390.8672">ModifyPosition:</text><text fill="#000000" font-family="sans-serif" font-size="13" lengthAdjust="spacing" textLength="16" x="329" y="1406.1777">id,</text><text fill="#000000" font-family="sans-serif" font-size="13" lengthAdjust="spacing" textLength="46" x="329" y="1421.4883">sender,</text><text fill="#000000" font-family="sans-serif" font-size="13" lengthAdjust="spacing" textLength="65" x="329" y="1436.7988">tickLower,</text><text fill="#000000" font-family="sans-serif" font-size="13" lengthAdjust="spacing" textLength="65" x="329" y="1452.1094">tickUpper,</text><text fill="#000000" font-family="sans-serif" font-size="13" lengthAdjust="spacing" textLength="85" x="329" y="1467.4199">liquidityDelta</text><path d="M637,1373.2988 L637,1444.2988 L714,1444.2988 L714,1383.2988 L704,1373.2988 L637,1373.2988 " fill="#00FFFF" style="stroke:#181818;stroke-width:0.5;"/><path d="M704,1373.2988 L704,1383.2988 L714,1383.2988 L704,1373.2988 " fill="#00FFFF" style="stroke:#181818;stroke-width:0.5;"/><text fill="#000000" font-family="sans-serif" font-size="13" lengthAdjust="spacing" textLength="56" x="643" y="1390.8672">Transfer:</text><text fill="#000000" font-family="sans-serif" font-size="13" lengthAdjust="spacing" textLength="34" x="659" y="1406.1777">from,</text><text fill="#000000" font-family="sans-serif" font-size="13" lengthAdjust="spacing" textLength="17" x="659" y="1421.4883">to,</text><text fill="#000000" font-family="sans-serif" font-size="13" lengthAdjust="spacing" textLength="33" x="659" y="1436.7988">value</text><path d="M754,1373.2988 L754,1444.2988 L831,1444.2988 L831,1383.2988 L821,1373.2988 L754,1373.2988 " fill="#00FFFF" style="stroke:#181818;stroke-width:0.5;"/><path d="M821,1373.2988 L821,1383.2988 L831,1383.2988 L821,1373.2988 " fill="#00FFFF" style="stroke:#181818;stroke-width:0.5;"/><text fill="#000000" font-family="sans-serif" font-size="13" lengthAdjust="spacing" textLength="56" x="760" y="1390.8672">Transfer:</text><text fill="#000000" font-family="sans-serif" font-size="13" lengthAdjust="spacing" textLength="34" x="776" y="1406.1777">from,</text><text fill="#000000" font-family="sans-serif" font-size="13" lengthAdjust="spacing" textLength="17" x="776" y="1421.4883">to,</text><text fill="#000000" font-family="sans-serif" font-size="13" lengthAdjust="spacing" textLength="33" x="776" y="1436.7988">value</text><!--SRC=[jLHTJzim57tFhx3OooPrdUCaX4G8XCRO7eQ6fkvjBpVEDREQsiLnWFvxR9UafAKWDgqlpabzphbVkLRQ1WczhuuAg3bBgvZHF8UyI85bFAOn0uf5aHGPpR8uOt75iaGmUfGVfNbT8ArO4MCEKSHXQQLMP05IARGJKZMQpqaw8RC_tOImb9nrruHHbX1Qb4bMfWNvUZcBW5jjo06z5qaXfbF63WyF2BJ4Gmz8j0HZ9PTBKDRVuoB7wPGANeHx7df0Ze-lj6ukTIt5wagtqaSpmzQUd6mh50BJwHGEaGO53pte5K31DPfTMiA5CtQtCT0yzC3HpbSA5f9V87xJUhxBp4HLkv01ai3qq0F7z05- -VcPqLqIvY9sf2ncWUIX1rkaQAZJnvEX5YLPZChm_hSYP8whYJ-T3IpQ3xxmyXOi3gneAAMJwejI4j_68523XIUq_aOqr6yKWQUTyPjE6gm3tS3T-LZX5UEtvF1iC7s7IbAXq0OlTmLRL3MQoOlQlKnaq7P6hMaD-hdTOmV2edcBMtYiiHcLvoNVpQl06bMm7w-IM0Eg5MWkZ5vi1s3GZPf4PGE2XUwKVMBUYmnEftkwrA9rAoIeyyuOL7prMbys0LRGWEBuGpZ-wSlkcuoN8EjHCFsdyKy9zoB_8-5DWFiIViPzA-7d_Z3OTetT6OP8QIUfRz5iTjixkEaW6iza6H7ta_Kad8-b2izk3ys_wxkdyDTosSD6ki-wbdPr7kmSZtZ7AFf4Dix3abixpnuxi_OKhZ-FqdfztaBJuHwfOVNzbTG3]--></g></svg>