<?xml version="1.0" encoding="us-ascii" standalone="no"?><svg xmlns="http://www.w3.org/2000/svg" xmlns:xlink="http://www.w3.org/1999/xlink" contentStyleType="text/css" height="1871px" preserveAspectRatio="none" style="width:1923px;height:1871px;background:#FFFFFF;" version="1.1" viewBox="0 0 1923 1871" width="1923px" zoomAndPan="magnify"><defs/><g><text fill="#000000" font-family="sans-serif" font-size="14" font-weight="bold" lengthAdjust="spacing" textLength="566" x="677" y="28.5352">0x58f377de805864a0d355eade323de8c65ebfbd1c1cf4072934612e102fed3328</text><text fill="#000000" font-family="sans-serif" font-size="14" lengthAdjust="spacing" textLength="326" x="797" y="1859.3965">none, block 5, Tue, 29 Aug 2023 03:26:06 GMT</text><rect fill="#FFFFFF" height="1289.1855" style="stroke:#181818;stroke-width:1.0;" width="10" x="291" y="349.3242"/><rect fill="#FFFFFF" height="1110.7012" style="stroke:#181818;stroke-width:1.0;" width="10" x="296" y="438.5664"/><rect fill="#FFFFFF" height="1184.6328" style="stroke:#181818;stroke-width:1.0;" width="10" x="817" y="393.9453"/><rect fill="#FFFFFF" height="498.6953" style="stroke:#181818;stroke-width:1.0;" width="10" x="822" y="620.9824"/><rect fill="#FFFFFF" height="103.2422" style="stroke:#181818;stroke-width:1.0;" width="10" x="822" y="1224.2305"/><rect fill="#FFFFFF" height="103.2422" style="stroke:#181818;stroke-width:1.0;" width="10" x="822" y="1402.7148"/><rect fill="#FFFFFF" height="29.3105" style="stroke:#181818;stroke-width:1.0;" width="10" x="1350" y="818.709"/><rect fill="#FFFFFF" height="29.3105" style="stroke:#181818;stroke-width:1.0;" width="10" x="1350" y="1061.0566"/><rect fill="#809ECB" height="370.9688" style="stroke:#181818;stroke-width:1.0;" width="10" x="1502.5" y="1148.9883"/><rect fill="#FFFFFF" height="29.3105" style="stroke:#181818;stroke-width:1.0;" width="10" x="1635" y="1284.1621"/><rect fill="#FFFFFF" height="29.3105" style="stroke:#181818;stroke-width:1.0;" width="10" x="1834.5" y="1462.6465"/><line style="stroke:#181818;stroke-width:0.5;stroke-dasharray:5.0,5.0;" x1="53" x2="53" y1="118.9766" y2="1768.373"/><line style="stroke:#181818;stroke-width:0.5;stroke-dasharray:5.0,5.0;" x1="296" x2="296" y1="118.9766" y2="1768.373"/><line style="stroke:#181818;stroke-width:0.5;stroke-dasharray:5.0,5.0;" x1="822" x2="822" y1="118.9766" y2="1768.373"/><line style="stroke:#181818;stroke-width:0.5;stroke-dasharray:5.0,5.0;" x1="1355" x2="1355" y1="118.9766" y2="1768.373"/><line style="stroke:#181818;stroke-width:0.5;stroke-dasharray:5.0,5.0;" x1="1507" x2="1507" y1="118.9766" y2="1768.373"/><line style="stroke:#181818;stroke-width:0.5;stroke-dasharray:5.0,5.0;" x1="1640" x2="1640" y1="118.9766" y2="1768.373"/><line style="stroke:#181818;stroke-width:0.5;stroke-dasharray:5.0,5.0;" x1="1839" x2="1839" y1="118.9766" y2="1768.373"/><text fill="#000000" font-family="sans-serif" font-size="14" lengthAdjust="spacing" textLength="90" x="5" y="116.0234">0xf39f..2266</text><ellipse cx="53" cy="50.9883" fill="#E2E2F0" rx="8" ry="8" style="stroke:#181818;stroke-width:0.5;"/><path d="M53,58.9883 L53,85.9883 M40,66.9883 L66,66.9883 M53,85.9883 L40,100.9883 M53,85.9883 L66,100.9883 " fill="none" style="stroke:#181818;stroke-width:0.5;"/><text fill="#000000" font-family="sans-serif" font-size="14" lengthAdjust="spacing" textLength="90" x="5" y="1780.9082">0xf39f..2266</text><ellipse cx="53" cy="1792.3613" fill="#E2E2F0" rx="8" ry="8" style="stroke:#181818;stroke-width:0.5;"/><path d="M53,1800.3613 L53,1827.3613 M40,1808.3613 L66,1808.3613 M53,1827.3613 L40,1842.3613 M53,1827.3613 L66,1842.3613 " fill="none" style="stroke:#181818;stroke-width:0.5;"/><rect fill="#E2E2F0" height="46.9766" rx="2.5" ry="2.5" style="stroke:#181818;stroke-width:0.5;" width="126" x="233" y="71"/><text fill="#000000" font-family="sans-serif" font-size="14" font-style="italic" lengthAdjust="spacing" textLength="112" x="240" y="91.5352">&#171;GenericRouter&#187;</text><text fill="#000000" font-family="sans-serif" font-size="14" lengthAdjust="spacing" textLength="85" x="253.5" y="108.0234">0xcf7e..0fc9</text><rect fill="#E2E2F0" height="46.9766" rx="2.5" ry="2.5" style="stroke:#181818;stroke-width:0.5;" width="126" x="233" y="1767.373"/><text fill="#000000" font-family="sans-serif" font-size="14" font-style="italic" lengthAdjust="spacing" textLength="112" x="240" y="1787.9082">&#171;GenericRouter&#187;</text><text fill="#000000" font-family="sans-serif" font-size="14" lengthAdjust="spacing" textLength="85" x="253.5" y="1804.3965">0xcf7e..0fc9</text><rect fill="#E2E2F0" height="46.9766" rx="2.5" ry="2.5" style="stroke:#181818;stroke-width:0.5;" width="118" x="763" y="71"/><text fill="#000000" font-family="sans-serif" font-size="14" font-style="italic" lengthAdjust="spacing" textLength="104" x="770" y="91.5352">&#171;PoolManager&#187;</text><text fill="#000000" font-family="sans-serif" font-size="14" lengthAdjust="spacing" textLength="91" x="776.5" y="108.0234">0x9fe4..a6e0</text><rect fill="#E2E2F0" height="46.9766" rx="2.5" ry="2.5" style="stroke:#181818;stroke-width:0.5;" width="118" x="763" y="1767.373"/><text fill="#000000" font-family="sans-serif" font-size="14" font-style="italic" lengthAdjust="spacing" textLength="104" x="770" y="1787.9082">&#171;PoolManager&#187;</text><text fill="#000000" font-family="sans-serif" font-size="14" lengthAdjust="spacing" textLength="91" x="776.5" y="1804.3965">0x9fe4..a6e0</text><rect fill="#E2E2F0" height="46.9766" rx="2.5" ry="2.5" style="stroke:#181818;stroke-width:0.5;" width="146" x="1282" y="71"/><text fill="#000000" font-family="sans-serif" font-size="14" font-style="italic" lengthAdjust="spacing" textLength="132" x="1289" y="91.5352">&#171;DynamicFeeHook&#187;</text><text fill="#000000" font-family="sans-serif" font-size="14" lengthAdjust="spacing" textLength="94" x="1308" y="108.0234">0x3c5c..8363</text><rect fill="#E2E2F0" height="46.9766" rx="2.5" ry="2.5" style="stroke:#181818;stroke-width:0.5;" width="146" x="1282" y="1767.373"/><text fill="#000000" font-family="sans-serif" font-size="14" font-style="italic" lengthAdjust="spacing" textLength="132" x="1289" y="1787.9082">&#171;DynamicFeeHook&#187;</text><text fill="#000000" font-family="sans-serif" font-size="14" lengthAdjust="spacing" textLength="94" x="1308" y="1804.3965">0x3c5c..8363</text><rect fill="#E2E2F0" height="46.9766" rx="2.5" ry="2.5" style="stroke:#181818;stroke-width:0.5;" width="139" x="1438" y="71"/><text fill="#000000" font-family="sans-serif" font-size="14" font-style="italic" lengthAdjust="spacing" textLength="125" x="1445" y="91.5352">&#171;RouterCallbacks&#187;</text><text fill="#000000" font-family="sans-serif" font-size="14" lengthAdjust="spacing" textLength="90" x="1462.5" y="108.0234">0xdc64..f6c9</text><rect fill="#E2E2F0" height="46.9766" rx="2.5" ry="2.5" style="stroke:#181818;stroke-width:0.5;" width="139" x="1438" y="1767.373"/><text fill="#000000" font-family="sans-serif" font-size="14" font-style="italic" lengthAdjust="spacing" textLength="125" x="1445" y="1787.9082">&#171;RouterCallbacks&#187;</text><text fill="#000000" font-family="sans-serif" font-size="14" lengthAdjust="spacing" textLength="90" x="1462.5" y="1804.3965">0xdc64..f6c9</text><rect fill="#E2E2F0" height="63.4648" rx="2.5" ry="2.5" style="stroke:#181818;stroke-width:0.5;" width="106" x="1587" y="54.5117"/><text fill="#000000" font-family="sans-serif" font-size="14" font-style="italic" lengthAdjust="spacing" textLength="62" x="1609" y="75.0469">&#171;token0&#187;</text><text fill="#000000" font-family="sans-serif" font-size="14" font-style="italic" lengthAdjust="spacing" textLength="88" x="1596" y="91.5352">&#171;TestERC20&#187;</text><text fill="#000000" font-family="sans-serif" font-size="14" lengthAdjust="spacing" textLength="92" x="1594" y="108.0234">0x5fbd..0aa3</text><rect fill="#E2E2F0" height="63.4648" rx="2.5" ry="2.5" style="stroke:#181818;stroke-width:0.5;" width="106" x="1587" y="1767.373"/><text fill="#000000" font-family="sans-serif" font-size="14" font-style="italic" lengthAdjust="spacing" textLength="62" x="1609" y="1787.9082">&#171;token0&#187;</text><text fill="#000000" font-family="sans-serif" font-size="14" font-style="italic" lengthAdjust="spacing" textLength="88" x="1596" y="1804.3965">&#171;TestERC20&#187;</text><text fill="#000000" font-family="sans-serif" font-size="14" lengthAdjust="spacing" textLength="92" x="1594" y="1820.8848">0x5fbd..0aa3</text><rect fill="#E2E2F0" height="63.4648" rx="2.5" ry="2.5" style="stroke:#181818;stroke-width:0.5;" width="107" x="1786" y="54.5117"/><text fill="#000000" font-family="sans-serif" font-size="14" font-style="italic" lengthAdjust="spacing" textLength="62" x="1808.5" y="75.0469">&#171;token1&#187;</text><text fill="#000000" font-family="sans-serif" font-size="14" font-style="italic" lengthAdjust="spacing" textLength="88" x="1795.5" y="91.5352">&#171;TestERC20&#187;</text><text fill="#000000" font-family="sans-serif" font-size="14" lengthAdjust="spacing" textLength="93" x="1793" y="108.0234">0xe7f1..0512</text><rect fill="#E2E2F0" height="63.4648" rx="2.5" ry="2.5" style="stroke:#181818;stroke-width:0.5;" width="107" x="1786" y="1767.373"/><text fill="#000000" font-family="sans-serif" font-size="14" font-style="italic" lengthAdjust="spacing" textLength="62" x="1808.5" y="1787.9082">&#171;token1&#187;</text><text fill="#000000" font-family="sans-serif" font-size="14" font-style="italic" lengthAdjust="spacing" textLength="88" x="1795.5" y="1804.3965">&#171;TestERC20&#187;</text><text fill="#000000" font-family="sans-serif" font-size="14" lengthAdjust="spacing" textLength="93" x="1793" y="1820.8848">0xe7f1..0512</text><rect fill="#FFFFFF" height="1289.1855" style="stroke:#181818;stroke-width:1.0;" width="10" x="291" y="349.3242"/><rect fill="#FFFFFF" height="1110.7012" style="stroke:#181818;stroke-width:1.0;" width="10" x="296" y="438.5664"/><rect fill="#FFFFFF" height="1184.6328" style="stroke:#181818;stroke-width:1.0;" width="10" x="817" y="393.9453"/><rect fill="#FFFFFF" height="498.6953" style="stroke:#181818;stroke-width:1.0;" width="10" x="822" y="620.9824"/><rect fill="#FFFFFF" height="103.2422" style="stroke:#181818;stroke-width:1.0;" width="10" x="822" y="1224.2305"/><rect fill="#FFFFFF" height="103.2422" style="stroke:#181818;stroke-width:1.0;" width="10" x="822" y="1402.7148"/><rect fill="#FFFFFF" height="29.3105" style="stroke:#181818;stroke-width:1.0;" width="10" x="1350" y="818.709"/><rect fill="#FFFFFF" height="29.3105" style="stroke:#181818;stroke-width:1.0;" width="10" x="1350" y="1061.0566"/><rect fill="#809ECB" height="370.9688" style="stroke:#181818;stroke-width:1.0;" width="10" x="1502.5" y="1148.9883"/><rect fill="#FFFFFF" height="29.3105" style="stroke:#181818;stroke-width:1.0;" width="10" x="1635" y="1284.1621"/><rect fill="#FFFFFF" height="29.3105" style="stroke:#181818;stroke-width:1.0;" width="10" x="1834.5" y="1462.6465"/><polygon fill="#181818" points="279,345.3242,289,349.3242,279,353.3242,283,349.3242" style="stroke:#181818;stroke-width:1.0;"/><line style="stroke:#181818;stroke-width:1.0;" x1="53" x2="285" y1="349.3242" y2="349.3242"/><text fill="#000000" font-family="sans-serif" font-size="13" lengthAdjust="spacing" textLength="53" x="60" y="145.5449">process(</text><text fill="#000000" font-family="sans-serif" font-size="13" lengthAdjust="spacing" textLength="41" x="68" y="160.8555">calls: [</text><text fill="#000000" font-family="sans-serif" font-size="13" lengthAdjust="spacing" textLength="20" x="76" y="176.166">0: [</text><text fill="#000000" font-family="sans-serif" font-size="13" lengthAdjust="spacing" textLength="131" x="84" y="191.4766">target: 0x9fE4..a6e0,</text><text fill="#000000" font-family="sans-serif" font-size="13" lengthAdjust="spacing" textLength="64" x="84" y="206.7871">callType: ,</text><text fill="#000000" font-family="sans-serif" font-size="13" lengthAdjust="spacing" textLength="85" x="84" y="222.0977">results: false,</text><text fill="#000000" font-family="sans-serif" font-size="13" lengthAdjust="spacing" textLength="53" x="84" y="237.4082">value: 0,</text><text fill="#000000" font-family="sans-serif" font-size="13" lengthAdjust="spacing" textLength="194" x="84" y="252.7188">data: 0x555a4733..62700000],</text><text fill="#000000" font-family="sans-serif" font-size="13" lengthAdjust="spacing" textLength="20" x="76" y="268.0293">1: [</text><text fill="#000000" font-family="sans-serif" font-size="13" lengthAdjust="spacing" textLength="138" x="84" y="283.3398">target: 0xDc64..F6C9,</text><text fill="#000000" font-family="sans-serif" font-size="13" lengthAdjust="spacing" textLength="72" x="84" y="298.6504">callType: 1,</text><text fill="#000000" font-family="sans-serif" font-size="13" lengthAdjust="spacing" textLength="80" x="84" y="313.9609">results: true,</text><text fill="#000000" font-family="sans-serif" font-size="13" lengthAdjust="spacing" textLength="53" x="84" y="329.2715">value: 0,</text><text fill="#000000" font-family="sans-serif" font-size="13" lengthAdjust="spacing" textLength="195" x="84" y="344.582">data: 0xd992e10f..00000000]])</text><polygon fill="#181818" points="805,389.9453,815,393.9453,805,397.9453,809,393.9453" style="stroke:#181818;stroke-width:1.0;"/><line style="stroke:#181818;stroke-width:1.0;" x1="301" x2="811" y1="393.9453" y2="393.9453"/><text fill="#000000" font-family="sans-serif" font-size="13" lengthAdjust="spacing" textLength="31" x="308" y="373.8926">lock(</text><text fill="#000000" font-family="sans-serif" font-size="13" lengthAdjust="spacing" textLength="191" x="316" y="389.2031">data: 0x00000000..00000000)</text><polygon fill="#181818" points="317,434.5664,307,438.5664,317,442.5664,313,438.5664" style="stroke:#181818;stroke-width:1.0;"/><line style="stroke:#181818;stroke-width:1.0;" x1="311" x2="816" y1="438.5664" y2="438.5664"/><text fill="#000000" font-family="sans-serif" font-size="13" lengthAdjust="spacing" textLength="87" x="323" y="418.5137">lockAcquired(</text><text fill="#000000" font-family="sans-serif" font-size="13" lengthAdjust="spacing" textLength="215" x="331" y="433.8242">rawData: 0x00000000..00000000)</text><polygon fill="#181818" points="810,616.9824,820,620.9824,810,624.9824,814,620.9824" style="stroke:#181818;stroke-width:1.0;"/><line style="stroke:#181818;stroke-width:1.0;" x1="306" x2="816" y1="620.9824" y2="620.9824"/><text fill="#000000" font-family="sans-serif" font-size="13" lengthAdjust="spacing" textLength="99" x="313" y="463.1348">modifyPosition(</text><text fill="#000000" font-family="sans-serif" font-size="13" lengthAdjust="spacing" textLength="34" x="321" y="478.4453">key: [</text><text fill="#000000" font-family="sans-serif" font-size="13" lengthAdjust="spacing" textLength="161" x="329" y="493.7559">currency0: 0x5FbD..0aa3,</text><text fill="#000000" font-family="sans-serif" font-size="13" lengthAdjust="spacing" textLength="158" x="329" y="509.0664">currency1: 0xe7f1..0512,</text><text fill="#000000" font-family="sans-serif" font-size="13" lengthAdjust="spacing" textLength="95" x="329" y="524.377">fee: 8,388,608,</text><text fill="#000000" font-family="sans-serif" font-size="13" lengthAdjust="spacing" textLength="101" x="329" y="539.6875">tickSpacing: 60,</text><text fill="#000000" font-family="sans-serif" font-size="13" lengthAdjust="spacing" textLength="141" x="329" y="554.998">hooks: 0x3c5c..8363],</text><text fill="#000000" font-family="sans-serif" font-size="13" lengthAdjust="spacing" textLength="58" x="321" y="570.3086">params: [</text><text fill="#000000" font-family="sans-serif" font-size="13" lengthAdjust="spacing" textLength="97" x="329" y="585.6191">tickLower: -60,</text><text fill="#000000" font-family="sans-serif" font-size="13" lengthAdjust="spacing" textLength="89" x="329" y="600.9297">tickUpper: 60,</text><text fill="#000000" font-family="sans-serif" font-size="13" lengthAdjust="spacing" textLength="261" x="329" y="616.2402">liquidityDelta: -4000000000000000000])</text><polygon fill="#181818" points="1338,814.709,1348,818.709,1338,822.709,1342,818.709" style="stroke:#181818;stroke-width:1.0;"/><line style="stroke:#181818;stroke-width:1.0;" x1="832" x2="1344" y1="818.709" y2="818.709"/><text fill="#000000" font-family="sans-serif" font-size="13" lengthAdjust="spacing" textLength="138" x="839" y="645.5508">beforeModifyPosition(</text><text fill="#000000" font-family="sans-serif" font-size="13" lengthAdjust="spacing" textLength="137" x="847" y="660.8613">sender: 0xCf7E..0Fc9,</text><text fill="#000000" font-family="sans-serif" font-size="13" lengthAdjust="spacing" textLength="34" x="847" y="676.1719">key: [</text><text fill="#000000" font-family="sans-serif" font-size="13" lengthAdjust="spacing" textLength="161" x="855" y="691.4824">currency0: 0x5FbD..0aa3,</text><text fill="#000000" font-family="sans-serif" font-size="13" lengthAdjust="spacing" textLength="158" x="855" y="706.793">currency1: 0xe7f1..0512,</text><text fill="#000000" font-family="sans-serif" font-size="13" lengthAdjust="spacing" textLength="95" x="855" y="722.1035">fee: 8,388,608,</text><text fill="#000000" font-family="sans-serif" font-size="13" lengthAdjust="spacing" textLength="101" x="855" y="737.4141">tickSpacing: 60,</text><text fill="#000000" font-family="sans-serif" font-size="13" lengthAdjust="spacing" textLength="141" x="855" y="752.7246">hooks: 0x3c5c..8363],</text><text fill="#000000" font-family="sans-serif" font-size="13" lengthAdjust="spacing" textLength="58" x="847" y="768.0352">params: [</text><text fill="#000000" font-family="sans-serif" font-size="13" lengthAdjust="spacing" textLength="97" x="855" y="783.3457">tickLower: -60,</text><text fill="#000000" font-family="sans-serif" font-size="13" lengthAdjust="spacing" textLength="89" x="855" y="798.6563">tickUpper: 60,</text><text fill="#000000" font-family="sans-serif" font-size="13" lengthAdjust="spacing" textLength="261" x="855" y="813.9668">liquidityDelta: -4000000000000000000])</text><polygon fill="#181818" points="843,844.0195,833,848.0195,843,852.0195,839,848.0195" style="stroke:#181818;stroke-width:1.0;"/><line style="stroke:#181818;stroke-width:1.0;stroke-dasharray:2.0,2.0;" x1="837" x2="1354" y1="848.0195" y2="848.0195"/><text fill="#000000" font-family="sans-serif" font-size="13" lengthAdjust="spacing" textLength="137" x="849" y="843.2773">selector: 0x0dbe5dbd</text><polygon fill="#181818" points="1338,1057.0566,1348,1061.0566,1338,1065.0566,1342,1061.0566" style="stroke:#181818;stroke-width:1.0;"/><line style="stroke:#181818;stroke-width:1.0;" x1="832" x2="1344" y1="1061.0566" y2="1061.0566"/><text fill="#000000" font-family="sans-serif" font-size="13" lengthAdjust="spacing" textLength="127" x="839" y="872.5879">afterModifyPosition(</text><text fill="#000000" font-family="sans-serif" font-size="13" lengthAdjust="spacing" textLength="137" x="847" y="887.8984">sender: 0xCf7E..0Fc9,</text><text fill="#000000" font-family="sans-serif" font-size="13" lengthAdjust="spacing" textLength="34" x="847" y="903.209">key: [</text><text fill="#000000" font-family="sans-serif" font-size="13" lengthAdjust="spacing" textLength="161" x="855" y="918.5195">currency0: 0x5FbD..0aa3,</text><text fill="#000000" font-family="sans-serif" font-size="13" lengthAdjust="spacing" textLength="158" x="855" y="933.8301">currency1: 0xe7f1..0512,</text><text fill="#000000" font-family="sans-serif" font-size="13" lengthAdjust="spacing" textLength="95" x="855" y="949.1406">fee: 8,388,608,</text><text fill="#000000" font-family="sans-serif" font-size="13" lengthAdjust="spacing" textLength="101" x="855" y="964.4512">tickSpacing: 60,</text><text fill="#000000" font-family="sans-serif" font-size="13" lengthAdjust="spacing" textLength="141" x="855" y="979.7617">hooks: 0x3c5c..8363],</text><text fill="#000000" font-family="sans-serif" font-size="13" lengthAdjust="spacing" textLength="58" x="847" y="995.0723">params: [</text><text fill="#000000" font-family="sans-serif" font-size="13" lengthAdjust="spacing" textLength="97" x="855" y="1010.3828">tickLower: -60,</text><text fill="#000000" font-family="sans-serif" font-size="13" lengthAdjust="spacing" textLength="89" x="855" y="1025.6934">tickUpper: 60,</text><text fill="#000000" font-family="sans-serif" font-size="13" lengthAdjust="spacing" textLength="261" x="855" y="1041.0039">liquidityDelta: -4000000000000000000],</text><text fill="#000000" font-family="sans-serif" font-size="13" lengthAdjust="spacing" textLength="491" x="847" y="1056.3145">delta: -8197142890605694701995120405752706867029739591230816256)</text><polygon fill="#181818" points="843,1086.3672,833,1090.3672,843,1094.3672,839,1090.3672" style="stroke:#181818;stroke-width:1.0;"/><line style="stroke:#181818;stroke-width:1.0;stroke-dasharray:2.0,2.0;" x1="837" x2="1354" y1="1090.3672" y2="1090.3672"/><text fill="#000000" font-family="sans-serif" font-size="13" lengthAdjust="spacing" textLength="134" x="849" y="1085.625">selector: 0x0e2059f5</text><polygon fill="#181818" points="317,1115.6777,307,1119.6777,317,1123.6777,313,1119.6777" style="stroke:#181818;stroke-width:1.0;"/><line style="stroke:#181818;stroke-width:1.0;stroke-dasharray:2.0,2.0;" x1="311" x2="816" y1="1119.6777" y2="1119.6777"/><text fill="#000000" font-family="sans-serif" font-size="13" lengthAdjust="spacing" textLength="487" x="323" y="1114.9355">delta: -8197142890605694701995120405752706867029739591230816256</text><line style="stroke:#181818;stroke-width:1.0;" x1="1500.5" x2="1490.5" y1="1148.9883" y2="1144.9883"/><line style="stroke:#181818;stroke-width:1.0;" x1="1500.5" x2="1490.5" y1="1148.9883" y2="1152.9883"/><line style="stroke:#181818;stroke-width:1.0;" x1="306" x2="1501.5" y1="1148.9883" y2="1148.9883"/><text fill="#000000" font-family="sans-serif" font-size="13" lengthAdjust="spacing" textLength="76" x="313" y="1144.2461">0xd992e10f</text><polygon fill="#3471CD" points="810,1220.2305,820,1224.2305,810,1228.2305,814,1224.2305" style="stroke:#3471CD;stroke-width:1.0;"/><line style="stroke:#3471CD;stroke-width:1.0;" x1="306" x2="816" y1="1224.2305" y2="1224.2305"/><text fill="#000000" font-family="sans-serif" font-size="13" lengthAdjust="spacing" textLength="31" x="313" y="1173.5566">take(</text><text fill="#000000" font-family="sans-serif" font-size="13" lengthAdjust="spacing" textLength="153" x="321" y="1188.8672">currency: 0x5FbD..0aa3,</text><text fill="#000000" font-family="sans-serif" font-size="13" lengthAdjust="spacing" textLength="109" x="321" y="1204.1777">to: 0xf39F..2266,</text><text fill="#000000" font-family="sans-serif" font-size="13" lengthAdjust="spacing" textLength="216" x="321" y="1219.4883">amount: 24,089,237,901,975,176)</text><polygon fill="#181818" points="1623,1280.1621,1633,1284.1621,1623,1288.1621,1627,1284.1621" style="stroke:#181818;stroke-width:1.0;"/><line style="stroke:#181818;stroke-width:1.0;" x1="832" x2="1629" y1="1284.1621" y2="1284.1621"/><text fill="#000000" font-family="sans-serif" font-size="13" lengthAdjust="spacing" textLength="53" x="839" y="1248.7988">transfer(</text><text fill="#000000" font-family="sans-serif" font-size="13" lengthAdjust="spacing" textLength="151" x="847" y="1264.1094">recipient: 0xf39F..2266,</text><text fill="#000000" font-family="sans-serif" font-size="13" lengthAdjust="spacing" textLength="216" x="847" y="1279.4199">amount: 24,089,237,901,975,176)</text><polygon fill="#181818" points="843,1309.4727,833,1313.4727,843,1317.4727,839,1313.4727" style="stroke:#181818;stroke-width:1.0;"/><line style="stroke:#181818;stroke-width:1.0;stroke-dasharray:2.0,2.0;" x1="837" x2="1639" y1="1313.4727" y2="1313.4727"/><text fill="#000000" font-family="sans-serif" font-size="13" lengthAdjust="spacing" textLength="25" x="849" y="1308.7305">true</text><polygon fill="#3471CD" points="317,1323.4727,307,1327.4727,317,1331.4727,313,1327.4727" style="stroke:#3471CD;stroke-width:1.0;"/><line style="stroke:#3471CD;stroke-width:1.0;stroke-dasharray:2.0,2.0;" x1="311" x2="816" y1="1327.4727" y2="1327.4727"/><polygon fill="#3471CD" points="810,1398.7148,820,1402.7148,810,1406.7148,814,1402.7148" style="stroke:#3471CD;stroke-width:1.0;"/><line style="stroke:#3471CD;stroke-width:1.0;" x1="306" x2="816" y1="1402.7148" y2="1402.7148"/><text fill="#000000" font-family="sans-serif" font-size="13" lengthAdjust="spacing" textLength="31" x="313" y="1352.041">take(</text><text fill="#000000" font-family="sans-serif" font-size="13" lengthAdjust="spacing" textLength="150" x="321" y="1367.3516">currency: 0xe7f1..0512,</text><text fill="#000000" font-family="sans-serif" font-size="13" lengthAdjust="spacing" textLength="109" x="321" y="1382.6621">to: 0xf39F..2266,</text><text fill="#000000" font-family="sans-serif" font-size="13" lengthAdjust="spacing" textLength="68" x="321" y="1397.9727">amount: 0)</text><polygon fill="#181818" points="1822.5,1458.6465,1832.5,1462.6465,1822.5,1466.6465,1826.5,1462.6465" style="stroke:#181818;stroke-width:1.0;"/><line style="stroke:#181818;stroke-width:1.0;" x1="832" x2="1828.5" y1="1462.6465" y2="1462.6465"/><text fill="#000000" font-family="sans-serif" font-size="13" lengthAdjust="spacing" textLength="53" x="839" y="1427.2832">transfer(</text><text fill="#000000" font-family="sans-serif" font-size="13" lengthAdjust="spacing" textLength="151" x="847" y="1442.5938">recipient: 0xf39F..2266,</text><text fill="#000000" font-family="sans-serif" font-size="13" lengthAdjust="spacing" textLength="68" x="847" y="1457.9043">amount: 0)</text><polygon fill="#181818" points="843,1487.957,833,1491.957,843,1495.957,839,1491.957" style="stroke:#181818;stroke-width:1.0;"/><line style="stroke:#181818;stroke-width:1.0;stroke-dasharray:2.0,2.0;" x1="837" x2="1838.5" y1="1491.957" y2="1491.957"/><text fill="#000000" font-family="sans-serif" font-size="13" lengthAdjust="spacing" textLength="25" x="849" y="1487.2148">true</text><polygon fill="#3471CD" points="317,1501.957,307,1505.957,317,1509.957,313,1505.957" style="stroke:#3471CD;stroke-width:1.0;"/><line style="stroke:#3471CD;stroke-width:1.0;stroke-dasharray:2.0,2.0;" x1="311" x2="816" y1="1505.957" y2="1505.957"/><line style="stroke:#181818;stroke-width:1.0;" x1="307" x2="317" y1="1519.957" y2="1515.957"/><line style="stroke:#181818;stroke-width:1.0;" x1="307" x2="317" y1="1519.957" y2="1523.957"/><line style="stroke:#181818;stroke-width:1.0;stroke-dasharray:2.0,2.0;" x1="306" x2="1506.5" y1="1519.957" y2="1519.957"/><polygon fill="#181818" points="805,1545.2676,815,1549.2676,805,1553.2676,809,1549.2676" style="stroke:#181818;stroke-width:1.0;"/><line style="stroke:#181818;stroke-width:1.0;stroke-dasharray:2.0,2.0;" x1="301" x2="811" y1="1549.2676" y2="1549.2676"/><text fill="#000000" font-family="sans-serif" font-size="13" lengthAdjust="spacing" textLength="152" x="308" y="1544.5254">0x00000000..00000000</text><polygon fill="#181818" points="312,1574.5781,302,1578.5781,312,1582.5781,308,1578.5781" style="stroke:#181818;stroke-width:1.0;"/><line style="stroke:#181818;stroke-width:1.0;stroke-dasharray:2.0,2.0;" x1="306" x2="821" y1="1578.5781" y2="1578.5781"/><text fill="#000000" font-family="sans-serif" font-size="13" lengthAdjust="spacing" textLength="196" x="318" y="1573.8359">result: 0x00000000..00000000</text><polygon fill="#181818" points="64,1634.5098,54,1638.5098,64,1642.5098,60,1638.5098" style="stroke:#181818;stroke-width:1.0;"/><line style="stroke:#181818;stroke-width:1.0;stroke-dasharray:2.0,2.0;" x1="58" x2="295" y1="1638.5098" y2="1638.5098"/><text fill="#000000" font-family="sans-serif" font-size="13" lengthAdjust="spacing" textLength="55" x="70" y="1603.1465">results: [</text><text fill="#000000" font-family="sans-serif" font-size="13" lengthAdjust="spacing" textLength="148" x="78" y="1618.457">0: 0xffffffff..00000000,</text><text fill="#000000" font-family="sans-serif" font-size="13" lengthAdjust="spacing" textLength="36" x="78" y="1633.7676">1: 0x]</text><path d="M681,1651.5098 L681,1752.5098 L963,1752.5098 L963,1661.5098 L953,1651.5098 L681,1651.5098 " fill="#00FFFF" style="stroke:#181818;stroke-width:0.5;"/><path d="M953,1651.5098 L953,1661.5098 L963,1661.5098 L953,1651.5098 " fill="#00FFFF" style="stroke:#181818;stroke-width:0.5;"/><text fill="#000000" font-family="sans-serif" font-size="13" lengthAdjust="spacing" textLength="98" x="687" y="1669.0781">ModifyPosition:</text><text fill="#000000" font-family="sans-serif" font-size="13" lengthAdjust="spacing" textLength="172" x="695" y="1684.3887">id: 0x95169a40..4545070f,</text><text fill="#000000" font-family="sans-serif" font-size="13" lengthAdjust="spacing" textLength="137" x="695" y="1699.6992">sender: 0xCf7E..0Fc9,</text><text fill="#000000" font-family="sans-serif" font-size="13" lengthAdjust="spacing" textLength="97" x="695" y="1715.0098">tickLower: -60,</text><text fill="#000000" font-family="sans-serif" font-size="13" lengthAdjust="spacing" textLength="89" x="695" y="1730.3203">tickUpper: 60,</text><text fill="#000000" font-family="sans-serif" font-size="13" lengthAdjust="spacing" textLength="253" x="695" y="1745.6309">liquidityDelta: -4000000000000000000</text><path d="M1527,1651.5098 L1527,1722.5098 L1753,1722.5098 L1753,1661.5098 L1743,1651.5098 L1527,1651.5098 " fill="#00FFFF" style="stroke:#181818;stroke-width:0.5;"/><path d="M1743,1651.5098 L1743,1661.5098 L1753,1661.5098 L1743,1651.5098 " fill="#00FFFF" style="stroke:#181818;stroke-width:0.5;"/><text fill="#000000" font-family="sans-serif" font-size="13" lengthAdjust="spacing" textLength="56" x="1533" y="1669.0781">Transfer:</text><text fill="#000000" font-family="sans-serif" font-size="13" lengthAdjust="spacing" textLength="124" x="1541" y="1684.3887">from: 0x9fE4..a6e0,</text><text fill="#000000" font-family="sans-serif" font-size="13" lengthAdjust="spacing" textLength="109" x="1541" y="1699.6992">to: 0xf39F..2266,</text><text fill="#000000" font-family="sans-serif" font-size="13" lengthAdjust="spacing" textLength="197" x="1541" y="1715.0098">value: 24,089,237,901,975,176</text><path d="M1763,1651.5098 L1763,1722.5098 L1916,1722.5098 L1916,1661.5098 L1906,1651.5098 L1763,1651.5098 " fill="#00FFFF" style="stroke:#181818;stroke-width:0.5;"/><path d="M1906,1651.5098 L1906,1661.5098 L1916,1661.5098 L1906,1651.5098 " fill="#00FFFF" style="stroke:#181818;stroke-width:0.5;"/><text fill="#000000" font-family="sans-serif" font-size="13" lengthAdjust="spacing" textLength="56" x="1769" y="1669.0781">Transfer:</text><text fill="#000000" font-family="sans-serif" font-size="13" lengthAdjust="spacing" textLength="124" x="1777" y="1684.3887">from: 0x9fE4..a6e0,</text><text fill="#000000" font-family="sans-serif" font-size="13" lengthAdjust="spacing" textLength="109" x="1777" y="1699.6992">to: 0xf39F..2266,</text><text fill="#000000" font-family="sans-serif" font-size="13" lengthAdjust="spacing" textLength="49" x="1777" y="1715.0098">value: 0</text><!--SRC=[xLPDZzis4BtpLn3PImjeLOeIAL5O64ZjTNh80a7gdb8VQ6gu5IoBZZuswtzVKfPah-tj6ablBI_I3Fc6myVXp3HvKm0cpopHOHnda12My4YIB6GCP0OX3QrISGOhlSe25IWTaPYACE81XO1G3LaOqWGX9RTDRafScX8yl2gCMcFcuKLh9Ihm-_OHKq93JCAKyfHm_E5XWQHgJ8NVaMST2ktxb7B-3iiQEz4966rbrUGgtygoSUkKZi7tYLQYM-T49-2xkmzGGfMhpwPje9fCJe52G-JxaWFfW4vqWWL-CgPuaALyl0GB5LE-duGyx61ET8A5pNQbtEHg3l2RCUjpPAQutL3ptbCdEi4YzovEPL6if5hNvr1cgRQ7b7A_gHETOA6DMKD99fExkmNKpVtdAINdS8XrOE4ie1tSYKuOuC4f78ritqv6HbEyhOo2klxfpn9ZPPsjK_p5_MDCnZ-C6razGfDYn_1zpx0tJ3hOOhU558-g2kgsQAmjBOiQHlMJB5gxx03DP2ETLSQOZE8mz7rEO-B6ibyJNFHYrj4-vrDnmOlWt8scQg_m8XF2HRiDKTAFvV9d5xtvasnW90sDyMYP748inUujT3GEvWOZ1tD7nWOS6cFqnRKuO-_LrpQl8EkCLlBRx1gxRpYvCLckTvzCdRjdt5bUmsxaMBLL1QNQaUvIvglPFa2zbxE1cpt4Np-hmPAQU66IU9malT96xFhthLHv-PXYFb3-btrBjJDoU7Zx-xOnBZU747JeZ-ORL2c-7S5E-STswvIZhiWjLLdUx6PGE99k8t8sbc-nFppx5Az0cmeUphcgeSpSnkHvgkDxU_ovsaVWVv74WIzKGTDMfIMd09VfknZDLi2oLVOAmLBRtFW_lnVuxTPc_O8a474GqKGGJXWNKKm28UnXI4HOp6ocv0cF2HLnA9W8Q4YIW5F6hxqZe8G9pOQv7zprEEDCnafud5SFRerryYOXudxwwn7soqqOnS5qjZnEMurSmxv4zRTxuUeRuvIsoittBKQdb1lJbhPaqCWZYV1e67k219w8cHV4_AsCCDHaLq1aMMkezhaOR1dEeMn-PCF1zi2-Ar73_tVHSHBh_qZ7cvLeQ2U-u-J7jWSp5mzvyhrKs8QvVI5FhrWplCikEUX-71PtddQfOObGQQoBvWcgGwDu8x-s4htCJ2d2EC-wveS5NCZ8RXwnY96OQ0-zahJGMM90fra1NPSIa3MFdQi8_O8FBe_zujxbHNzDpbbTcSr9huOk10GQMw7BmVhAncEd-IziV7Iulm40]--></g></svg>