<?xml version="1.0" encoding="us-ascii" standalone="no"?><svg xmlns="http://www.w3.org/2000/svg" xmlns:xlink="http://www.w3.org/1999/xlink" contentStyleType="text/css" height="709px" preserveAspectRatio="none" style="width:977px;height:709px;background:#FFFFFF;" version="1.1" viewBox="0 0 977 709" width="977px" zoomAndPan="magnify"><defs/><g><text fill="#000000" font-family="sans-serif" font-size="14" font-weight="bold" lengthAdjust="spacing" textLength="298" x="338.75" y="28.5352">Uniswap v4 - Remove Liquidity to a Pool</text><rect fill="#FFFFFF" height="533.7266" style="stroke:#181818;stroke-width:1.0;" width="10" x="178" y="150.2871"/><rect fill="#FFFFFF" height="490.416" style="stroke:#181818;stroke-width:1.0;" width="10" x="335" y="179.5977"/><rect fill="#FFFFFF" height="403.7949" style="stroke:#181818;stroke-width:1.0;" width="10" x="340" y="238.2188"/><rect fill="#FFFFFF" height="447.1055" style="stroke:#181818;stroke-width:1.0;" width="10" x="491.5" y="208.9082"/><rect fill="#FFFFFF" height="100.6211" style="stroke:#181818;stroke-width:1.0;" width="10" x="496.5" y="267.5293"/><rect fill="#FFFFFF" height="57.3105" style="stroke:#181818;stroke-width:1.0;" width="10" x="496.5" y="440.7715"/><rect fill="#FFFFFF" height="57.3105" style="stroke:#181818;stroke-width:1.0;" width="10" x="496.5" y="570.7031"/><rect fill="#FFFFFF" height="14" style="stroke:#181818;stroke-width:1.0;" width="10" x="659.5" y="296.8398"/><rect fill="#FFFFFF" height="14" style="stroke:#181818;stroke-width:1.0;" width="10" x="659.5" y="340.1504"/><rect fill="#FFFFFF" height="14" style="stroke:#181818;stroke-width:1.0;" width="10" x="796" y="397.4609"/><rect fill="#FFFFFF" height="14" style="stroke:#181818;stroke-width:1.0;" width="10" x="796" y="470.082"/><rect fill="#FFFFFF" height="14" style="stroke:#181818;stroke-width:1.0;" width="10" x="913" y="527.3926"/><rect fill="#FFFFFF" height="14" style="stroke:#181818;stroke-width:1.0;" width="10" x="913" y="600.0137"/><line style="stroke:#181818;stroke-width:0.5;stroke-dasharray:5.0,5.0;" x1="53" x2="53" y1="118.9766" y2="702.0137"/><line style="stroke:#181818;stroke-width:0.5;stroke-dasharray:5.0,5.0;" x1="183" x2="183" y1="118.9766" y2="702.0137"/><line style="stroke:#181818;stroke-width:0.5;stroke-dasharray:5.0,5.0;" x1="340" x2="340" y1="118.9766" y2="702.0137"/><line style="stroke:#181818;stroke-width:0.5;stroke-dasharray:5.0,5.0;" x1="496" x2="496" y1="118.9766" y2="702.0137"/><line style="stroke:#181818;stroke-width:0.5;stroke-dasharray:5.0,5.0;" x1="664.5" x2="664.5" y1="118.9766" y2="702.0137"/><line style="stroke:#181818;stroke-width:0.5;stroke-dasharray:5.0,5.0;" x1="800.5" x2="800.5" y1="118.9766" y2="702.0137"/><line style="stroke:#181818;stroke-width:0.5;stroke-dasharray:5.0,5.0;" x1="917.5" x2="917.5" y1="118.9766" y2="702.0137"/><text fill="#000000" font-family="sans-serif" font-size="14" lengthAdjust="spacing" textLength="90" x="5" y="116.0234">0xf39f..2266</text><ellipse cx="53" cy="50.9883" fill="#E2E2F0" rx="8" ry="8" style="stroke:#181818;stroke-width:0.5;"/><path d="M53,58.9883 L53,85.9883 M40,66.9883 L66,66.9883 M53,85.9883 L40,100.9883 M53,85.9883 L66,100.9883 " fill="none" style="stroke:#181818;stroke-width:0.5;"/><rect fill="#E2E2F0" height="46.9766" rx="2.5" ry="2.5" style="stroke:#181818;stroke-width:0.5;" width="144" x="111" y="71"/><text fill="#000000" font-family="sans-serif" font-size="14" font-style="italic" lengthAdjust="spacing" textLength="130" x="118" y="91.5352">&#171;UniswapV4Caller&#187;</text><text fill="#000000" font-family="sans-serif" font-size="14" lengthAdjust="spacing" textLength="95" x="135.5" y="108.0234">0xa513..c853</text><rect fill="#E2E2F0" height="46.9766" rx="2.5" ry="2.5" style="stroke:#181818;stroke-width:0.5;" width="150" x="265" y="71"/><text fill="#000000" font-family="sans-serif" font-size="14" font-style="italic" lengthAdjust="spacing" textLength="136" x="272" y="91.5352">&#171;UniswapV4Router&#187;</text><text fill="#000000" font-family="sans-serif" font-size="14" lengthAdjust="spacing" textLength="93" x="293.5" y="108.0234">0x0165..eb8f</text><rect fill="#E2E2F0" height="63.4648" rx="2.5" ry="2.5" style="stroke:#181818;stroke-width:0.5;" width="143" x="425" y="54.5117"/><text fill="#000000" font-family="sans-serif" font-size="14" font-style="italic" lengthAdjust="spacing" textLength="129" x="432" y="75.0469">&#171;Uniswap v4 Core&#187;</text><text fill="#000000" font-family="sans-serif" font-size="14" font-style="italic" lengthAdjust="spacing" textLength="104" x="444.5" y="91.5352">&#171;PoolManager&#187;</text><text fill="#000000" font-family="sans-serif" font-size="14" lengthAdjust="spacing" textLength="92" x="450.5" y="108.0234">0x5fc8..5707</text><rect fill="#E2E2F0" height="46.9766" rx="2.5" ry="2.5" style="stroke:#181818;stroke-width:0.5;" width="146" x="591.5" y="71"/><text fill="#000000" font-family="sans-serif" font-size="14" font-style="italic" lengthAdjust="spacing" textLength="132" x="598.5" y="91.5352">&#171;DynamicFeeHook&#187;</text><text fill="#000000" font-family="sans-serif" font-size="14" lengthAdjust="spacing" textLength="96" x="616.5" y="108.0234">0x3c92..0434</text><rect fill="#E2E2F0" height="63.4648" rx="2.5" ry="2.5" style="stroke:#181818;stroke-width:0.5;" width="107" x="747.5" y="54.5117"/><text fill="#000000" font-family="sans-serif" font-size="14" font-style="italic" lengthAdjust="spacing" textLength="69" x="766.5" y="75.0469">&#171;Token B&#187;</text><text fill="#000000" font-family="sans-serif" font-size="14" font-style="italic" lengthAdjust="spacing" textLength="93" x="754.5" y="91.5352">&#171;MockToken&#187;</text><text fill="#000000" font-family="sans-serif" font-size="14" lengthAdjust="spacing" textLength="91" x="755.5" y="108.0234">0x9fe4..a6e0</text><rect fill="#E2E2F0" height="63.4648" rx="2.5" ry="2.5" style="stroke:#181818;stroke-width:0.5;" width="107" x="864.5" y="54.5117"/><text fill="#000000" font-family="sans-serif" font-size="14" font-style="italic" lengthAdjust="spacing" textLength="71" x="882.5" y="75.0469">&#171;Token A&#187;</text><text fill="#000000" font-family="sans-serif" font-size="14" font-style="italic" lengthAdjust="spacing" textLength="93" x="871.5" y="91.5352">&#171;MockToken&#187;</text><text fill="#000000" font-family="sans-serif" font-size="14" lengthAdjust="spacing" textLength="93" x="871.5" y="108.0234">0xe7f1..0512</text><rect fill="#FFFFFF" height="533.7266" style="stroke:#181818;stroke-width:1.0;" width="10" x="178" y="150.2871"/><rect fill="#FFFFFF" height="490.416" style="stroke:#181818;stroke-width:1.0;" width="10" x="335" y="179.5977"/><rect fill="#FFFFFF" height="403.7949" style="stroke:#181818;stroke-width:1.0;" width="10" x="340" y="238.2188"/><rect fill="#FFFFFF" height="447.1055" style="stroke:#181818;stroke-width:1.0;" width="10" x="491.5" y="208.9082"/><rect fill="#FFFFFF" height="100.6211" style="stroke:#181818;stroke-width:1.0;" width="10" x="496.5" y="267.5293"/><rect fill="#FFFFFF" height="57.3105" style="stroke:#181818;stroke-width:1.0;" width="10" x="496.5" y="440.7715"/><rect fill="#FFFFFF" height="57.3105" style="stroke:#181818;stroke-width:1.0;" width="10" x="496.5" y="570.7031"/><rect fill="#FFFFFF" height="14" style="stroke:#181818;stroke-width:1.0;" width="10" x="659.5" y="296.8398"/><rect fill="#FFFFFF" height="14" style="stroke:#181818;stroke-width:1.0;" width="10" x="659.5" y="340.1504"/><rect fill="#FFFFFF" height="14" style="stroke:#181818;stroke-width:1.0;" width="10" x="796" y="397.4609"/><rect fill="#FFFFFF" height="14" style="stroke:#181818;stroke-width:1.0;" width="10" x="796" y="470.082"/><rect fill="#FFFFFF" height="14" style="stroke:#181818;stroke-width:1.0;" width="10" x="913" y="527.3926"/><rect fill="#FFFFFF" height="14" style="stroke:#181818;stroke-width:1.0;" width="10" x="913" y="600.0137"/><polygon fill="#181818" points="166,146.2871,176,150.2871,166,154.2871,170,150.2871" style="stroke:#181818;stroke-width:1.0;"/><line style="stroke:#181818;stroke-width:1.0;" x1="53" x2="172" y1="150.2871" y2="150.2871"/><text fill="#000000" font-family="sans-serif" font-size="13" lengthAdjust="spacing" textLength="78" x="60" y="145.5449">addLiquidity</text><polygon fill="#181818" points="323,175.5977,333,179.5977,323,183.5977,327,179.5977" style="stroke:#181818;stroke-width:1.0;"/><line style="stroke:#181818;stroke-width:1.0;" x1="188" x2="329" y1="179.5977" y2="179.5977"/><text fill="#000000" font-family="sans-serif" font-size="13" lengthAdjust="spacing" textLength="49" x="195" y="174.8555">process</text><polygon fill="#181818" points="479.5,204.9082,489.5,208.9082,479.5,212.9082,483.5,208.9082" style="stroke:#181818;stroke-width:1.0;"/><line style="stroke:#181818;stroke-width:1.0;" x1="345" x2="485.5" y1="208.9082" y2="208.9082"/><text fill="#000000" font-family="sans-serif" font-size="13" lengthAdjust="spacing" textLength="27" x="352" y="204.166">lock</text><polygon fill="#181818" points="361,234.2188,351,238.2188,361,242.2188,357,238.2188" style="stroke:#181818;stroke-width:1.0;"/><line style="stroke:#181818;stroke-width:1.0;" x1="355" x2="490.5" y1="238.2188" y2="238.2188"/><text fill="#000000" font-family="sans-serif" font-size="13" lengthAdjust="spacing" textLength="83" x="367" y="233.4766">lockAcquired</text><polygon fill="#181818" points="484.5,263.5293,494.5,267.5293,484.5,271.5293,488.5,267.5293" style="stroke:#181818;stroke-width:1.0;"/><line style="stroke:#181818;stroke-width:1.0;" x1="350" x2="490.5" y1="267.5293" y2="267.5293"/><text fill="#000000" font-family="sans-serif" font-size="13" lengthAdjust="spacing" textLength="95" x="357" y="262.7871">modifyPosition</text><polygon fill="#181818" points="647.5,292.8398,657.5,296.8398,647.5,300.8398,651.5,296.8398" style="stroke:#181818;stroke-width:1.0;"/><line style="stroke:#181818;stroke-width:1.0;" x1="506.5" x2="653.5" y1="296.8398" y2="296.8398"/><text fill="#000000" font-family="sans-serif" font-size="13" lengthAdjust="spacing" textLength="134" x="513.5" y="292.0977">beforeModifyPosition</text><polygon fill="#181818" points="517.5,306.8398,507.5,310.8398,517.5,314.8398,513.5,310.8398" style="stroke:#181818;stroke-width:1.0;"/><line style="stroke:#181818;stroke-width:1.0;stroke-dasharray:2.0,2.0;" x1="511.5" x2="663.5" y1="310.8398" y2="310.8398"/><polygon fill="#181818" points="647.5,336.1504,657.5,340.1504,647.5,344.1504,651.5,340.1504" style="stroke:#181818;stroke-width:1.0;"/><line style="stroke:#181818;stroke-width:1.0;" x1="506.5" x2="653.5" y1="340.1504" y2="340.1504"/><text fill="#000000" font-family="sans-serif" font-size="13" lengthAdjust="spacing" textLength="123" x="513.5" y="335.4082">afterModifyPosition</text><polygon fill="#181818" points="517.5,350.1504,507.5,354.1504,517.5,358.1504,513.5,354.1504" style="stroke:#181818;stroke-width:1.0;"/><line style="stroke:#181818;stroke-width:1.0;stroke-dasharray:2.0,2.0;" x1="511.5" x2="663.5" y1="354.1504" y2="354.1504"/><polygon fill="#181818" points="361,364.1504,351,368.1504,361,372.1504,357,368.1504" style="stroke:#181818;stroke-width:1.0;"/><line style="stroke:#181818;stroke-width:1.0;stroke-dasharray:2.0,2.0;" x1="355" x2="490.5" y1="368.1504" y2="368.1504"/><polygon fill="#181818" points="784,393.4609,794,397.4609,784,401.4609,788,397.4609" style="stroke:#181818;stroke-width:1.0;"/><line style="stroke:#181818;stroke-width:1.0;" x1="350" x2="790" y1="397.4609" y2="397.4609"/><text fill="#000000" font-family="sans-serif" font-size="13" lengthAdjust="spacing" textLength="81" x="357" y="392.7188">transferFrom</text><polygon fill="#181818" points="361,407.4609,351,411.4609,361,415.4609,357,411.4609" style="stroke:#181818;stroke-width:1.0;"/><line style="stroke:#181818;stroke-width:1.0;stroke-dasharray:2.0,2.0;" x1="355" x2="800" y1="411.4609" y2="411.4609"/><polygon fill="#181818" points="484.5,436.7715,494.5,440.7715,484.5,444.7715,488.5,440.7715" style="stroke:#181818;stroke-width:1.0;"/><line style="stroke:#181818;stroke-width:1.0;" x1="350" x2="490.5" y1="440.7715" y2="440.7715"/><text fill="#000000" font-family="sans-serif" font-size="13" lengthAdjust="spacing" textLength="35" x="357" y="436.0293">settle</text><polygon fill="#181818" points="784,466.082,794,470.082,784,474.082,788,470.082" style="stroke:#181818;stroke-width:1.0;"/><line style="stroke:#181818;stroke-width:1.0;" x1="506.5" x2="790" y1="470.082" y2="470.082"/><text fill="#000000" font-family="sans-serif" font-size="13" lengthAdjust="spacing" textLength="63" x="513.5" y="465.3398">balanceOf</text><polygon fill="#181818" points="517.5,480.082,507.5,484.082,517.5,488.082,513.5,484.082" style="stroke:#181818;stroke-width:1.0;"/><line style="stroke:#181818;stroke-width:1.0;stroke-dasharray:2.0,2.0;" x1="511.5" x2="800" y1="484.082" y2="484.082"/><polygon fill="#181818" points="361,494.082,351,498.082,361,502.082,357,498.082" style="stroke:#181818;stroke-width:1.0;"/><line style="stroke:#181818;stroke-width:1.0;stroke-dasharray:2.0,2.0;" x1="355" x2="490.5" y1="498.082" y2="498.082"/><polygon fill="#181818" points="901,523.3926,911,527.3926,901,531.3926,905,527.3926" style="stroke:#181818;stroke-width:1.0;"/><line style="stroke:#181818;stroke-width:1.0;" x1="350" x2="907" y1="527.3926" y2="527.3926"/><text fill="#000000" font-family="sans-serif" font-size="13" lengthAdjust="spacing" textLength="81" x="357" y="522.6504">transferFrom</text><polygon fill="#181818" points="361,537.3926,351,541.3926,361,545.3926,357,541.3926" style="stroke:#181818;stroke-width:1.0;"/><line style="stroke:#181818;stroke-width:1.0;stroke-dasharray:2.0,2.0;" x1="355" x2="917" y1="541.3926" y2="541.3926"/><polygon fill="#181818" points="484.5,566.7031,494.5,570.7031,484.5,574.7031,488.5,570.7031" style="stroke:#181818;stroke-width:1.0;"/><line style="stroke:#181818;stroke-width:1.0;" x1="350" x2="490.5" y1="570.7031" y2="570.7031"/><text fill="#000000" font-family="sans-serif" font-size="13" lengthAdjust="spacing" textLength="35" x="357" y="565.9609">settle</text><polygon fill="#181818" points="901,596.0137,911,600.0137,901,604.0137,905,600.0137" style="stroke:#181818;stroke-width:1.0;"/><line style="stroke:#181818;stroke-width:1.0;" x1="506.5" x2="907" y1="600.0137" y2="600.0137"/><text fill="#000000" font-family="sans-serif" font-size="13" lengthAdjust="spacing" textLength="63" x="513.5" y="595.2715">balanceOf</text><polygon fill="#181818" points="517.5,610.0137,507.5,614.0137,517.5,618.0137,513.5,614.0137" style="stroke:#181818;stroke-width:1.0;"/><line style="stroke:#181818;stroke-width:1.0;stroke-dasharray:2.0,2.0;" x1="511.5" x2="917" y1="614.0137" y2="614.0137"/><polygon fill="#181818" points="361,624.0137,351,628.0137,361,632.0137,357,628.0137" style="stroke:#181818;stroke-width:1.0;"/><line style="stroke:#181818;stroke-width:1.0;stroke-dasharray:2.0,2.0;" x1="355" x2="490.5" y1="628.0137" y2="628.0137"/><polygon fill="#181818" points="479.5,638.0137,489.5,642.0137,479.5,646.0137,483.5,642.0137" style="stroke:#181818;stroke-width:1.0;"/><line style="stroke:#181818;stroke-width:1.0;stroke-dasharray:2.0,2.0;" x1="345" x2="485.5" y1="642.0137" y2="642.0137"/><polygon fill="#181818" points="356,652.0137,346,656.0137,356,660.0137,352,656.0137" style="stroke:#181818;stroke-width:1.0;"/><line style="stroke:#181818;stroke-width:1.0;stroke-dasharray:2.0,2.0;" x1="350" x2="495.5" y1="656.0137" y2="656.0137"/><polygon fill="#181818" points="199,666.0137,189,670.0137,199,674.0137,195,670.0137" style="stroke:#181818;stroke-width:1.0;"/><line style="stroke:#181818;stroke-width:1.0;stroke-dasharray:2.0,2.0;" x1="193" x2="339" y1="670.0137" y2="670.0137"/><polygon fill="#181818" points="64,680.0137,54,684.0137,64,688.0137,60,684.0137" style="stroke:#181818;stroke-width:1.0;"/><line style="stroke:#181818;stroke-width:1.0;stroke-dasharray:2.0,2.0;" x1="58" x2="182" y1="684.0137" y2="684.0137"/><!--SRC=[hPDDRzim38Rl_XL4xnMSsCw74HZeEXGxB5XHRBqhChK9SSHCLhBctqyqAhjB7JI7dOJNvCEN8cLlV8FmmvhsZzp3COTRUC8T7H6-cjy7Knj_0ayWuP6eINwP6a4J-Gsz98bKdXpSf2ywMseXfjFPx0Pa2onPGBANpXjbzj9wpfF591D2BOgiosF90bQhrmQUytlPDEYgwXnD9xD22DmiT8UoPF4MVQA37qCBhHP25FDqtg4iMGmeN_kU75RLQiNNN4ihVuvLojHoAaIQPtbNYIMBKEdpoSgTKG-8NuYsxycbnbm8ESEq8rco2EHtsgA5J-oz9hNjv7iUvteId8l9jEDPikZvktC-wPTmM_M3Ba7MTRzNtfyvIezzFEat4g0uuXBsZXIsxP0VGqc_Xf0Vvrf24_eOakFtf1_yFyKv-Kw5bXpMLplig3Rwz4YjyORi1rvnJILiK8Srho_0CIznw0_ENgWXTNXarvPuFTvU8gw-1E-aRJMw1qUxeKICZx7305hquR_zuEA3rKOsqYhyfY_xZDZ5LtQfrHZ_3wqELYEjdljSSVm5]--></g></svg>