<?xml version="1.0" encoding="us-ascii" standalone="no"?><svg xmlns="http://www.w3.org/2000/svg" xmlns:xlink="http://www.w3.org/1999/xlink" contentStyleType="text/css" height="753px" preserveAspectRatio="none" style="width:937px;height:753px;background:#FFFFFF;" version="1.1" viewBox="0 0 937 753" width="937px" zoomAndPan="magnify"><defs/><g><text fill="#000000" font-family="sans-serif" font-size="14" font-weight="bold" lengthAdjust="spacing" textLength="566" x="184.5" y="28.5352">0x58f377de805864a0d355eade323de8c65ebfbd1c1cf4072934612e102fed3328</text><text fill="#000000" font-family="sans-serif" font-size="14" lengthAdjust="spacing" textLength="326" x="304.5" y="741.7266">none, block 5, Tue, 29 Aug 2023 03:26:06 GMT</text><rect fill="#FFFFFF" height="447.1055" style="stroke:#181818;stroke-width:1.0;" width="10" x="169" y="150.2871"/><rect fill="#FFFFFF" height="360.4844" style="stroke:#181818;stroke-width:1.0;" width="10" x="174" y="208.9082"/><rect fill="#FFFFFF" height="403.7949" style="stroke:#181818;stroke-width:1.0;" width="10" x="303" y="179.5977"/><rect fill="#FFFFFF" height="100.6211" style="stroke:#181818;stroke-width:1.0;" width="10" x="308" y="238.2188"/><rect fill="#FFFFFF" height="57.3105" style="stroke:#181818;stroke-width:1.0;" width="10" x="308" y="397.4609"/><rect fill="#FFFFFF" height="57.3105" style="stroke:#181818;stroke-width:1.0;" width="10" x="308" y="484.082"/><rect fill="#FFFFFF" height="14" style="stroke:#181818;stroke-width:1.0;" width="10" x="471" y="267.5293"/><rect fill="#FFFFFF" height="14" style="stroke:#181818;stroke-width:1.0;" width="10" x="471" y="310.8398"/><rect fill="#809ECB" height="187.2422" style="stroke:#181818;stroke-width:1.0;" width="10" x="623.5" y="368.1504"/><rect fill="#FFFFFF" height="14" style="stroke:#181818;stroke-width:1.0;" width="10" x="756" y="426.7715"/><rect fill="#FFFFFF" height="14" style="stroke:#181818;stroke-width:1.0;" width="10" x="872.5" y="513.3926"/><line style="stroke:#181818;stroke-width:0.5;stroke-dasharray:5.0,5.0;" x1="53" x2="53" y1="118.9766" y2="650.7031"/><line style="stroke:#181818;stroke-width:0.5;stroke-dasharray:5.0,5.0;" x1="174" x2="174" y1="118.9766" y2="650.7031"/><line style="stroke:#181818;stroke-width:0.5;stroke-dasharray:5.0,5.0;" x1="308" x2="308" y1="118.9766" y2="650.7031"/><line style="stroke:#181818;stroke-width:0.5;stroke-dasharray:5.0,5.0;" x1="476" x2="476" y1="118.9766" y2="650.7031"/><line style="stroke:#181818;stroke-width:0.5;stroke-dasharray:5.0,5.0;" x1="628" x2="628" y1="118.9766" y2="650.7031"/><line style="stroke:#181818;stroke-width:0.5;stroke-dasharray:5.0,5.0;" x1="761" x2="761" y1="118.9766" y2="650.7031"/><line style="stroke:#181818;stroke-width:0.5;stroke-dasharray:5.0,5.0;" x1="877" x2="877" y1="118.9766" y2="650.7031"/><text fill="#000000" font-family="sans-serif" font-size="14" lengthAdjust="spacing" textLength="90" x="5" y="116.0234">0xf39f..2266</text><ellipse cx="53" cy="50.9883" fill="#E2E2F0" rx="8" ry="8" style="stroke:#181818;stroke-width:0.5;"/><path d="M53,58.9883 L53,85.9883 M40,66.9883 L66,66.9883 M53,85.9883 L40,100.9883 M53,85.9883 L66,100.9883 " fill="none" style="stroke:#181818;stroke-width:0.5;"/><text fill="#000000" font-family="sans-serif" font-size="14" lengthAdjust="spacing" textLength="90" x="5" y="663.2383">0xf39f..2266</text><ellipse cx="53" cy="674.6914" fill="#E2E2F0" rx="8" ry="8" style="stroke:#181818;stroke-width:0.5;"/><path d="M53,682.6914 L53,709.6914 M40,690.6914 L66,690.6914 M53,709.6914 L40,724.6914 M53,709.6914 L66,724.6914 " fill="none" style="stroke:#181818;stroke-width:0.5;"/><rect fill="#E2E2F0" height="46.9766" rx="2.5" ry="2.5" style="stroke:#181818;stroke-width:0.5;" width="126" x="111" y="71"/><text fill="#000000" font-family="sans-serif" font-size="14" font-style="italic" lengthAdjust="spacing" textLength="112" x="118" y="91.5352">&#171;GenericRouter&#187;</text><text fill="#000000" font-family="sans-serif" font-size="14" lengthAdjust="spacing" textLength="85" x="131.5" y="108.0234">0xcf7e..0fc9</text><rect fill="#E2E2F0" height="46.9766" rx="2.5" ry="2.5" style="stroke:#181818;stroke-width:0.5;" width="126" x="111" y="649.7031"/><text fill="#000000" font-family="sans-serif" font-size="14" font-style="italic" lengthAdjust="spacing" textLength="112" x="118" y="670.2383">&#171;GenericRouter&#187;</text><text fill="#000000" font-family="sans-serif" font-size="14" lengthAdjust="spacing" textLength="85" x="131.5" y="686.7266">0xcf7e..0fc9</text><rect fill="#E2E2F0" height="46.9766" rx="2.5" ry="2.5" style="stroke:#181818;stroke-width:0.5;" width="118" x="249" y="71"/><text fill="#000000" font-family="sans-serif" font-size="14" font-style="italic" lengthAdjust="spacing" textLength="104" x="256" y="91.5352">&#171;PoolManager&#187;</text><text fill="#000000" font-family="sans-serif" font-size="14" lengthAdjust="spacing" textLength="91" x="262.5" y="108.0234">0x9fe4..a6e0</text><rect fill="#E2E2F0" height="46.9766" rx="2.5" ry="2.5" style="stroke:#181818;stroke-width:0.5;" width="118" x="249" y="649.7031"/><text fill="#000000" font-family="sans-serif" font-size="14" font-style="italic" lengthAdjust="spacing" textLength="104" x="256" y="670.2383">&#171;PoolManager&#187;</text><text fill="#000000" font-family="sans-serif" font-size="14" lengthAdjust="spacing" textLength="91" x="262.5" y="686.7266">0x9fe4..a6e0</text><rect fill="#E2E2F0" height="46.9766" rx="2.5" ry="2.5" style="stroke:#181818;stroke-width:0.5;" width="146" x="403" y="71"/><text fill="#000000" font-family="sans-serif" font-size="14" font-style="italic" lengthAdjust="spacing" textLength="132" x="410" y="91.5352">&#171;DynamicFeeHook&#187;</text><text fill="#000000" font-family="sans-serif" font-size="14" lengthAdjust="spacing" textLength="94" x="429" y="108.0234">0x3c5c..8363</text><rect fill="#E2E2F0" height="46.9766" rx="2.5" ry="2.5" style="stroke:#181818;stroke-width:0.5;" width="146" x="403" y="649.7031"/><text fill="#000000" font-family="sans-serif" font-size="14" font-style="italic" lengthAdjust="spacing" textLength="132" x="410" y="670.2383">&#171;DynamicFeeHook&#187;</text><text fill="#000000" font-family="sans-serif" font-size="14" lengthAdjust="spacing" textLength="94" x="429" y="686.7266">0x3c5c..8363</text><rect fill="#E2E2F0" height="46.9766" rx="2.5" ry="2.5" style="stroke:#181818;stroke-width:0.5;" width="139" x="559" y="71"/><text fill="#000000" font-family="sans-serif" font-size="14" font-style="italic" lengthAdjust="spacing" textLength="125" x="566" y="91.5352">&#171;RouterCallbacks&#187;</text><text fill="#000000" font-family="sans-serif" font-size="14" lengthAdjust="spacing" textLength="90" x="583.5" y="108.0234">0xdc64..f6c9</text><rect fill="#E2E2F0" height="46.9766" rx="2.5" ry="2.5" style="stroke:#181818;stroke-width:0.5;" width="139" x="559" y="649.7031"/><text fill="#000000" font-family="sans-serif" font-size="14" font-style="italic" lengthAdjust="spacing" textLength="125" x="566" y="670.2383">&#171;RouterCallbacks&#187;</text><text fill="#000000" font-family="sans-serif" font-size="14" lengthAdjust="spacing" textLength="90" x="583.5" y="686.7266">0xdc64..f6c9</text><rect fill="#E2E2F0" height="63.4648" rx="2.5" ry="2.5" style="stroke:#181818;stroke-width:0.5;" width="106" x="708" y="54.5117"/><text fill="#000000" font-family="sans-serif" font-size="14" font-style="italic" lengthAdjust="spacing" textLength="62" x="730" y="75.0469">&#171;token0&#187;</text><text fill="#000000" font-family="sans-serif" font-size="14" font-style="italic" lengthAdjust="spacing" textLength="88" x="717" y="91.5352">&#171;TestERC20&#187;</text><text fill="#000000" font-family="sans-serif" font-size="14" lengthAdjust="spacing" textLength="92" x="715" y="108.0234">0x5fbd..0aa3</text><rect fill="#E2E2F0" height="63.4648" rx="2.5" ry="2.5" style="stroke:#181818;stroke-width:0.5;" width="106" x="708" y="649.7031"/><text fill="#000000" font-family="sans-serif" font-size="14" font-style="italic" lengthAdjust="spacing" textLength="62" x="730" y="670.2383">&#171;token0&#187;</text><text fill="#000000" font-family="sans-serif" font-size="14" font-style="italic" lengthAdjust="spacing" textLength="88" x="717" y="686.7266">&#171;TestERC20&#187;</text><text fill="#000000" font-family="sans-serif" font-size="14" lengthAdjust="spacing" textLength="92" x="715" y="703.2148">0x5fbd..0aa3</text><rect fill="#E2E2F0" height="63.4648" rx="2.5" ry="2.5" style="stroke:#181818;stroke-width:0.5;" width="107" x="824" y="54.5117"/><text fill="#000000" font-family="sans-serif" font-size="14" font-style="italic" lengthAdjust="spacing" textLength="62" x="846.5" y="75.0469">&#171;token1&#187;</text><text fill="#000000" font-family="sans-serif" font-size="14" font-style="italic" lengthAdjust="spacing" textLength="88" x="833.5" y="91.5352">&#171;TestERC20&#187;</text><text fill="#000000" font-family="sans-serif" font-size="14" lengthAdjust="spacing" textLength="93" x="831" y="108.0234">0xe7f1..0512</text><rect fill="#E2E2F0" height="63.4648" rx="2.5" ry="2.5" style="stroke:#181818;stroke-width:0.5;" width="107" x="824" y="649.7031"/><text fill="#000000" font-family="sans-serif" font-size="14" font-style="italic" lengthAdjust="spacing" textLength="62" x="846.5" y="670.2383">&#171;token1&#187;</text><text fill="#000000" font-family="sans-serif" font-size="14" font-style="italic" lengthAdjust="spacing" textLength="88" x="833.5" y="686.7266">&#171;TestERC20&#187;</text><text fill="#000000" font-family="sans-serif" font-size="14" lengthAdjust="spacing" textLength="93" x="831" y="703.2148">0xe7f1..0512</text><rect fill="#FFFFFF" height="447.1055" style="stroke:#181818;stroke-width:1.0;" width="10" x="169" y="150.2871"/><rect fill="#FFFFFF" height="360.4844" style="stroke:#181818;stroke-width:1.0;" width="10" x="174" y="208.9082"/><rect fill="#FFFFFF" height="403.7949" style="stroke:#181818;stroke-width:1.0;" width="10" x="303" y="179.5977"/><rect fill="#FFFFFF" height="100.6211" style="stroke:#181818;stroke-width:1.0;" width="10" x="308" y="238.2188"/><rect fill="#FFFFFF" height="57.3105" style="stroke:#181818;stroke-width:1.0;" width="10" x="308" y="397.4609"/><rect fill="#FFFFFF" height="57.3105" style="stroke:#181818;stroke-width:1.0;" width="10" x="308" y="484.082"/><rect fill="#FFFFFF" height="14" style="stroke:#181818;stroke-width:1.0;" width="10" x="471" y="267.5293"/><rect fill="#FFFFFF" height="14" style="stroke:#181818;stroke-width:1.0;" width="10" x="471" y="310.8398"/><rect fill="#809ECB" height="187.2422" style="stroke:#181818;stroke-width:1.0;" width="10" x="623.5" y="368.1504"/><rect fill="#FFFFFF" height="14" style="stroke:#181818;stroke-width:1.0;" width="10" x="756" y="426.7715"/><rect fill="#FFFFFF" height="14" style="stroke:#181818;stroke-width:1.0;" width="10" x="872.5" y="513.3926"/><polygon fill="#181818" points="157,146.2871,167,150.2871,157,154.2871,161,150.2871" style="stroke:#181818;stroke-width:1.0;"/><line style="stroke:#181818;stroke-width:1.0;" x1="53" x2="163" y1="150.2871" y2="150.2871"/><text fill="#000000" font-family="sans-serif" font-size="13" lengthAdjust="spacing" textLength="49" x="60" y="145.5449">process</text><polygon fill="#181818" points="291,175.5977,301,179.5977,291,183.5977,295,179.5977" style="stroke:#181818;stroke-width:1.0;"/><line style="stroke:#181818;stroke-width:1.0;" x1="179" x2="297" y1="179.5977" y2="179.5977"/><text fill="#000000" font-family="sans-serif" font-size="13" lengthAdjust="spacing" textLength="27" x="186" y="174.8555">lock</text><polygon fill="#181818" points="195,204.9082,185,208.9082,195,212.9082,191,208.9082" style="stroke:#181818;stroke-width:1.0;"/><line style="stroke:#181818;stroke-width:1.0;" x1="189" x2="302" y1="208.9082" y2="208.9082"/><text fill="#000000" font-family="sans-serif" font-size="13" lengthAdjust="spacing" textLength="83" x="201" y="204.166">lockAcquired</text><polygon fill="#181818" points="296,234.2188,306,238.2188,296,242.2188,300,238.2188" style="stroke:#181818;stroke-width:1.0;"/><line style="stroke:#181818;stroke-width:1.0;" x1="184" x2="302" y1="238.2188" y2="238.2188"/><text fill="#000000" font-family="sans-serif" font-size="13" lengthAdjust="spacing" textLength="95" x="191" y="233.4766">modifyPosition</text><polygon fill="#181818" points="459,263.5293,469,267.5293,459,271.5293,463,267.5293" style="stroke:#181818;stroke-width:1.0;"/><line style="stroke:#181818;stroke-width:1.0;" x1="318" x2="465" y1="267.5293" y2="267.5293"/><text fill="#000000" font-family="sans-serif" font-size="13" lengthAdjust="spacing" textLength="134" x="325" y="262.7871">beforeModifyPosition</text><polygon fill="#181818" points="329,277.5293,319,281.5293,329,285.5293,325,281.5293" style="stroke:#181818;stroke-width:1.0;"/><line style="stroke:#181818;stroke-width:1.0;stroke-dasharray:2.0,2.0;" x1="323" x2="475" y1="281.5293" y2="281.5293"/><polygon fill="#181818" points="459,306.8398,469,310.8398,459,314.8398,463,310.8398" style="stroke:#181818;stroke-width:1.0;"/><line style="stroke:#181818;stroke-width:1.0;" x1="318" x2="465" y1="310.8398" y2="310.8398"/><text fill="#000000" font-family="sans-serif" font-size="13" lengthAdjust="spacing" textLength="123" x="325" y="306.0977">afterModifyPosition</text><polygon fill="#181818" points="329,320.8398,319,324.8398,329,328.8398,325,324.8398" style="stroke:#181818;stroke-width:1.0;"/><line style="stroke:#181818;stroke-width:1.0;stroke-dasharray:2.0,2.0;" x1="323" x2="475" y1="324.8398" y2="324.8398"/><polygon fill="#181818" points="195,334.8398,185,338.8398,195,342.8398,191,338.8398" style="stroke:#181818;stroke-width:1.0;"/><line style="stroke:#181818;stroke-width:1.0;stroke-dasharray:2.0,2.0;" x1="189" x2="302" y1="338.8398" y2="338.8398"/><line style="stroke:#181818;stroke-width:1.0;" x1="621.5" x2="611.5" y1="368.1504" y2="364.1504"/><line style="stroke:#181818;stroke-width:1.0;" x1="621.5" x2="611.5" y1="368.1504" y2="372.1504"/><line style="stroke:#181818;stroke-width:1.0;" x1="184" x2="622.5" y1="368.1504" y2="368.1504"/><text fill="#000000" font-family="sans-serif" font-size="13" lengthAdjust="spacing" textLength="76" x="191" y="363.4082">0xd992e10f</text><polygon fill="#3471CD" points="296,393.4609,306,397.4609,296,401.4609,300,397.4609" style="stroke:#3471CD;stroke-width:1.0;"/><line style="stroke:#3471CD;stroke-width:1.0;" x1="184" x2="302" y1="397.4609" y2="397.4609"/><text fill="#000000" font-family="sans-serif" font-size="13" lengthAdjust="spacing" textLength="27" x="191" y="392.7188">take</text><polygon fill="#181818" points="744,422.7715,754,426.7715,744,430.7715,748,426.7715" style="stroke:#181818;stroke-width:1.0;"/><line style="stroke:#181818;stroke-width:1.0;" x1="318" x2="750" y1="426.7715" y2="426.7715"/><text fill="#000000" font-family="sans-serif" font-size="13" lengthAdjust="spacing" textLength="49" x="325" y="422.0293">transfer</text><polygon fill="#181818" points="329,436.7715,319,440.7715,329,444.7715,325,440.7715" style="stroke:#181818;stroke-width:1.0;"/><line style="stroke:#181818;stroke-width:1.0;stroke-dasharray:2.0,2.0;" x1="323" x2="760" y1="440.7715" y2="440.7715"/><polygon fill="#3471CD" points="195,450.7715,185,454.7715,195,458.7715,191,454.7715" style="stroke:#3471CD;stroke-width:1.0;"/><line style="stroke:#3471CD;stroke-width:1.0;stroke-dasharray:2.0,2.0;" x1="189" x2="302" y1="454.7715" y2="454.7715"/><polygon fill="#3471CD" points="296,480.082,306,484.082,296,488.082,300,484.082" style="stroke:#3471CD;stroke-width:1.0;"/><line style="stroke:#3471CD;stroke-width:1.0;" x1="184" x2="302" y1="484.082" y2="484.082"/><text fill="#000000" font-family="sans-serif" font-size="13" lengthAdjust="spacing" textLength="27" x="191" y="479.3398">take</text><polygon fill="#181818" points="860.5,509.3926,870.5,513.3926,860.5,517.3926,864.5,513.3926" style="stroke:#181818;stroke-width:1.0;"/><line style="stroke:#181818;stroke-width:1.0;" x1="318" x2="866.5" y1="513.3926" y2="513.3926"/><text fill="#000000" font-family="sans-serif" font-size="13" lengthAdjust="spacing" textLength="49" x="325" y="508.6504">transfer</text><polygon fill="#181818" points="329,523.3926,319,527.3926,329,531.3926,325,527.3926" style="stroke:#181818;stroke-width:1.0;"/><line style="stroke:#181818;stroke-width:1.0;stroke-dasharray:2.0,2.0;" x1="323" x2="876.5" y1="527.3926" y2="527.3926"/><polygon fill="#3471CD" points="195,537.3926,185,541.3926,195,545.3926,191,541.3926" style="stroke:#3471CD;stroke-width:1.0;"/><line style="stroke:#3471CD;stroke-width:1.0;stroke-dasharray:2.0,2.0;" x1="189" x2="302" y1="541.3926" y2="541.3926"/><line style="stroke:#181818;stroke-width:1.0;" x1="185" x2="195" y1="555.3926" y2="551.3926"/><line style="stroke:#181818;stroke-width:1.0;" x1="185" x2="195" y1="555.3926" y2="559.3926"/><line style="stroke:#181818;stroke-width:1.0;stroke-dasharray:2.0,2.0;" x1="184" x2="627.5" y1="555.3926" y2="555.3926"/><polygon fill="#181818" points="291,565.3926,301,569.3926,291,573.3926,295,569.3926" style="stroke:#181818;stroke-width:1.0;"/><line style="stroke:#181818;stroke-width:1.0;stroke-dasharray:2.0,2.0;" x1="179" x2="297" y1="569.3926" y2="569.3926"/><polygon fill="#181818" points="190,579.3926,180,583.3926,190,587.3926,186,583.3926" style="stroke:#181818;stroke-width:1.0;"/><line style="stroke:#181818;stroke-width:1.0;stroke-dasharray:2.0,2.0;" x1="184" x2="307" y1="583.3926" y2="583.3926"/><polygon fill="#181818" points="64,593.3926,54,597.3926,64,601.3926,60,597.3926" style="stroke:#181818;stroke-width:1.0;"/><line style="stroke:#181818;stroke-width:1.0;stroke-dasharray:2.0,2.0;" x1="58" x2="173" y1="597.3926" y2="597.3926"/><path d="M250,610.3926 L250,635.3926 L365,635.3926 L365,620.3926 L355,610.3926 L250,610.3926 " fill="#00FFFF" style="stroke:#181818;stroke-width:0.5;"/><path d="M355,610.3926 L355,620.3926 L365,620.3926 L355,610.3926 " fill="#00FFFF" style="stroke:#181818;stroke-width:0.5;"/><text fill="#000000" font-family="sans-serif" font-size="13" lengthAdjust="spacing" textLength="94" x="256" y="627.9609">ModifyPosition</text><path d="M724,610.3926 L724,635.3926 L797,635.3926 L797,620.3926 L787,610.3926 L724,610.3926 " fill="#00FFFF" style="stroke:#181818;stroke-width:0.5;"/><path d="M787,610.3926 L787,620.3926 L797,620.3926 L787,610.3926 " fill="#00FFFF" style="stroke:#181818;stroke-width:0.5;"/><text fill="#000000" font-family="sans-serif" font-size="13" lengthAdjust="spacing" textLength="52" x="730" y="627.9609">Transfer</text><path d="M841,610.3926 L841,635.3926 L914,635.3926 L914,620.3926 L904,610.3926 L841,610.3926 " fill="#00FFFF" style="stroke:#181818;stroke-width:0.5;"/><path d="M904,610.3926 L904,620.3926 L914,620.3926 L904,610.3926 " fill="#00FFFF" style="stroke:#181818;stroke-width:0.5;"/><text fill="#000000" font-family="sans-serif" font-size="13" lengthAdjust="spacing" textLength="52" x="847" y="627.9609">Transfer</text><!--SRC=[dPDDR-CW48Rl_0hKNBik1Xj_ABBKJRlTIwIgocsr1uA7oaeAASPL- -yNajfEyz5MUq8ll0ypp32kSMl0v3ND5Sko6dAIvZmHf6Pf2g86HfdVb3o5fLhMiOobIaX62vRmc49Cg8AQCPeZ9CN6DKPZRJHSukNQo1LEB_6YyueM-Bfxn9HGXWahAIy9ntVp1HBI6OiloAjYXOeYIZc_mAB5GGQ1qKPOryXc8xGBFgaoY2AYPB7r1Ha4daxlG8Djv8Ff7DYgEWGB1KaK2Gva2mOPX0VlZLdFXHQFfp0cKnb5EUDiYmKPXCTkthHuQkGlWD_6h8x9Md8VKF7tJ8CCmfEx56TYlLuAkMgFqTINsZzIY5tG88Fmg3ChqAIgfjC5jExsOKR9CGwPYZsUndIB1nb4ZyU7E1gg_QCQAbhYZJKIsZRqg7aH3eOZD5JT-_j2bZXqV3Jt-sYez8VBW_bQFdUDXVhR4PvCtQYtUzCsuQTz4QjlLOcNe8o5-Hcuzo4BhhFwp1r2-PPzzuhtPUyHrT3_qWzRNHHXTjHum_0x9ZafRcS_zzW_4vPayUpcxtubd5Z15-_lVuqtMw5R1NO4-hEp2VzlqFwldGhQdnq4_Mn1sdZGl80T1tOYdZk13be1kiR1Yz0L7fbXS7RCea_fj7kOatFkVm00]--></g></svg>