<?xml version="1.0" encoding="us-ascii" standalone="no"?><svg xmlns="http://www.w3.org/2000/svg" xmlns:xlink="http://www.w3.org/1999/xlink" contentStyleType="text/css" height="2363px" preserveAspectRatio="none" style="width:1343px;height:2363px;background:#FFFFFF;" version="1.1" viewBox="0 0 1343 2363" width="1343px" zoomAndPan="magnify"><defs/><g><text fill="#000000" font-family="sans-serif" font-size="14" font-weight="bold" lengthAdjust="spacing" textLength="179" x="580.5" y="28.5352">Uniswap v4 - Flash Loan</text><text fill="#000000" font-family="sans-serif" font-size="14" lengthAdjust="spacing" textLength="323" x="508.5" y="2351.5391">none, block 6, Sun, 10 Sep 2023 11:05:40 GMT</text><rect fill="#FFFFFF" height="1680.0859" style="stroke:#181818;stroke-width:1.0;" width="10" x="370" y="369.3242"/><rect fill="#809ECB" height="1494.291" style="stroke:#181818;stroke-width:1.0;" width="10" x="550.5" y="413.9453"/><rect fill="#FFFFFF" height="1002.2852" style="stroke:#181818;stroke-width:1.0;" width="10" x="734" y="841.3301"/><rect fill="#FFFFFF" height="711.9375" style="stroke:#181818;stroke-width:1.0;" width="10" x="739" y="961.1934"/><rect fill="#FFFFFF" height="801.1797" style="stroke:#181818;stroke-width:1.0;" width="10" x="1024" y="901.2617"/><rect fill="#FFFFFF" height="118.5527" style="stroke:#181818;stroke-width:1.0;" width="10" x="1029" y="1051.7461"/><rect fill="#FFFFFF" height="118.5527" style="stroke:#181818;stroke-width:1.0;" width="10" x="1029" y="1474.6465"/><rect fill="#FFFFFF" height="29.3105" style="stroke:#181818;stroke-width:1.0;" width="10" x="1251" y="1126.9883"/><rect fill="#FFFFFF" height="29.3105" style="stroke:#181818;stroke-width:1.0;" width="10" x="1251" y="1280.8516"/><rect fill="#FFFFFF" height="29.3105" style="stroke:#181818;stroke-width:1.0;" width="10" x="1251" y="1385.4043"/><rect fill="#FFFFFF" height="29.3105" style="stroke:#181818;stroke-width:1.0;" width="10" x="1251" y="1534.5781"/><line style="stroke:#181818;stroke-width:0.5;stroke-dasharray:5.0,5.0;" x1="107" x2="107" y1="118.9766" y2="2260.5156"/><line style="stroke:#181818;stroke-width:0.5;stroke-dasharray:5.0,5.0;" x1="375" x2="375" y1="118.9766" y2="2260.5156"/><line style="stroke:#181818;stroke-width:0.5;stroke-dasharray:5.0,5.0;" x1="555" x2="555" y1="118.9766" y2="2260.5156"/><line style="stroke:#181818;stroke-width:0.5;stroke-dasharray:5.0,5.0;" x1="739" x2="739" y1="118.9766" y2="2260.5156"/><line style="stroke:#181818;stroke-width:0.5;stroke-dasharray:5.0,5.0;" x1="1029" x2="1029" y1="118.9766" y2="2260.5156"/><line style="stroke:#181818;stroke-width:0.5;stroke-dasharray:5.0,5.0;" x1="1255.5" x2="1255.5" y1="118.9766" y2="2260.5156"/><text fill="#000000" font-family="sans-serif" font-size="14" lengthAdjust="spacing" textLength="90" x="59" y="116.0234">0xf39f..2266</text><ellipse cx="107" cy="50.9883" fill="#E2E2F0" rx="8" ry="8" style="stroke:#181818;stroke-width:0.5;"/><path d="M107,58.9883 L107,85.9883 M94,66.9883 L120,66.9883 M107,85.9883 L94,100.9883 M107,85.9883 L120,100.9883 " fill="none" style="stroke:#181818;stroke-width:0.5;"/><text fill="#000000" font-family="sans-serif" font-size="14" lengthAdjust="spacing" textLength="90" x="59" y="2273.0508">0xf39f..2266</text><ellipse cx="107" cy="2284.5039" fill="#E2E2F0" rx="8" ry="8" style="stroke:#181818;stroke-width:0.5;"/><path d="M107,2292.5039 L107,2319.5039 M94,2300.5039 L120,2300.5039 M107,2319.5039 L94,2334.5039 M107,2319.5039 L120,2334.5039 " fill="none" style="stroke:#181818;stroke-width:0.5;"/><rect fill="#E2E2F0" height="46.9766" rx="2.5" ry="2.5" style="stroke:#181818;stroke-width:0.5;" width="144" x="303" y="71"/><text fill="#000000" font-family="sans-serif" font-size="14" font-style="italic" lengthAdjust="spacing" textLength="130" x="310" y="91.5352">&#171;UniswapV4Caller&#187;</text><text fill="#000000" font-family="sans-serif" font-size="14" lengthAdjust="spacing" textLength="92" x="329" y="108.0234">0x5fc8..5707</text><rect fill="#E2E2F0" height="46.9766" rx="2.5" ry="2.5" style="stroke:#181818;stroke-width:0.5;" width="144" x="303" y="2259.5156"/><text fill="#000000" font-family="sans-serif" font-size="14" font-style="italic" lengthAdjust="spacing" textLength="130" x="310" y="2280.0508">&#171;UniswapV4Caller&#187;</text><text fill="#000000" font-family="sans-serif" font-size="14" lengthAdjust="spacing" textLength="92" x="329" y="2296.5391">0x5fc8..5707</text><rect fill="#E2E2F0" height="46.9766" rx="2.5" ry="2.5" style="stroke:#181818;stroke-width:0.5;" width="197" x="457" y="71"/><text fill="#000000" font-family="sans-serif" font-size="14" font-style="italic" lengthAdjust="spacing" textLength="183" x="464" y="91.5352">&#171;UniswapV4RouterLibrary&#187;</text><text fill="#000000" font-family="sans-serif" font-size="14" lengthAdjust="spacing" textLength="92" x="509.5" y="108.0234">0x5fbd..0aa3</text><rect fill="#E2E2F0" height="46.9766" rx="2.5" ry="2.5" style="stroke:#181818;stroke-width:0.5;" width="197" x="457" y="2259.5156"/><text fill="#000000" font-family="sans-serif" font-size="14" font-style="italic" lengthAdjust="spacing" textLength="183" x="464" y="2280.0508">&#171;UniswapV4RouterLibrary&#187;</text><text fill="#000000" font-family="sans-serif" font-size="14" lengthAdjust="spacing" textLength="92" x="509.5" y="2296.5391">0x5fbd..0aa3</text><rect fill="#E2E2F0" height="46.9766" rx="2.5" ry="2.5" style="stroke:#181818;stroke-width:0.5;" width="150" x="664" y="71"/><text fill="#000000" font-family="sans-serif" font-size="14" font-style="italic" lengthAdjust="spacing" textLength="136" x="671" y="91.5352">&#171;UniswapV4Router&#187;</text><text fill="#000000" font-family="sans-serif" font-size="14" lengthAdjust="spacing" textLength="90" x="694" y="108.0234">0xdc64..f6c9</text><rect fill="#E2E2F0" height="46.9766" rx="2.5" ry="2.5" style="stroke:#181818;stroke-width:0.5;" width="150" x="664" y="2259.5156"/><text fill="#000000" font-family="sans-serif" font-size="14" font-style="italic" lengthAdjust="spacing" textLength="136" x="671" y="2280.0508">&#171;UniswapV4Router&#187;</text><text fill="#000000" font-family="sans-serif" font-size="14" lengthAdjust="spacing" textLength="90" x="694" y="2296.5391">0xdc64..f6c9</text><rect fill="#E2E2F0" height="46.9766" rx="2.5" ry="2.5" style="stroke:#181818;stroke-width:0.5;" width="118" x="970" y="71"/><text fill="#000000" font-family="sans-serif" font-size="14" font-style="italic" lengthAdjust="spacing" textLength="104" x="977" y="91.5352">&#171;PoolManager&#187;</text><text fill="#000000" font-family="sans-serif" font-size="14" lengthAdjust="spacing" textLength="85" x="986.5" y="108.0234">0xcf7e..0fc9</text><rect fill="#E2E2F0" height="46.9766" rx="2.5" ry="2.5" style="stroke:#181818;stroke-width:0.5;" width="118" x="970" y="2259.5156"/><text fill="#000000" font-family="sans-serif" font-size="14" font-style="italic" lengthAdjust="spacing" textLength="104" x="977" y="2280.0508">&#171;PoolManager&#187;</text><text fill="#000000" font-family="sans-serif" font-size="14" lengthAdjust="spacing" textLength="85" x="986.5" y="2296.5391">0xcf7e..0fc9</text><rect fill="#E2E2F0" height="63.4648" rx="2.5" ry="2.5" style="stroke:#181818;stroke-width:0.5;" width="105" x="1203.5" y="54.5117"/><text fill="#000000" font-family="sans-serif" font-size="14" font-style="italic" lengthAdjust="spacing" textLength="62" x="1225" y="75.0469">&#171;token0&#187;</text><text fill="#000000" font-family="sans-serif" font-size="14" font-style="italic" lengthAdjust="spacing" textLength="88" x="1212" y="91.5352">&#171;TestERC20&#187;</text><text fill="#000000" font-family="sans-serif" font-size="14" lengthAdjust="spacing" textLength="91" x="1210.5" y="108.0234">0x9fe4..a6e0</text><rect fill="#E2E2F0" height="63.4648" rx="2.5" ry="2.5" style="stroke:#181818;stroke-width:0.5;" width="105" x="1203.5" y="2259.5156"/><text fill="#000000" font-family="sans-serif" font-size="14" font-style="italic" lengthAdjust="spacing" textLength="62" x="1225" y="2280.0508">&#171;token0&#187;</text><text fill="#000000" font-family="sans-serif" font-size="14" font-style="italic" lengthAdjust="spacing" textLength="88" x="1212" y="2296.5391">&#171;TestERC20&#187;</text><text fill="#000000" font-family="sans-serif" font-size="14" lengthAdjust="spacing" textLength="91" x="1210.5" y="2313.0273">0x9fe4..a6e0</text><rect fill="#FFFFFF" height="1680.0859" style="stroke:#181818;stroke-width:1.0;" width="10" x="370" y="369.3242"/><rect fill="#809ECB" height="1494.291" style="stroke:#181818;stroke-width:1.0;" width="10" x="550.5" y="413.9453"/><rect fill="#FFFFFF" height="1002.2852" style="stroke:#181818;stroke-width:1.0;" width="10" x="734" y="841.3301"/><rect fill="#FFFFFF" height="711.9375" style="stroke:#181818;stroke-width:1.0;" width="10" x="739" y="961.1934"/><rect fill="#FFFFFF" height="801.1797" style="stroke:#181818;stroke-width:1.0;" width="10" x="1024" y="901.2617"/><rect fill="#FFFFFF" height="118.5527" style="stroke:#181818;stroke-width:1.0;" width="10" x="1029" y="1051.7461"/><rect fill="#FFFFFF" height="118.5527" style="stroke:#181818;stroke-width:1.0;" width="10" x="1029" y="1474.6465"/><rect fill="#FFFFFF" height="29.3105" style="stroke:#181818;stroke-width:1.0;" width="10" x="1251" y="1126.9883"/><rect fill="#FFFFFF" height="29.3105" style="stroke:#181818;stroke-width:1.0;" width="10" x="1251" y="1280.8516"/><rect fill="#FFFFFF" height="29.3105" style="stroke:#181818;stroke-width:1.0;" width="10" x="1251" y="1385.4043"/><rect fill="#FFFFFF" height="29.3105" style="stroke:#181818;stroke-width:1.0;" width="10" x="1251" y="1534.5781"/><path d="M5,133.9766 L5,250.9766 L209,250.9766 L209,143.9766 L199,133.9766 L5,133.9766 " fill="#FEFFDD" style="stroke:#181818;stroke-width:0.5;"/><path d="M199,133.9766 L199,143.9766 L209,143.9766 L199,133.9766 " fill="#FEFFDD" style="stroke:#181818;stroke-width:0.5;"/><text fill="#000000" font-family="sans-serif" font-size="13" lengthAdjust="spacing" textLength="64" x="11" y="151.5449">Nonce: 20</text><text fill="#000000" font-family="sans-serif" font-size="13" lengthAdjust="spacing" textLength="183" x="11" y="166.8555">Gas Price: 3.583937529 Gwei</text><text fill="#000000" font-family="sans-serif" font-size="13" lengthAdjust="spacing" textLength="113" x="11" y="182.166">Max Fee: 5.0 Gwei</text><text fill="#000000" font-family="sans-serif" font-size="13" lengthAdjust="spacing" textLength="137" x="11" y="197.4766">Max Priority: 3.0 Gwei</text><text fill="#000000" font-family="sans-serif" font-size="13" lengthAdjust="spacing" textLength="119" x="11" y="212.7871">Gas Limit: 191,049</text><text fill="#000000" font-family="sans-serif" font-size="13" lengthAdjust="spacing" textLength="118" x="11" y="228.0977">Gas Used: 138,317</text><text fill="#000000" font-family="sans-serif" font-size="13" lengthAdjust="spacing" textLength="86" x="11" y="243.4082">Tx Fee: 0 ETH</text><polygon fill="#181818" points="358,365.3242,368,369.3242,358,373.3242,362,369.3242" style="stroke:#181818;stroke-width:1.0;"/><line style="stroke:#181818;stroke-width:1.0;" x1="107" x2="364" y1="369.3242" y2="369.3242"/><text fill="#000000" font-family="sans-serif" font-size="13" lengthAdjust="spacing" textLength="65" x="114" y="272.7188">flashLoan(</text><text fill="#000000" font-family="sans-serif" font-size="13" lengthAdjust="spacing" textLength="130" x="122" y="288.0293">token: 0x9fE4..a6e0,</text><text fill="#000000" font-family="sans-serif" font-size="13" lengthAdjust="spacing" textLength="124" x="122" y="303.3398">amount: 1,000,000,</text><text fill="#000000" font-family="sans-serif" font-size="13" lengthAdjust="spacing" textLength="186" x="122" y="318.6504">callbackTarget: 0x9fE4..a6e0,</text><text fill="#000000" font-family="sans-serif" font-size="13" lengthAdjust="spacing" textLength="94" x="122" y="333.9609">callbackType: ,</text><text fill="#000000" font-family="sans-serif" font-size="13" lengthAdjust="spacing" textLength="236" x="122" y="349.2715">callbackData: 0x70a08231..2f0cf6c9)</text><text fill="#000000" font-family="sans-serif" font-size="13" lengthAdjust="spacing" textLength="78" x="114" y="364.582">119,994 gas</text><line style="stroke:#181818;stroke-width:1.0;" x1="548.5" x2="538.5" y1="413.9453" y2="409.9453"/><line style="stroke:#181818;stroke-width:1.0;" x1="548.5" x2="538.5" y1="413.9453" y2="417.9453"/><line style="stroke:#181818;stroke-width:1.0;" x1="380" x2="549.5" y1="413.9453" y2="413.9453"/><text fill="#000000" font-family="sans-serif" font-size="13" lengthAdjust="spacing" textLength="76" x="387" y="393.8926">0x39fe6b71</text><text fill="#000000" font-family="sans-serif" font-size="13" lengthAdjust="spacing" textLength="78" x="387" y="409.2031">113,528 gas</text><polygon fill="#3471CD" points="722,837.3301,732,841.3301,722,845.3301,726,841.3301" style="stroke:#3471CD;stroke-width:1.0;"/><line style="stroke:#3471CD;stroke-width:1.0;" x1="380" x2="728" y1="841.3301" y2="841.3301"/><text fill="#000000" font-family="sans-serif" font-size="13" lengthAdjust="spacing" textLength="53" x="387" y="438.5137">process(</text><text fill="#000000" font-family="sans-serif" font-size="13" lengthAdjust="spacing" textLength="41" x="395" y="453.8242">calls: [</text><text fill="#000000" font-family="sans-serif" font-size="13" lengthAdjust="spacing" textLength="20" x="403" y="469.1348">0: [</text><text fill="#000000" font-family="sans-serif" font-size="13" lengthAdjust="spacing" textLength="132" x="411" y="484.4453">target: 0xCf7E..0Fc9,</text><text fill="#000000" font-family="sans-serif" font-size="13" lengthAdjust="spacing" textLength="64" x="411" y="499.7559">callType: ,</text><text fill="#000000" font-family="sans-serif" font-size="13" lengthAdjust="spacing" textLength="85" x="411" y="515.0664">results: false,</text><text fill="#000000" font-family="sans-serif" font-size="13" lengthAdjust="spacing" textLength="53" x="411" y="530.377">value: 0,</text><text fill="#000000" font-family="sans-serif" font-size="13" lengthAdjust="spacing" textLength="191" x="411" y="545.6875">data: 0x0b0d9c09..000f4240],</text><text fill="#000000" font-family="sans-serif" font-size="13" lengthAdjust="spacing" textLength="20" x="403" y="560.998">1: [</text><text fill="#000000" font-family="sans-serif" font-size="13" lengthAdjust="spacing" textLength="131" x="411" y="576.3086">target: 0x9fE4..a6e0,</text><text fill="#000000" font-family="sans-serif" font-size="13" lengthAdjust="spacing" textLength="64" x="411" y="591.6191">callType: ,</text><text fill="#000000" font-family="sans-serif" font-size="13" lengthAdjust="spacing" textLength="85" x="411" y="606.9297">results: false,</text><text fill="#000000" font-family="sans-serif" font-size="13" lengthAdjust="spacing" textLength="53" x="411" y="622.2402">value: 0,</text><text fill="#000000" font-family="sans-serif" font-size="13" lengthAdjust="spacing" textLength="186" x="411" y="637.5508">data: 0x70a08231..2f0cf6c9],</text><text fill="#000000" font-family="sans-serif" font-size="13" lengthAdjust="spacing" textLength="20" x="403" y="652.8613">2: [</text><text fill="#000000" font-family="sans-serif" font-size="13" lengthAdjust="spacing" textLength="131" x="411" y="668.1719">target: 0x9fE4..a6e0,</text><text fill="#000000" font-family="sans-serif" font-size="13" lengthAdjust="spacing" textLength="64" x="411" y="683.4824">callType: ,</text><text fill="#000000" font-family="sans-serif" font-size="13" lengthAdjust="spacing" textLength="85" x="411" y="698.793">results: false,</text><text fill="#000000" font-family="sans-serif" font-size="13" lengthAdjust="spacing" textLength="53" x="411" y="714.1035">value: 0,</text><text fill="#000000" font-family="sans-serif" font-size="13" lengthAdjust="spacing" textLength="190" x="411" y="729.4141">data: 0xa9059cbb..000f4240],</text><text fill="#000000" font-family="sans-serif" font-size="13" lengthAdjust="spacing" textLength="20" x="403" y="744.7246">3: [</text><text fill="#000000" font-family="sans-serif" font-size="13" lengthAdjust="spacing" textLength="132" x="411" y="760.0352">target: 0xCf7E..0Fc9,</text><text fill="#000000" font-family="sans-serif" font-size="13" lengthAdjust="spacing" textLength="64" x="411" y="775.3457">callType: ,</text><text fill="#000000" font-family="sans-serif" font-size="13" lengthAdjust="spacing" textLength="85" x="411" y="790.6563">results: false,</text><text fill="#000000" font-family="sans-serif" font-size="13" lengthAdjust="spacing" textLength="53" x="411" y="805.9668">value: 0,</text><text fill="#000000" font-family="sans-serif" font-size="13" lengthAdjust="spacing" textLength="192" x="411" y="821.2773">data: 0x6a256b29..3c7fa6e0]])</text><text fill="#000000" font-family="sans-serif" font-size="13" lengthAdjust="spacing" textLength="78" x="387" y="836.5879">102,939 gas</text><polygon fill="#181818" points="1012,897.2617,1022,901.2617,1012,905.2617,1016,901.2617" style="stroke:#181818;stroke-width:1.0;"/><line style="stroke:#181818;stroke-width:1.0;" x1="744" x2="1018" y1="901.2617" y2="901.2617"/><text fill="#000000" font-family="sans-serif" font-size="13" lengthAdjust="spacing" textLength="31" x="751" y="865.8984">lock(</text><text fill="#000000" font-family="sans-serif" font-size="13" lengthAdjust="spacing" textLength="191" x="759" y="881.209">data: 0x00000000..00000000)</text><text fill="#000000" font-family="sans-serif" font-size="13" lengthAdjust="spacing" textLength="70" x="751" y="896.5195">90,042 gas</text><polygon fill="#181818" points="760,957.1934,750,961.1934,760,965.1934,756,961.1934" style="stroke:#181818;stroke-width:1.0;"/><line style="stroke:#181818;stroke-width:1.0;" x1="754" x2="1023" y1="961.1934" y2="961.1934"/><text fill="#000000" font-family="sans-serif" font-size="13" lengthAdjust="spacing" textLength="87" x="766" y="925.8301">lockAcquired(</text><text fill="#000000" font-family="sans-serif" font-size="13" lengthAdjust="spacing" textLength="248" x="774" y="941.1406">encodedCalls: 0x00000000..00000000)</text><text fill="#000000" font-family="sans-serif" font-size="13" lengthAdjust="spacing" textLength="70" x="766" y="956.4512">67,017 gas</text><polygon fill="#181818" points="1017,1047.7461,1027,1051.7461,1017,1055.7461,1021,1051.7461" style="stroke:#181818;stroke-width:1.0;"/><line style="stroke:#181818;stroke-width:1.0;" x1="749" x2="1023" y1="1051.7461" y2="1051.7461"/><text fill="#000000" font-family="sans-serif" font-size="13" lengthAdjust="spacing" textLength="31" x="756" y="985.7617">take(</text><text fill="#000000" font-family="sans-serif" font-size="13" lengthAdjust="spacing" textLength="148" x="764" y="1001.0723">currency: 0x9fE4..a6e0,</text><text fill="#000000" font-family="sans-serif" font-size="13" lengthAdjust="spacing" textLength="114" x="764" y="1016.3828">to: 0xDc64..F6C9,</text><text fill="#000000" font-family="sans-serif" font-size="13" lengthAdjust="spacing" textLength="124" x="764" y="1031.6934">amount: 1,000,000)</text><text fill="#000000" font-family="sans-serif" font-size="13" lengthAdjust="spacing" textLength="70" x="756" y="1047.0039">62,579 gas</text><polygon fill="#181818" points="1239,1122.9883,1249,1126.9883,1239,1130.9883,1243,1126.9883" style="stroke:#181818;stroke-width:1.0;"/><line style="stroke:#181818;stroke-width:1.0;" x1="1039" x2="1245" y1="1126.9883" y2="1126.9883"/><text fill="#000000" font-family="sans-serif" font-size="13" lengthAdjust="spacing" textLength="53" x="1046" y="1076.3145">transfer(</text><text fill="#000000" font-family="sans-serif" font-size="13" lengthAdjust="spacing" textLength="156" x="1054" y="1091.625">recipient: 0xDc64..F6C9,</text><text fill="#000000" font-family="sans-serif" font-size="13" lengthAdjust="spacing" textLength="124" x="1054" y="1106.9355">amount: 1,000,000)</text><text fill="#000000" font-family="sans-serif" font-size="13" lengthAdjust="spacing" textLength="70" x="1046" y="1122.2461">29,977 gas</text><polygon fill="#181818" points="1050,1152.2988,1040,1156.2988,1050,1160.2988,1046,1156.2988" style="stroke:#181818;stroke-width:1.0;"/><line style="stroke:#181818;stroke-width:1.0;stroke-dasharray:2.0,2.0;" x1="1044" x2="1255" y1="1156.2988" y2="1156.2988"/><text fill="#000000" font-family="sans-serif" font-size="13" lengthAdjust="spacing" textLength="25" x="1056" y="1151.5566">true</text><polygon fill="#181818" points="760,1166.2988,750,1170.2988,760,1174.2988,756,1170.2988" style="stroke:#181818;stroke-width:1.0;"/><line style="stroke:#181818;stroke-width:1.0;stroke-dasharray:2.0,2.0;" x1="754" x2="1023" y1="1170.2988" y2="1170.2988"/><path d="M1039,1183.2988 L1039,1223.2988 L1130,1223.2988 L1130,1193.2988 L1120,1183.2988 L1039,1183.2988 " fill="#FEFFDD" style="stroke:#181818;stroke-width:0.5;"/><path d="M1120,1183.2988 L1120,1193.2988 L1130,1193.2988 L1120,1183.2988 " fill="#FEFFDD" style="stroke:#181818;stroke-width:0.5;"/><text fill="#000000" font-family="sans-serif" font-size="13" lengthAdjust="spacing" textLength="4" x="1045" y="1200.8672">&#160;</text><text fill="#000000" font-family="sans-serif" font-size="13" lengthAdjust="spacing" textLength="70" x="1045" y="1216.1777">32,602 gas</text><polygon fill="#181818" points="1239,1276.8516,1249,1280.8516,1239,1284.8516,1243,1280.8516" style="stroke:#181818;stroke-width:1.0;"/><line style="stroke:#181818;stroke-width:1.0;" x1="749" x2="1245" y1="1280.8516" y2="1280.8516"/><text fill="#000000" font-family="sans-serif" font-size="13" lengthAdjust="spacing" textLength="67" x="756" y="1245.4883">balanceOf(</text><text fill="#000000" font-family="sans-serif" font-size="13" lengthAdjust="spacing" textLength="93" x="764" y="1260.7988">0xDc64..F6C9)</text><text fill="#000000" font-family="sans-serif" font-size="13" lengthAdjust="spacing" textLength="50" x="756" y="1276.1094">566 gas</text><polygon fill="#181818" points="760,1306.1621,750,1310.1621,760,1314.1621,756,1310.1621" style="stroke:#181818;stroke-width:1.0;"/><line style="stroke:#181818;stroke-width:1.0;stroke-dasharray:2.0,2.0;" x1="754" x2="1255" y1="1310.1621" y2="1310.1621"/><text fill="#000000" font-family="sans-serif" font-size="13" lengthAdjust="spacing" textLength="64" x="766" y="1305.4199">1,000,000</text><polygon fill="#181818" points="1239,1381.4043,1249,1385.4043,1239,1389.4043,1243,1385.4043" style="stroke:#181818;stroke-width:1.0;"/><line style="stroke:#181818;stroke-width:1.0;" x1="749" x2="1245" y1="1385.4043" y2="1385.4043"/><text fill="#000000" font-family="sans-serif" font-size="13" lengthAdjust="spacing" textLength="53" x="756" y="1334.7305">transfer(</text><text fill="#000000" font-family="sans-serif" font-size="13" lengthAdjust="spacing" textLength="150" x="764" y="1350.041">recipient: 0xCf7E..0Fc9,</text><text fill="#000000" font-family="sans-serif" font-size="13" lengthAdjust="spacing" textLength="124" x="764" y="1365.3516">amount: 1,000,000)</text><text fill="#000000" font-family="sans-serif" font-size="13" lengthAdjust="spacing" textLength="62" x="756" y="1380.6621">2,622 gas</text><polygon fill="#181818" points="760,1410.7148,750,1414.7148,760,1418.7148,756,1414.7148" style="stroke:#181818;stroke-width:1.0;"/><line style="stroke:#181818;stroke-width:1.0;stroke-dasharray:2.0,2.0;" x1="754" x2="1255" y1="1414.7148" y2="1414.7148"/><text fill="#000000" font-family="sans-serif" font-size="13" lengthAdjust="spacing" textLength="25" x="766" y="1409.9727">true</text><polygon fill="#181818" points="1017,1470.6465,1027,1474.6465,1017,1478.6465,1021,1474.6465" style="stroke:#181818;stroke-width:1.0;"/><line style="stroke:#181818;stroke-width:1.0;" x1="749" x2="1023" y1="1474.6465" y2="1474.6465"/><text fill="#000000" font-family="sans-serif" font-size="13" lengthAdjust="spacing" textLength="39" x="756" y="1439.2832">settle(</text><text fill="#000000" font-family="sans-serif" font-size="13" lengthAdjust="spacing" textLength="148" x="764" y="1454.5938">currency: 0x9fE4..a6e0)</text><text fill="#000000" font-family="sans-serif" font-size="13" lengthAdjust="spacing" textLength="62" x="756" y="1469.9043">3,296 gas</text><polygon fill="#181818" points="1239,1530.5781,1249,1534.5781,1239,1538.5781,1243,1534.5781" style="stroke:#181818;stroke-width:1.0;"/><line style="stroke:#181818;stroke-width:1.0;" x1="1039" x2="1245" y1="1534.5781" y2="1534.5781"/><text fill="#000000" font-family="sans-serif" font-size="13" lengthAdjust="spacing" textLength="67" x="1046" y="1499.2148">balanceOf(</text><text fill="#000000" font-family="sans-serif" font-size="13" lengthAdjust="spacing" textLength="87" x="1054" y="1514.5254">0xCf7E..0Fc9)</text><text fill="#000000" font-family="sans-serif" font-size="13" lengthAdjust="spacing" textLength="50" x="1046" y="1529.8359">566 gas</text><polygon fill="#181818" points="1050,1559.8887,1040,1563.8887,1050,1567.8887,1046,1563.8887" style="stroke:#181818;stroke-width:1.0;"/><line style="stroke:#181818;stroke-width:1.0;stroke-dasharray:2.0,2.0;" x1="1044" x2="1255" y1="1563.8887" y2="1563.8887"/><text fill="#000000" font-family="sans-serif" font-size="13" lengthAdjust="spacing" textLength="188" x="1056" y="1559.1465">33,,125,499,066,867,325,885</text><polygon fill="#181818" points="760,1589.1992,750,1593.1992,760,1597.1992,756,1593.1992" style="stroke:#181818;stroke-width:1.0;"/><line style="stroke:#181818;stroke-width:1.0;stroke-dasharray:2.0,2.0;" x1="754" x2="1023" y1="1593.1992" y2="1593.1992"/><text fill="#000000" font-family="sans-serif" font-size="13" lengthAdjust="spacing" textLength="99" x="766" y="1588.457">paid: 1,000,000</text><path d="M1039,1606.1992 L1039,1646.1992 L1122,1646.1992 L1122,1616.1992 L1112,1606.1992 L1039,1606.1992 " fill="#FEFFDD" style="stroke:#181818;stroke-width:0.5;"/><path d="M1112,1606.1992 L1112,1616.1992 L1122,1616.1992 L1112,1606.1992 " fill="#FEFFDD" style="stroke:#181818;stroke-width:0.5;"/><text fill="#000000" font-family="sans-serif" font-size="13" lengthAdjust="spacing" textLength="4" x="1045" y="1623.7676">&#160;</text><text fill="#000000" font-family="sans-serif" font-size="13" lengthAdjust="spacing" textLength="62" x="1045" y="1639.0781">2,730 gas</text><polygon fill="#181818" points="1012,1669.1309,1022,1673.1309,1012,1677.1309,1016,1673.1309" style="stroke:#181818;stroke-width:1.0;"/><line style="stroke:#181818;stroke-width:1.0;stroke-dasharray:2.0,2.0;" x1="744" x2="1018" y1="1673.1309" y2="1673.1309"/><text fill="#000000" font-family="sans-serif" font-size="13" lengthAdjust="spacing" textLength="149" x="751" y="1668.3887">0x00000000..000f4240</text><polygon fill="#181818" points="755,1698.4414,745,1702.4414,755,1706.4414,751,1702.4414" style="stroke:#181818;stroke-width:1.0;"/><line style="stroke:#181818;stroke-width:1.0;stroke-dasharray:2.0,2.0;" x1="749" x2="1028" y1="1702.4414" y2="1702.4414"/><text fill="#000000" font-family="sans-serif" font-size="13" lengthAdjust="spacing" textLength="193" x="761" y="1697.6992">result: 0x00000000..000f4240</text><path d="M1034,1715.4414 L1034,1755.4414 L1125,1755.4414 L1125,1725.4414 L1115,1715.4414 L1034,1715.4414 " fill="#FEFFDD" style="stroke:#181818;stroke-width:0.5;"/><path d="M1115,1715.4414 L1115,1725.4414 L1125,1725.4414 L1115,1715.4414 " fill="#FEFFDD" style="stroke:#181818;stroke-width:0.5;"/><text fill="#000000" font-family="sans-serif" font-size="13" lengthAdjust="spacing" textLength="4" x="1040" y="1733.0098">&#160;</text><text fill="#000000" font-family="sans-serif" font-size="13" lengthAdjust="spacing" textLength="70" x="1040" y="1748.3203">23,025 gas</text><polygon fill="#3471CD" points="391,1839.6152,381,1843.6152,391,1847.6152,387,1843.6152" style="stroke:#3471CD;stroke-width:1.0;"/><line style="stroke:#3471CD;stroke-width:1.0;stroke-dasharray:2.0,2.0;" x1="385" x2="738" y1="1843.6152" y2="1843.6152"/><text fill="#000000" font-family="sans-serif" font-size="13" lengthAdjust="spacing" textLength="55" x="397" y="1777.6309">results: [</text><text fill="#000000" font-family="sans-serif" font-size="13" lengthAdjust="spacing" textLength="36" x="405" y="1792.9414">0: 0x,</text><text fill="#000000" font-family="sans-serif" font-size="13" lengthAdjust="spacing" textLength="169" x="405" y="1808.252">1: 0x00000000..000f4240,</text><text fill="#000000" font-family="sans-serif" font-size="13" lengthAdjust="spacing" textLength="172" x="405" y="1823.5625">2: 0x00000000..00000001,</text><text fill="#000000" font-family="sans-serif" font-size="13" lengthAdjust="spacing" textLength="169" x="405" y="1838.873">3: 0x00000000..000f4240]</text><path d="M744,1856.6152 L744,1896.6152 L835,1896.6152 L835,1866.6152 L825,1856.6152 L744,1856.6152 " fill="#FEFFDD" style="stroke:#181818;stroke-width:0.5;"/><path d="M825,1856.6152 L825,1866.6152 L835,1866.6152 L825,1856.6152 " fill="#FEFFDD" style="stroke:#181818;stroke-width:0.5;"/><text fill="#000000" font-family="sans-serif" font-size="13" lengthAdjust="spacing" textLength="4" x="750" y="1874.1836">&#160;</text><text fill="#000000" font-family="sans-serif" font-size="13" lengthAdjust="spacing" textLength="70" x="750" y="1889.4941">12,897 gas</text><line style="stroke:#181818;stroke-width:1.0;" x1="381" x2="391" y1="1908.2363" y2="1904.2363"/><line style="stroke:#181818;stroke-width:1.0;" x1="381" x2="391" y1="1908.2363" y2="1912.2363"/><line style="stroke:#181818;stroke-width:1.0;stroke-dasharray:2.0,2.0;" x1="380" x2="554.5" y1="1908.2363" y2="1908.2363"/><path d="M560,1921.2363 L560,1961.2363 L651,1961.2363 L651,1931.2363 L641,1921.2363 L560,1921.2363 " fill="#FEFFDD" style="stroke:#181818;stroke-width:0.5;"/><path d="M641,1921.2363 L641,1931.2363 L651,1931.2363 L641,1921.2363 " fill="#FEFFDD" style="stroke:#181818;stroke-width:0.5;"/><text fill="#000000" font-family="sans-serif" font-size="13" lengthAdjust="spacing" textLength="4" x="566" y="1938.8047">&#160;</text><text fill="#000000" font-family="sans-serif" font-size="13" lengthAdjust="spacing" textLength="70" x="566" y="1954.1152">10,589 gas</text><polygon fill="#181818" points="118,2045.4102,108,2049.4102,118,2053.4102,114,2049.4102" style="stroke:#181818;stroke-width:1.0;"/><line style="stroke:#181818;stroke-width:1.0;stroke-dasharray:2.0,2.0;" x1="112" x2="374" y1="2049.4102" y2="2049.4102"/><text fill="#000000" font-family="sans-serif" font-size="13" lengthAdjust="spacing" textLength="55" x="124" y="1983.4258">results: [</text><text fill="#000000" font-family="sans-serif" font-size="13" lengthAdjust="spacing" textLength="36" x="132" y="1998.7363">0: 0x,</text><text fill="#000000" font-family="sans-serif" font-size="13" lengthAdjust="spacing" textLength="169" x="132" y="2014.0469">1: 0x00000000..000f4240,</text><text fill="#000000" font-family="sans-serif" font-size="13" lengthAdjust="spacing" textLength="172" x="132" y="2029.3574">2: 0x00000000..00000001,</text><text fill="#000000" font-family="sans-serif" font-size="13" lengthAdjust="spacing" textLength="169" x="132" y="2044.668">3: 0x00000000..000f4240]</text><path d="M380,2062.4102 L380,2102.4102 L463,2102.4102 L463,2072.4102 L453,2062.4102 L380,2062.4102 " fill="#FEFFDD" style="stroke:#181818;stroke-width:0.5;"/><path d="M453,2062.4102 L453,2072.4102 L463,2072.4102 L453,2062.4102 " fill="#FEFFDD" style="stroke:#181818;stroke-width:0.5;"/><text fill="#000000" font-family="sans-serif" font-size="13" lengthAdjust="spacing" textLength="4" x="386" y="2079.9785">&#160;</text><text fill="#000000" font-family="sans-serif" font-size="13" lengthAdjust="spacing" textLength="62" x="386" y="2095.2891">6,466 gas</text><path d="M1176,2113.0313 L1176,2245.0313 L1336,2245.0313 L1336,2123.0313 L1326,2113.0313 L1176,2113.0313 " fill="#00FFFF" style="stroke:#181818;stroke-width:0.5;"/><path d="M1326,2113.0313 L1326,2123.0313 L1336,2123.0313 L1326,2113.0313 " fill="#00FFFF" style="stroke:#181818;stroke-width:0.5;"/><text fill="#000000" font-family="sans-serif" font-size="13" lengthAdjust="spacing" textLength="56" x="1182" y="2130.5996">Transfer:</text><text fill="#000000" font-family="sans-serif" font-size="13" lengthAdjust="spacing" textLength="125" x="1190" y="2145.9102">from: 0xCf7E..0Fc9,</text><text fill="#000000" font-family="sans-serif" font-size="13" lengthAdjust="spacing" textLength="114" x="1190" y="2161.2207">to: 0xDc64..F6C9,</text><text fill="#000000" font-family="sans-serif" font-size="13" lengthAdjust="spacing" textLength="105" x="1190" y="2176.5313">value: 1,000,000</text><text fill="#000000" font-family="sans-serif" font-size="13" lengthAdjust="spacing" textLength="56" x="1182" y="2191.8418">Transfer:</text><text fill="#000000" font-family="sans-serif" font-size="13" lengthAdjust="spacing" textLength="131" x="1190" y="2207.1523">from: 0xDc64..F6C9,</text><text fill="#000000" font-family="sans-serif" font-size="13" lengthAdjust="spacing" textLength="108" x="1190" y="2222.4629">to: 0xCf7E..0Fc9,</text><text fill="#000000" font-family="sans-serif" font-size="13" lengthAdjust="spacing" textLength="105" x="1190" y="2237.7734">value: 1,000,000</text><!--SRC=[pLPTRzis57tdho2QbmvW18hK5uN0mEOusKEo5QsxbyOFb4IbGXJAfQYq-VSZQKcMRIL8WQ6O00E-5E-vNuT7r9Mk1Vmig_OxtyAd09x3gvgtN-5DmoK0ET_ggf5GDb8WcDLD_W0Z13zr4a4VmqzY2mac5Ff-YiCqmF3wTWruhXi5t-4V9MMbvn4IHUyWRw4rhG71bYjTvTMMIsttXMMUU5uOuzZjiwOruCL5dzW_mPBNjL2BnQbhLdWUvfpshbbXZQdhnwRJGjrKcUBg-HIXoAF0yyeePmx1cjOuHJXrpSjOcE1bxsfDQnZN3qrJttB9x-VSM2bCH1u9xDoiQGtZffi78V5YSN6n5grUVLmIOm0W6orWyoJKs4BmLoDpaPhcWsi3yK5Lrg9Uc516uv0mUFrTLE2M_u1Nmhm9FRnVCRiRLUbdwz0lMv2Rwh7IAVIPZt30tDBdLXHcXIQ8-Z5Ozs0OhjP_0Y4BQ1C3O9ph-MASNGfBIoFBelTt4a9NcN4rnQ_wuf5TvuzD9srKX35sFxkQcsbdF7zOStKlz8pRkE5vQn8wMBhacbkF67ES4EeR0fOujoFzxKxwFaEC1V2UjvQcrHCtdHro1YFnpXUBaKeMonGeeYpsBG158KcE0NhMdIMOhPP_J82-dD4WzfUNcyN8h1HkLPEBjdq_fDscy8lz3o4U_vcMZSKlotXbU7QLCpIyj6wJuksZHDlLsc2Ll6x5kFp4wyuERLme-WRX31SinymWOrm69C2RVey_cyNH2FwZB4x7D6H1Vc4MdE6GvLbssWlw2oSISH966J4JeNbSsXet6qjQJ12Zx91p0vl0A5Zcz0qAb4Ahr8vVuxJxnrNe7eFCp94Bo27mW056EJkVSjS2_vv_woeb2XT0oBmfHB7SyVY5G56Ci1__L0MQFuZT2UcKCa6UPwQl6xjuwHJyAbgoUKcnyGaAO_Q6GWSnDl4LbsqfbCj12IFVbP3wZV68aPdugDu16YYXEoLDW4uC_tSIhwhxhnesvQGBTv8I5E7TZAQDsYUQyPgRZy7VfSjqcfv993Io_6eMOzOleB_SXgCpCDi6517oXYxCCw0LsbnENk60YK0HOT5FpVMuNViotj8kIX7oIOW2nX2E8fGOPbDZ9qauRDdogfYquPNH4XHJxEBrhaUdnmdHy6ud9kdydbTYK8H9E0qogfBJDMmHtG3zUMptZioURD-ze_D-cwEazX9Y58sWXCNJf8usxp- -LlvGcB3_GGNxkuqH51JqL9dSpiQRt1d_rd6mxezE2Y0iLVDuT6Z0Z7w1yUkmvyySpA7B3kOG-WHclA_z2m00]--></g></svg>