<?xml version="1.0" encoding="us-ascii" standalone="no"?><svg xmlns="http://www.w3.org/2000/svg" xmlns:xlink="http://www.w3.org/1999/xlink" contentStyleType="text/css" height="622px" preserveAspectRatio="none" style="width:1041px;height:622px;background:#FFFFFF;" version="1.1" viewBox="0 0 1041 622" width="1041px" zoomAndPan="magnify"><defs/><g><text fill="#000000" font-family="sans-serif" font-size="14" font-weight="bold" lengthAdjust="spacing" textLength="179" x="430" y="28.5352">Uniswap v4 - Flash Loan</text><rect fill="#FFFFFF" height="447.1055" style="stroke:#181818;stroke-width:1.0;" width="10" x="178" y="150.2871"/><rect fill="#809ECB" height="403.7949" style="stroke:#181818;stroke-width:1.0;" width="10" x="358.5" y="179.5977"/><rect fill="#FFFFFF" height="360.4844" style="stroke:#181818;stroke-width:1.0;" width="10" x="542" y="208.9082"/><rect fill="#FFFFFF" height="273.8633" style="stroke:#181818;stroke-width:1.0;" width="10" x="547" y="267.5293"/><rect fill="#FFFFFF" height="317.1738" style="stroke:#181818;stroke-width:1.0;" width="10" x="698.5" y="238.2188"/><rect fill="#FFFFFF" height="57.3105" style="stroke:#181818;stroke-width:1.0;" width="10" x="703.5" y="296.8398"/><rect fill="#FFFFFF" height="57.3105" style="stroke:#181818;stroke-width:1.0;" width="10" x="703.5" y="470.082"/><rect fill="#FFFFFF" height="14" style="stroke:#181818;stroke-width:1.0;" width="10" x="833.5" y="326.1504"/><rect fill="#FFFFFF" height="14" style="stroke:#181818;stroke-width:1.0;" width="10" x="833.5" y="426.7715"/><rect fill="#FFFFFF" height="14" style="stroke:#181818;stroke-width:1.0;" width="10" x="833.5" y="499.3926"/><rect fill="#809ECB" height="14" style="stroke:#181818;stroke-width:1.0;" width="10" x="963.5" y="383.4609"/><line style="stroke:#181818;stroke-width:0.5;stroke-dasharray:5.0,5.0;" x1="53" x2="53" y1="118.9766" y2="615.3926"/><line style="stroke:#181818;stroke-width:0.5;stroke-dasharray:5.0,5.0;" x1="183" x2="183" y1="118.9766" y2="615.3926"/><line style="stroke:#181818;stroke-width:0.5;stroke-dasharray:5.0,5.0;" x1="363" x2="363" y1="118.9766" y2="615.3926"/><line style="stroke:#181818;stroke-width:0.5;stroke-dasharray:5.0,5.0;" x1="547" x2="547" y1="118.9766" y2="615.3926"/><line style="stroke:#181818;stroke-width:0.5;stroke-dasharray:5.0,5.0;" x1="703" x2="703" y1="118.9766" y2="615.3926"/><line style="stroke:#181818;stroke-width:0.5;stroke-dasharray:5.0,5.0;" x1="838" x2="838" y1="118.9766" y2="615.3926"/><line style="stroke:#181818;stroke-width:0.5;stroke-dasharray:5.0,5.0;" x1="968" x2="968" y1="118.9766" y2="615.3926"/><text fill="#000000" font-family="sans-serif" font-size="14" lengthAdjust="spacing" textLength="90" x="5" y="116.0234">0xf39f..2266</text><ellipse cx="53" cy="50.9883" fill="#E2E2F0" rx="8" ry="8" style="stroke:#181818;stroke-width:0.5;"/><path d="M53,58.9883 L53,85.9883 M40,66.9883 L66,66.9883 M53,85.9883 L40,100.9883 M53,85.9883 L66,100.9883 " fill="none" style="stroke:#181818;stroke-width:0.5;"/><rect fill="#E2E2F0" height="46.9766" rx="2.5" ry="2.5" style="stroke:#181818;stroke-width:0.5;" width="144" x="111" y="71"/><text fill="#000000" font-family="sans-serif" font-size="14" font-style="italic" lengthAdjust="spacing" textLength="130" x="118" y="91.5352">&#171;UniswapV4Caller&#187;</text><text fill="#000000" font-family="sans-serif" font-size="14" lengthAdjust="spacing" textLength="95" x="135.5" y="108.0234">0xa513..c853</text><rect fill="#E2E2F0" height="46.9766" rx="2.5" ry="2.5" style="stroke:#181818;stroke-width:0.5;" width="197" x="265" y="71"/><text fill="#000000" font-family="sans-serif" font-size="14" font-style="italic" lengthAdjust="spacing" textLength="183" x="272" y="91.5352">&#171;UniswapV4RouterLibrary&#187;</text><text fill="#000000" font-family="sans-serif" font-size="14" lengthAdjust="spacing" textLength="92" x="317.5" y="108.0234">0x5fbd..0aa3</text><rect fill="#E2E2F0" height="46.9766" rx="2.5" ry="2.5" style="stroke:#181818;stroke-width:0.5;" width="150" x="472" y="71"/><text fill="#000000" font-family="sans-serif" font-size="14" font-style="italic" lengthAdjust="spacing" textLength="136" x="479" y="91.5352">&#171;UniswapV4Router&#187;</text><text fill="#000000" font-family="sans-serif" font-size="14" lengthAdjust="spacing" textLength="93" x="500.5" y="108.0234">0x0165..eb8f</text><rect fill="#E2E2F0" height="63.4648" rx="2.5" ry="2.5" style="stroke:#181818;stroke-width:0.5;" width="143" x="632" y="54.5117"/><text fill="#000000" font-family="sans-serif" font-size="14" font-style="italic" lengthAdjust="spacing" textLength="129" x="639" y="75.0469">&#171;Uniswap v4 Core&#187;</text><text fill="#000000" font-family="sans-serif" font-size="14" font-style="italic" lengthAdjust="spacing" textLength="104" x="651.5" y="91.5352">&#171;PoolManager&#187;</text><text fill="#000000" font-family="sans-serif" font-size="14" lengthAdjust="spacing" textLength="92" x="657.5" y="108.0234">0x5fc8..5707</text><rect fill="#E2E2F0" height="63.4648" rx="2.5" ry="2.5" style="stroke:#181818;stroke-width:0.5;" width="107" x="785" y="54.5117"/><text fill="#000000" font-family="sans-serif" font-size="14" font-style="italic" lengthAdjust="spacing" textLength="69" x="804" y="75.0469">&#171;Token B&#187;</text><text fill="#000000" font-family="sans-serif" font-size="14" font-style="italic" lengthAdjust="spacing" textLength="93" x="792" y="91.5352">&#171;MockToken&#187;</text><text fill="#000000" font-family="sans-serif" font-size="14" lengthAdjust="spacing" textLength="91" x="793" y="108.0234">0x9fe4..a6e0</text><rect fill="#E2E2F0" height="46.9766" rx="2.5" ry="2.5" style="stroke:#181818;stroke-width:0.5;" width="133" x="902" y="71"/><text fill="#000000" font-family="sans-serif" font-size="14" font-style="italic" lengthAdjust="spacing" textLength="119" x="909" y="91.5352">&#171;FlashLoanLogic&#187;</text><text fill="#000000" font-family="sans-serif" font-size="14" lengthAdjust="spacing" textLength="98" x="919.5" y="108.0234">0x59b6..857b</text><rect fill="#FFFFFF" height="447.1055" style="stroke:#181818;stroke-width:1.0;" width="10" x="178" y="150.2871"/><rect fill="#809ECB" height="403.7949" style="stroke:#181818;stroke-width:1.0;" width="10" x="358.5" y="179.5977"/><rect fill="#FFFFFF" height="360.4844" style="stroke:#181818;stroke-width:1.0;" width="10" x="542" y="208.9082"/><rect fill="#FFFFFF" height="273.8633" style="stroke:#181818;stroke-width:1.0;" width="10" x="547" y="267.5293"/><rect fill="#FFFFFF" height="317.1738" style="stroke:#181818;stroke-width:1.0;" width="10" x="698.5" y="238.2188"/><rect fill="#FFFFFF" height="57.3105" style="stroke:#181818;stroke-width:1.0;" width="10" x="703.5" y="296.8398"/><rect fill="#FFFFFF" height="57.3105" style="stroke:#181818;stroke-width:1.0;" width="10" x="703.5" y="470.082"/><rect fill="#FFFFFF" height="14" style="stroke:#181818;stroke-width:1.0;" width="10" x="833.5" y="326.1504"/><rect fill="#FFFFFF" height="14" style="stroke:#181818;stroke-width:1.0;" width="10" x="833.5" y="426.7715"/><rect fill="#FFFFFF" height="14" style="stroke:#181818;stroke-width:1.0;" width="10" x="833.5" y="499.3926"/><rect fill="#809ECB" height="14" style="stroke:#181818;stroke-width:1.0;" width="10" x="963.5" y="383.4609"/><polygon fill="#181818" points="166,146.2871,176,150.2871,166,154.2871,170,150.2871" style="stroke:#181818;stroke-width:1.0;"/><line style="stroke:#181818;stroke-width:1.0;" x1="53" x2="172" y1="150.2871" y2="150.2871"/><text fill="#000000" font-family="sans-serif" font-size="13" lengthAdjust="spacing" textLength="61" x="60" y="145.5449">flashLoan</text><line style="stroke:#181818;stroke-width:1.0;" x1="356.5" x2="346.5" y1="179.5977" y2="175.5977"/><line style="stroke:#181818;stroke-width:1.0;" x1="356.5" x2="346.5" y1="179.5977" y2="183.5977"/><line style="stroke:#181818;stroke-width:1.0;" x1="188" x2="357.5" y1="179.5977" y2="179.5977"/><text fill="#000000" font-family="sans-serif" font-size="13" lengthAdjust="spacing" textLength="76" x="195" y="174.8555">0x39fe6b71</text><polygon fill="#3471CD" points="530,204.9082,540,208.9082,530,212.9082,534,208.9082" style="stroke:#3471CD;stroke-width:1.0;"/><line style="stroke:#3471CD;stroke-width:1.0;" x1="188" x2="536" y1="208.9082" y2="208.9082"/><text fill="#000000" font-family="sans-serif" font-size="13" lengthAdjust="spacing" textLength="49" x="195" y="204.166">process</text><polygon fill="#181818" points="686.5,234.2188,696.5,238.2188,686.5,242.2188,690.5,238.2188" style="stroke:#181818;stroke-width:1.0;"/><line style="stroke:#181818;stroke-width:1.0;" x1="552" x2="692.5" y1="238.2188" y2="238.2188"/><text fill="#000000" font-family="sans-serif" font-size="13" lengthAdjust="spacing" textLength="27" x="559" y="233.4766">lock</text><polygon fill="#181818" points="568,263.5293,558,267.5293,568,271.5293,564,267.5293" style="stroke:#181818;stroke-width:1.0;"/><line style="stroke:#181818;stroke-width:1.0;" x1="562" x2="697.5" y1="267.5293" y2="267.5293"/><text fill="#000000" font-family="sans-serif" font-size="13" lengthAdjust="spacing" textLength="83" x="574" y="262.7871">lockAcquired</text><polygon fill="#181818" points="691.5,292.8398,701.5,296.8398,691.5,300.8398,695.5,296.8398" style="stroke:#181818;stroke-width:1.0;"/><line style="stroke:#181818;stroke-width:1.0;" x1="557" x2="697.5" y1="296.8398" y2="296.8398"/><text fill="#000000" font-family="sans-serif" font-size="13" lengthAdjust="spacing" textLength="27" x="564" y="292.0977">take</text><polygon fill="#181818" points="821.5,322.1504,831.5,326.1504,821.5,330.1504,825.5,326.1504" style="stroke:#181818;stroke-width:1.0;"/><line style="stroke:#181818;stroke-width:1.0;" x1="713.5" x2="827.5" y1="326.1504" y2="326.1504"/><text fill="#000000" font-family="sans-serif" font-size="13" lengthAdjust="spacing" textLength="49" x="720.5" y="321.4082">transfer</text><polygon fill="#181818" points="724.5,336.1504,714.5,340.1504,724.5,344.1504,720.5,340.1504" style="stroke:#181818;stroke-width:1.0;"/><line style="stroke:#181818;stroke-width:1.0;stroke-dasharray:2.0,2.0;" x1="718.5" x2="837.5" y1="340.1504" y2="340.1504"/><polygon fill="#181818" points="568,350.1504,558,354.1504,568,358.1504,564,354.1504" style="stroke:#181818;stroke-width:1.0;"/><line style="stroke:#181818;stroke-width:1.0;stroke-dasharray:2.0,2.0;" x1="562" x2="697.5" y1="354.1504" y2="354.1504"/><line style="stroke:#181818;stroke-width:1.0;" x1="961.5" x2="951.5" y1="383.4609" y2="379.4609"/><line style="stroke:#181818;stroke-width:1.0;" x1="961.5" x2="951.5" y1="383.4609" y2="387.4609"/><line style="stroke:#181818;stroke-width:1.0;" x1="557" x2="962.5" y1="383.4609" y2="383.4609"/><text fill="#000000" font-family="sans-serif" font-size="13" lengthAdjust="spacing" textLength="115" x="564" y="378.7188">flashLoanCallback</text><line style="stroke:#181818;stroke-width:1.0;" x1="558" x2="568" y1="397.4609" y2="393.4609"/><line style="stroke:#181818;stroke-width:1.0;" x1="558" x2="568" y1="397.4609" y2="401.4609"/><line style="stroke:#181818;stroke-width:1.0;stroke-dasharray:2.0,2.0;" x1="557" x2="967.5" y1="397.4609" y2="397.4609"/><polygon fill="#181818" points="821.5,422.7715,831.5,426.7715,821.5,430.7715,825.5,426.7715" style="stroke:#181818;stroke-width:1.0;"/><line style="stroke:#181818;stroke-width:1.0;" x1="557" x2="827.5" y1="426.7715" y2="426.7715"/><text fill="#000000" font-family="sans-serif" font-size="13" lengthAdjust="spacing" textLength="49" x="564" y="422.0293">transfer</text><polygon fill="#181818" points="568,436.7715,558,440.7715,568,444.7715,564,440.7715" style="stroke:#181818;stroke-width:1.0;"/><line style="stroke:#181818;stroke-width:1.0;stroke-dasharray:2.0,2.0;" x1="562" x2="837.5" y1="440.7715" y2="440.7715"/><polygon fill="#181818" points="691.5,466.082,701.5,470.082,691.5,474.082,695.5,470.082" style="stroke:#181818;stroke-width:1.0;"/><line style="stroke:#181818;stroke-width:1.0;" x1="557" x2="697.5" y1="470.082" y2="470.082"/><text fill="#000000" font-family="sans-serif" font-size="13" lengthAdjust="spacing" textLength="35" x="564" y="465.3398">settle</text><polygon fill="#181818" points="821.5,495.3926,831.5,499.3926,821.5,503.3926,825.5,499.3926" style="stroke:#181818;stroke-width:1.0;"/><line style="stroke:#181818;stroke-width:1.0;" x1="713.5" x2="827.5" y1="499.3926" y2="499.3926"/><text fill="#000000" font-family="sans-serif" font-size="13" lengthAdjust="spacing" textLength="63" x="720.5" y="494.6504">balanceOf</text><polygon fill="#181818" points="724.5,509.3926,714.5,513.3926,724.5,517.3926,720.5,513.3926" style="stroke:#181818;stroke-width:1.0;"/><line style="stroke:#181818;stroke-width:1.0;stroke-dasharray:2.0,2.0;" x1="718.5" x2="837.5" y1="513.3926" y2="513.3926"/><polygon fill="#181818" points="568,523.3926,558,527.3926,568,531.3926,564,527.3926" style="stroke:#181818;stroke-width:1.0;"/><line style="stroke:#181818;stroke-width:1.0;stroke-dasharray:2.0,2.0;" x1="562" x2="697.5" y1="527.3926" y2="527.3926"/><polygon fill="#181818" points="686.5,537.3926,696.5,541.3926,686.5,545.3926,690.5,541.3926" style="stroke:#181818;stroke-width:1.0;"/><line style="stroke:#181818;stroke-width:1.0;stroke-dasharray:2.0,2.0;" x1="552" x2="692.5" y1="541.3926" y2="541.3926"/><polygon fill="#181818" points="563,551.3926,553,555.3926,563,559.3926,559,555.3926" style="stroke:#181818;stroke-width:1.0;"/><line style="stroke:#181818;stroke-width:1.0;stroke-dasharray:2.0,2.0;" x1="557" x2="702.5" y1="555.3926" y2="555.3926"/><polygon fill="#3471CD" points="199,565.3926,189,569.3926,199,573.3926,195,569.3926" style="stroke:#3471CD;stroke-width:1.0;"/><line style="stroke:#3471CD;stroke-width:1.0;stroke-dasharray:2.0,2.0;" x1="193" x2="546" y1="569.3926" y2="569.3926"/><line style="stroke:#181818;stroke-width:1.0;" x1="189" x2="199" y1="583.3926" y2="579.3926"/><line style="stroke:#181818;stroke-width:1.0;" x1="189" x2="199" y1="583.3926" y2="587.3926"/><line style="stroke:#181818;stroke-width:1.0;stroke-dasharray:2.0,2.0;" x1="188" x2="362.5" y1="583.3926" y2="583.3926"/><polygon fill="#181818" points="64,593.3926,54,597.3926,64,601.3926,60,597.3926" style="stroke:#181818;stroke-width:1.0;"/><line style="stroke:#181818;stroke-width:1.0;stroke-dasharray:2.0,2.0;" x1="58" x2="182" y1="597.3926" y2="597.3926"/><!--SRC=[bLFBRjim4BppAuZaB4AEBVa1Wq3ZDYS73OAabwA79RrC20kYIz69-_VXoXQjrWRYdeGHTsQMCrAmeKB-NDlc7JRyRSGpVbT1yygN3chsQbV8ZND1kHrZe8Fp_2hVcU7K275pKvPN71fEa01d6_31Qhk1Ej0S58EX47fI3DivWWJuV7um_35QG5MXb_9VQc7KIeWSO4ybIA1FVNJRW7vfbGV_vrGX7vI54AWcfbKWIE1KuPovdWXHZFFnmJnk7S6HIa4jd4Sfv_C7vwfxgE7bdDBKu4W8A35lbGWIY4fFReqrloM5UwVNBJopoLILGaHtjTyaGWAHtxP49ItTYzMHoL8DcKnHpxZfvgW- -mO1qo5BXMHIfeXdFDz59IpLU73af0Ak9_dqs-Asn_rvFHoD1ukllsGAUSOttcbicgD0TyHI4PbCoSvu5JFek-tVinHzrXUduI_wzzPwN5ti462DdpXqzSHX3tLZq1y9tHdp6BQ-xXuzBvdgwQLEtxU2l-xMTTWbUQhqNukSlss38VxO5zzNGGMrnk_cqmjVyFW0]--></g></svg>