<?xml version="1.0" encoding="us-ascii" standalone="no"?><svg xmlns="http://www.w3.org/2000/svg" xmlns:xlink="http://www.w3.org/1999/xlink" contentStyleType="text/css" height="2363px" preserveAspectRatio="none" style="width:1464px;height:2363px;background:#FFFFFF;" version="1.1" viewBox="0 0 1464 2363" width="1464px" zoomAndPan="magnify"><defs/><g><text fill="#000000" font-family="sans-serif" font-size="14" font-weight="bold" lengthAdjust="spacing" textLength="179" x="641.75" y="28.5352">Uniswap v4 - Flash Loan</text><text fill="#000000" font-family="sans-serif" font-size="14" lengthAdjust="spacing" textLength="327" x="567.75" y="2351.5391">none, block 6, Mon, 18 Sep 2023 22:50:26 GMT</text><rect fill="#FFFFFF" height="1680.0859" style="stroke:#181818;stroke-width:1.0;" width="10" x="374" y="369.3242"/><rect fill="#809ECB" height="1494.291" style="stroke:#181818;stroke-width:1.0;" width="10" x="554.5" y="413.9453"/><rect fill="#FFFFFF" height="1002.2852" style="stroke:#181818;stroke-width:1.0;" width="10" x="738" y="841.3301"/><rect fill="#FFFFFF" height="711.9375" style="stroke:#181818;stroke-width:1.0;" width="10" x="743" y="961.1934"/><rect fill="#FFFFFF" height="801.1797" style="stroke:#181818;stroke-width:1.0;" width="10" x="1028" y="901.2617"/><rect fill="#FFFFFF" height="118.5527" style="stroke:#181818;stroke-width:1.0;" width="10" x="1033" y="1051.7461"/><rect fill="#FFFFFF" height="118.5527" style="stroke:#181818;stroke-width:1.0;" width="10" x="1033" y="1474.6465"/><rect fill="#FFFFFF" height="29.3105" style="stroke:#181818;stroke-width:1.0;" width="10" x="1258" y="1126.9883"/><rect fill="#FFFFFF" height="29.3105" style="stroke:#181818;stroke-width:1.0;" width="10" x="1258" y="1385.4043"/><rect fill="#FFFFFF" height="29.3105" style="stroke:#181818;stroke-width:1.0;" width="10" x="1258" y="1534.5781"/><rect fill="#809ECB" height="14" style="stroke:#181818;stroke-width:1.0;" width="10" x="1387" y="1296.1621"/><line style="stroke:#181818;stroke-width:0.5;stroke-dasharray:5.0,5.0;" x1="107" x2="107" y1="118.9766" y2="2260.5156"/><line style="stroke:#181818;stroke-width:0.5;stroke-dasharray:5.0,5.0;" x1="379" x2="379" y1="118.9766" y2="2260.5156"/><line style="stroke:#181818;stroke-width:0.5;stroke-dasharray:5.0,5.0;" x1="559" x2="559" y1="118.9766" y2="2260.5156"/><line style="stroke:#181818;stroke-width:0.5;stroke-dasharray:5.0,5.0;" x1="743" x2="743" y1="118.9766" y2="2260.5156"/><line style="stroke:#181818;stroke-width:0.5;stroke-dasharray:5.0,5.0;" x1="1032.5" x2="1032.5" y1="118.9766" y2="2260.5156"/><line style="stroke:#181818;stroke-width:0.5;stroke-dasharray:5.0,5.0;" x1="1262.5" x2="1262.5" y1="118.9766" y2="2260.5156"/><line style="stroke:#181818;stroke-width:0.5;stroke-dasharray:5.0,5.0;" x1="1391.5" x2="1391.5" y1="118.9766" y2="2260.5156"/><text fill="#000000" font-family="sans-serif" font-size="14" lengthAdjust="spacing" textLength="90" x="59" y="116.0234">0xf39f..2266</text><ellipse cx="107" cy="50.9883" fill="#E2E2F0" rx="8" ry="8" style="stroke:#181818;stroke-width:0.5;"/><path d="M107,58.9883 L107,85.9883 M94,66.9883 L120,66.9883 M107,85.9883 L94,100.9883 M107,85.9883 L120,100.9883 " fill="none" style="stroke:#181818;stroke-width:0.5;"/><text fill="#000000" font-family="sans-serif" font-size="14" lengthAdjust="spacing" textLength="90" x="59" y="2273.0508">0xf39f..2266</text><ellipse cx="107" cy="2284.5039" fill="#E2E2F0" rx="8" ry="8" style="stroke:#181818;stroke-width:0.5;"/><path d="M107,2292.5039 L107,2319.5039 M94,2300.5039 L120,2300.5039 M107,2319.5039 L94,2334.5039 M107,2319.5039 L120,2334.5039 " fill="none" style="stroke:#181818;stroke-width:0.5;"/><rect fill="#E2E2F0" height="46.9766" rx="2.5" ry="2.5" style="stroke:#181818;stroke-width:0.5;" width="144" x="307" y="71"/><text fill="#000000" font-family="sans-serif" font-size="14" font-style="italic" lengthAdjust="spacing" textLength="130" x="314" y="91.5352">&#171;UniswapV4Caller&#187;</text><text fill="#000000" font-family="sans-serif" font-size="14" lengthAdjust="spacing" textLength="92" x="333" y="108.0234">0x5fc8..5707</text><rect fill="#E2E2F0" height="46.9766" rx="2.5" ry="2.5" style="stroke:#181818;stroke-width:0.5;" width="144" x="307" y="2259.5156"/><text fill="#000000" font-family="sans-serif" font-size="14" font-style="italic" lengthAdjust="spacing" textLength="130" x="314" y="2280.0508">&#171;UniswapV4Caller&#187;</text><text fill="#000000" font-family="sans-serif" font-size="14" lengthAdjust="spacing" textLength="92" x="333" y="2296.5391">0x5fc8..5707</text><rect fill="#E2E2F0" height="46.9766" rx="2.5" ry="2.5" style="stroke:#181818;stroke-width:0.5;" width="197" x="461" y="71"/><text fill="#000000" font-family="sans-serif" font-size="14" font-style="italic" lengthAdjust="spacing" textLength="183" x="468" y="91.5352">&#171;UniswapV4RouterLibrary&#187;</text><text fill="#000000" font-family="sans-serif" font-size="14" lengthAdjust="spacing" textLength="92" x="513.5" y="108.0234">0x5fbd..0aa3</text><rect fill="#E2E2F0" height="46.9766" rx="2.5" ry="2.5" style="stroke:#181818;stroke-width:0.5;" width="197" x="461" y="2259.5156"/><text fill="#000000" font-family="sans-serif" font-size="14" font-style="italic" lengthAdjust="spacing" textLength="183" x="468" y="2280.0508">&#171;UniswapV4RouterLibrary&#187;</text><text fill="#000000" font-family="sans-serif" font-size="14" lengthAdjust="spacing" textLength="92" x="513.5" y="2296.5391">0x5fbd..0aa3</text><rect fill="#E2E2F0" height="46.9766" rx="2.5" ry="2.5" style="stroke:#181818;stroke-width:0.5;" width="150" x="668" y="71"/><text fill="#000000" font-family="sans-serif" font-size="14" font-style="italic" lengthAdjust="spacing" textLength="136" x="675" y="91.5352">&#171;UniswapV4Router&#187;</text><text fill="#000000" font-family="sans-serif" font-size="14" lengthAdjust="spacing" textLength="90" x="698" y="108.0234">0xdc64..f6c9</text><rect fill="#E2E2F0" height="46.9766" rx="2.5" ry="2.5" style="stroke:#181818;stroke-width:0.5;" width="150" x="668" y="2259.5156"/><text fill="#000000" font-family="sans-serif" font-size="14" font-style="italic" lengthAdjust="spacing" textLength="136" x="675" y="2280.0508">&#171;UniswapV4Router&#187;</text><text fill="#000000" font-family="sans-serif" font-size="14" lengthAdjust="spacing" textLength="90" x="698" y="2296.5391">0xdc64..f6c9</text><rect fill="#E2E2F0" height="63.4648" rx="2.5" ry="2.5" style="stroke:#181818;stroke-width:0.5;" width="143" x="961.5" y="54.5117"/><text fill="#000000" font-family="sans-serif" font-size="14" font-style="italic" lengthAdjust="spacing" textLength="129" x="968.5" y="75.0469">&#171;Uniswap v4 Core&#187;</text><text fill="#000000" font-family="sans-serif" font-size="14" font-style="italic" lengthAdjust="spacing" textLength="104" x="981" y="91.5352">&#171;PoolManager&#187;</text><text fill="#000000" font-family="sans-serif" font-size="14" lengthAdjust="spacing" textLength="85" x="990.5" y="108.0234">0xcf7e..0fc9</text><rect fill="#E2E2F0" height="63.4648" rx="2.5" ry="2.5" style="stroke:#181818;stroke-width:0.5;" width="143" x="961.5" y="2259.5156"/><text fill="#000000" font-family="sans-serif" font-size="14" font-style="italic" lengthAdjust="spacing" textLength="129" x="968.5" y="2280.0508">&#171;Uniswap v4 Core&#187;</text><text fill="#000000" font-family="sans-serif" font-size="14" font-style="italic" lengthAdjust="spacing" textLength="104" x="981" y="2296.5391">&#171;PoolManager&#187;</text><text fill="#000000" font-family="sans-serif" font-size="14" lengthAdjust="spacing" textLength="85" x="990.5" y="2313.0273">0xcf7e..0fc9</text><rect fill="#E2E2F0" height="63.4648" rx="2.5" ry="2.5" style="stroke:#181818;stroke-width:0.5;" width="105" x="1210.5" y="54.5117"/><text fill="#000000" font-family="sans-serif" font-size="14" font-style="italic" lengthAdjust="spacing" textLength="62" x="1232" y="75.0469">&#171;token0&#187;</text><text fill="#000000" font-family="sans-serif" font-size="14" font-style="italic" lengthAdjust="spacing" textLength="88" x="1219" y="91.5352">&#171;TestERC20&#187;</text><text fill="#000000" font-family="sans-serif" font-size="14" lengthAdjust="spacing" textLength="91" x="1217.5" y="108.0234">0x9fe4..a6e0</text><rect fill="#E2E2F0" height="63.4648" rx="2.5" ry="2.5" style="stroke:#181818;stroke-width:0.5;" width="105" x="1210.5" y="2259.5156"/><text fill="#000000" font-family="sans-serif" font-size="14" font-style="italic" lengthAdjust="spacing" textLength="62" x="1232" y="2280.0508">&#171;token0&#187;</text><text fill="#000000" font-family="sans-serif" font-size="14" font-style="italic" lengthAdjust="spacing" textLength="88" x="1219" y="2296.5391">&#171;TestERC20&#187;</text><text fill="#000000" font-family="sans-serif" font-size="14" lengthAdjust="spacing" textLength="91" x="1217.5" y="2313.0273">0x9fe4..a6e0</text><rect fill="#E2E2F0" height="46.9766" rx="2.5" ry="2.5" style="stroke:#181818;stroke-width:0.5;" width="133" x="1325.5" y="71"/><text fill="#000000" font-family="sans-serif" font-size="14" font-style="italic" lengthAdjust="spacing" textLength="119" x="1332.5" y="91.5352">&#171;FlashLoanLogic&#187;</text><text fill="#000000" font-family="sans-serif" font-size="14" lengthAdjust="spacing" textLength="94" x="1345" y="108.0234">0x3aa5..443c</text><rect fill="#E2E2F0" height="46.9766" rx="2.5" ry="2.5" style="stroke:#181818;stroke-width:0.5;" width="133" x="1325.5" y="2259.5156"/><text fill="#000000" font-family="sans-serif" font-size="14" font-style="italic" lengthAdjust="spacing" textLength="119" x="1332.5" y="2280.0508">&#171;FlashLoanLogic&#187;</text><text fill="#000000" font-family="sans-serif" font-size="14" lengthAdjust="spacing" textLength="94" x="1345" y="2296.5391">0x3aa5..443c</text><rect fill="#FFFFFF" height="1680.0859" style="stroke:#181818;stroke-width:1.0;" width="10" x="374" y="369.3242"/><rect fill="#809ECB" height="1494.291" style="stroke:#181818;stroke-width:1.0;" width="10" x="554.5" y="413.9453"/><rect fill="#FFFFFF" height="1002.2852" style="stroke:#181818;stroke-width:1.0;" width="10" x="738" y="841.3301"/><rect fill="#FFFFFF" height="711.9375" style="stroke:#181818;stroke-width:1.0;" width="10" x="743" y="961.1934"/><rect fill="#FFFFFF" height="801.1797" style="stroke:#181818;stroke-width:1.0;" width="10" x="1028" y="901.2617"/><rect fill="#FFFFFF" height="118.5527" style="stroke:#181818;stroke-width:1.0;" width="10" x="1033" y="1051.7461"/><rect fill="#FFFFFF" height="118.5527" style="stroke:#181818;stroke-width:1.0;" width="10" x="1033" y="1474.6465"/><rect fill="#FFFFFF" height="29.3105" style="stroke:#181818;stroke-width:1.0;" width="10" x="1258" y="1126.9883"/><rect fill="#FFFFFF" height="29.3105" style="stroke:#181818;stroke-width:1.0;" width="10" x="1258" y="1385.4043"/><rect fill="#FFFFFF" height="29.3105" style="stroke:#181818;stroke-width:1.0;" width="10" x="1258" y="1534.5781"/><rect fill="#809ECB" height="14" style="stroke:#181818;stroke-width:1.0;" width="10" x="1387" y="1296.1621"/><path d="M5,133.9766 L5,250.9766 L209,250.9766 L209,143.9766 L199,133.9766 L5,133.9766 " fill="#FEFFDD" style="stroke:#181818;stroke-width:0.5;"/><path d="M199,133.9766 L199,143.9766 L209,143.9766 L199,133.9766 " fill="#FEFFDD" style="stroke:#181818;stroke-width:0.5;"/><text fill="#000000" font-family="sans-serif" font-size="13" lengthAdjust="spacing" textLength="64" x="11" y="151.5449">Nonce: 20</text><text fill="#000000" font-family="sans-serif" font-size="13" lengthAdjust="spacing" textLength="183" x="11" y="166.8555">Gas Price: 3.586031143 Gwei</text><text fill="#000000" font-family="sans-serif" font-size="13" lengthAdjust="spacing" textLength="113" x="11" y="182.166">Max Fee: 5.0 Gwei</text><text fill="#000000" font-family="sans-serif" font-size="13" lengthAdjust="spacing" textLength="137" x="11" y="197.4766">Max Priority: 3.0 Gwei</text><text fill="#000000" font-family="sans-serif" font-size="13" lengthAdjust="spacing" textLength="119" x="11" y="212.7871">Gas Limit: 193,286</text><text fill="#000000" font-family="sans-serif" font-size="13" lengthAdjust="spacing" textLength="118" x="11" y="228.0977">Gas Used: 139,936</text><text fill="#000000" font-family="sans-serif" font-size="13" lengthAdjust="spacing" textLength="114" x="11" y="243.4082">Tx Fee: 0.001 ETH</text><polygon fill="#181818" points="362,365.3242,372,369.3242,362,373.3242,366,369.3242" style="stroke:#181818;stroke-width:1.0;"/><line style="stroke:#181818;stroke-width:1.0;" x1="107" x2="368" y1="369.3242" y2="369.3242"/><text fill="#000000" font-family="sans-serif" font-size="13" lengthAdjust="spacing" textLength="65" x="114" y="272.7188">flashLoan(</text><text fill="#000000" font-family="sans-serif" font-size="13" lengthAdjust="spacing" textLength="130" x="122" y="288.0293">token: 0x9fE4..a6e0,</text><text fill="#000000" font-family="sans-serif" font-size="13" lengthAdjust="spacing" textLength="188" x="122" y="303.3398">amount: 10,000,000,000,000,</text><text fill="#000000" font-family="sans-serif" font-size="13" lengthAdjust="spacing" textLength="191" x="122" y="318.6504">callbackTarget: 0x3Aa5..443c,</text><text fill="#000000" font-family="sans-serif" font-size="13" lengthAdjust="spacing" textLength="102" x="122" y="333.9609">callbackType: 1,</text><text fill="#000000" font-family="sans-serif" font-size="13" lengthAdjust="spacing" textLength="240" x="122" y="349.2715">callbackData: 0x756fd550..4e72a000)</text><text fill="#000000" font-family="sans-serif" font-size="13" lengthAdjust="spacing" textLength="78" x="114" y="364.582">121,424 gas</text><line style="stroke:#181818;stroke-width:1.0;" x1="552.5" x2="542.5" y1="413.9453" y2="409.9453"/><line style="stroke:#181818;stroke-width:1.0;" x1="552.5" x2="542.5" y1="413.9453" y2="417.9453"/><line style="stroke:#181818;stroke-width:1.0;" x1="384" x2="553.5" y1="413.9453" y2="413.9453"/><text fill="#000000" font-family="sans-serif" font-size="13" lengthAdjust="spacing" textLength="76" x="391" y="393.8926">0x39fe6b71</text><text fill="#000000" font-family="sans-serif" font-size="13" lengthAdjust="spacing" textLength="78" x="391" y="409.2031">115,072 gas</text><polygon fill="#3471CD" points="726,837.3301,736,841.3301,726,845.3301,730,841.3301" style="stroke:#3471CD;stroke-width:1.0;"/><line style="stroke:#3471CD;stroke-width:1.0;" x1="384" x2="732" y1="841.3301" y2="841.3301"/><text fill="#000000" font-family="sans-serif" font-size="13" lengthAdjust="spacing" textLength="53" x="391" y="438.5137">process(</text><text fill="#000000" font-family="sans-serif" font-size="13" lengthAdjust="spacing" textLength="41" x="399" y="453.8242">calls: [</text><text fill="#000000" font-family="sans-serif" font-size="13" lengthAdjust="spacing" textLength="20" x="407" y="469.1348">0: [</text><text fill="#000000" font-family="sans-serif" font-size="13" lengthAdjust="spacing" textLength="132" x="415" y="484.4453">target: 0xCf7E..0Fc9,</text><text fill="#000000" font-family="sans-serif" font-size="13" lengthAdjust="spacing" textLength="64" x="415" y="499.7559">callType: ,</text><text fill="#000000" font-family="sans-serif" font-size="13" lengthAdjust="spacing" textLength="85" x="415" y="515.0664">results: false,</text><text fill="#000000" font-family="sans-serif" font-size="13" lengthAdjust="spacing" textLength="53" x="415" y="530.377">value: 0,</text><text fill="#000000" font-family="sans-serif" font-size="13" lengthAdjust="spacing" textLength="192" x="415" y="545.6875">data: 0x0b0d9c09..4e72a000],</text><text fill="#000000" font-family="sans-serif" font-size="13" lengthAdjust="spacing" textLength="20" x="407" y="560.998">1: [</text><text fill="#000000" font-family="sans-serif" font-size="13" lengthAdjust="spacing" textLength="136" x="415" y="576.3086">target: 0x3Aa5..443c,</text><text fill="#000000" font-family="sans-serif" font-size="13" lengthAdjust="spacing" textLength="72" x="415" y="591.6191">callType: 1,</text><text fill="#000000" font-family="sans-serif" font-size="13" lengthAdjust="spacing" textLength="85" x="415" y="606.9297">results: false,</text><text fill="#000000" font-family="sans-serif" font-size="13" lengthAdjust="spacing" textLength="53" x="415" y="622.2402">value: 0,</text><text fill="#000000" font-family="sans-serif" font-size="13" lengthAdjust="spacing" textLength="190" x="415" y="637.5508">data: 0x756fd550..4e72a000],</text><text fill="#000000" font-family="sans-serif" font-size="13" lengthAdjust="spacing" textLength="20" x="407" y="652.8613">2: [</text><text fill="#000000" font-family="sans-serif" font-size="13" lengthAdjust="spacing" textLength="131" x="415" y="668.1719">target: 0x9fE4..a6e0,</text><text fill="#000000" font-family="sans-serif" font-size="13" lengthAdjust="spacing" textLength="64" x="415" y="683.4824">callType: ,</text><text fill="#000000" font-family="sans-serif" font-size="13" lengthAdjust="spacing" textLength="85" x="415" y="698.793">results: false,</text><text fill="#000000" font-family="sans-serif" font-size="13" lengthAdjust="spacing" textLength="53" x="415" y="714.1035">value: 0,</text><text fill="#000000" font-family="sans-serif" font-size="13" lengthAdjust="spacing" textLength="191" x="415" y="729.4141">data: 0xa9059cbb..4e72a000],</text><text fill="#000000" font-family="sans-serif" font-size="13" lengthAdjust="spacing" textLength="20" x="407" y="744.7246">3: [</text><text fill="#000000" font-family="sans-serif" font-size="13" lengthAdjust="spacing" textLength="132" x="415" y="760.0352">target: 0xCf7E..0Fc9,</text><text fill="#000000" font-family="sans-serif" font-size="13" lengthAdjust="spacing" textLength="64" x="415" y="775.3457">callType: ,</text><text fill="#000000" font-family="sans-serif" font-size="13" lengthAdjust="spacing" textLength="85" x="415" y="790.6563">results: false,</text><text fill="#000000" font-family="sans-serif" font-size="13" lengthAdjust="spacing" textLength="53" x="415" y="805.9668">value: 0,</text><text fill="#000000" font-family="sans-serif" font-size="13" lengthAdjust="spacing" textLength="192" x="415" y="821.2773">data: 0x6a256b29..3c7fa6e0]])</text><text fill="#000000" font-family="sans-serif" font-size="13" lengthAdjust="spacing" textLength="78" x="391" y="836.5879">104,444 gas</text><polygon fill="#181818" points="1016,897.2617,1026,901.2617,1016,905.2617,1020,901.2617" style="stroke:#181818;stroke-width:1.0;"/><line style="stroke:#181818;stroke-width:1.0;" x1="748" x2="1022" y1="901.2617" y2="901.2617"/><text fill="#000000" font-family="sans-serif" font-size="13" lengthAdjust="spacing" textLength="31" x="755" y="865.8984">lock(</text><text fill="#000000" font-family="sans-serif" font-size="13" lengthAdjust="spacing" textLength="191" x="763" y="881.209">data: 0x00000000..00000000)</text><text fill="#000000" font-family="sans-serif" font-size="13" lengthAdjust="spacing" textLength="70" x="755" y="896.5195">91,662 gas</text><polygon fill="#181818" points="764,957.1934,754,961.1934,764,965.1934,760,961.1934" style="stroke:#181818;stroke-width:1.0;"/><line style="stroke:#181818;stroke-width:1.0;" x1="758" x2="1027" y1="961.1934" y2="961.1934"/><text fill="#000000" font-family="sans-serif" font-size="13" lengthAdjust="spacing" textLength="87" x="770" y="925.8301">lockAcquired(</text><text fill="#000000" font-family="sans-serif" font-size="13" lengthAdjust="spacing" textLength="248" x="778" y="941.1406">encodedCalls: 0x00000000..00000000)</text><text fill="#000000" font-family="sans-serif" font-size="13" lengthAdjust="spacing" textLength="70" x="770" y="956.4512">68,742 gas</text><polygon fill="#181818" points="1021,1047.7461,1031,1051.7461,1021,1055.7461,1025,1051.7461" style="stroke:#181818;stroke-width:1.0;"/><line style="stroke:#181818;stroke-width:1.0;" x1="753" x2="1027" y1="1051.7461" y2="1051.7461"/><text fill="#000000" font-family="sans-serif" font-size="13" lengthAdjust="spacing" textLength="31" x="760" y="985.7617">take(</text><text fill="#000000" font-family="sans-serif" font-size="13" lengthAdjust="spacing" textLength="148" x="768" y="1001.0723">currency: 0x9fE4..a6e0,</text><text fill="#000000" font-family="sans-serif" font-size="13" lengthAdjust="spacing" textLength="114" x="768" y="1016.3828">to: 0xDc64..F6C9,</text><text fill="#000000" font-family="sans-serif" font-size="13" lengthAdjust="spacing" textLength="188" x="768" y="1031.6934">amount: 10,000,000,000,000)</text><text fill="#000000" font-family="sans-serif" font-size="13" lengthAdjust="spacing" textLength="70" x="760" y="1047.0039">62,579 gas</text><polygon fill="#181818" points="1246,1122.9883,1256,1126.9883,1246,1130.9883,1250,1126.9883" style="stroke:#181818;stroke-width:1.0;"/><line style="stroke:#181818;stroke-width:1.0;" x1="1043" x2="1252" y1="1126.9883" y2="1126.9883"/><text fill="#000000" font-family="sans-serif" font-size="13" lengthAdjust="spacing" textLength="53" x="1050" y="1076.3145">transfer(</text><text fill="#000000" font-family="sans-serif" font-size="13" lengthAdjust="spacing" textLength="156" x="1058" y="1091.625">recipient: 0xDc64..F6C9,</text><text fill="#000000" font-family="sans-serif" font-size="13" lengthAdjust="spacing" textLength="188" x="1058" y="1106.9355">amount: 10,000,000,000,000)</text><text fill="#000000" font-family="sans-serif" font-size="13" lengthAdjust="spacing" textLength="70" x="1050" y="1122.2461">29,977 gas</text><polygon fill="#181818" points="1054,1152.2988,1044,1156.2988,1054,1160.2988,1050,1156.2988" style="stroke:#181818;stroke-width:1.0;"/><line style="stroke:#181818;stroke-width:1.0;stroke-dasharray:2.0,2.0;" x1="1048" x2="1262" y1="1156.2988" y2="1156.2988"/><text fill="#000000" font-family="sans-serif" font-size="13" lengthAdjust="spacing" textLength="25" x="1060" y="1151.5566">true</text><polygon fill="#181818" points="764,1166.2988,754,1170.2988,764,1174.2988,760,1170.2988" style="stroke:#181818;stroke-width:1.0;"/><line style="stroke:#181818;stroke-width:1.0;stroke-dasharray:2.0,2.0;" x1="758" x2="1027" y1="1170.2988" y2="1170.2988"/><path d="M1043,1183.2988 L1043,1223.2988 L1134,1223.2988 L1134,1193.2988 L1124,1183.2988 L1043,1183.2988 " fill="#FEFFDD" style="stroke:#181818;stroke-width:0.5;"/><path d="M1124,1183.2988 L1124,1193.2988 L1134,1193.2988 L1124,1183.2988 " fill="#FEFFDD" style="stroke:#181818;stroke-width:0.5;"/><text fill="#000000" font-family="sans-serif" font-size="13" lengthAdjust="spacing" textLength="4" x="1049" y="1200.8672">&#160;</text><text fill="#000000" font-family="sans-serif" font-size="13" lengthAdjust="spacing" textLength="70" x="1049" y="1216.1777">32,602 gas</text><line style="stroke:#181818;stroke-width:1.0;" x1="1385" x2="1375" y1="1296.1621" y2="1292.1621"/><line style="stroke:#181818;stroke-width:1.0;" x1="1385" x2="1375" y1="1296.1621" y2="1300.1621"/><line style="stroke:#181818;stroke-width:1.0;" x1="753" x2="1386" y1="1296.1621" y2="1296.1621"/><text fill="#000000" font-family="sans-serif" font-size="13" lengthAdjust="spacing" textLength="119" x="760" y="1245.4883">flashLoanCallback(</text><text fill="#000000" font-family="sans-serif" font-size="13" lengthAdjust="spacing" textLength="130" x="768" y="1260.7988">token: 0x9fE4..a6e0,</text><text fill="#000000" font-family="sans-serif" font-size="13" lengthAdjust="spacing" textLength="188" x="768" y="1276.1094">amount: 10,000,000,000,000)</text><text fill="#000000" font-family="sans-serif" font-size="13" lengthAdjust="spacing" textLength="50" x="760" y="1291.4199">293 gas</text><line style="stroke:#181818;stroke-width:1.0;" x1="754" x2="764" y1="1310.1621" y2="1306.1621"/><line style="stroke:#181818;stroke-width:1.0;" x1="754" x2="764" y1="1310.1621" y2="1314.1621"/><line style="stroke:#181818;stroke-width:1.0;stroke-dasharray:2.0,2.0;" x1="753" x2="1391" y1="1310.1621" y2="1310.1621"/><polygon fill="#181818" points="1246,1381.4043,1256,1385.4043,1246,1389.4043,1250,1385.4043" style="stroke:#181818;stroke-width:1.0;"/><line style="stroke:#181818;stroke-width:1.0;" x1="753" x2="1252" y1="1385.4043" y2="1385.4043"/><text fill="#000000" font-family="sans-serif" font-size="13" lengthAdjust="spacing" textLength="53" x="760" y="1334.7305">transfer(</text><text fill="#000000" font-family="sans-serif" font-size="13" lengthAdjust="spacing" textLength="150" x="768" y="1350.041">recipient: 0xCf7E..0Fc9,</text><text fill="#000000" font-family="sans-serif" font-size="13" lengthAdjust="spacing" textLength="188" x="768" y="1365.3516">amount: 10,000,000,000,000)</text><text fill="#000000" font-family="sans-serif" font-size="13" lengthAdjust="spacing" textLength="62" x="760" y="1380.6621">2,622 gas</text><polygon fill="#181818" points="764,1410.7148,754,1414.7148,764,1418.7148,760,1414.7148" style="stroke:#181818;stroke-width:1.0;"/><line style="stroke:#181818;stroke-width:1.0;stroke-dasharray:2.0,2.0;" x1="758" x2="1262" y1="1414.7148" y2="1414.7148"/><text fill="#000000" font-family="sans-serif" font-size="13" lengthAdjust="spacing" textLength="25" x="770" y="1409.9727">true</text><polygon fill="#181818" points="1021,1470.6465,1031,1474.6465,1021,1478.6465,1025,1474.6465" style="stroke:#181818;stroke-width:1.0;"/><line style="stroke:#181818;stroke-width:1.0;" x1="753" x2="1027" y1="1474.6465" y2="1474.6465"/><text fill="#000000" font-family="sans-serif" font-size="13" lengthAdjust="spacing" textLength="39" x="760" y="1439.2832">settle(</text><text fill="#000000" font-family="sans-serif" font-size="13" lengthAdjust="spacing" textLength="148" x="768" y="1454.5938">currency: 0x9fE4..a6e0)</text><text fill="#000000" font-family="sans-serif" font-size="13" lengthAdjust="spacing" textLength="62" x="760" y="1469.9043">3,296 gas</text><polygon fill="#181818" points="1246,1530.5781,1256,1534.5781,1246,1538.5781,1250,1534.5781" style="stroke:#181818;stroke-width:1.0;"/><line style="stroke:#181818;stroke-width:1.0;" x1="1043" x2="1252" y1="1534.5781" y2="1534.5781"/><text fill="#000000" font-family="sans-serif" font-size="13" lengthAdjust="spacing" textLength="67" x="1050" y="1499.2148">balanceOf(</text><text fill="#000000" font-family="sans-serif" font-size="13" lengthAdjust="spacing" textLength="87" x="1058" y="1514.5254">0xCf7E..0Fc9)</text><text fill="#000000" font-family="sans-serif" font-size="13" lengthAdjust="spacing" textLength="50" x="1050" y="1529.8359">566 gas</text><polygon fill="#181818" points="1054,1559.8887,1044,1563.8887,1054,1567.8887,1050,1563.8887" style="stroke:#181818;stroke-width:1.0;"/><line style="stroke:#181818;stroke-width:1.0;stroke-dasharray:2.0,2.0;" x1="1048" x2="1262" y1="1563.8887" y2="1563.8887"/><text fill="#000000" font-family="sans-serif" font-size="13" lengthAdjust="spacing" textLength="188" x="1060" y="1559.1465">33,,125,499,066,867,325,885</text><polygon fill="#181818" points="764,1589.1992,754,1593.1992,764,1597.1992,760,1593.1992" style="stroke:#181818;stroke-width:1.0;"/><line style="stroke:#181818;stroke-width:1.0;stroke-dasharray:2.0,2.0;" x1="758" x2="1027" y1="1593.1992" y2="1593.1992"/><text fill="#000000" font-family="sans-serif" font-size="13" lengthAdjust="spacing" textLength="163" x="770" y="1588.457">paid: 10,000,000,000,000</text><path d="M1043,1606.1992 L1043,1646.1992 L1126,1646.1992 L1126,1616.1992 L1116,1606.1992 L1043,1606.1992 " fill="#FEFFDD" style="stroke:#181818;stroke-width:0.5;"/><path d="M1116,1606.1992 L1116,1616.1992 L1126,1616.1992 L1116,1606.1992 " fill="#FEFFDD" style="stroke:#181818;stroke-width:0.5;"/><text fill="#000000" font-family="sans-serif" font-size="13" lengthAdjust="spacing" textLength="4" x="1049" y="1623.7676">&#160;</text><text fill="#000000" font-family="sans-serif" font-size="13" lengthAdjust="spacing" textLength="62" x="1049" y="1639.0781">2,730 gas</text><polygon fill="#181818" points="1016,1669.1309,1026,1673.1309,1016,1677.1309,1020,1673.1309" style="stroke:#181818;stroke-width:1.0;"/><line style="stroke:#181818;stroke-width:1.0;stroke-dasharray:2.0,2.0;" x1="748" x2="1022" y1="1673.1309" y2="1673.1309"/><text fill="#000000" font-family="sans-serif" font-size="13" lengthAdjust="spacing" textLength="150" x="755" y="1668.3887">0x00000000..4e72a000</text><polygon fill="#181818" points="759,1698.4414,749,1702.4414,759,1706.4414,755,1702.4414" style="stroke:#181818;stroke-width:1.0;"/><line style="stroke:#181818;stroke-width:1.0;stroke-dasharray:2.0,2.0;" x1="753" x2="1032" y1="1702.4414" y2="1702.4414"/><text fill="#000000" font-family="sans-serif" font-size="13" lengthAdjust="spacing" textLength="194" x="765" y="1697.6992">result: 0x00000000..4e72a000</text><path d="M1038,1715.4414 L1038,1755.4414 L1129,1755.4414 L1129,1725.4414 L1119,1715.4414 L1038,1715.4414 " fill="#FEFFDD" style="stroke:#181818;stroke-width:0.5;"/><path d="M1119,1715.4414 L1119,1725.4414 L1129,1725.4414 L1119,1715.4414 " fill="#FEFFDD" style="stroke:#181818;stroke-width:0.5;"/><text fill="#000000" font-family="sans-serif" font-size="13" lengthAdjust="spacing" textLength="4" x="1044" y="1733.0098">&#160;</text><text fill="#000000" font-family="sans-serif" font-size="13" lengthAdjust="spacing" textLength="70" x="1044" y="1748.3203">22,920 gas</text><polygon fill="#3471CD" points="395,1839.6152,385,1843.6152,395,1847.6152,391,1843.6152" style="stroke:#3471CD;stroke-width:1.0;"/><line style="stroke:#3471CD;stroke-width:1.0;stroke-dasharray:2.0,2.0;" x1="389" x2="742" y1="1843.6152" y2="1843.6152"/><text fill="#000000" font-family="sans-serif" font-size="13" lengthAdjust="spacing" textLength="55" x="401" y="1777.6309">results: [</text><text fill="#000000" font-family="sans-serif" font-size="13" lengthAdjust="spacing" textLength="36" x="409" y="1792.9414">0: 0x,</text><text fill="#000000" font-family="sans-serif" font-size="13" lengthAdjust="spacing" textLength="36" x="409" y="1808.252">1: 0x,</text><text fill="#000000" font-family="sans-serif" font-size="13" lengthAdjust="spacing" textLength="172" x="409" y="1823.5625">2: 0x00000000..00000001,</text><text fill="#000000" font-family="sans-serif" font-size="13" lengthAdjust="spacing" textLength="170" x="409" y="1838.873">3: 0x00000000..4e72a000]</text><path d="M748,1856.6152 L748,1896.6152 L839,1896.6152 L839,1866.6152 L829,1856.6152 L748,1856.6152 " fill="#FEFFDD" style="stroke:#181818;stroke-width:0.5;"/><path d="M829,1856.6152 L829,1866.6152 L839,1866.6152 L829,1856.6152 " fill="#FEFFDD" style="stroke:#181818;stroke-width:0.5;"/><text fill="#000000" font-family="sans-serif" font-size="13" lengthAdjust="spacing" textLength="4" x="754" y="1874.1836">&#160;</text><text fill="#000000" font-family="sans-serif" font-size="13" lengthAdjust="spacing" textLength="70" x="754" y="1889.4941">12,782 gas</text><line style="stroke:#181818;stroke-width:1.0;" x1="385" x2="395" y1="1908.2363" y2="1904.2363"/><line style="stroke:#181818;stroke-width:1.0;" x1="385" x2="395" y1="1908.2363" y2="1912.2363"/><line style="stroke:#181818;stroke-width:1.0;stroke-dasharray:2.0,2.0;" x1="384" x2="558.5" y1="1908.2363" y2="1908.2363"/><path d="M564,1921.2363 L564,1961.2363 L655,1961.2363 L655,1931.2363 L645,1921.2363 L564,1921.2363 " fill="#FEFFDD" style="stroke:#181818;stroke-width:0.5;"/><path d="M645,1921.2363 L645,1931.2363 L655,1931.2363 L645,1921.2363 " fill="#FEFFDD" style="stroke:#181818;stroke-width:0.5;"/><text fill="#000000" font-family="sans-serif" font-size="13" lengthAdjust="spacing" textLength="4" x="570" y="1938.8047">&#160;</text><text fill="#000000" font-family="sans-serif" font-size="13" lengthAdjust="spacing" textLength="70" x="570" y="1954.1152">10,628 gas</text><polygon fill="#181818" points="118,2045.4102,108,2049.4102,118,2053.4102,114,2049.4102" style="stroke:#181818;stroke-width:1.0;"/><line style="stroke:#181818;stroke-width:1.0;stroke-dasharray:2.0,2.0;" x1="112" x2="378" y1="2049.4102" y2="2049.4102"/><text fill="#000000" font-family="sans-serif" font-size="13" lengthAdjust="spacing" textLength="55" x="124" y="1983.4258">results: [</text><text fill="#000000" font-family="sans-serif" font-size="13" lengthAdjust="spacing" textLength="36" x="132" y="1998.7363">0: 0x,</text><text fill="#000000" font-family="sans-serif" font-size="13" lengthAdjust="spacing" textLength="36" x="132" y="2014.0469">1: 0x,</text><text fill="#000000" font-family="sans-serif" font-size="13" lengthAdjust="spacing" textLength="172" x="132" y="2029.3574">2: 0x00000000..00000001,</text><text fill="#000000" font-family="sans-serif" font-size="13" lengthAdjust="spacing" textLength="170" x="132" y="2044.668">3: 0x00000000..4e72a000]</text><path d="M384,2062.4102 L384,2102.4102 L467,2102.4102 L467,2072.4102 L457,2062.4102 L384,2062.4102 " fill="#FEFFDD" style="stroke:#181818;stroke-width:0.5;"/><path d="M457,2062.4102 L457,2072.4102 L467,2072.4102 L457,2062.4102 " fill="#FEFFDD" style="stroke:#181818;stroke-width:0.5;"/><text fill="#000000" font-family="sans-serif" font-size="13" lengthAdjust="spacing" textLength="4" x="390" y="2079.9785">&#160;</text><text fill="#000000" font-family="sans-serif" font-size="13" lengthAdjust="spacing" textLength="62" x="390" y="2095.2891">6,352 gas</text><path d="M1164,2113.0313 L1164,2245.0313 L1362,2245.0313 L1362,2123.0313 L1352,2113.0313 L1164,2113.0313 " fill="#00FFFF" style="stroke:#181818;stroke-width:0.5;"/><path d="M1352,2113.0313 L1352,2123.0313 L1362,2123.0313 L1352,2113.0313 " fill="#00FFFF" style="stroke:#181818;stroke-width:0.5;"/><text fill="#000000" font-family="sans-serif" font-size="13" lengthAdjust="spacing" textLength="56" x="1170" y="2130.5996">Transfer:</text><text fill="#000000" font-family="sans-serif" font-size="13" lengthAdjust="spacing" textLength="125" x="1178" y="2145.9102">from: 0xCf7E..0Fc9,</text><text fill="#000000" font-family="sans-serif" font-size="13" lengthAdjust="spacing" textLength="114" x="1178" y="2161.2207">to: 0xDc64..F6C9,</text><text fill="#000000" font-family="sans-serif" font-size="13" lengthAdjust="spacing" textLength="169" x="1178" y="2176.5313">value: 10,000,000,000,000</text><text fill="#000000" font-family="sans-serif" font-size="13" lengthAdjust="spacing" textLength="56" x="1170" y="2191.8418">Transfer:</text><text fill="#000000" font-family="sans-serif" font-size="13" lengthAdjust="spacing" textLength="131" x="1178" y="2207.1523">from: 0xDc64..F6C9,</text><text fill="#000000" font-family="sans-serif" font-size="13" lengthAdjust="spacing" textLength="108" x="1178" y="2222.4629">to: 0xCf7E..0Fc9,</text><text fill="#000000" font-family="sans-serif" font-size="13" lengthAdjust="spacing" textLength="169" x="1178" y="2237.7734">value: 10,000,000,000,000</text><!--SRC=[lLPDRziu4BthLn3DfGim0aLAr0S20rtdOm_9Rj5rUsbye2JA5QAGBaMdpRzVKfPesLRTf5ZKW04DnNdpEFCu8rthXeEFecw_iJLu2i4vk6vO-mNSIYOyhs1hNKi1X1GSWhoHnGEW4Dn90K6GW7_v6c242S0uYr26ARYvMtYiq5A1D-XxHTBAzp6cz0rWBR2cDO2tPahNHRrcGjjzKLKalX_5AExsMTCQuEAY9_OfdBEcuMesEtRDIzz7Z97UDI-jCNRz83UQgziwLqmz7oEK1Grzlw95sY5Oqnh72CUkHHLp4xpgNQrfZPshJUXSAZwRNLoybxAvOuAjff3IYXiIZ7BK8LdJ6WP9omSka0LOy5PVVPXZTEnE68jyFmn9qRbRqnh6lIkchUMjNDM5yVI4r1p89wvSFRo_fIXuPYhftHZlzwgs5l6ZX28I1241DzzuxTsnx-2QcpUHZtOhPhTKjNws3lso1Rcj7skTWI0b42UqM_hOyjAia1IcX7gB7Wpv20NWQl6NnqK9B3dFSq8vdpanPA0QZlBsNW3GvSMuczHTzQc3TfqzoesmaH54QFzlNnT6Hpah7XPChRYs_kJTaBlz3SzhmoxOMxjacbcNEA9L6KN8kF4OCuFznxq8S013788LQ-qDg9-OoVF0tdEQFf_Dd4gxyARMD8y30n144CNu4A0Nz5c2qglvdoEWpsSaZ8FvvNBcH9k1jP85Rzkt0-qs0v_jCm38FPdakTFFg_ZAIFYwIE7mqhfjJ- -M56ytZJPO5MjQxfQVMBEn9NGBPPyWbACoBL2wIz2otnDCiZYemJwBu9Tf7DTfe84dQHn8wNzA1ajHb1PvVio2_CQIK8OZccDJ4bB4bJtZScbLYq8OXWUg7UJakMPeBkBGtJ9Wfq0dC5Vk_cTOzp-3d0QGqWCr3nYUQvNdO_5Qu7V5rqsjUDa5uAAG9I_dMo7_811DO1pYLvr0imU-lI8RfKoGvudgQsaNBxlfS4tdwK-wYoM2OHIdBpZnqDuD4SL4Mt7LaL7STFIQ2_tQmDYqr3ZU3pp4y1JN6oLCf0qVdhSpGDMhBnh8QfINUq4mf6YRp57gPcwaZDhmlE-AlzYEEzvadxGRN4Et6mYFo_YIx1tSeTCi8CNu1ScRbbBBjVc2EY4c4y7Cm9I-IXSvQvYPoVzK7V3uF0OkelGqNK8W3704mpI5Y5AOq1WIOoT9D6nPixgSoiS9QM0O4zG5xZ76zt5eRSExRNlAflUSY85XYlU2k3xNTKfa4RkI1ku9JtQ6xTGWqmoM1nHsBSZESHWdU4pXOFDkUjlsQSIJ_7Q-kuyYqtKWYRPqHvzsxWFoZ7tTC6_HNvJC0w1Iyl7WYdWJtSvpisH295Du-xvRlFqOFyPpdtx_0G00]--></g></svg>