<?xml version="1.0" encoding="UTF-8" standalone="no"?>
<!DOCTYPE svg PUBLIC "-//W3C//DTD SVG 1.1//EN"
 "http://www.w3.org/Graphics/SVG/1.1/DTD/svg11.dtd">
<!-- Generated by graphviz version 5.0.0 (20220707.1540)
 -->
<!-- Title: UmlClassDiagram Pages: 1 -->
<svg width="1225pt" height="889pt"
 viewBox="0.00 0.00 1224.71 888.80" xmlns="http://www.w3.org/2000/svg" xmlns:xlink="http://www.w3.org/1999/xlink">
<g id="graph0" class="graph" transform="scale(1 1) rotate(0) translate(4 884.8)">
<title>UmlClassDiagram</title>
<polygon fill="white" stroke="transparent" points="-4,4 -4,-884.8 1220.71,-884.8 1220.71,4 -4,4"/>
<!-- 10 -->
<g id="node1" class="node">
<title>10</title>
<polygon fill="#f2f2f2" stroke="black" points="621.02,-780.3 621.02,-880.3 807.69,-880.3 807.69,-780.3 621.02,-780.3"/>
<text text-anchor="middle" x="714.36" y="-863.7" font-family="Times,serif" font-size="14.00">&lt;&lt;Enum&gt;&gt;</text>
<text text-anchor="middle" x="714.36" y="-846.9" font-family="Times,serif" font-size="14.00">CallType</text>
<text text-anchor="middle" x="714.36" y="-830.1" font-family="Times,serif" font-size="14.00">../src/router/GenericRouter.sol</text>
<polyline fill="none" stroke="black" points="621.02,-821.9 807.69,-821.9 "/>
<text text-anchor="start" x="629.02" y="-805.3" font-family="Times,serif" font-size="14.00">Call: 0</text>
<text text-anchor="start" x="629.02" y="-788.5" font-family="Times,serif" font-size="14.00">Delegate: 1</text>
</g>
<!-- 11 -->
<g id="node2" class="node">
<title>11</title>
<polygon fill="#f2f2f2" stroke="black" points="621.02,-592.9 621.02,-743.3 807.69,-743.3 807.69,-592.9 621.02,-592.9"/>
<text text-anchor="middle" x="714.36" y="-726.7" font-family="Times,serif" font-size="14.00">&lt;&lt;Struct&gt;&gt;</text>
<text text-anchor="middle" x="714.36" y="-709.9" font-family="Times,serif" font-size="14.00">Call</text>
<text text-anchor="middle" x="714.36" y="-693.1" font-family="Times,serif" font-size="14.00">../src/router/GenericRouter.sol</text>
<polyline fill="none" stroke="black" points="621.02,-684.9 807.69,-684.9 "/>
<text text-anchor="start" x="629.02" y="-668.3" font-family="Times,serif" font-size="14.00">target: address</text>
<text text-anchor="start" x="629.02" y="-651.5" font-family="Times,serif" font-size="14.00">callType: CallType</text>
<text text-anchor="start" x="629.02" y="-634.7" font-family="Times,serif" font-size="14.00">results: bool</text>
<text text-anchor="start" x="629.02" y="-617.9" font-family="Times,serif" font-size="14.00">value: uint256</text>
<text text-anchor="start" x="629.02" y="-601.1" font-family="Times,serif" font-size="14.00">data: bytes</text>
</g>
<!-- 11&#45;&gt;10 -->
<g id="edge1" class="edge">
<title>11&#45;&gt;10</title>
<path fill="none" stroke="black" stroke-dasharray="5,2" d="M714.36,-743.57C714.36,-752.4 714.36,-761.32 714.36,-769.9"/>
<polygon fill="black" stroke="black" points="710.86,-770.17 714.36,-780.17 717.86,-770.17 710.86,-770.17"/>
</g>
<!-- 12 -->
<g id="node3" class="node">
<title>12</title>
<polygon fill="#f2f2f2" stroke="black" points="626.88,-313.5 626.88,-555.9 1109.84,-555.9 1109.84,-313.5 626.88,-313.5"/>
<text text-anchor="middle" x="868.36" y="-539.3" font-family="Times,serif" font-size="14.00">GenericRouter</text>
<text text-anchor="middle" x="868.36" y="-522.5" font-family="Times,serif" font-size="14.00">../src/router/GenericRouter.sol</text>
<polyline fill="none" stroke="black" points="626.88,-514.3 1109.84,-514.3 "/>
<text text-anchor="start" x="634.88" y="-497.7" font-family="Times,serif" font-size="14.00">Public:</text>
<text text-anchor="start" x="634.88" y="-480.9" font-family="Times,serif" font-size="14.00"> &#160;&#160;manager: IPoolManager</text>
<polyline fill="none" stroke="black" points="626.88,-472.7 1109.84,-472.7 "/>
<text text-anchor="start" x="634.88" y="-456.1" font-family="Times,serif" font-size="14.00">Internal:</text>
<text text-anchor="start" x="634.88" y="-439.3" font-family="Times,serif" font-size="14.00"> &#160;&#160;&#160;removeSelector(data: bytes): (remainingData: bytes)</text>
<text text-anchor="start" x="634.88" y="-422.5" font-family="Times,serif" font-size="14.00">External:</text>
<text text-anchor="start" x="634.88" y="-405.7" font-family="Times,serif" font-size="14.00"> &#160;&#160;&#160;&lt;&lt;payable&gt;&gt; process(calls: Call[]): (results: bytes[])</text>
<text text-anchor="start" x="634.88" y="-388.9" font-family="Times,serif" font-size="14.00"> &#160;&#160;&#160;lockAcquired(encodedCalls: bytes): bytes</text>
<text text-anchor="start" x="634.88" y="-372.1" font-family="Times,serif" font-size="14.00"> &#160;&#160;&#160;onERC1155Received(address, address, uint256, uint256, bytes): bytes4</text>
<text text-anchor="start" x="634.88" y="-355.3" font-family="Times,serif" font-size="14.00"> &#160;&#160;&#160;onERC1155BatchReceived(address, address, uint256[], uint256[], bytes): bytes4</text>
<text text-anchor="start" x="634.88" y="-338.5" font-family="Times,serif" font-size="14.00">Public:</text>
<text text-anchor="start" x="634.88" y="-321.7" font-family="Times,serif" font-size="14.00"> &#160;&#160;&#160;constructor(_manager: IPoolManager)</text>
</g>
<!-- 12&#45;&gt;10 -->
<g id="edge3" class="edge">
<title>12&#45;&gt;10</title>
<path fill="none" stroke="black" stroke-dasharray="5,2" d="M867.35,-555.98C862.22,-615.79 848.78,-687.2 816.36,-743.8 810.28,-754.4 802.37,-764.27 793.63,-773.26"/>
<polygon fill="black" stroke="black" points="791.17,-770.77 786.47,-780.27 796.06,-775.77 791.17,-770.77"/>
</g>
<!-- 12&#45;&gt;11 -->
<g id="edge2" class="edge">
<title>12&#45;&gt;11</title>
<path fill="none" stroke="black" stroke-dasharray="5,2" d="M788.2,-556.14C781.82,-565.73 775.47,-575.27 769.32,-584.5"/>
<polygon fill="black" stroke="black" points="766.37,-582.63 763.74,-592.89 772.2,-586.51 766.37,-582.63"/>
</g>
<!-- 13 -->
<g id="node4" class="node">
<title>13</title>
<polygon fill="#f2f2f2" stroke="black" points="0,-0.5 0,-276.5 1198.71,-276.5 1198.71,-0.5 0,-0.5"/>
<text text-anchor="middle" x="599.36" y="-259.9" font-family="Times,serif" font-size="14.00">&lt;&lt;Library&gt;&gt;</text>
<text text-anchor="middle" x="599.36" y="-243.1" font-family="Times,serif" font-size="14.00">GenericRouterLibrary</text>
<text text-anchor="middle" x="599.36" y="-226.3" font-family="Times,serif" font-size="14.00">../src/router/GenericRouterLibrary.sol</text>
<polyline fill="none" stroke="black" points="0,-218.1 1198.71,-218.1 "/>
<text text-anchor="start" x="8" y="-201.5" font-family="Times,serif" font-size="14.00">Internal:</text>
<text text-anchor="start" x="8" y="-184.7" font-family="Times,serif" font-size="14.00"> &#160;&#160;MIN_PRICE_LIMIT: uint160</text>
<text text-anchor="start" x="8" y="-167.9" font-family="Times,serif" font-size="14.00"> &#160;&#160;MAX_PRICE_LIMIT: uint160</text>
<text text-anchor="start" x="8" y="-151.1" font-family="Times,serif" font-size="14.00"> &#160;&#160;EMPTY_RESULTS: bytes</text>
<polyline fill="none" stroke="black" points="0,-142.9 1198.71,-142.9 "/>
<text text-anchor="start" x="8" y="-126.3" font-family="Times,serif" font-size="14.00">External:</text>
<text text-anchor="start" x="8" y="-109.5" font-family="Times,serif" font-size="14.00"> &#160;&#160;&#160;addLiquidity(router: GenericRouter, routerCallback: address, manager: IPoolManager, poolKey: PoolKey, sender: address, tickLower: int24, tickUpper: int24, liquidityAmount: int256): (results: bytes[])</text>
<text text-anchor="start" x="8" y="-92.7" font-family="Times,serif" font-size="14.00"> &#160;&#160;&#160;addLiquidityCallback(callData: bytes, resultData: bytes)</text>
<text text-anchor="start" x="8" y="-75.9" font-family="Times,serif" font-size="14.00"> &#160;&#160;&#160;swap(router: GenericRouter, routerCallback: address, manager: IPoolManager, poolKey: PoolKey, swapper: address, recipient: address, fromCurrency: Currency, swapAmount: int256): (results: bytes[])</text>
<text text-anchor="start" x="8" y="-59.1" font-family="Times,serif" font-size="14.00"> &#160;&#160;&#160;swapCallback(callData: bytes, resultData: bytes)</text>
<text text-anchor="start" x="8" y="-42.3" font-family="Times,serif" font-size="14.00"> &#160;&#160;&#160;mint(router: GenericRouter, manager: IPoolManager, currency: Currency, mintAmount: uint256): (results: bytes[])</text>
<text text-anchor="start" x="8" y="-25.5" font-family="Times,serif" font-size="14.00"> &#160;&#160;&#160;removeLiquidity(router: GenericRouter, routerCallback: address, manager: IPoolManager, poolKey: PoolKey, recipient: address, tickLower: int24, tickUpper: int24, liquidityAmount: int256): (results: bytes[])</text>
<text text-anchor="start" x="8" y="-8.7" font-family="Times,serif" font-size="14.00"> &#160;&#160;&#160;removeLiquidityCallback(callData: bytes, resultData: bytes)</text>
</g>
<!-- 13&#45;&gt;10 -->
<g id="edge6" class="edge">
<title>13&#45;&gt;10</title>
<path fill="none" stroke="black" stroke-dasharray="5,2" d="M566.44,-276.6C543.19,-406.19 529.16,-601.45 612.36,-743.8 618.52,-754.35 626.49,-764.18 635.25,-773.15"/>
<polygon fill="black" stroke="black" points="632.83,-775.68 642.43,-780.16 637.72,-770.67 632.83,-775.68"/>
</g>
<!-- 13&#45;&gt;11 -->
<g id="edge5" class="edge">
<title>13&#45;&gt;11</title>
<path fill="none" stroke="black" stroke-dasharray="5,2" d="M583.39,-276.62C578.97,-360.34 583.02,-467.92 618.36,-556.4 622.18,-565.98 627.2,-575.3 632.95,-584.2"/>
<polygon fill="black" stroke="black" points="630.14,-586.3 638.66,-592.61 635.93,-582.37 630.14,-586.3"/>
</g>
<!-- 13&#45;&gt;12 -->
<g id="edge4" class="edge">
<title>13&#45;&gt;12</title>
<path fill="none" stroke="black" stroke-dasharray="5,2" d="M724.8,-276.69C733.75,-286.48 742.75,-296.33 751.65,-306.06"/>
<polygon fill="black" stroke="black" points="749.1,-308.46 758.43,-313.48 754.27,-303.74 749.1,-308.46"/>
</g>
<!-- 13&#45;&gt;13 -->
<g id="edge7" class="edge">
<title>13&#45;&gt;13</title>
<path fill="none" stroke="black" stroke-dasharray="5,2" d="M1198.9,-114.38C1210.38,-121.28 1216.71,-129.32 1216.71,-138.5 1216.71,-145.1 1213.44,-151.1 1207.34,-156.53"/>
<polygon fill="black" stroke="black" points="1204.96,-153.93 1198.9,-162.62 1209.06,-159.6 1204.96,-153.93"/>
</g>
</g>
</svg>
