<?xml version="1.0" encoding="UTF-8" standalone="no"?>
<!DOCTYPE svg PUBLIC "-//W3C//DTD SVG 1.1//EN"
 "http://www.w3.org/Graphics/SVG/1.1/DTD/svg11.dtd">
<!-- Generated by graphviz version 5.0.0 (20220707.1540)
 -->
<!-- Title: UmlClassDiagram Pages: 1 -->
<svg width="810pt" height="489pt"
 viewBox="0.00 0.00 809.99 489.20" xmlns="http://www.w3.org/2000/svg" xmlns:xlink="http://www.w3.org/1999/xlink">
<g id="graph0" class="graph" transform="scale(1 1) rotate(0) translate(4 485.2)">
<title>UmlClassDiagram</title>
<polygon fill="white" stroke="transparent" points="-4,4 -4,-485.2 805.99,-485.2 805.99,4 -4,4"/>
<!-- 0 -->
<g id="node1" class="node">
<title>0</title>
<polygon fill="#f2f2f2" stroke="black" points="0,-171.1 0,-480.7 512.55,-480.7 512.55,-171.1 0,-171.1"/>
<text text-anchor="middle" x="256.27" y="-464.1" font-family="Times,serif" font-size="14.00">&lt;&lt;Abstract&gt;&gt;</text>
<text text-anchor="middle" x="256.27" y="-447.3" font-family="Times,serif" font-size="14.00">BaseFactory</text>
<text text-anchor="middle" x="256.27" y="-430.5" font-family="Times,serif" font-size="14.00">../src/BaseFactory.sol</text>
<polyline fill="none" stroke="black" points="0,-422.3 512.55,-422.3 "/>
<text text-anchor="start" x="8" y="-405.7" font-family="Times,serif" font-size="14.00">Public:</text>
<text text-anchor="start" x="8" y="-388.9" font-family="Times,serif" font-size="14.00"> &#160;&#160;UNISWAP_FLAG_MASK: uint160</text>
<text text-anchor="start" x="8" y="-372.1" font-family="Times,serif" font-size="14.00"> &#160;&#160;TargetPrefix: address</text>
<polyline fill="none" stroke="black" points="0,-363.9 512.55,-363.9 "/>
<text text-anchor="start" x="8" y="-347.3" font-family="Times,serif" font-size="14.00">Internal:</text>
<text text-anchor="start" x="8" y="-330.5" font-family="Times,serif" font-size="14.00"> &#160;&#160;&#160;&lt;&lt;abstract&gt;&gt; _hashBytecode(poolManager: IPoolManager): (bytecodeHash: bytes32)</text>
<text text-anchor="start" x="8" y="-313.7" font-family="Times,serif" font-size="14.00"> &#160;&#160;&#160;_computeHookAddress(poolManager: IPoolManager, salt: bytes32): address</text>
<text text-anchor="start" x="8" y="-296.9" font-family="Times,serif" font-size="14.00"> &#160;&#160;&#160;_isPrefix(_address: address): bool</text>
<text text-anchor="start" x="8" y="-280.1" font-family="Times,serif" font-size="14.00">External:</text>
<text text-anchor="start" x="8" y="-263.3" font-family="Times,serif" font-size="14.00"> &#160;&#160;&#160;mineDeploy(poolManager: IPoolManager): address</text>
<text text-anchor="start" x="8" y="-246.5" font-family="Times,serif" font-size="14.00">Public:</text>
<text text-anchor="start" x="8" y="-229.7" font-family="Times,serif" font-size="14.00"> &#160;&#160;&#160;&lt;&lt;abstract&gt;&gt; deploy(poolManager: IPoolManager, salt: bytes32): address</text>
<text text-anchor="start" x="8" y="-212.9" font-family="Times,serif" font-size="14.00"> &#160;&#160;&#160;constructor(_targetPrefix: address)</text>
<text text-anchor="start" x="8" y="-196.1" font-family="Times,serif" font-size="14.00"> &#160;&#160;&#160;mineDeploy(poolManager: IPoolManager, startSalt: uint256): address</text>
<text text-anchor="start" x="8" y="-179.3" font-family="Times,serif" font-size="14.00"> &#160;&#160;&#160;mineSalt(poolManager: IPoolManager, startSalt: uint256): (salt: bytes32)</text>
</g>
<!-- 9 -->
<g id="node2" class="node">
<title>9</title>
<polygon fill="#f2f2f2" stroke="black" points="530.56,-275.9 530.56,-375.9 801.99,-375.9 801.99,-275.9 530.56,-275.9"/>
<text text-anchor="middle" x="666.27" y="-359.3" font-family="Times,serif" font-size="14.00">NoHook</text>
<text text-anchor="middle" x="666.27" y="-342.5" font-family="Times,serif" font-size="14.00">../src/hooks/NoHook.sol</text>
<polyline fill="none" stroke="black" points="530.56,-334.3 801.99,-334.3 "/>
<text text-anchor="start" x="538.56" y="-317.7" font-family="Times,serif" font-size="14.00">Public:</text>
<text text-anchor="start" x="538.56" y="-300.9" font-family="Times,serif" font-size="14.00"> &#160;&#160;&#160;constructor(_poolManager: IPoolManager)</text>
<text text-anchor="start" x="538.56" y="-284.1" font-family="Times,serif" font-size="14.00"> &#160;&#160;&#160;getHooksCalls(): Hooks.Calls</text>
</g>
<!-- 10 -->
<g id="node3" class="node">
<title>10</title>
<polygon fill="#f2f2f2" stroke="black" points="39.31,-0.5 39.31,-134.1 473.24,-134.1 473.24,-0.5 39.31,-0.5"/>
<text text-anchor="middle" x="256.27" y="-117.5" font-family="Times,serif" font-size="14.00">NoHookFactory</text>
<text text-anchor="middle" x="256.27" y="-100.7" font-family="Times,serif" font-size="14.00">../src/hooks/NoHook.sol</text>
<polyline fill="none" stroke="black" points="39.31,-92.5 473.24,-92.5 "/>
<text text-anchor="start" x="47.31" y="-75.9" font-family="Times,serif" font-size="14.00">Internal:</text>
<text text-anchor="start" x="47.31" y="-59.1" font-family="Times,serif" font-size="14.00"> &#160;&#160;&#160;_hashBytecode(poolManager: IPoolManager): (bytecodeHash: bytes32)</text>
<text text-anchor="start" x="47.31" y="-42.3" font-family="Times,serif" font-size="14.00">Public:</text>
<text text-anchor="start" x="47.31" y="-25.5" font-family="Times,serif" font-size="14.00"> &#160;&#160;&#160;constructor()</text>
<text text-anchor="start" x="47.31" y="-8.7" font-family="Times,serif" font-size="14.00"> &#160;&#160;&#160;deploy(poolManager: IPoolManager, salt: bytes32): address</text>
</g>
<!-- 10&#45;&gt;0 -->
<g id="edge1" class="edge">
<title>10&#45;&gt;0</title>
<path fill="none" stroke="black" d="M256.27,-134.38C256.27,-136.44 256.27,-138.52 256.27,-140.63"/>
<polygon fill="none" stroke="black" points="245.77,-140.77 256.27,-170.77 266.77,-140.77 245.77,-140.77"/>
</g>
<!-- 10&#45;&gt;9 -->
<g id="edge2" class="edge">
<title>10&#45;&gt;9</title>
<path fill="none" stroke="black" stroke-dasharray="5,2" d="M456.2,-134.16C478.92,-144.91 501.13,-157.04 521.27,-170.6 560.35,-196.9 596.64,-235.53 623.14,-267.56"/>
<polygon fill="black" stroke="black" points="620.62,-270.02 629.66,-275.55 626.05,-265.59 620.62,-270.02"/>
</g>
</g>
</svg>
