<?xml version="1.0" encoding="us-ascii" standalone="no"?><svg xmlns="http://www.w3.org/2000/svg" xmlns:xlink="http://www.w3.org/1999/xlink" contentStyleType="text/css" height="821px" preserveAspectRatio="none" style="width:1053px;height:821px;background:#FFFFFF;" version="1.1" viewBox="0 0 1053 821" width="1053px" zoomAndPan="magnify"><defs/><g><text fill="#000000" font-family="sans-serif" font-size="14" font-weight="bold" lengthAdjust="spacing" textLength="416" x="317.75" y="28.5352">Uniswap v4 - Swap ERC1155 Tokens in the Pool Manager</text><rect fill="#FFFFFF" height="646.3477" style="stroke:#181818;stroke-width:1.0;" width="10" x="178" y="150.2871"/><rect fill="#FFFFFF" height="126.6211" style="stroke:#181818;stroke-width:1.0;" width="10" x="183" y="440.7715"/><rect fill="#FFFFFF" height="603.0371" style="stroke:#181818;stroke-width:1.0;" width="10" x="425" y="179.5977"/><rect fill="#FFFFFF" height="516.416" style="stroke:#181818;stroke-width:1.0;" width="10" x="430" y="238.2188"/><rect fill="#FFFFFF" height="559.7266" style="stroke:#181818;stroke-width:1.0;" width="10" x="581.5" y="208.9082"/><rect fill="#FFFFFF" height="143.9316" style="stroke:#181818;stroke-width:1.0;" width="10" x="586.5" y="267.5293"/><rect fill="#FFFFFF" height="83.3105" style="stroke:#181818;stroke-width:1.0;" width="10" x="586.5" y="470.082"/><rect fill="#FFFFFF" height="25" style="stroke:#181818;stroke-width:1.0;" width="10" x="591.5" y="507.3926"/><rect fill="#FFFFFF" height="57.3105" style="stroke:#181818;stroke-width:1.0;" width="10" x="586.5" y="596.7031"/><rect fill="#FFFFFF" height="57.3105" style="stroke:#181818;stroke-width:1.0;" width="10" x="586.5" y="683.3242"/><rect fill="#FFFFFF" height="14" style="stroke:#181818;stroke-width:1.0;" width="10" x="737.5" y="296.8398"/><rect fill="#FFFFFF" height="14" style="stroke:#181818;stroke-width:1.0;" width="10" x="737.5" y="340.1504"/><rect fill="#FFFFFF" height="14" style="stroke:#181818;stroke-width:1.0;" width="10" x="737.5" y="383.4609"/><rect fill="#FFFFFF" height="14" style="stroke:#181818;stroke-width:1.0;" width="10" x="873" y="626.0137"/><rect fill="#FFFFFF" height="14" style="stroke:#181818;stroke-width:1.0;" width="10" x="989" y="712.6348"/><line style="stroke:#181818;stroke-width:0.5;stroke-dasharray:5.0,5.0;" x1="53" x2="53" y1="118.9766" y2="814.6348"/><line style="stroke:#181818;stroke-width:0.5;stroke-dasharray:5.0,5.0;" x1="183" x2="183" y1="118.9766" y2="814.6348"/><line style="stroke:#181818;stroke-width:0.5;stroke-dasharray:5.0,5.0;" x1="430" x2="430" y1="118.9766" y2="814.6348"/><line style="stroke:#181818;stroke-width:0.5;stroke-dasharray:5.0,5.0;" x1="586" x2="586" y1="118.9766" y2="814.6348"/><line style="stroke:#181818;stroke-width:0.5;stroke-dasharray:5.0,5.0;" x1="742.5" x2="742.5" y1="118.9766" y2="814.6348"/><line style="stroke:#181818;stroke-width:0.5;stroke-dasharray:5.0,5.0;" x1="877.5" x2="877.5" y1="118.9766" y2="814.6348"/><line style="stroke:#181818;stroke-width:0.5;stroke-dasharray:5.0,5.0;" x1="993.5" x2="993.5" y1="118.9766" y2="814.6348"/><text fill="#000000" font-family="sans-serif" font-size="14" lengthAdjust="spacing" textLength="90" x="5" y="116.0234">0xf39f..2266</text><ellipse cx="53" cy="50.9883" fill="#E2E2F0" rx="8" ry="8" style="stroke:#181818;stroke-width:0.5;"/><path d="M53,58.9883 L53,85.9883 M40,66.9883 L66,66.9883 M53,85.9883 L40,100.9883 M53,85.9883 L66,100.9883 " fill="none" style="stroke:#181818;stroke-width:0.5;"/><rect fill="#E2E2F0" height="46.9766" rx="2.5" ry="2.5" style="stroke:#181818;stroke-width:0.5;" width="144" x="111" y="71"/><text fill="#000000" font-family="sans-serif" font-size="14" font-style="italic" lengthAdjust="spacing" textLength="130" x="118" y="91.5352">&#171;UniswapV4Caller&#187;</text><text fill="#000000" font-family="sans-serif" font-size="14" lengthAdjust="spacing" textLength="92" x="137" y="108.0234">0x5fc8..5707</text><rect fill="#E2E2F0" height="46.9766" rx="2.5" ry="2.5" style="stroke:#181818;stroke-width:0.5;" width="150" x="355" y="71"/><text fill="#000000" font-family="sans-serif" font-size="14" font-style="italic" lengthAdjust="spacing" textLength="136" x="362" y="91.5352">&#171;UniswapV4Router&#187;</text><text fill="#000000" font-family="sans-serif" font-size="14" lengthAdjust="spacing" textLength="90" x="385" y="108.0234">0xdc64..f6c9</text><rect fill="#E2E2F0" height="63.4648" rx="2.5" ry="2.5" style="stroke:#181818;stroke-width:0.5;" width="143" x="515" y="54.5117"/><text fill="#000000" font-family="sans-serif" font-size="14" font-style="italic" lengthAdjust="spacing" textLength="129" x="522" y="75.0469">&#171;Uniswap v4 Core&#187;</text><text fill="#000000" font-family="sans-serif" font-size="14" font-style="italic" lengthAdjust="spacing" textLength="104" x="534.5" y="91.5352">&#171;PoolManager&#187;</text><text fill="#000000" font-family="sans-serif" font-size="14" lengthAdjust="spacing" textLength="85" x="544" y="108.0234">0xcf7e..0fc9</text><rect fill="#E2E2F0" height="46.9766" rx="2.5" ry="2.5" style="stroke:#181818;stroke-width:0.5;" width="146" x="669.5" y="71"/><text fill="#000000" font-family="sans-serif" font-size="14" font-style="italic" lengthAdjust="spacing" textLength="132" x="676.5" y="91.5352">&#171;DynamicFeeHook&#187;</text><text fill="#000000" font-family="sans-serif" font-size="14" lengthAdjust="spacing" textLength="95" x="695" y="108.0234">0x3cb2..b33e</text><rect fill="#E2E2F0" height="63.4648" rx="2.5" ry="2.5" style="stroke:#181818;stroke-width:0.5;" width="105" x="825.5" y="54.5117"/><text fill="#000000" font-family="sans-serif" font-size="14" font-style="italic" lengthAdjust="spacing" textLength="62" x="847" y="75.0469">&#171;token0&#187;</text><text fill="#000000" font-family="sans-serif" font-size="14" font-style="italic" lengthAdjust="spacing" textLength="88" x="834" y="91.5352">&#171;TestERC20&#187;</text><text fill="#000000" font-family="sans-serif" font-size="14" lengthAdjust="spacing" textLength="91" x="832.5" y="108.0234">0x9fe4..a6e0</text><rect fill="#E2E2F0" height="63.4648" rx="2.5" ry="2.5" style="stroke:#181818;stroke-width:0.5;" width="107" x="940.5" y="54.5117"/><text fill="#000000" font-family="sans-serif" font-size="14" font-style="italic" lengthAdjust="spacing" textLength="62" x="963" y="75.0469">&#171;token1&#187;</text><text fill="#000000" font-family="sans-serif" font-size="14" font-style="italic" lengthAdjust="spacing" textLength="88" x="950" y="91.5352">&#171;TestERC20&#187;</text><text fill="#000000" font-family="sans-serif" font-size="14" lengthAdjust="spacing" textLength="93" x="947.5" y="108.0234">0xe7f1..0512</text><rect fill="#FFFFFF" height="646.3477" style="stroke:#181818;stroke-width:1.0;" width="10" x="178" y="150.2871"/><rect fill="#FFFFFF" height="126.6211" style="stroke:#181818;stroke-width:1.0;" width="10" x="183" y="440.7715"/><rect fill="#FFFFFF" height="603.0371" style="stroke:#181818;stroke-width:1.0;" width="10" x="425" y="179.5977"/><rect fill="#FFFFFF" height="516.416" style="stroke:#181818;stroke-width:1.0;" width="10" x="430" y="238.2188"/><rect fill="#FFFFFF" height="559.7266" style="stroke:#181818;stroke-width:1.0;" width="10" x="581.5" y="208.9082"/><rect fill="#FFFFFF" height="143.9316" style="stroke:#181818;stroke-width:1.0;" width="10" x="586.5" y="267.5293"/><rect fill="#FFFFFF" height="83.3105" style="stroke:#181818;stroke-width:1.0;" width="10" x="586.5" y="470.082"/><rect fill="#FFFFFF" height="25" style="stroke:#181818;stroke-width:1.0;" width="10" x="591.5" y="507.3926"/><rect fill="#FFFFFF" height="57.3105" style="stroke:#181818;stroke-width:1.0;" width="10" x="586.5" y="596.7031"/><rect fill="#FFFFFF" height="57.3105" style="stroke:#181818;stroke-width:1.0;" width="10" x="586.5" y="683.3242"/><rect fill="#FFFFFF" height="14" style="stroke:#181818;stroke-width:1.0;" width="10" x="737.5" y="296.8398"/><rect fill="#FFFFFF" height="14" style="stroke:#181818;stroke-width:1.0;" width="10" x="737.5" y="340.1504"/><rect fill="#FFFFFF" height="14" style="stroke:#181818;stroke-width:1.0;" width="10" x="737.5" y="383.4609"/><rect fill="#FFFFFF" height="14" style="stroke:#181818;stroke-width:1.0;" width="10" x="873" y="626.0137"/><rect fill="#FFFFFF" height="14" style="stroke:#181818;stroke-width:1.0;" width="10" x="989" y="712.6348"/><polygon fill="#181818" points="166,146.2871,176,150.2871,166,154.2871,170,150.2871" style="stroke:#181818;stroke-width:1.0;"/><line style="stroke:#181818;stroke-width:1.0;" x1="53" x2="172" y1="150.2871" y2="150.2871"/><text fill="#000000" font-family="sans-serif" font-size="13" lengthAdjust="spacing" textLength="78" x="60" y="145.5449">0x083ca389</text><polygon fill="#181818" points="413,175.5977,423,179.5977,413,183.5977,417,179.5977" style="stroke:#181818;stroke-width:1.0;"/><line style="stroke:#181818;stroke-width:1.0;" x1="188" x2="419" y1="179.5977" y2="179.5977"/><text fill="#000000" font-family="sans-serif" font-size="13" lengthAdjust="spacing" textLength="49" x="195" y="174.8555">process</text><polygon fill="#181818" points="569.5,204.9082,579.5,208.9082,569.5,212.9082,573.5,208.9082" style="stroke:#181818;stroke-width:1.0;"/><line style="stroke:#181818;stroke-width:1.0;" x1="435" x2="575.5" y1="208.9082" y2="208.9082"/><text fill="#000000" font-family="sans-serif" font-size="13" lengthAdjust="spacing" textLength="27" x="442" y="204.166">lock</text><polygon fill="#181818" points="451,234.2188,441,238.2188,451,242.2188,447,238.2188" style="stroke:#181818;stroke-width:1.0;"/><line style="stroke:#181818;stroke-width:1.0;" x1="445" x2="580.5" y1="238.2188" y2="238.2188"/><text fill="#000000" font-family="sans-serif" font-size="13" lengthAdjust="spacing" textLength="83" x="457" y="233.4766">lockAcquired</text><polygon fill="#181818" points="574.5,263.5293,584.5,267.5293,574.5,271.5293,578.5,267.5293" style="stroke:#181818;stroke-width:1.0;"/><line style="stroke:#181818;stroke-width:1.0;" x1="440" x2="580.5" y1="267.5293" y2="267.5293"/><text fill="#000000" font-family="sans-serif" font-size="13" lengthAdjust="spacing" textLength="32" x="447" y="262.7871">swap</text><polygon fill="#181818" points="725.5,292.8398,735.5,296.8398,725.5,300.8398,729.5,296.8398" style="stroke:#181818;stroke-width:1.0;"/><line style="stroke:#181818;stroke-width:1.0;" x1="596.5" x2="731.5" y1="296.8398" y2="296.8398"/><text fill="#000000" font-family="sans-serif" font-size="13" lengthAdjust="spacing" textLength="72" x="603.5" y="292.0977">beforeSwap</text><polygon fill="#181818" points="607.5,306.8398,597.5,310.8398,607.5,314.8398,603.5,310.8398" style="stroke:#181818;stroke-width:1.0;"/><line style="stroke:#181818;stroke-width:1.0;stroke-dasharray:2.0,2.0;" x1="601.5" x2="741.5" y1="310.8398" y2="310.8398"/><polygon fill="#181818" points="725.5,336.1504,735.5,340.1504,725.5,344.1504,729.5,340.1504" style="stroke:#181818;stroke-width:1.0;"/><line style="stroke:#181818;stroke-width:1.0;" x1="596.5" x2="731.5" y1="340.1504" y2="340.1504"/><text fill="#000000" font-family="sans-serif" font-size="13" lengthAdjust="spacing" textLength="41" x="603.5" y="335.4082">getFee</text><polygon fill="#181818" points="607.5,350.1504,597.5,354.1504,607.5,358.1504,603.5,354.1504" style="stroke:#181818;stroke-width:1.0;"/><line style="stroke:#181818;stroke-width:1.0;stroke-dasharray:2.0,2.0;" x1="601.5" x2="741.5" y1="354.1504" y2="354.1504"/><polygon fill="#181818" points="725.5,379.4609,735.5,383.4609,725.5,387.4609,729.5,383.4609" style="stroke:#181818;stroke-width:1.0;"/><line style="stroke:#181818;stroke-width:1.0;" x1="596.5" x2="731.5" y1="383.4609" y2="383.4609"/><text fill="#000000" font-family="sans-serif" font-size="13" lengthAdjust="spacing" textLength="61" x="603.5" y="378.7188">afterSwap</text><polygon fill="#181818" points="607.5,393.4609,597.5,397.4609,607.5,401.4609,603.5,397.4609" style="stroke:#181818;stroke-width:1.0;"/><line style="stroke:#181818;stroke-width:1.0;stroke-dasharray:2.0,2.0;" x1="601.5" x2="741.5" y1="397.4609" y2="397.4609"/><polygon fill="#181818" points="451,407.4609,441,411.4609,451,415.4609,447,411.4609" style="stroke:#181818;stroke-width:1.0;"/><line style="stroke:#181818;stroke-width:1.0;stroke-dasharray:2.0,2.0;" x1="445" x2="580.5" y1="411.4609" y2="411.4609"/><polygon fill="#181818" points="204,436.7715,194,440.7715,204,444.7715,200,440.7715" style="stroke:#181818;stroke-width:1.0;"/><line style="stroke:#181818;stroke-width:1.0;" x1="198" x2="429" y1="440.7715" y2="440.7715"/><text fill="#000000" font-family="sans-serif" font-size="13" lengthAdjust="spacing" textLength="213" x="210" y="436.0293">transferFromCallerToPoolManager</text><polygon fill="#181818" points="574.5,466.082,584.5,470.082,574.5,474.082,578.5,470.082" style="stroke:#181818;stroke-width:1.0;"/><line style="stroke:#181818;stroke-width:1.0;" x1="193" x2="580.5" y1="470.082" y2="470.082"/><text fill="#000000" font-family="sans-serif" font-size="13" lengthAdjust="spacing" textLength="110" x="200" y="465.3398">safeTransferFrom</text><line style="stroke:#181818;stroke-width:1.0;" x1="596.5" x2="643.5" y1="494.3926" y2="494.3926"/><line style="stroke:#181818;stroke-width:1.0;" x1="643.5" x2="643.5" y1="494.3926" y2="507.3926"/><line style="stroke:#181818;stroke-width:1.0;" x1="602.5" x2="643.5" y1="507.3926" y2="507.3926"/><polygon fill="#181818" points="612.5,503.3926,602.5,507.3926,612.5,511.3926,608.5,507.3926" style="stroke:#181818;stroke-width:1.0;"/><text fill="#000000" font-family="sans-serif" font-size="13" lengthAdjust="spacing" textLength="127" x="608.5" y="489.6504">onERC1155Received</text><line style="stroke:#181818;stroke-width:1.0;stroke-dasharray:2.0,2.0;" x1="601.5" x2="643.5" y1="531.3926" y2="531.3926"/><line style="stroke:#181818;stroke-width:1.0;stroke-dasharray:2.0,2.0;" x1="643.5" x2="643.5" y1="531.3926" y2="544.3926"/><line style="stroke:#181818;stroke-width:1.0;stroke-dasharray:2.0,2.0;" x1="596.5" x2="643.5" y1="544.3926" y2="544.3926"/><polygon fill="#181818" points="606.5,540.3926,596.5,544.3926,606.5,548.3926,602.5,544.3926" style="stroke:#181818;stroke-width:1.0;"/><polygon fill="#181818" points="204,549.3926,194,553.3926,204,557.3926,200,553.3926" style="stroke:#181818;stroke-width:1.0;"/><line style="stroke:#181818;stroke-width:1.0;stroke-dasharray:2.0,2.0;" x1="198" x2="580.5" y1="553.3926" y2="553.3926"/><polygon fill="#181818" points="418,563.3926,428,567.3926,418,571.3926,422,567.3926" style="stroke:#181818;stroke-width:1.0;"/><line style="stroke:#181818;stroke-width:1.0;stroke-dasharray:2.0,2.0;" x1="188" x2="424" y1="567.3926" y2="567.3926"/><polygon fill="#181818" points="574.5,592.7031,584.5,596.7031,574.5,600.7031,578.5,596.7031" style="stroke:#181818;stroke-width:1.0;"/><line style="stroke:#181818;stroke-width:1.0;" x1="440" x2="580.5" y1="596.7031" y2="596.7031"/><text fill="#000000" font-family="sans-serif" font-size="13" lengthAdjust="spacing" textLength="35" x="447" y="591.9609">settle</text><polygon fill="#181818" points="861,622.0137,871,626.0137,861,630.0137,865,626.0137" style="stroke:#181818;stroke-width:1.0;"/><line style="stroke:#181818;stroke-width:1.0;" x1="596.5" x2="867" y1="626.0137" y2="626.0137"/><text fill="#000000" font-family="sans-serif" font-size="13" lengthAdjust="spacing" textLength="63" x="603.5" y="621.2715">balanceOf</text><polygon fill="#181818" points="607.5,636.0137,597.5,640.0137,607.5,644.0137,603.5,640.0137" style="stroke:#181818;stroke-width:1.0;"/><line style="stroke:#181818;stroke-width:1.0;stroke-dasharray:2.0,2.0;" x1="601.5" x2="877" y1="640.0137" y2="640.0137"/><polygon fill="#181818" points="451,650.0137,441,654.0137,451,658.0137,447,654.0137" style="stroke:#181818;stroke-width:1.0;"/><line style="stroke:#181818;stroke-width:1.0;stroke-dasharray:2.0,2.0;" x1="445" x2="580.5" y1="654.0137" y2="654.0137"/><polygon fill="#181818" points="574.5,679.3242,584.5,683.3242,574.5,687.3242,578.5,683.3242" style="stroke:#181818;stroke-width:1.0;"/><line style="stroke:#181818;stroke-width:1.0;" x1="440" x2="580.5" y1="683.3242" y2="683.3242"/><text fill="#000000" font-family="sans-serif" font-size="13" lengthAdjust="spacing" textLength="27" x="447" y="678.582">take</text><polygon fill="#181818" points="977,708.6348,987,712.6348,977,716.6348,981,712.6348" style="stroke:#181818;stroke-width:1.0;"/><line style="stroke:#181818;stroke-width:1.0;" x1="596.5" x2="983" y1="712.6348" y2="712.6348"/><text fill="#000000" font-family="sans-serif" font-size="13" lengthAdjust="spacing" textLength="49" x="603.5" y="707.8926">transfer</text><polygon fill="#181818" points="607.5,722.6348,597.5,726.6348,607.5,730.6348,603.5,726.6348" style="stroke:#181818;stroke-width:1.0;"/><line style="stroke:#181818;stroke-width:1.0;stroke-dasharray:2.0,2.0;" x1="601.5" x2="993" y1="726.6348" y2="726.6348"/><polygon fill="#181818" points="451,736.6348,441,740.6348,451,744.6348,447,740.6348" style="stroke:#181818;stroke-width:1.0;"/><line style="stroke:#181818;stroke-width:1.0;stroke-dasharray:2.0,2.0;" x1="445" x2="580.5" y1="740.6348" y2="740.6348"/><polygon fill="#181818" points="569.5,750.6348,579.5,754.6348,569.5,758.6348,573.5,754.6348" style="stroke:#181818;stroke-width:1.0;"/><line style="stroke:#181818;stroke-width:1.0;stroke-dasharray:2.0,2.0;" x1="435" x2="575.5" y1="754.6348" y2="754.6348"/><polygon fill="#181818" points="446,764.6348,436,768.6348,446,772.6348,442,768.6348" style="stroke:#181818;stroke-width:1.0;"/><line style="stroke:#181818;stroke-width:1.0;stroke-dasharray:2.0,2.0;" x1="440" x2="585.5" y1="768.6348" y2="768.6348"/><polygon fill="#181818" points="199,778.6348,189,782.6348,199,786.6348,195,782.6348" style="stroke:#181818;stroke-width:1.0;"/><line style="stroke:#181818;stroke-width:1.0;stroke-dasharray:2.0,2.0;" x1="193" x2="429" y1="782.6348" y2="782.6348"/><polygon fill="#181818" points="64,792.6348,54,796.6348,64,800.6348,60,796.6348" style="stroke:#181818;stroke-width:1.0;"/><line style="stroke:#181818;stroke-width:1.0;stroke-dasharray:2.0,2.0;" x1="58" x2="182" y1="796.6348" y2="796.6348"/><!--SRC=[bPHDRzim38Rl_XL4xnNy4JiV20mCsOfTXWrfrhkYKAqGLyfa9Sl-_KJFifqccxkJyuPyI96lPQTSXV1Tg_edFy1f0lVmIBy-hLT9akUmCNlKDIWDxWNXcp4LVE6QFwEDNjGEGHhZjkOSHLmuO-4kFijiBXbBqwAu0ru3IH8G7RXrIgW3ruxoSYbcZENJUDhaaIG1osLxcgV9YbSLsh9yY-v4CM5C5cBUe2H93D6rERfRg91JP2oMBKgIH8_I3bR6ObakbpHkE-rrfKniKyQsMOPD9P8aVAMFlpH_LU81yRCn-sjoBj4VdnSODoH94fvqjEsOMc-mTjw3DBx6SIeJFqAUf0rEaaJ0axTur5bmNtPhNa1yZcUPuDbiJjwf4tVOHQFE3O-4zIxWO8t0kkxpGoZgBF3vOQSBg8pOzydX_wXR-aLnIluWVXoLnTsxEv1Z8ns2CGlOelJ6FbuW8HfPT4Uh_q8-e_Dk_Y_5fNy5_zskVGo7wnrobkjQedsmvlNFLTYOmIivOjjWILpYPb1hP64zQ7Jx6LYZG7KQ-jAHbuFSc6Tm3dJ-OpFIFTm6RnUlk1RuLVP42BwhdUFxiMRXxlIxxe4GkptXpSTl]--></g></svg>