<?xml version="1.0" encoding="us-ascii" standalone="no"?><svg xmlns="http://www.w3.org/2000/svg" xmlns:xlink="http://www.w3.org/1999/xlink" contentStyleType="text/css" height="951px" preserveAspectRatio="none" style="width:1114px;height:951px;background:#FFFFFF;" version="1.1" viewBox="0 0 1114 951" width="1114px" zoomAndPan="magnify"><defs/><g><text fill="#000000" font-family="sans-serif" font-size="14" font-weight="bold" lengthAdjust="spacing" textLength="416" x="348" y="28.5352">Uniswap v4 - Swap ERC1155 Tokens in the Pool Manager</text><rect fill="#FFFFFF" height="776.2793" style="stroke:#181818;stroke-width:1.0;" width="10" x="203" y="150.2871"/><rect fill="#FFFFFF" height="126.6211" style="stroke:#181818;stroke-width:1.0;" width="10" x="208" y="470.082"/><rect fill="#809ECB" height="100.6211" style="stroke:#181818;stroke-width:1.0;" width="10" x="208" y="755.9453"/><rect fill="#809ECB" height="732.9688" style="stroke:#181818;stroke-width:1.0;" width="10" x="383.5" y="179.5977"/><rect fill="#809ECB" height="14" style="stroke:#181818;stroke-width:1.0;" width="10" x="388.5" y="712.6348"/><rect fill="#809ECB" height="57.3105" style="stroke:#181818;stroke-width:1.0;" width="10" x="388.5" y="785.2559"/><rect fill="#FFFFFF" height="689.6582" style="stroke:#181818;stroke-width:1.0;" width="10" x="602.5" y="208.9082"/><rect fill="#FFFFFF" height="603.0371" style="stroke:#181818;stroke-width:1.0;" width="10" x="607.5" y="267.5293"/><rect fill="#FFFFFF" height="646.3477" style="stroke:#181818;stroke-width:1.0;" width="10" x="759" y="238.2188"/><rect fill="#FFFFFF" height="143.9316" style="stroke:#181818;stroke-width:1.0;" width="10" x="764" y="296.8398"/><rect fill="#FFFFFF" height="83.3105" style="stroke:#181818;stroke-width:1.0;" width="10" x="764" y="499.3926"/><rect fill="#FFFFFF" height="25" style="stroke:#181818;stroke-width:1.0;" width="10" x="769" y="536.7031"/><rect fill="#FFFFFF" height="57.3105" style="stroke:#181818;stroke-width:1.0;" width="10" x="764" y="626.0137"/><rect fill="#FFFFFF" height="14" style="stroke:#181818;stroke-width:1.0;" width="10" x="764" y="814.5664"/><rect fill="#FFFFFF" height="14" style="stroke:#181818;stroke-width:1.0;" width="10" x="915" y="326.1504"/><rect fill="#FFFFFF" height="14" style="stroke:#181818;stroke-width:1.0;" width="10" x="915" y="369.4609"/><rect fill="#FFFFFF" height="14" style="stroke:#181818;stroke-width:1.0;" width="10" x="915" y="412.7715"/><rect fill="#FFFFFF" height="14" style="stroke:#181818;stroke-width:1.0;" width="10" x="1050.5" y="655.3242"/><line style="stroke:#181818;stroke-width:0.5;stroke-dasharray:5.0,5.0;" x1="53" x2="53" y1="118.9766" y2="944.5664"/><line style="stroke:#181818;stroke-width:0.5;stroke-dasharray:5.0,5.0;" x1="208" x2="208" y1="118.9766" y2="944.5664"/><line style="stroke:#181818;stroke-width:0.5;stroke-dasharray:5.0,5.0;" x1="388" x2="388" y1="118.9766" y2="944.5664"/><line style="stroke:#181818;stroke-width:0.5;stroke-dasharray:5.0,5.0;" x1="607.5" x2="607.5" y1="118.9766" y2="944.5664"/><line style="stroke:#181818;stroke-width:0.5;stroke-dasharray:5.0,5.0;" x1="763.5" x2="763.5" y1="118.9766" y2="944.5664"/><line style="stroke:#181818;stroke-width:0.5;stroke-dasharray:5.0,5.0;" x1="920" x2="920" y1="118.9766" y2="944.5664"/><line style="stroke:#181818;stroke-width:0.5;stroke-dasharray:5.0,5.0;" x1="1055" x2="1055" y1="118.9766" y2="944.5664"/><text fill="#000000" font-family="sans-serif" font-size="14" lengthAdjust="spacing" textLength="90" x="5" y="116.0234">0xf39f..2266</text><ellipse cx="53" cy="50.9883" fill="#E2E2F0" rx="8" ry="8" style="stroke:#181818;stroke-width:0.5;"/><path d="M53,58.9883 L53,85.9883 M40,66.9883 L66,66.9883 M53,85.9883 L40,100.9883 M53,85.9883 L66,100.9883 " fill="none" style="stroke:#181818;stroke-width:0.5;"/><rect fill="#E2E2F0" height="46.9766" rx="2.5" ry="2.5" style="stroke:#181818;stroke-width:0.5;" width="144" x="136" y="71"/><text fill="#000000" font-family="sans-serif" font-size="14" font-style="italic" lengthAdjust="spacing" textLength="130" x="143" y="91.5352">&#171;UniswapV4Caller&#187;</text><text fill="#000000" font-family="sans-serif" font-size="14" lengthAdjust="spacing" textLength="92" x="162" y="108.0234">0x5fc8..5707</text><rect fill="#E2E2F0" height="46.9766" rx="2.5" ry="2.5" style="stroke:#181818;stroke-width:0.5;" width="197" x="290" y="71"/><text fill="#000000" font-family="sans-serif" font-size="14" font-style="italic" lengthAdjust="spacing" textLength="183" x="297" y="91.5352">&#171;UniswapV4RouterLibrary&#187;</text><text fill="#000000" font-family="sans-serif" font-size="14" lengthAdjust="spacing" textLength="92" x="342.5" y="108.0234">0x5fbd..0aa3</text><rect fill="#E2E2F0" height="46.9766" rx="2.5" ry="2.5" style="stroke:#181818;stroke-width:0.5;" width="150" x="532.5" y="71"/><text fill="#000000" font-family="sans-serif" font-size="14" font-style="italic" lengthAdjust="spacing" textLength="136" x="539.5" y="91.5352">&#171;UniswapV4Router&#187;</text><text fill="#000000" font-family="sans-serif" font-size="14" lengthAdjust="spacing" textLength="90" x="562.5" y="108.0234">0xdc64..f6c9</text><rect fill="#E2E2F0" height="63.4648" rx="2.5" ry="2.5" style="stroke:#181818;stroke-width:0.5;" width="143" x="692.5" y="54.5117"/><text fill="#000000" font-family="sans-serif" font-size="14" font-style="italic" lengthAdjust="spacing" textLength="129" x="699.5" y="75.0469">&#171;Uniswap v4 Core&#187;</text><text fill="#000000" font-family="sans-serif" font-size="14" font-style="italic" lengthAdjust="spacing" textLength="104" x="712" y="91.5352">&#171;PoolManager&#187;</text><text fill="#000000" font-family="sans-serif" font-size="14" lengthAdjust="spacing" textLength="85" x="721.5" y="108.0234">0xcf7e..0fc9</text><rect fill="#E2E2F0" height="46.9766" rx="2.5" ry="2.5" style="stroke:#181818;stroke-width:0.5;" width="146" x="847" y="71"/><text fill="#000000" font-family="sans-serif" font-size="14" font-style="italic" lengthAdjust="spacing" textLength="132" x="854" y="91.5352">&#171;DynamicFeeHook&#187;</text><text fill="#000000" font-family="sans-serif" font-size="14" lengthAdjust="spacing" textLength="95" x="872.5" y="108.0234">0x3cb2..b33e</text><rect fill="#E2E2F0" height="63.4648" rx="2.5" ry="2.5" style="stroke:#181818;stroke-width:0.5;" width="105" x="1003" y="54.5117"/><text fill="#000000" font-family="sans-serif" font-size="14" font-style="italic" lengthAdjust="spacing" textLength="62" x="1024.5" y="75.0469">&#171;token0&#187;</text><text fill="#000000" font-family="sans-serif" font-size="14" font-style="italic" lengthAdjust="spacing" textLength="88" x="1011.5" y="91.5352">&#171;TestERC20&#187;</text><text fill="#000000" font-family="sans-serif" font-size="14" lengthAdjust="spacing" textLength="91" x="1010" y="108.0234">0x9fe4..a6e0</text><rect fill="#FFFFFF" height="776.2793" style="stroke:#181818;stroke-width:1.0;" width="10" x="203" y="150.2871"/><rect fill="#FFFFFF" height="126.6211" style="stroke:#181818;stroke-width:1.0;" width="10" x="208" y="470.082"/><rect fill="#809ECB" height="100.6211" style="stroke:#181818;stroke-width:1.0;" width="10" x="208" y="755.9453"/><rect fill="#809ECB" height="732.9688" style="stroke:#181818;stroke-width:1.0;" width="10" x="383.5" y="179.5977"/><rect fill="#809ECB" height="14" style="stroke:#181818;stroke-width:1.0;" width="10" x="388.5" y="712.6348"/><rect fill="#809ECB" height="57.3105" style="stroke:#181818;stroke-width:1.0;" width="10" x="388.5" y="785.2559"/><rect fill="#FFFFFF" height="689.6582" style="stroke:#181818;stroke-width:1.0;" width="10" x="602.5" y="208.9082"/><rect fill="#FFFFFF" height="603.0371" style="stroke:#181818;stroke-width:1.0;" width="10" x="607.5" y="267.5293"/><rect fill="#FFFFFF" height="646.3477" style="stroke:#181818;stroke-width:1.0;" width="10" x="759" y="238.2188"/><rect fill="#FFFFFF" height="143.9316" style="stroke:#181818;stroke-width:1.0;" width="10" x="764" y="296.8398"/><rect fill="#FFFFFF" height="83.3105" style="stroke:#181818;stroke-width:1.0;" width="10" x="764" y="499.3926"/><rect fill="#FFFFFF" height="25" style="stroke:#181818;stroke-width:1.0;" width="10" x="769" y="536.7031"/><rect fill="#FFFFFF" height="57.3105" style="stroke:#181818;stroke-width:1.0;" width="10" x="764" y="626.0137"/><rect fill="#FFFFFF" height="14" style="stroke:#181818;stroke-width:1.0;" width="10" x="764" y="814.5664"/><rect fill="#FFFFFF" height="14" style="stroke:#181818;stroke-width:1.0;" width="10" x="915" y="326.1504"/><rect fill="#FFFFFF" height="14" style="stroke:#181818;stroke-width:1.0;" width="10" x="915" y="369.4609"/><rect fill="#FFFFFF" height="14" style="stroke:#181818;stroke-width:1.0;" width="10" x="915" y="412.7715"/><rect fill="#FFFFFF" height="14" style="stroke:#181818;stroke-width:1.0;" width="10" x="1050.5" y="655.3242"/><polygon fill="#181818" points="191,146.2871,201,150.2871,191,154.2871,195,150.2871" style="stroke:#181818;stroke-width:1.0;"/><line style="stroke:#181818;stroke-width:1.0;" x1="53" x2="197" y1="150.2871" y2="150.2871"/><text fill="#000000" font-family="sans-serif" font-size="13" lengthAdjust="spacing" textLength="131" x="60" y="145.5449">swapManagerTokens</text><line style="stroke:#181818;stroke-width:1.0;" x1="381.5" x2="371.5" y1="179.5977" y2="175.5977"/><line style="stroke:#181818;stroke-width:1.0;" x1="381.5" x2="371.5" y1="179.5977" y2="183.5977"/><line style="stroke:#181818;stroke-width:1.0;" x1="213" x2="382.5" y1="179.5977" y2="179.5977"/><text fill="#000000" font-family="sans-serif" font-size="13" lengthAdjust="spacing" textLength="76" x="220" y="174.8555">0xdf1e1711</text><polygon fill="#3471CD" points="590.5,204.9082,600.5,208.9082,590.5,212.9082,594.5,208.9082" style="stroke:#3471CD;stroke-width:1.0;"/><line style="stroke:#3471CD;stroke-width:1.0;" x1="213" x2="596.5" y1="208.9082" y2="208.9082"/><text fill="#000000" font-family="sans-serif" font-size="13" lengthAdjust="spacing" textLength="49" x="220" y="204.166">process</text><polygon fill="#181818" points="747,234.2188,757,238.2188,747,242.2188,751,238.2188" style="stroke:#181818;stroke-width:1.0;"/><line style="stroke:#181818;stroke-width:1.0;" x1="612.5" x2="753" y1="238.2188" y2="238.2188"/><text fill="#000000" font-family="sans-serif" font-size="13" lengthAdjust="spacing" textLength="27" x="619.5" y="233.4766">lock</text><polygon fill="#181818" points="628.5,263.5293,618.5,267.5293,628.5,271.5293,624.5,267.5293" style="stroke:#181818;stroke-width:1.0;"/><line style="stroke:#181818;stroke-width:1.0;" x1="622.5" x2="758" y1="267.5293" y2="267.5293"/><text fill="#000000" font-family="sans-serif" font-size="13" lengthAdjust="spacing" textLength="83" x="634.5" y="262.7871">lockAcquired</text><polygon fill="#181818" points="752,292.8398,762,296.8398,752,300.8398,756,296.8398" style="stroke:#181818;stroke-width:1.0;"/><line style="stroke:#181818;stroke-width:1.0;" x1="617.5" x2="758" y1="296.8398" y2="296.8398"/><text fill="#000000" font-family="sans-serif" font-size="13" lengthAdjust="spacing" textLength="32" x="624.5" y="292.0977">swap</text><polygon fill="#181818" points="903,322.1504,913,326.1504,903,330.1504,907,326.1504" style="stroke:#181818;stroke-width:1.0;"/><line style="stroke:#181818;stroke-width:1.0;" x1="774" x2="909" y1="326.1504" y2="326.1504"/><text fill="#000000" font-family="sans-serif" font-size="13" lengthAdjust="spacing" textLength="72" x="781" y="321.4082">beforeSwap</text><polygon fill="#181818" points="785,336.1504,775,340.1504,785,344.1504,781,340.1504" style="stroke:#181818;stroke-width:1.0;"/><line style="stroke:#181818;stroke-width:1.0;stroke-dasharray:2.0,2.0;" x1="779" x2="919" y1="340.1504" y2="340.1504"/><polygon fill="#181818" points="903,365.4609,913,369.4609,903,373.4609,907,369.4609" style="stroke:#181818;stroke-width:1.0;"/><line style="stroke:#181818;stroke-width:1.0;" x1="774" x2="909" y1="369.4609" y2="369.4609"/><text fill="#000000" font-family="sans-serif" font-size="13" lengthAdjust="spacing" textLength="41" x="781" y="364.7188">getFee</text><polygon fill="#181818" points="785,379.4609,775,383.4609,785,387.4609,781,383.4609" style="stroke:#181818;stroke-width:1.0;"/><line style="stroke:#181818;stroke-width:1.0;stroke-dasharray:2.0,2.0;" x1="779" x2="919" y1="383.4609" y2="383.4609"/><polygon fill="#181818" points="903,408.7715,913,412.7715,903,416.7715,907,412.7715" style="stroke:#181818;stroke-width:1.0;"/><line style="stroke:#181818;stroke-width:1.0;" x1="774" x2="909" y1="412.7715" y2="412.7715"/><text fill="#000000" font-family="sans-serif" font-size="13" lengthAdjust="spacing" textLength="61" x="781" y="408.0293">afterSwap</text><polygon fill="#181818" points="785,422.7715,775,426.7715,785,430.7715,781,426.7715" style="stroke:#181818;stroke-width:1.0;"/><line style="stroke:#181818;stroke-width:1.0;stroke-dasharray:2.0,2.0;" x1="779" x2="919" y1="426.7715" y2="426.7715"/><polygon fill="#181818" points="628.5,436.7715,618.5,440.7715,628.5,444.7715,624.5,440.7715" style="stroke:#181818;stroke-width:1.0;"/><line style="stroke:#181818;stroke-width:1.0;stroke-dasharray:2.0,2.0;" x1="622.5" x2="758" y1="440.7715" y2="440.7715"/><polygon fill="#181818" points="229,466.082,219,470.082,229,474.082,225,470.082" style="stroke:#181818;stroke-width:1.0;"/><line style="stroke:#181818;stroke-width:1.0;" x1="223" x2="606.5" y1="470.082" y2="470.082"/><text fill="#000000" font-family="sans-serif" font-size="13" lengthAdjust="spacing" textLength="213" x="235" y="465.3398">transferFromCallerToPoolManager</text><polygon fill="#181818" points="752,495.3926,762,499.3926,752,503.3926,756,499.3926" style="stroke:#181818;stroke-width:1.0;"/><line style="stroke:#181818;stroke-width:1.0;" x1="218" x2="758" y1="499.3926" y2="499.3926"/><text fill="#000000" font-family="sans-serif" font-size="13" lengthAdjust="spacing" textLength="110" x="225" y="494.6504">safeTransferFrom</text><line style="stroke:#181818;stroke-width:1.0;" x1="774" x2="821" y1="523.7031" y2="523.7031"/><line style="stroke:#181818;stroke-width:1.0;" x1="821" x2="821" y1="523.7031" y2="536.7031"/><line style="stroke:#181818;stroke-width:1.0;" x1="780" x2="821" y1="536.7031" y2="536.7031"/><polygon fill="#181818" points="790,532.7031,780,536.7031,790,540.7031,786,536.7031" style="stroke:#181818;stroke-width:1.0;"/><text fill="#000000" font-family="sans-serif" font-size="13" lengthAdjust="spacing" textLength="127" x="786" y="518.9609">onERC1155Received</text><line style="stroke:#181818;stroke-width:1.0;stroke-dasharray:2.0,2.0;" x1="779" x2="821" y1="560.7031" y2="560.7031"/><line style="stroke:#181818;stroke-width:1.0;stroke-dasharray:2.0,2.0;" x1="821" x2="821" y1="560.7031" y2="573.7031"/><line style="stroke:#181818;stroke-width:1.0;stroke-dasharray:2.0,2.0;" x1="774" x2="821" y1="573.7031" y2="573.7031"/><polygon fill="#181818" points="784,569.7031,774,573.7031,784,577.7031,780,573.7031" style="stroke:#181818;stroke-width:1.0;"/><polygon fill="#181818" points="229,578.7031,219,582.7031,229,586.7031,225,582.7031" style="stroke:#181818;stroke-width:1.0;"/><line style="stroke:#181818;stroke-width:1.0;stroke-dasharray:2.0,2.0;" x1="223" x2="758" y1="582.7031" y2="582.7031"/><polygon fill="#181818" points="595.5,592.7031,605.5,596.7031,595.5,600.7031,599.5,596.7031" style="stroke:#181818;stroke-width:1.0;"/><line style="stroke:#181818;stroke-width:1.0;stroke-dasharray:2.0,2.0;" x1="213" x2="601.5" y1="596.7031" y2="596.7031"/><polygon fill="#181818" points="752,622.0137,762,626.0137,752,630.0137,756,626.0137" style="stroke:#181818;stroke-width:1.0;"/><line style="stroke:#181818;stroke-width:1.0;" x1="617.5" x2="758" y1="626.0137" y2="626.0137"/><text fill="#000000" font-family="sans-serif" font-size="13" lengthAdjust="spacing" textLength="35" x="624.5" y="621.2715">settle</text><polygon fill="#181818" points="1038.5,651.3242,1048.5,655.3242,1038.5,659.3242,1042.5,655.3242" style="stroke:#181818;stroke-width:1.0;"/><line style="stroke:#181818;stroke-width:1.0;" x1="774" x2="1044.5" y1="655.3242" y2="655.3242"/><text fill="#000000" font-family="sans-serif" font-size="13" lengthAdjust="spacing" textLength="63" x="781" y="650.582">balanceOf</text><polygon fill="#181818" points="785,665.3242,775,669.3242,785,673.3242,781,669.3242" style="stroke:#181818;stroke-width:1.0;"/><line style="stroke:#181818;stroke-width:1.0;stroke-dasharray:2.0,2.0;" x1="779" x2="1054.5" y1="669.3242" y2="669.3242"/><polygon fill="#181818" points="628.5,679.3242,618.5,683.3242,628.5,687.3242,624.5,683.3242" style="stroke:#181818;stroke-width:1.0;"/><line style="stroke:#181818;stroke-width:1.0;stroke-dasharray:2.0,2.0;" x1="622.5" x2="758" y1="683.3242" y2="683.3242"/><line style="stroke:#181818;stroke-width:1.0;" x1="399.5" x2="409.5" y1="712.6348" y2="708.6348"/><line style="stroke:#181818;stroke-width:1.0;" x1="399.5" x2="409.5" y1="712.6348" y2="716.6348"/><line style="stroke:#181818;stroke-width:1.0;" x1="398.5" x2="606.5" y1="712.6348" y2="712.6348"/><text fill="#000000" font-family="sans-serif" font-size="13" lengthAdjust="spacing" textLength="96" x="415.5" y="707.8926">removeSelector</text><line style="stroke:#181818;stroke-width:1.0;" x1="605.5" x2="595.5" y1="726.6348" y2="722.6348"/><line style="stroke:#181818;stroke-width:1.0;" x1="605.5" x2="595.5" y1="726.6348" y2="730.6348"/><line style="stroke:#181818;stroke-width:1.0;stroke-dasharray:2.0,2.0;" x1="393.5" x2="606.5" y1="726.6348" y2="726.6348"/><line style="stroke:#181818;stroke-width:1.0;" x1="219" x2="229" y1="755.9453" y2="751.9453"/><line style="stroke:#181818;stroke-width:1.0;" x1="219" x2="229" y1="755.9453" y2="759.9453"/><line style="stroke:#181818;stroke-width:1.0;" x1="218" x2="606.5" y1="755.9453" y2="755.9453"/><text fill="#000000" font-family="sans-serif" font-size="13" lengthAdjust="spacing" textLength="185" x="235" y="751.2031">swapManagerTokensCallback</text><line style="stroke:#3471CD;stroke-width:1.0;" x1="399.5" x2="409.5" y1="785.2559" y2="781.2559"/><line style="stroke:#3471CD;stroke-width:1.0;" x1="399.5" x2="409.5" y1="785.2559" y2="789.2559"/><line style="stroke:#3471CD;stroke-width:1.0;stroke-dasharray:2.0,2.0;" x1="398.5" x2="606.5" y1="785.2559" y2="785.2559"/><text fill="#000000" font-family="sans-serif" font-size="13" lengthAdjust="spacing" textLength="185" x="415.5" y="780.5137">swapManagerTokensCallback</text><polygon fill="#3471CD" points="752,810.5664,762,814.5664,752,818.5664,756,814.5664" style="stroke:#3471CD;stroke-width:1.0;"/><line style="stroke:#3471CD;stroke-width:1.0;" x1="617.5" x2="758" y1="814.5664" y2="814.5664"/><text fill="#000000" font-family="sans-serif" font-size="13" lengthAdjust="spacing" textLength="29" x="624.5" y="809.8242">mint</text><polygon fill="#3471CD" points="628.5,824.5664,618.5,828.5664,628.5,832.5664,624.5,828.5664" style="stroke:#3471CD;stroke-width:1.0;"/><line style="stroke:#3471CD;stroke-width:1.0;stroke-dasharray:2.0,2.0;" x1="622.5" x2="758" y1="828.5664" y2="828.5664"/><line style="stroke:#3471CD;stroke-width:1.0;" x1="605.5" x2="595.5" y1="842.5664" y2="838.5664"/><line style="stroke:#3471CD;stroke-width:1.0;" x1="605.5" x2="595.5" y1="842.5664" y2="846.5664"/><line style="stroke:#3471CD;stroke-width:1.0;stroke-dasharray:2.0,2.0;" x1="393.5" x2="606.5" y1="842.5664" y2="842.5664"/><line style="stroke:#181818;stroke-width:1.0;" x1="605.5" x2="595.5" y1="856.5664" y2="852.5664"/><line style="stroke:#181818;stroke-width:1.0;" x1="605.5" x2="595.5" y1="856.5664" y2="860.5664"/><line style="stroke:#181818;stroke-width:1.0;stroke-dasharray:2.0,2.0;" x1="213" x2="606.5" y1="856.5664" y2="856.5664"/><polygon fill="#181818" points="747,866.5664,757,870.5664,747,874.5664,751,870.5664" style="stroke:#181818;stroke-width:1.0;"/><line style="stroke:#181818;stroke-width:1.0;stroke-dasharray:2.0,2.0;" x1="612.5" x2="753" y1="870.5664" y2="870.5664"/><polygon fill="#181818" points="623.5,880.5664,613.5,884.5664,623.5,888.5664,619.5,884.5664" style="stroke:#181818;stroke-width:1.0;"/><line style="stroke:#181818;stroke-width:1.0;stroke-dasharray:2.0,2.0;" x1="617.5" x2="763" y1="884.5664" y2="884.5664"/><polygon fill="#3471CD" points="224,894.5664,214,898.5664,224,902.5664,220,898.5664" style="stroke:#3471CD;stroke-width:1.0;"/><line style="stroke:#3471CD;stroke-width:1.0;stroke-dasharray:2.0,2.0;" x1="218" x2="606.5" y1="898.5664" y2="898.5664"/><line style="stroke:#181818;stroke-width:1.0;" x1="214" x2="224" y1="912.5664" y2="908.5664"/><line style="stroke:#181818;stroke-width:1.0;" x1="214" x2="224" y1="912.5664" y2="916.5664"/><line style="stroke:#181818;stroke-width:1.0;stroke-dasharray:2.0,2.0;" x1="213" x2="387.5" y1="912.5664" y2="912.5664"/><polygon fill="#181818" points="64,922.5664,54,926.5664,64,930.5664,60,926.5664" style="stroke:#181818;stroke-width:1.0;"/><line style="stroke:#181818;stroke-width:1.0;stroke-dasharray:2.0,2.0;" x1="58" x2="207" y1="926.5664" y2="926.5664"/><!--SRC=[bLJBRjim4BphAuZaR46oR2aM306jag275YrijvSY1ufQ9eHbqgLeD_dxSXqzc2f-v2IFkJExd25fXAc0_9IY_aktP3yX8xB4NtUBF0odKx9IQv0r4PAO9o0_bAh8Dohf8sZlIPH0k5AcKC-UHvbHcbm5ppoQSTyVZ-FuYj2Q84H0l2tLHZ2nfT9WtPIp6z-V9a5og4E8WCpdpJI_9ZcjAj1PDgGMfUy7b4ODjIWHkDI5sXdGNqMXgNuPAfGidlW-Zzdie80GmL1XI6Ky0TkSDrI427egkfWh3LasdwDXZLz3fOWLOzyleWWEIWWHMANR5qatWjq3V55gFMJEEDZnQGp1WOaGWMKQp2l0rYkeZKrnR87dTIcCiixfbE2qpNIlEMEAOayDT4LUbyieopgdKs8jv264IHYwd2Q7wvjWTfT_ThY_hwD94kQt3rddTKgsMZ6edQRjajVbOSTj3Kv9fTYwBsx_zxe4Hguu5dzYVtP2Gtbn1pJaJ8SsfPGKm6tAopUKTjNJO7PQ7c4-Wh7HVfH5kJsFfzir7tTpVTf6KrbpqFTQRLvlraevv_Dqzgv9bCFAqJfZM4zKidbL5i10xDrSEkRRZRop7sSECFRjEjEzlHesBbfHoU0xxndjul5sxf7Ni55xM485-DITEFRlonozT9X5GTsZtVdUAlPIparoPxj8zBynUr7dTlRsReGqbmPqmUSV]--></g></svg>