<?xml version="1.0" encoding="us-ascii" standalone="no"?><svg xmlns="http://www.w3.org/2000/svg" xmlns:xlink="http://www.w3.org/1999/xlink" contentStyleType="text/css" height="821px" preserveAspectRatio="none" style="width:1078px;height:821px;background:#FFFFFF;" version="1.1" viewBox="0 0 1078 821" width="1078px" zoomAndPan="magnify"><defs/><g><text fill="#000000" font-family="sans-serif" font-size="14" font-weight="bold" lengthAdjust="spacing" textLength="416" x="330.25" y="28.5352">Uniswap v4 - Swap ERC1155 Tokens in the Pool Manager</text><rect fill="#FFFFFF" height="646.3477" style="stroke:#181818;stroke-width:1.0;" width="10" x="203" y="150.2871"/><rect fill="#FFFFFF" height="126.6211" style="stroke:#181818;stroke-width:1.0;" width="10" x="208" y="440.7715"/><rect fill="#FFFFFF" height="603.0371" style="stroke:#181818;stroke-width:1.0;" width="10" x="450" y="179.5977"/><rect fill="#FFFFFF" height="516.416" style="stroke:#181818;stroke-width:1.0;" width="10" x="455" y="238.2188"/><rect fill="#FFFFFF" height="559.7266" style="stroke:#181818;stroke-width:1.0;" width="10" x="606.5" y="208.9082"/><rect fill="#FFFFFF" height="143.9316" style="stroke:#181818;stroke-width:1.0;" width="10" x="611.5" y="267.5293"/><rect fill="#FFFFFF" height="83.3105" style="stroke:#181818;stroke-width:1.0;" width="10" x="611.5" y="470.082"/><rect fill="#FFFFFF" height="25" style="stroke:#181818;stroke-width:1.0;" width="10" x="616.5" y="507.3926"/><rect fill="#FFFFFF" height="57.3105" style="stroke:#181818;stroke-width:1.0;" width="10" x="611.5" y="596.7031"/><rect fill="#FFFFFF" height="57.3105" style="stroke:#181818;stroke-width:1.0;" width="10" x="611.5" y="683.3242"/><rect fill="#FFFFFF" height="14" style="stroke:#181818;stroke-width:1.0;" width="10" x="762.5" y="296.8398"/><rect fill="#FFFFFF" height="14" style="stroke:#181818;stroke-width:1.0;" width="10" x="762.5" y="340.1504"/><rect fill="#FFFFFF" height="14" style="stroke:#181818;stroke-width:1.0;" width="10" x="762.5" y="383.4609"/><rect fill="#FFFFFF" height="14" style="stroke:#181818;stroke-width:1.0;" width="10" x="898" y="626.0137"/><rect fill="#FFFFFF" height="14" style="stroke:#181818;stroke-width:1.0;" width="10" x="1014" y="712.6348"/><line style="stroke:#181818;stroke-width:0.5;stroke-dasharray:5.0,5.0;" x1="53" x2="53" y1="118.9766" y2="814.6348"/><line style="stroke:#181818;stroke-width:0.5;stroke-dasharray:5.0,5.0;" x1="208" x2="208" y1="118.9766" y2="814.6348"/><line style="stroke:#181818;stroke-width:0.5;stroke-dasharray:5.0,5.0;" x1="455" x2="455" y1="118.9766" y2="814.6348"/><line style="stroke:#181818;stroke-width:0.5;stroke-dasharray:5.0,5.0;" x1="611" x2="611" y1="118.9766" y2="814.6348"/><line style="stroke:#181818;stroke-width:0.5;stroke-dasharray:5.0,5.0;" x1="767.5" x2="767.5" y1="118.9766" y2="814.6348"/><line style="stroke:#181818;stroke-width:0.5;stroke-dasharray:5.0,5.0;" x1="902.5" x2="902.5" y1="118.9766" y2="814.6348"/><line style="stroke:#181818;stroke-width:0.5;stroke-dasharray:5.0,5.0;" x1="1018.5" x2="1018.5" y1="118.9766" y2="814.6348"/><text fill="#000000" font-family="sans-serif" font-size="14" lengthAdjust="spacing" textLength="90" x="5" y="116.0234">0xf39f..2266</text><ellipse cx="53" cy="50.9883" fill="#E2E2F0" rx="8" ry="8" style="stroke:#181818;stroke-width:0.5;"/><path d="M53,58.9883 L53,85.9883 M40,66.9883 L66,66.9883 M53,85.9883 L40,100.9883 M53,85.9883 L66,100.9883 " fill="none" style="stroke:#181818;stroke-width:0.5;"/><rect fill="#E2E2F0" height="46.9766" rx="2.5" ry="2.5" style="stroke:#181818;stroke-width:0.5;" width="144" x="136" y="71"/><text fill="#000000" font-family="sans-serif" font-size="14" font-style="italic" lengthAdjust="spacing" textLength="130" x="143" y="91.5352">&#171;UniswapV4Caller&#187;</text><text fill="#000000" font-family="sans-serif" font-size="14" lengthAdjust="spacing" textLength="92" x="162" y="108.0234">0x5fc8..5707</text><rect fill="#E2E2F0" height="46.9766" rx="2.5" ry="2.5" style="stroke:#181818;stroke-width:0.5;" width="150" x="380" y="71"/><text fill="#000000" font-family="sans-serif" font-size="14" font-style="italic" lengthAdjust="spacing" textLength="136" x="387" y="91.5352">&#171;UniswapV4Router&#187;</text><text fill="#000000" font-family="sans-serif" font-size="14" lengthAdjust="spacing" textLength="90" x="410" y="108.0234">0xdc64..f6c9</text><rect fill="#E2E2F0" height="63.4648" rx="2.5" ry="2.5" style="stroke:#181818;stroke-width:0.5;" width="143" x="540" y="54.5117"/><text fill="#000000" font-family="sans-serif" font-size="14" font-style="italic" lengthAdjust="spacing" textLength="129" x="547" y="75.0469">&#171;Uniswap v4 Core&#187;</text><text fill="#000000" font-family="sans-serif" font-size="14" font-style="italic" lengthAdjust="spacing" textLength="104" x="559.5" y="91.5352">&#171;PoolManager&#187;</text><text fill="#000000" font-family="sans-serif" font-size="14" lengthAdjust="spacing" textLength="85" x="569" y="108.0234">0xcf7e..0fc9</text><rect fill="#E2E2F0" height="46.9766" rx="2.5" ry="2.5" style="stroke:#181818;stroke-width:0.5;" width="146" x="694.5" y="71"/><text fill="#000000" font-family="sans-serif" font-size="14" font-style="italic" lengthAdjust="spacing" textLength="132" x="701.5" y="91.5352">&#171;DynamicFeeHook&#187;</text><text fill="#000000" font-family="sans-serif" font-size="14" lengthAdjust="spacing" textLength="95" x="720" y="108.0234">0x3cb2..b33e</text><rect fill="#E2E2F0" height="63.4648" rx="2.5" ry="2.5" style="stroke:#181818;stroke-width:0.5;" width="105" x="850.5" y="54.5117"/><text fill="#000000" font-family="sans-serif" font-size="14" font-style="italic" lengthAdjust="spacing" textLength="62" x="872" y="75.0469">&#171;token0&#187;</text><text fill="#000000" font-family="sans-serif" font-size="14" font-style="italic" lengthAdjust="spacing" textLength="88" x="859" y="91.5352">&#171;TestERC20&#187;</text><text fill="#000000" font-family="sans-serif" font-size="14" lengthAdjust="spacing" textLength="91" x="857.5" y="108.0234">0x9fe4..a6e0</text><rect fill="#E2E2F0" height="63.4648" rx="2.5" ry="2.5" style="stroke:#181818;stroke-width:0.5;" width="107" x="965.5" y="54.5117"/><text fill="#000000" font-family="sans-serif" font-size="14" font-style="italic" lengthAdjust="spacing" textLength="62" x="988" y="75.0469">&#171;token1&#187;</text><text fill="#000000" font-family="sans-serif" font-size="14" font-style="italic" lengthAdjust="spacing" textLength="88" x="975" y="91.5352">&#171;TestERC20&#187;</text><text fill="#000000" font-family="sans-serif" font-size="14" lengthAdjust="spacing" textLength="93" x="972.5" y="108.0234">0xe7f1..0512</text><rect fill="#FFFFFF" height="646.3477" style="stroke:#181818;stroke-width:1.0;" width="10" x="203" y="150.2871"/><rect fill="#FFFFFF" height="126.6211" style="stroke:#181818;stroke-width:1.0;" width="10" x="208" y="440.7715"/><rect fill="#FFFFFF" height="603.0371" style="stroke:#181818;stroke-width:1.0;" width="10" x="450" y="179.5977"/><rect fill="#FFFFFF" height="516.416" style="stroke:#181818;stroke-width:1.0;" width="10" x="455" y="238.2188"/><rect fill="#FFFFFF" height="559.7266" style="stroke:#181818;stroke-width:1.0;" width="10" x="606.5" y="208.9082"/><rect fill="#FFFFFF" height="143.9316" style="stroke:#181818;stroke-width:1.0;" width="10" x="611.5" y="267.5293"/><rect fill="#FFFFFF" height="83.3105" style="stroke:#181818;stroke-width:1.0;" width="10" x="611.5" y="470.082"/><rect fill="#FFFFFF" height="25" style="stroke:#181818;stroke-width:1.0;" width="10" x="616.5" y="507.3926"/><rect fill="#FFFFFF" height="57.3105" style="stroke:#181818;stroke-width:1.0;" width="10" x="611.5" y="596.7031"/><rect fill="#FFFFFF" height="57.3105" style="stroke:#181818;stroke-width:1.0;" width="10" x="611.5" y="683.3242"/><rect fill="#FFFFFF" height="14" style="stroke:#181818;stroke-width:1.0;" width="10" x="762.5" y="296.8398"/><rect fill="#FFFFFF" height="14" style="stroke:#181818;stroke-width:1.0;" width="10" x="762.5" y="340.1504"/><rect fill="#FFFFFF" height="14" style="stroke:#181818;stroke-width:1.0;" width="10" x="762.5" y="383.4609"/><rect fill="#FFFFFF" height="14" style="stroke:#181818;stroke-width:1.0;" width="10" x="898" y="626.0137"/><rect fill="#FFFFFF" height="14" style="stroke:#181818;stroke-width:1.0;" width="10" x="1014" y="712.6348"/><polygon fill="#181818" points="191,146.2871,201,150.2871,191,154.2871,195,150.2871" style="stroke:#181818;stroke-width:1.0;"/><line style="stroke:#181818;stroke-width:1.0;" x1="53" x2="197" y1="150.2871" y2="150.2871"/><text fill="#000000" font-family="sans-serif" font-size="13" lengthAdjust="spacing" textLength="131" x="60" y="145.5449">swapManagerTokens</text><polygon fill="#181818" points="438,175.5977,448,179.5977,438,183.5977,442,179.5977" style="stroke:#181818;stroke-width:1.0;"/><line style="stroke:#181818;stroke-width:1.0;" x1="213" x2="444" y1="179.5977" y2="179.5977"/><text fill="#000000" font-family="sans-serif" font-size="13" lengthAdjust="spacing" textLength="49" x="220" y="174.8555">process</text><polygon fill="#181818" points="594.5,204.9082,604.5,208.9082,594.5,212.9082,598.5,208.9082" style="stroke:#181818;stroke-width:1.0;"/><line style="stroke:#181818;stroke-width:1.0;" x1="460" x2="600.5" y1="208.9082" y2="208.9082"/><text fill="#000000" font-family="sans-serif" font-size="13" lengthAdjust="spacing" textLength="27" x="467" y="204.166">lock</text><polygon fill="#181818" points="476,234.2188,466,238.2188,476,242.2188,472,238.2188" style="stroke:#181818;stroke-width:1.0;"/><line style="stroke:#181818;stroke-width:1.0;" x1="470" x2="605.5" y1="238.2188" y2="238.2188"/><text fill="#000000" font-family="sans-serif" font-size="13" lengthAdjust="spacing" textLength="83" x="482" y="233.4766">lockAcquired</text><polygon fill="#181818" points="599.5,263.5293,609.5,267.5293,599.5,271.5293,603.5,267.5293" style="stroke:#181818;stroke-width:1.0;"/><line style="stroke:#181818;stroke-width:1.0;" x1="465" x2="605.5" y1="267.5293" y2="267.5293"/><text fill="#000000" font-family="sans-serif" font-size="13" lengthAdjust="spacing" textLength="32" x="472" y="262.7871">swap</text><polygon fill="#181818" points="750.5,292.8398,760.5,296.8398,750.5,300.8398,754.5,296.8398" style="stroke:#181818;stroke-width:1.0;"/><line style="stroke:#181818;stroke-width:1.0;" x1="621.5" x2="756.5" y1="296.8398" y2="296.8398"/><text fill="#000000" font-family="sans-serif" font-size="13" lengthAdjust="spacing" textLength="72" x="628.5" y="292.0977">beforeSwap</text><polygon fill="#181818" points="632.5,306.8398,622.5,310.8398,632.5,314.8398,628.5,310.8398" style="stroke:#181818;stroke-width:1.0;"/><line style="stroke:#181818;stroke-width:1.0;stroke-dasharray:2.0,2.0;" x1="626.5" x2="766.5" y1="310.8398" y2="310.8398"/><polygon fill="#181818" points="750.5,336.1504,760.5,340.1504,750.5,344.1504,754.5,340.1504" style="stroke:#181818;stroke-width:1.0;"/><line style="stroke:#181818;stroke-width:1.0;" x1="621.5" x2="756.5" y1="340.1504" y2="340.1504"/><text fill="#000000" font-family="sans-serif" font-size="13" lengthAdjust="spacing" textLength="41" x="628.5" y="335.4082">getFee</text><polygon fill="#181818" points="632.5,350.1504,622.5,354.1504,632.5,358.1504,628.5,354.1504" style="stroke:#181818;stroke-width:1.0;"/><line style="stroke:#181818;stroke-width:1.0;stroke-dasharray:2.0,2.0;" x1="626.5" x2="766.5" y1="354.1504" y2="354.1504"/><polygon fill="#181818" points="750.5,379.4609,760.5,383.4609,750.5,387.4609,754.5,383.4609" style="stroke:#181818;stroke-width:1.0;"/><line style="stroke:#181818;stroke-width:1.0;" x1="621.5" x2="756.5" y1="383.4609" y2="383.4609"/><text fill="#000000" font-family="sans-serif" font-size="13" lengthAdjust="spacing" textLength="61" x="628.5" y="378.7188">afterSwap</text><polygon fill="#181818" points="632.5,393.4609,622.5,397.4609,632.5,401.4609,628.5,397.4609" style="stroke:#181818;stroke-width:1.0;"/><line style="stroke:#181818;stroke-width:1.0;stroke-dasharray:2.0,2.0;" x1="626.5" x2="766.5" y1="397.4609" y2="397.4609"/><polygon fill="#181818" points="476,407.4609,466,411.4609,476,415.4609,472,411.4609" style="stroke:#181818;stroke-width:1.0;"/><line style="stroke:#181818;stroke-width:1.0;stroke-dasharray:2.0,2.0;" x1="470" x2="605.5" y1="411.4609" y2="411.4609"/><polygon fill="#181818" points="229,436.7715,219,440.7715,229,444.7715,225,440.7715" style="stroke:#181818;stroke-width:1.0;"/><line style="stroke:#181818;stroke-width:1.0;" x1="223" x2="454" y1="440.7715" y2="440.7715"/><text fill="#000000" font-family="sans-serif" font-size="13" lengthAdjust="spacing" textLength="213" x="235" y="436.0293">transferFromCallerToPoolManager</text><polygon fill="#181818" points="599.5,466.082,609.5,470.082,599.5,474.082,603.5,470.082" style="stroke:#181818;stroke-width:1.0;"/><line style="stroke:#181818;stroke-width:1.0;" x1="218" x2="605.5" y1="470.082" y2="470.082"/><text fill="#000000" font-family="sans-serif" font-size="13" lengthAdjust="spacing" textLength="110" x="225" y="465.3398">safeTransferFrom</text><line style="stroke:#181818;stroke-width:1.0;" x1="621.5" x2="668.5" y1="494.3926" y2="494.3926"/><line style="stroke:#181818;stroke-width:1.0;" x1="668.5" x2="668.5" y1="494.3926" y2="507.3926"/><line style="stroke:#181818;stroke-width:1.0;" x1="627.5" x2="668.5" y1="507.3926" y2="507.3926"/><polygon fill="#181818" points="637.5,503.3926,627.5,507.3926,637.5,511.3926,633.5,507.3926" style="stroke:#181818;stroke-width:1.0;"/><text fill="#000000" font-family="sans-serif" font-size="13" lengthAdjust="spacing" textLength="127" x="633.5" y="489.6504">onERC1155Received</text><line style="stroke:#181818;stroke-width:1.0;stroke-dasharray:2.0,2.0;" x1="626.5" x2="668.5" y1="531.3926" y2="531.3926"/><line style="stroke:#181818;stroke-width:1.0;stroke-dasharray:2.0,2.0;" x1="668.5" x2="668.5" y1="531.3926" y2="544.3926"/><line style="stroke:#181818;stroke-width:1.0;stroke-dasharray:2.0,2.0;" x1="621.5" x2="668.5" y1="544.3926" y2="544.3926"/><polygon fill="#181818" points="631.5,540.3926,621.5,544.3926,631.5,548.3926,627.5,544.3926" style="stroke:#181818;stroke-width:1.0;"/><polygon fill="#181818" points="229,549.3926,219,553.3926,229,557.3926,225,553.3926" style="stroke:#181818;stroke-width:1.0;"/><line style="stroke:#181818;stroke-width:1.0;stroke-dasharray:2.0,2.0;" x1="223" x2="605.5" y1="553.3926" y2="553.3926"/><polygon fill="#181818" points="443,563.3926,453,567.3926,443,571.3926,447,567.3926" style="stroke:#181818;stroke-width:1.0;"/><line style="stroke:#181818;stroke-width:1.0;stroke-dasharray:2.0,2.0;" x1="213" x2="449" y1="567.3926" y2="567.3926"/><polygon fill="#181818" points="599.5,592.7031,609.5,596.7031,599.5,600.7031,603.5,596.7031" style="stroke:#181818;stroke-width:1.0;"/><line style="stroke:#181818;stroke-width:1.0;" x1="465" x2="605.5" y1="596.7031" y2="596.7031"/><text fill="#000000" font-family="sans-serif" font-size="13" lengthAdjust="spacing" textLength="35" x="472" y="591.9609">settle</text><polygon fill="#181818" points="886,622.0137,896,626.0137,886,630.0137,890,626.0137" style="stroke:#181818;stroke-width:1.0;"/><line style="stroke:#181818;stroke-width:1.0;" x1="621.5" x2="892" y1="626.0137" y2="626.0137"/><text fill="#000000" font-family="sans-serif" font-size="13" lengthAdjust="spacing" textLength="63" x="628.5" y="621.2715">balanceOf</text><polygon fill="#181818" points="632.5,636.0137,622.5,640.0137,632.5,644.0137,628.5,640.0137" style="stroke:#181818;stroke-width:1.0;"/><line style="stroke:#181818;stroke-width:1.0;stroke-dasharray:2.0,2.0;" x1="626.5" x2="902" y1="640.0137" y2="640.0137"/><polygon fill="#181818" points="476,650.0137,466,654.0137,476,658.0137,472,654.0137" style="stroke:#181818;stroke-width:1.0;"/><line style="stroke:#181818;stroke-width:1.0;stroke-dasharray:2.0,2.0;" x1="470" x2="605.5" y1="654.0137" y2="654.0137"/><polygon fill="#181818" points="599.5,679.3242,609.5,683.3242,599.5,687.3242,603.5,683.3242" style="stroke:#181818;stroke-width:1.0;"/><line style="stroke:#181818;stroke-width:1.0;" x1="465" x2="605.5" y1="683.3242" y2="683.3242"/><text fill="#000000" font-family="sans-serif" font-size="13" lengthAdjust="spacing" textLength="27" x="472" y="678.582">take</text><polygon fill="#181818" points="1002,708.6348,1012,712.6348,1002,716.6348,1006,712.6348" style="stroke:#181818;stroke-width:1.0;"/><line style="stroke:#181818;stroke-width:1.0;" x1="621.5" x2="1008" y1="712.6348" y2="712.6348"/><text fill="#000000" font-family="sans-serif" font-size="13" lengthAdjust="spacing" textLength="49" x="628.5" y="707.8926">transfer</text><polygon fill="#181818" points="632.5,722.6348,622.5,726.6348,632.5,730.6348,628.5,726.6348" style="stroke:#181818;stroke-width:1.0;"/><line style="stroke:#181818;stroke-width:1.0;stroke-dasharray:2.0,2.0;" x1="626.5" x2="1018" y1="726.6348" y2="726.6348"/><polygon fill="#181818" points="476,736.6348,466,740.6348,476,744.6348,472,740.6348" style="stroke:#181818;stroke-width:1.0;"/><line style="stroke:#181818;stroke-width:1.0;stroke-dasharray:2.0,2.0;" x1="470" x2="605.5" y1="740.6348" y2="740.6348"/><polygon fill="#181818" points="594.5,750.6348,604.5,754.6348,594.5,758.6348,598.5,754.6348" style="stroke:#181818;stroke-width:1.0;"/><line style="stroke:#181818;stroke-width:1.0;stroke-dasharray:2.0,2.0;" x1="460" x2="600.5" y1="754.6348" y2="754.6348"/><polygon fill="#181818" points="471,764.6348,461,768.6348,471,772.6348,467,768.6348" style="stroke:#181818;stroke-width:1.0;"/><line style="stroke:#181818;stroke-width:1.0;stroke-dasharray:2.0,2.0;" x1="465" x2="610.5" y1="768.6348" y2="768.6348"/><polygon fill="#181818" points="224,778.6348,214,782.6348,224,786.6348,220,782.6348" style="stroke:#181818;stroke-width:1.0;"/><line style="stroke:#181818;stroke-width:1.0;stroke-dasharray:2.0,2.0;" x1="218" x2="454" y1="782.6348" y2="782.6348"/><polygon fill="#181818" points="64,792.6348,54,796.6348,64,800.6348,60,796.6348" style="stroke:#181818;stroke-width:1.0;"/><line style="stroke:#181818;stroke-width:1.0;stroke-dasharray:2.0,2.0;" x1="58" x2="207" y1="796.6348" y2="796.6348"/><!--SRC=[bPH1Szem48Nl-XKxkKTZ6smAmtYcGvlffTCEeRaBiKeqE1AL1Kt_VRMEPPj0w_Ha7jfFgxVFijU-GlXXTFrB7E0qXLkufr-VrwiqpNFOs3sQ6hG1_uJmtTeAlWeZ7j6n9xr3KDRwhNrXJ4Xl7TmaBseoLvndML7SWAY190bW1-6ybleWZAUwNCaFdEUpPDRKaIG1osLxceVfIbGLkh9yY-vaCULS5NBUe2H93D6rFVfhg5Gpv3nHBKgIH8_I35RMOLakbsItTNkvqqHkCywtamasEv4a4NRwzDk8Potl4BzOkxyavmh3yKM1IKEI9158JzDEgFK6Qnyoo99B76Sg3HRoD6jmaYGYdhx5MHV1RTcDUG5ajZNt6Z95g4_2OrV4kb026QUyW8Ep4kj1VLnYNHAXFevs0PML-xuu_i-wsPzjJiKVvS-ZThXxTmVoCj8XvhE0BQgGx_qP4bUPGtzqvY_a8_eGwlzIGeKtyT_jsiVGN1-KTyBK2jsTiy-lDs9Z1s_cI6o38Gc5cy5U8mFhGMlQhy4Q9UhJC9UEF3TonS_W7EZ3DsUaUxmK8IvH2IFnc-g9kFYkTbxinvh5AzJFkWVYsdM7Lnz_0000]--></g></svg>