<?xml version="1.0" encoding="UTF-8" standalone="no"?>
<!DOCTYPE svg PUBLIC "-//W3C//DTD SVG 1.1//EN"
 "http://www.w3.org/Graphics/SVG/1.1/DTD/svg11.dtd">
<!-- Generated by graphviz version 5.0.0 (20220707.1540)
 -->
<!-- Title: UmlClassDiagram Pages: 1 -->
<svg width="1691pt" height="1336pt"
 viewBox="0.00 0.00 1691.27 1336.20" xmlns="http://www.w3.org/2000/svg" xmlns:xlink="http://www.w3.org/1999/xlink">
<g id="graph0" class="graph" transform="scale(1 1) rotate(0) translate(4 1332.2)">
<title>UmlClassDiagram</title>
<polygon fill="white" stroke="transparent" points="-4,4 -4,-1332.2 1687.27,-1332.2 1687.27,4 -4,4"/>
<!-- 10 -->
<g id="node1" class="node">
<title>10</title>
<polygon fill="#f2f2f2" stroke="black" points="0,-0.5 0,-343.7 801.75,-343.7 801.75,-0.5 0,-0.5"/>
<text text-anchor="middle" x="400.88" y="-327.1" font-family="Times,serif" font-size="14.00">UniswapV4Caller</text>
<text text-anchor="middle" x="400.88" y="-310.3" font-family="Times,serif" font-size="14.00">../src/router/UniswapV4Caller.sol</text>
<polyline fill="none" stroke="black" points="0,-302.1 801.75,-302.1 "/>
<text text-anchor="start" x="8" y="-285.5" font-family="Times,serif" font-size="14.00">Public:</text>
<text text-anchor="start" x="8" y="-268.7" font-family="Times,serif" font-size="14.00"> &#160;&#160;router: UniswapV4Router</text>
<text text-anchor="start" x="8" y="-251.9" font-family="Times,serif" font-size="14.00"> &#160;&#160;manager: IPoolManager</text>
<polyline fill="none" stroke="black" points="0,-243.7 801.75,-243.7 "/>
<text text-anchor="start" x="8" y="-227.1" font-family="Times,serif" font-size="14.00">External:</text>
<text text-anchor="start" x="8" y="-210.3" font-family="Times,serif" font-size="14.00"> &#160;&#160;&#160;addLiquidity(poolKey: PoolKey, sender: address, tickLower: int24, tickUpper: int24, liquidityAmount: int256): (results: bytes[])</text>
<text text-anchor="start" x="8" y="-193.5" font-family="Times,serif" font-size="14.00"> &#160;&#160;&#160;addLiquidityCallback(callData: bytes, resultData: bytes)</text>
<text text-anchor="start" x="8" y="-176.7" font-family="Times,serif" font-size="14.00"> &#160;&#160;&#160;removeLiquidity(poolKey: PoolKey, recipient: address, tickLower: int24, tickUpper: int24, liquidityAmount: int256): (results: bytes[])</text>
<text text-anchor="start" x="8" y="-159.9" font-family="Times,serif" font-size="14.00"> &#160;&#160;&#160;removeLiquidityCallback(callData: bytes, resultData: bytes)</text>
<text text-anchor="start" x="8" y="-143.1" font-family="Times,serif" font-size="14.00"> &#160;&#160;&#160;swap(poolKey: PoolKey, swapper: address, recipient: address, fromCurrency: Currency, swapAmount: int256): (results: bytes[])</text>
<text text-anchor="start" x="8" y="-126.3" font-family="Times,serif" font-size="14.00"> &#160;&#160;&#160;swapCallback(callData: bytes, resultData: bytes)</text>
<text text-anchor="start" x="8" y="-109.5" font-family="Times,serif" font-size="14.00"> &#160;&#160;&#160;managerSwap(poolKey: PoolKey, swapper: address, recipient: address, fromCurrency: Currency, swapAmount: int256): (results: bytes[])</text>
<text text-anchor="start" x="8" y="-92.7" font-family="Times,serif" font-size="14.00"> &#160;&#160;&#160;managerSwapCallback(callData: bytes, resultData: bytes)</text>
<text text-anchor="start" x="8" y="-75.9" font-family="Times,serif" font-size="14.00"> &#160;&#160;&#160;deposit(token: address, sender: address, recipient: address, amount: uint256): (results: bytes[])</text>
<text text-anchor="start" x="8" y="-59.1" font-family="Times,serif" font-size="14.00"> &#160;&#160;&#160;withdraw(token: address, owner: address, recipient: address, amount: uint256): (results: bytes[])</text>
<text text-anchor="start" x="8" y="-42.3" font-family="Times,serif" font-size="14.00"> &#160;&#160;&#160;flashLoan(token: address, amount: uint256, callbackTarget: address, callbackType: CallType, callbackData: bytes): (results: bytes[])</text>
<text text-anchor="start" x="8" y="-25.5" font-family="Times,serif" font-size="14.00">Public:</text>
<text text-anchor="start" x="8" y="-8.7" font-family="Times,serif" font-size="14.00"> &#160;&#160;&#160;constructor(_router: UniswapV4Router, _manager: IPoolManager)</text>
</g>
<!-- 11 -->
<g id="node2" class="node">
<title>11</title>
<polygon fill="#f2f2f2" stroke="black" points="701.25,-1227.7 701.25,-1327.7 910.5,-1327.7 910.5,-1227.7 701.25,-1227.7"/>
<text text-anchor="middle" x="805.88" y="-1311.1" font-family="Times,serif" font-size="14.00">&lt;&lt;Enum&gt;&gt;</text>
<text text-anchor="middle" x="805.88" y="-1294.3" font-family="Times,serif" font-size="14.00">CallType</text>
<text text-anchor="middle" x="805.88" y="-1277.5" font-family="Times,serif" font-size="14.00">../src/router/UniswapV4Router.sol</text>
<polyline fill="none" stroke="black" points="701.25,-1269.3 910.5,-1269.3 "/>
<text text-anchor="start" x="709.25" y="-1252.7" font-family="Times,serif" font-size="14.00">Call: 0</text>
<text text-anchor="start" x="709.25" y="-1235.9" font-family="Times,serif" font-size="14.00">Delegate: 1</text>
</g>
<!-- 10&#45;&gt;11 -->
<g id="edge3" class="edge">
<title>10&#45;&gt;11</title>
<path fill="none" stroke="black" stroke-dasharray="5,2" d="M383.07,-343.94C382.2,-356.2 381.44,-368.38 380.88,-380.2 367.34,-661.23 327.5,-774.03 489.88,-1003.8 552.99,-1093.11 651.46,-1171.93 721.7,-1221.61"/>
<polygon fill="black" stroke="black" points="719.92,-1224.64 730.12,-1227.53 723.95,-1218.92 719.92,-1224.64"/>
</g>
<!-- 13 -->
<g id="node4" class="node">
<title>13</title>
<polygon fill="#f2f2f2" stroke="black" points="498.39,-760.9 498.39,-1003.3 981.36,-1003.3 981.36,-760.9 498.39,-760.9"/>
<text text-anchor="middle" x="739.88" y="-986.7" font-family="Times,serif" font-size="14.00">UniswapV4Router</text>
<text text-anchor="middle" x="739.88" y="-969.9" font-family="Times,serif" font-size="14.00">../src/router/UniswapV4Router.sol</text>
<polyline fill="none" stroke="black" points="498.39,-961.7 981.36,-961.7 "/>
<text text-anchor="start" x="506.39" y="-945.1" font-family="Times,serif" font-size="14.00">Public:</text>
<text text-anchor="start" x="506.39" y="-928.3" font-family="Times,serif" font-size="14.00"> &#160;&#160;manager: IPoolManager</text>
<polyline fill="none" stroke="black" points="498.39,-920.1 981.36,-920.1 "/>
<text text-anchor="start" x="506.39" y="-903.5" font-family="Times,serif" font-size="14.00">Internal:</text>
<text text-anchor="start" x="506.39" y="-886.7" font-family="Times,serif" font-size="14.00"> &#160;&#160;&#160;removeSelector(data: bytes): (remainingData: bytes)</text>
<text text-anchor="start" x="506.39" y="-869.9" font-family="Times,serif" font-size="14.00">External:</text>
<text text-anchor="start" x="506.39" y="-853.1" font-family="Times,serif" font-size="14.00"> &#160;&#160;&#160;&lt;&lt;payable&gt;&gt; process(calls: Call[]): (results: bytes[])</text>
<text text-anchor="start" x="506.39" y="-836.3" font-family="Times,serif" font-size="14.00"> &#160;&#160;&#160;lockAcquired(encodedCalls: bytes): bytes</text>
<text text-anchor="start" x="506.39" y="-819.5" font-family="Times,serif" font-size="14.00"> &#160;&#160;&#160;onERC1155Received(address, address, uint256, uint256, bytes): bytes4</text>
<text text-anchor="start" x="506.39" y="-802.7" font-family="Times,serif" font-size="14.00"> &#160;&#160;&#160;onERC1155BatchReceived(address, address, uint256[], uint256[], bytes): bytes4</text>
<text text-anchor="start" x="506.39" y="-785.9" font-family="Times,serif" font-size="14.00">Public:</text>
<text text-anchor="start" x="506.39" y="-769.1" font-family="Times,serif" font-size="14.00"> &#160;&#160;&#160;constructor(_manager: IPoolManager)</text>
</g>
<!-- 10&#45;&gt;13 -->
<g id="edge2" class="edge">
<title>10&#45;&gt;13</title>
<path fill="none" stroke="black" d="M388.03,-343.94C381.01,-482.22 380.49,-663.62 419.88,-724.4 437.86,-752.16 462.29,-775.16 489.69,-794.17"/>
<polygon fill="black" stroke="black" points="488.04,-797.28 498.29,-799.95 491.94,-791.46 488.04,-797.28"/>
</g>
<!-- 14 -->
<g id="node5" class="node">
<title>14</title>
<polygon fill="#f2f2f2" stroke="black" points="428.48,-380.7 428.48,-723.9 1665.27,-723.9 1665.27,-380.7 428.48,-380.7"/>
<text text-anchor="middle" x="1046.88" y="-707.3" font-family="Times,serif" font-size="14.00">&lt;&lt;Library&gt;&gt;</text>
<text text-anchor="middle" x="1046.88" y="-690.5" font-family="Times,serif" font-size="14.00">UniswapV4RouterLibrary</text>
<text text-anchor="middle" x="1046.88" y="-673.7" font-family="Times,serif" font-size="14.00">../src/router/UniswapV4RouterLibrary.sol</text>
<polyline fill="none" stroke="black" points="428.48,-665.5 1665.27,-665.5 "/>
<text text-anchor="start" x="436.48" y="-648.9" font-family="Times,serif" font-size="14.00">Internal:</text>
<text text-anchor="start" x="436.48" y="-632.1" font-family="Times,serif" font-size="14.00"> &#160;&#160;MIN_PRICE_LIMIT: uint160</text>
<text text-anchor="start" x="436.48" y="-615.3" font-family="Times,serif" font-size="14.00"> &#160;&#160;MAX_PRICE_LIMIT: uint160</text>
<text text-anchor="start" x="436.48" y="-598.5" font-family="Times,serif" font-size="14.00"> &#160;&#160;EMPTY_RESULTS: bytes</text>
<polyline fill="none" stroke="black" points="428.48,-590.3 1665.27,-590.3 "/>
<text text-anchor="start" x="436.48" y="-573.7" font-family="Times,serif" font-size="14.00">External:</text>
<text text-anchor="start" x="436.48" y="-556.9" font-family="Times,serif" font-size="14.00"> &#160;&#160;&#160;addLiquidity(router: UniswapV4Router, routerCallback: address, manager: IPoolManager, poolKey: PoolKey, sender: address, tickLower: int24, tickUpper: int24, liquidityAmount: int256): (results: bytes[])</text>
<text text-anchor="start" x="436.48" y="-540.1" font-family="Times,serif" font-size="14.00"> &#160;&#160;&#160;addLiquidityCallback(callData: bytes, resultData: bytes)</text>
<text text-anchor="start" x="436.48" y="-523.3" font-family="Times,serif" font-size="14.00"> &#160;&#160;&#160;removeLiquidity(router: UniswapV4Router, routerCallback: address, manager: IPoolManager, poolKey: PoolKey, recipient: address, tickLower: int24, tickUpper: int24, liquidityAmount: int256): (results: bytes[])</text>
<text text-anchor="start" x="436.48" y="-506.5" font-family="Times,serif" font-size="14.00"> &#160;&#160;&#160;removeLiquidityCallback(callData: bytes, resultData: bytes)</text>
<text text-anchor="start" x="436.48" y="-489.7" font-family="Times,serif" font-size="14.00"> &#160;&#160;&#160;swap(router: UniswapV4Router, routerCallback: address, manager: IPoolManager, poolKey: PoolKey, swapper: address, recipient: address, fromCurrency: Currency, swapAmount: int256): (results: bytes[])</text>
<text text-anchor="start" x="436.48" y="-472.9" font-family="Times,serif" font-size="14.00"> &#160;&#160;&#160;swapCallback(callData: bytes, resultData: bytes)</text>
<text text-anchor="start" x="436.48" y="-456.1" font-family="Times,serif" font-size="14.00"> &#160;&#160;&#160;managerSwap(router: UniswapV4Router, routerCallback: address, manager: IPoolManager, poolKey: PoolKey, swapper: address, recipient: address, fromCurrency: Currency, swapAmount: int256): (results: bytes[])</text>
<text text-anchor="start" x="436.48" y="-439.3" font-family="Times,serif" font-size="14.00"> &#160;&#160;&#160;managerSwapCallback(callData: bytes, resultData: bytes)</text>
<text text-anchor="start" x="436.48" y="-422.5" font-family="Times,serif" font-size="14.00"> &#160;&#160;&#160;deposit(router: UniswapV4Router, manager: IPoolManager, token: address, sender: address, recipient: address, amount: uint256): (results: bytes[])</text>
<text text-anchor="start" x="436.48" y="-405.7" font-family="Times,serif" font-size="14.00"> &#160;&#160;&#160;withdraw(router: UniswapV4Router, manager: IPoolManager, token: address, owner: address, recipient: address, amount: uint256): (results: bytes[])</text>
<text text-anchor="start" x="436.48" y="-388.9" font-family="Times,serif" font-size="14.00"> &#160;&#160;&#160;flashLoan(router: UniswapV4Router, manager: IPoolManager, token: address, amount: uint256, callbackTarget: address, callbackType: CallType, callbackData: bytes): (results: bytes[])</text>
</g>
<!-- 10&#45;&gt;14 -->
<g id="edge1" class="edge">
<title>10&#45;&gt;14</title>
<path fill="none" stroke="black" stroke-dasharray="5,2" d="M692.69,-343.94C710.58,-354.42 728.59,-364.96 746.52,-375.46"/>
<polygon fill="black" stroke="black" points="744.91,-378.57 755.31,-380.6 748.44,-372.53 744.91,-378.57"/>
</g>
<!-- 12 -->
<g id="node3" class="node">
<title>12</title>
<polygon fill="#f2f2f2" stroke="black" points="768.25,-1040.3 768.25,-1190.7 977.5,-1190.7 977.5,-1040.3 768.25,-1040.3"/>
<text text-anchor="middle" x="872.88" y="-1174.1" font-family="Times,serif" font-size="14.00">&lt;&lt;Struct&gt;&gt;</text>
<text text-anchor="middle" x="872.88" y="-1157.3" font-family="Times,serif" font-size="14.00">Call</text>
<text text-anchor="middle" x="872.88" y="-1140.5" font-family="Times,serif" font-size="14.00">../src/router/UniswapV4Router.sol</text>
<polyline fill="none" stroke="black" points="768.25,-1132.3 977.5,-1132.3 "/>
<text text-anchor="start" x="776.25" y="-1115.7" font-family="Times,serif" font-size="14.00">target: address</text>
<text text-anchor="start" x="776.25" y="-1098.9" font-family="Times,serif" font-size="14.00">callType: CallType</text>
<text text-anchor="start" x="776.25" y="-1082.1" font-family="Times,serif" font-size="14.00">results: bool</text>
<text text-anchor="start" x="776.25" y="-1065.3" font-family="Times,serif" font-size="14.00">value: uint256</text>
<text text-anchor="start" x="776.25" y="-1048.5" font-family="Times,serif" font-size="14.00">data: bytes</text>
</g>
<!-- 12&#45;&gt;11 -->
<g id="edge4" class="edge">
<title>12&#45;&gt;11</title>
<path fill="none" stroke="black" stroke-dasharray="5,2" d="M841.73,-1190.97C837.91,-1200.09 834.06,-1209.31 830.36,-1218.15"/>
<polygon fill="black" stroke="black" points="827.05,-1217 826.42,-1227.57 833.51,-1219.7 827.05,-1217"/>
</g>
<!-- 13&#45;&gt;11 -->
<g id="edge6" class="edge">
<title>13&#45;&gt;11</title>
<path fill="none" stroke="black" stroke-dasharray="5,2" d="M735.15,-1003.32C735.93,-1061.15 741.38,-1130.85 758.88,-1191.2 761.53,-1200.38 765.3,-1209.66 769.57,-1218.56"/>
<polygon fill="black" stroke="black" points="766.53,-1220.32 774.16,-1227.67 772.78,-1217.17 766.53,-1220.32"/>
</g>
<!-- 13&#45;&gt;12 -->
<g id="edge5" class="edge">
<title>13&#45;&gt;12</title>
<path fill="none" stroke="black" stroke-dasharray="5,2" d="M809.1,-1003.54C814.5,-1012.93 819.87,-1022.28 825.08,-1031.34"/>
<polygon fill="black" stroke="black" points="822.21,-1033.37 830.22,-1040.29 828.27,-1029.88 822.21,-1033.37"/>
</g>
<!-- 14&#45;&gt;11 -->
<g id="edge9" class="edge">
<title>14&#45;&gt;11</title>
<path fill="none" stroke="black" stroke-dasharray="5,2" d="M1077.06,-723.93C1091.86,-863.77 1088.53,-1059.42 986.88,-1191.2 969.77,-1213.38 945.49,-1230.07 920.25,-1242.52"/>
<polygon fill="black" stroke="black" points="918.47,-1239.49 910.92,-1246.92 921.46,-1245.82 918.47,-1239.49"/>
</g>
<!-- 14&#45;&gt;12 -->
<g id="edge8" class="edge">
<title>14&#45;&gt;12</title>
<path fill="none" stroke="black" stroke-dasharray="5,2" d="M1030.85,-724.14C1018.95,-840.8 1002.64,-978.64 989.88,-1003.8 984.84,-1013.73 978.53,-1023.26 971.48,-1032.25"/>
<polygon fill="black" stroke="black" points="968.74,-1030.07 965.1,-1040.02 974.15,-1034.52 968.74,-1030.07"/>
</g>
<!-- 14&#45;&gt;13 -->
<g id="edge7" class="edge">
<title>14&#45;&gt;13</title>
<path fill="none" stroke="black" stroke-dasharray="5,2" d="M887.08,-723.92C877.79,-733.84 868.54,-743.72 859.45,-753.43"/>
<polygon fill="black" stroke="black" points="856.81,-751.12 852.53,-760.81 861.92,-755.91 856.81,-751.12"/>
</g>
<!-- 14&#45;&gt;14 -->
<g id="edge10" class="edge">
<title>14&#45;&gt;14</title>
<path fill="none" stroke="black" stroke-dasharray="5,2" d="M1665.46,-525.94C1676.95,-533.5 1683.27,-542.29 1683.27,-552.3 1683.27,-559.65 1679.86,-566.34 1673.5,-572.38"/>
<polygon fill="black" stroke="black" points="1671.18,-569.75 1665.46,-578.66 1675.49,-575.26 1671.18,-569.75"/>
</g>
</g>
</svg>
