<?xml version="1.0" encoding="UTF-8" standalone="no"?>
<!DOCTYPE svg PUBLIC "-//W3C//DTD SVG 1.1//EN"
 "http://www.w3.org/Graphics/SVG/1.1/DTD/svg11.dtd">
<!-- Generated by graphviz version 5.0.0 (20220707.1540)
 -->
<!-- Title: UmlClassDiagram Pages: 1 -->
<svg width="491pt" height="576pt"
 viewBox="0.00 0.00 490.96 575.80" xmlns="http://www.w3.org/2000/svg" xmlns:xlink="http://www.w3.org/1999/xlink">
<g id="graph0" class="graph" transform="scale(1 1) rotate(0) translate(4 571.8)">
<title>UmlClassDiagram</title>
<polygon fill="white" stroke="transparent" points="-4,4 -4,-571.8 486.96,-571.8 486.96,4 -4,4"/>
<!-- 11 -->
<g id="node1" class="node">
<title>11</title>
<polygon fill="#f2f2f2" stroke="black" points="136.86,-467.3 136.86,-567.3 346.1,-567.3 346.1,-467.3 136.86,-467.3"/>
<text text-anchor="middle" x="241.48" y="-550.7" font-family="Times,serif" font-size="14.00">&lt;&lt;Enum&gt;&gt;</text>
<text text-anchor="middle" x="241.48" y="-533.9" font-family="Times,serif" font-size="14.00">CallType</text>
<text text-anchor="middle" x="241.48" y="-517.1" font-family="Times,serif" font-size="14.00">../src/router/UniswapV4Router.sol</text>
<polyline fill="none" stroke="black" points="136.86,-508.9 346.1,-508.9 "/>
<text text-anchor="start" x="144.86" y="-492.3" font-family="Times,serif" font-size="14.00">Call: 0</text>
<text text-anchor="start" x="144.86" y="-475.5" font-family="Times,serif" font-size="14.00">Delegate: 1</text>
</g>
<!-- 12 -->
<g id="node2" class="node">
<title>12</title>
<polygon fill="#f2f2f2" stroke="black" points="203.86,-279.9 203.86,-430.3 413.1,-430.3 413.1,-279.9 203.86,-279.9"/>
<text text-anchor="middle" x="308.48" y="-413.7" font-family="Times,serif" font-size="14.00">&lt;&lt;Struct&gt;&gt;</text>
<text text-anchor="middle" x="308.48" y="-396.9" font-family="Times,serif" font-size="14.00">Call</text>
<text text-anchor="middle" x="308.48" y="-380.1" font-family="Times,serif" font-size="14.00">../src/router/UniswapV4Router.sol</text>
<polyline fill="none" stroke="black" points="203.86,-371.9 413.1,-371.9 "/>
<text text-anchor="start" x="211.86" y="-355.3" font-family="Times,serif" font-size="14.00">target: address</text>
<text text-anchor="start" x="211.86" y="-338.5" font-family="Times,serif" font-size="14.00">callType: CallType</text>
<text text-anchor="start" x="211.86" y="-321.7" font-family="Times,serif" font-size="14.00">results: bool</text>
<text text-anchor="start" x="211.86" y="-304.9" font-family="Times,serif" font-size="14.00">value: uint256</text>
<text text-anchor="start" x="211.86" y="-288.1" font-family="Times,serif" font-size="14.00">data: bytes</text>
</g>
<!-- 12&#45;&gt;11 -->
<g id="edge1" class="edge">
<title>12&#45;&gt;11</title>
<path fill="none" stroke="black" stroke-dasharray="5,2" d="M277.34,-430.57C273.52,-439.69 269.67,-448.91 265.97,-457.75"/>
<polygon fill="black" stroke="black" points="262.66,-456.6 262.03,-467.17 269.12,-459.3 262.66,-456.6"/>
</g>
<!-- 13 -->
<g id="node3" class="node">
<title>13</title>
<polygon fill="#f2f2f2" stroke="black" points="0,-0.5 0,-242.9 482.96,-242.9 482.96,-0.5 0,-0.5"/>
<text text-anchor="middle" x="241.48" y="-226.3" font-family="Times,serif" font-size="14.00">UniswapV4Router</text>
<text text-anchor="middle" x="241.48" y="-209.5" font-family="Times,serif" font-size="14.00">../src/router/UniswapV4Router.sol</text>
<polyline fill="none" stroke="black" points="0,-201.3 482.96,-201.3 "/>
<text text-anchor="start" x="8" y="-184.7" font-family="Times,serif" font-size="14.00">Public:</text>
<text text-anchor="start" x="8" y="-167.9" font-family="Times,serif" font-size="14.00"> &#160;&#160;manager: IPoolManager</text>
<polyline fill="none" stroke="black" points="0,-159.7 482.96,-159.7 "/>
<text text-anchor="start" x="8" y="-143.1" font-family="Times,serif" font-size="14.00">Internal:</text>
<text text-anchor="start" x="8" y="-126.3" font-family="Times,serif" font-size="14.00"> &#160;&#160;&#160;removeSelector(data: bytes): (remainingData: bytes)</text>
<text text-anchor="start" x="8" y="-109.5" font-family="Times,serif" font-size="14.00">External:</text>
<text text-anchor="start" x="8" y="-92.7" font-family="Times,serif" font-size="14.00"> &#160;&#160;&#160;&lt;&lt;payable&gt;&gt; process(calls: Call[]): (results: bytes[])</text>
<text text-anchor="start" x="8" y="-75.9" font-family="Times,serif" font-size="14.00"> &#160;&#160;&#160;lockAcquired(encodedCalls: bytes): bytes</text>
<text text-anchor="start" x="8" y="-59.1" font-family="Times,serif" font-size="14.00"> &#160;&#160;&#160;onERC1155Received(address, address, uint256, uint256, bytes): bytes4</text>
<text text-anchor="start" x="8" y="-42.3" font-family="Times,serif" font-size="14.00"> &#160;&#160;&#160;onERC1155BatchReceived(address, address, uint256[], uint256[], bytes): bytes4</text>
<text text-anchor="start" x="8" y="-25.5" font-family="Times,serif" font-size="14.00">Public:</text>
<text text-anchor="start" x="8" y="-8.7" font-family="Times,serif" font-size="14.00"> &#160;&#160;&#160;constructor(_manager: IPoolManager)</text>
</g>
<!-- 13&#45;&gt;11 -->
<g id="edge3" class="edge">
<title>13&#45;&gt;11</title>
<path fill="none" stroke="black" stroke-dasharray="5,2" d="M200.86,-243.06C187.13,-300.45 178.81,-369.74 194.48,-430.8 196.83,-439.93 200.37,-449.14 204.49,-457.95"/>
<polygon fill="black" stroke="black" points="201.38,-459.56 208.96,-466.97 207.66,-456.45 201.38,-459.56"/>
</g>
<!-- 13&#45;&gt;12 -->
<g id="edge2" class="edge">
<title>13&#45;&gt;12</title>
<path fill="none" stroke="black" stroke-dasharray="5,2" d="M276.36,-243.14C278.99,-252.24 281.61,-261.3 284.16,-270.09"/>
<polygon fill="black" stroke="black" points="280.85,-271.26 286.99,-279.89 287.58,-269.31 280.85,-271.26"/>
</g>
</g>
</svg>
