<?xml version="1.0" encoding="UTF-8" standalone="no"?>
<!DOCTYPE svg PUBLIC "-//W3C//DTD SVG 1.1//EN"
 "http://www.w3.org/Graphics/SVG/1.1/DTD/svg11.dtd">
<!-- Generated by graphviz version 5.0.0 (20220707.1540)
 -->
<!-- Title: UmlClassDiagram Pages: 1 -->
<svg width="1631pt" height="1387pt"
 viewBox="0.00 0.00 1631.50 1386.60" xmlns="http://www.w3.org/2000/svg" xmlns:xlink="http://www.w3.org/1999/xlink">
<g id="graph0" class="graph" transform="scale(1 1) rotate(0) translate(4 1382.6)">
<title>UmlClassDiagram</title>
<polygon fill="white" stroke="transparent" points="-4,4 -4,-1382.6 1627.5,-1382.6 1627.5,4 -4,4"/>
<!-- 11 -->
<g id="node1" class="node">
<title>11</title>
<polygon fill="#f2f2f2" stroke="black" points="0,-0.5 0,-377.3 786.25,-377.3 786.25,-0.5 0,-0.5"/>
<text text-anchor="middle" x="393.13" y="-360.7" font-family="Times,serif" font-size="14.00">UniswapV4Caller</text>
<text text-anchor="middle" x="393.13" y="-343.9" font-family="Times,serif" font-size="14.00">../src/router/UniswapV4Caller.sol</text>
<polyline fill="none" stroke="black" points="0,-335.7 786.25,-335.7 "/>
<text text-anchor="start" x="8" y="-319.1" font-family="Times,serif" font-size="14.00">Public:</text>
<text text-anchor="start" x="8" y="-302.3" font-family="Times,serif" font-size="14.00"> &#160;&#160;router: UniswapV4Router</text>
<text text-anchor="start" x="8" y="-285.5" font-family="Times,serif" font-size="14.00"> &#160;&#160;manager: IPoolManager</text>
<text text-anchor="start" x="8" y="-268.7" font-family="Times,serif" font-size="14.00"> &#160;&#160;caller: address</text>
<polyline fill="none" stroke="black" points="0,-260.5 786.25,-260.5 "/>
<text text-anchor="start" x="8" y="-243.9" font-family="Times,serif" font-size="14.00">External:</text>
<text text-anchor="start" x="8" y="-227.1" font-family="Times,serif" font-size="14.00"> &#160;&#160;&#160;addLiquidity(poolKey: PoolKey, sender: address, tickLower: int24, tickUpper: int24, liquidityAmount: int256): (results: bytes[])</text>
<text text-anchor="start" x="8" y="-210.3" font-family="Times,serif" font-size="14.00"> &#160;&#160;&#160;addLiquidityCallback(callData: bytes, resultData: bytes)</text>
<text text-anchor="start" x="8" y="-193.5" font-family="Times,serif" font-size="14.00"> &#160;&#160;&#160;removeLiquidity(poolKey: PoolKey, recipient: address, tickLower: int24, tickUpper: int24, liquidityAmount: int256): (results: bytes[])</text>
<text text-anchor="start" x="8" y="-176.7" font-family="Times,serif" font-size="14.00"> &#160;&#160;&#160;removeLiquidityCallback(callData: bytes, resultData: bytes)</text>
<text text-anchor="start" x="8" y="-159.9" font-family="Times,serif" font-size="14.00"> &#160;&#160;&#160;swap(poolKey: PoolKey, swapper: address, recipient: address, fromCurrency: Currency, swapAmount: int256): (results: bytes[])</text>
<text text-anchor="start" x="8" y="-143.1" font-family="Times,serif" font-size="14.00"> &#160;&#160;&#160;swapCallback(callData: bytes, resultData: bytes)</text>
<text text-anchor="start" x="8" y="-126.3" font-family="Times,serif" font-size="14.00"> &#160;&#160;&#160;swapManagerTokens(poolKey: PoolKey, fromCurrency: Currency, fromAmount: int256, recipient: address): (results: bytes[])</text>
<text text-anchor="start" x="8" y="-109.5" font-family="Times,serif" font-size="14.00"> &#160;&#160;&#160;swapManagerTokensCallback(callData: bytes, resultData: bytes)</text>
<text text-anchor="start" x="8" y="-92.7" font-family="Times,serif" font-size="14.00"> &#160;&#160;&#160;deposit(token: address, sender: address, recipient: address, amount: uint256): (results: bytes[])</text>
<text text-anchor="start" x="8" y="-75.9" font-family="Times,serif" font-size="14.00"> &#160;&#160;&#160;withdraw(token: address, recipient: address, amount: uint256): (results: bytes[])</text>
<text text-anchor="start" x="8" y="-59.1" font-family="Times,serif" font-size="14.00"> &#160;&#160;&#160;transferFromCallerToPoolManager(token: address, amount: uint256)</text>
<text text-anchor="start" x="8" y="-42.3" font-family="Times,serif" font-size="14.00"> &#160;&#160;&#160;flashLoan(token: address, amount: uint256, callbackTarget: address, callbackType: CallType, callbackData: bytes): (results: bytes[])</text>
<text text-anchor="start" x="8" y="-25.5" font-family="Times,serif" font-size="14.00">Public:</text>
<text text-anchor="start" x="8" y="-8.7" font-family="Times,serif" font-size="14.00"> &#160;&#160;&#160;constructor(_router: UniswapV4Router, _manager: IPoolManager)</text>
</g>
<!-- 12 -->
<g id="node2" class="node">
<title>12</title>
<polygon fill="#f2f2f2" stroke="black" points="667.5,-1278.1 667.5,-1378.1 876.75,-1378.1 876.75,-1278.1 667.5,-1278.1"/>
<text text-anchor="middle" x="772.13" y="-1361.5" font-family="Times,serif" font-size="14.00">&lt;&lt;Enum&gt;&gt;</text>
<text text-anchor="middle" x="772.13" y="-1344.7" font-family="Times,serif" font-size="14.00">CallType</text>
<text text-anchor="middle" x="772.13" y="-1327.9" font-family="Times,serif" font-size="14.00">../src/router/UniswapV4Router.sol</text>
<polyline fill="none" stroke="black" points="667.5,-1319.7 876.75,-1319.7 "/>
<text text-anchor="start" x="675.5" y="-1303.1" font-family="Times,serif" font-size="14.00">Call: 0</text>
<text text-anchor="start" x="675.5" y="-1286.3" font-family="Times,serif" font-size="14.00">Delegate: 1</text>
</g>
<!-- 11&#45;&gt;12 -->
<g id="edge3" class="edge">
<title>11&#45;&gt;12</title>
<path fill="none" stroke="black" stroke-dasharray="5,2" d="M357.87,-377.72C333.31,-564.65 325.06,-852.06 456.13,-1054.2 515.15,-1145.23 613.17,-1223.1 684.41,-1272.08"/>
<polygon fill="black" stroke="black" points="682.73,-1275.17 692.96,-1277.91 686.67,-1269.38 682.73,-1275.17"/>
</g>
<!-- 14 -->
<g id="node4" class="node">
<title>14</title>
<polygon fill="#f2f2f2" stroke="black" points="464.65,-811.3 464.65,-1053.7 947.61,-1053.7 947.61,-811.3 464.65,-811.3"/>
<text text-anchor="middle" x="706.13" y="-1037.1" font-family="Times,serif" font-size="14.00">UniswapV4Router</text>
<text text-anchor="middle" x="706.13" y="-1020.3" font-family="Times,serif" font-size="14.00">../src/router/UniswapV4Router.sol</text>
<polyline fill="none" stroke="black" points="464.65,-1012.1 947.61,-1012.1 "/>
<text text-anchor="start" x="472.65" y="-995.5" font-family="Times,serif" font-size="14.00">Public:</text>
<text text-anchor="start" x="472.65" y="-978.7" font-family="Times,serif" font-size="14.00"> &#160;&#160;manager: IPoolManager</text>
<polyline fill="none" stroke="black" points="464.65,-970.5 947.61,-970.5 "/>
<text text-anchor="start" x="472.65" y="-953.9" font-family="Times,serif" font-size="14.00">Internal:</text>
<text text-anchor="start" x="472.65" y="-937.1" font-family="Times,serif" font-size="14.00"> &#160;&#160;&#160;removeSelector(data: bytes): (remainingData: bytes)</text>
<text text-anchor="start" x="472.65" y="-920.3" font-family="Times,serif" font-size="14.00">External:</text>
<text text-anchor="start" x="472.65" y="-903.5" font-family="Times,serif" font-size="14.00"> &#160;&#160;&#160;&lt;&lt;payable&gt;&gt; process(calls: Call[]): (results: bytes[])</text>
<text text-anchor="start" x="472.65" y="-886.7" font-family="Times,serif" font-size="14.00"> &#160;&#160;&#160;lockAcquired(encodedCalls: bytes): bytes</text>
<text text-anchor="start" x="472.65" y="-869.9" font-family="Times,serif" font-size="14.00"> &#160;&#160;&#160;onERC1155Received(address, address, uint256, uint256, bytes): bytes4</text>
<text text-anchor="start" x="472.65" y="-853.1" font-family="Times,serif" font-size="14.00"> &#160;&#160;&#160;onERC1155BatchReceived(address, address, uint256[], uint256[], bytes): bytes4</text>
<text text-anchor="start" x="472.65" y="-836.3" font-family="Times,serif" font-size="14.00">Public:</text>
<text text-anchor="start" x="472.65" y="-819.5" font-family="Times,serif" font-size="14.00"> &#160;&#160;&#160;constructor(_manager: IPoolManager)</text>
</g>
<!-- 11&#45;&gt;14 -->
<g id="edge2" class="edge">
<title>11&#45;&gt;14</title>
<path fill="none" stroke="black" d="M379.35,-377.35C372.25,-522.94 372.13,-710.54 412.13,-774.8 424.12,-794.07 439.35,-811.11 456.53,-826.16"/>
<polygon fill="black" stroke="black" points="454.66,-829.16 464.56,-832.93 459.17,-823.81 454.66,-829.16"/>
</g>
<!-- 15 -->
<g id="node5" class="node">
<title>15</title>
<polygon fill="#f2f2f2" stroke="black" points="420.76,-414.3 420.76,-774.3 1605.5,-774.3 1605.5,-414.3 420.76,-414.3"/>
<text text-anchor="middle" x="1013.13" y="-757.7" font-family="Times,serif" font-size="14.00">&lt;&lt;Library&gt;&gt;</text>
<text text-anchor="middle" x="1013.13" y="-740.9" font-family="Times,serif" font-size="14.00">UniswapV4RouterLibrary</text>
<text text-anchor="middle" x="1013.13" y="-724.1" font-family="Times,serif" font-size="14.00">../src/router/UniswapV4RouterLibrary.sol</text>
<polyline fill="none" stroke="black" points="420.76,-715.9 1605.5,-715.9 "/>
<text text-anchor="start" x="428.76" y="-699.3" font-family="Times,serif" font-size="14.00">Internal:</text>
<text text-anchor="start" x="428.76" y="-682.5" font-family="Times,serif" font-size="14.00"> &#160;&#160;MIN_PRICE_LIMIT: uint160</text>
<text text-anchor="start" x="428.76" y="-665.7" font-family="Times,serif" font-size="14.00"> &#160;&#160;MAX_PRICE_LIMIT: uint160</text>
<text text-anchor="start" x="428.76" y="-648.9" font-family="Times,serif" font-size="14.00"> &#160;&#160;EMPTY_RESULTS: bytes</text>
<polyline fill="none" stroke="black" points="420.76,-640.7 1605.5,-640.7 "/>
<text text-anchor="start" x="428.76" y="-624.1" font-family="Times,serif" font-size="14.00">External:</text>
<text text-anchor="start" x="428.76" y="-607.3" font-family="Times,serif" font-size="14.00"> &#160;&#160;&#160;addLiquidity(router: UniswapV4Router, callback: address, manager: IPoolManager, poolKey: PoolKey, sender: address, tickLower: int24, tickUpper: int24, liquidityAmount: int256): (results: bytes[])</text>
<text text-anchor="start" x="428.76" y="-590.5" font-family="Times,serif" font-size="14.00"> &#160;&#160;&#160;addLiquidityCallback(callData: bytes, resultData: bytes)</text>
<text text-anchor="start" x="428.76" y="-573.7" font-family="Times,serif" font-size="14.00"> &#160;&#160;&#160;removeLiquidity(router: UniswapV4Router, callback: address, manager: IPoolManager, poolKey: PoolKey, recipient: address, tickLower: int24, tickUpper: int24, liquidityAmount: int256): (results: bytes[])</text>
<text text-anchor="start" x="428.76" y="-556.9" font-family="Times,serif" font-size="14.00"> &#160;&#160;&#160;removeLiquidityCallback(callData: bytes, resultData: bytes)</text>
<text text-anchor="start" x="428.76" y="-540.1" font-family="Times,serif" font-size="14.00"> &#160;&#160;&#160;swap(router: UniswapV4Router, callback: address, manager: IPoolManager, poolKey: PoolKey, swapper: address, recipient: address, fromCurrency: Currency, swapAmount: int256): (results: bytes[])</text>
<text text-anchor="start" x="428.76" y="-523.3" font-family="Times,serif" font-size="14.00"> &#160;&#160;&#160;swapCallback(callData: bytes, resultData: bytes)</text>
<text text-anchor="start" x="428.76" y="-506.5" font-family="Times,serif" font-size="14.00"> &#160;&#160;&#160;swapManagerTokens(router: UniswapV4Router, callback: address, manager: IPoolManager, poolKey: PoolKey, fromCurrency: Currency, fromAmount: int256, recipient: address): (results: bytes[])</text>
<text text-anchor="start" x="428.76" y="-489.7" font-family="Times,serif" font-size="14.00"> &#160;&#160;&#160;swapManagerTokensCallback(callData: bytes, resultData: bytes)</text>
<text text-anchor="start" x="428.76" y="-472.9" font-family="Times,serif" font-size="14.00"> &#160;&#160;&#160;deposit(router: UniswapV4Router, manager: IPoolManager, token: address, sender: address, recipient: address, amount: uint256): (results: bytes[])</text>
<text text-anchor="start" x="428.76" y="-456.1" font-family="Times,serif" font-size="14.00"> &#160;&#160;&#160;withdraw(router: UniswapV4Router, callback: address, manager: IPoolManager, token: address, recipient: address, amount: uint256): (results: bytes[])</text>
<text text-anchor="start" x="428.76" y="-439.3" font-family="Times,serif" font-size="14.00"> &#160;&#160;&#160;transferFromCallerToPoolManager(token: address, amount: uint256)</text>
<text text-anchor="start" x="428.76" y="-422.5" font-family="Times,serif" font-size="14.00"> &#160;&#160;&#160;flashLoan(router: UniswapV4Router, manager: IPoolManager, token: address, amount: uint256, callbackTarget: address, callbackType: CallType, callbackData: bytes): (results: bytes[])</text>
</g>
<!-- 11&#45;&gt;15 -->
<g id="edge1" class="edge">
<title>11&#45;&gt;15</title>
<path fill="none" stroke="black" stroke-dasharray="5,2" d="M681.35,-377.43C697.22,-387.76 713.17,-398.14 729.03,-408.46"/>
<polygon fill="black" stroke="black" points="727.55,-411.66 737.84,-414.18 731.36,-405.8 727.55,-411.66"/>
</g>
<!-- 13 -->
<g id="node3" class="node">
<title>13</title>
<polygon fill="#f2f2f2" stroke="black" points="734.5,-1090.7 734.5,-1241.1 943.75,-1241.1 943.75,-1090.7 734.5,-1090.7"/>
<text text-anchor="middle" x="839.13" y="-1224.5" font-family="Times,serif" font-size="14.00">&lt;&lt;Struct&gt;&gt;</text>
<text text-anchor="middle" x="839.13" y="-1207.7" font-family="Times,serif" font-size="14.00">Call</text>
<text text-anchor="middle" x="839.13" y="-1190.9" font-family="Times,serif" font-size="14.00">../src/router/UniswapV4Router.sol</text>
<polyline fill="none" stroke="black" points="734.5,-1182.7 943.75,-1182.7 "/>
<text text-anchor="start" x="742.5" y="-1166.1" font-family="Times,serif" font-size="14.00">target: address</text>
<text text-anchor="start" x="742.5" y="-1149.3" font-family="Times,serif" font-size="14.00">callType: CallType</text>
<text text-anchor="start" x="742.5" y="-1132.5" font-family="Times,serif" font-size="14.00">results: bool</text>
<text text-anchor="start" x="742.5" y="-1115.7" font-family="Times,serif" font-size="14.00">value: uint256</text>
<text text-anchor="start" x="742.5" y="-1098.9" font-family="Times,serif" font-size="14.00">data: bytes</text>
</g>
<!-- 13&#45;&gt;12 -->
<g id="edge4" class="edge">
<title>13&#45;&gt;12</title>
<path fill="none" stroke="black" stroke-dasharray="5,2" d="M807.98,-1241.37C804.17,-1250.49 800.31,-1259.71 796.61,-1268.55"/>
<polygon fill="black" stroke="black" points="793.3,-1267.4 792.67,-1277.97 799.76,-1270.1 793.3,-1267.4"/>
</g>
<!-- 14&#45;&gt;12 -->
<g id="edge6" class="edge">
<title>14&#45;&gt;12</title>
<path fill="none" stroke="black" stroke-dasharray="5,2" d="M701.41,-1053.72C702.18,-1111.55 707.63,-1181.25 725.13,-1241.6 727.79,-1250.78 731.56,-1260.06 735.82,-1268.96"/>
<polygon fill="black" stroke="black" points="732.78,-1270.72 740.41,-1278.07 739.03,-1267.57 732.78,-1270.72"/>
</g>
<!-- 14&#45;&gt;13 -->
<g id="edge5" class="edge">
<title>14&#45;&gt;13</title>
<path fill="none" stroke="black" stroke-dasharray="5,2" d="M775.35,-1053.94C780.75,-1063.33 786.12,-1072.68 791.33,-1081.74"/>
<polygon fill="black" stroke="black" points="788.46,-1083.77 796.47,-1090.69 794.53,-1080.28 788.46,-1083.77"/>
</g>
<!-- 15&#45;&gt;12 -->
<g id="edge9" class="edge">
<title>15&#45;&gt;12</title>
<path fill="none" stroke="black" stroke-dasharray="5,2" d="M1044.49,-774.47C1058.81,-915.6 1054.22,-1109.84 953.13,-1241.6 935.98,-1263.95 911.55,-1280.71 886.16,-1293.19"/>
<polygon fill="black" stroke="black" points="884.34,-1290.18 876.78,-1297.6 887.32,-1296.52 884.34,-1290.18"/>
</g>
<!-- 15&#45;&gt;13 -->
<g id="edge8" class="edge">
<title>15&#45;&gt;13</title>
<path fill="none" stroke="black" stroke-dasharray="5,2" d="M996.72,-774.31C984.92,-892.06 968.91,-1028.93 956.13,-1054.2 951.1,-1064.14 944.8,-1073.67 937.76,-1082.67"/>
<polygon fill="black" stroke="black" points="935.02,-1080.49 931.38,-1090.44 940.43,-1084.93 935.02,-1080.49"/>
</g>
<!-- 15&#45;&gt;14 -->
<g id="edge7" class="edge">
<title>15&#45;&gt;14</title>
<path fill="none" stroke="black" stroke-dasharray="5,2" d="M849.29,-774.72C840.38,-784.47 831.52,-794.18 822.83,-803.7"/>
<polygon fill="black" stroke="black" points="820.06,-801.54 815.9,-811.29 825.23,-806.26 820.06,-801.54"/>
</g>
<!-- 15&#45;&gt;15 -->
<g id="edge10" class="edge">
<title>15&#45;&gt;15</title>
<path fill="none" stroke="black" stroke-dasharray="5,2" d="M1605.61,-566.57C1617.14,-574.5 1623.5,-583.74 1623.5,-594.3 1623.5,-602.06 1620.07,-609.1 1613.68,-615.43"/>
<polygon fill="black" stroke="black" points="1611.14,-612.99 1605.61,-622.03 1615.57,-618.41 1611.14,-612.99"/>
</g>
</g>
</svg>
