<?xml version="1.0" encoding="us-ascii" standalone="no"?><svg xmlns="http://www.w3.org/2000/svg" xmlns:xlink="http://www.w3.org/1999/xlink" contentStyleType="text/css" height="2686px" preserveAspectRatio="none" style="width:1534px;height:2686px;background:#FFFFFF;" version="1.1" viewBox="0 0 1534 2686" width="1534px" zoomAndPan="magnify"><defs/><g><text fill="#000000" font-family="sans-serif" font-size="14" font-weight="bold" lengthAdjust="spacing" textLength="170" x="683.5" y="28.5352">Uniswap v4 - Withdraw</text><rect fill="#FFFFFF" height="14" style="stroke:#181818;stroke-width:1.0;" width="10" x="372.5" y="347.7031"/><rect fill="#FFFFFF" height="946.3535" style="stroke:#181818;stroke-width:1.0;" width="10" x="372.5" y="1055.5039"/><rect fill="#FFFFFF" height="190.4844" style="stroke:#181818;stroke-width:1.0;" width="10" x="377.5" y="1327.1621"/><rect fill="#FFFFFF" height="40.3105" style="stroke:#181818;stroke-width:1.0;" width="10" x="382.5" y="1456.3359"/><rect fill="#FFFFFF" height="118.5527" style="stroke:#181818;stroke-width:1.0;" width="10" x="377.5" y="1723.4414"/><rect fill="#FFFFFF" height="1580.291" style="stroke:#181818;stroke-width:1.0;" width="10" x="886.5" y="707.293"/><rect fill="#FFFFFF" height="376.2793" style="stroke:#181818;stroke-width:1.0;" width="10" x="891.5" y="1205.9883"/><rect fill="#809ECB" height="1425.1172" style="stroke:#181818;stroke-width:1.0;" width="10" x="1067" y="751.9141"/><rect fill="#FFFFFF" height="1116.8379" style="stroke:#181818;stroke-width:1.0;" width="10" x="1250.5" y="995.5723"/><rect fill="#FFFFFF" height="806.4902" style="stroke:#181818;stroke-width:1.0;" width="10" x="1255.5" y="1115.4355"/><rect fill="#FFFFFF" height="29.3105" style="stroke:#181818;stroke-width:1.0;" width="10" x="1388" y="1798.6836"/><rect fill="none" height="314.9688" style="stroke:#000000;stroke-width:1.5;" width="597" x="10" y="135.9766"/><rect fill="none" height="2084.9863" style="stroke:#000000;stroke-width:1.5;" width="1518" x="10" y="464.9453"/><line style="stroke:#181818;stroke-width:0.5;stroke-dasharray:5.0,5.0;" x1="122" x2="122" y1="118.9766" y2="2566.9316"/><line style="stroke:#181818;stroke-width:0.5;stroke-dasharray:5.0,5.0;" x1="377" x2="377" y1="118.9766" y2="2566.9316"/><line style="stroke:#181818;stroke-width:0.5;stroke-dasharray:5.0,5.0;" x1="891.5" x2="891.5" y1="118.9766" y2="2566.9316"/><line style="stroke:#181818;stroke-width:0.5;stroke-dasharray:5.0,5.0;" x1="1071.5" x2="1071.5" y1="118.9766" y2="2566.9316"/><line style="stroke:#181818;stroke-width:0.5;stroke-dasharray:5.0,5.0;" x1="1255.5" x2="1255.5" y1="118.9766" y2="2566.9316"/><line style="stroke:#181818;stroke-width:0.5;stroke-dasharray:5.0,5.0;" x1="1392.5" x2="1392.5" y1="118.9766" y2="2566.9316"/><text fill="#000000" font-family="sans-serif" font-size="14" lengthAdjust="spacing" textLength="90" x="74" y="116.0234">0xf39f..2266</text><ellipse cx="122" cy="50.9883" fill="#E2E2F0" rx="8" ry="8" style="stroke:#181818;stroke-width:0.5;"/><path d="M122,58.9883 L122,85.9883 M109,66.9883 L135,66.9883 M122,85.9883 L109,100.9883 M122,85.9883 L135,100.9883 " fill="none" style="stroke:#181818;stroke-width:0.5;"/><text fill="#000000" font-family="sans-serif" font-size="14" lengthAdjust="spacing" textLength="90" x="74" y="2579.4668">0xf39f..2266</text><ellipse cx="122" cy="2590.9199" fill="#E2E2F0" rx="8" ry="8" style="stroke:#181818;stroke-width:0.5;"/><path d="M122,2598.9199 L122,2625.9199 M109,2606.9199 L135,2606.9199 M122,2625.9199 L109,2640.9199 M122,2625.9199 L135,2640.9199 " fill="none" style="stroke:#181818;stroke-width:0.5;"/><rect fill="#E2E2F0" height="63.4648" rx="2.5" ry="2.5" style="stroke:#181818;stroke-width:0.5;" width="143" x="306" y="54.5117"/><text fill="#000000" font-family="sans-serif" font-size="14" font-style="italic" lengthAdjust="spacing" textLength="129" x="313" y="75.0469">&#171;Uniswap v4 Core&#187;</text><text fill="#000000" font-family="sans-serif" font-size="14" font-style="italic" lengthAdjust="spacing" textLength="104" x="325.5" y="91.5352">&#171;PoolManager&#187;</text><text fill="#000000" font-family="sans-serif" font-size="14" lengthAdjust="spacing" textLength="85" x="335" y="108.0234">0xcf7e..0fc9</text><rect fill="#E2E2F0" height="63.4648" rx="2.5" ry="2.5" style="stroke:#181818;stroke-width:0.5;" width="143" x="306" y="2565.9316"/><text fill="#000000" font-family="sans-serif" font-size="14" font-style="italic" lengthAdjust="spacing" textLength="129" x="313" y="2586.4668">&#171;Uniswap v4 Core&#187;</text><text fill="#000000" font-family="sans-serif" font-size="14" font-style="italic" lengthAdjust="spacing" textLength="104" x="325.5" y="2602.9551">&#171;PoolManager&#187;</text><text fill="#000000" font-family="sans-serif" font-size="14" lengthAdjust="spacing" textLength="85" x="335" y="2619.4434">0xcf7e..0fc9</text><rect fill="#E2E2F0" height="46.9766" rx="2.5" ry="2.5" style="stroke:#181818;stroke-width:0.5;" width="144" x="819.5" y="71"/><text fill="#000000" font-family="sans-serif" font-size="14" font-style="italic" lengthAdjust="spacing" textLength="130" x="826.5" y="91.5352">&#171;UniswapV4Caller&#187;</text><text fill="#000000" font-family="sans-serif" font-size="14" lengthAdjust="spacing" textLength="92" x="845.5" y="108.0234">0x5fc8..5707</text><rect fill="#E2E2F0" height="46.9766" rx="2.5" ry="2.5" style="stroke:#181818;stroke-width:0.5;" width="144" x="819.5" y="2565.9316"/><text fill="#000000" font-family="sans-serif" font-size="14" font-style="italic" lengthAdjust="spacing" textLength="130" x="826.5" y="2586.4668">&#171;UniswapV4Caller&#187;</text><text fill="#000000" font-family="sans-serif" font-size="14" lengthAdjust="spacing" textLength="92" x="845.5" y="2602.9551">0x5fc8..5707</text><rect fill="#E2E2F0" height="46.9766" rx="2.5" ry="2.5" style="stroke:#181818;stroke-width:0.5;" width="197" x="973.5" y="71"/><text fill="#000000" font-family="sans-serif" font-size="14" font-style="italic" lengthAdjust="spacing" textLength="183" x="980.5" y="91.5352">&#171;UniswapV4RouterLibrary&#187;</text><text fill="#000000" font-family="sans-serif" font-size="14" lengthAdjust="spacing" textLength="92" x="1026" y="108.0234">0x5fbd..0aa3</text><rect fill="#E2E2F0" height="46.9766" rx="2.5" ry="2.5" style="stroke:#181818;stroke-width:0.5;" width="197" x="973.5" y="2565.9316"/><text fill="#000000" font-family="sans-serif" font-size="14" font-style="italic" lengthAdjust="spacing" textLength="183" x="980.5" y="2586.4668">&#171;UniswapV4RouterLibrary&#187;</text><text fill="#000000" font-family="sans-serif" font-size="14" lengthAdjust="spacing" textLength="92" x="1026" y="2602.9551">0x5fbd..0aa3</text><rect fill="#E2E2F0" height="46.9766" rx="2.5" ry="2.5" style="stroke:#181818;stroke-width:0.5;" width="150" x="1180.5" y="71"/><text fill="#000000" font-family="sans-serif" font-size="14" font-style="italic" lengthAdjust="spacing" textLength="136" x="1187.5" y="91.5352">&#171;UniswapV4Router&#187;</text><text fill="#000000" font-family="sans-serif" font-size="14" lengthAdjust="spacing" textLength="90" x="1210.5" y="108.0234">0xdc64..f6c9</text><rect fill="#E2E2F0" height="46.9766" rx="2.5" ry="2.5" style="stroke:#181818;stroke-width:0.5;" width="150" x="1180.5" y="2565.9316"/><text fill="#000000" font-family="sans-serif" font-size="14" font-style="italic" lengthAdjust="spacing" textLength="136" x="1187.5" y="2586.4668">&#171;UniswapV4Router&#187;</text><text fill="#000000" font-family="sans-serif" font-size="14" lengthAdjust="spacing" textLength="90" x="1210.5" y="2602.9551">0xdc64..f6c9</text><rect fill="#E2E2F0" height="63.4648" rx="2.5" ry="2.5" style="stroke:#181818;stroke-width:0.5;" width="105" x="1340.5" y="54.5117"/><text fill="#000000" font-family="sans-serif" font-size="14" font-style="italic" lengthAdjust="spacing" textLength="62" x="1362" y="75.0469">&#171;token0&#187;</text><text fill="#000000" font-family="sans-serif" font-size="14" font-style="italic" lengthAdjust="spacing" textLength="88" x="1349" y="91.5352">&#171;TestERC20&#187;</text><text fill="#000000" font-family="sans-serif" font-size="14" lengthAdjust="spacing" textLength="91" x="1347.5" y="108.0234">0x9fe4..a6e0</text><rect fill="#E2E2F0" height="63.4648" rx="2.5" ry="2.5" style="stroke:#181818;stroke-width:0.5;" width="105" x="1340.5" y="2565.9316"/><text fill="#000000" font-family="sans-serif" font-size="14" font-style="italic" lengthAdjust="spacing" textLength="62" x="1362" y="2586.4668">&#171;token0&#187;</text><text fill="#000000" font-family="sans-serif" font-size="14" font-style="italic" lengthAdjust="spacing" textLength="88" x="1349" y="2602.9551">&#171;TestERC20&#187;</text><text fill="#000000" font-family="sans-serif" font-size="14" lengthAdjust="spacing" textLength="91" x="1347.5" y="2619.4434">0x9fe4..a6e0</text><rect fill="#FFFFFF" height="14" style="stroke:#181818;stroke-width:1.0;" width="10" x="372.5" y="347.7031"/><rect fill="#FFFFFF" height="946.3535" style="stroke:#181818;stroke-width:1.0;" width="10" x="372.5" y="1055.5039"/><rect fill="#FFFFFF" height="190.4844" style="stroke:#181818;stroke-width:1.0;" width="10" x="377.5" y="1327.1621"/><rect fill="#FFFFFF" height="40.3105" style="stroke:#181818;stroke-width:1.0;" width="10" x="382.5" y="1456.3359"/><rect fill="#FFFFFF" height="118.5527" style="stroke:#181818;stroke-width:1.0;" width="10" x="377.5" y="1723.4414"/><rect fill="#FFFFFF" height="1580.291" style="stroke:#181818;stroke-width:1.0;" width="10" x="886.5" y="707.293"/><rect fill="#FFFFFF" height="376.2793" style="stroke:#181818;stroke-width:1.0;" width="10" x="891.5" y="1205.9883"/><rect fill="#809ECB" height="1425.1172" style="stroke:#181818;stroke-width:1.0;" width="10" x="1067" y="751.9141"/><rect fill="#FFFFFF" height="1116.8379" style="stroke:#181818;stroke-width:1.0;" width="10" x="1250.5" y="995.5723"/><rect fill="#FFFFFF" height="806.4902" style="stroke:#181818;stroke-width:1.0;" width="10" x="1255.5" y="1115.4355"/><rect fill="#FFFFFF" height="29.3105" style="stroke:#181818;stroke-width:1.0;" width="10" x="1388" y="1798.6836"/><path d="M10,135.9766 L602,135.9766 L602,143.2871 L592,153.2871 L10,153.2871 L10,135.9766 " fill="#EEEEEE" style="stroke:#000000;stroke-width:1.5;"/><rect fill="none" height="314.9688" style="stroke:#000000;stroke-width:1.5;" width="597" x="10" y="135.9766"/><text fill="#000000" font-family="sans-serif" font-size="13" font-weight="bold" lengthAdjust="spacing" textLength="547" x="25" y="149.5449">0x81ef52fae7c0a4d2421c1caf2d018f45e6ef9c1c0c3a5a13b39a90b8445c8baa</text><path d="M20,158.2871 L20,275.2871 L224,275.2871 L224,168.2871 L214,158.2871 L20,158.2871 " fill="#FEFFDD" style="stroke:#181818;stroke-width:0.5;"/><path d="M214,158.2871 L214,168.2871 L224,168.2871 L214,158.2871 " fill="#FEFFDD" style="stroke:#181818;stroke-width:0.5;"/><text fill="#000000" font-family="sans-serif" font-size="13" lengthAdjust="spacing" textLength="64" x="26" y="175.8555">Nonce: 17</text><text fill="#000000" font-family="sans-serif" font-size="13" lengthAdjust="spacing" textLength="183" x="26" y="191.166">Gas Price: 3.579828234 Gwei</text><text fill="#000000" font-family="sans-serif" font-size="13" lengthAdjust="spacing" textLength="113" x="26" y="206.4766">Max Fee: 5.0 Gwei</text><text fill="#000000" font-family="sans-serif" font-size="13" lengthAdjust="spacing" textLength="137" x="26" y="221.7871">Max Priority: 3.0 Gwei</text><text fill="#000000" font-family="sans-serif" font-size="13" lengthAdjust="spacing" textLength="111" x="26" y="237.0977">Gas Limit: 67,697</text><text fill="#000000" font-family="sans-serif" font-size="13" lengthAdjust="spacing" textLength="110" x="26" y="252.4082">Gas Used: 46,289</text><text fill="#000000" font-family="sans-serif" font-size="13" lengthAdjust="spacing" textLength="86" x="26" y="267.7188">Tx Fee: 0 ETH</text><polygon fill="#181818" points="360.5,343.7031,370.5,347.7031,360.5,351.7031,364.5,347.7031" style="stroke:#181818;stroke-width:1.0;"/><line style="stroke:#181818;stroke-width:1.0;" x1="122" x2="366.5" y1="347.7031" y2="347.7031"/><text fill="#000000" font-family="sans-serif" font-size="13" lengthAdjust="spacing" textLength="116" x="129" y="297.0293">setApprovalForAll(</text><text fill="#000000" font-family="sans-serif" font-size="13" lengthAdjust="spacing" textLength="153" x="137" y="312.3398">operator: 0x5FC8..5707,</text><text fill="#000000" font-family="sans-serif" font-size="13" lengthAdjust="spacing" textLength="95" x="137" y="327.6504">approved: true)</text><text fill="#000000" font-family="sans-serif" font-size="13" lengthAdjust="spacing" textLength="70" x="129" y="342.9609">24,717 gas</text><polygon fill="#181818" points="133,357.7031,123,361.7031,133,365.7031,129,361.7031" style="stroke:#181818;stroke-width:1.0;"/><line style="stroke:#181818;stroke-width:1.0;stroke-dasharray:2.0,2.0;" x1="127" x2="376.5" y1="361.7031" y2="361.7031"/><path d="M286,374.7031 L286,445.7031 L468,445.7031 L468,384.7031 L458,374.7031 L286,374.7031 " fill="#00FFFF" style="stroke:#181818;stroke-width:0.5;"/><path d="M458,374.7031 L458,384.7031 L468,384.7031 L458,374.7031 " fill="#00FFFF" style="stroke:#181818;stroke-width:0.5;"/><text fill="#000000" font-family="sans-serif" font-size="13" lengthAdjust="spacing" textLength="97" x="292" y="392.2715">ApprovalForAll:</text><text fill="#000000" font-family="sans-serif" font-size="13" lengthAdjust="spacing" textLength="146" x="300" y="407.582">account: 0xf39F..2266,</text><text fill="#000000" font-family="sans-serif" font-size="13" lengthAdjust="spacing" textLength="153" x="300" y="422.8926">operator: 0x5FC8..5707,</text><text fill="#000000" font-family="sans-serif" font-size="13" lengthAdjust="spacing" textLength="91" x="300" y="438.2031">approved: true</text><path d="M10,464.9453 L619,464.9453 L619,472.2559 L609,482.2559 L10,482.2559 L10,464.9453 " fill="#EEEEEE" style="stroke:#000000;stroke-width:1.5;"/><rect fill="none" height="2084.9863" style="stroke:#000000;stroke-width:1.5;" width="1518" x="10" y="464.9453"/><text fill="#000000" font-family="sans-serif" font-size="13" font-weight="bold" lengthAdjust="spacing" textLength="564" x="25" y="478.5137">0xedf0a6e7f703013a460aa2fb3134905de66887622bdceb00c40145eb09b2c2c4</text><path d="M20,487.2559 L20,604.2559 L224,604.2559 L224,497.2559 L214,487.2559 L20,487.2559 " fill="#FEFFDD" style="stroke:#181818;stroke-width:0.5;"/><path d="M214,487.2559 L214,497.2559 L224,497.2559 L214,487.2559 " fill="#FEFFDD" style="stroke:#181818;stroke-width:0.5;"/><text fill="#000000" font-family="sans-serif" font-size="13" lengthAdjust="spacing" textLength="64" x="26" y="504.8242">Nonce: 18</text><text fill="#000000" font-family="sans-serif" font-size="13" lengthAdjust="spacing" textLength="183" x="26" y="520.1348">Gas Price: 3.579828234 Gwei</text><text fill="#000000" font-family="sans-serif" font-size="13" lengthAdjust="spacing" textLength="113" x="26" y="535.4453">Max Fee: 5.0 Gwei</text><text fill="#000000" font-family="sans-serif" font-size="13" lengthAdjust="spacing" textLength="137" x="26" y="550.7559">Max Priority: 3.0 Gwei</text><text fill="#000000" font-family="sans-serif" font-size="13" lengthAdjust="spacing" textLength="119" x="26" y="566.0664">Gas Limit: 206,988</text><text fill="#000000" font-family="sans-serif" font-size="13" lengthAdjust="spacing" textLength="118" x="26" y="581.377">Gas Used: 141,531</text><text fill="#000000" font-family="sans-serif" font-size="13" lengthAdjust="spacing" textLength="114" x="26" y="596.6875">Tx Fee: 0.001 ETH</text><polygon fill="#181818" points="874.5,703.293,884.5,707.293,874.5,711.293,878.5,707.293" style="stroke:#181818;stroke-width:1.0;"/><line style="stroke:#181818;stroke-width:1.0;" x1="122" x2="880.5" y1="707.293" y2="707.293"/><text fill="#000000" font-family="sans-serif" font-size="13" lengthAdjust="spacing" textLength="61" x="129" y="625.998">withdraw(</text><text fill="#000000" font-family="sans-serif" font-size="13" lengthAdjust="spacing" textLength="130" x="137" y="641.3086">token: 0x9fE4..a6e0,</text><text fill="#000000" font-family="sans-serif" font-size="13" lengthAdjust="spacing" textLength="134" x="137" y="656.6191">owner: 0xf39F..2266,</text><text fill="#000000" font-family="sans-serif" font-size="13" lengthAdjust="spacing" textLength="151" x="137" y="671.9297">recipient: 0xf39F..2266,</text><text fill="#000000" font-family="sans-serif" font-size="13" lengthAdjust="spacing" textLength="240" x="137" y="687.2402">amount: 4,,000,000,000,000,000,000)</text><text fill="#000000" font-family="sans-serif" font-size="13" lengthAdjust="spacing" textLength="78" x="129" y="702.5508">123,636 gas</text><line style="stroke:#181818;stroke-width:1.0;" x1="1065" x2="1055" y1="751.9141" y2="747.9141"/><line style="stroke:#181818;stroke-width:1.0;" x1="1065" x2="1055" y1="751.9141" y2="755.9141"/><line style="stroke:#181818;stroke-width:1.0;" x1="896.5" x2="1066" y1="751.9141" y2="751.9141"/><text fill="#000000" font-family="sans-serif" font-size="13" lengthAdjust="spacing" textLength="76" x="903.5" y="731.8613">0xbe70fb45</text><text fill="#000000" font-family="sans-serif" font-size="13" lengthAdjust="spacing" textLength="78" x="903.5" y="747.1719">114,851 gas</text><polygon fill="#3471CD" points="1238.5,991.5723,1248.5,995.5723,1238.5,999.5723,1242.5,995.5723" style="stroke:#3471CD;stroke-width:1.0;"/><line style="stroke:#3471CD;stroke-width:1.0;" x1="896.5" x2="1244.5" y1="995.5723" y2="995.5723"/><text fill="#000000" font-family="sans-serif" font-size="13" lengthAdjust="spacing" textLength="53" x="903.5" y="776.4824">process(</text><text fill="#000000" font-family="sans-serif" font-size="13" lengthAdjust="spacing" textLength="41" x="911.5" y="791.793">calls: [</text><text fill="#000000" font-family="sans-serif" font-size="13" lengthAdjust="spacing" textLength="20" x="919.5" y="807.1035">0: [</text><text fill="#000000" font-family="sans-serif" font-size="13" lengthAdjust="spacing" textLength="137" x="927.5" y="822.4141">target: 0x5FC8..5707,</text><text fill="#000000" font-family="sans-serif" font-size="13" lengthAdjust="spacing" textLength="64" x="927.5" y="837.7246">callType: ,</text><text fill="#000000" font-family="sans-serif" font-size="13" lengthAdjust="spacing" textLength="85" x="927.5" y="853.0352">results: false,</text><text fill="#000000" font-family="sans-serif" font-size="13" lengthAdjust="spacing" textLength="53" x="927.5" y="868.3457">value: 0,</text><text fill="#000000" font-family="sans-serif" font-size="13" lengthAdjust="spacing" textLength="192" x="927.5" y="883.6563">data: 0xd5c14c5e..9d900000],</text><text fill="#000000" font-family="sans-serif" font-size="13" lengthAdjust="spacing" textLength="20" x="919.5" y="898.9668">1: [</text><text fill="#000000" font-family="sans-serif" font-size="13" lengthAdjust="spacing" textLength="132" x="927.5" y="914.2773">target: 0xCf7E..0Fc9,</text><text fill="#000000" font-family="sans-serif" font-size="13" lengthAdjust="spacing" textLength="64" x="927.5" y="929.5879">callType: ,</text><text fill="#000000" font-family="sans-serif" font-size="13" lengthAdjust="spacing" textLength="85" x="927.5" y="944.8984">results: false,</text><text fill="#000000" font-family="sans-serif" font-size="13" lengthAdjust="spacing" textLength="53" x="927.5" y="960.209">value: 0,</text><text fill="#000000" font-family="sans-serif" font-size="13" lengthAdjust="spacing" textLength="198" x="927.5" y="975.5195">data: 0x0b0d9c09..9d900000]])</text><text fill="#000000" font-family="sans-serif" font-size="13" lengthAdjust="spacing" textLength="78" x="903.5" y="990.8301">107,578 gas</text><polygon fill="#181818" points="393.5,1051.5039,383.5,1055.5039,393.5,1059.5039,389.5,1055.5039" style="stroke:#181818;stroke-width:1.0;"/><line style="stroke:#181818;stroke-width:1.0;" x1="387.5" x2="1249.5" y1="1055.5039" y2="1055.5039"/><text fill="#000000" font-family="sans-serif" font-size="13" lengthAdjust="spacing" textLength="31" x="399.5" y="1020.1406">lock(</text><text fill="#000000" font-family="sans-serif" font-size="13" lengthAdjust="spacing" textLength="191" x="407.5" y="1035.4512">data: 0x00000000..00000000)</text><text fill="#000000" font-family="sans-serif" font-size="13" lengthAdjust="spacing" textLength="70" x="399.5" y="1050.7617">99,100 gas</text><polygon fill="#181818" points="1243.5,1111.4355,1253.5,1115.4355,1243.5,1119.4355,1247.5,1115.4355" style="stroke:#181818;stroke-width:1.0;"/><line style="stroke:#181818;stroke-width:1.0;" x1="382.5" x2="1249.5" y1="1115.4355" y2="1115.4355"/><text fill="#000000" font-family="sans-serif" font-size="13" lengthAdjust="spacing" textLength="87" x="389.5" y="1080.0723">lockAcquired(</text><text fill="#000000" font-family="sans-serif" font-size="13" lengthAdjust="spacing" textLength="248" x="397.5" y="1095.3828">encodedCalls: 0x00000000..00000000)</text><text fill="#000000" font-family="sans-serif" font-size="13" lengthAdjust="spacing" textLength="70" x="389.5" y="1110.6934">76,925 gas</text><polygon fill="#181818" points="912.5,1201.9883,902.5,1205.9883,912.5,1209.9883,908.5,1205.9883" style="stroke:#181818;stroke-width:1.0;"/><line style="stroke:#181818;stroke-width:1.0;" x1="906.5" x2="1254.5" y1="1205.9883" y2="1205.9883"/><text fill="#000000" font-family="sans-serif" font-size="13" lengthAdjust="spacing" textLength="115" x="918.5" y="1140.0039">withdrawCallback(</text><text fill="#000000" font-family="sans-serif" font-size="13" lengthAdjust="spacing" textLength="176" x="926.5" y="1155.3145">poolManager: 0xCf7E..0Fc9,</text><text fill="#000000" font-family="sans-serif" font-size="13" lengthAdjust="spacing" textLength="130" x="926.5" y="1170.625">token: 0x9fE4..a6e0,</text><text fill="#000000" font-family="sans-serif" font-size="13" lengthAdjust="spacing" textLength="240" x="926.5" y="1185.9355">amount: 4,,000,000,000,000,000,000)</text><text fill="#000000" font-family="sans-serif" font-size="13" lengthAdjust="spacing" textLength="70" x="918.5" y="1201.2461">52,011 gas</text><polygon fill="#181818" points="398.5,1323.1621,388.5,1327.1621,398.5,1331.1621,394.5,1327.1621" style="stroke:#181818;stroke-width:1.0;"/><line style="stroke:#181818;stroke-width:1.0;" x1="392.5" x2="890.5" y1="1327.1621" y2="1327.1621"/><text fill="#000000" font-family="sans-serif" font-size="13" lengthAdjust="spacing" textLength="114" x="404.5" y="1230.5566">safeTransferFrom(</text><text fill="#000000" font-family="sans-serif" font-size="13" lengthAdjust="spacing" textLength="126" x="412.5" y="1245.8672">from: 0xf39F..2266,</text><text fill="#000000" font-family="sans-serif" font-size="13" lengthAdjust="spacing" textLength="108" x="412.5" y="1261.1777">to: 0xCf7E..0Fc9,</text><text fill="#000000" font-family="sans-serif" font-size="13" lengthAdjust="spacing" textLength="472" x="412.5" y="1276.4883">id: 912,823,093,544,680,850,579,175,995,568,,783,282,090,442,467,040,</text><text fill="#000000" font-family="sans-serif" font-size="13" lengthAdjust="spacing" textLength="225" x="412.5" y="1291.7988">value: 4,,000,000,000,000,000,000,</text><text fill="#000000" font-family="sans-serif" font-size="13" lengthAdjust="spacing" textLength="55" x="412.5" y="1307.1094">data: 0x)</text><text fill="#000000" font-family="sans-serif" font-size="13" lengthAdjust="spacing" textLength="70" x="404.5" y="1322.4199">51,182 gas</text><line style="stroke:#181818;stroke-width:1.0;" x1="387.5" x2="434.5" y1="1443.3359" y2="1443.3359"/><line style="stroke:#181818;stroke-width:1.0;" x1="434.5" x2="434.5" y1="1443.3359" y2="1456.3359"/><line style="stroke:#181818;stroke-width:1.0;" x1="393.5" x2="434.5" y1="1456.3359" y2="1456.3359"/><polygon fill="#181818" points="403.5,1452.3359,393.5,1456.3359,403.5,1460.3359,399.5,1456.3359" style="stroke:#181818;stroke-width:1.0;"/><text fill="#000000" font-family="sans-serif" font-size="13" lengthAdjust="spacing" textLength="131" x="399.5" y="1346.7305">onERC1155Received(</text><text fill="#000000" font-family="sans-serif" font-size="13" lengthAdjust="spacing" textLength="92" x="407.5" y="1362.041">0x5FC8..5707,</text><text fill="#000000" font-family="sans-serif" font-size="13" lengthAdjust="spacing" textLength="88" x="407.5" y="1377.3516">0xf39F..2266,</text><text fill="#000000" font-family="sans-serif" font-size="13" lengthAdjust="spacing" textLength="472" x="407.5" y="1392.6621">id: 912,823,093,544,680,850,579,175,995,568,,783,282,090,442,467,040,</text><text fill="#000000" font-family="sans-serif" font-size="13" lengthAdjust="spacing" textLength="225" x="407.5" y="1407.9727">value: 4,,000,000,000,000,000,000,</text><text fill="#000000" font-family="sans-serif" font-size="13" lengthAdjust="spacing" textLength="20" x="407.5" y="1423.2832">0x)</text><text fill="#000000" font-family="sans-serif" font-size="13" lengthAdjust="spacing" textLength="70" x="399.5" y="1438.5938">22,717 gas</text><line style="stroke:#181818;stroke-width:1.0;stroke-dasharray:2.0,2.0;" x1="392.5" x2="434.5" y1="1495.6465" y2="1495.6465"/><line style="stroke:#181818;stroke-width:1.0;stroke-dasharray:2.0,2.0;" x1="434.5" x2="434.5" y1="1495.6465" y2="1508.6465"/><line style="stroke:#181818;stroke-width:1.0;stroke-dasharray:2.0,2.0;" x1="387.5" x2="434.5" y1="1508.6465" y2="1508.6465"/><polygon fill="#181818" points="397.5,1504.6465,387.5,1508.6465,397.5,1512.6465,393.5,1508.6465" style="stroke:#181818;stroke-width:1.0;"/><text fill="#000000" font-family="sans-serif" font-size="13" lengthAdjust="spacing" textLength="75" x="399.5" y="1490.9043">0xf23a6e61</text><polygon fill="#181818" points="879.5,1513.6465,889.5,1517.6465,879.5,1521.6465,883.5,1517.6465" style="stroke:#181818;stroke-width:1.0;"/><line style="stroke:#181818;stroke-width:1.0;stroke-dasharray:2.0,2.0;" x1="382.5" x2="885.5" y1="1517.6465" y2="1517.6465"/><path d="M387,1530.6465 L387,1570.6465 L478,1570.6465 L478,1540.6465 L468,1530.6465 L387,1530.6465 " fill="#FEFFDD" style="stroke:#181818;stroke-width:0.5;"/><path d="M468,1530.6465 L468,1540.6465 L478,1540.6465 L468,1530.6465 " fill="#FEFFDD" style="stroke:#181818;stroke-width:0.5;"/><text fill="#000000" font-family="sans-serif" font-size="13" lengthAdjust="spacing" textLength="4" x="393" y="1548.2148">&#160;</text><text fill="#000000" font-family="sans-serif" font-size="13" lengthAdjust="spacing" textLength="70" x="393" y="1563.5254">28,465 gas</text><polygon fill="#181818" points="1243.5,1578.2676,1253.5,1582.2676,1243.5,1586.2676,1247.5,1582.2676" style="stroke:#181818;stroke-width:1.0;"/><line style="stroke:#181818;stroke-width:1.0;stroke-dasharray:2.0,2.0;" x1="896.5" x2="1249.5" y1="1582.2676" y2="1582.2676"/><path d="M901,1595.2676 L901,1635.2676 L972,1635.2676 L972,1605.2676 L962,1595.2676 L901,1595.2676 " fill="#FEFFDD" style="stroke:#181818;stroke-width:0.5;"/><path d="M962,1595.2676 L962,1605.2676 L972,1605.2676 L962,1595.2676 " fill="#FEFFDD" style="stroke:#181818;stroke-width:0.5;"/><text fill="#000000" font-family="sans-serif" font-size="13" lengthAdjust="spacing" textLength="4" x="907" y="1612.8359">&#160;</text><text fill="#000000" font-family="sans-serif" font-size="13" lengthAdjust="spacing" textLength="50" x="907" y="1628.1465">829 gas</text><polygon fill="#181818" points="398.5,1719.4414,388.5,1723.4414,398.5,1727.4414,394.5,1723.4414" style="stroke:#181818;stroke-width:1.0;"/><line style="stroke:#181818;stroke-width:1.0;" x1="392.5" x2="1254.5" y1="1723.4414" y2="1723.4414"/><text fill="#000000" font-family="sans-serif" font-size="13" lengthAdjust="spacing" textLength="31" x="404.5" y="1657.457">take(</text><text fill="#000000" font-family="sans-serif" font-size="13" lengthAdjust="spacing" textLength="148" x="412.5" y="1672.7676">currency: 0x9fE4..a6e0,</text><text fill="#000000" font-family="sans-serif" font-size="13" lengthAdjust="spacing" textLength="109" x="412.5" y="1688.0781">to: 0xf39F..2266,</text><text fill="#000000" font-family="sans-serif" font-size="13" lengthAdjust="spacing" textLength="240" x="412.5" y="1703.3887">amount: 4,,000,000,000,000,000,000)</text><text fill="#000000" font-family="sans-serif" font-size="13" lengthAdjust="spacing" textLength="70" x="404.5" y="1718.6992">18,856 gas</text><polygon fill="#181818" points="1376,1794.6836,1386,1798.6836,1376,1802.6836,1380,1798.6836" style="stroke:#181818;stroke-width:1.0;"/><line style="stroke:#181818;stroke-width:1.0;" x1="387.5" x2="1382" y1="1798.6836" y2="1798.6836"/><text fill="#000000" font-family="sans-serif" font-size="13" lengthAdjust="spacing" textLength="53" x="394.5" y="1748.0098">transfer(</text><text fill="#000000" font-family="sans-serif" font-size="13" lengthAdjust="spacing" textLength="151" x="402.5" y="1763.3203">recipient: 0xf39F..2266,</text><text fill="#000000" font-family="sans-serif" font-size="13" lengthAdjust="spacing" textLength="240" x="402.5" y="1778.6309">amount: 4,,000,000,000,000,000,000)</text><text fill="#000000" font-family="sans-serif" font-size="13" lengthAdjust="spacing" textLength="70" x="394.5" y="1793.9414">12,877 gas</text><polygon fill="#181818" points="398.5,1823.9941,388.5,1827.9941,398.5,1831.9941,394.5,1827.9941" style="stroke:#181818;stroke-width:1.0;"/><line style="stroke:#181818;stroke-width:1.0;stroke-dasharray:2.0,2.0;" x1="392.5" x2="1392" y1="1827.9941" y2="1827.9941"/><text fill="#000000" font-family="sans-serif" font-size="13" lengthAdjust="spacing" textLength="25" x="404.5" y="1823.252">true</text><polygon fill="#181818" points="1243.5,1837.9941,1253.5,1841.9941,1243.5,1845.9941,1247.5,1841.9941" style="stroke:#181818;stroke-width:1.0;"/><line style="stroke:#181818;stroke-width:1.0;stroke-dasharray:2.0,2.0;" x1="382.5" x2="1249.5" y1="1841.9941" y2="1841.9941"/><path d="M387,1854.9941 L387,1894.9941 L470,1894.9941 L470,1864.9941 L460,1854.9941 L387,1854.9941 " fill="#FEFFDD" style="stroke:#181818;stroke-width:0.5;"/><path d="M460,1854.9941 L460,1864.9941 L470,1864.9941 L460,1854.9941 " fill="#FEFFDD" style="stroke:#181818;stroke-width:0.5;"/><text fill="#000000" font-family="sans-serif" font-size="13" lengthAdjust="spacing" textLength="4" x="393" y="1872.5625">&#160;</text><text fill="#000000" font-family="sans-serif" font-size="13" lengthAdjust="spacing" textLength="62" x="393" y="1887.873">5,979 gas</text><polygon fill="#181818" points="393.5,1917.9258,383.5,1921.9258,393.5,1925.9258,389.5,1921.9258" style="stroke:#181818;stroke-width:1.0;"/><line style="stroke:#181818;stroke-width:1.0;stroke-dasharray:2.0,2.0;" x1="387.5" x2="1249.5" y1="1921.9258" y2="1921.9258"/><text fill="#000000" font-family="sans-serif" font-size="13" lengthAdjust="spacing" textLength="152" x="399.5" y="1917.1836">0x00000000..00000000</text><path d="M1265,1934.9258 L1265,1974.9258 L1348,1974.9258 L1348,1944.9258 L1338,1934.9258 L1265,1934.9258 " fill="#FEFFDD" style="stroke:#181818;stroke-width:0.5;"/><path d="M1338,1934.9258 L1338,1944.9258 L1348,1944.9258 L1338,1934.9258 " fill="#FEFFDD" style="stroke:#181818;stroke-width:0.5;"/><text fill="#000000" font-family="sans-serif" font-size="13" lengthAdjust="spacing" textLength="4" x="1271" y="1952.4941">&#160;</text><text fill="#000000" font-family="sans-serif" font-size="13" lengthAdjust="spacing" textLength="62" x="1271" y="1967.8047">6,058 gas</text><polygon fill="#181818" points="1238.5,1997.8574,1248.5,2001.8574,1238.5,2005.8574,1242.5,2001.8574" style="stroke:#181818;stroke-width:1.0;"/><line style="stroke:#181818;stroke-width:1.0;stroke-dasharray:2.0,2.0;" x1="377.5" x2="1244.5" y1="2001.8574" y2="2001.8574"/><text fill="#000000" font-family="sans-serif" font-size="13" lengthAdjust="spacing" textLength="196" x="384.5" y="1997.1152">result: 0x00000000..00000000</text><path d="M382,2014.8574 L382,2054.8574 L473,2054.8574 L473,2024.8574 L463,2014.8574 L382,2014.8574 " fill="#FEFFDD" style="stroke:#181818;stroke-width:0.5;"/><path d="M463,2014.8574 L463,2024.8574 L473,2024.8574 L463,2014.8574 " fill="#FEFFDD" style="stroke:#181818;stroke-width:0.5;"/><text fill="#000000" font-family="sans-serif" font-size="13" lengthAdjust="spacing" textLength="4" x="388" y="2032.4258">&#160;</text><text fill="#000000" font-family="sans-serif" font-size="13" lengthAdjust="spacing" textLength="70" x="388" y="2047.7363">22,175 gas</text><polygon fill="#3471CD" points="907.5,2108.4102,897.5,2112.4102,907.5,2116.4102,903.5,2112.4102" style="stroke:#3471CD;stroke-width:1.0;"/><line style="stroke:#3471CD;stroke-width:1.0;stroke-dasharray:2.0,2.0;" x1="901.5" x2="1254.5" y1="2112.4102" y2="2112.4102"/><text fill="#000000" font-family="sans-serif" font-size="13" lengthAdjust="spacing" textLength="55" x="913.5" y="2077.0469">results: [</text><text fill="#000000" font-family="sans-serif" font-size="13" lengthAdjust="spacing" textLength="36" x="921.5" y="2092.3574">0: 0x,</text><text fill="#000000" font-family="sans-serif" font-size="13" lengthAdjust="spacing" textLength="36" x="921.5" y="2107.668">1: 0x]</text><path d="M1260,2125.4102 L1260,2165.4102 L1343,2165.4102 L1343,2135.4102 L1333,2125.4102 L1260,2125.4102 " fill="#FEFFDD" style="stroke:#181818;stroke-width:0.5;"/><path d="M1333,2125.4102 L1333,2135.4102 L1343,2135.4102 L1333,2125.4102 " fill="#FEFFDD" style="stroke:#181818;stroke-width:0.5;"/><text fill="#000000" font-family="sans-serif" font-size="13" lengthAdjust="spacing" textLength="4" x="1266" y="2142.9785">&#160;</text><text fill="#000000" font-family="sans-serif" font-size="13" lengthAdjust="spacing" textLength="62" x="1266" y="2158.2891">8,478 gas</text><line style="stroke:#181818;stroke-width:1.0;" x1="897.5" x2="907.5" y1="2177.0313" y2="2173.0313"/><line style="stroke:#181818;stroke-width:1.0;" x1="897.5" x2="907.5" y1="2177.0313" y2="2181.0313"/><line style="stroke:#181818;stroke-width:1.0;stroke-dasharray:2.0,2.0;" x1="896.5" x2="1071" y1="2177.0313" y2="2177.0313"/><path d="M1077,2190.0313 L1077,2230.0313 L1160,2230.0313 L1160,2200.0313 L1150,2190.0313 L1077,2190.0313 " fill="#FEFFDD" style="stroke:#181818;stroke-width:0.5;"/><path d="M1150,2190.0313 L1150,2200.0313 L1160,2200.0313 L1150,2190.0313 " fill="#FEFFDD" style="stroke:#181818;stroke-width:0.5;"/><text fill="#000000" font-family="sans-serif" font-size="13" lengthAdjust="spacing" textLength="4" x="1083" y="2207.5996">&#160;</text><text fill="#000000" font-family="sans-serif" font-size="13" lengthAdjust="spacing" textLength="62" x="1083" y="2222.9102">7,273 gas</text><polygon fill="#181818" points="133,2283.584,123,2287.584,133,2291.584,129,2287.584" style="stroke:#181818;stroke-width:1.0;"/><line style="stroke:#181818;stroke-width:1.0;stroke-dasharray:2.0,2.0;" x1="127" x2="890.5" y1="2287.584" y2="2287.584"/><text fill="#000000" font-family="sans-serif" font-size="13" lengthAdjust="spacing" textLength="55" x="139" y="2252.2207">results: [</text><text fill="#000000" font-family="sans-serif" font-size="13" lengthAdjust="spacing" textLength="36" x="147" y="2267.5313">0: 0x,</text><text fill="#000000" font-family="sans-serif" font-size="13" lengthAdjust="spacing" textLength="36" x="147" y="2282.8418">1: 0x]</text><path d="M896,2300.584 L896,2340.584 L979,2340.584 L979,2310.584 L969,2300.584 L896,2300.584 " fill="#FEFFDD" style="stroke:#181818;stroke-width:0.5;"/><path d="M969,2300.584 L969,2310.584 L979,2310.584 L969,2300.584 " fill="#FEFFDD" style="stroke:#181818;stroke-width:0.5;"/><text fill="#000000" font-family="sans-serif" font-size="13" lengthAdjust="spacing" textLength="4" x="902" y="2318.1523">&#160;</text><text fill="#000000" font-family="sans-serif" font-size="13" lengthAdjust="spacing" textLength="62" x="902" y="2333.4629">8,785 gas</text><path d="M127,2351.2051 L127,2544.2051 L628,2544.2051 L628,2361.2051 L618,2351.2051 L127,2351.2051 " fill="#00FFFF" style="stroke:#181818;stroke-width:0.5;"/><path d="M618,2351.2051 L618,2361.2051 L628,2361.2051 L618,2351.2051 " fill="#00FFFF" style="stroke:#181818;stroke-width:0.5;"/><text fill="#000000" font-family="sans-serif" font-size="13" lengthAdjust="spacing" textLength="94" x="133" y="2368.7734">TransferSingle:</text><text fill="#000000" font-family="sans-serif" font-size="13" lengthAdjust="spacing" textLength="153" x="141" y="2384.084">operator: 0x5FC8..5707,</text><text fill="#000000" font-family="sans-serif" font-size="13" lengthAdjust="spacing" textLength="126" x="141" y="2399.3945">from: 0xf39F..2266,</text><text fill="#000000" font-family="sans-serif" font-size="13" lengthAdjust="spacing" textLength="108" x="141" y="2414.7051">to: 0xCf7E..0Fc9,</text><text fill="#000000" font-family="sans-serif" font-size="13" lengthAdjust="spacing" textLength="472" x="141" y="2430.0156">id: 912,823,093,544,680,850,579,175,995,568,,783,282,090,442,467,040,</text><text fill="#000000" font-family="sans-serif" font-size="13" lengthAdjust="spacing" textLength="221" x="141" y="2445.3262">value: 4,,000,000,000,000,000,000</text><text fill="#000000" font-family="sans-serif" font-size="13" lengthAdjust="spacing" textLength="94" x="133" y="2460.6367">TransferSingle:</text><text fill="#000000" font-family="sans-serif" font-size="13" lengthAdjust="spacing" textLength="148" x="141" y="2475.9473">operator: 0xCf7E..0Fc9,</text><text fill="#000000" font-family="sans-serif" font-size="13" lengthAdjust="spacing" textLength="125" x="141" y="2491.2578">from: 0xCf7E..0Fc9,</text><text fill="#000000" font-family="sans-serif" font-size="13" lengthAdjust="spacing" textLength="113" x="141" y="2506.5684">to: 0x0000..0000,</text><text fill="#000000" font-family="sans-serif" font-size="13" lengthAdjust="spacing" textLength="472" x="141" y="2521.8789">id: 912,823,093,544,680,850,579,175,995,568,,783,282,090,442,467,040,</text><text fill="#000000" font-family="sans-serif" font-size="13" lengthAdjust="spacing" textLength="221" x="141" y="2537.1895">value: 4,,000,000,000,000,000,000</text><path d="M1268,2351.2051 L1268,2422.2051 L1518,2422.2051 L1518,2361.2051 L1508,2351.2051 L1268,2351.2051 " fill="#00FFFF" style="stroke:#181818;stroke-width:0.5;"/><path d="M1508,2351.2051 L1508,2361.2051 L1518,2361.2051 L1508,2351.2051 " fill="#00FFFF" style="stroke:#181818;stroke-width:0.5;"/><text fill="#000000" font-family="sans-serif" font-size="13" lengthAdjust="spacing" textLength="56" x="1274" y="2368.7734">Transfer:</text><text fill="#000000" font-family="sans-serif" font-size="13" lengthAdjust="spacing" textLength="125" x="1282" y="2384.084">from: 0xCf7E..0Fc9,</text><text fill="#000000" font-family="sans-serif" font-size="13" lengthAdjust="spacing" textLength="109" x="1282" y="2399.3945">to: 0xf39F..2266,</text><text fill="#000000" font-family="sans-serif" font-size="13" lengthAdjust="spacing" textLength="221" x="1282" y="2414.7051">value: 4,,000,000,000,000,000,000</text><text fill="#888888" font-family="sans-serif" font-size="10" lengthAdjust="spacing" textLength="227" x="655" y="2653.0879">none, block 6, Mon, 11 Sep 2023 00:25:57 GMT</text><text fill="#888888" font-family="sans-serif" font-size="10" lengthAdjust="spacing" textLength="227" x="655" y="2664.8652">none, block 6, Mon, 11 Sep 2023 00:25:57 GMT</text><text fill="#888888" font-family="sans-serif" font-size="10" lengthAdjust="spacing" textLength="3" x="767" y="2676.6426">&#160;</text><!--SRC=[lLTDRziu4BthLn3DfGimNf8Y9L8836IzIVVGB8eqtJqqEL0KbGfrHPUMy_7lEvHbMOwLZnP11GJGqEHmPjwRDqfJDNEBFjNLybOlq0r7X-Z_glbIU7qRbSurraUrgor6-ToPhoZ1wCpL656AFje5OeJ5Y92CYKoawDtPnSzjZcnTT9TeqpYFtf2xCbRbPC9Oahn1Uec26GmKBRHlAbCjTDs4VQPCxMH2IgFQVS4C1Zew6YGpSzvEfqT77voRd-bQNri_dJxq94eZ9nEHahJr5CnWR3tznsTwFXy_cXSGXDPnTpGlWZ4yUkvMaD_xAlVQt-zxA4p29vCowT88PZ3sFUmVLQM5epgnf3qQp630qSPzjJK9YL_OPNDoFcDWHD6rTwi58dUIsbAmKjlK4CqBnXarrEYI5OJAaWkRs5B12Z6n5fh6UQoq8hdaN1YPQmqWDnQv6-jxUA9_NMriXcWQlODOFlWgM35KLKacMSpHkrjRHMVw3frQ-4LCo7O5TZjVDVVXGBSSdBollbLDXf8K9shjzjFI5XdY2MPIHHUTAu9EBlu9J48Xh2Zg6NCuxLcHeQLjZXSBxsxq_DJvu_dyxMMDa5jOhu5uuELEdCuw6k3masvtX_iQlx9_NDQCuvIcw5el0rch6mqrsFYFl6rMlaRHe3Gz8m_qzvMETc_F8hZ16BUgct0tn7ow9ZsE7eqgUXZK86buw-6rHKc026cPafZGMFC4ECdAFAOnLqGKDacaJ1F6yiBOd1332GNGSw9oPfZXJy4hNnrUHXAif1pWIpd58gPRW2U4q2T0tZHiXcuxvMgnRPiWb52L9rsVjC2wszhw1qKFwzv2QrLs3v2M3D_MI76C2I5ZVq0GocASnCakGpR1HRsi74wdlL24gtARaZBd0XnGZgMW3nrqcd8WYJgP_JLmzFaWvYcT_NqrxNKZGq0GOvVBjWG6P6kPeS_X7I7Ilq5njB-spGZjmnEENTmleFJzahVBrRm1NwMUBss_37nU1OJwXK8tEdWjXA7S251eLIWIdgjk3nsDObQc9o2afqQzPXGa9uKoH0sYk0f0GQuYbRjrtbGmwYLuHp_2G6jhsllk7eYwUy2pKfWIyeX6z89mECGhE3ustrULjqLxWQsDAsmnMsFto4KfD0qJByXWlpc2urntsIosWt44XiTQw4Nj81Wcb3xV3KEHrgMzyBfUbjQVUlUj3R64bv6MRDn8m1N8Xw8CWoHXec8iECU99D1L1107S5A1bH9O91BZLCOmI21AHJ3d37EOD8IlC-mezNY2UCY5a2t5LB8N8B_DrjKmcIaLujmQMzrqyEzrv5xclpd9DZt6dXz-42YBWIC9xSTXEqbyTVsbGQuSf0uE9OIo9l3uvYrnBsl9LBjpl3KR_TMkvMxbFNJF_GXZrspv9LMNKDZa1S1klh_2R5vJ-EqhZHKiqmUbtzorgLtxDV1yqO4NgHhMV4nT7fpVAjLbdM0YvF3yMf2pb_ZP0Py5akuxsimg4Zos5QBXxUg9a816gNoIHfj92wA9MHh_ygqxX8I-MiV_-0VVHiW-LlNrt6PFVjUDQ5mq8d7HApL_z8BUVoR-tQWsyU-khkFVikBtnh_zMFmJRK7g_qlQ1Ibx9ebTO7xcSdZx0G00]--></g></svg>