<?xml version="1.0" encoding="us-ascii" standalone="no"?><svg xmlns="http://www.w3.org/2000/svg" xmlns:xlink="http://www.w3.org/1999/xlink" contentStyleType="text/css" height="2656px" preserveAspectRatio="none" style="width:1534px;height:2656px;background:#FFFFFF;" version="1.1" viewBox="0 0 1534 2656" width="1534px" zoomAndPan="magnify"><defs/><g><text fill="#000000" font-family="sans-serif" font-size="14" font-weight="bold" lengthAdjust="spacing" textLength="170" x="683.5" y="28.5352">Uniswap v4 - Withdraw</text><rect fill="#FFFFFF" height="14" style="stroke:#181818;stroke-width:1.0;" width="10" x="372.5" y="347.7031"/><rect fill="#FFFFFF" height="931.043" style="stroke:#181818;stroke-width:1.0;" width="10" x="372.5" y="1040.1934"/><rect fill="#FFFFFF" height="190.4844" style="stroke:#181818;stroke-width:1.0;" width="10" x="377.5" y="1296.541"/><rect fill="#FFFFFF" height="40.3105" style="stroke:#181818;stroke-width:1.0;" width="10" x="382.5" y="1425.7148"/><rect fill="#FFFFFF" height="118.5527" style="stroke:#181818;stroke-width:1.0;" width="10" x="377.5" y="1692.8203"/><rect fill="#FFFFFF" height="1564.9805" style="stroke:#181818;stroke-width:1.0;" width="10" x="886.5" y="691.9824"/><rect fill="#FFFFFF" height="376.2793" style="stroke:#181818;stroke-width:1.0;" width="10" x="891.5" y="1175.3672"/><rect fill="#809ECB" height="1409.8066" style="stroke:#181818;stroke-width:1.0;" width="10" x="1067" y="736.6035"/><rect fill="#FFFFFF" height="1101.5273" style="stroke:#181818;stroke-width:1.0;" width="10" x="1250.5" y="980.2617"/><rect fill="#FFFFFF" height="791.1797" style="stroke:#181818;stroke-width:1.0;" width="10" x="1255.5" y="1100.125"/><rect fill="#FFFFFF" height="29.3105" style="stroke:#181818;stroke-width:1.0;" width="10" x="1388" y="1768.0625"/><rect fill="none" height="314.9688" style="stroke:#000000;stroke-width:1.5;" width="597" x="10" y="135.9766"/><rect fill="none" height="2054.3652" style="stroke:#000000;stroke-width:1.5;" width="1518" x="10" y="464.9453"/><line style="stroke:#181818;stroke-width:0.5;stroke-dasharray:5.0,5.0;" x1="122" x2="122" y1="118.9766" y2="2536.3105"/><line style="stroke:#181818;stroke-width:0.5;stroke-dasharray:5.0,5.0;" x1="377" x2="377" y1="118.9766" y2="2536.3105"/><line style="stroke:#181818;stroke-width:0.5;stroke-dasharray:5.0,5.0;" x1="891.5" x2="891.5" y1="118.9766" y2="2536.3105"/><line style="stroke:#181818;stroke-width:0.5;stroke-dasharray:5.0,5.0;" x1="1071.5" x2="1071.5" y1="118.9766" y2="2536.3105"/><line style="stroke:#181818;stroke-width:0.5;stroke-dasharray:5.0,5.0;" x1="1255.5" x2="1255.5" y1="118.9766" y2="2536.3105"/><line style="stroke:#181818;stroke-width:0.5;stroke-dasharray:5.0,5.0;" x1="1392.5" x2="1392.5" y1="118.9766" y2="2536.3105"/><text fill="#000000" font-family="sans-serif" font-size="14" lengthAdjust="spacing" textLength="90" x="74" y="116.0234">0xf39f..2266</text><ellipse cx="122" cy="50.9883" fill="#E2E2F0" rx="8" ry="8" style="stroke:#181818;stroke-width:0.5;"/><path d="M122,58.9883 L122,85.9883 M109,66.9883 L135,66.9883 M122,85.9883 L109,100.9883 M122,85.9883 L135,100.9883 " fill="none" style="stroke:#181818;stroke-width:0.5;"/><text fill="#000000" font-family="sans-serif" font-size="14" lengthAdjust="spacing" textLength="90" x="74" y="2548.8457">0xf39f..2266</text><ellipse cx="122" cy="2560.2988" fill="#E2E2F0" rx="8" ry="8" style="stroke:#181818;stroke-width:0.5;"/><path d="M122,2568.2988 L122,2595.2988 M109,2576.2988 L135,2576.2988 M122,2595.2988 L109,2610.2988 M122,2595.2988 L135,2610.2988 " fill="none" style="stroke:#181818;stroke-width:0.5;"/><rect fill="#E2E2F0" height="63.4648" rx="2.5" ry="2.5" style="stroke:#181818;stroke-width:0.5;" width="143" x="306" y="54.5117"/><text fill="#000000" font-family="sans-serif" font-size="14" font-style="italic" lengthAdjust="spacing" textLength="129" x="313" y="75.0469">&#171;Uniswap v4 Core&#187;</text><text fill="#000000" font-family="sans-serif" font-size="14" font-style="italic" lengthAdjust="spacing" textLength="104" x="325.5" y="91.5352">&#171;PoolManager&#187;</text><text fill="#000000" font-family="sans-serif" font-size="14" lengthAdjust="spacing" textLength="85" x="335" y="108.0234">0xcf7e..0fc9</text><rect fill="#E2E2F0" height="63.4648" rx="2.5" ry="2.5" style="stroke:#181818;stroke-width:0.5;" width="143" x="306" y="2535.3105"/><text fill="#000000" font-family="sans-serif" font-size="14" font-style="italic" lengthAdjust="spacing" textLength="129" x="313" y="2555.8457">&#171;Uniswap v4 Core&#187;</text><text fill="#000000" font-family="sans-serif" font-size="14" font-style="italic" lengthAdjust="spacing" textLength="104" x="325.5" y="2572.334">&#171;PoolManager&#187;</text><text fill="#000000" font-family="sans-serif" font-size="14" lengthAdjust="spacing" textLength="85" x="335" y="2588.8223">0xcf7e..0fc9</text><rect fill="#E2E2F0" height="46.9766" rx="2.5" ry="2.5" style="stroke:#181818;stroke-width:0.5;" width="144" x="819.5" y="71"/><text fill="#000000" font-family="sans-serif" font-size="14" font-style="italic" lengthAdjust="spacing" textLength="130" x="826.5" y="91.5352">&#171;UniswapV4Caller&#187;</text><text fill="#000000" font-family="sans-serif" font-size="14" lengthAdjust="spacing" textLength="92" x="845.5" y="108.0234">0x5fc8..5707</text><rect fill="#E2E2F0" height="46.9766" rx="2.5" ry="2.5" style="stroke:#181818;stroke-width:0.5;" width="144" x="819.5" y="2535.3105"/><text fill="#000000" font-family="sans-serif" font-size="14" font-style="italic" lengthAdjust="spacing" textLength="130" x="826.5" y="2555.8457">&#171;UniswapV4Caller&#187;</text><text fill="#000000" font-family="sans-serif" font-size="14" lengthAdjust="spacing" textLength="92" x="845.5" y="2572.334">0x5fc8..5707</text><rect fill="#E2E2F0" height="46.9766" rx="2.5" ry="2.5" style="stroke:#181818;stroke-width:0.5;" width="197" x="973.5" y="71"/><text fill="#000000" font-family="sans-serif" font-size="14" font-style="italic" lengthAdjust="spacing" textLength="183" x="980.5" y="91.5352">&#171;UniswapV4RouterLibrary&#187;</text><text fill="#000000" font-family="sans-serif" font-size="14" lengthAdjust="spacing" textLength="92" x="1026" y="108.0234">0x5fbd..0aa3</text><rect fill="#E2E2F0" height="46.9766" rx="2.5" ry="2.5" style="stroke:#181818;stroke-width:0.5;" width="197" x="973.5" y="2535.3105"/><text fill="#000000" font-family="sans-serif" font-size="14" font-style="italic" lengthAdjust="spacing" textLength="183" x="980.5" y="2555.8457">&#171;UniswapV4RouterLibrary&#187;</text><text fill="#000000" font-family="sans-serif" font-size="14" lengthAdjust="spacing" textLength="92" x="1026" y="2572.334">0x5fbd..0aa3</text><rect fill="#E2E2F0" height="46.9766" rx="2.5" ry="2.5" style="stroke:#181818;stroke-width:0.5;" width="150" x="1180.5" y="71"/><text fill="#000000" font-family="sans-serif" font-size="14" font-style="italic" lengthAdjust="spacing" textLength="136" x="1187.5" y="91.5352">&#171;UniswapV4Router&#187;</text><text fill="#000000" font-family="sans-serif" font-size="14" lengthAdjust="spacing" textLength="90" x="1210.5" y="108.0234">0xdc64..f6c9</text><rect fill="#E2E2F0" height="46.9766" rx="2.5" ry="2.5" style="stroke:#181818;stroke-width:0.5;" width="150" x="1180.5" y="2535.3105"/><text fill="#000000" font-family="sans-serif" font-size="14" font-style="italic" lengthAdjust="spacing" textLength="136" x="1187.5" y="2555.8457">&#171;UniswapV4Router&#187;</text><text fill="#000000" font-family="sans-serif" font-size="14" lengthAdjust="spacing" textLength="90" x="1210.5" y="2572.334">0xdc64..f6c9</text><rect fill="#E2E2F0" height="63.4648" rx="2.5" ry="2.5" style="stroke:#181818;stroke-width:0.5;" width="105" x="1340.5" y="54.5117"/><text fill="#000000" font-family="sans-serif" font-size="14" font-style="italic" lengthAdjust="spacing" textLength="62" x="1362" y="75.0469">&#171;token0&#187;</text><text fill="#000000" font-family="sans-serif" font-size="14" font-style="italic" lengthAdjust="spacing" textLength="88" x="1349" y="91.5352">&#171;TestERC20&#187;</text><text fill="#000000" font-family="sans-serif" font-size="14" lengthAdjust="spacing" textLength="91" x="1347.5" y="108.0234">0x9fe4..a6e0</text><rect fill="#E2E2F0" height="63.4648" rx="2.5" ry="2.5" style="stroke:#181818;stroke-width:0.5;" width="105" x="1340.5" y="2535.3105"/><text fill="#000000" font-family="sans-serif" font-size="14" font-style="italic" lengthAdjust="spacing" textLength="62" x="1362" y="2555.8457">&#171;token0&#187;</text><text fill="#000000" font-family="sans-serif" font-size="14" font-style="italic" lengthAdjust="spacing" textLength="88" x="1349" y="2572.334">&#171;TestERC20&#187;</text><text fill="#000000" font-family="sans-serif" font-size="14" lengthAdjust="spacing" textLength="91" x="1347.5" y="2588.8223">0x9fe4..a6e0</text><rect fill="#FFFFFF" height="14" style="stroke:#181818;stroke-width:1.0;" width="10" x="372.5" y="347.7031"/><rect fill="#FFFFFF" height="931.043" style="stroke:#181818;stroke-width:1.0;" width="10" x="372.5" y="1040.1934"/><rect fill="#FFFFFF" height="190.4844" style="stroke:#181818;stroke-width:1.0;" width="10" x="377.5" y="1296.541"/><rect fill="#FFFFFF" height="40.3105" style="stroke:#181818;stroke-width:1.0;" width="10" x="382.5" y="1425.7148"/><rect fill="#FFFFFF" height="118.5527" style="stroke:#181818;stroke-width:1.0;" width="10" x="377.5" y="1692.8203"/><rect fill="#FFFFFF" height="1564.9805" style="stroke:#181818;stroke-width:1.0;" width="10" x="886.5" y="691.9824"/><rect fill="#FFFFFF" height="376.2793" style="stroke:#181818;stroke-width:1.0;" width="10" x="891.5" y="1175.3672"/><rect fill="#809ECB" height="1409.8066" style="stroke:#181818;stroke-width:1.0;" width="10" x="1067" y="736.6035"/><rect fill="#FFFFFF" height="1101.5273" style="stroke:#181818;stroke-width:1.0;" width="10" x="1250.5" y="980.2617"/><rect fill="#FFFFFF" height="791.1797" style="stroke:#181818;stroke-width:1.0;" width="10" x="1255.5" y="1100.125"/><rect fill="#FFFFFF" height="29.3105" style="stroke:#181818;stroke-width:1.0;" width="10" x="1388" y="1768.0625"/><path d="M10,135.9766 L602,135.9766 L602,143.2871 L592,153.2871 L10,153.2871 L10,135.9766 " fill="#EEEEEE" style="stroke:#000000;stroke-width:1.5;"/><rect fill="none" height="314.9688" style="stroke:#000000;stroke-width:1.5;" width="597" x="10" y="135.9766"/><text fill="#000000" font-family="sans-serif" font-size="13" font-weight="bold" lengthAdjust="spacing" textLength="547" x="25" y="149.5449">0x81ef52fae7c0a4d2421c1caf2d018f45e6ef9c1c0c3a5a13b39a90b8445c8baa</text><path d="M20,158.2871 L20,275.2871 L224,275.2871 L224,168.2871 L214,158.2871 L20,158.2871 " fill="#FEFFDD" style="stroke:#181818;stroke-width:0.5;"/><path d="M214,158.2871 L214,168.2871 L224,168.2871 L214,158.2871 " fill="#FEFFDD" style="stroke:#181818;stroke-width:0.5;"/><text fill="#000000" font-family="sans-serif" font-size="13" lengthAdjust="spacing" textLength="64" x="26" y="175.8555">Nonce: 17</text><text fill="#000000" font-family="sans-serif" font-size="13" lengthAdjust="spacing" textLength="183" x="26" y="191.166">Gas Price: 3.586031143 Gwei</text><text fill="#000000" font-family="sans-serif" font-size="13" lengthAdjust="spacing" textLength="113" x="26" y="206.4766">Max Fee: 5.0 Gwei</text><text fill="#000000" font-family="sans-serif" font-size="13" lengthAdjust="spacing" textLength="137" x="26" y="221.7871">Max Priority: 3.0 Gwei</text><text fill="#000000" font-family="sans-serif" font-size="13" lengthAdjust="spacing" textLength="111" x="26" y="237.0977">Gas Limit: 67,697</text><text fill="#000000" font-family="sans-serif" font-size="13" lengthAdjust="spacing" textLength="110" x="26" y="252.4082">Gas Used: 46,289</text><text fill="#000000" font-family="sans-serif" font-size="13" lengthAdjust="spacing" textLength="86" x="26" y="267.7188">Tx Fee: 0 ETH</text><polygon fill="#181818" points="360.5,343.7031,370.5,347.7031,360.5,351.7031,364.5,347.7031" style="stroke:#181818;stroke-width:1.0;"/><line style="stroke:#181818;stroke-width:1.0;" x1="122" x2="366.5" y1="347.7031" y2="347.7031"/><text fill="#000000" font-family="sans-serif" font-size="13" lengthAdjust="spacing" textLength="116" x="129" y="297.0293">setApprovalForAll(</text><text fill="#000000" font-family="sans-serif" font-size="13" lengthAdjust="spacing" textLength="153" x="137" y="312.3398">operator: 0x5FC8..5707,</text><text fill="#000000" font-family="sans-serif" font-size="13" lengthAdjust="spacing" textLength="95" x="137" y="327.6504">approved: true)</text><text fill="#000000" font-family="sans-serif" font-size="13" lengthAdjust="spacing" textLength="70" x="129" y="342.9609">24,717 gas</text><polygon fill="#181818" points="133,357.7031,123,361.7031,133,365.7031,129,361.7031" style="stroke:#181818;stroke-width:1.0;"/><line style="stroke:#181818;stroke-width:1.0;stroke-dasharray:2.0,2.0;" x1="127" x2="376.5" y1="361.7031" y2="361.7031"/><path d="M286,374.7031 L286,445.7031 L468,445.7031 L468,384.7031 L458,374.7031 L286,374.7031 " fill="#00FFFF" style="stroke:#181818;stroke-width:0.5;"/><path d="M458,374.7031 L458,384.7031 L468,384.7031 L458,374.7031 " fill="#00FFFF" style="stroke:#181818;stroke-width:0.5;"/><text fill="#000000" font-family="sans-serif" font-size="13" lengthAdjust="spacing" textLength="97" x="292" y="392.2715">ApprovalForAll:</text><text fill="#000000" font-family="sans-serif" font-size="13" lengthAdjust="spacing" textLength="146" x="300" y="407.582">account: 0xf39F..2266,</text><text fill="#000000" font-family="sans-serif" font-size="13" lengthAdjust="spacing" textLength="153" x="300" y="422.8926">operator: 0x5FC8..5707,</text><text fill="#000000" font-family="sans-serif" font-size="13" lengthAdjust="spacing" textLength="91" x="300" y="438.2031">approved: true</text><path d="M10,464.9453 L620,464.9453 L620,472.2559 L610,482.2559 L10,482.2559 L10,464.9453 " fill="#EEEEEE" style="stroke:#000000;stroke-width:1.5;"/><rect fill="none" height="2054.3652" style="stroke:#000000;stroke-width:1.5;" width="1518" x="10" y="464.9453"/><text fill="#000000" font-family="sans-serif" font-size="13" font-weight="bold" lengthAdjust="spacing" textLength="565" x="25" y="478.5137">0x976339bbf4dfb4145af25029d34fd5a2d5919fa065ad4cb0e34d30907e91b940</text><path d="M20,487.2559 L20,604.2559 L224,604.2559 L224,497.2559 L214,487.2559 L20,487.2559 " fill="#FEFFDD" style="stroke:#181818;stroke-width:0.5;"/><path d="M214,487.2559 L214,497.2559 L224,497.2559 L214,487.2559 " fill="#FEFFDD" style="stroke:#181818;stroke-width:0.5;"/><text fill="#000000" font-family="sans-serif" font-size="13" lengthAdjust="spacing" textLength="64" x="26" y="504.8242">Nonce: 18</text><text fill="#000000" font-family="sans-serif" font-size="13" lengthAdjust="spacing" textLength="183" x="26" y="520.1348">Gas Price: 3.586031143 Gwei</text><text fill="#000000" font-family="sans-serif" font-size="13" lengthAdjust="spacing" textLength="113" x="26" y="535.4453">Max Fee: 5.0 Gwei</text><text fill="#000000" font-family="sans-serif" font-size="13" lengthAdjust="spacing" textLength="137" x="26" y="550.7559">Max Priority: 3.0 Gwei</text><text fill="#000000" font-family="sans-serif" font-size="13" lengthAdjust="spacing" textLength="119" x="26" y="566.0664">Gas Limit: 194,347</text><text fill="#000000" font-family="sans-serif" font-size="13" lengthAdjust="spacing" textLength="118" x="26" y="581.377">Gas Used: 140,704</text><text fill="#000000" font-family="sans-serif" font-size="13" lengthAdjust="spacing" textLength="114" x="26" y="596.6875">Tx Fee: 0.001 ETH</text><polygon fill="#181818" points="874.5,687.9824,884.5,691.9824,874.5,695.9824,878.5,691.9824" style="stroke:#181818;stroke-width:1.0;"/><line style="stroke:#181818;stroke-width:1.0;" x1="122" x2="880.5" y1="691.9824" y2="691.9824"/><text fill="#000000" font-family="sans-serif" font-size="13" lengthAdjust="spacing" textLength="61" x="129" y="625.998">withdraw(</text><text fill="#000000" font-family="sans-serif" font-size="13" lengthAdjust="spacing" textLength="130" x="137" y="641.3086">token: 0x9fE4..a6e0,</text><text fill="#000000" font-family="sans-serif" font-size="13" lengthAdjust="spacing" textLength="151" x="137" y="656.6191">recipient: 0xf39F..2266,</text><text fill="#000000" font-family="sans-serif" font-size="13" lengthAdjust="spacing" textLength="240" x="137" y="671.9297">amount: 4,,000,000,000,000,000,000)</text><text fill="#000000" font-family="sans-serif" font-size="13" lengthAdjust="spacing" textLength="78" x="129" y="687.2402">123,104 gas</text><line style="stroke:#181818;stroke-width:1.0;" x1="1065" x2="1055" y1="736.6035" y2="732.6035"/><line style="stroke:#181818;stroke-width:1.0;" x1="1065" x2="1055" y1="736.6035" y2="740.6035"/><line style="stroke:#181818;stroke-width:1.0;" x1="896.5" x2="1066" y1="736.6035" y2="736.6035"/><text fill="#000000" font-family="sans-serif" font-size="13" lengthAdjust="spacing" textLength="80" x="903.5" y="716.5508">0x028dd178</text><text fill="#000000" font-family="sans-serif" font-size="13" lengthAdjust="spacing" textLength="78" x="903.5" y="731.8613">114,334 gas</text><polygon fill="#3471CD" points="1238.5,976.2617,1248.5,980.2617,1238.5,984.2617,1242.5,980.2617" style="stroke:#3471CD;stroke-width:1.0;"/><line style="stroke:#3471CD;stroke-width:1.0;" x1="896.5" x2="1244.5" y1="980.2617" y2="980.2617"/><text fill="#000000" font-family="sans-serif" font-size="13" lengthAdjust="spacing" textLength="53" x="903.5" y="761.1719">process(</text><text fill="#000000" font-family="sans-serif" font-size="13" lengthAdjust="spacing" textLength="41" x="911.5" y="776.4824">calls: [</text><text fill="#000000" font-family="sans-serif" font-size="13" lengthAdjust="spacing" textLength="20" x="919.5" y="791.793">0: [</text><text fill="#000000" font-family="sans-serif" font-size="13" lengthAdjust="spacing" textLength="137" x="927.5" y="807.1035">target: 0x5FC8..5707,</text><text fill="#000000" font-family="sans-serif" font-size="13" lengthAdjust="spacing" textLength="64" x="927.5" y="822.4141">callType: ,</text><text fill="#000000" font-family="sans-serif" font-size="13" lengthAdjust="spacing" textLength="85" x="927.5" y="837.7246">results: false,</text><text fill="#000000" font-family="sans-serif" font-size="13" lengthAdjust="spacing" textLength="53" x="927.5" y="853.0352">value: 0,</text><text fill="#000000" font-family="sans-serif" font-size="13" lengthAdjust="spacing" textLength="194" x="927.5" y="868.3457">data: 0x0e9b7186..9d900000],</text><text fill="#000000" font-family="sans-serif" font-size="13" lengthAdjust="spacing" textLength="20" x="919.5" y="883.6563">1: [</text><text fill="#000000" font-family="sans-serif" font-size="13" lengthAdjust="spacing" textLength="132" x="927.5" y="898.9668">target: 0xCf7E..0Fc9,</text><text fill="#000000" font-family="sans-serif" font-size="13" lengthAdjust="spacing" textLength="64" x="927.5" y="914.2773">callType: ,</text><text fill="#000000" font-family="sans-serif" font-size="13" lengthAdjust="spacing" textLength="85" x="927.5" y="929.5879">results: false,</text><text fill="#000000" font-family="sans-serif" font-size="13" lengthAdjust="spacing" textLength="53" x="927.5" y="944.8984">value: 0,</text><text fill="#000000" font-family="sans-serif" font-size="13" lengthAdjust="spacing" textLength="198" x="927.5" y="960.209">data: 0x0b0d9c09..9d900000]])</text><text fill="#000000" font-family="sans-serif" font-size="13" lengthAdjust="spacing" textLength="78" x="903.5" y="975.5195">107,385 gas</text><polygon fill="#181818" points="393.5,1036.1934,383.5,1040.1934,393.5,1044.1934,389.5,1040.1934" style="stroke:#181818;stroke-width:1.0;"/><line style="stroke:#181818;stroke-width:1.0;" x1="387.5" x2="1249.5" y1="1040.1934" y2="1040.1934"/><text fill="#000000" font-family="sans-serif" font-size="13" lengthAdjust="spacing" textLength="31" x="399.5" y="1004.8301">lock(</text><text fill="#000000" font-family="sans-serif" font-size="13" lengthAdjust="spacing" textLength="191" x="407.5" y="1020.1406">data: 0x00000000..00000000)</text><text fill="#000000" font-family="sans-serif" font-size="13" lengthAdjust="spacing" textLength="70" x="399.5" y="1035.4512">98,968 gas</text><polygon fill="#181818" points="1243.5,1096.125,1253.5,1100.125,1243.5,1104.125,1247.5,1100.125" style="stroke:#181818;stroke-width:1.0;"/><line style="stroke:#181818;stroke-width:1.0;" x1="382.5" x2="1249.5" y1="1100.125" y2="1100.125"/><text fill="#000000" font-family="sans-serif" font-size="13" lengthAdjust="spacing" textLength="87" x="389.5" y="1064.7617">lockAcquired(</text><text fill="#000000" font-family="sans-serif" font-size="13" lengthAdjust="spacing" textLength="248" x="397.5" y="1080.0723">encodedCalls: 0x00000000..00000000)</text><text fill="#000000" font-family="sans-serif" font-size="13" lengthAdjust="spacing" textLength="70" x="389.5" y="1095.3828">76,800 gas</text><polygon fill="#181818" points="912.5,1171.3672,902.5,1175.3672,912.5,1179.3672,908.5,1175.3672" style="stroke:#181818;stroke-width:1.0;"/><line style="stroke:#181818;stroke-width:1.0;" x1="906.5" x2="1254.5" y1="1175.3672" y2="1175.3672"/><text fill="#000000" font-family="sans-serif" font-size="13" lengthAdjust="spacing" textLength="217" x="918.5" y="1124.6934">transferFromCallerToPoolManager(</text><text fill="#000000" font-family="sans-serif" font-size="13" lengthAdjust="spacing" textLength="130" x="926.5" y="1140.0039">token: 0x9fE4..a6e0,</text><text fill="#000000" font-family="sans-serif" font-size="13" lengthAdjust="spacing" textLength="240" x="926.5" y="1155.3145">amount: 4,,000,000,000,000,000,000)</text><text fill="#000000" font-family="sans-serif" font-size="13" lengthAdjust="spacing" textLength="70" x="918.5" y="1170.625">51,949 gas</text><polygon fill="#181818" points="398.5,1292.541,388.5,1296.541,398.5,1300.541,394.5,1296.541" style="stroke:#181818;stroke-width:1.0;"/><line style="stroke:#181818;stroke-width:1.0;" x1="392.5" x2="890.5" y1="1296.541" y2="1296.541"/><text fill="#000000" font-family="sans-serif" font-size="13" lengthAdjust="spacing" textLength="114" x="404.5" y="1199.9355">safeTransferFrom(</text><text fill="#000000" font-family="sans-serif" font-size="13" lengthAdjust="spacing" textLength="126" x="412.5" y="1215.2461">from: 0xf39F..2266,</text><text fill="#000000" font-family="sans-serif" font-size="13" lengthAdjust="spacing" textLength="108" x="412.5" y="1230.5566">to: 0xCf7E..0Fc9,</text><text fill="#000000" font-family="sans-serif" font-size="13" lengthAdjust="spacing" textLength="472" x="412.5" y="1245.8672">id: 912,823,093,544,680,850,579,175,995,568,,783,282,090,442,467,040,</text><text fill="#000000" font-family="sans-serif" font-size="13" lengthAdjust="spacing" textLength="225" x="412.5" y="1261.1777">value: 4,,000,000,000,000,000,000,</text><text fill="#000000" font-family="sans-serif" font-size="13" lengthAdjust="spacing" textLength="55" x="412.5" y="1276.4883">data: 0x)</text><text fill="#000000" font-family="sans-serif" font-size="13" lengthAdjust="spacing" textLength="70" x="404.5" y="1291.7988">51,182 gas</text><line style="stroke:#181818;stroke-width:1.0;" x1="387.5" x2="434.5" y1="1412.7148" y2="1412.7148"/><line style="stroke:#181818;stroke-width:1.0;" x1="434.5" x2="434.5" y1="1412.7148" y2="1425.7148"/><line style="stroke:#181818;stroke-width:1.0;" x1="393.5" x2="434.5" y1="1425.7148" y2="1425.7148"/><polygon fill="#181818" points="403.5,1421.7148,393.5,1425.7148,403.5,1429.7148,399.5,1425.7148" style="stroke:#181818;stroke-width:1.0;"/><text fill="#000000" font-family="sans-serif" font-size="13" lengthAdjust="spacing" textLength="131" x="399.5" y="1316.1094">onERC1155Received(</text><text fill="#000000" font-family="sans-serif" font-size="13" lengthAdjust="spacing" textLength="92" x="407.5" y="1331.4199">0x5FC8..5707,</text><text fill="#000000" font-family="sans-serif" font-size="13" lengthAdjust="spacing" textLength="88" x="407.5" y="1346.7305">0xf39F..2266,</text><text fill="#000000" font-family="sans-serif" font-size="13" lengthAdjust="spacing" textLength="472" x="407.5" y="1362.041">id: 912,823,093,544,680,850,579,175,995,568,,783,282,090,442,467,040,</text><text fill="#000000" font-family="sans-serif" font-size="13" lengthAdjust="spacing" textLength="225" x="407.5" y="1377.3516">value: 4,,000,000,000,000,000,000,</text><text fill="#000000" font-family="sans-serif" font-size="13" lengthAdjust="spacing" textLength="20" x="407.5" y="1392.6621">0x)</text><text fill="#000000" font-family="sans-serif" font-size="13" lengthAdjust="spacing" textLength="70" x="399.5" y="1407.9727">22,717 gas</text><line style="stroke:#181818;stroke-width:1.0;stroke-dasharray:2.0,2.0;" x1="392.5" x2="434.5" y1="1465.0254" y2="1465.0254"/><line style="stroke:#181818;stroke-width:1.0;stroke-dasharray:2.0,2.0;" x1="434.5" x2="434.5" y1="1465.0254" y2="1478.0254"/><line style="stroke:#181818;stroke-width:1.0;stroke-dasharray:2.0,2.0;" x1="387.5" x2="434.5" y1="1478.0254" y2="1478.0254"/><polygon fill="#181818" points="397.5,1474.0254,387.5,1478.0254,397.5,1482.0254,393.5,1478.0254" style="stroke:#181818;stroke-width:1.0;"/><text fill="#000000" font-family="sans-serif" font-size="13" lengthAdjust="spacing" textLength="75" x="399.5" y="1460.2832">0xf23a6e61</text><polygon fill="#181818" points="879.5,1483.0254,889.5,1487.0254,879.5,1491.0254,883.5,1487.0254" style="stroke:#181818;stroke-width:1.0;"/><line style="stroke:#181818;stroke-width:1.0;stroke-dasharray:2.0,2.0;" x1="382.5" x2="885.5" y1="1487.0254" y2="1487.0254"/><path d="M387,1500.0254 L387,1540.0254 L478,1540.0254 L478,1510.0254 L468,1500.0254 L387,1500.0254 " fill="#FEFFDD" style="stroke:#181818;stroke-width:0.5;"/><path d="M468,1500.0254 L468,1510.0254 L478,1510.0254 L468,1500.0254 " fill="#FEFFDD" style="stroke:#181818;stroke-width:0.5;"/><text fill="#000000" font-family="sans-serif" font-size="13" lengthAdjust="spacing" textLength="4" x="393" y="1517.5938">&#160;</text><text fill="#000000" font-family="sans-serif" font-size="13" lengthAdjust="spacing" textLength="70" x="393" y="1532.9043">28,465 gas</text><polygon fill="#181818" points="1243.5,1547.6465,1253.5,1551.6465,1243.5,1555.6465,1247.5,1551.6465" style="stroke:#181818;stroke-width:1.0;"/><line style="stroke:#181818;stroke-width:1.0;stroke-dasharray:2.0,2.0;" x1="896.5" x2="1249.5" y1="1551.6465" y2="1551.6465"/><path d="M901,1564.6465 L901,1604.6465 L972,1604.6465 L972,1574.6465 L962,1564.6465 L901,1564.6465 " fill="#FEFFDD" style="stroke:#181818;stroke-width:0.5;"/><path d="M962,1564.6465 L962,1574.6465 L972,1574.6465 L962,1564.6465 " fill="#FEFFDD" style="stroke:#181818;stroke-width:0.5;"/><text fill="#000000" font-family="sans-serif" font-size="13" lengthAdjust="spacing" textLength="4" x="907" y="1582.2148">&#160;</text><text fill="#000000" font-family="sans-serif" font-size="13" lengthAdjust="spacing" textLength="50" x="907" y="1597.5254">767 gas</text><polygon fill="#181818" points="398.5,1688.8203,388.5,1692.8203,398.5,1696.8203,394.5,1692.8203" style="stroke:#181818;stroke-width:1.0;"/><line style="stroke:#181818;stroke-width:1.0;" x1="392.5" x2="1254.5" y1="1692.8203" y2="1692.8203"/><text fill="#000000" font-family="sans-serif" font-size="13" lengthAdjust="spacing" textLength="31" x="404.5" y="1626.8359">take(</text><text fill="#000000" font-family="sans-serif" font-size="13" lengthAdjust="spacing" textLength="148" x="412.5" y="1642.1465">currency: 0x9fE4..a6e0,</text><text fill="#000000" font-family="sans-serif" font-size="13" lengthAdjust="spacing" textLength="109" x="412.5" y="1657.457">to: 0xf39F..2266,</text><text fill="#000000" font-family="sans-serif" font-size="13" lengthAdjust="spacing" textLength="240" x="412.5" y="1672.7676">amount: 4,,000,000,000,000,000,000)</text><text fill="#000000" font-family="sans-serif" font-size="13" lengthAdjust="spacing" textLength="70" x="404.5" y="1688.0781">18,856 gas</text><polygon fill="#181818" points="1376,1764.0625,1386,1768.0625,1376,1772.0625,1380,1768.0625" style="stroke:#181818;stroke-width:1.0;"/><line style="stroke:#181818;stroke-width:1.0;" x1="387.5" x2="1382" y1="1768.0625" y2="1768.0625"/><text fill="#000000" font-family="sans-serif" font-size="13" lengthAdjust="spacing" textLength="53" x="394.5" y="1717.3887">transfer(</text><text fill="#000000" font-family="sans-serif" font-size="13" lengthAdjust="spacing" textLength="151" x="402.5" y="1732.6992">recipient: 0xf39F..2266,</text><text fill="#000000" font-family="sans-serif" font-size="13" lengthAdjust="spacing" textLength="240" x="402.5" y="1748.0098">amount: 4,,000,000,000,000,000,000)</text><text fill="#000000" font-family="sans-serif" font-size="13" lengthAdjust="spacing" textLength="70" x="394.5" y="1763.3203">12,877 gas</text><polygon fill="#181818" points="398.5,1793.373,388.5,1797.373,398.5,1801.373,394.5,1797.373" style="stroke:#181818;stroke-width:1.0;"/><line style="stroke:#181818;stroke-width:1.0;stroke-dasharray:2.0,2.0;" x1="392.5" x2="1392" y1="1797.373" y2="1797.373"/><text fill="#000000" font-family="sans-serif" font-size="13" lengthAdjust="spacing" textLength="25" x="404.5" y="1792.6309">true</text><polygon fill="#181818" points="1243.5,1807.373,1253.5,1811.373,1243.5,1815.373,1247.5,1811.373" style="stroke:#181818;stroke-width:1.0;"/><line style="stroke:#181818;stroke-width:1.0;stroke-dasharray:2.0,2.0;" x1="382.5" x2="1249.5" y1="1811.373" y2="1811.373"/><path d="M387,1824.373 L387,1864.373 L470,1864.373 L470,1834.373 L460,1824.373 L387,1824.373 " fill="#FEFFDD" style="stroke:#181818;stroke-width:0.5;"/><path d="M460,1824.373 L460,1834.373 L470,1834.373 L460,1824.373 " fill="#FEFFDD" style="stroke:#181818;stroke-width:0.5;"/><text fill="#000000" font-family="sans-serif" font-size="13" lengthAdjust="spacing" textLength="4" x="393" y="1841.9414">&#160;</text><text fill="#000000" font-family="sans-serif" font-size="13" lengthAdjust="spacing" textLength="62" x="393" y="1857.252">5,979 gas</text><polygon fill="#181818" points="393.5,1887.3047,383.5,1891.3047,393.5,1895.3047,389.5,1891.3047" style="stroke:#181818;stroke-width:1.0;"/><line style="stroke:#181818;stroke-width:1.0;stroke-dasharray:2.0,2.0;" x1="387.5" x2="1249.5" y1="1891.3047" y2="1891.3047"/><text fill="#000000" font-family="sans-serif" font-size="13" lengthAdjust="spacing" textLength="152" x="399.5" y="1886.5625">0x00000000..00000000</text><path d="M1265,1904.3047 L1265,1944.3047 L1348,1944.3047 L1348,1914.3047 L1338,1904.3047 L1265,1904.3047 " fill="#FEFFDD" style="stroke:#181818;stroke-width:0.5;"/><path d="M1338,1904.3047 L1338,1914.3047 L1348,1914.3047 L1338,1904.3047 " fill="#FEFFDD" style="stroke:#181818;stroke-width:0.5;"/><text fill="#000000" font-family="sans-serif" font-size="13" lengthAdjust="spacing" textLength="4" x="1271" y="1921.873">&#160;</text><text fill="#000000" font-family="sans-serif" font-size="13" lengthAdjust="spacing" textLength="62" x="1271" y="1937.1836">5,995 gas</text><polygon fill="#181818" points="1238.5,1967.2363,1248.5,1971.2363,1238.5,1975.2363,1242.5,1971.2363" style="stroke:#181818;stroke-width:1.0;"/><line style="stroke:#181818;stroke-width:1.0;stroke-dasharray:2.0,2.0;" x1="377.5" x2="1244.5" y1="1971.2363" y2="1971.2363"/><text fill="#000000" font-family="sans-serif" font-size="13" lengthAdjust="spacing" textLength="196" x="384.5" y="1966.4941">result: 0x00000000..00000000</text><path d="M382,1984.2363 L382,2024.2363 L473,2024.2363 L473,1994.2363 L463,1984.2363 L382,1984.2363 " fill="#FEFFDD" style="stroke:#181818;stroke-width:0.5;"/><path d="M463,1984.2363 L463,1994.2363 L473,1994.2363 L463,1984.2363 " fill="#FEFFDD" style="stroke:#181818;stroke-width:0.5;"/><text fill="#000000" font-family="sans-serif" font-size="13" lengthAdjust="spacing" textLength="4" x="388" y="2001.8047">&#160;</text><text fill="#000000" font-family="sans-serif" font-size="13" lengthAdjust="spacing" textLength="70" x="388" y="2017.1152">22,168 gas</text><polygon fill="#3471CD" points="907.5,2077.7891,897.5,2081.7891,907.5,2085.7891,903.5,2081.7891" style="stroke:#3471CD;stroke-width:1.0;"/><line style="stroke:#3471CD;stroke-width:1.0;stroke-dasharray:2.0,2.0;" x1="901.5" x2="1254.5" y1="2081.7891" y2="2081.7891"/><text fill="#000000" font-family="sans-serif" font-size="13" lengthAdjust="spacing" textLength="55" x="913.5" y="2046.4258">results: [</text><text fill="#000000" font-family="sans-serif" font-size="13" lengthAdjust="spacing" textLength="36" x="921.5" y="2061.7363">0: 0x,</text><text fill="#000000" font-family="sans-serif" font-size="13" lengthAdjust="spacing" textLength="36" x="921.5" y="2077.0469">1: 0x]</text><path d="M1260,2094.7891 L1260,2134.7891 L1343,2134.7891 L1343,2104.7891 L1333,2094.7891 L1260,2094.7891 " fill="#FEFFDD" style="stroke:#181818;stroke-width:0.5;"/><path d="M1333,2094.7891 L1333,2104.7891 L1343,2104.7891 L1333,2094.7891 " fill="#FEFFDD" style="stroke:#181818;stroke-width:0.5;"/><text fill="#000000" font-family="sans-serif" font-size="13" lengthAdjust="spacing" textLength="4" x="1266" y="2112.3574">&#160;</text><text fill="#000000" font-family="sans-serif" font-size="13" lengthAdjust="spacing" textLength="62" x="1266" y="2127.668">8,417 gas</text><line style="stroke:#181818;stroke-width:1.0;" x1="897.5" x2="907.5" y1="2146.4102" y2="2142.4102"/><line style="stroke:#181818;stroke-width:1.0;" x1="897.5" x2="907.5" y1="2146.4102" y2="2150.4102"/><line style="stroke:#181818;stroke-width:1.0;stroke-dasharray:2.0,2.0;" x1="896.5" x2="1071" y1="2146.4102" y2="2146.4102"/><path d="M1077,2159.4102 L1077,2199.4102 L1160,2199.4102 L1160,2169.4102 L1150,2159.4102 L1077,2159.4102 " fill="#FEFFDD" style="stroke:#181818;stroke-width:0.5;"/><path d="M1150,2159.4102 L1150,2169.4102 L1160,2169.4102 L1150,2159.4102 " fill="#FEFFDD" style="stroke:#181818;stroke-width:0.5;"/><text fill="#000000" font-family="sans-serif" font-size="13" lengthAdjust="spacing" textLength="4" x="1083" y="2176.9785">&#160;</text><text fill="#000000" font-family="sans-serif" font-size="13" lengthAdjust="spacing" textLength="62" x="1083" y="2192.2891">6,949 gas</text><polygon fill="#181818" points="133,2252.9629,123,2256.9629,133,2260.9629,129,2256.9629" style="stroke:#181818;stroke-width:1.0;"/><line style="stroke:#181818;stroke-width:1.0;stroke-dasharray:2.0,2.0;" x1="127" x2="890.5" y1="2256.9629" y2="2256.9629"/><text fill="#000000" font-family="sans-serif" font-size="13" lengthAdjust="spacing" textLength="55" x="139" y="2221.5996">results: [</text><text fill="#000000" font-family="sans-serif" font-size="13" lengthAdjust="spacing" textLength="36" x="147" y="2236.9102">0: 0x,</text><text fill="#000000" font-family="sans-serif" font-size="13" lengthAdjust="spacing" textLength="36" x="147" y="2252.2207">1: 0x]</text><path d="M896,2269.9629 L896,2309.9629 L979,2309.9629 L979,2279.9629 L969,2269.9629 L896,2269.9629 " fill="#FEFFDD" style="stroke:#181818;stroke-width:0.5;"/><path d="M969,2269.9629 L969,2279.9629 L979,2279.9629 L969,2269.9629 " fill="#FEFFDD" style="stroke:#181818;stroke-width:0.5;"/><text fill="#000000" font-family="sans-serif" font-size="13" lengthAdjust="spacing" textLength="4" x="902" y="2287.5313">&#160;</text><text fill="#000000" font-family="sans-serif" font-size="13" lengthAdjust="spacing" textLength="62" x="902" y="2302.8418">8,770 gas</text><path d="M127,2320.584 L127,2513.584 L628,2513.584 L628,2330.584 L618,2320.584 L127,2320.584 " fill="#00FFFF" style="stroke:#181818;stroke-width:0.5;"/><path d="M618,2320.584 L618,2330.584 L628,2330.584 L618,2320.584 " fill="#00FFFF" style="stroke:#181818;stroke-width:0.5;"/><text fill="#000000" font-family="sans-serif" font-size="13" lengthAdjust="spacing" textLength="94" x="133" y="2338.1523">TransferSingle:</text><text fill="#000000" font-family="sans-serif" font-size="13" lengthAdjust="spacing" textLength="153" x="141" y="2353.4629">operator: 0x5FC8..5707,</text><text fill="#000000" font-family="sans-serif" font-size="13" lengthAdjust="spacing" textLength="126" x="141" y="2368.7734">from: 0xf39F..2266,</text><text fill="#000000" font-family="sans-serif" font-size="13" lengthAdjust="spacing" textLength="108" x="141" y="2384.084">to: 0xCf7E..0Fc9,</text><text fill="#000000" font-family="sans-serif" font-size="13" lengthAdjust="spacing" textLength="472" x="141" y="2399.3945">id: 912,823,093,544,680,850,579,175,995,568,,783,282,090,442,467,040,</text><text fill="#000000" font-family="sans-serif" font-size="13" lengthAdjust="spacing" textLength="221" x="141" y="2414.7051">value: 4,,000,000,000,000,000,000</text><text fill="#000000" font-family="sans-serif" font-size="13" lengthAdjust="spacing" textLength="94" x="133" y="2430.0156">TransferSingle:</text><text fill="#000000" font-family="sans-serif" font-size="13" lengthAdjust="spacing" textLength="148" x="141" y="2445.3262">operator: 0xCf7E..0Fc9,</text><text fill="#000000" font-family="sans-serif" font-size="13" lengthAdjust="spacing" textLength="125" x="141" y="2460.6367">from: 0xCf7E..0Fc9,</text><text fill="#000000" font-family="sans-serif" font-size="13" lengthAdjust="spacing" textLength="113" x="141" y="2475.9473">to: 0x0000..0000,</text><text fill="#000000" font-family="sans-serif" font-size="13" lengthAdjust="spacing" textLength="472" x="141" y="2491.2578">id: 912,823,093,544,680,850,579,175,995,568,,783,282,090,442,467,040,</text><text fill="#000000" font-family="sans-serif" font-size="13" lengthAdjust="spacing" textLength="221" x="141" y="2506.5684">value: 4,,000,000,000,000,000,000</text><path d="M1268,2320.584 L1268,2391.584 L1518,2391.584 L1518,2330.584 L1508,2320.584 L1268,2320.584 " fill="#00FFFF" style="stroke:#181818;stroke-width:0.5;"/><path d="M1508,2320.584 L1508,2330.584 L1518,2330.584 L1508,2320.584 " fill="#00FFFF" style="stroke:#181818;stroke-width:0.5;"/><text fill="#000000" font-family="sans-serif" font-size="13" lengthAdjust="spacing" textLength="56" x="1274" y="2338.1523">Transfer:</text><text fill="#000000" font-family="sans-serif" font-size="13" lengthAdjust="spacing" textLength="125" x="1282" y="2353.4629">from: 0xCf7E..0Fc9,</text><text fill="#000000" font-family="sans-serif" font-size="13" lengthAdjust="spacing" textLength="109" x="1282" y="2368.7734">to: 0xf39F..2266,</text><text fill="#000000" font-family="sans-serif" font-size="13" lengthAdjust="spacing" textLength="221" x="1282" y="2384.084">value: 4,,000,000,000,000,000,000</text><text fill="#888888" font-family="sans-serif" font-size="10" lengthAdjust="spacing" textLength="227" x="655" y="2622.4668">none, block 6, Mon, 18 Sep 2023 22:50:26 GMT</text><text fill="#888888" font-family="sans-serif" font-size="10" lengthAdjust="spacing" textLength="227" x="655" y="2634.2441">none, block 6, Mon, 18 Sep 2023 22:50:26 GMT</text><text fill="#888888" font-family="sans-serif" font-size="10" lengthAdjust="spacing" textLength="3" x="767" y="2646.0215">&#160;</text><!--SRC=[lLTBRziu4BxhLn3DfGimMf8Y9L8836IzSVVGB8hKtJqqEL0IvGfnH9UIy_Zt9ILPbcCvSOkW0W9eQCxp-sP6gOjwgS2NigWUv0hSKt0A_Y_gRvcH3rwkTQsCL-fIGP0iTNeBGWWkTGa1vk2pMW62I008YHcAIGW-NCv_xhAdognp8jDQ6_0EFUQ1o7sVa31y1sG5dEW4uAsagOkqMCcoTlVIF5A-Z_9KDFUSw0HmTZP8PggDcapEpZvflRoKfLmeCvayjyJobFi-Yr3KM7AY4xQM_gDJkLoEgoQP3KBAe5DDCYSCLQ_qskRtiKYCD4_x5h8qfBwVXrqQJdJ2leLzLP4hgof3XHfL9ph1gjRwLfN89JvNLNrnDILMyBo5qUiLG8ySgvoHNAeeHP9cX1ASubJc94EOvvIfKEN2dg0qa4pY80c452ZXbBAK9r9Qa6i5zBqoFJpUlxfCLGnmv7smiNmoXPC2d_4G1HZJ07nuK8LtAH_1JDbVc8-s9_QsDaNzv1IwOsVaOt5Nr3488nYArkoNIcKne24aN7ZppXG25_D_79E02ylpUiQSJdfMnA1IzVbgPVIzNCwqELyktr-N0EYLCj8IprfvPBDfHmFeVfBDRUUlDclrntL9A8nm11QoScGjxgMjmSQ-PrIzDYNm1gNf6NaYlw-bj-izzgo7DDNhidQ-RSopblJGEnYLzpoeGTBshOTNH64GY2J9QPOd55DcaMM8Y2oWUSOaoPZ08fSeP3AZQO9KGBC02HGfWHD1qKlmyZU75miA0ph45rC48qIt0Fi8uHT0tZHi31wwoTLWspI1Aw78Bxe-QO0rohPGeVOAtu1-ro928KG8ZVrP8c0IG8peBXCsGNZz-3YTJFg1u5mXmhCCHzmQm3RbOCz0DpjEE18Nqxy6XhwUs0BXwTytatu-nC0I8LLLrQIQsl5KnU2hUmS0zM-s2D8iL3r2R_SujVdJofQuFpAgMYzhQokNoqhrnvQtQuT4Vv39MZP9AP54c8U-BpA1t7FJtS6ZKKppwC8Ep5agtZIA16KYHM8GnOq3okOQSBPRvqq5lNxKxim9jxYQclQskyT6tJtMik1GXFp0BEWR_tI8bpDyddvV5qPbZGDLfZfJsRJ5xe2ZA8GSeICos3P1RMHPvShCZBvhzzPS3_RVYxrn5FyPXeAAr-a_dBuoL_D1N4qGkNqPwS5QZn2bi7D1O0AvxJqa0iWeXI57a3C4MIGWZXWKWa4MSWWZ7jWDGUn512abaDeLWcYROSUXmmd28VXjjfYJ8w3UPgjBkt8nPknAfQgux_3UQy6zp7zpaarwXBo-rMoW9B0S2N6_vveLOOh5jnheV92wDSXjA6tFZL_UCjNHktKztekrl5NjV5iROzlbQOInBLj-QOnpMzZm260t7rRRrdh_Hdi4ykXPwJU-DhLhrlphHRUyYCImvcFZv9d-TZGr-c87itO2nyVOsG6VGDpDnHr3c-M4dCMcGjYztRmGagLHnyj3DDgirkiox0VIhtWT4fB3A6h7xU4lkSqW-roKYwMAN_nW6vbntiY8yzwe-RqZUl-L-7UZsiI_Uzh6lsN5xur_-nNu9zY2rF_ximjI_4eIky3yZ7FxzWC0]--></g></svg>