<?xml version="1.0" encoding="us-ascii" standalone="no"?><svg xmlns="http://www.w3.org/2000/svg" xmlns:xlink="http://www.w3.org/1999/xlink" contentStyleType="text/css" height="2872px" preserveAspectRatio="none" style="width:1529px;height:2872px;background:#FFFFFF;" version="1.1" viewBox="0 0 1529 2872" width="1529px" zoomAndPan="magnify"><defs/><g><text fill="#000000" font-family="sans-serif" font-size="14" font-weight="bold" lengthAdjust="spacing" textLength="170" x="681" y="28.5352">Uniswap v4 - Withdraw</text><rect fill="#FFFFFF" height="14" style="stroke:#181818;stroke-width:1.0;" width="10" x="372.5" y="347.7031"/><rect fill="#FFFFFF" height="791.1797" style="stroke:#181818;stroke-width:1.0;" width="10" x="372.5" y="1055.5039"/><rect fill="#FFFFFF" height="190.4844" style="stroke:#181818;stroke-width:1.0;" width="10" x="377.5" y="1236.6094"/><rect fill="#FFFFFF" height="40.3105" style="stroke:#181818;stroke-width:1.0;" width="10" x="382.5" y="1365.7832"/><rect fill="#FFFFFF" height="118.5527" style="stroke:#181818;stroke-width:1.0;" width="10" x="377.5" y="1568.2676"/><rect fill="#FFFFFF" height="14" style="stroke:#181818;stroke-width:1.0;" width="10" x="372.5" y="2620.4844"/><rect fill="#FFFFFF" height="1425.1172" style="stroke:#181818;stroke-width:1.0;" width="10" x="881.5" y="707.293"/><rect fill="#809ECB" height="1269.9434" style="stroke:#181818;stroke-width:1.0;" width="10" x="1062" y="751.9141"/><rect fill="#FFFFFF" height="961.6641" style="stroke:#181818;stroke-width:1.0;" width="10" x="1245.5" y="995.5723"/><rect fill="#FFFFFF" height="651.3164" style="stroke:#181818;stroke-width:1.0;" width="10" x="1250.5" y="1115.4355"/><rect fill="#FFFFFF" height="29.3105" style="stroke:#181818;stroke-width:1.0;" width="10" x="1383" y="1643.5098"/><rect fill="none" height="314.9688" style="stroke:#000000;stroke-width:1.5;" width="609" x="10" y="135.9766"/><rect fill="none" height="1929.8125" style="stroke:#000000;stroke-width:1.5;" width="1513" x="10" y="464.9453"/><rect fill="none" height="314.9688" style="stroke:#000000;stroke-width:1.5;" width="617" x="10" y="2408.7578"/><line style="stroke:#181818;stroke-width:0.5;stroke-dasharray:5.0,5.0;" x1="122" x2="122" y1="118.9766" y2="2740.7266"/><line style="stroke:#181818;stroke-width:0.5;stroke-dasharray:5.0,5.0;" x1="377.5" x2="377.5" y1="118.9766" y2="2740.7266"/><line style="stroke:#181818;stroke-width:0.5;stroke-dasharray:5.0,5.0;" x1="886.5" x2="886.5" y1="118.9766" y2="2740.7266"/><line style="stroke:#181818;stroke-width:0.5;stroke-dasharray:5.0,5.0;" x1="1066.5" x2="1066.5" y1="118.9766" y2="2740.7266"/><line style="stroke:#181818;stroke-width:0.5;stroke-dasharray:5.0,5.0;" x1="1250.5" x2="1250.5" y1="118.9766" y2="2740.7266"/><line style="stroke:#181818;stroke-width:0.5;stroke-dasharray:5.0,5.0;" x1="1387.5" x2="1387.5" y1="118.9766" y2="2740.7266"/><text fill="#000000" font-family="sans-serif" font-size="14" lengthAdjust="spacing" textLength="90" x="74" y="116.0234">0xf39f..2266</text><ellipse cx="122" cy="50.9883" fill="#E2E2F0" rx="8" ry="8" style="stroke:#181818;stroke-width:0.5;"/><path d="M122,58.9883 L122,85.9883 M109,66.9883 L135,66.9883 M122,85.9883 L109,100.9883 M122,85.9883 L135,100.9883 " fill="none" style="stroke:#181818;stroke-width:0.5;"/><text fill="#000000" font-family="sans-serif" font-size="14" lengthAdjust="spacing" textLength="90" x="74" y="2753.2617">0xf39f..2266</text><ellipse cx="122" cy="2764.7148" fill="#E2E2F0" rx="8" ry="8" style="stroke:#181818;stroke-width:0.5;"/><path d="M122,2772.7148 L122,2799.7148 M109,2780.7148 L135,2780.7148 M122,2799.7148 L109,2814.7148 M122,2799.7148 L135,2814.7148 " fill="none" style="stroke:#181818;stroke-width:0.5;"/><rect fill="#E2E2F0" height="46.9766" rx="2.5" ry="2.5" style="stroke:#181818;stroke-width:0.5;" width="118" x="318.5" y="71"/><text fill="#000000" font-family="sans-serif" font-size="14" font-style="italic" lengthAdjust="spacing" textLength="104" x="325.5" y="91.5352">&#171;PoolManager&#187;</text><text fill="#000000" font-family="sans-serif" font-size="14" lengthAdjust="spacing" textLength="85" x="335" y="108.0234">0xcf7e..0fc9</text><rect fill="#E2E2F0" height="46.9766" rx="2.5" ry="2.5" style="stroke:#181818;stroke-width:0.5;" width="118" x="318.5" y="2739.7266"/><text fill="#000000" font-family="sans-serif" font-size="14" font-style="italic" lengthAdjust="spacing" textLength="104" x="325.5" y="2760.2617">&#171;PoolManager&#187;</text><text fill="#000000" font-family="sans-serif" font-size="14" lengthAdjust="spacing" textLength="85" x="335" y="2776.75">0xcf7e..0fc9</text><rect fill="#E2E2F0" height="46.9766" rx="2.5" ry="2.5" style="stroke:#181818;stroke-width:0.5;" width="144" x="814.5" y="71"/><text fill="#000000" font-family="sans-serif" font-size="14" font-style="italic" lengthAdjust="spacing" textLength="130" x="821.5" y="91.5352">&#171;UniswapV4Caller&#187;</text><text fill="#000000" font-family="sans-serif" font-size="14" lengthAdjust="spacing" textLength="92" x="840.5" y="108.0234">0x5fc8..5707</text><rect fill="#E2E2F0" height="46.9766" rx="2.5" ry="2.5" style="stroke:#181818;stroke-width:0.5;" width="144" x="814.5" y="2739.7266"/><text fill="#000000" font-family="sans-serif" font-size="14" font-style="italic" lengthAdjust="spacing" textLength="130" x="821.5" y="2760.2617">&#171;UniswapV4Caller&#187;</text><text fill="#000000" font-family="sans-serif" font-size="14" lengthAdjust="spacing" textLength="92" x="840.5" y="2776.75">0x5fc8..5707</text><rect fill="#E2E2F0" height="46.9766" rx="2.5" ry="2.5" style="stroke:#181818;stroke-width:0.5;" width="197" x="968.5" y="71"/><text fill="#000000" font-family="sans-serif" font-size="14" font-style="italic" lengthAdjust="spacing" textLength="183" x="975.5" y="91.5352">&#171;UniswapV4RouterLibrary&#187;</text><text fill="#000000" font-family="sans-serif" font-size="14" lengthAdjust="spacing" textLength="92" x="1021" y="108.0234">0x5fbd..0aa3</text><rect fill="#E2E2F0" height="46.9766" rx="2.5" ry="2.5" style="stroke:#181818;stroke-width:0.5;" width="197" x="968.5" y="2739.7266"/><text fill="#000000" font-family="sans-serif" font-size="14" font-style="italic" lengthAdjust="spacing" textLength="183" x="975.5" y="2760.2617">&#171;UniswapV4RouterLibrary&#187;</text><text fill="#000000" font-family="sans-serif" font-size="14" lengthAdjust="spacing" textLength="92" x="1021" y="2776.75">0x5fbd..0aa3</text><rect fill="#E2E2F0" height="46.9766" rx="2.5" ry="2.5" style="stroke:#181818;stroke-width:0.5;" width="150" x="1175.5" y="71"/><text fill="#000000" font-family="sans-serif" font-size="14" font-style="italic" lengthAdjust="spacing" textLength="136" x="1182.5" y="91.5352">&#171;UniswapV4Router&#187;</text><text fill="#000000" font-family="sans-serif" font-size="14" lengthAdjust="spacing" textLength="90" x="1205.5" y="108.0234">0xdc64..f6c9</text><rect fill="#E2E2F0" height="46.9766" rx="2.5" ry="2.5" style="stroke:#181818;stroke-width:0.5;" width="150" x="1175.5" y="2739.7266"/><text fill="#000000" font-family="sans-serif" font-size="14" font-style="italic" lengthAdjust="spacing" textLength="136" x="1182.5" y="2760.2617">&#171;UniswapV4Router&#187;</text><text fill="#000000" font-family="sans-serif" font-size="14" lengthAdjust="spacing" textLength="90" x="1205.5" y="2776.75">0xdc64..f6c9</text><rect fill="#E2E2F0" height="63.4648" rx="2.5" ry="2.5" style="stroke:#181818;stroke-width:0.5;" width="105" x="1335.5" y="54.5117"/><text fill="#000000" font-family="sans-serif" font-size="14" font-style="italic" lengthAdjust="spacing" textLength="62" x="1357" y="75.0469">&#171;token0&#187;</text><text fill="#000000" font-family="sans-serif" font-size="14" font-style="italic" lengthAdjust="spacing" textLength="88" x="1344" y="91.5352">&#171;TestERC20&#187;</text><text fill="#000000" font-family="sans-serif" font-size="14" lengthAdjust="spacing" textLength="91" x="1342.5" y="108.0234">0x9fe4..a6e0</text><rect fill="#E2E2F0" height="63.4648" rx="2.5" ry="2.5" style="stroke:#181818;stroke-width:0.5;" width="105" x="1335.5" y="2739.7266"/><text fill="#000000" font-family="sans-serif" font-size="14" font-style="italic" lengthAdjust="spacing" textLength="62" x="1357" y="2760.2617">&#171;token0&#187;</text><text fill="#000000" font-family="sans-serif" font-size="14" font-style="italic" lengthAdjust="spacing" textLength="88" x="1344" y="2776.75">&#171;TestERC20&#187;</text><text fill="#000000" font-family="sans-serif" font-size="14" lengthAdjust="spacing" textLength="91" x="1342.5" y="2793.2383">0x9fe4..a6e0</text><rect fill="#FFFFFF" height="14" style="stroke:#181818;stroke-width:1.0;" width="10" x="372.5" y="347.7031"/><rect fill="#FFFFFF" height="791.1797" style="stroke:#181818;stroke-width:1.0;" width="10" x="372.5" y="1055.5039"/><rect fill="#FFFFFF" height="190.4844" style="stroke:#181818;stroke-width:1.0;" width="10" x="377.5" y="1236.6094"/><rect fill="#FFFFFF" height="40.3105" style="stroke:#181818;stroke-width:1.0;" width="10" x="382.5" y="1365.7832"/><rect fill="#FFFFFF" height="118.5527" style="stroke:#181818;stroke-width:1.0;" width="10" x="377.5" y="1568.2676"/><rect fill="#FFFFFF" height="14" style="stroke:#181818;stroke-width:1.0;" width="10" x="372.5" y="2620.4844"/><rect fill="#FFFFFF" height="1425.1172" style="stroke:#181818;stroke-width:1.0;" width="10" x="881.5" y="707.293"/><rect fill="#809ECB" height="1269.9434" style="stroke:#181818;stroke-width:1.0;" width="10" x="1062" y="751.9141"/><rect fill="#FFFFFF" height="961.6641" style="stroke:#181818;stroke-width:1.0;" width="10" x="1245.5" y="995.5723"/><rect fill="#FFFFFF" height="651.3164" style="stroke:#181818;stroke-width:1.0;" width="10" x="1250.5" y="1115.4355"/><rect fill="#FFFFFF" height="29.3105" style="stroke:#181818;stroke-width:1.0;" width="10" x="1383" y="1643.5098"/><path d="M10,135.9766 L614,135.9766 L614,143.2871 L604,153.2871 L10,153.2871 L10,135.9766 " fill="#EEEEEE" style="stroke:#000000;stroke-width:1.5;"/><rect fill="none" height="314.9688" style="stroke:#000000;stroke-width:1.5;" width="609" x="10" y="135.9766"/><text fill="#000000" font-family="sans-serif" font-size="13" font-weight="bold" lengthAdjust="spacing" textLength="559" x="25" y="149.5449">0x7d70ae5613a54a8c3e4fa28ecd0b617082c8ff8cda93939bcb3d6b57134c45c2</text><path d="M20,158.2871 L20,275.2871 L224,275.2871 L224,168.2871 L214,158.2871 L20,158.2871 " fill="#FEFFDD" style="stroke:#181818;stroke-width:0.5;"/><path d="M214,158.2871 L214,168.2871 L224,168.2871 L214,158.2871 " fill="#FEFFDD" style="stroke:#181818;stroke-width:0.5;"/><text fill="#000000" font-family="sans-serif" font-size="13" lengthAdjust="spacing" textLength="64" x="26" y="175.8555">Nonce: 17</text><text fill="#000000" font-family="sans-serif" font-size="13" lengthAdjust="spacing" textLength="183" x="26" y="191.166">Gas Price: 3.583937529 Gwei</text><text fill="#000000" font-family="sans-serif" font-size="13" lengthAdjust="spacing" textLength="113" x="26" y="206.4766">Max Fee: 5.0 Gwei</text><text fill="#000000" font-family="sans-serif" font-size="13" lengthAdjust="spacing" textLength="137" x="26" y="221.7871">Max Priority: 3.0 Gwei</text><text fill="#000000" font-family="sans-serif" font-size="13" lengthAdjust="spacing" textLength="111" x="26" y="237.0977">Gas Limit: 63,919</text><text fill="#000000" font-family="sans-serif" font-size="13" lengthAdjust="spacing" textLength="110" x="26" y="252.4082">Gas Used: 46,277</text><text fill="#000000" font-family="sans-serif" font-size="13" lengthAdjust="spacing" textLength="86" x="26" y="267.7188">Tx Fee: 0 ETH</text><polygon fill="#181818" points="360.5,343.7031,370.5,347.7031,360.5,351.7031,364.5,347.7031" style="stroke:#181818;stroke-width:1.0;"/><line style="stroke:#181818;stroke-width:1.0;" x1="122" x2="366.5" y1="347.7031" y2="347.7031"/><text fill="#000000" font-family="sans-serif" font-size="13" lengthAdjust="spacing" textLength="116" x="129" y="297.0293">setApprovalForAll(</text><text fill="#000000" font-family="sans-serif" font-size="13" lengthAdjust="spacing" textLength="154" x="137" y="312.3398">operator: 0xDc64..F6C9,</text><text fill="#000000" font-family="sans-serif" font-size="13" lengthAdjust="spacing" textLength="95" x="137" y="327.6504">approved: true)</text><text fill="#000000" font-family="sans-serif" font-size="13" lengthAdjust="spacing" textLength="70" x="129" y="342.9609">24,717 gas</text><polygon fill="#181818" points="133,357.7031,123,361.7031,133,365.7031,129,361.7031" style="stroke:#181818;stroke-width:1.0;"/><line style="stroke:#181818;stroke-width:1.0;stroke-dasharray:2.0,2.0;" x1="127" x2="376.5" y1="361.7031" y2="361.7031"/><path d="M286,374.7031 L286,445.7031 L469,445.7031 L469,384.7031 L459,374.7031 L286,374.7031 " fill="#00FFFF" style="stroke:#181818;stroke-width:0.5;"/><path d="M459,374.7031 L459,384.7031 L469,384.7031 L459,374.7031 " fill="#00FFFF" style="stroke:#181818;stroke-width:0.5;"/><text fill="#000000" font-family="sans-serif" font-size="13" lengthAdjust="spacing" textLength="97" x="292" y="392.2715">ApprovalForAll:</text><text fill="#000000" font-family="sans-serif" font-size="13" lengthAdjust="spacing" textLength="146" x="300" y="407.582">account: 0xf39F..2266,</text><text fill="#000000" font-family="sans-serif" font-size="13" lengthAdjust="spacing" textLength="154" x="300" y="422.8926">operator: 0xDc64..F6C9,</text><text fill="#000000" font-family="sans-serif" font-size="13" lengthAdjust="spacing" textLength="91" x="300" y="438.2031">approved: true</text><path d="M10,464.9453 L609,464.9453 L609,472.2559 L599,482.2559 L10,482.2559 L10,464.9453 " fill="#EEEEEE" style="stroke:#000000;stroke-width:1.5;"/><rect fill="none" height="1929.8125" style="stroke:#000000;stroke-width:1.5;" width="1513" x="10" y="464.9453"/><text fill="#000000" font-family="sans-serif" font-size="13" font-weight="bold" lengthAdjust="spacing" textLength="554" x="25" y="478.5137">0xd10f2f71df88516cd6b5438200ac870470e7a57435884214be1f3c08ffdef262</text><path d="M20,487.2559 L20,604.2559 L224,604.2559 L224,497.2559 L214,487.2559 L20,487.2559 " fill="#FEFFDD" style="stroke:#181818;stroke-width:0.5;"/><path d="M214,487.2559 L214,497.2559 L224,497.2559 L214,487.2559 " fill="#FEFFDD" style="stroke:#181818;stroke-width:0.5;"/><text fill="#000000" font-family="sans-serif" font-size="13" lengthAdjust="spacing" textLength="64" x="26" y="504.8242">Nonce: 18</text><text fill="#000000" font-family="sans-serif" font-size="13" lengthAdjust="spacing" textLength="183" x="26" y="520.1348">Gas Price: 3.583937529 Gwei</text><text fill="#000000" font-family="sans-serif" font-size="13" lengthAdjust="spacing" textLength="113" x="26" y="535.4453">Max Fee: 5.0 Gwei</text><text fill="#000000" font-family="sans-serif" font-size="13" lengthAdjust="spacing" textLength="137" x="26" y="550.7559">Max Priority: 3.0 Gwei</text><text fill="#000000" font-family="sans-serif" font-size="13" lengthAdjust="spacing" textLength="119" x="26" y="566.0664">Gas Limit: 200,318</text><text fill="#000000" font-family="sans-serif" font-size="13" lengthAdjust="spacing" textLength="118" x="26" y="581.377">Gas Used: 136,970</text><text fill="#000000" font-family="sans-serif" font-size="13" lengthAdjust="spacing" textLength="86" x="26" y="596.6875">Tx Fee: 0 ETH</text><polygon fill="#181818" points="869.5,703.293,879.5,707.293,869.5,711.293,873.5,707.293" style="stroke:#181818;stroke-width:1.0;"/><line style="stroke:#181818;stroke-width:1.0;" x1="122" x2="875.5" y1="707.293" y2="707.293"/><text fill="#000000" font-family="sans-serif" font-size="13" lengthAdjust="spacing" textLength="61" x="129" y="625.998">withdraw(</text><text fill="#000000" font-family="sans-serif" font-size="13" lengthAdjust="spacing" textLength="130" x="137" y="641.3086">token: 0x9fE4..a6e0,</text><text fill="#000000" font-family="sans-serif" font-size="13" lengthAdjust="spacing" textLength="134" x="137" y="656.6191">owner: 0xf39F..2266,</text><text fill="#000000" font-family="sans-serif" font-size="13" lengthAdjust="spacing" textLength="151" x="137" y="671.9297">recipient: 0xf39F..2266,</text><text fill="#000000" font-family="sans-serif" font-size="13" lengthAdjust="spacing" textLength="240" x="137" y="687.2402">amount: 4,,000,000,000,000,000,000)</text><text fill="#000000" font-family="sans-serif" font-size="13" lengthAdjust="spacing" textLength="78" x="129" y="702.5508">119,076 gas</text><line style="stroke:#181818;stroke-width:1.0;" x1="1060" x2="1050" y1="751.9141" y2="747.9141"/><line style="stroke:#181818;stroke-width:1.0;" x1="1060" x2="1050" y1="751.9141" y2="755.9141"/><line style="stroke:#181818;stroke-width:1.0;" x1="891.5" x2="1061" y1="751.9141" y2="751.9141"/><text fill="#000000" font-family="sans-serif" font-size="13" lengthAdjust="spacing" textLength="72" x="898.5" y="731.8613">0xccf8f113</text><text fill="#000000" font-family="sans-serif" font-size="13" lengthAdjust="spacing" textLength="78" x="898.5" y="747.1719">114,467 gas</text><polygon fill="#3471CD" points="1233.5,991.5723,1243.5,995.5723,1233.5,999.5723,1237.5,995.5723" style="stroke:#3471CD;stroke-width:1.0;"/><line style="stroke:#3471CD;stroke-width:1.0;" x1="891.5" x2="1239.5" y1="995.5723" y2="995.5723"/><text fill="#000000" font-family="sans-serif" font-size="13" lengthAdjust="spacing" textLength="53" x="898.5" y="776.4824">process(</text><text fill="#000000" font-family="sans-serif" font-size="13" lengthAdjust="spacing" textLength="41" x="906.5" y="791.793">calls: [</text><text fill="#000000" font-family="sans-serif" font-size="13" lengthAdjust="spacing" textLength="20" x="914.5" y="807.1035">0: [</text><text fill="#000000" font-family="sans-serif" font-size="13" lengthAdjust="spacing" textLength="132" x="922.5" y="822.4141">target: 0xCf7E..0Fc9,</text><text fill="#000000" font-family="sans-serif" font-size="13" lengthAdjust="spacing" textLength="64" x="922.5" y="837.7246">callType: ,</text><text fill="#000000" font-family="sans-serif" font-size="13" lengthAdjust="spacing" textLength="85" x="922.5" y="853.0352">results: false,</text><text fill="#000000" font-family="sans-serif" font-size="13" lengthAdjust="spacing" textLength="53" x="922.5" y="868.3457">value: 0,</text><text fill="#000000" font-family="sans-serif" font-size="13" lengthAdjust="spacing" textLength="191" x="922.5" y="883.6563">data: 0xf242432a..00000000],</text><text fill="#000000" font-family="sans-serif" font-size="13" lengthAdjust="spacing" textLength="20" x="914.5" y="898.9668">1: [</text><text fill="#000000" font-family="sans-serif" font-size="13" lengthAdjust="spacing" textLength="132" x="922.5" y="914.2773">target: 0xCf7E..0Fc9,</text><text fill="#000000" font-family="sans-serif" font-size="13" lengthAdjust="spacing" textLength="64" x="922.5" y="929.5879">callType: ,</text><text fill="#000000" font-family="sans-serif" font-size="13" lengthAdjust="spacing" textLength="85" x="922.5" y="944.8984">results: false,</text><text fill="#000000" font-family="sans-serif" font-size="13" lengthAdjust="spacing" textLength="53" x="922.5" y="960.209">value: 0,</text><text fill="#000000" font-family="sans-serif" font-size="13" lengthAdjust="spacing" textLength="198" x="922.5" y="975.5195">data: 0x0b0d9c09..9d900000]])</text><text fill="#000000" font-family="sans-serif" font-size="13" lengthAdjust="spacing" textLength="78" x="898.5" y="990.8301">107,122 gas</text><polygon fill="#181818" points="393.5,1051.5039,383.5,1055.5039,393.5,1059.5039,389.5,1055.5039" style="stroke:#181818;stroke-width:1.0;"/><line style="stroke:#181818;stroke-width:1.0;" x1="387.5" x2="1244.5" y1="1055.5039" y2="1055.5039"/><text fill="#000000" font-family="sans-serif" font-size="13" lengthAdjust="spacing" textLength="31" x="399.5" y="1020.1406">lock(</text><text fill="#000000" font-family="sans-serif" font-size="13" lengthAdjust="spacing" textLength="191" x="407.5" y="1035.4512">data: 0x00000000..00000000)</text><text fill="#000000" font-family="sans-serif" font-size="13" lengthAdjust="spacing" textLength="70" x="399.5" y="1050.7617">98,460 gas</text><polygon fill="#181818" points="1238.5,1111.4355,1248.5,1115.4355,1238.5,1119.4355,1242.5,1115.4355" style="stroke:#181818;stroke-width:1.0;"/><line style="stroke:#181818;stroke-width:1.0;" x1="382.5" x2="1244.5" y1="1115.4355" y2="1115.4355"/><text fill="#000000" font-family="sans-serif" font-size="13" lengthAdjust="spacing" textLength="87" x="389.5" y="1080.0723">lockAcquired(</text><text fill="#000000" font-family="sans-serif" font-size="13" lengthAdjust="spacing" textLength="248" x="397.5" y="1095.3828">encodedCalls: 0x00000000..00000000)</text><text fill="#000000" font-family="sans-serif" font-size="13" lengthAdjust="spacing" textLength="70" x="389.5" y="1110.6934">76,272 gas</text><polygon fill="#181818" points="398.5,1232.6094,388.5,1236.6094,398.5,1240.6094,394.5,1236.6094" style="stroke:#181818;stroke-width:1.0;"/><line style="stroke:#181818;stroke-width:1.0;" x1="392.5" x2="1249.5" y1="1236.6094" y2="1236.6094"/><text fill="#000000" font-family="sans-serif" font-size="13" lengthAdjust="spacing" textLength="114" x="404.5" y="1140.0039">safeTransferFrom(</text><text fill="#000000" font-family="sans-serif" font-size="13" lengthAdjust="spacing" textLength="126" x="412.5" y="1155.3145">from: 0xf39F..2266,</text><text fill="#000000" font-family="sans-serif" font-size="13" lengthAdjust="spacing" textLength="108" x="412.5" y="1170.625">to: 0xCf7E..0Fc9,</text><text fill="#000000" font-family="sans-serif" font-size="13" lengthAdjust="spacing" textLength="472" x="412.5" y="1185.9355">id: 912,823,093,544,680,850,579,175,995,568,,783,282,090,442,467,040,</text><text fill="#000000" font-family="sans-serif" font-size="13" lengthAdjust="spacing" textLength="225" x="412.5" y="1201.2461">value: 4,,000,000,000,000,000,000,</text><text fill="#000000" font-family="sans-serif" font-size="13" lengthAdjust="spacing" textLength="55" x="412.5" y="1216.5566">data: 0x)</text><text fill="#000000" font-family="sans-serif" font-size="13" lengthAdjust="spacing" textLength="70" x="404.5" y="1231.8672">51,182 gas</text><line style="stroke:#181818;stroke-width:1.0;" x1="387.5" x2="434.5" y1="1352.7832" y2="1352.7832"/><line style="stroke:#181818;stroke-width:1.0;" x1="434.5" x2="434.5" y1="1352.7832" y2="1365.7832"/><line style="stroke:#181818;stroke-width:1.0;" x1="393.5" x2="434.5" y1="1365.7832" y2="1365.7832"/><polygon fill="#181818" points="403.5,1361.7832,393.5,1365.7832,403.5,1369.7832,399.5,1365.7832" style="stroke:#181818;stroke-width:1.0;"/><text fill="#000000" font-family="sans-serif" font-size="13" lengthAdjust="spacing" textLength="131" x="399.5" y="1256.1777">onERC1155Received(</text><text fill="#000000" font-family="sans-serif" font-size="13" lengthAdjust="spacing" textLength="93" x="407.5" y="1271.4883">0xDc64..F6C9,</text><text fill="#000000" font-family="sans-serif" font-size="13" lengthAdjust="spacing" textLength="88" x="407.5" y="1286.7988">0xf39F..2266,</text><text fill="#000000" font-family="sans-serif" font-size="13" lengthAdjust="spacing" textLength="472" x="407.5" y="1302.1094">id: 912,823,093,544,680,850,579,175,995,568,,783,282,090,442,467,040,</text><text fill="#000000" font-family="sans-serif" font-size="13" lengthAdjust="spacing" textLength="225" x="407.5" y="1317.4199">value: 4,,000,000,000,000,000,000,</text><text fill="#000000" font-family="sans-serif" font-size="13" lengthAdjust="spacing" textLength="20" x="407.5" y="1332.7305">0x)</text><text fill="#000000" font-family="sans-serif" font-size="13" lengthAdjust="spacing" textLength="70" x="399.5" y="1348.041">22,717 gas</text><line style="stroke:#181818;stroke-width:1.0;stroke-dasharray:2.0,2.0;" x1="392.5" x2="434.5" y1="1405.0938" y2="1405.0938"/><line style="stroke:#181818;stroke-width:1.0;stroke-dasharray:2.0,2.0;" x1="434.5" x2="434.5" y1="1405.0938" y2="1418.0938"/><line style="stroke:#181818;stroke-width:1.0;stroke-dasharray:2.0,2.0;" x1="387.5" x2="434.5" y1="1418.0938" y2="1418.0938"/><polygon fill="#181818" points="397.5,1414.0938,387.5,1418.0938,397.5,1422.0938,393.5,1418.0938" style="stroke:#181818;stroke-width:1.0;"/><text fill="#000000" font-family="sans-serif" font-size="13" lengthAdjust="spacing" textLength="75" x="399.5" y="1400.3516">0xf23a6e61</text><polygon fill="#181818" points="1238.5,1423.0938,1248.5,1427.0938,1238.5,1431.0938,1242.5,1427.0938" style="stroke:#181818;stroke-width:1.0;"/><line style="stroke:#181818;stroke-width:1.0;stroke-dasharray:2.0,2.0;" x1="382.5" x2="1244.5" y1="1427.0938" y2="1427.0938"/><path d="M387,1440.0938 L387,1480.0938 L478,1480.0938 L478,1450.0938 L468,1440.0938 L387,1440.0938 " fill="#FEFFDD" style="stroke:#181818;stroke-width:0.5;"/><path d="M468,1440.0938 L468,1450.0938 L478,1450.0938 L468,1440.0938 " fill="#FEFFDD" style="stroke:#181818;stroke-width:0.5;"/><text fill="#000000" font-family="sans-serif" font-size="13" lengthAdjust="spacing" textLength="4" x="393" y="1457.6621">&#160;</text><text fill="#000000" font-family="sans-serif" font-size="13" lengthAdjust="spacing" textLength="70" x="393" y="1472.9727">28,465 gas</text><polygon fill="#181818" points="398.5,1564.2676,388.5,1568.2676,398.5,1572.2676,394.5,1568.2676" style="stroke:#181818;stroke-width:1.0;"/><line style="stroke:#181818;stroke-width:1.0;" x1="392.5" x2="1249.5" y1="1568.2676" y2="1568.2676"/><text fill="#000000" font-family="sans-serif" font-size="13" lengthAdjust="spacing" textLength="31" x="404.5" y="1502.2832">take(</text><text fill="#000000" font-family="sans-serif" font-size="13" lengthAdjust="spacing" textLength="148" x="412.5" y="1517.5938">currency: 0x9fE4..a6e0,</text><text fill="#000000" font-family="sans-serif" font-size="13" lengthAdjust="spacing" textLength="109" x="412.5" y="1532.9043">to: 0xf39F..2266,</text><text fill="#000000" font-family="sans-serif" font-size="13" lengthAdjust="spacing" textLength="240" x="412.5" y="1548.2148">amount: 4,,000,000,000,000,000,000)</text><text fill="#000000" font-family="sans-serif" font-size="13" lengthAdjust="spacing" textLength="70" x="404.5" y="1563.5254">18,856 gas</text><polygon fill="#181818" points="1371,1639.5098,1381,1643.5098,1371,1647.5098,1375,1643.5098" style="stroke:#181818;stroke-width:1.0;"/><line style="stroke:#181818;stroke-width:1.0;" x1="387.5" x2="1377" y1="1643.5098" y2="1643.5098"/><text fill="#000000" font-family="sans-serif" font-size="13" lengthAdjust="spacing" textLength="53" x="394.5" y="1592.8359">transfer(</text><text fill="#000000" font-family="sans-serif" font-size="13" lengthAdjust="spacing" textLength="151" x="402.5" y="1608.1465">recipient: 0xf39F..2266,</text><text fill="#000000" font-family="sans-serif" font-size="13" lengthAdjust="spacing" textLength="240" x="402.5" y="1623.457">amount: 4,,000,000,000,000,000,000)</text><text fill="#000000" font-family="sans-serif" font-size="13" lengthAdjust="spacing" textLength="70" x="394.5" y="1638.7676">12,877 gas</text><polygon fill="#181818" points="398.5,1668.8203,388.5,1672.8203,398.5,1676.8203,394.5,1672.8203" style="stroke:#181818;stroke-width:1.0;"/><line style="stroke:#181818;stroke-width:1.0;stroke-dasharray:2.0,2.0;" x1="392.5" x2="1387" y1="1672.8203" y2="1672.8203"/><text fill="#000000" font-family="sans-serif" font-size="13" lengthAdjust="spacing" textLength="25" x="404.5" y="1668.0781">true</text><polygon fill="#181818" points="1238.5,1682.8203,1248.5,1686.8203,1238.5,1690.8203,1242.5,1686.8203" style="stroke:#181818;stroke-width:1.0;"/><line style="stroke:#181818;stroke-width:1.0;stroke-dasharray:2.0,2.0;" x1="382.5" x2="1244.5" y1="1686.8203" y2="1686.8203"/><path d="M387,1699.8203 L387,1739.8203 L470,1739.8203 L470,1709.8203 L460,1699.8203 L387,1699.8203 " fill="#FEFFDD" style="stroke:#181818;stroke-width:0.5;"/><path d="M460,1699.8203 L460,1709.8203 L470,1709.8203 L460,1699.8203 " fill="#FEFFDD" style="stroke:#181818;stroke-width:0.5;"/><text fill="#000000" font-family="sans-serif" font-size="13" lengthAdjust="spacing" textLength="4" x="393" y="1717.3887">&#160;</text><text fill="#000000" font-family="sans-serif" font-size="13" lengthAdjust="spacing" textLength="62" x="393" y="1732.6992">5,979 gas</text><polygon fill="#181818" points="393.5,1762.752,383.5,1766.752,393.5,1770.752,389.5,1766.752" style="stroke:#181818;stroke-width:1.0;"/><line style="stroke:#181818;stroke-width:1.0;stroke-dasharray:2.0,2.0;" x1="387.5" x2="1244.5" y1="1766.752" y2="1766.752"/><text fill="#000000" font-family="sans-serif" font-size="13" lengthAdjust="spacing" textLength="152" x="399.5" y="1762.0098">0x00000000..00000000</text><path d="M1260,1779.752 L1260,1819.752 L1343,1819.752 L1343,1789.752 L1333,1779.752 L1260,1779.752 " fill="#FEFFDD" style="stroke:#181818;stroke-width:0.5;"/><path d="M1333,1779.752 L1333,1789.752 L1343,1789.752 L1333,1779.752 " fill="#FEFFDD" style="stroke:#181818;stroke-width:0.5;"/><text fill="#000000" font-family="sans-serif" font-size="13" lengthAdjust="spacing" textLength="4" x="1266" y="1797.3203">&#160;</text><text fill="#000000" font-family="sans-serif" font-size="13" lengthAdjust="spacing" textLength="62" x="1266" y="1812.6309">6,234 gas</text><polygon fill="#181818" points="1233.5,1842.6836,1243.5,1846.6836,1233.5,1850.6836,1237.5,1846.6836" style="stroke:#181818;stroke-width:1.0;"/><line style="stroke:#181818;stroke-width:1.0;stroke-dasharray:2.0,2.0;" x1="377.5" x2="1239.5" y1="1846.6836" y2="1846.6836"/><text fill="#000000" font-family="sans-serif" font-size="13" lengthAdjust="spacing" textLength="196" x="384.5" y="1841.9414">result: 0x00000000..00000000</text><path d="M382,1859.6836 L382,1899.6836 L473,1899.6836 L473,1869.6836 L463,1859.6836 L382,1859.6836 " fill="#FEFFDD" style="stroke:#181818;stroke-width:0.5;"/><path d="M463,1859.6836 L463,1869.6836 L473,1869.6836 L463,1859.6836 " fill="#FEFFDD" style="stroke:#181818;stroke-width:0.5;"/><text fill="#000000" font-family="sans-serif" font-size="13" lengthAdjust="spacing" textLength="4" x="388" y="1877.252">&#160;</text><text fill="#000000" font-family="sans-serif" font-size="13" lengthAdjust="spacing" textLength="70" x="388" y="1892.5625">22,188 gas</text><polygon fill="#3471CD" points="902.5,1953.2363,892.5,1957.2363,902.5,1961.2363,898.5,1957.2363" style="stroke:#3471CD;stroke-width:1.0;"/><line style="stroke:#3471CD;stroke-width:1.0;stroke-dasharray:2.0,2.0;" x1="896.5" x2="1249.5" y1="1957.2363" y2="1957.2363"/><text fill="#000000" font-family="sans-serif" font-size="13" lengthAdjust="spacing" textLength="55" x="908.5" y="1921.873">results: [</text><text fill="#000000" font-family="sans-serif" font-size="13" lengthAdjust="spacing" textLength="36" x="916.5" y="1937.1836">0: 0x,</text><text fill="#000000" font-family="sans-serif" font-size="13" lengthAdjust="spacing" textLength="36" x="916.5" y="1952.4941">1: 0x]</text><path d="M1255,1970.2363 L1255,2010.2363 L1338,2010.2363 L1338,1980.2363 L1328,1970.2363 L1255,1970.2363 " fill="#FEFFDD" style="stroke:#181818;stroke-width:0.5;"/><path d="M1328,1970.2363 L1328,1980.2363 L1338,1980.2363 L1328,1970.2363 " fill="#FEFFDD" style="stroke:#181818;stroke-width:0.5;"/><text fill="#000000" font-family="sans-serif" font-size="13" lengthAdjust="spacing" textLength="4" x="1261" y="1987.8047">&#160;</text><text fill="#000000" font-family="sans-serif" font-size="13" lengthAdjust="spacing" textLength="62" x="1261" y="2003.1152">8,662 gas</text><line style="stroke:#181818;stroke-width:1.0;" x1="892.5" x2="902.5" y1="2021.8574" y2="2017.8574"/><line style="stroke:#181818;stroke-width:1.0;" x1="892.5" x2="902.5" y1="2021.8574" y2="2025.8574"/><line style="stroke:#181818;stroke-width:1.0;stroke-dasharray:2.0,2.0;" x1="891.5" x2="1066" y1="2021.8574" y2="2021.8574"/><path d="M1072,2034.8574 L1072,2074.8574 L1155,2074.8574 L1155,2044.8574 L1145,2034.8574 L1072,2034.8574 " fill="#FEFFDD" style="stroke:#181818;stroke-width:0.5;"/><path d="M1145,2034.8574 L1145,2044.8574 L1155,2044.8574 L1145,2034.8574 " fill="#FEFFDD" style="stroke:#181818;stroke-width:0.5;"/><text fill="#000000" font-family="sans-serif" font-size="13" lengthAdjust="spacing" textLength="4" x="1078" y="2052.4258">&#160;</text><text fill="#000000" font-family="sans-serif" font-size="13" lengthAdjust="spacing" textLength="62" x="1078" y="2067.7363">7,345 gas</text><polygon fill="#181818" points="133,2128.4102,123,2132.4102,133,2136.4102,129,2132.4102" style="stroke:#181818;stroke-width:1.0;"/><line style="stroke:#181818;stroke-width:1.0;stroke-dasharray:2.0,2.0;" x1="127" x2="885.5" y1="2132.4102" y2="2132.4102"/><text fill="#000000" font-family="sans-serif" font-size="13" lengthAdjust="spacing" textLength="55" x="139" y="2097.0469">results: [</text><text fill="#000000" font-family="sans-serif" font-size="13" lengthAdjust="spacing" textLength="36" x="147" y="2112.3574">0: 0x,</text><text fill="#000000" font-family="sans-serif" font-size="13" lengthAdjust="spacing" textLength="36" x="147" y="2127.668">1: 0x]</text><path d="M891,2145.4102 L891,2185.4102 L974,2185.4102 L974,2155.4102 L964,2145.4102 L891,2145.4102 " fill="#FEFFDD" style="stroke:#181818;stroke-width:0.5;"/><path d="M964,2145.4102 L964,2155.4102 L974,2155.4102 L964,2145.4102 " fill="#FEFFDD" style="stroke:#181818;stroke-width:0.5;"/><text fill="#000000" font-family="sans-serif" font-size="13" lengthAdjust="spacing" textLength="4" x="897" y="2162.9785">&#160;</text><text fill="#000000" font-family="sans-serif" font-size="13" lengthAdjust="spacing" textLength="62" x="897" y="2178.2891">4,609 gas</text><path d="M127,2196.0313 L127,2389.0313 L628,2389.0313 L628,2206.0313 L618,2196.0313 L127,2196.0313 " fill="#00FFFF" style="stroke:#181818;stroke-width:0.5;"/><path d="M618,2196.0313 L618,2206.0313 L628,2206.0313 L618,2196.0313 " fill="#00FFFF" style="stroke:#181818;stroke-width:0.5;"/><text fill="#000000" font-family="sans-serif" font-size="13" lengthAdjust="spacing" textLength="94" x="133" y="2213.5996">TransferSingle:</text><text fill="#000000" font-family="sans-serif" font-size="13" lengthAdjust="spacing" textLength="154" x="141" y="2228.9102">operator: 0xDc64..F6C9,</text><text fill="#000000" font-family="sans-serif" font-size="13" lengthAdjust="spacing" textLength="126" x="141" y="2244.2207">from: 0xf39F..2266,</text><text fill="#000000" font-family="sans-serif" font-size="13" lengthAdjust="spacing" textLength="108" x="141" y="2259.5313">to: 0xCf7E..0Fc9,</text><text fill="#000000" font-family="sans-serif" font-size="13" lengthAdjust="spacing" textLength="472" x="141" y="2274.8418">id: 912,823,093,544,680,850,579,175,995,568,,783,282,090,442,467,040,</text><text fill="#000000" font-family="sans-serif" font-size="13" lengthAdjust="spacing" textLength="221" x="141" y="2290.1523">value: 4,,000,000,000,000,000,000</text><text fill="#000000" font-family="sans-serif" font-size="13" lengthAdjust="spacing" textLength="94" x="133" y="2305.4629">TransferSingle:</text><text fill="#000000" font-family="sans-serif" font-size="13" lengthAdjust="spacing" textLength="148" x="141" y="2320.7734">operator: 0xCf7E..0Fc9,</text><text fill="#000000" font-family="sans-serif" font-size="13" lengthAdjust="spacing" textLength="125" x="141" y="2336.084">from: 0xCf7E..0Fc9,</text><text fill="#000000" font-family="sans-serif" font-size="13" lengthAdjust="spacing" textLength="113" x="141" y="2351.3945">to: 0x0000..0000,</text><text fill="#000000" font-family="sans-serif" font-size="13" lengthAdjust="spacing" textLength="472" x="141" y="2366.7051">id: 912,823,093,544,680,850,579,175,995,568,,783,282,090,442,467,040,</text><text fill="#000000" font-family="sans-serif" font-size="13" lengthAdjust="spacing" textLength="221" x="141" y="2382.0156">value: 4,,000,000,000,000,000,000</text><path d="M1263,2196.0313 L1263,2267.0313 L1513,2267.0313 L1513,2206.0313 L1503,2196.0313 L1263,2196.0313 " fill="#00FFFF" style="stroke:#181818;stroke-width:0.5;"/><path d="M1503,2196.0313 L1503,2206.0313 L1513,2206.0313 L1503,2196.0313 " fill="#00FFFF" style="stroke:#181818;stroke-width:0.5;"/><text fill="#000000" font-family="sans-serif" font-size="13" lengthAdjust="spacing" textLength="56" x="1269" y="2213.5996">Transfer:</text><text fill="#000000" font-family="sans-serif" font-size="13" lengthAdjust="spacing" textLength="125" x="1277" y="2228.9102">from: 0xCf7E..0Fc9,</text><text fill="#000000" font-family="sans-serif" font-size="13" lengthAdjust="spacing" textLength="109" x="1277" y="2244.2207">to: 0xf39F..2266,</text><text fill="#000000" font-family="sans-serif" font-size="13" lengthAdjust="spacing" textLength="221" x="1277" y="2259.5313">value: 4,,000,000,000,000,000,000</text><path d="M10,2408.7578 L622,2408.7578 L622,2416.0684 L612,2426.0684 L10,2426.0684 L10,2408.7578 " fill="#EEEEEE" style="stroke:#000000;stroke-width:1.5;"/><rect fill="none" height="314.9688" style="stroke:#000000;stroke-width:1.5;" width="617" x="10" y="2408.7578"/><text fill="#000000" font-family="sans-serif" font-size="13" font-weight="bold" lengthAdjust="spacing" textLength="567" x="25" y="2422.3262">0x8ebb7e072e294b9bddada36d0883752eca4f3056de184e9dd6f8ea313f3084e6</text><path d="M20,2431.0684 L20,2548.0684 L224,2548.0684 L224,2441.0684 L214,2431.0684 L20,2431.0684 " fill="#FEFFDD" style="stroke:#181818;stroke-width:0.5;"/><path d="M214,2431.0684 L214,2441.0684 L224,2441.0684 L214,2431.0684 " fill="#FEFFDD" style="stroke:#181818;stroke-width:0.5;"/><text fill="#000000" font-family="sans-serif" font-size="13" lengthAdjust="spacing" textLength="64" x="26" y="2448.6367">Nonce: 19</text><text fill="#000000" font-family="sans-serif" font-size="13" lengthAdjust="spacing" textLength="183" x="26" y="2463.9473">Gas Price: 3.583937529 Gwei</text><text fill="#000000" font-family="sans-serif" font-size="13" lengthAdjust="spacing" textLength="113" x="26" y="2479.2578">Max Fee: 5.0 Gwei</text><text fill="#000000" font-family="sans-serif" font-size="13" lengthAdjust="spacing" textLength="137" x="26" y="2494.5684">Max Priority: 3.0 Gwei</text><text fill="#000000" font-family="sans-serif" font-size="13" lengthAdjust="spacing" textLength="111" x="26" y="2509.8789">Gas Limit: 33,653</text><text fill="#000000" font-family="sans-serif" font-size="13" lengthAdjust="spacing" textLength="110" x="26" y="2525.1895">Gas Used: 24,365</text><text fill="#000000" font-family="sans-serif" font-size="13" lengthAdjust="spacing" textLength="86" x="26" y="2540.5">Tx Fee: 0 ETH</text><polygon fill="#181818" points="360.5,2616.4844,370.5,2620.4844,360.5,2624.4844,364.5,2620.4844" style="stroke:#181818;stroke-width:1.0;"/><line style="stroke:#181818;stroke-width:1.0;" x1="122" x2="366.5" y1="2620.4844" y2="2620.4844"/><text fill="#000000" font-family="sans-serif" font-size="13" lengthAdjust="spacing" textLength="116" x="129" y="2569.8105">setApprovalForAll(</text><text fill="#000000" font-family="sans-serif" font-size="13" lengthAdjust="spacing" textLength="154" x="137" y="2585.1211">operator: 0xDc64..F6C9,</text><text fill="#000000" font-family="sans-serif" font-size="13" lengthAdjust="spacing" textLength="100" x="137" y="2600.4316">approved: false)</text><text fill="#000000" font-family="sans-serif" font-size="13" lengthAdjust="spacing" textLength="62" x="129" y="2615.7422">6,094 gas</text><polygon fill="#181818" points="133,2630.4844,123,2634.4844,133,2638.4844,129,2634.4844" style="stroke:#181818;stroke-width:1.0;"/><line style="stroke:#181818;stroke-width:1.0;stroke-dasharray:2.0,2.0;" x1="127" x2="376.5" y1="2634.4844" y2="2634.4844"/><path d="M286,2647.4844 L286,2718.4844 L469,2718.4844 L469,2657.4844 L459,2647.4844 L286,2647.4844 " fill="#00FFFF" style="stroke:#181818;stroke-width:0.5;"/><path d="M459,2647.4844 L459,2657.4844 L469,2657.4844 L459,2647.4844 " fill="#00FFFF" style="stroke:#181818;stroke-width:0.5;"/><text fill="#000000" font-family="sans-serif" font-size="13" lengthAdjust="spacing" textLength="97" x="292" y="2665.0527">ApprovalForAll:</text><text fill="#000000" font-family="sans-serif" font-size="13" lengthAdjust="spacing" textLength="146" x="300" y="2680.3633">account: 0xf39F..2266,</text><text fill="#000000" font-family="sans-serif" font-size="13" lengthAdjust="spacing" textLength="154" x="300" y="2695.6738">operator: 0xDc64..F6C9,</text><text fill="#000000" font-family="sans-serif" font-size="13" lengthAdjust="spacing" textLength="96" x="300" y="2710.9844">approved: false</text><text fill="#888888" font-family="sans-serif" font-size="10" lengthAdjust="spacing" textLength="223" x="654.5" y="2826.8828">none, block 6, Sun, 10 Sep 2023 11:05:40 GMT</text><text fill="#888888" font-family="sans-serif" font-size="10" lengthAdjust="spacing" textLength="223" x="654.5" y="2838.6602">none, block 6, Sun, 10 Sep 2023 11:05:40 GMT</text><text fill="#888888" font-family="sans-serif" font-size="10" lengthAdjust="spacing" textLength="223" x="654.5" y="2850.4375">none, block 6, Sun, 10 Sep 2023 11:05:40 GMT</text><text fill="#888888" font-family="sans-serif" font-size="10" lengthAdjust="spacing" textLength="3" x="764.5" y="2862.2148">&#160;</text><!--SRC=[pLT9Rziu5BxhLn3JImim7kwB4HZek4ddq0wADfqvD3bG59aATIMNbhFy-o4bMLwpjCW4eo207istVkzzf9gocJdmkIeNrsOEhXWu0l-KpTSYcElCrtNZGbRLbOCWdzNs6n0GV5fM4604Fhav88XGWF4OyJ53uEtxi_zmS-Qgee_8sAOEu3Tquwdsen4XGlm6p08aCGaWcvlGbBQScwf9-woNRZH2tkfsNnAJ08wFFzJrxBsfpAKBayck6lTMZKPS8jcg9J49KQqlsDziQcQpmwfv4JqQGtlLl4Z2fkh7UXcJULVcmOJRVGk55MmqygAFEOb9sBUmhwgzYwf6EDIg9Z49KRMflxaAJIR7nsTkqPnyd98ePDbbg9TpW6va8P5nN61gE3FAKiUy8ShP0kK2IwI8LTuhMnXDurzkSrg8d4jCcMNSaeXeuq1zvSA0HVPNNLat1bXcRsCi7qAP93hYAbgGd6ZmzjgLsNjp0qvT_8MFq7ebxgv3sTmcXNuv6NbNVY-RCH0KQgpRbSyBLum14v18cPtrfX0uEVipjGr8OMNPq1v7aw45nc3XcjVpUQYlpEoq3gzdivVd5G3rt0KJkonQkNdJ8d4gfXgcdqoxE_bhmjAzEgy8Wn9BS6aMgJFBAnDhiBAV1TSiGmMoZT8CxVV2_5YQRDlxE8iUhAsNLPDynvXFkmw7sPrHPRj1RIGTtmPu2umyyH8NNYcEXKtOCQe8GiOgYPX4JXek6ULACO9Pxh2d5aN82-U9k1TUzUJmnh0WxUrs-68ge9ReKG2lXdKChdi-Qt5j1o2LJ_kJVaPQKElhoeMTWgVruE9ObMuFZBOHldSeCGXHZFN0VsmEZ3L4KcntnoguRA2Keyba88daobglFCOq6M2G2RbheEUJ5mhfa-aV6uQ-lA1CukcRYyd06MCGcyEwnQ8jWOsKjHY3B-aT03IynUAOSEdQJATUdaJwEhLTowSdgPtTpcFPXwNW5ijP4srvCrkuOJdsyZAXComKfZ5j_GWZZ18JBVVFHRy7FsCKA4U5jaYFHhhGNHGN2IWa8IPakywh2cO3_MvnHpgvsfeEjljddM6qh5K44Dt13mCP76tYbGo_jZ-MPN15wy1LjYvSCUsmkyEHJFptSnaiZ7TdmLGBxy9fgB-tpdnyET3lJNq0b3BEfSO4Aa8XqXHong1G22gE89SQOicXrXnoeI2KYaAYIDo886CazJL4h8Een-lkOOARXOxPSWon8eyewphRkef77iQSVtJMbLTzRVSOVY_pPqwoJO-GXq-LD58qSfZ0mpdJKdGeBxyseFORgKU3gGrvQ_1mBpJcc-iOOXb2RBZR0ppPzS0l4Q6AvHAFW6jrNKb7MTUOBv-6YID-SgUWAr-hyhM7vyEbZ6XBtLeQWDWVo1tzzN2VLt5EATlKxpXi_1WxMv2IE09gtz2Atb6os5O8fxUBUq9IK0YoQMbdx_fmYZm3AUE_x7LzCfzNSOnGLyYxxqShUlfKLfSpDxxt6dI0kR83n9KzqKXdZvZe1-BVZceL__Pg5_-wAvut_lNzwdUm1cdugDW6QVn04jl0_8pppOkiSdaUUqGIHpJBTLuKfZ1K54YfTEbqrZ1F4HU5muevNHJ2AsSefd4rBeZxBhBwoI-ob4B1wSOzDdumKC6VxpkblHYzIhI3DFk_VAUqGMtZ-oy0]--></g></svg>