<?xml version="1.0" encoding="us-ascii" standalone="no"?><svg xmlns="http://www.w3.org/2000/svg" xmlns:xlink="http://www.w3.org/1999/xlink" contentStyleType="text/css" height="561px" preserveAspectRatio="none" style="width:802px;height:561px;background:#FFFFFF;" version="1.1" viewBox="0 0 802 561" width="802px" zoomAndPan="magnify"><defs/><g><text fill="#000000" font-family="sans-serif" font-size="14" font-weight="bold" lengthAdjust="spacing" textLength="170" x="315" y="28.5352">Uniswap v4 - Withdraw</text><rect fill="#FFFFFF" height="386.4844" style="stroke:#181818;stroke-width:1.0;" width="10" x="178" y="150.2871"/><rect fill="#FFFFFF" height="126.6211" style="stroke:#181818;stroke-width:1.0;" width="10" x="183" y="267.5293"/><rect fill="#FFFFFF" height="343.1738" style="stroke:#181818;stroke-width:1.0;" width="10" x="425" y="179.5977"/><rect fill="#FFFFFF" height="256.5527" style="stroke:#181818;stroke-width:1.0;" width="10" x="430" y="238.2188"/><rect fill="#FFFFFF" height="299.8633" style="stroke:#181818;stroke-width:1.0;" width="10" x="581.5" y="208.9082"/><rect fill="#FFFFFF" height="83.3105" style="stroke:#181818;stroke-width:1.0;" width="10" x="586.5" y="296.8398"/><rect fill="#FFFFFF" height="25" style="stroke:#181818;stroke-width:1.0;" width="10" x="591.5" y="334.1504"/><rect fill="#FFFFFF" height="57.3105" style="stroke:#181818;stroke-width:1.0;" width="10" x="586.5" y="423.4609"/><rect fill="#FFFFFF" height="14" style="stroke:#181818;stroke-width:1.0;" width="10" x="737.5" y="452.7715"/><line style="stroke:#181818;stroke-width:0.5;stroke-dasharray:5.0,5.0;" x1="53" x2="53" y1="118.9766" y2="554.7715"/><line style="stroke:#181818;stroke-width:0.5;stroke-dasharray:5.0,5.0;" x1="183" x2="183" y1="118.9766" y2="554.7715"/><line style="stroke:#181818;stroke-width:0.5;stroke-dasharray:5.0,5.0;" x1="430" x2="430" y1="118.9766" y2="554.7715"/><line style="stroke:#181818;stroke-width:0.5;stroke-dasharray:5.0,5.0;" x1="586" x2="586" y1="118.9766" y2="554.7715"/><line style="stroke:#181818;stroke-width:0.5;stroke-dasharray:5.0,5.0;" x1="742" x2="742" y1="118.9766" y2="554.7715"/><text fill="#000000" font-family="sans-serif" font-size="14" lengthAdjust="spacing" textLength="90" x="5" y="116.0234">0xf39f..2266</text><ellipse cx="53" cy="50.9883" fill="#E2E2F0" rx="8" ry="8" style="stroke:#181818;stroke-width:0.5;"/><path d="M53,58.9883 L53,85.9883 M40,66.9883 L66,66.9883 M53,85.9883 L40,100.9883 M53,85.9883 L66,100.9883 " fill="none" style="stroke:#181818;stroke-width:0.5;"/><rect fill="#E2E2F0" height="46.9766" rx="2.5" ry="2.5" style="stroke:#181818;stroke-width:0.5;" width="144" x="111" y="71"/><text fill="#000000" font-family="sans-serif" font-size="14" font-style="italic" lengthAdjust="spacing" textLength="130" x="118" y="91.5352">&#171;UniswapV4Caller&#187;</text><text fill="#000000" font-family="sans-serif" font-size="14" lengthAdjust="spacing" textLength="95" x="135.5" y="108.0234">0xa513..c853</text><rect fill="#E2E2F0" height="46.9766" rx="2.5" ry="2.5" style="stroke:#181818;stroke-width:0.5;" width="150" x="355" y="71"/><text fill="#000000" font-family="sans-serif" font-size="14" font-style="italic" lengthAdjust="spacing" textLength="136" x="362" y="91.5352">&#171;UniswapV4Router&#187;</text><text fill="#000000" font-family="sans-serif" font-size="14" lengthAdjust="spacing" textLength="93" x="383.5" y="108.0234">0x0165..eb8f</text><rect fill="#E2E2F0" height="63.4648" rx="2.5" ry="2.5" style="stroke:#181818;stroke-width:0.5;" width="143" x="515" y="54.5117"/><text fill="#000000" font-family="sans-serif" font-size="14" font-style="italic" lengthAdjust="spacing" textLength="129" x="522" y="75.0469">&#171;Uniswap v4 Core&#187;</text><text fill="#000000" font-family="sans-serif" font-size="14" font-style="italic" lengthAdjust="spacing" textLength="104" x="534.5" y="91.5352">&#171;PoolManager&#187;</text><text fill="#000000" font-family="sans-serif" font-size="14" lengthAdjust="spacing" textLength="92" x="540.5" y="108.0234">0x5fc8..5707</text><rect fill="#E2E2F0" height="63.4648" rx="2.5" ry="2.5" style="stroke:#181818;stroke-width:0.5;" width="107" x="689" y="54.5117"/><text fill="#000000" font-family="sans-serif" font-size="14" font-style="italic" lengthAdjust="spacing" textLength="69" x="708" y="75.0469">&#171;Token B&#187;</text><text fill="#000000" font-family="sans-serif" font-size="14" font-style="italic" lengthAdjust="spacing" textLength="93" x="696" y="91.5352">&#171;MockToken&#187;</text><text fill="#000000" font-family="sans-serif" font-size="14" lengthAdjust="spacing" textLength="91" x="697" y="108.0234">0x9fe4..a6e0</text><rect fill="#FFFFFF" height="386.4844" style="stroke:#181818;stroke-width:1.0;" width="10" x="178" y="150.2871"/><rect fill="#FFFFFF" height="126.6211" style="stroke:#181818;stroke-width:1.0;" width="10" x="183" y="267.5293"/><rect fill="#FFFFFF" height="343.1738" style="stroke:#181818;stroke-width:1.0;" width="10" x="425" y="179.5977"/><rect fill="#FFFFFF" height="256.5527" style="stroke:#181818;stroke-width:1.0;" width="10" x="430" y="238.2188"/><rect fill="#FFFFFF" height="299.8633" style="stroke:#181818;stroke-width:1.0;" width="10" x="581.5" y="208.9082"/><rect fill="#FFFFFF" height="83.3105" style="stroke:#181818;stroke-width:1.0;" width="10" x="586.5" y="296.8398"/><rect fill="#FFFFFF" height="25" style="stroke:#181818;stroke-width:1.0;" width="10" x="591.5" y="334.1504"/><rect fill="#FFFFFF" height="57.3105" style="stroke:#181818;stroke-width:1.0;" width="10" x="586.5" y="423.4609"/><rect fill="#FFFFFF" height="14" style="stroke:#181818;stroke-width:1.0;" width="10" x="737.5" y="452.7715"/><polygon fill="#181818" points="166,146.2871,176,150.2871,166,154.2871,170,150.2871" style="stroke:#181818;stroke-width:1.0;"/><line style="stroke:#181818;stroke-width:1.0;" x1="53" x2="172" y1="150.2871" y2="150.2871"/><text fill="#000000" font-family="sans-serif" font-size="13" lengthAdjust="spacing" textLength="57" x="60" y="145.5449">withdraw</text><polygon fill="#181818" points="413,175.5977,423,179.5977,413,183.5977,417,179.5977" style="stroke:#181818;stroke-width:1.0;"/><line style="stroke:#181818;stroke-width:1.0;" x1="188" x2="419" y1="179.5977" y2="179.5977"/><text fill="#000000" font-family="sans-serif" font-size="13" lengthAdjust="spacing" textLength="49" x="195" y="174.8555">process</text><polygon fill="#181818" points="569.5,204.9082,579.5,208.9082,569.5,212.9082,573.5,208.9082" style="stroke:#181818;stroke-width:1.0;"/><line style="stroke:#181818;stroke-width:1.0;" x1="435" x2="575.5" y1="208.9082" y2="208.9082"/><text fill="#000000" font-family="sans-serif" font-size="13" lengthAdjust="spacing" textLength="27" x="442" y="204.166">lock</text><polygon fill="#181818" points="451,234.2188,441,238.2188,451,242.2188,447,238.2188" style="stroke:#181818;stroke-width:1.0;"/><line style="stroke:#181818;stroke-width:1.0;" x1="445" x2="580.5" y1="238.2188" y2="238.2188"/><text fill="#000000" font-family="sans-serif" font-size="13" lengthAdjust="spacing" textLength="83" x="457" y="233.4766">lockAcquired</text><polygon fill="#181818" points="204,263.5293,194,267.5293,204,271.5293,200,267.5293" style="stroke:#181818;stroke-width:1.0;"/><line style="stroke:#181818;stroke-width:1.0;" x1="198" x2="429" y1="267.5293" y2="267.5293"/><text fill="#000000" font-family="sans-serif" font-size="13" lengthAdjust="spacing" textLength="213" x="210" y="262.7871">transferFromCallerToPoolManager</text><polygon fill="#181818" points="574.5,292.8398,584.5,296.8398,574.5,300.8398,578.5,296.8398" style="stroke:#181818;stroke-width:1.0;"/><line style="stroke:#181818;stroke-width:1.0;" x1="193" x2="580.5" y1="296.8398" y2="296.8398"/><text fill="#000000" font-family="sans-serif" font-size="13" lengthAdjust="spacing" textLength="110" x="200" y="292.0977">safeTransferFrom</text><line style="stroke:#181818;stroke-width:1.0;" x1="596.5" x2="643.5" y1="321.1504" y2="321.1504"/><line style="stroke:#181818;stroke-width:1.0;" x1="643.5" x2="643.5" y1="321.1504" y2="334.1504"/><line style="stroke:#181818;stroke-width:1.0;" x1="602.5" x2="643.5" y1="334.1504" y2="334.1504"/><polygon fill="#181818" points="612.5,330.1504,602.5,334.1504,612.5,338.1504,608.5,334.1504" style="stroke:#181818;stroke-width:1.0;"/><text fill="#000000" font-family="sans-serif" font-size="13" lengthAdjust="spacing" textLength="127" x="608.5" y="316.4082">onERC1155Received</text><line style="stroke:#181818;stroke-width:1.0;stroke-dasharray:2.0,2.0;" x1="601.5" x2="643.5" y1="358.1504" y2="358.1504"/><line style="stroke:#181818;stroke-width:1.0;stroke-dasharray:2.0,2.0;" x1="643.5" x2="643.5" y1="358.1504" y2="371.1504"/><line style="stroke:#181818;stroke-width:1.0;stroke-dasharray:2.0,2.0;" x1="596.5" x2="643.5" y1="371.1504" y2="371.1504"/><polygon fill="#181818" points="606.5,367.1504,596.5,371.1504,606.5,375.1504,602.5,371.1504" style="stroke:#181818;stroke-width:1.0;"/><polygon fill="#181818" points="204,376.1504,194,380.1504,204,384.1504,200,380.1504" style="stroke:#181818;stroke-width:1.0;"/><line style="stroke:#181818;stroke-width:1.0;stroke-dasharray:2.0,2.0;" x1="198" x2="580.5" y1="380.1504" y2="380.1504"/><polygon fill="#181818" points="418,390.1504,428,394.1504,418,398.1504,422,394.1504" style="stroke:#181818;stroke-width:1.0;"/><line style="stroke:#181818;stroke-width:1.0;stroke-dasharray:2.0,2.0;" x1="188" x2="424" y1="394.1504" y2="394.1504"/><polygon fill="#181818" points="574.5,419.4609,584.5,423.4609,574.5,427.4609,578.5,423.4609" style="stroke:#181818;stroke-width:1.0;"/><line style="stroke:#181818;stroke-width:1.0;" x1="440" x2="580.5" y1="423.4609" y2="423.4609"/><text fill="#000000" font-family="sans-serif" font-size="13" lengthAdjust="spacing" textLength="27" x="447" y="418.7188">take</text><polygon fill="#181818" points="725.5,448.7715,735.5,452.7715,725.5,456.7715,729.5,452.7715" style="stroke:#181818;stroke-width:1.0;"/><line style="stroke:#181818;stroke-width:1.0;" x1="596.5" x2="731.5" y1="452.7715" y2="452.7715"/><text fill="#000000" font-family="sans-serif" font-size="13" lengthAdjust="spacing" textLength="49" x="603.5" y="448.0293">transfer</text><polygon fill="#181818" points="607.5,462.7715,597.5,466.7715,607.5,470.7715,603.5,466.7715" style="stroke:#181818;stroke-width:1.0;"/><line style="stroke:#181818;stroke-width:1.0;stroke-dasharray:2.0,2.0;" x1="601.5" x2="741.5" y1="466.7715" y2="466.7715"/><polygon fill="#181818" points="451,476.7715,441,480.7715,451,484.7715,447,480.7715" style="stroke:#181818;stroke-width:1.0;"/><line style="stroke:#181818;stroke-width:1.0;stroke-dasharray:2.0,2.0;" x1="445" x2="580.5" y1="480.7715" y2="480.7715"/><polygon fill="#181818" points="569.5,490.7715,579.5,494.7715,569.5,498.7715,573.5,494.7715" style="stroke:#181818;stroke-width:1.0;"/><line style="stroke:#181818;stroke-width:1.0;stroke-dasharray:2.0,2.0;" x1="435" x2="575.5" y1="494.7715" y2="494.7715"/><polygon fill="#181818" points="446,504.7715,436,508.7715,446,512.7715,442,508.7715" style="stroke:#181818;stroke-width:1.0;"/><line style="stroke:#181818;stroke-width:1.0;stroke-dasharray:2.0,2.0;" x1="440" x2="585.5" y1="508.7715" y2="508.7715"/><polygon fill="#181818" points="199,518.7715,189,522.7715,199,526.7715,195,522.7715" style="stroke:#181818;stroke-width:1.0;"/><line style="stroke:#181818;stroke-width:1.0;stroke-dasharray:2.0,2.0;" x1="193" x2="429" y1="522.7715" y2="522.7715"/><polygon fill="#181818" points="64,532.7715,54,536.7715,64,540.7715,60,536.7715" style="stroke:#181818;stroke-width:1.0;"/><line style="stroke:#181818;stroke-width:1.0;stroke-dasharray:2.0,2.0;" x1="58" x2="182" y1="536.7715" y2="536.7715"/><!--SRC=[XL7BRiCW4Bpp5IZt83i9paEMfJPgRv6gA6tF6x8qAAvnCNbyVerRZ1DPyWaDpCpk35RP7EbxeQehbFGoesFwgUpnOE1AZkg0L6fjz_f620Yh3Hr5DpbTIiOcaoGPKQYeWmvGKeAnIgWI2kjumECfOsB1fmtFGGTeclwF-vYj8S_HPDcZD8eJpXZk5xAHEkX0LxhLPzidvL8i6EFpQDv87NGWI5t8jJQOPMdwfdM-WGA- -foM4cUCGO9Hu-IW0xNJJf-meC_EOQF5gO6rdhHLZBCsxefUVPzrW-e25jitqdPI2tp85IsD5bXLWU-VI5j4pVV9LZIlTmXaVq_Qw7VcZlmaVixAu65WGeXW3HILHFDgzFVVd-rqfxk1P67J2YJkEbu3MmUXBbwswpZcV8i2rQMxUgiqQC-cU3Zw6xDmme7P_hj3-23mR_qZUuzV]--></g></svg>