<?xml version="1.0" encoding="us-ascii" standalone="no"?><svg xmlns="http://www.w3.org/2000/svg" xmlns:xlink="http://www.w3.org/1999/xlink" contentStyleType="text/css" height="2656px" preserveAspectRatio="none" style="width:1531px;height:2656px;background:#FFFFFF;" version="1.1" viewBox="0 0 1531 2656" width="1531px" zoomAndPan="magnify"><defs/><g><text fill="#000000" font-family="sans-serif" font-size="14" font-weight="bold" lengthAdjust="spacing" textLength="170" x="682" y="28.5352">Uniswap v4 - Withdraw</text><rect fill="#FFFFFF" height="14" style="stroke:#181818;stroke-width:1.0;" width="10" x="368.5" y="347.7031"/><rect fill="#FFFFFF" height="931.043" style="stroke:#181818;stroke-width:1.0;" width="10" x="368.5" y="1040.1934"/><rect fill="#FFFFFF" height="190.4844" style="stroke:#181818;stroke-width:1.0;" width="10" x="373.5" y="1296.541"/><rect fill="#FFFFFF" height="40.3105" style="stroke:#181818;stroke-width:1.0;" width="10" x="378.5" y="1425.7148"/><rect fill="#FFFFFF" height="118.5527" style="stroke:#181818;stroke-width:1.0;" width="10" x="373.5" y="1692.8203"/><rect fill="#FFFFFF" height="1564.9805" style="stroke:#181818;stroke-width:1.0;" width="10" x="882.5" y="691.9824"/><rect fill="#FFFFFF" height="376.2793" style="stroke:#181818;stroke-width:1.0;" width="10" x="887.5" y="1175.3672"/><rect fill="#809ECB" height="1409.8066" style="stroke:#181818;stroke-width:1.0;" width="10" x="1063" y="736.6035"/><rect fill="#FFFFFF" height="1101.5273" style="stroke:#181818;stroke-width:1.0;" width="10" x="1246.5" y="980.2617"/><rect fill="#FFFFFF" height="791.1797" style="stroke:#181818;stroke-width:1.0;" width="10" x="1251.5" y="1100.125"/><rect fill="#FFFFFF" height="29.3105" style="stroke:#181818;stroke-width:1.0;" width="10" x="1385" y="1768.0625"/><rect fill="none" height="314.9688" style="stroke:#000000;stroke-width:1.5;" width="617" x="10" y="135.9766"/><rect fill="none" height="2054.3652" style="stroke:#000000;stroke-width:1.5;" width="1515" x="10" y="464.9453"/><line style="stroke:#181818;stroke-width:0.5;stroke-dasharray:5.0,5.0;" x1="118" x2="118" y1="118.9766" y2="2536.3105"/><line style="stroke:#181818;stroke-width:0.5;stroke-dasharray:5.0,5.0;" x1="373" x2="373" y1="118.9766" y2="2536.3105"/><line style="stroke:#181818;stroke-width:0.5;stroke-dasharray:5.0,5.0;" x1="887.5" x2="887.5" y1="118.9766" y2="2536.3105"/><line style="stroke:#181818;stroke-width:0.5;stroke-dasharray:5.0,5.0;" x1="1067.5" x2="1067.5" y1="118.9766" y2="2536.3105"/><line style="stroke:#181818;stroke-width:0.5;stroke-dasharray:5.0,5.0;" x1="1251.5" x2="1251.5" y1="118.9766" y2="2536.3105"/><line style="stroke:#181818;stroke-width:0.5;stroke-dasharray:5.0,5.0;" x1="1389.5" x2="1389.5" y1="118.9766" y2="2536.3105"/><text fill="#000000" font-family="sans-serif" font-size="14" lengthAdjust="spacing" textLength="90" x="70" y="116.0234">0xf39f..2266</text><ellipse cx="118" cy="50.9883" fill="#E2E2F0" rx="8" ry="8" style="stroke:#181818;stroke-width:0.5;"/><path d="M118,58.9883 L118,85.9883 M105,66.9883 L131,66.9883 M118,85.9883 L105,100.9883 M118,85.9883 L131,100.9883 " fill="none" style="stroke:#181818;stroke-width:0.5;"/><text fill="#000000" font-family="sans-serif" font-size="14" lengthAdjust="spacing" textLength="90" x="70" y="2548.8457">0xf39f..2266</text><ellipse cx="118" cy="2560.2988" fill="#E2E2F0" rx="8" ry="8" style="stroke:#181818;stroke-width:0.5;"/><path d="M118,2568.2988 L118,2595.2988 M105,2576.2988 L131,2576.2988 M118,2595.2988 L105,2610.2988 M118,2595.2988 L131,2610.2988 " fill="none" style="stroke:#181818;stroke-width:0.5;"/><rect fill="#E2E2F0" height="63.4648" rx="2.5" ry="2.5" style="stroke:#181818;stroke-width:0.5;" width="143" x="302" y="54.5117"/><text fill="#000000" font-family="sans-serif" font-size="14" font-style="italic" lengthAdjust="spacing" textLength="129" x="309" y="75.0469">&#171;Uniswap v4 Core&#187;</text><text fill="#000000" font-family="sans-serif" font-size="14" font-style="italic" lengthAdjust="spacing" textLength="104" x="321.5" y="91.5352">&#171;PoolManager&#187;</text><text fill="#000000" font-family="sans-serif" font-size="14" lengthAdjust="spacing" textLength="92" x="327.5" y="108.0234">0x5fc8..5707</text><rect fill="#E2E2F0" height="63.4648" rx="2.5" ry="2.5" style="stroke:#181818;stroke-width:0.5;" width="143" x="302" y="2535.3105"/><text fill="#000000" font-family="sans-serif" font-size="14" font-style="italic" lengthAdjust="spacing" textLength="129" x="309" y="2555.8457">&#171;Uniswap v4 Core&#187;</text><text fill="#000000" font-family="sans-serif" font-size="14" font-style="italic" lengthAdjust="spacing" textLength="104" x="321.5" y="2572.334">&#171;PoolManager&#187;</text><text fill="#000000" font-family="sans-serif" font-size="14" lengthAdjust="spacing" textLength="92" x="327.5" y="2588.8223">0x5fc8..5707</text><rect fill="#E2E2F0" height="46.9766" rx="2.5" ry="2.5" style="stroke:#181818;stroke-width:0.5;" width="144" x="815.5" y="71"/><text fill="#000000" font-family="sans-serif" font-size="14" font-style="italic" lengthAdjust="spacing" textLength="130" x="822.5" y="91.5352">&#171;UniswapV4Caller&#187;</text><text fill="#000000" font-family="sans-serif" font-size="14" lengthAdjust="spacing" textLength="95" x="840" y="108.0234">0xa513..c853</text><rect fill="#E2E2F0" height="46.9766" rx="2.5" ry="2.5" style="stroke:#181818;stroke-width:0.5;" width="144" x="815.5" y="2535.3105"/><text fill="#000000" font-family="sans-serif" font-size="14" font-style="italic" lengthAdjust="spacing" textLength="130" x="822.5" y="2555.8457">&#171;UniswapV4Caller&#187;</text><text fill="#000000" font-family="sans-serif" font-size="14" lengthAdjust="spacing" textLength="95" x="840" y="2572.334">0xa513..c853</text><rect fill="#E2E2F0" height="46.9766" rx="2.5" ry="2.5" style="stroke:#181818;stroke-width:0.5;" width="197" x="969.5" y="71"/><text fill="#000000" font-family="sans-serif" font-size="14" font-style="italic" lengthAdjust="spacing" textLength="183" x="976.5" y="91.5352">&#171;UniswapV4RouterLibrary&#187;</text><text fill="#000000" font-family="sans-serif" font-size="14" lengthAdjust="spacing" textLength="92" x="1022" y="108.0234">0x5fbd..0aa3</text><rect fill="#E2E2F0" height="46.9766" rx="2.5" ry="2.5" style="stroke:#181818;stroke-width:0.5;" width="197" x="969.5" y="2535.3105"/><text fill="#000000" font-family="sans-serif" font-size="14" font-style="italic" lengthAdjust="spacing" textLength="183" x="976.5" y="2555.8457">&#171;UniswapV4RouterLibrary&#187;</text><text fill="#000000" font-family="sans-serif" font-size="14" lengthAdjust="spacing" textLength="92" x="1022" y="2572.334">0x5fbd..0aa3</text><rect fill="#E2E2F0" height="46.9766" rx="2.5" ry="2.5" style="stroke:#181818;stroke-width:0.5;" width="150" x="1176.5" y="71"/><text fill="#000000" font-family="sans-serif" font-size="14" font-style="italic" lengthAdjust="spacing" textLength="136" x="1183.5" y="91.5352">&#171;UniswapV4Router&#187;</text><text fill="#000000" font-family="sans-serif" font-size="14" lengthAdjust="spacing" textLength="93" x="1205" y="108.0234">0x0165..eb8f</text><rect fill="#E2E2F0" height="46.9766" rx="2.5" ry="2.5" style="stroke:#181818;stroke-width:0.5;" width="150" x="1176.5" y="2535.3105"/><text fill="#000000" font-family="sans-serif" font-size="14" font-style="italic" lengthAdjust="spacing" textLength="136" x="1183.5" y="2555.8457">&#171;UniswapV4Router&#187;</text><text fill="#000000" font-family="sans-serif" font-size="14" lengthAdjust="spacing" textLength="93" x="1205" y="2572.334">0x0165..eb8f</text><rect fill="#E2E2F0" height="63.4648" rx="2.5" ry="2.5" style="stroke:#181818;stroke-width:0.5;" width="107" x="1336.5" y="54.5117"/><text fill="#000000" font-family="sans-serif" font-size="14" font-style="italic" lengthAdjust="spacing" textLength="69" x="1355.5" y="75.0469">&#171;Token B&#187;</text><text fill="#000000" font-family="sans-serif" font-size="14" font-style="italic" lengthAdjust="spacing" textLength="93" x="1343.5" y="91.5352">&#171;MockToken&#187;</text><text fill="#000000" font-family="sans-serif" font-size="14" lengthAdjust="spacing" textLength="91" x="1344.5" y="108.0234">0x9fe4..a6e0</text><rect fill="#E2E2F0" height="63.4648" rx="2.5" ry="2.5" style="stroke:#181818;stroke-width:0.5;" width="107" x="1336.5" y="2535.3105"/><text fill="#000000" font-family="sans-serif" font-size="14" font-style="italic" lengthAdjust="spacing" textLength="69" x="1355.5" y="2555.8457">&#171;Token B&#187;</text><text fill="#000000" font-family="sans-serif" font-size="14" font-style="italic" lengthAdjust="spacing" textLength="93" x="1343.5" y="2572.334">&#171;MockToken&#187;</text><text fill="#000000" font-family="sans-serif" font-size="14" lengthAdjust="spacing" textLength="91" x="1344.5" y="2588.8223">0x9fe4..a6e0</text><rect fill="#FFFFFF" height="14" style="stroke:#181818;stroke-width:1.0;" width="10" x="368.5" y="347.7031"/><rect fill="#FFFFFF" height="931.043" style="stroke:#181818;stroke-width:1.0;" width="10" x="368.5" y="1040.1934"/><rect fill="#FFFFFF" height="190.4844" style="stroke:#181818;stroke-width:1.0;" width="10" x="373.5" y="1296.541"/><rect fill="#FFFFFF" height="40.3105" style="stroke:#181818;stroke-width:1.0;" width="10" x="378.5" y="1425.7148"/><rect fill="#FFFFFF" height="118.5527" style="stroke:#181818;stroke-width:1.0;" width="10" x="373.5" y="1692.8203"/><rect fill="#FFFFFF" height="1564.9805" style="stroke:#181818;stroke-width:1.0;" width="10" x="882.5" y="691.9824"/><rect fill="#FFFFFF" height="376.2793" style="stroke:#181818;stroke-width:1.0;" width="10" x="887.5" y="1175.3672"/><rect fill="#809ECB" height="1409.8066" style="stroke:#181818;stroke-width:1.0;" width="10" x="1063" y="736.6035"/><rect fill="#FFFFFF" height="1101.5273" style="stroke:#181818;stroke-width:1.0;" width="10" x="1246.5" y="980.2617"/><rect fill="#FFFFFF" height="791.1797" style="stroke:#181818;stroke-width:1.0;" width="10" x="1251.5" y="1100.125"/><rect fill="#FFFFFF" height="29.3105" style="stroke:#181818;stroke-width:1.0;" width="10" x="1385" y="1768.0625"/><path d="M10,135.9766 L622,135.9766 L622,143.2871 L612,153.2871 L10,153.2871 L10,135.9766 " fill="#EEEEEE" style="stroke:#000000;stroke-width:1.5;"/><rect fill="none" height="314.9688" style="stroke:#000000;stroke-width:1.5;" width="617" x="10" y="135.9766"/><text fill="#000000" font-family="sans-serif" font-size="13" font-weight="bold" lengthAdjust="spacing" textLength="567" x="25" y="149.5449">0x82da8e1120dcbc236d3b603db357923c8cc3691711a67fe259f3404c6ba23ad5</text><path d="M20,158.2871 L20,275.2871 L216,275.2871 L216,168.2871 L206,158.2871 L20,158.2871 " fill="#FEFFDD" style="stroke:#181818;stroke-width:0.5;"/><path d="M206,158.2871 L206,168.2871 L216,168.2871 L206,158.2871 " fill="#FEFFDD" style="stroke:#181818;stroke-width:0.5;"/><text fill="#000000" font-family="sans-serif" font-size="13" lengthAdjust="spacing" textLength="64" x="26" y="175.8555">Nonce: 19</text><text fill="#000000" font-family="sans-serif" font-size="13" lengthAdjust="spacing" textLength="175" x="26" y="191.166">Gas Price: 3.46992129 Gwei</text><text fill="#000000" font-family="sans-serif" font-size="13" lengthAdjust="spacing" textLength="113" x="26" y="206.4766">Max Fee: 5.0 Gwei</text><text fill="#000000" font-family="sans-serif" font-size="13" lengthAdjust="spacing" textLength="137" x="26" y="221.7871">Max Priority: 3.0 Gwei</text><text fill="#000000" font-family="sans-serif" font-size="13" lengthAdjust="spacing" textLength="111" x="26" y="237.0977">Gas Limit: 67,697</text><text fill="#000000" font-family="sans-serif" font-size="13" lengthAdjust="spacing" textLength="110" x="26" y="252.4082">Gas Used: 46,289</text><text fill="#000000" font-family="sans-serif" font-size="13" lengthAdjust="spacing" textLength="86" x="26" y="267.7188">Tx Fee: 0 ETH</text><polygon fill="#181818" points="356.5,343.7031,366.5,347.7031,356.5,351.7031,360.5,347.7031" style="stroke:#181818;stroke-width:1.0;"/><line style="stroke:#181818;stroke-width:1.0;" x1="118" x2="362.5" y1="347.7031" y2="347.7031"/><text fill="#000000" font-family="sans-serif" font-size="13" lengthAdjust="spacing" textLength="116" x="125" y="297.0293">setApprovalForAll(</text><text fill="#000000" font-family="sans-serif" font-size="13" lengthAdjust="spacing" textLength="153" x="133" y="312.3398">operator: 0xa513..C853,</text><text fill="#000000" font-family="sans-serif" font-size="13" lengthAdjust="spacing" textLength="95" x="133" y="327.6504">approved: true)</text><text fill="#000000" font-family="sans-serif" font-size="13" lengthAdjust="spacing" textLength="70" x="125" y="342.9609">24,717 gas</text><polygon fill="#181818" points="129,357.7031,119,361.7031,129,365.7031,125,361.7031" style="stroke:#181818;stroke-width:1.0;"/><line style="stroke:#181818;stroke-width:1.0;stroke-dasharray:2.0,2.0;" x1="123" x2="372.5" y1="361.7031" y2="361.7031"/><path d="M282,374.7031 L282,445.7031 L464,445.7031 L464,384.7031 L454,374.7031 L282,374.7031 " fill="#00FFFF" style="stroke:#181818;stroke-width:0.5;"/><path d="M454,374.7031 L454,384.7031 L464,384.7031 L454,374.7031 " fill="#00FFFF" style="stroke:#181818;stroke-width:0.5;"/><text fill="#000000" font-family="sans-serif" font-size="13" lengthAdjust="spacing" textLength="97" x="288" y="392.2715">ApprovalForAll:</text><text fill="#000000" font-family="sans-serif" font-size="13" lengthAdjust="spacing" textLength="146" x="296" y="407.582">account: 0xf39F..2266,</text><text fill="#000000" font-family="sans-serif" font-size="13" lengthAdjust="spacing" textLength="153" x="296" y="422.8926">operator: 0xa513..C853,</text><text fill="#000000" font-family="sans-serif" font-size="13" lengthAdjust="spacing" textLength="91" x="296" y="438.2031">approved: true</text><path d="M10,464.9453 L619,464.9453 L619,472.2559 L609,482.2559 L10,482.2559 L10,464.9453 " fill="#EEEEEE" style="stroke:#000000;stroke-width:1.5;"/><rect fill="none" height="2054.3652" style="stroke:#000000;stroke-width:1.5;" width="1515" x="10" y="464.9453"/><text fill="#000000" font-family="sans-serif" font-size="13" font-weight="bold" lengthAdjust="spacing" textLength="564" x="25" y="478.5137">0x96939ca613e425db4493a7b70a81056e1dadcf81023216b404a2adc7c4a3ff30</text><path d="M20,487.2559 L20,604.2559 L216,604.2559 L216,497.2559 L206,487.2559 L20,487.2559 " fill="#FEFFDD" style="stroke:#181818;stroke-width:0.5;"/><path d="M206,487.2559 L206,497.2559 L216,497.2559 L206,487.2559 " fill="#FEFFDD" style="stroke:#181818;stroke-width:0.5;"/><text fill="#000000" font-family="sans-serif" font-size="13" lengthAdjust="spacing" textLength="64" x="26" y="504.8242">Nonce: 20</text><text fill="#000000" font-family="sans-serif" font-size="13" lengthAdjust="spacing" textLength="175" x="26" y="520.1348">Gas Price: 3.46992129 Gwei</text><text fill="#000000" font-family="sans-serif" font-size="13" lengthAdjust="spacing" textLength="113" x="26" y="535.4453">Max Fee: 5.0 Gwei</text><text fill="#000000" font-family="sans-serif" font-size="13" lengthAdjust="spacing" textLength="137" x="26" y="550.7559">Max Priority: 3.0 Gwei</text><text fill="#000000" font-family="sans-serif" font-size="13" lengthAdjust="spacing" textLength="119" x="26" y="566.0664">Gas Limit: 194,369</text><text fill="#000000" font-family="sans-serif" font-size="13" lengthAdjust="spacing" textLength="118" x="26" y="581.377">Gas Used: 140,720</text><text fill="#000000" font-family="sans-serif" font-size="13" lengthAdjust="spacing" textLength="86" x="26" y="596.6875">Tx Fee: 0 ETH</text><polygon fill="#181818" points="870.5,687.9824,880.5,691.9824,870.5,695.9824,874.5,691.9824" style="stroke:#181818;stroke-width:1.0;"/><line style="stroke:#181818;stroke-width:1.0;" x1="118" x2="876.5" y1="691.9824" y2="691.9824"/><text fill="#000000" font-family="sans-serif" font-size="13" lengthAdjust="spacing" textLength="61" x="125" y="625.998">withdraw(</text><text fill="#000000" font-family="sans-serif" font-size="13" lengthAdjust="spacing" textLength="130" x="133" y="641.3086">token: 0x9fE4..a6e0,</text><text fill="#000000" font-family="sans-serif" font-size="13" lengthAdjust="spacing" textLength="151" x="133" y="656.6191">recipient: 0xf39F..2266,</text><text fill="#000000" font-family="sans-serif" font-size="13" lengthAdjust="spacing" textLength="240" x="133" y="671.9297">amount: 4,,000,000,000,000,000,000)</text><text fill="#000000" font-family="sans-serif" font-size="13" lengthAdjust="spacing" textLength="78" x="125" y="687.2402">123,120 gas</text><line style="stroke:#181818;stroke-width:1.0;" x1="1061" x2="1051" y1="736.6035" y2="732.6035"/><line style="stroke:#181818;stroke-width:1.0;" x1="1061" x2="1051" y1="736.6035" y2="740.6035"/><line style="stroke:#181818;stroke-width:1.0;" x1="892.5" x2="1062" y1="736.6035" y2="736.6035"/><text fill="#000000" font-family="sans-serif" font-size="13" lengthAdjust="spacing" textLength="80" x="899.5" y="716.5508">0x028dd178</text><text fill="#000000" font-family="sans-serif" font-size="13" lengthAdjust="spacing" textLength="78" x="899.5" y="731.8613">114,350 gas</text><polygon fill="#3471CD" points="1234.5,976.2617,1244.5,980.2617,1234.5,984.2617,1238.5,980.2617" style="stroke:#3471CD;stroke-width:1.0;"/><line style="stroke:#3471CD;stroke-width:1.0;" x1="892.5" x2="1240.5" y1="980.2617" y2="980.2617"/><text fill="#000000" font-family="sans-serif" font-size="13" lengthAdjust="spacing" textLength="53" x="899.5" y="761.1719">process(</text><text fill="#000000" font-family="sans-serif" font-size="13" lengthAdjust="spacing" textLength="41" x="907.5" y="776.4824">calls: [</text><text fill="#000000" font-family="sans-serif" font-size="13" lengthAdjust="spacing" textLength="20" x="915.5" y="791.793">0: [</text><text fill="#000000" font-family="sans-serif" font-size="13" lengthAdjust="spacing" textLength="137" x="923.5" y="807.1035">target: 0xa513..C853,</text><text fill="#000000" font-family="sans-serif" font-size="13" lengthAdjust="spacing" textLength="64" x="923.5" y="822.4141">callType: ,</text><text fill="#000000" font-family="sans-serif" font-size="13" lengthAdjust="spacing" textLength="85" x="923.5" y="837.7246">results: false,</text><text fill="#000000" font-family="sans-serif" font-size="13" lengthAdjust="spacing" textLength="53" x="923.5" y="853.0352">value: 0,</text><text fill="#000000" font-family="sans-serif" font-size="13" lengthAdjust="spacing" textLength="194" x="923.5" y="868.3457">data: 0x0e9b7186..9d900000],</text><text fill="#000000" font-family="sans-serif" font-size="13" lengthAdjust="spacing" textLength="20" x="915.5" y="883.6563">1: [</text><text fill="#000000" font-family="sans-serif" font-size="13" lengthAdjust="spacing" textLength="137" x="923.5" y="898.9668">target: 0x5FC8..5707,</text><text fill="#000000" font-family="sans-serif" font-size="13" lengthAdjust="spacing" textLength="64" x="923.5" y="914.2773">callType: ,</text><text fill="#000000" font-family="sans-serif" font-size="13" lengthAdjust="spacing" textLength="85" x="923.5" y="929.5879">results: false,</text><text fill="#000000" font-family="sans-serif" font-size="13" lengthAdjust="spacing" textLength="53" x="923.5" y="944.8984">value: 0,</text><text fill="#000000" font-family="sans-serif" font-size="13" lengthAdjust="spacing" textLength="198" x="923.5" y="960.209">data: 0x0b0d9c09..9d900000]])</text><text fill="#000000" font-family="sans-serif" font-size="13" lengthAdjust="spacing" textLength="78" x="899.5" y="975.5195">107,401 gas</text><polygon fill="#181818" points="389.5,1036.1934,379.5,1040.1934,389.5,1044.1934,385.5,1040.1934" style="stroke:#181818;stroke-width:1.0;"/><line style="stroke:#181818;stroke-width:1.0;" x1="383.5" x2="1245.5" y1="1040.1934" y2="1040.1934"/><text fill="#000000" font-family="sans-serif" font-size="13" lengthAdjust="spacing" textLength="31" x="395.5" y="1004.8301">lock(</text><text fill="#000000" font-family="sans-serif" font-size="13" lengthAdjust="spacing" textLength="191" x="403.5" y="1020.1406">data: 0x00000000..00000000)</text><text fill="#000000" font-family="sans-serif" font-size="13" lengthAdjust="spacing" textLength="70" x="395.5" y="1035.4512">98,984 gas</text><polygon fill="#181818" points="1239.5,1096.125,1249.5,1100.125,1239.5,1104.125,1243.5,1100.125" style="stroke:#181818;stroke-width:1.0;"/><line style="stroke:#181818;stroke-width:1.0;" x1="378.5" x2="1245.5" y1="1100.125" y2="1100.125"/><text fill="#000000" font-family="sans-serif" font-size="13" lengthAdjust="spacing" textLength="87" x="385.5" y="1064.7617">lockAcquired(</text><text fill="#000000" font-family="sans-serif" font-size="13" lengthAdjust="spacing" textLength="248" x="393.5" y="1080.0723">encodedCalls: 0x00000000..00000000)</text><text fill="#000000" font-family="sans-serif" font-size="13" lengthAdjust="spacing" textLength="70" x="385.5" y="1095.3828">76,773 gas</text><polygon fill="#181818" points="908.5,1171.3672,898.5,1175.3672,908.5,1179.3672,904.5,1175.3672" style="stroke:#181818;stroke-width:1.0;"/><line style="stroke:#181818;stroke-width:1.0;" x1="902.5" x2="1250.5" y1="1175.3672" y2="1175.3672"/><text fill="#000000" font-family="sans-serif" font-size="13" lengthAdjust="spacing" textLength="217" x="914.5" y="1124.6934">transferFromCallerToPoolManager(</text><text fill="#000000" font-family="sans-serif" font-size="13" lengthAdjust="spacing" textLength="130" x="922.5" y="1140.0039">token: 0x9fE4..a6e0,</text><text fill="#000000" font-family="sans-serif" font-size="13" lengthAdjust="spacing" textLength="240" x="922.5" y="1155.3145">amount: 4,,000,000,000,000,000,000)</text><text fill="#000000" font-family="sans-serif" font-size="13" lengthAdjust="spacing" textLength="70" x="914.5" y="1170.625">51,914 gas</text><polygon fill="#181818" points="394.5,1292.541,384.5,1296.541,394.5,1300.541,390.5,1296.541" style="stroke:#181818;stroke-width:1.0;"/><line style="stroke:#181818;stroke-width:1.0;" x1="388.5" x2="886.5" y1="1296.541" y2="1296.541"/><text fill="#000000" font-family="sans-serif" font-size="13" lengthAdjust="spacing" textLength="114" x="400.5" y="1199.9355">safeTransferFrom(</text><text fill="#000000" font-family="sans-serif" font-size="13" lengthAdjust="spacing" textLength="126" x="408.5" y="1215.2461">from: 0xf39F..2266,</text><text fill="#000000" font-family="sans-serif" font-size="13" lengthAdjust="spacing" textLength="113" x="408.5" y="1230.5566">to: 0x5FC8..5707,</text><text fill="#000000" font-family="sans-serif" font-size="13" lengthAdjust="spacing" textLength="472" x="408.5" y="1245.8672">id: 912,823,093,544,680,850,579,175,995,568,,783,282,090,442,467,040,</text><text fill="#000000" font-family="sans-serif" font-size="13" lengthAdjust="spacing" textLength="225" x="408.5" y="1261.1777">value: 4,,000,000,000,000,000,000,</text><text fill="#000000" font-family="sans-serif" font-size="13" lengthAdjust="spacing" textLength="55" x="408.5" y="1276.4883">data: 0x)</text><text fill="#000000" font-family="sans-serif" font-size="13" lengthAdjust="spacing" textLength="70" x="400.5" y="1291.7988">51,147 gas</text><line style="stroke:#181818;stroke-width:1.0;" x1="383.5" x2="430.5" y1="1412.7148" y2="1412.7148"/><line style="stroke:#181818;stroke-width:1.0;" x1="430.5" x2="430.5" y1="1412.7148" y2="1425.7148"/><line style="stroke:#181818;stroke-width:1.0;" x1="389.5" x2="430.5" y1="1425.7148" y2="1425.7148"/><polygon fill="#181818" points="399.5,1421.7148,389.5,1425.7148,399.5,1429.7148,395.5,1425.7148" style="stroke:#181818;stroke-width:1.0;"/><text fill="#000000" font-family="sans-serif" font-size="13" lengthAdjust="spacing" textLength="131" x="395.5" y="1316.1094">onERC1155Received(</text><text fill="#000000" font-family="sans-serif" font-size="13" lengthAdjust="spacing" textLength="92" x="403.5" y="1331.4199">0xa513..C853,</text><text fill="#000000" font-family="sans-serif" font-size="13" lengthAdjust="spacing" textLength="88" x="403.5" y="1346.7305">0xf39F..2266,</text><text fill="#000000" font-family="sans-serif" font-size="13" lengthAdjust="spacing" textLength="472" x="403.5" y="1362.041">id: 912,823,093,544,680,850,579,175,995,568,,783,282,090,442,467,040,</text><text fill="#000000" font-family="sans-serif" font-size="13" lengthAdjust="spacing" textLength="225" x="403.5" y="1377.3516">value: 4,,000,000,000,000,000,000,</text><text fill="#000000" font-family="sans-serif" font-size="13" lengthAdjust="spacing" textLength="20" x="403.5" y="1392.6621">0x)</text><text fill="#000000" font-family="sans-serif" font-size="13" lengthAdjust="spacing" textLength="70" x="395.5" y="1407.9727">22,700 gas</text><line style="stroke:#181818;stroke-width:1.0;stroke-dasharray:2.0,2.0;" x1="388.5" x2="430.5" y1="1465.0254" y2="1465.0254"/><line style="stroke:#181818;stroke-width:1.0;stroke-dasharray:2.0,2.0;" x1="430.5" x2="430.5" y1="1465.0254" y2="1478.0254"/><line style="stroke:#181818;stroke-width:1.0;stroke-dasharray:2.0,2.0;" x1="383.5" x2="430.5" y1="1478.0254" y2="1478.0254"/><polygon fill="#181818" points="393.5,1474.0254,383.5,1478.0254,393.5,1482.0254,389.5,1478.0254" style="stroke:#181818;stroke-width:1.0;"/><text fill="#000000" font-family="sans-serif" font-size="13" lengthAdjust="spacing" textLength="75" x="395.5" y="1460.2832">0xf23a6e61</text><polygon fill="#181818" points="875.5,1483.0254,885.5,1487.0254,875.5,1491.0254,879.5,1487.0254" style="stroke:#181818;stroke-width:1.0;"/><line style="stroke:#181818;stroke-width:1.0;stroke-dasharray:2.0,2.0;" x1="378.5" x2="881.5" y1="1487.0254" y2="1487.0254"/><path d="M383,1500.0254 L383,1540.0254 L474,1540.0254 L474,1510.0254 L464,1500.0254 L383,1500.0254 " fill="#FEFFDD" style="stroke:#181818;stroke-width:0.5;"/><path d="M464,1500.0254 L464,1510.0254 L474,1510.0254 L464,1500.0254 " fill="#FEFFDD" style="stroke:#181818;stroke-width:0.5;"/><text fill="#000000" font-family="sans-serif" font-size="13" lengthAdjust="spacing" textLength="4" x="389" y="1517.5938">&#160;</text><text fill="#000000" font-family="sans-serif" font-size="13" lengthAdjust="spacing" textLength="70" x="389" y="1532.9043">28,447 gas</text><polygon fill="#181818" points="1239.5,1547.6465,1249.5,1551.6465,1239.5,1555.6465,1243.5,1551.6465" style="stroke:#181818;stroke-width:1.0;"/><line style="stroke:#181818;stroke-width:1.0;stroke-dasharray:2.0,2.0;" x1="892.5" x2="1245.5" y1="1551.6465" y2="1551.6465"/><path d="M897,1564.6465 L897,1604.6465 L968,1604.6465 L968,1574.6465 L958,1564.6465 L897,1564.6465 " fill="#FEFFDD" style="stroke:#181818;stroke-width:0.5;"/><path d="M958,1564.6465 L958,1574.6465 L968,1574.6465 L958,1564.6465 " fill="#FEFFDD" style="stroke:#181818;stroke-width:0.5;"/><text fill="#000000" font-family="sans-serif" font-size="13" lengthAdjust="spacing" textLength="4" x="903" y="1582.2148">&#160;</text><text fill="#000000" font-family="sans-serif" font-size="13" lengthAdjust="spacing" textLength="50" x="903" y="1597.5254">767 gas</text><polygon fill="#181818" points="394.5,1688.8203,384.5,1692.8203,394.5,1696.8203,390.5,1692.8203" style="stroke:#181818;stroke-width:1.0;"/><line style="stroke:#181818;stroke-width:1.0;" x1="388.5" x2="1250.5" y1="1692.8203" y2="1692.8203"/><text fill="#000000" font-family="sans-serif" font-size="13" lengthAdjust="spacing" textLength="31" x="400.5" y="1626.8359">take(</text><text fill="#000000" font-family="sans-serif" font-size="13" lengthAdjust="spacing" textLength="148" x="408.5" y="1642.1465">currency: 0x9fE4..a6e0,</text><text fill="#000000" font-family="sans-serif" font-size="13" lengthAdjust="spacing" textLength="109" x="408.5" y="1657.457">to: 0xf39F..2266,</text><text fill="#000000" font-family="sans-serif" font-size="13" lengthAdjust="spacing" textLength="240" x="408.5" y="1672.7676">amount: 4,,000,000,000,000,000,000)</text><text fill="#000000" font-family="sans-serif" font-size="13" lengthAdjust="spacing" textLength="70" x="400.5" y="1688.0781">18,865 gas</text><polygon fill="#181818" points="1373,1764.0625,1383,1768.0625,1373,1772.0625,1377,1768.0625" style="stroke:#181818;stroke-width:1.0;"/><line style="stroke:#181818;stroke-width:1.0;" x1="383.5" x2="1379" y1="1768.0625" y2="1768.0625"/><text fill="#000000" font-family="sans-serif" font-size="13" lengthAdjust="spacing" textLength="53" x="390.5" y="1717.3887">transfer(</text><text fill="#000000" font-family="sans-serif" font-size="13" lengthAdjust="spacing" textLength="109" x="398.5" y="1732.6992">to: 0xf39F..2266,</text><text fill="#000000" font-family="sans-serif" font-size="13" lengthAdjust="spacing" textLength="225" x="398.5" y="1748.0098">value: 4,,000,000,000,000,000,000)</text><text fill="#000000" font-family="sans-serif" font-size="13" lengthAdjust="spacing" textLength="70" x="390.5" y="1763.3203">12,888 gas</text><polygon fill="#181818" points="394.5,1793.373,384.5,1797.373,394.5,1801.373,390.5,1797.373" style="stroke:#181818;stroke-width:1.0;"/><line style="stroke:#181818;stroke-width:1.0;stroke-dasharray:2.0,2.0;" x1="388.5" x2="1389" y1="1797.373" y2="1797.373"/><text fill="#000000" font-family="sans-serif" font-size="13" lengthAdjust="spacing" textLength="25" x="400.5" y="1792.6309">true</text><polygon fill="#181818" points="1239.5,1807.373,1249.5,1811.373,1239.5,1815.373,1243.5,1811.373" style="stroke:#181818;stroke-width:1.0;"/><line style="stroke:#181818;stroke-width:1.0;stroke-dasharray:2.0,2.0;" x1="378.5" x2="1245.5" y1="1811.373" y2="1811.373"/><path d="M383,1824.373 L383,1864.373 L466,1864.373 L466,1834.373 L456,1824.373 L383,1824.373 " fill="#FEFFDD" style="stroke:#181818;stroke-width:0.5;"/><path d="M456,1824.373 L456,1834.373 L466,1834.373 L456,1824.373 " fill="#FEFFDD" style="stroke:#181818;stroke-width:0.5;"/><text fill="#000000" font-family="sans-serif" font-size="13" lengthAdjust="spacing" textLength="4" x="389" y="1841.9414">&#160;</text><text fill="#000000" font-family="sans-serif" font-size="13" lengthAdjust="spacing" textLength="62" x="389" y="1857.252">5,977 gas</text><polygon fill="#181818" points="389.5,1887.3047,379.5,1891.3047,389.5,1895.3047,385.5,1891.3047" style="stroke:#181818;stroke-width:1.0;"/><line style="stroke:#181818;stroke-width:1.0;stroke-dasharray:2.0,2.0;" x1="383.5" x2="1245.5" y1="1891.3047" y2="1891.3047"/><text fill="#000000" font-family="sans-serif" font-size="13" lengthAdjust="spacing" textLength="152" x="395.5" y="1886.5625">0x00000000..00000000</text><path d="M1261,1904.3047 L1261,1944.3047 L1344,1944.3047 L1344,1914.3047 L1334,1904.3047 L1261,1904.3047 " fill="#FEFFDD" style="stroke:#181818;stroke-width:0.5;"/><path d="M1334,1904.3047 L1334,1914.3047 L1344,1914.3047 L1334,1904.3047 " fill="#FEFFDD" style="stroke:#181818;stroke-width:0.5;"/><text fill="#000000" font-family="sans-serif" font-size="13" lengthAdjust="spacing" textLength="4" x="1267" y="1921.873">&#160;</text><text fill="#000000" font-family="sans-serif" font-size="13" lengthAdjust="spacing" textLength="62" x="1267" y="1937.1836">5,994 gas</text><polygon fill="#181818" points="1234.5,1967.2363,1244.5,1971.2363,1234.5,1975.2363,1238.5,1971.2363" style="stroke:#181818;stroke-width:1.0;"/><line style="stroke:#181818;stroke-width:1.0;stroke-dasharray:2.0,2.0;" x1="373.5" x2="1240.5" y1="1971.2363" y2="1971.2363"/><text fill="#000000" font-family="sans-serif" font-size="13" lengthAdjust="spacing" textLength="196" x="380.5" y="1966.4941">result: 0x00000000..00000000</text><path d="M378,1984.2363 L378,2024.2363 L469,2024.2363 L469,1994.2363 L459,1984.2363 L378,1984.2363 " fill="#FEFFDD" style="stroke:#181818;stroke-width:0.5;"/><path d="M459,1984.2363 L459,1994.2363 L469,1994.2363 L459,1984.2363 " fill="#FEFFDD" style="stroke:#181818;stroke-width:0.5;"/><text fill="#000000" font-family="sans-serif" font-size="13" lengthAdjust="spacing" textLength="4" x="384" y="2001.8047">&#160;</text><text fill="#000000" font-family="sans-serif" font-size="13" lengthAdjust="spacing" textLength="70" x="384" y="2017.1152">22,211 gas</text><polygon fill="#3471CD" points="903.5,2077.7891,893.5,2081.7891,903.5,2085.7891,899.5,2081.7891" style="stroke:#3471CD;stroke-width:1.0;"/><line style="stroke:#3471CD;stroke-width:1.0;stroke-dasharray:2.0,2.0;" x1="897.5" x2="1250.5" y1="2081.7891" y2="2081.7891"/><text fill="#000000" font-family="sans-serif" font-size="13" lengthAdjust="spacing" textLength="55" x="909.5" y="2046.4258">results: [</text><text fill="#000000" font-family="sans-serif" font-size="13" lengthAdjust="spacing" textLength="36" x="917.5" y="2061.7363">0: 0x,</text><text fill="#000000" font-family="sans-serif" font-size="13" lengthAdjust="spacing" textLength="36" x="917.5" y="2077.0469">1: 0x]</text><path d="M1256,2094.7891 L1256,2134.7891 L1339,2134.7891 L1339,2104.7891 L1329,2094.7891 L1256,2094.7891 " fill="#FEFFDD" style="stroke:#181818;stroke-width:0.5;"/><path d="M1329,2094.7891 L1329,2104.7891 L1339,2104.7891 L1329,2094.7891 " fill="#FEFFDD" style="stroke:#181818;stroke-width:0.5;"/><text fill="#000000" font-family="sans-serif" font-size="13" lengthAdjust="spacing" textLength="4" x="1262" y="2112.3574">&#160;</text><text fill="#000000" font-family="sans-serif" font-size="13" lengthAdjust="spacing" textLength="62" x="1262" y="2127.668">8,417 gas</text><line style="stroke:#181818;stroke-width:1.0;" x1="893.5" x2="903.5" y1="2146.4102" y2="2142.4102"/><line style="stroke:#181818;stroke-width:1.0;" x1="893.5" x2="903.5" y1="2146.4102" y2="2150.4102"/><line style="stroke:#181818;stroke-width:1.0;stroke-dasharray:2.0,2.0;" x1="892.5" x2="1067" y1="2146.4102" y2="2146.4102"/><path d="M1073,2159.4102 L1073,2199.4102 L1156,2199.4102 L1156,2169.4102 L1146,2159.4102 L1073,2159.4102 " fill="#FEFFDD" style="stroke:#181818;stroke-width:0.5;"/><path d="M1146,2159.4102 L1146,2169.4102 L1156,2169.4102 L1146,2159.4102 " fill="#FEFFDD" style="stroke:#181818;stroke-width:0.5;"/><text fill="#000000" font-family="sans-serif" font-size="13" lengthAdjust="spacing" textLength="4" x="1079" y="2176.9785">&#160;</text><text fill="#000000" font-family="sans-serif" font-size="13" lengthAdjust="spacing" textLength="62" x="1079" y="2192.2891">6,949 gas</text><polygon fill="#181818" points="129,2252.9629,119,2256.9629,129,2260.9629,125,2256.9629" style="stroke:#181818;stroke-width:1.0;"/><line style="stroke:#181818;stroke-width:1.0;stroke-dasharray:2.0,2.0;" x1="123" x2="886.5" y1="2256.9629" y2="2256.9629"/><text fill="#000000" font-family="sans-serif" font-size="13" lengthAdjust="spacing" textLength="55" x="135" y="2221.5996">results: [</text><text fill="#000000" font-family="sans-serif" font-size="13" lengthAdjust="spacing" textLength="36" x="143" y="2236.9102">0: 0x,</text><text fill="#000000" font-family="sans-serif" font-size="13" lengthAdjust="spacing" textLength="36" x="143" y="2252.2207">1: 0x]</text><path d="M892,2269.9629 L892,2309.9629 L975,2309.9629 L975,2279.9629 L965,2269.9629 L892,2269.9629 " fill="#FEFFDD" style="stroke:#181818;stroke-width:0.5;"/><path d="M965,2269.9629 L965,2279.9629 L975,2279.9629 L965,2269.9629 " fill="#FEFFDD" style="stroke:#181818;stroke-width:0.5;"/><text fill="#000000" font-family="sans-serif" font-size="13" lengthAdjust="spacing" textLength="4" x="898" y="2287.5313">&#160;</text><text fill="#000000" font-family="sans-serif" font-size="13" lengthAdjust="spacing" textLength="62" x="898" y="2302.8418">8,770 gas</text><path d="M123,2320.584 L123,2513.584 L624,2513.584 L624,2330.584 L614,2320.584 L123,2320.584 " fill="#00FFFF" style="stroke:#181818;stroke-width:0.5;"/><path d="M614,2320.584 L614,2330.584 L624,2330.584 L614,2320.584 " fill="#00FFFF" style="stroke:#181818;stroke-width:0.5;"/><text fill="#000000" font-family="sans-serif" font-size="13" lengthAdjust="spacing" textLength="94" x="129" y="2338.1523">TransferSingle:</text><text fill="#000000" font-family="sans-serif" font-size="13" lengthAdjust="spacing" textLength="153" x="137" y="2353.4629">operator: 0xa513..C853,</text><text fill="#000000" font-family="sans-serif" font-size="13" lengthAdjust="spacing" textLength="126" x="137" y="2368.7734">from: 0xf39F..2266,</text><text fill="#000000" font-family="sans-serif" font-size="13" lengthAdjust="spacing" textLength="113" x="137" y="2384.084">to: 0x5FC8..5707,</text><text fill="#000000" font-family="sans-serif" font-size="13" lengthAdjust="spacing" textLength="472" x="137" y="2399.3945">id: 912,823,093,544,680,850,579,175,995,568,,783,282,090,442,467,040,</text><text fill="#000000" font-family="sans-serif" font-size="13" lengthAdjust="spacing" textLength="221" x="137" y="2414.7051">value: 4,,000,000,000,000,000,000</text><text fill="#000000" font-family="sans-serif" font-size="13" lengthAdjust="spacing" textLength="94" x="129" y="2430.0156">TransferSingle:</text><text fill="#000000" font-family="sans-serif" font-size="13" lengthAdjust="spacing" textLength="153" x="137" y="2445.3262">operator: 0x5FC8..5707,</text><text fill="#000000" font-family="sans-serif" font-size="13" lengthAdjust="spacing" textLength="130" x="137" y="2460.6367">from: 0x5FC8..5707,</text><text fill="#000000" font-family="sans-serif" font-size="13" lengthAdjust="spacing" textLength="113" x="137" y="2475.9473">to: 0x0000..0000,</text><text fill="#000000" font-family="sans-serif" font-size="13" lengthAdjust="spacing" textLength="472" x="137" y="2491.2578">id: 912,823,093,544,680,850,579,175,995,568,,783,282,090,442,467,040,</text><text fill="#000000" font-family="sans-serif" font-size="13" lengthAdjust="spacing" textLength="221" x="137" y="2506.5684">value: 4,,000,000,000,000,000,000</text><path d="M1265,2320.584 L1265,2391.584 L1515,2391.584 L1515,2330.584 L1505,2320.584 L1265,2320.584 " fill="#00FFFF" style="stroke:#181818;stroke-width:0.5;"/><path d="M1505,2320.584 L1505,2330.584 L1515,2330.584 L1505,2320.584 " fill="#00FFFF" style="stroke:#181818;stroke-width:0.5;"/><text fill="#000000" font-family="sans-serif" font-size="13" lengthAdjust="spacing" textLength="56" x="1271" y="2338.1523">Transfer:</text><text fill="#000000" font-family="sans-serif" font-size="13" lengthAdjust="spacing" textLength="130" x="1279" y="2353.4629">from: 0x5FC8..5707,</text><text fill="#000000" font-family="sans-serif" font-size="13" lengthAdjust="spacing" textLength="109" x="1279" y="2368.7734">to: 0xf39F..2266,</text><text fill="#000000" font-family="sans-serif" font-size="13" lengthAdjust="spacing" textLength="221" x="1279" y="2384.084">value: 4,,000,000,000,000,000,000</text><text fill="#888888" font-family="sans-serif" font-size="10" lengthAdjust="spacing" textLength="223" x="655.5" y="2622.4668">none, block 8, Sun, 24 Sep 2023 01:02:28 GMT</text><text fill="#888888" font-family="sans-serif" font-size="10" lengthAdjust="spacing" textLength="223" x="655.5" y="2634.2441">none, block 8, Sun, 24 Sep 2023 01:02:28 GMT</text><text fill="#888888" font-family="sans-serif" font-size="10" lengthAdjust="spacing" textLength="3" x="765.5" y="2646.0215">&#160;</text><!--SRC=[lLTBRziu4BxhLn3DfGimMfAYA5883AJU97je5aNYxXwQ72Y9IeKuaalBUVpx7KgoBCUFk4LG0GOu53clxviPkIxggK5VosB-f6VeaQDZz5zHVy-iVlBogggDzSggD1WbqogzHnAZwqM94UFesimG8on0XCQ4nKoYYyl9pntsJ9brHdHQLnPz8Czve7BVPqo83qZFaHETWBoPjdMH5ZDTrkvScAVIzyE8HCqv9pe1dPmCWXbNren69oTVgcfwgKjzP-nez5gJ3cdW-t0zQ3GvqGahJV_oiPvEjrqDyoJpVQ9rq3cHP4uONhsg5X3VvoAnshviQY1KXBvl4fat6fpeX4qDcrTLRhZlQs58SzM9Je2ha-hUbEYJY_mIW6X4kE_TsMenG-HPianBGoaZMPgaB11Pa0WIP4aGHef1z6aQ24KZIhM8SiD2bGUSy5GacWKw2m7bsg3gqTWU7- -VganDZAZoBi2PBxPmKk1peHIZJA6B9rDub_ePdHju4VfajGE7ArlKB-vyj-rqV2uUYZf68i92HStErxd9OiG5Pb9vaquLGMUJlnsJaFFAyth678zwLiHeRkhJsSnMZtfwNjdJwVJZJObGDJDM0_50IqU3CI2FtIlTd7RsQhimVzoKZEE8HkXEpnrPYqSDALZgzwof5xP4tY0pFIEFz8-5zjQjnnvOIDDgKTREDlXytf8UUpkzybuxDGWQLZswIgX0fLhGm70MPWddAj1H4X4jAGc5ePdEqXpMB61K902iPh0JfLm7UHwGFUWoyjxeKiKnS6q0B-K4Hs3e47oNjHgZfwvfDR3MZl0kUoe_wqgamTGQg9x2REIymVkX1ODZJ0ZPzWCEK1PWg9fr4YoTyFhESJmQzRt0cI9CPXcD92YW46v8NhEeQnj7agYpyQU1ecz70O_e-A_RKTyQOWGSICryteIQGcUQn-YRMoD4-XKaGTixKszXjdlSjSdB3DBRRrapNqnhq9NhwTpqsq3PXKEXtyXqhPkWZ4eYAeNlgqmHzznsP-XMByBpSTUmtzMBX6Gg9MhWnQq32gnmGjVplCoWrtVPjHRXPbQJqrvtzq27xnxGh2HMakze0ttD7m_nSefFqn-BmfgiCM3AjCfCDcwnss4e4ZYAWWCYM1L1RNKvpuqzjzL3Ex8crM3qxQsDW_WVKgmeVvl-myQhSpCP-DKuaSDYImtMrHQY5D0J56LOGkqH5U2GSomamJ8a6COLfb68bGfnA2J6aGnWE30uI33d37EO7eIt4NOSsXqW7eBVHajvT03KgsYhykngJ6aONfdK58yTtXibk17vRmwo2Oyn716oVw21ep3nXH6q7t7DTB35tVSQLVaWT50emPqsNziFhvZgwDsUt5wBjRutRNzRM0lbyhA5iIrRVgcDIon5U02mos-gLMbzt6dvpSmtymDBATSDBsqiSzPCzhUJ3No8rdAzhOsykhzgISrznOVtsyuR7w9d3NI66QMRYfP3YJYDJOAeMztkSGdeG_VHPpLIRqg15LU_R7L8H0bjjgs2tHzlomPsNPHtKnFl_KRRqjkyBQtDUwUYzmvWtXl-htkrz7zzj_L_nOhVw__gw-zFj0Af_yUp3bByHX3hmFoCSLZz3m00]--></g></svg>