<?xml version="1.0" encoding="us-ascii" standalone="no"?><svg xmlns="http://www.w3.org/2000/svg" xmlns:xlink="http://www.w3.org/1999/xlink" contentStyleType="text/css" height="331px" preserveAspectRatio="none" style="width:415px;height:331px;background:#FFFFFF;" version="1.1" viewBox="0 0 415 331" width="415px" zoomAndPan="magnify"><defs/><g><text fill="#000000" font-family="sans-serif" font-size="14" font-weight="bold" lengthAdjust="spacing" textLength="289" x="62.75" y="28.5352">Uniswap v4 - Withdraw Value Transfers</text><line style="stroke:#181818;stroke-width:0.5;stroke-dasharray:5.0,5.0;" x1="75" x2="75" y1="106.9531" y2="324.4375"/><line style="stroke:#181818;stroke-width:0.5;stroke-dasharray:5.0,5.0;" x1="250" x2="250" y1="106.9531" y2="324.4375"/><rect fill="#E2E2F0" height="30.4883" rx="2.5" ry="2.5" style="stroke:#181818;stroke-width:0.5;" width="107" x="22" y="75.4648"/><text fill="#000000" font-family="sans-serif" font-size="14" lengthAdjust="spacing" textLength="93" x="29" y="96">0xf39F..2266</text><rect fill="#E2E2F0" height="63.4648" rx="2.5" ry="2.5" style="stroke:#181818;stroke-width:0.5;" width="143" x="179" y="42.4883"/><text fill="#000000" font-family="sans-serif" font-size="14" font-style="italic" lengthAdjust="spacing" textLength="129" x="186" y="63.0234">&#171;Uniswap v4 Core&#187;</text><text fill="#000000" font-family="sans-serif" font-size="14" font-style="italic" lengthAdjust="spacing" textLength="104" x="198.5" y="79.5117">&#171;PoolManager&#187;</text><text fill="#000000" font-family="sans-serif" font-size="14" lengthAdjust="spacing" textLength="98" x="201.5" y="96">0x5FC8..5707</text><polygon fill="#181818" points="238.5,149.5742,248.5,153.5742,238.5,157.5742,242.5,153.5742" style="stroke:#181818;stroke-width:1.0;"/><line style="stroke:#181818;stroke-width:1.0;" x1="75.5" x2="244.5" y1="153.5742" y2="153.5742"/><text fill="#000000" font-family="sans-serif" font-size="13" lengthAdjust="spacing" textLength="151" x="82.5" y="133.5215">TransferSingle 4.0 TOKB</text><text fill="#000000" font-family="sans-serif" font-size="13" lengthAdjust="spacing" textLength="104" x="82.5" y="148.832">in 0x5FC8..5707</text><line style="stroke:#181818;stroke-width:1.0;" x1="250.5" x2="292.5" y1="198.1953" y2="198.1953"/><line style="stroke:#181818;stroke-width:1.0;" x1="292.5" x2="292.5" y1="198.1953" y2="211.1953"/><line style="stroke:#181818;stroke-width:1.0;" x1="263.5" x2="292.5" y1="211.1953" y2="211.1953"/><line style="stroke:#181818;stroke-width:2.0;" x1="256.5" x2="266.5" y1="206.1953" y2="216.1953"/><line style="stroke:#181818;stroke-width:2.0;" x1="256.5" x2="266.5" y1="216.1953" y2="206.1953"/><text fill="#000000" font-family="sans-serif" font-size="13" lengthAdjust="spacing" textLength="151" x="257.5" y="178.1426">TransferSingle 4.0 TOKB</text><text fill="#000000" font-family="sans-serif" font-size="13" lengthAdjust="spacing" textLength="104" x="257.5" y="193.4531">in 0x5FC8..5707</text><polygon fill="#181818" points="86.5,236.5059,76.5,240.5059,86.5,244.5059,82.5,240.5059" style="stroke:#181818;stroke-width:1.0;"/><line style="stroke:#181818;stroke-width:1.0;" x1="80.5" x2="249.5" y1="240.5059" y2="240.5059"/><text fill="#000000" font-family="sans-serif" font-size="13" lengthAdjust="spacing" textLength="113" x="92.5" y="235.7637">Transfer 4.0 TOKB</text><path d="M5,253.5059 L5,308.5059 L146,308.5059 L146,263.5059 L136,253.5059 L5,253.5059 " fill="#00FFFF" style="stroke:#181818;stroke-width:0.5;"/><path d="M136,253.5059 L136,263.5059 L146,263.5059 L136,253.5059 " fill="#00FFFF" style="stroke:#181818;stroke-width:0.5;"/><text fill="#000000" font-family="sans-serif" font-size="13" lengthAdjust="spacing" textLength="65" x="19" y="271.0742">-4.0 TOKB</text><text fill="#000000" font-family="sans-serif" font-size="13" lengthAdjust="spacing" textLength="104" x="27" y="286.3848">in 0x5FC8..5707</text><text fill="#000000" font-family="sans-serif" font-size="13" lengthAdjust="spacing" textLength="67" x="11" y="301.6953">+4.0 TOKB</text><path d="M207,253.5059 L207,278.5059 L293,278.5059 L293,263.5059 L283,253.5059 L207,253.5059 " fill="#00FFFF" style="stroke:#181818;stroke-width:0.5;"/><path d="M283,253.5059 L283,263.5059 L293,263.5059 L283,253.5059 " fill="#00FFFF" style="stroke:#181818;stroke-width:0.5;"/><text fill="#000000" font-family="sans-serif" font-size="13" lengthAdjust="spacing" textLength="65" x="213" y="271.0742">-4.0 TOKB</text><!--SRC=[fKzDJm8n4BtFhtXPZgPrWomWsVGW2HTZD17bucLaMsYoQTTkWVtvxcfI21wTsvjvNnDjh3MoDsVR4pSuJY2miN5V1JxXdUk3nZgmQuqERKPxMsaOx-EdxuWQ3j5kRSCk8iixStU_ad8ydaupS8iUcW7WcbUibdCfYra- - -4LPZiV0ChoeiNI1wrKMRvuNp-nuvqEIX4bKw6IS94Qlbgtwx-Po1phvyU73sSTBlCePOdkVtALtZlBav28d8yQ_jWlK-CHVnsO095ewESwuYPTjQims13TucoNAlpQYR_qRm00]--></g></svg>