<?xml version="1.0" encoding="us-ascii" standalone="no"?><svg xmlns="http://www.w3.org/2000/svg" xmlns:xlink="http://www.w3.org/1999/xlink" contentStyleType="text/css" height="561px" preserveAspectRatio="none" style="width:698px;height:561px;background:#FFFFFF;" version="1.1" viewBox="0 0 698 561" width="698px" zoomAndPan="magnify"><defs/><g><text fill="#000000" font-family="sans-serif" font-size="14" font-weight="bold" lengthAdjust="spacing" textLength="170" x="263.25" y="28.5352">Uniswap v4 - Withdraw</text><rect fill="#FFFFFF" height="386.4844" style="stroke:#181818;stroke-width:1.0;" width="10" x="178" y="150.2871"/><rect fill="#FFFFFF" height="126.6211" style="stroke:#181818;stroke-width:1.0;" width="10" x="183" y="267.5293"/><rect fill="#FFFFFF" height="343.1738" style="stroke:#181818;stroke-width:1.0;" width="10" x="335" y="179.5977"/><rect fill="#FFFFFF" height="256.5527" style="stroke:#181818;stroke-width:1.0;" width="10" x="340" y="238.2188"/><rect fill="#FFFFFF" height="299.8633" style="stroke:#181818;stroke-width:1.0;" width="10" x="479" y="208.9082"/><rect fill="#FFFFFF" height="83.3105" style="stroke:#181818;stroke-width:1.0;" width="10" x="484" y="296.8398"/><rect fill="#FFFFFF" height="25" style="stroke:#181818;stroke-width:1.0;" width="10" x="489" y="334.1504"/><rect fill="#FFFFFF" height="57.3105" style="stroke:#181818;stroke-width:1.0;" width="10" x="484" y="423.4609"/><rect fill="#FFFFFF" height="14" style="stroke:#181818;stroke-width:1.0;" width="10" x="635" y="452.7715"/><line style="stroke:#181818;stroke-width:0.5;stroke-dasharray:5.0,5.0;" x1="53" x2="53" y1="118.9766" y2="554.7715"/><line style="stroke:#181818;stroke-width:0.5;stroke-dasharray:5.0,5.0;" x1="183" x2="183" y1="118.9766" y2="554.7715"/><line style="stroke:#181818;stroke-width:0.5;stroke-dasharray:5.0,5.0;" x1="340" x2="340" y1="118.9766" y2="554.7715"/><line style="stroke:#181818;stroke-width:0.5;stroke-dasharray:5.0,5.0;" x1="484" x2="484" y1="118.9766" y2="554.7715"/><line style="stroke:#181818;stroke-width:0.5;stroke-dasharray:5.0,5.0;" x1="639.5" x2="639.5" y1="118.9766" y2="554.7715"/><text fill="#000000" font-family="sans-serif" font-size="14" lengthAdjust="spacing" textLength="90" x="5" y="116.0234">0xf39f..2266</text><ellipse cx="53" cy="50.9883" fill="#E2E2F0" rx="8" ry="8" style="stroke:#181818;stroke-width:0.5;"/><path d="M53,58.9883 L53,85.9883 M40,66.9883 L66,66.9883 M53,85.9883 L40,100.9883 M53,85.9883 L66,100.9883 " fill="none" style="stroke:#181818;stroke-width:0.5;"/><rect fill="#E2E2F0" height="46.9766" rx="2.5" ry="2.5" style="stroke:#181818;stroke-width:0.5;" width="144" x="111" y="71"/><text fill="#000000" font-family="sans-serif" font-size="14" font-style="italic" lengthAdjust="spacing" textLength="130" x="118" y="91.5352">&#171;UniswapV4Caller&#187;</text><text fill="#000000" font-family="sans-serif" font-size="14" lengthAdjust="spacing" textLength="92" x="137" y="108.0234">0x5fc8..5707</text><rect fill="#E2E2F0" height="46.9766" rx="2.5" ry="2.5" style="stroke:#181818;stroke-width:0.5;" width="150" x="265" y="71"/><text fill="#000000" font-family="sans-serif" font-size="14" font-style="italic" lengthAdjust="spacing" textLength="136" x="272" y="91.5352">&#171;UniswapV4Router&#187;</text><text fill="#000000" font-family="sans-serif" font-size="14" lengthAdjust="spacing" textLength="90" x="295" y="108.0234">0xdc64..f6c9</text><rect fill="#E2E2F0" height="46.9766" rx="2.5" ry="2.5" style="stroke:#181818;stroke-width:0.5;" width="118" x="425" y="71"/><text fill="#000000" font-family="sans-serif" font-size="14" font-style="italic" lengthAdjust="spacing" textLength="104" x="432" y="91.5352">&#171;PoolManager&#187;</text><text fill="#000000" font-family="sans-serif" font-size="14" lengthAdjust="spacing" textLength="85" x="441.5" y="108.0234">0xcf7e..0fc9</text><rect fill="#E2E2F0" height="63.4648" rx="2.5" ry="2.5" style="stroke:#181818;stroke-width:0.5;" width="105" x="587.5" y="54.5117"/><text fill="#000000" font-family="sans-serif" font-size="14" font-style="italic" lengthAdjust="spacing" textLength="62" x="609" y="75.0469">&#171;token0&#187;</text><text fill="#000000" font-family="sans-serif" font-size="14" font-style="italic" lengthAdjust="spacing" textLength="88" x="596" y="91.5352">&#171;TestERC20&#187;</text><text fill="#000000" font-family="sans-serif" font-size="14" lengthAdjust="spacing" textLength="91" x="594.5" y="108.0234">0x9fe4..a6e0</text><rect fill="#FFFFFF" height="386.4844" style="stroke:#181818;stroke-width:1.0;" width="10" x="178" y="150.2871"/><rect fill="#FFFFFF" height="126.6211" style="stroke:#181818;stroke-width:1.0;" width="10" x="183" y="267.5293"/><rect fill="#FFFFFF" height="343.1738" style="stroke:#181818;stroke-width:1.0;" width="10" x="335" y="179.5977"/><rect fill="#FFFFFF" height="256.5527" style="stroke:#181818;stroke-width:1.0;" width="10" x="340" y="238.2188"/><rect fill="#FFFFFF" height="299.8633" style="stroke:#181818;stroke-width:1.0;" width="10" x="479" y="208.9082"/><rect fill="#FFFFFF" height="83.3105" style="stroke:#181818;stroke-width:1.0;" width="10" x="484" y="296.8398"/><rect fill="#FFFFFF" height="25" style="stroke:#181818;stroke-width:1.0;" width="10" x="489" y="334.1504"/><rect fill="#FFFFFF" height="57.3105" style="stroke:#181818;stroke-width:1.0;" width="10" x="484" y="423.4609"/><rect fill="#FFFFFF" height="14" style="stroke:#181818;stroke-width:1.0;" width="10" x="635" y="452.7715"/><polygon fill="#181818" points="166,146.2871,176,150.2871,166,154.2871,170,150.2871" style="stroke:#181818;stroke-width:1.0;"/><line style="stroke:#181818;stroke-width:1.0;" x1="53" x2="172" y1="150.2871" y2="150.2871"/><text fill="#000000" font-family="sans-serif" font-size="13" lengthAdjust="spacing" textLength="57" x="60" y="145.5449">withdraw</text><polygon fill="#181818" points="323,175.5977,333,179.5977,323,183.5977,327,179.5977" style="stroke:#181818;stroke-width:1.0;"/><line style="stroke:#181818;stroke-width:1.0;" x1="188" x2="329" y1="179.5977" y2="179.5977"/><text fill="#000000" font-family="sans-serif" font-size="13" lengthAdjust="spacing" textLength="49" x="195" y="174.8555">process</text><polygon fill="#181818" points="467,204.9082,477,208.9082,467,212.9082,471,208.9082" style="stroke:#181818;stroke-width:1.0;"/><line style="stroke:#181818;stroke-width:1.0;" x1="345" x2="473" y1="208.9082" y2="208.9082"/><text fill="#000000" font-family="sans-serif" font-size="13" lengthAdjust="spacing" textLength="27" x="352" y="204.166">lock</text><polygon fill="#181818" points="361,234.2188,351,238.2188,361,242.2188,357,238.2188" style="stroke:#181818;stroke-width:1.0;"/><line style="stroke:#181818;stroke-width:1.0;" x1="355" x2="478" y1="238.2188" y2="238.2188"/><text fill="#000000" font-family="sans-serif" font-size="13" lengthAdjust="spacing" textLength="83" x="367" y="233.4766">lockAcquired</text><polygon fill="#181818" points="204,263.5293,194,267.5293,204,271.5293,200,267.5293" style="stroke:#181818;stroke-width:1.0;"/><line style="stroke:#181818;stroke-width:1.0;" x1="198" x2="339" y1="267.5293" y2="267.5293"/><text fill="#000000" font-family="sans-serif" font-size="13" lengthAdjust="spacing" textLength="111" x="210" y="262.7871">withdrawCallback</text><polygon fill="#181818" points="472,292.8398,482,296.8398,472,300.8398,476,296.8398" style="stroke:#181818;stroke-width:1.0;"/><line style="stroke:#181818;stroke-width:1.0;" x1="193" x2="478" y1="296.8398" y2="296.8398"/><text fill="#000000" font-family="sans-serif" font-size="13" lengthAdjust="spacing" textLength="110" x="200" y="292.0977">safeTransferFrom</text><line style="stroke:#181818;stroke-width:1.0;" x1="494" x2="541" y1="321.1504" y2="321.1504"/><line style="stroke:#181818;stroke-width:1.0;" x1="541" x2="541" y1="321.1504" y2="334.1504"/><line style="stroke:#181818;stroke-width:1.0;" x1="500" x2="541" y1="334.1504" y2="334.1504"/><polygon fill="#181818" points="510,330.1504,500,334.1504,510,338.1504,506,334.1504" style="stroke:#181818;stroke-width:1.0;"/><text fill="#000000" font-family="sans-serif" font-size="13" lengthAdjust="spacing" textLength="127" x="506" y="316.4082">onERC1155Received</text><line style="stroke:#181818;stroke-width:1.0;stroke-dasharray:2.0,2.0;" x1="499" x2="541" y1="358.1504" y2="358.1504"/><line style="stroke:#181818;stroke-width:1.0;stroke-dasharray:2.0,2.0;" x1="541" x2="541" y1="358.1504" y2="371.1504"/><line style="stroke:#181818;stroke-width:1.0;stroke-dasharray:2.0,2.0;" x1="494" x2="541" y1="371.1504" y2="371.1504"/><polygon fill="#181818" points="504,367.1504,494,371.1504,504,375.1504,500,371.1504" style="stroke:#181818;stroke-width:1.0;"/><polygon fill="#181818" points="204,376.1504,194,380.1504,204,384.1504,200,380.1504" style="stroke:#181818;stroke-width:1.0;"/><line style="stroke:#181818;stroke-width:1.0;stroke-dasharray:2.0,2.0;" x1="198" x2="478" y1="380.1504" y2="380.1504"/><polygon fill="#181818" points="328,390.1504,338,394.1504,328,398.1504,332,394.1504" style="stroke:#181818;stroke-width:1.0;"/><line style="stroke:#181818;stroke-width:1.0;stroke-dasharray:2.0,2.0;" x1="188" x2="334" y1="394.1504" y2="394.1504"/><polygon fill="#181818" points="472,419.4609,482,423.4609,472,427.4609,476,423.4609" style="stroke:#181818;stroke-width:1.0;"/><line style="stroke:#181818;stroke-width:1.0;" x1="350" x2="478" y1="423.4609" y2="423.4609"/><text fill="#000000" font-family="sans-serif" font-size="13" lengthAdjust="spacing" textLength="27" x="357" y="418.7188">take</text><polygon fill="#181818" points="623,448.7715,633,452.7715,623,456.7715,627,452.7715" style="stroke:#181818;stroke-width:1.0;"/><line style="stroke:#181818;stroke-width:1.0;" x1="494" x2="629" y1="452.7715" y2="452.7715"/><text fill="#000000" font-family="sans-serif" font-size="13" lengthAdjust="spacing" textLength="49" x="501" y="448.0293">transfer</text><polygon fill="#181818" points="505,462.7715,495,466.7715,505,470.7715,501,466.7715" style="stroke:#181818;stroke-width:1.0;"/><line style="stroke:#181818;stroke-width:1.0;stroke-dasharray:2.0,2.0;" x1="499" x2="639" y1="466.7715" y2="466.7715"/><polygon fill="#181818" points="361,476.7715,351,480.7715,361,484.7715,357,480.7715" style="stroke:#181818;stroke-width:1.0;"/><line style="stroke:#181818;stroke-width:1.0;stroke-dasharray:2.0,2.0;" x1="355" x2="478" y1="480.7715" y2="480.7715"/><polygon fill="#181818" points="467,490.7715,477,494.7715,467,498.7715,471,494.7715" style="stroke:#181818;stroke-width:1.0;"/><line style="stroke:#181818;stroke-width:1.0;stroke-dasharray:2.0,2.0;" x1="345" x2="473" y1="494.7715" y2="494.7715"/><polygon fill="#181818" points="356,504.7715,346,508.7715,356,512.7715,352,508.7715" style="stroke:#181818;stroke-width:1.0;"/><line style="stroke:#181818;stroke-width:1.0;stroke-dasharray:2.0,2.0;" x1="350" x2="483" y1="508.7715" y2="508.7715"/><polygon fill="#181818" points="199,518.7715,189,522.7715,199,526.7715,195,522.7715" style="stroke:#181818;stroke-width:1.0;"/><line style="stroke:#181818;stroke-width:1.0;stroke-dasharray:2.0,2.0;" x1="193" x2="339" y1="522.7715" y2="522.7715"/><polygon fill="#181818" points="64,532.7715,54,536.7715,64,540.7715,60,536.7715" style="stroke:#181818;stroke-width:1.0;"/><line style="stroke:#181818;stroke-width:1.0;stroke-dasharray:2.0,2.0;" x1="58" x2="182" y1="536.7715" y2="536.7715"/><!--SRC=[XP5VRy8W5CNV-HJ4TqbrjiwcQRAOxMt9OjpsVAMNIUoW0_ppyGT6g7DDV2Add5_FFHSdNOlqNKbxX8uUPdHCFwNRDWQEP2iRf49hjz4dGe0xRUWeEuc7XM1iEYsA4GLBWmo2aWwCarnse5pmvO8_CfRFi_dP5sGGjAekSH-p9RGjchg-HHjUp1WJ1L-SqI23k4PNUk-6K2xco5WcBcYGGNZqJUls5HHy3M4BWJuH2ipEM911UCpf7QgihgjgZTOzhvPJBmX9jSTrgbRIOzoTtvOyWCDqHr9_3yH29UsCvcXjxuzN99Ns_jYYfAtckzuSlvDKyy_FW_c9_-obmUPEmlyAuMqsS9qsMAKVpOB0jG5b1PeNex_lZDc3MlcjJYPvlaAEyd0zQo8DkhrHDyVmYXpiy4vsV5vllWpS0_5kE7Bm-0K0]--></g></svg>