<?xml version="1.0" encoding="us-ascii" standalone="no"?><svg xmlns="http://www.w3.org/2000/svg" xmlns:xlink="http://www.w3.org/1999/xlink" contentStyleType="text/css" height="561px" preserveAspectRatio="none" style="width:711px;height:561px;background:#FFFFFF;" version="1.1" viewBox="0 0 711 561" width="711px" zoomAndPan="magnify"><defs/><g><text fill="#000000" font-family="sans-serif" font-size="14" font-weight="bold" lengthAdjust="spacing" textLength="170" x="269.5" y="28.5352">Uniswap v4 - Withdraw</text><rect fill="#FFFFFF" height="386.4844" style="stroke:#181818;stroke-width:1.0;" width="10" x="178" y="150.2871"/><rect fill="#FFFFFF" height="126.6211" style="stroke:#181818;stroke-width:1.0;" width="10" x="183" y="267.5293"/><rect fill="#FFFFFF" height="343.1738" style="stroke:#181818;stroke-width:1.0;" width="10" x="335" y="179.5977"/><rect fill="#FFFFFF" height="256.5527" style="stroke:#181818;stroke-width:1.0;" width="10" x="340" y="238.2188"/><rect fill="#FFFFFF" height="299.8633" style="stroke:#181818;stroke-width:1.0;" width="10" x="491.5" y="208.9082"/><rect fill="#FFFFFF" height="83.3105" style="stroke:#181818;stroke-width:1.0;" width="10" x="496.5" y="296.8398"/><rect fill="#FFFFFF" height="25" style="stroke:#181818;stroke-width:1.0;" width="10" x="501.5" y="334.1504"/><rect fill="#FFFFFF" height="57.3105" style="stroke:#181818;stroke-width:1.0;" width="10" x="496.5" y="423.4609"/><rect fill="#FFFFFF" height="14" style="stroke:#181818;stroke-width:1.0;" width="10" x="647.5" y="452.7715"/><line style="stroke:#181818;stroke-width:0.5;stroke-dasharray:5.0,5.0;" x1="53" x2="53" y1="118.9766" y2="554.7715"/><line style="stroke:#181818;stroke-width:0.5;stroke-dasharray:5.0,5.0;" x1="183" x2="183" y1="118.9766" y2="554.7715"/><line style="stroke:#181818;stroke-width:0.5;stroke-dasharray:5.0,5.0;" x1="340" x2="340" y1="118.9766" y2="554.7715"/><line style="stroke:#181818;stroke-width:0.5;stroke-dasharray:5.0,5.0;" x1="496" x2="496" y1="118.9766" y2="554.7715"/><line style="stroke:#181818;stroke-width:0.5;stroke-dasharray:5.0,5.0;" x1="652" x2="652" y1="118.9766" y2="554.7715"/><text fill="#000000" font-family="sans-serif" font-size="14" lengthAdjust="spacing" textLength="90" x="5" y="116.0234">0xf39f..2266</text><ellipse cx="53" cy="50.9883" fill="#E2E2F0" rx="8" ry="8" style="stroke:#181818;stroke-width:0.5;"/><path d="M53,58.9883 L53,85.9883 M40,66.9883 L66,66.9883 M53,85.9883 L40,100.9883 M53,85.9883 L66,100.9883 " fill="none" style="stroke:#181818;stroke-width:0.5;"/><rect fill="#E2E2F0" height="46.9766" rx="2.5" ry="2.5" style="stroke:#181818;stroke-width:0.5;" width="144" x="111" y="71"/><text fill="#000000" font-family="sans-serif" font-size="14" font-style="italic" lengthAdjust="spacing" textLength="130" x="118" y="91.5352">&#171;UniswapV4Caller&#187;</text><text fill="#000000" font-family="sans-serif" font-size="14" lengthAdjust="spacing" textLength="92" x="137" y="108.0234">0x5fc8..5707</text><rect fill="#E2E2F0" height="46.9766" rx="2.5" ry="2.5" style="stroke:#181818;stroke-width:0.5;" width="150" x="265" y="71"/><text fill="#000000" font-family="sans-serif" font-size="14" font-style="italic" lengthAdjust="spacing" textLength="136" x="272" y="91.5352">&#171;UniswapV4Router&#187;</text><text fill="#000000" font-family="sans-serif" font-size="14" lengthAdjust="spacing" textLength="90" x="295" y="108.0234">0xdc64..f6c9</text><rect fill="#E2E2F0" height="63.4648" rx="2.5" ry="2.5" style="stroke:#181818;stroke-width:0.5;" width="143" x="425" y="54.5117"/><text fill="#000000" font-family="sans-serif" font-size="14" font-style="italic" lengthAdjust="spacing" textLength="129" x="432" y="75.0469">&#171;Uniswap v4 Core&#187;</text><text fill="#000000" font-family="sans-serif" font-size="14" font-style="italic" lengthAdjust="spacing" textLength="104" x="444.5" y="91.5352">&#171;PoolManager&#187;</text><text fill="#000000" font-family="sans-serif" font-size="14" lengthAdjust="spacing" textLength="85" x="454" y="108.0234">0xcf7e..0fc9</text><rect fill="#E2E2F0" height="63.4648" rx="2.5" ry="2.5" style="stroke:#181818;stroke-width:0.5;" width="105" x="600" y="54.5117"/><text fill="#000000" font-family="sans-serif" font-size="14" font-style="italic" lengthAdjust="spacing" textLength="62" x="621.5" y="75.0469">&#171;token0&#187;</text><text fill="#000000" font-family="sans-serif" font-size="14" font-style="italic" lengthAdjust="spacing" textLength="88" x="608.5" y="91.5352">&#171;TestERC20&#187;</text><text fill="#000000" font-family="sans-serif" font-size="14" lengthAdjust="spacing" textLength="91" x="607" y="108.0234">0x9fe4..a6e0</text><rect fill="#FFFFFF" height="386.4844" style="stroke:#181818;stroke-width:1.0;" width="10" x="178" y="150.2871"/><rect fill="#FFFFFF" height="126.6211" style="stroke:#181818;stroke-width:1.0;" width="10" x="183" y="267.5293"/><rect fill="#FFFFFF" height="343.1738" style="stroke:#181818;stroke-width:1.0;" width="10" x="335" y="179.5977"/><rect fill="#FFFFFF" height="256.5527" style="stroke:#181818;stroke-width:1.0;" width="10" x="340" y="238.2188"/><rect fill="#FFFFFF" height="299.8633" style="stroke:#181818;stroke-width:1.0;" width="10" x="491.5" y="208.9082"/><rect fill="#FFFFFF" height="83.3105" style="stroke:#181818;stroke-width:1.0;" width="10" x="496.5" y="296.8398"/><rect fill="#FFFFFF" height="25" style="stroke:#181818;stroke-width:1.0;" width="10" x="501.5" y="334.1504"/><rect fill="#FFFFFF" height="57.3105" style="stroke:#181818;stroke-width:1.0;" width="10" x="496.5" y="423.4609"/><rect fill="#FFFFFF" height="14" style="stroke:#181818;stroke-width:1.0;" width="10" x="647.5" y="452.7715"/><polygon fill="#181818" points="166,146.2871,176,150.2871,166,154.2871,170,150.2871" style="stroke:#181818;stroke-width:1.0;"/><line style="stroke:#181818;stroke-width:1.0;" x1="53" x2="172" y1="150.2871" y2="150.2871"/><text fill="#000000" font-family="sans-serif" font-size="13" lengthAdjust="spacing" textLength="57" x="60" y="145.5449">withdraw</text><polygon fill="#181818" points="323,175.5977,333,179.5977,323,183.5977,327,179.5977" style="stroke:#181818;stroke-width:1.0;"/><line style="stroke:#181818;stroke-width:1.0;" x1="188" x2="329" y1="179.5977" y2="179.5977"/><text fill="#000000" font-family="sans-serif" font-size="13" lengthAdjust="spacing" textLength="49" x="195" y="174.8555">process</text><polygon fill="#181818" points="479.5,204.9082,489.5,208.9082,479.5,212.9082,483.5,208.9082" style="stroke:#181818;stroke-width:1.0;"/><line style="stroke:#181818;stroke-width:1.0;" x1="345" x2="485.5" y1="208.9082" y2="208.9082"/><text fill="#000000" font-family="sans-serif" font-size="13" lengthAdjust="spacing" textLength="27" x="352" y="204.166">lock</text><polygon fill="#181818" points="361,234.2188,351,238.2188,361,242.2188,357,238.2188" style="stroke:#181818;stroke-width:1.0;"/><line style="stroke:#181818;stroke-width:1.0;" x1="355" x2="490.5" y1="238.2188" y2="238.2188"/><text fill="#000000" font-family="sans-serif" font-size="13" lengthAdjust="spacing" textLength="83" x="367" y="233.4766">lockAcquired</text><polygon fill="#181818" points="204,263.5293,194,267.5293,204,271.5293,200,267.5293" style="stroke:#181818;stroke-width:1.0;"/><line style="stroke:#181818;stroke-width:1.0;" x1="198" x2="339" y1="267.5293" y2="267.5293"/><text fill="#000000" font-family="sans-serif" font-size="13" lengthAdjust="spacing" textLength="111" x="210" y="262.7871">withdrawCallback</text><polygon fill="#181818" points="484.5,292.8398,494.5,296.8398,484.5,300.8398,488.5,296.8398" style="stroke:#181818;stroke-width:1.0;"/><line style="stroke:#181818;stroke-width:1.0;" x1="193" x2="490.5" y1="296.8398" y2="296.8398"/><text fill="#000000" font-family="sans-serif" font-size="13" lengthAdjust="spacing" textLength="110" x="200" y="292.0977">safeTransferFrom</text><line style="stroke:#181818;stroke-width:1.0;" x1="506.5" x2="553.5" y1="321.1504" y2="321.1504"/><line style="stroke:#181818;stroke-width:1.0;" x1="553.5" x2="553.5" y1="321.1504" y2="334.1504"/><line style="stroke:#181818;stroke-width:1.0;" x1="512.5" x2="553.5" y1="334.1504" y2="334.1504"/><polygon fill="#181818" points="522.5,330.1504,512.5,334.1504,522.5,338.1504,518.5,334.1504" style="stroke:#181818;stroke-width:1.0;"/><text fill="#000000" font-family="sans-serif" font-size="13" lengthAdjust="spacing" textLength="127" x="518.5" y="316.4082">onERC1155Received</text><line style="stroke:#181818;stroke-width:1.0;stroke-dasharray:2.0,2.0;" x1="511.5" x2="553.5" y1="358.1504" y2="358.1504"/><line style="stroke:#181818;stroke-width:1.0;stroke-dasharray:2.0,2.0;" x1="553.5" x2="553.5" y1="358.1504" y2="371.1504"/><line style="stroke:#181818;stroke-width:1.0;stroke-dasharray:2.0,2.0;" x1="506.5" x2="553.5" y1="371.1504" y2="371.1504"/><polygon fill="#181818" points="516.5,367.1504,506.5,371.1504,516.5,375.1504,512.5,371.1504" style="stroke:#181818;stroke-width:1.0;"/><polygon fill="#181818" points="204,376.1504,194,380.1504,204,384.1504,200,380.1504" style="stroke:#181818;stroke-width:1.0;"/><line style="stroke:#181818;stroke-width:1.0;stroke-dasharray:2.0,2.0;" x1="198" x2="490.5" y1="380.1504" y2="380.1504"/><polygon fill="#181818" points="328,390.1504,338,394.1504,328,398.1504,332,394.1504" style="stroke:#181818;stroke-width:1.0;"/><line style="stroke:#181818;stroke-width:1.0;stroke-dasharray:2.0,2.0;" x1="188" x2="334" y1="394.1504" y2="394.1504"/><polygon fill="#181818" points="484.5,419.4609,494.5,423.4609,484.5,427.4609,488.5,423.4609" style="stroke:#181818;stroke-width:1.0;"/><line style="stroke:#181818;stroke-width:1.0;" x1="350" x2="490.5" y1="423.4609" y2="423.4609"/><text fill="#000000" font-family="sans-serif" font-size="13" lengthAdjust="spacing" textLength="27" x="357" y="418.7188">take</text><polygon fill="#181818" points="635.5,448.7715,645.5,452.7715,635.5,456.7715,639.5,452.7715" style="stroke:#181818;stroke-width:1.0;"/><line style="stroke:#181818;stroke-width:1.0;" x1="506.5" x2="641.5" y1="452.7715" y2="452.7715"/><text fill="#000000" font-family="sans-serif" font-size="13" lengthAdjust="spacing" textLength="49" x="513.5" y="448.0293">transfer</text><polygon fill="#181818" points="517.5,462.7715,507.5,466.7715,517.5,470.7715,513.5,466.7715" style="stroke:#181818;stroke-width:1.0;"/><line style="stroke:#181818;stroke-width:1.0;stroke-dasharray:2.0,2.0;" x1="511.5" x2="651.5" y1="466.7715" y2="466.7715"/><polygon fill="#181818" points="361,476.7715,351,480.7715,361,484.7715,357,480.7715" style="stroke:#181818;stroke-width:1.0;"/><line style="stroke:#181818;stroke-width:1.0;stroke-dasharray:2.0,2.0;" x1="355" x2="490.5" y1="480.7715" y2="480.7715"/><polygon fill="#181818" points="479.5,490.7715,489.5,494.7715,479.5,498.7715,483.5,494.7715" style="stroke:#181818;stroke-width:1.0;"/><line style="stroke:#181818;stroke-width:1.0;stroke-dasharray:2.0,2.0;" x1="345" x2="485.5" y1="494.7715" y2="494.7715"/><polygon fill="#181818" points="356,504.7715,346,508.7715,356,512.7715,352,508.7715" style="stroke:#181818;stroke-width:1.0;"/><line style="stroke:#181818;stroke-width:1.0;stroke-dasharray:2.0,2.0;" x1="350" x2="495.5" y1="508.7715" y2="508.7715"/><polygon fill="#181818" points="199,518.7715,189,522.7715,199,526.7715,195,522.7715" style="stroke:#181818;stroke-width:1.0;"/><line style="stroke:#181818;stroke-width:1.0;stroke-dasharray:2.0,2.0;" x1="193" x2="339" y1="522.7715" y2="522.7715"/><polygon fill="#181818" points="64,532.7715,54,536.7715,64,540.7715,60,536.7715" style="stroke:#181818;stroke-width:1.0;"/><line style="stroke:#181818;stroke-width:1.0;stroke-dasharray:2.0,2.0;" x1="58" x2="182" y1="536.7715" y2="536.7715"/><!--SRC=[XL7BRi8m4BpxAopkM86IKA8eKeNQMwKAqVQyEEjYaSQfRHwVNo_22QMHE5dZdTdTcVNQryZV6-sEqFB3Z8_vf_RRoiAHRNM5N1dZD-R464XlB1yb9_MmK49Cfrasuk0uGGASjM2zbhg5nXClLV9HY7IUpCyyWWHuKLp6VSoMKDTeo_9MMibi9eJAvE8i9KZWMheoUpyabMgEGYJg8YL8e9UIoQMnM9P5yMPC_GeDV0rrMYWCIq26oRaJGGAXapSxR19gi4RddrVBQG2CTKcCoyvjpeynpX2WFe37hiQwI88WUinvQur4vtf-BB4kXy2Fnd9U6xdhoV6VTSx_D2Voa_pPQulLdGd_BT2vDd0zRT1Alve3XMiBZLDeNwpvlhDcBpHDI7KoITCLIjI7wrqxfKM_jytDCnoHXntUcHtF6yYNXNj1h0sF77n-0G00]--></g></svg>